<svg width="360" height="208" viewBox="0 0 360 208" fill="none" xmlns="http://www.w3.org/2000/svg">
<g clip-path="url(#clip0_650_24026)">
<g clip-path="url(#clip1_650_24026)">
<rect opacity="0.2" width="290" height="173" rx="8" fill="#958E99"/>
<g clip-path="url(#clip2_650_24026)">
<path d="M243.333 159.5H182V221H243.333V159.5Z" fill="#8637EB"/>
<path d="M182 159.5H243.333V221C209.482 221 182 193.443 182 159.5Z" fill="#FFBE0C"/>
<path d="M181.999 159.5H120.666V221H181.999V159.5Z" fill="white"/>
<path d="M120.666 159.5H181.999C181.999 193.443 154.517 221 120.666 221V159.5Z" fill="#8637EB"/>
<path d="M304.666 159.5V221H365.999V159.5H304.666Z" fill="#8637EB"/>
<path d="M304.666 221V159.5H365.999C365.999 193.443 338.517 221 304.666 221Z" fill="white"/>
<path d="M304.668 221V159.5H243.335V221H304.668Z" fill="#FFBE0C"/>
<path d="M304.668 159.5V221C270.817 221 243.335 193.443 243.335 159.5H304.668Z" fill="white"/>
<path d="M304.667 98H243.334V159.5H304.667V98Z" fill="#8637EB"/>
<path d="M243.334 98H304.667V159.5C270.816 159.5 243.334 131.943 243.334 98Z" fill="white"/>
<path d="M365.999 98H304.666V159.5H365.999V98Z" fill="white"/>
<path d="M304.666 98H365.999C365.999 131.943 338.517 159.5 304.666 159.5V98Z" fill="#8637EB"/>
<path d="M182 98V159.5H243.333V98H182Z" fill="#8637EB"/>
<path d="M182 159.5V98C215.851 98 243.333 125.557 243.333 159.5H182Z" fill="white"/>
<path d="M304.666 36.5V98H365.999V36.5L304.666 36.5Z" fill="#8637EB"/>
<path d="M304.666 98V36.5C338.517 36.5 365.999 64.0569 365.999 98H304.666Z" fill="#FFBE0C"/>
<path d="M304.667 36.5L366 36.5V-25L304.667 -25V36.5Z" fill="#8637EB"/>
<path d="M366 36.5L304.667 36.5V-25C338.518 -25 366 2.55692 366 36.5Z" fill="white"/>
<path d="M243.335 36.5L304.668 36.5V-25L243.335 -25V36.5Z" fill="#FFBE0C"/>
<path d="M304.668 36.5L243.335 36.5C243.335 2.55692 270.817 -25 304.668 -25V36.5Z" fill="#8637EB"/>
<path d="M-1.99935 36.5L59.334 36.5L59.334 -25L-1.99935 -25L-1.99935 36.5Z" fill="#8637EB"/>
<path d="M59.334 36.5L-1.99935 36.5C-1.99935 2.55692 25.4829 -25 59.334 -25L59.334 36.5Z" fill="#FFBE0C"/>
<path d="M59.334 -25L59.334 36.5L120.667 36.5V-25L59.334 -25Z" fill="white"/>
<path d="M59.334 36.5L59.334 -25C93.1851 -25 120.667 2.55692 120.667 36.5L59.334 36.5Z" fill="#8637EB"/>
<path d="M59.334 159.5L59.334 221H120.667V159.5H59.334Z" fill="#8637EB"/>
<path d="M59.334 221L59.334 159.5H120.667C120.667 193.443 93.1851 221 59.334 221Z" fill="#FFBE0C"/>
<path d="M120.667 36.5H59.334V98H120.667V36.5Z" fill="#8637EB"/>
<path d="M59.334 36.5H120.667V98C86.8162 98 59.334 70.4431 59.334 36.5Z" fill="#FFBE0C"/>
<path d="M59.3333 36.5H-2V98H59.3333V36.5Z" fill="#8637EB"/>
<path d="M-2 36.5H59.3333V98C25.4822 98 -2 70.4431 -2 36.5Z" fill="white"/>
<path d="M120.667 98H59.334V159.5H120.667V98Z" fill="white"/>
<path d="M59.334 98H120.667V159.5C86.8162 159.5 59.334 131.943 59.334 98Z" fill="#8637EB"/>
<path d="M-1.99935 159.5H59.334L59.334 98H-1.99935L-1.99935 159.5Z" fill="#FFBE0C"/>
<path d="M59.334 159.5H-1.99935C-1.99935 125.557 25.4829 98 59.334 98L59.334 159.5Z" fill="white"/>
<path d="M59.334 221L59.334 159.5H-1.99935L-1.99935 221H59.334Z" fill="#FFBE0C"/>
<path d="M59.334 159.5L59.334 221C25.4829 221 -1.99935 193.443 -1.99935 159.5H59.334Z" fill="#8637EB"/>
<path d="M243.333 36.5H182V98H243.333V36.5Z" fill="#8637EB"/>
<path d="M243.333 67.25C243.333 50.2672 229.603 36.5 212.667 36.5C195.73 36.5 182 50.2672 182 67.25C182 84.2328 195.73 98 212.667 98C229.603 98 243.333 84.2328 243.333 67.25Z" fill="#FFBE0C"/>
<path d="M304.668 98V36.5L243.335 36.5V98H304.668Z" fill="#8637EB"/>
<path d="M304.668 36.5V98C270.817 98 243.335 70.4431 243.335 36.5L304.668 36.5Z" fill="white"/>
<path d="M120.666 98V159.5H181.999V98H120.666Z" fill="white"/>
<path d="M120.666 159.5V98C154.517 98 181.999 125.557 181.999 159.5H120.666Z" fill="#FFBE0C"/>
<path d="M120.666 36.5V98H181.999V36.5L120.666 36.5Z" fill="#8637EB"/>
<path d="M120.666 36.5H181.999C181.999 70.4431 154.517 98 120.666 98V36.5Z" fill="white"/>
<path d="M120.667 36.5L182 36.5V-25L120.667 -25V36.5Z" fill="#8637EB"/>
<path d="M182 36.5L120.667 36.5C120.667 2.55692 148.149 -25 182 -25V36.5Z" fill="#FFBE0C"/>
<path d="M243.334 36.5V-25L182.001 -25V36.5L243.334 36.5Z" fill="white"/>
<path d="M243.334 36.5L182.001 36.5V-25C215.852 -25 243.334 2.55692 243.334 36.5Z" fill="#8637EB"/>
</g>
</g>
</g>
<defs>
<clipPath id="clip0_650_24026">
<rect width="360" height="208" rx="8" fill="white"/>
</clipPath>
<clipPath id="clip1_650_24026">
<rect width="366" height="208" rx="8" fill="white"/>
</clipPath>
<clipPath id="clip2_650_24026">
<rect width="368" height="246" fill="white" transform="translate(-2 -25)"/>
</clipPath>
</defs>
</svg>
