<svg width="360" height="208" viewBox="0 0 360 208" fill="none" xmlns="http://www.w3.org/2000/svg">
<g clip-path="url(#clip0_650_23957)">
<g clip-path="url(#clip1_650_23957)">
<rect opacity="0.2" width="290" height="173" rx="8" fill="#958E99"/>
<rect y="-8" width="368.217" height="219.22" fill="#1E1A22"/>
<path d="M340.833 159.248C357.963 159.248 371.846 171.726 371.846 187.124C371.846 202.516 357.963 215 340.833 215C323.703 215 309.82 202.521 309.82 187.124C309.82 171.731 323.703 159.248 340.833 159.248Z" fill="#8637EB"/>
<path d="M247.795 159.248H309.821V214.995C275.565 214.995 247.795 190.033 247.795 159.248Z" fill="white"/>
<path d="M247.795 159.248V214.995H185.77C185.77 184.205 213.54 159.248 247.795 159.248Z" fill="#8637EB"/>
<path d="M123.744 159.248H185.77C185.77 190.038 157.999 214.995 123.744 214.995V159.248Z" fill="#FF3334"/>
<path d="M309.82 103.5H371.846V159.248C337.591 159.248 309.82 134.285 309.82 103.5Z" fill="white"/>
<path d="M247.795 103.5H309.821C309.821 134.29 282.05 159.248 247.795 159.248V103.5Z" fill="#FFBE0C"/>
<path d="M185.77 103.5C220.025 103.5 247.795 128.462 247.795 159.248H185.77V103.5Z" fill="white"/>
<path d="M123.744 103.5H185.77V159.248C151.515 159.248 123.744 134.285 123.744 103.5Z" fill="#FF3334"/>
<path d="M124.051 159.248V214.995H62.0254C62.0254 184.205 89.7959 159.248 124.051 159.248Z" fill="#FFBE0C"/>
<path d="M0 159.248C34.2551 159.248 62.0257 184.21 62.0257 214.995H0V159.248Z" fill="#FF3334"/>
<path d="M62.0254 103.5C96.2805 103.5 124.051 128.462 124.051 159.248H62.0254V103.5Z" fill="#FFBE0C"/>
<path d="M31.0128 103.5C48.1429 103.5 62.0257 115.979 62.0257 131.376C62.0257 146.769 48.1429 159.252 31.0128 159.252C13.8828 159.248 0 146.769 0 131.376C0 115.979 13.8828 103.5 31.0128 103.5Z" fill="white"/>
<path d="M31.1671 47.7475C14.042 47.7475 0.154297 35.2689 0.154297 19.8762C0.154297 4.47864 14.042 -8 31.1671 -8C48.2972 -8 62.1799 4.47864 62.1799 19.8762C62.1799 35.2689 48.2972 47.7525 31.1671 47.7525V47.7475Z" fill="#FF006E"/>
<path d="M124.205 47.7475H62.1797V-8C96.4348 -8 124.205 16.9622 124.205 47.7475Z" fill="#8637EB"/>
<path d="M124.205 47.7475V-8H186.231C186.231 22.7902 158.46 47.7475 124.205 47.7475Z" fill="#FF006E"/>
<path d="M248.256 47.7475H186.23C186.23 16.9622 214.001 -8 248.256 -8V47.7475Z" fill="#FF3334"/>
<path d="M62.1799 103.5H0.154297V47.7475C34.4094 47.7475 62.1799 72.7098 62.1799 103.495V103.5Z" fill="#8637EB"/>
<path d="M124.205 103.5H62.1797C62.1797 72.7098 89.9502 47.7525 124.205 47.7525V103.5Z" fill="#FFBE0C"/>
<path d="M186.231 103.5C151.976 103.5 124.205 78.5378 124.205 47.7525H186.231V103.5Z" fill="#8637EB"/>
<path d="M248.256 103.5H186.23V47.7475C220.486 47.7475 248.256 72.7098 248.256 103.495V103.5Z" fill="#FF3334"/>
<path d="M247.949 47.7475V-8H309.975C309.975 22.7902 282.204 47.7475 247.949 47.7475Z" fill="#FFBE0C"/>
<path d="M372 47.7475C337.745 47.7475 309.975 22.7853 309.975 -8H372V47.7475Z" fill="#FF3334"/>
<path d="M309.975 103.5C275.72 103.5 247.949 78.5378 247.949 47.7525H309.975V103.5Z" fill="#FFBE0C"/>
<path d="M340.987 103.5C323.857 103.5 309.975 91.0214 309.975 75.6238C309.975 60.2311 323.857 47.7475 340.987 47.7475C358.117 47.7475 372 60.2262 372 75.6238C372 91.0164 358.117 103.5 340.987 103.5Z" fill="#8637EB"/>
</g>
</g>
<defs>
<clipPath id="clip0_650_23957">
<rect width="360" height="208" rx="8" fill="white"/>
</clipPath>
<clipPath id="clip1_650_23957">
<rect width="366" height="208" rx="8" fill="white"/>
</clipPath>
</defs>
</svg>
