<svg width="21" height="22" viewBox="0 0 21 22" fill="none" xmlns="http://www.w3.org/2000/svg">
<mask id="mask0_1553_165612" style="mask-type:alpha" maskUnits="userSpaceOnUse" x="0" y="0" width="21" height="22">
<rect y="0.26667" width="20.8" height="20.8" fill="#D9D9D9"/>
</mask>
<g mask="url(#mask0_1553_165612)">
<path d="M12.1329 2.86674V4.60007H4.33294V16.7334H16.4663V8.9334H18.1996V16.7334C18.1996 17.2101 18.03 17.6183 17.6909 17.958C17.3511 18.2972 16.9429 18.4667 16.4663 18.4667H4.33294C3.85628 18.4667 3.44808 18.2972 3.10834 17.958C2.76919 17.6183 2.59961 17.2101 2.59961 16.7334V4.60007C2.59961 4.1234 2.76919 3.7152 3.10834 3.37547C3.44808 3.03631 3.85628 2.86674 4.33294 2.86674H12.1329ZM16.4663 2.86674V4.60007H18.1996V6.3334H16.4663V8.06674H14.7329V6.3334H12.9996V4.60007H14.7329V2.86674H16.4663ZM5.19961 15.0001H15.5996L12.3496 10.6667L9.74961 14.1334L7.79961 11.5334L5.19961 15.0001Z" fill="#FF006E"/>
</g>
</svg>
