<svg width="48" height="48" viewBox="0 0 48 48" fill="none" xmlns="http://www.w3.org/2000/svg">
<circle cx="24" cy="24" r="24" fill="white"/>
<g clip-path="url(#clip0_427_109)">
<path d="M35.536 29.76C34.899 31.1746 34.5921 31.8069 33.7729 33.0554C32.626 34.8 31.0083 36.9785 29.0098 36.9923C27.2306 37.0085 26.7713 35.8315 24.3552 35.8523C21.9413 35.8638 21.4383 37.0154 19.6567 36.9969C17.656 36.9785 16.126 35.0169 14.979 33.2746C11.7713 28.3892 11.4321 22.6615 13.4144 19.6154C14.8175 17.4554 17.0352 16.1861 19.119 16.1861C21.2421 16.1861 22.576 17.3515 24.3298 17.3515C26.0329 17.3515 27.069 16.1838 29.5244 16.1838C31.3798 16.1838 33.3413 17.1946 34.7444 18.9392C30.1567 21.4546 30.9021 28.0061 35.536 29.76ZM27.6598 14.2338C28.5529 13.0869 29.2313 11.4692 28.9844 9.82153C27.5283 9.92076 25.8252 10.8508 24.8306 12.0554C23.9283 13.1538 23.1806 14.7831 23.4713 16.3592C25.0613 16.41 26.7067 15.4615 27.6598 14.2338Z" fill="black"/>
</g>
<defs>
<clipPath id="clip0_427_109">
<rect width="29.5385" height="29.5385" fill="white" transform="translate(9.23047 9.23071)"/>
</clipPath>
</defs>
</svg>
