<svg width="22" height="25" viewBox="0 0 22 25" fill="none" xmlns="http://www.w3.org/2000/svg">
<path fill-rule="evenodd" clip-rule="evenodd" d="M0.499388 17.7509C0.499388 17.9499 0.578405 18.1406 0.719057 18.2813C0.85971 18.4219 1.05048 18.5009 1.24939 18.5009H18.9389L14.2184 23.2199C14.0776 23.3608 13.9984 23.5518 13.9984 23.7509C13.9984 23.9501 14.0776 24.1411 14.2184 24.2819C14.3592 24.4228 14.5502 24.5019 14.7494 24.5019C14.9486 24.5019 15.1396 24.4228 15.2804 24.2819L21.2804 18.2819C21.3502 18.2123 21.4056 18.1295 21.4435 18.0384C21.4813 17.9473 21.5007 17.8496 21.5007 17.7509C21.5007 17.6523 21.4813 17.5546 21.4435 17.4635C21.4056 17.3724 21.3502 17.2896 21.2804 17.2199L15.2804 11.2199C15.1396 11.0791 14.9486 11 14.7494 11C14.5502 11 14.3592 11.0791 14.2184 11.2199C14.0776 11.3608 13.9984 11.5518 13.9984 11.7509C13.9984 11.9501 14.0776 12.1411 14.2184 12.2819L18.9389 17.0009H1.24939C1.05048 17.0009 0.85971 17.08 0.719057 17.2206C0.578405 17.3613 0.499388 17.552 0.499388 17.7509ZM21.4994 7.25095C21.4994 7.44986 21.4204 7.64063 21.2797 7.78128C21.1391 7.92193 20.9483 8.00095 20.7494 8.00095H3.05989L7.78039 12.7199C7.85012 12.7897 7.90543 12.8725 7.94317 12.9636C7.98091 13.0547 8.00034 13.1523 8.00034 13.2509C8.00034 13.3496 7.98091 13.4472 7.94317 13.5383C7.90543 13.6294 7.85012 13.7122 7.78039 13.7819C7.71066 13.8517 7.62787 13.907 7.53676 13.9447C7.44565 13.9825 7.348 14.0019 7.24939 14.0019C7.15077 14.0019 7.05312 13.9825 6.96201 13.9447C6.8709 13.907 6.78812 13.8517 6.71839 13.7819L0.718388 7.78195C0.648543 7.71228 0.593128 7.62952 0.555319 7.5384C0.517509 7.44728 0.498047 7.3496 0.498047 7.25095C0.498047 7.1523 0.517509 7.05462 0.555319 6.9635C0.593128 6.87238 0.648543 6.78962 0.718388 6.71995L6.71839 0.719947C6.85922 0.579117 7.05022 0.5 7.24939 0.5C7.44855 0.5 7.63956 0.579117 7.78039 0.719947C7.92122 0.860777 8.00034 1.05178 8.00034 1.25095C8.00034 1.45011 7.92122 1.64112 7.78039 1.78195L3.05989 6.50095H20.7494C20.9483 6.50095 21.1391 6.57997 21.2797 6.72062C21.4204 6.86127 21.4994 7.05204 21.4994 7.25095Z" fill="white"/>
</svg>
