<svg width="20" height="20" viewBox="0 0 20 20" fill="none" xmlns="http://www.w3.org/2000/svg">
<path d="M4.16667 18.3333C3.70833 18.3333 3.31583 18.17 2.98917 17.8433C2.6625 17.5167 2.49945 17.1244 2.5 16.6667V5C2.5 4.54166 2.66333 4.14916 2.99 3.8225C3.31667 3.49583 3.70889 3.33278 4.16667 3.33333H5V2.47916C5 2.24305 5.08 2.04861 5.24 1.89583C5.4 1.74305 5.59778 1.66666 5.83333 1.66666C6.06945 1.66666 6.2675 1.74666 6.4275 1.90666C6.5875 2.06666 6.66722 2.26444 6.66667 2.5V3.33333H13.3333V2.47916C13.3333 2.24305 13.4133 2.04861 13.5733 1.89583C13.7333 1.74305 13.9311 1.66666 14.1667 1.66666C14.4028 1.66666 14.6008 1.74666 14.7608 1.90666C14.9208 2.06666 15.0006 2.26444 15 2.5V3.33333H15.8333C16.2917 3.33333 16.6842 3.49666 17.0108 3.82333C17.3375 4.15 17.5006 4.54222 17.5 5V16.6667C17.5 17.125 17.3367 17.5175 17.01 17.8442C16.6833 18.1708 16.2911 18.3339 15.8333 18.3333H4.16667ZM4.16667 16.6667H15.8333V8.33333H4.16667V16.6667Z" fill="#958E99"/>
</svg>
