<svg width="651" height="570" viewBox="0 0 651 570" fill="none" xmlns="http://www.w3.org/2000/svg">
<g id="Camera Access">
<path id="Stroke 1" fill-rule="evenodd" clip-rule="evenodd" d="M588.234 310.964C588.234 452.128 473.795 566.567 332.631 566.567C191.467 566.567 77.0303 452.128 77.0303 310.964C77.0303 169.8 191.467 55.3607 332.631 55.3607C473.795 55.3607 588.234 169.8 588.234 310.964Z" stroke="#393739" stroke-width="0.820898" stroke-dasharray="4.12 4.12"/>
<path id="Stroke 3" fill-rule="evenodd" clip-rule="evenodd" d="M522.442 310.963C522.442 415.793 437.46 500.775 332.63 500.775C227.798 500.775 142.821 415.793 142.821 310.963C142.821 206.134 227.798 121.151 332.63 121.151C437.46 121.151 522.442 206.134 522.442 310.963Z" stroke="#393739" stroke-width="0.820898" stroke-dasharray="4.14 4.14"/>
<path id="Stroke 5" d="M28.7412 345.378L23.9956 345.232" stroke="#1E1C1F" stroke-width="0.820898" stroke-linecap="round"/>
<path id="Stroke 7" d="M25.3358 336.379L21.9324 339.559" stroke="#1E1C1F" stroke-width="0.820898" stroke-linecap="round"/>
<path id="Stroke 9" d="M16.4681 332.272L16.3967 336.911" stroke="#1E1C1F" stroke-width="0.820898" stroke-linecap="round"/>
<path id="Stroke 11" d="M7.32495 335.456L10.6299 338.84" stroke="#1E1C1F" stroke-width="0.820898" stroke-linecap="round"/>
<path id="Stroke 13" d="M3.26514 344.073L8.00828 344.218" stroke="#1E1C1F" stroke-width="0.820898" stroke-linecap="round"/>
<path id="Stroke 15" d="M6.6709 353.07L10.0768 349.89" stroke="#1E1C1F" stroke-width="0.820898" stroke-linecap="round"/>
<path id="Stroke 17" d="M15.5398 357.18L15.6112 352.54" stroke="#1E1C1F" stroke-width="0.820898" stroke-linecap="round"/>
<path id="Stroke 19" d="M24.6843 353.993L21.3794 350.61" stroke="#1E1C1F" stroke-width="0.820898" stroke-linecap="round"/>
<path id="Stroke 21" d="M647.623 279.23L645.538 281.488" stroke="#1E1C1F" stroke-width="0.820898" stroke-linecap="round"/>
<path id="Stroke 23" d="M637.832 281.193L639.405 282.643" stroke="#1E1C1F" stroke-width="0.820898" stroke-linecap="round"/>
<path id="Stroke 25" d="M636.245 291.2L638.331 288.941" stroke="#1E1C1F" stroke-width="0.820898" stroke-linecap="round"/>
<path id="Stroke 27" d="M646.031 289.237L644.46 287.787" stroke="#1E1C1F" stroke-width="0.820898" stroke-linecap="round"/>
<path id="Stroke 29" d="M456.574 13.811L451.528 13.6756" stroke="#1E1C1F" stroke-width="0.820898" stroke-linecap="round"/>
<path id="Stroke 31" d="M443.519 1.62863L443.443 5.94081" stroke="#1E1C1F" stroke-width="0.820898" stroke-linecap="round"/>
<path id="Stroke 33" d="M429.475 12.5977L434.521 12.7307" stroke="#1E1C1F" stroke-width="0.820898" stroke-linecap="round"/>
<path id="Stroke 35" d="M442.529 24.779L442.606 20.4668" stroke="#1E1C1F" stroke-width="0.820898" stroke-linecap="round"/>
<path id="Fill 37" fill-rule="evenodd" clip-rule="evenodd" d="M82.8988 479.407C79.2688 480.493 73.2229 485.827 71.1542 492.151C70.807 486.275 67.076 478.89 62.9707 477.826C67.9798 476.055 73.4051 469.546 74.8483 464.062C74.5872 469.81 79.8057 478.156 82.8988 479.407Z" fill="#393739"/>
<path id="Fill 39" fill-rule="evenodd" clip-rule="evenodd" d="M167.917 36.9077C165.117 37.4027 160.155 40.8505 158.067 45.3818C158.315 40.9761 156.175 35.1518 153.21 34.0042C157.094 33.1176 161.699 28.7389 163.248 24.7789C162.556 29.0394 165.721 35.7084 167.917 36.9077Z" fill="#393739"/>
<path id="Fill 41" fill-rule="evenodd" clip-rule="evenodd" d="M539.046 68.902C535.305 68.8207 532.34 65.7251 532.423 61.9868C532.505 58.2484 535.6 55.2833 539.336 55.3646C543.077 55.4458 546.042 58.5415 545.961 62.2798C545.877 66.0182 542.784 68.9833 539.046 68.902Z" fill="#1E1C1F"/>
<path id="Fill 43" fill-rule="evenodd" clip-rule="evenodd" d="M539.063 512.562C535.81 512.493 533.229 509.796 533.298 506.543C533.367 503.287 536.064 500.706 539.32 500.775C542.575 500.847 545.156 503.541 545.085 506.796C545.013 510.05 542.319 512.633 539.063 512.562Z" fill="#393739"/>
<path id="Stroke 45" fill-rule="evenodd" clip-rule="evenodd" d="M49.6189 158.757C47.6044 158.712 46.0061 157.045 46.0505 155.028C46.0923 153.014 47.762 151.418 49.7765 151.46C51.791 151.504 53.3893 153.171 53.3474 155.186C53.3031 157.203 51.6334 158.801 49.6189 158.757Z" stroke="#1E1C1F" stroke-width="0.820898" stroke-linecap="round"/>
<path id="Fill 47" fill-rule="evenodd" clip-rule="evenodd" d="M442.61 144.63C442.61 157.596 432.097 168.107 419.133 168.107C406.165 168.107 395.656 157.596 395.656 144.63C395.656 131.664 406.165 121.151 419.133 121.151C432.097 121.151 442.61 131.664 442.61 144.63Z" fill="#393739"/>
<path id="Fill 1" fill-rule="evenodd" clip-rule="evenodd" d="M543.827 172.786C543.827 172.786 546.204 156.897 553.548 156.897C559.796 156.897 561.929 168.536 568.115 159.237C575.033 148.829 580.092 135.588 595.543 172.786H543.827ZM553.677 135.845C557.759 135.845 561.065 139.155 561.065 143.233C561.065 147.315 557.759 150.622 553.677 150.622C549.596 150.622 546.289 147.315 546.289 143.233C546.289 139.155 549.596 135.845 553.677 135.845ZM604.04 123.532H535.331C533.224 123.532 531.513 125.239 531.513 127.343V183.751C531.513 185.855 533.224 187.562 535.331 187.562H604.04C606.147 187.562 607.857 185.855 607.857 183.751V127.343C607.857 125.239 606.147 123.532 604.04 123.532Z" fill="#393739"/>
<path id="Fill 1 Copy" fill-rule="evenodd" clip-rule="evenodd" d="M112.855 419.055C112.855 419.055 110.817 403.166 104.522 403.166C99.167 403.166 97.3385 414.806 92.0358 405.506C86.1061 395.098 81.7699 381.857 68.5262 419.055H112.855ZM104.235 382.115C107.636 382.115 110.392 384.873 110.392 388.271C110.392 391.672 107.636 394.428 104.235 394.428C100.834 394.428 98.0786 391.672 98.0786 388.271C98.0786 384.873 100.834 382.115 104.235 382.115ZM117.288 377.189H64.0934C62.4621 377.189 61.1382 378.503 61.1382 380.121V423.511C61.1382 425.13 62.4621 426.443 64.0934 426.443H117.288C118.919 426.443 120.243 425.13 120.243 423.511V380.121C120.243 378.503 118.919 377.189 117.288 377.189Z" fill="#393739"/>
<g id="Camera">
<path id="Fill 12" fill-rule="evenodd" clip-rule="evenodd" d="M411.631 237.508H403.839V231.769C403.839 227.772 400.524 224.502 396.478 224.502H382.44C378.4 224.502 375.091 227.772 375.091 231.769V237.508H254.902C237.657 237.508 223.677 251.319 223.677 268.355V361.118C223.677 378.154 237.657 391.965 254.902 391.965H411.631C428.876 391.965 442.856 378.154 442.856 361.118V268.355C442.856 251.319 428.876 237.508 411.631 237.508Z" fill="#393739"/>
<path id="Fill 15" fill-rule="evenodd" clip-rule="evenodd" d="M371.437 318.085C371.437 346.644 348.287 369.801 319.724 369.801C291.16 369.801 268.004 346.644 268.004 318.085C268.004 289.519 291.16 266.368 319.724 266.368C348.287 266.368 371.437 289.519 371.437 318.085Z" fill="#1E1C1F"/>
<path id="Fill 17" fill-rule="evenodd" clip-rule="evenodd" d="M366.512 315.622C366.512 342.823 344.46 364.876 317.255 364.876C290.056 364.876 268.004 342.823 268.004 315.622C268.004 288.415 290.056 266.368 317.255 266.368C344.46 266.368 366.512 288.415 366.512 315.622Z" fill="#4E4C4E"/>
<path id="Fill 19" fill-rule="evenodd" clip-rule="evenodd" d="M349.274 314.391C349.274 331.389 335.487 345.174 318.487 345.174C301.483 345.174 287.706 331.389 287.706 314.391C287.706 297.393 301.483 283.607 318.487 283.607C335.487 283.607 349.274 297.393 349.274 314.391Z" fill="#FF006E"/>
<path id="Fill 21" fill-rule="evenodd" clip-rule="evenodd" d="M322.184 308.234C322.184 313.675 317.774 318.085 312.333 318.085C306.892 318.085 302.482 313.675 302.482 308.234C302.482 302.793 306.892 298.383 312.333 298.383C317.774 298.383 322.184 302.793 322.184 308.234Z" fill="white"/>
</g>
</g>
</svg>
