<svg width="12" height="12" viewBox="0 0 12 12" fill="none" xmlns="http://www.w3.org/2000/svg">
<g clip-path="url(#clip0_4136_16955)">
<path d="M11 5.53999V5.99999C10.9994 7.0782 10.6503 8.12733 10.0047 8.99091C9.35908 9.85448 8.45164 10.4862 7.41768 10.7919C6.38372 11.0977 5.27863 11.0609 4.26724 10.6873C3.25584 10.3136 2.39233 9.62304 1.80548 8.71853C1.21863 7.81401 0.939896 6.74403 1.01084 5.66815C1.08178 4.59228 1.4986 3.56816 2.19914 2.74853C2.89968 1.9289 3.84639 1.35768 4.89809 1.12007C5.9498 0.882448 7.05013 0.991162 8.035 1.42999" stroke="#7EFF3F" stroke-linecap="round" stroke-linejoin="round"/>
<path d="M11 2L6 7.005L4.5 5.505" stroke="#7EFF3F" stroke-linecap="round" stroke-linejoin="round"/>
</g>
<defs>
<clipPath id="clip0_4136_16955">
<rect width="12" height="12" fill="white"/>
</clipPath>
</defs>
</svg>
