<svg width="16" height="16" viewBox="0 0 16 16" fill="none" xmlns="http://www.w3.org/2000/svg">
<rect x="4" y="4" width="8" height="9.33333" fill="white"/>
<path d="M8 1C8.91925 1 9.82951 1.18106 10.6788 1.53284C11.5281 1.88463 12.2997 2.40024 12.9497 3.05025C13.5998 3.70026 14.1154 4.47194 14.4672 5.32122C14.8189 6.1705 15 7.08075 15 8C15 8.91925 14.8189 9.82951 14.4672 10.6788C14.1154 11.5281 13.5998 12.2997 12.9497 12.9497C12.2997 13.5998 11.5281 14.1154 10.6788 14.4672C9.82951 14.8189 8.91925 15 8 15C6.14348 15 4.36301 14.2625 3.05025 12.9497C1.7375 11.637 1 9.85652 1 8C1 6.14348 1.7375 4.36301 3.05025 3.05025C4.36301 1.7375 6.14348 1 8 1ZM10.4733 5.858L7.125 9.21567L5.49633 7.587C5.4421 7.53276 5.37771 7.48974 5.30685 7.46039C5.23598 7.43104 5.16003 7.41593 5.08333 7.41593C5.00663 7.41593 4.93068 7.43104 4.85982 7.46039C4.78896 7.48974 4.72457 7.53276 4.67033 7.587C4.6161 7.64124 4.57307 7.70562 4.54372 7.77649C4.51437 7.84735 4.49926 7.9233 4.49926 8C4.49926 8.0767 4.51437 8.15265 4.54372 8.22351C4.57307 8.29438 4.6161 8.35876 4.67033 8.413L6.712 10.4547C6.76619 10.509 6.83056 10.5521 6.90143 10.5815C6.9723 10.6109 7.04827 10.626 7.125 10.626C7.20173 10.626 7.2777 10.6109 7.34857 10.5815C7.41944 10.5521 7.48381 10.509 7.538 10.4547L11.2993 6.68167C11.4054 6.5715 11.464 6.42406 11.4625 6.27111C11.461 6.11816 11.3994 5.97193 11.2911 5.86393C11.1828 5.75592 11.0364 5.69478 10.8834 5.69367C10.7305 5.69256 10.5832 5.75158 10.4733 5.858Z" fill="#6923E7"/>
</svg>
