<svg width="18" height="18" viewBox="0 0 18 18" fill="none" xmlns="http://www.w3.org/2000/svg">
<path d="M11.2668 6.32508L7.69175 9.90841L6.31675 8.53341C6.24205 8.44618 6.15011 8.37533 6.04673 8.32531C5.94334 8.27529 5.83073 8.24718 5.71596 8.24275C5.6012 8.23832 5.48675 8.25766 5.37982 8.29955C5.27288 8.34145 5.17576 8.40499 5.09454 8.48621C5.01333 8.56742 4.94978 8.66454 4.90789 8.77148C4.86599 8.87842 4.84665 8.99286 4.85109 9.10763C4.85552 9.22239 4.88363 9.335 4.93365 9.43839C4.98367 9.54178 5.05452 9.63371 5.14175 9.70842L7.10009 11.6751C7.17795 11.7523 7.2703 11.8134 7.37183 11.8549C7.47336 11.8964 7.58208 11.9174 7.69175 11.9167C7.91037 11.9158 8.11987 11.829 8.27509 11.6751L12.4418 7.50842C12.5199 7.43095 12.5819 7.33878 12.6242 7.23723C12.6665 7.13568 12.6883 7.02676 12.6883 6.91675C12.6883 6.80674 12.6665 6.69782 12.6242 6.59627C12.5819 6.49472 12.5199 6.40255 12.4418 6.32508C12.2856 6.16987 12.0744 6.08275 11.8543 6.08275C11.6341 6.08275 11.4229 6.16987 11.2668 6.32508ZM9.00008 0.666748C7.35191 0.666748 5.74074 1.15549 4.37033 2.07117C2.99992 2.98685 1.93182 4.28834 1.30109 5.81105C0.670359 7.33377 0.505331 9.00933 0.826874 10.6258C1.14842 12.2423 1.94209 13.7272 3.10753 14.8926C4.27297 16.0581 5.75782 16.8517 7.37433 17.1733C8.99084 17.4948 10.6664 17.3298 12.1891 16.6991C13.7118 16.0683 15.0133 15.0002 15.929 13.6298C16.8447 12.2594 17.3334 10.6483 17.3334 9.00008C17.3334 7.90573 17.1179 6.8221 16.6991 5.81105C16.2803 4.80001 15.6665 3.88135 14.8926 3.10752C14.1188 2.3337 13.2002 1.71987 12.1891 1.30109C11.1781 0.882296 10.0944 0.666748 9.00008 0.666748ZM9.00008 15.6667C7.68154 15.6667 6.39261 15.2758 5.29628 14.5432C4.19996 13.8107 3.34547 12.7695 2.84089 11.5513C2.3363 10.3331 2.20428 8.99269 2.46152 7.69948C2.71875 6.40627 3.35369 5.21839 4.28604 4.28604C5.21839 3.35369 6.40628 2.71875 7.69948 2.46151C8.99269 2.20428 10.3331 2.3363 11.5513 2.84088C12.7695 3.34547 13.8107 4.19995 14.5432 5.29628C15.2758 6.39261 15.6668 7.68154 15.6668 9.00008C15.6668 10.7682 14.9644 12.4639 13.7141 13.7141C12.4639 14.9644 10.7682 15.6667 9.00008 15.6667Z" fill="white"/>
</svg>
