<svg width="14" height="14" viewBox="0 0 14 14" fill="none" xmlns="http://www.w3.org/2000/svg">
<path d="M7 0C7.91925 -1.36979e-08 8.82951 0.18106 9.67878 0.532843C10.5281 0.884626 11.2997 1.40024 11.9497 2.05025C12.5998 2.70026 13.1154 3.47194 13.4672 4.32122C13.8189 5.1705 14 6.08075 14 7C14 7.91925 13.8189 8.82951 13.4672 9.67878C13.1154 10.5281 12.5998 11.2997 11.9497 11.9497C11.2997 12.5998 10.5281 13.1154 9.67878 13.4672C8.82951 13.8189 7.91925 14 7 14C5.14348 14 3.36301 13.2625 2.05025 11.9497C0.737498 10.637 0 8.85652 0 7C0 5.14348 0.737498 3.36301 2.05025 2.05025C3.36301 0.737498 5.14348 2.76642e-08 7 0ZM9.47333 4.858L6.125 8.21567L4.49633 6.587C4.4421 6.53276 4.37771 6.48974 4.30685 6.46039C4.23598 6.43104 4.16003 6.41593 4.08333 6.41593C4.00663 6.41593 3.93068 6.43104 3.85982 6.46039C3.78896 6.48974 3.72457 6.53276 3.67033 6.587C3.6161 6.64124 3.57307 6.70562 3.54372 6.77649C3.51437 6.84735 3.49926 6.9233 3.49926 7C3.49926 7.0767 3.51437 7.15265 3.54372 7.22351C3.57307 7.29438 3.6161 7.35876 3.67033 7.413L5.712 9.45467C5.76619 9.50899 5.83056 9.55209 5.90143 9.5815C5.9723 9.61091 6.04827 9.62604 6.125 9.62604C6.20173 9.62604 6.2777 9.61091 6.34857 9.5815C6.41944 9.55209 6.48381 9.50899 6.538 9.45467L10.2993 5.68167C10.4054 5.5715 10.464 5.42406 10.4625 5.27111C10.461 5.11816 10.3994 4.97193 10.2911 4.86393C10.1828 4.75592 10.0364 4.69478 9.88343 4.69367C9.73047 4.69256 9.5832 4.75158 9.47333 4.858Z" fill="#FF006E"/>
</svg>
