<svg width="40" height="41" viewBox="0 0 40 41" fill="none" xmlns="http://www.w3.org/2000/svg">
<path fill-rule="evenodd" clip-rule="evenodd" d="M10.4882 20.9882C11.139 20.3373 12.1943 20.3373 12.8452 20.9882L20 28.143L27.1548 20.9882C27.8057 20.3373 28.861 20.3373 29.5118 20.9882C30.1627 21.639 30.1627 22.6943 29.5118 23.3452L21.1785 31.6785C20.5276 32.3294 19.4724 32.3294 18.8215 31.6785L10.4882 23.3452C9.83728 22.6943 9.83728 21.639 10.4882 20.9882Z" fill="#4A454E"/>
<path fill-rule="evenodd" clip-rule="evenodd" d="M10.4882 9.32153C11.139 8.67066 12.1943 8.67066 12.8452 9.32153L20 16.4764L27.1548 9.32153C27.8057 8.67066 28.861 8.67066 29.5118 9.32153C30.1627 9.9724 30.1627 11.0277 29.5118 11.6786L21.1785 20.0119C20.5276 20.6628 19.4724 20.6628 18.8215 20.0119L10.4882 11.6786C9.83728 11.0277 9.83728 9.9724 10.4882 9.32153Z" fill="#4A454E"/>
</svg>
