<svg width="390" height="380" viewBox="0 0 390 380" fill="none" xmlns="http://www.w3.org/2000/svg">
    <defs>
        <linearGradient id="paint0_linear_5_750" x1="195" y1="31.5" x2="195" y2="368" gradientUnits="userSpaceOnUse">
            <stop offset="0.0882488" stop-color="#D9D9D9" />
            <stop offset="1" stop-color="#D9D9D9" stop-opacity="0" />
        </linearGradient>
        <clipPath id="clip0_5_750">
            <rect width="415.21" height="348.241" fill="white" transform="translate(0 27)" />
        </clipPath>
    </defs>
    <mask id="mask0_5_750" style="mask-type:alpha" maskUnits="userSpaceOnUse" x="0" y="0" width="390" height="380">
        <rect width="390" height="380" fill="url(#paint0_linear_5_750)" />
    </mask>
    <g mask="url(#mask0_5_750)">
        <g clip-path="url(#clip0_5_750)">
            <path d="M374.189 27L365.311 35.877L374.189 44.7539L383.066 35.877L374.189 27Z" fill="#FA6163" />
            <path
                d="M12.4112 156.764C12.2495 156.764 12.096 156.7 11.9829 156.587L3.10531 147.71C2.99217 147.597 2.92752 147.441 2.92752 147.281C2.92752 147.122 2.99217 146.966 3.10531 146.853L11.9829 137.976C12.2192 137.74 12.6031 137.74 12.8395 137.976L21.717 146.853C21.9534 147.089 21.9534 147.473 21.717 147.71L12.8395 156.587C12.7264 156.7 12.5708 156.764 12.4112 156.764V156.764ZM4.39027 147.281L12.4112 155.302L20.4321 147.281L12.4112 139.261L4.39027 147.281V147.281Z"
                fill="#FA6163" />
            <path d="M388.782 314.954L384.881 318.854L388.782 322.753L392.682 318.854L388.782 314.954Z"
                fill="#FA6163" />
            <path d="M32.229 200.772L28.3289 204.672L32.229 208.572L36.1292 204.672L32.229 200.772Z" fill="#FA6163" />
            <path d="M300.692 76.3755L296.792 80.2754L300.692 84.1753L304.592 80.2754L300.692 76.3755Z"
                fill="#FA6163" />
            <path d="M71.2227 183.44L67.3226 187.34L71.2227 191.24L75.1229 187.34L71.2227 183.44Z" fill="#FA6163" />
            <path
                d="M156.391 375.241C156.183 375.241 155.991 375.136 155.88 374.96C155.769 374.785 155.755 374.566 155.844 374.378C155.882 374.296 159.772 366.067 166.72 356.061C172.91 347.145 182.824 335.01 195.367 326.953C186.612 325.725 175.231 325.199 167.582 328.842C162.79 331.125 161.739 334.012 161.729 334.042C161.622 334.353 161.283 334.523 160.97 334.422C160.656 334.321 160.481 333.99 160.574 333.674C162.988 325.533 164.117 316.424 163.929 306.603C163.758 297.552 162.426 288.17 160.083 279.471C157.781 270.934 154.567 263.265 150.785 257.289C146.882 251.121 142.439 246.893 137.941 245.062C128.642 241.276 119.388 247.503 111.185 263.069C111.093 263.242 110.923 263.362 110.727 263.388C110.531 263.412 110.335 263.341 110.202 263.196C98.0873 250 85.365 240.189 73.4125 234.824C67.7029 232.26 62.3691 230.815 57.5606 230.529C52.742 230.24 48.5699 231.127 45.1615 233.159C39.2903 236.66 35.8031 243.634 35.0758 253.327C34.2575 264.232 36.7971 278.303 42.6259 295.152C47.4264 309.025 55.5321 321.801 66.719 333.129C75.6814 342.202 86.6298 350.372 99.2632 357.408C120.796 369.405 140.002 374.005 140.194 374.049C140.493 374.12 140.693 374.403 140.657 374.71C140.62 375.015 140.362 375.245 140.055 375.245H0.606113C0.270731 375.245 0 374.974 0 374.639C0 374.304 0.270731 374.033 0.606113 374.033H135.563C128.629 371.98 114.269 367.15 98.7036 358.483C85.9651 351.39 74.9197 343.151 65.8724 333.994C54.5502 322.535 46.3434 309.599 41.4824 295.548C35.5991 278.544 33.0372 264.307 33.8696 253.236C34.6273 243.133 38.3185 235.832 44.5433 232.118C48.1658 229.959 52.5702 229.017 57.6353 229.318C62.5913 229.613 68.0665 231.094 73.9115 233.719C85.8216 239.064 98.4672 248.749 110.519 261.747C114.81 253.794 119.435 248.266 124.273 245.311C128.914 242.474 133.668 242.012 138.402 243.939C147.801 247.765 156.345 260.929 161.256 279.156C163.626 287.95 164.972 297.433 165.146 306.581C165.309 315.238 164.463 323.355 162.626 330.759C163.582 329.818 164.956 328.773 166.91 327.824C173.658 324.543 183.84 323.929 197.179 325.997C197.429 326.036 197.631 326.228 197.68 326.478C197.73 326.729 197.617 326.981 197.401 327.115C184.378 335.038 174.072 347.606 167.72 356.756C162.129 364.809 158.543 371.683 157.367 374.035L206.608 374.031C206.943 374.031 207.214 374.302 207.214 374.637C207.214 374.972 206.943 375.243 206.608 375.243L156.395 375.247L156.391 375.241Z"
                fill="#585858" />
            <path
                d="M143.144 364.148C143.065 364.148 142.984 364.132 142.907 364.099C131.535 359.279 120.237 351.602 109.331 341.281C100.619 333.036 92.1313 323.094 84.1083 311.731C70.4526 292.393 62.761 275.396 62.6863 275.227C62.5489 274.922 62.6863 274.562 62.9913 274.427C63.2964 274.289 63.656 274.427 63.7934 274.732C63.8682 274.899 71.5214 291.807 85.1145 311.054C93.0909 322.347 101.524 332.224 110.177 340.412C120.388 350.073 130.933 357.39 141.552 362.184C136.491 353.554 132.276 335.412 129.011 308.181C126.411 286.496 125.417 266.824 125.407 266.628C125.391 266.295 125.647 266.01 125.983 265.994C126.314 265.976 126.601 266.234 126.617 266.57C126.627 266.766 127.619 286.401 130.215 308.044C132.606 327.965 136.875 353.705 143.643 363.192C143.8 363.413 143.792 363.712 143.623 363.924C143.505 364.071 143.33 364.15 143.15 364.15L143.144 364.148Z"
                fill="#585858" />
            <path
                d="M112.523 320.492C112.291 320.492 112.07 320.359 111.969 320.134C104.678 303.883 104.555 289.097 105.734 279.556C107.013 269.204 109.977 262.794 110.103 262.525C110.244 262.222 110.606 262.09 110.909 262.234C111.212 262.375 111.343 262.737 111.202 263.04C111.171 263.105 108.183 269.582 106.933 279.756C105.779 289.134 105.91 303.665 113.077 319.639C113.214 319.944 113.077 320.304 112.771 320.439C112.691 320.476 112.606 320.492 112.523 320.492Z"
                fill="#585858" />
            <path
                d="M96.3357 327.196C96.1256 327.196 95.9235 327.087 95.8104 326.893C95.7437 326.777 89.0846 315.226 83.9083 300.504C80.8636 291.845 78.92 283.793 78.126 276.572C77.13 267.499 77.9624 259.711 80.5949 253.424C80.7242 253.115 81.0798 252.97 81.3889 253.099C81.6981 253.228 81.8435 253.584 81.7142 253.893C79.1605 259.986 78.3584 267.57 79.3302 276.431C80.1121 283.556 82.0334 291.516 85.0458 300.084C90.1836 314.704 96.7923 326.171 96.859 326.287C97.0267 326.575 96.9277 326.947 96.6388 327.115C96.5438 327.171 96.4387 327.198 96.3357 327.198V327.196Z"
                fill="#585858" />
            <path
                d="M133.492 334.448C133.474 334.448 133.456 334.448 133.438 334.446C133.105 334.416 132.858 334.121 132.888 333.788C132.894 333.727 133.448 327.701 134.917 321.005C136.907 311.933 139.546 306.007 142.762 303.395C143.023 303.183 143.404 303.223 143.615 303.484C143.825 303.744 143.786 304.124 143.526 304.336C136.317 310.193 134.117 333.662 134.097 333.899C134.068 334.214 133.804 334.45 133.494 334.45L133.492 334.448Z"
                fill="#585858" />
            <path
                d="M103.191 375.241C80.6777 375.241 33.8494 358.911 33.3807 358.746C33.2251 358.691 33.0978 358.576 33.0291 358.425C32.9604 358.273 32.9564 358.101 33.019 357.948C33.0938 357.76 34.9303 353.295 41.0642 348.943C44.6403 346.406 48.9477 344.432 53.8673 343.079C59.9911 341.392 67.0907 340.664 74.9702 340.917C75.3056 340.927 75.5682 341.208 75.5561 341.541C75.544 341.875 75.2631 342.131 74.9318 342.127C65.2542 341.82 51.6429 342.921 41.7653 349.931C37.181 353.184 35.1101 356.515 34.4232 357.822C40.1288 359.782 82.3143 374.027 103.193 374.027C103.528 374.027 103.799 374.298 103.799 374.633C103.799 374.968 103.528 375.239 103.193 375.239L103.191 375.241Z"
                fill="#585858" />
            <path
                d="M103.191 366.588C103.104 366.588 103.015 366.57 102.932 366.53C90.6402 360.703 79.3605 356.663 69.4081 354.519C61.4619 352.808 54.3421 352.297 48.2487 353.002C37.9205 354.194 34.0797 358.526 34.0414 358.57C33.8232 358.823 33.4413 358.853 33.1867 358.635C32.9322 358.416 32.9019 358.037 33.118 357.782C33.1605 357.734 34.1707 356.562 36.5183 355.245C38.6478 354.049 42.3552 352.485 47.9355 351.818C54.1623 351.075 61.4235 351.574 69.5152 353.303C79.5948 355.459 91.012 359.54 103.449 365.435C103.752 365.578 103.882 365.94 103.738 366.243C103.635 366.461 103.417 366.59 103.191 366.59V366.588Z"
                fill="#585858" />
            <path
                d="M359.373 340.628C359.359 340.628 359.342 340.628 359.328 340.626C359.106 340.602 358.946 340.402 358.971 340.179L384.48 107.651C384.504 107.428 384.704 107.271 384.927 107.293C385.149 107.317 385.308 107.517 385.284 107.74L359.775 340.268C359.753 340.474 359.577 340.628 359.373 340.628Z"
                fill="#585858" />
            <path
                d="M329.568 374.635H225.111C217.447 374.635 211.996 368.096 212.938 360.023L240.54 120.217C241.482 111.938 248.458 104.485 256.121 103.576L360.579 91.1841C368.242 90.275 373.693 96.6408 372.752 105.395L345.149 359.162C344.208 367.712 337.231 374.637 329.568 374.637V374.635Z"
                fill="#1B1B1B" />
            <path
                d="M329.568 375.039H225.111C221.439 375.039 218.116 373.576 215.752 370.924C213.19 368.047 212.049 364.158 212.536 359.976L240.138 120.17C241.098 111.728 248.246 104.103 256.073 103.174L360.53 90.7817C364.02 90.3676 367.234 91.4181 369.582 93.7374C372.356 96.4809 373.659 100.746 373.154 105.437L345.551 359.204C344.59 367.936 337.419 375.039 329.568 375.039ZM362.001 91.501C361.549 91.501 361.09 91.5272 360.625 91.5838L256.168 103.976C248.692 104.863 241.859 112.168 240.94 120.261L213.338 360.067C212.877 364.019 213.948 367.681 216.354 370.384C218.56 372.863 221.67 374.229 225.108 374.229H329.566C337.019 374.229 343.828 367.449 344.745 359.113L372.348 105.346C372.824 100.901 371.608 96.8789 369.01 94.3091C367.153 92.4727 364.7 91.4989 361.999 91.4989L362.001 91.501Z"
                fill="#585858" />
            <path
                d="M246.902 188.26L246.902 188.26C245.559 188.37 244.437 187.885 243.686 187.034C242.932 186.179 242.524 184.917 242.694 183.431L242.694 183.431L245.203 161.392C245.203 161.392 245.203 161.392 245.203 161.392C245.547 158.372 248.103 155.733 250.829 155.469C250.829 155.469 250.83 155.469 250.83 155.469L352.861 145.637L352.861 145.637C354.193 145.508 355.311 146 356.062 146.888C356.82 147.782 357.233 149.114 357.061 150.691L357.061 150.691L354.552 173.813C354.552 173.813 354.552 173.813 354.552 173.813C354.205 176.996 351.639 179.701 348.933 179.922L348.474 179.96V179.964L246.902 188.26Z"
                stroke="#585858" />
            <path
                d="M282.035 168.854L281.877 168.868L257.079 171.072C257.079 171.072 257.079 171.072 257.079 171.072C256.157 171.153 255.396 170.825 254.888 170.25C254.377 169.67 254.091 168.803 254.21 167.762L254.21 167.761C254.449 165.641 256.241 163.805 258.125 163.631L258.125 163.631L282.923 161.338C282.923 161.338 282.923 161.338 282.923 161.338C283.842 161.254 284.602 161.583 285.11 162.166C285.623 162.755 285.91 163.637 285.791 164.698C285.555 166.795 283.855 168.6 282.035 168.854Z"
                stroke="#585858" />
            <path d="M273.884 175.73L253.394 177.497L253.498 178.705L273.988 176.937L273.884 175.73Z" fill="#585858" />
            <path d="M345.138 156.942L344.135 157.623L348.017 163.341L349.019 162.66L345.138 156.942Z" fill="#585858" />
            <path d="M348.048 162.633L342.83 169.157L343.777 169.914L348.994 163.39L348.048 162.633Z" fill="#585858" />
            <path
                d="M298.497 163.542L298.497 163.543C298.26 165.678 296.494 167.504 294.652 167.668C293.751 167.748 293.005 167.421 292.505 166.845C292.001 166.264 291.718 165.393 291.835 164.349L291.836 164.348C292.072 162.222 293.838 160.392 295.682 160.221C296.582 160.137 297.328 160.462 297.827 161.039C298.331 161.62 298.614 162.493 298.497 163.542Z"
                stroke="#585858" />
            <path
                d="M242.32 228.519L242.32 228.519C240.978 228.605 239.852 228.102 239.098 227.236C238.341 226.366 237.934 225.098 238.103 223.62L238.103 223.62L240.613 201.67C240.613 201.67 240.613 201.67 240.613 201.67C240.956 198.668 243.507 196.082 246.231 195.867L348.262 187.826L348.262 187.826C349.594 187.721 350.715 188.231 351.47 189.135C352.23 190.044 352.642 191.382 352.471 192.952L349.962 215.985C349.962 215.985 349.962 215.985 349.962 215.985C349.615 219.153 347.054 221.804 344.352 221.977L242.32 228.519Z"
                stroke="#585858" />
            <path
                d="M252.498 211.541L252.497 211.541C251.576 211.607 250.812 211.266 250.3 210.679C249.786 210.088 249.501 209.215 249.62 208.179C249.86 206.071 251.646 204.274 253.526 204.134L253.526 204.134L278.324 202.275L278.324 202.275C279.243 202.206 280.006 202.548 280.518 203.143C281.033 203.742 281.319 204.63 281.2 205.685C280.959 207.829 279.17 209.639 277.296 209.773C277.296 209.773 277.296 209.773 277.296 209.773L252.498 211.541Z"
                stroke="#585858" />
            <path d="M249.35 218.349L285.017 215.906L285.032 216.117L249.365 218.561L249.35 218.349Z"
                stroke="#585858" />
            <path d="M340.237 199.771L340.413 199.652L343.737 204.597L343.561 204.715L340.237 199.771Z"
                stroke="#585858" />
            <path d="M338.935 211.029L343.521 205.384L343.686 205.518L339.1 211.163L338.935 211.029Z"
                stroke="#585858" />
            <path
                d="M293.907 204.757L293.907 204.758C293.671 206.88 291.909 208.668 290.07 208.799C289.169 208.864 288.42 208.525 287.917 207.937C287.41 207.344 287.128 206.468 287.245 205.429L287.245 205.428C287.481 203.313 289.243 201.524 291.083 201.386C291.983 201.319 292.732 201.657 293.235 202.244C293.742 202.837 294.023 203.714 293.907 204.757Z"
                stroke="#585858" />
            <path
                d="M233.521 263.578L236.03 241.717C236.03 241.717 236.03 241.717 236.03 241.717C236.374 238.73 238.92 236.199 241.639 236.033L241.64 236.033L343.671 229.783L343.671 229.783C345.004 229.701 346.128 230.23 346.886 231.149C347.648 232.072 348.06 233.417 347.889 234.979L345.38 257.925C345.38 257.925 345.38 257.925 345.38 257.925C345.039 261.023 342.561 263.585 339.912 263.789L339.778 263.795L237.747 268.549C235.109 268.672 233.184 266.507 233.521 263.578L233.521 263.578Z"
                stroke="#585858" />
            <path
                d="M272.835 250.444L272.722 250.45L247.924 251.783C247.924 251.783 247.924 251.783 247.924 251.783C247.002 251.833 246.234 251.479 245.72 250.881C245.203 250.28 244.919 249.402 245.037 248.372L245.037 248.371C245.276 246.278 247.058 244.52 248.935 244.412L248.935 244.412L273.733 242.988C273.733 242.988 273.733 242.988 273.733 242.988C274.652 242.935 275.419 243.29 275.933 243.896C276.451 244.506 276.737 245.399 276.618 246.448C276.382 248.537 274.664 250.28 272.835 250.444Z"
                stroke="#585858" />
            <path d="M244.768 258.525L270.325 257.217L270.336 257.428L244.779 258.736L244.768 258.525Z"
                stroke="#585858" />
            <path d="M335.655 241.584L335.831 241.467L339.158 246.465L338.982 246.583L335.655 241.584Z"
                stroke="#585858" />
            <path d="M334.376 252.825L338.956 247.28L339.119 247.415L334.539 252.961L334.376 252.825Z"
                stroke="#585858" />
            <path
                d="M282.663 246.278L282.663 246.277C282.898 244.175 284.655 242.424 286.492 242.318C287.393 242.267 288.145 242.617 288.651 243.216C289.16 243.818 289.441 244.701 289.324 245.739L289.321 245.767V245.769C289.074 247.867 287.324 249.6 285.497 249.698C284.596 249.746 283.843 249.394 283.337 248.795C282.827 248.192 282.546 247.311 282.663 246.278Z"
                stroke="#585858" />
            <path
                d="M288.154 111.507C287.627 111.507 287.148 111.315 286.787 110.953C286.326 110.493 286.108 109.8 286.193 109.052C286.352 107.626 287.502 106.39 288.813 106.238C289.439 106.167 290.015 106.355 290.435 106.774C290.898 107.234 291.114 107.929 291.031 108.679C290.872 110.107 289.72 111.343 288.409 111.493C288.322 111.503 288.237 111.507 288.154 111.507V111.507ZM289.074 107.032C289.019 107.032 288.963 107.036 288.906 107.042C287.985 107.149 287.11 108.111 286.995 109.143C286.938 109.646 287.072 110.099 287.356 110.384C287.601 110.628 287.934 110.735 288.318 110.691C289.237 110.586 290.112 109.624 290.229 108.592C290.286 108.087 290.153 107.634 289.866 107.349C289.658 107.141 289.385 107.034 289.074 107.034V107.032Z"
                fill="#585858" />
            <path d="M317.798 105.133L296.741 107.543L296.833 108.346L317.889 105.936L317.798 105.133Z"
                fill="#585858" />
            <path
                d="M254.541 141.448C253.174 141.448 251.939 140.953 251.018 140.022C249.864 138.856 249.327 137.1 249.541 135.207C249.959 131.521 253.079 128.219 256.495 127.852C258.095 127.678 259.554 128.167 260.607 129.224C261.768 130.389 262.31 132.155 262.094 134.064C261.675 137.769 258.554 141.068 255.135 141.418C254.933 141.438 254.735 141.448 254.537 141.448H254.541ZM257.117 128.626C256.942 128.626 256.764 128.636 256.584 128.654C253.521 128.983 250.723 131.965 250.345 135.298C250.157 136.949 250.614 138.462 251.594 139.454C252.471 140.341 253.701 140.751 255.057 140.614C258.117 140.301 260.916 137.323 261.294 133.973C261.481 132.308 261.023 130.785 260.037 129.793C259.279 129.032 258.257 128.626 257.119 128.626H257.117Z"
                fill="#585858" />
            <path
                d="M255.558 135.922C255.097 135.922 254.679 135.754 254.366 135.437C253.978 135.045 253.796 134.463 253.867 133.841C254.002 132.653 254.976 131.629 256.085 131.512C256.626 131.455 257.121 131.623 257.481 131.984C257.869 132.376 258.053 132.958 257.982 133.582C257.847 134.772 256.873 135.795 255.764 135.912C255.695 135.92 255.628 135.922 255.56 135.922H255.558ZM256.289 132.308C256.249 132.308 256.21 132.31 256.168 132.314C255.445 132.391 254.758 133.13 254.669 133.93C254.626 134.308 254.725 134.649 254.939 134.867C255.125 135.055 255.38 135.138 255.677 135.108C256.4 135.033 257.085 134.292 257.176 133.492C257.218 133.112 257.119 132.77 256.905 132.554C256.746 132.393 256.534 132.31 256.289 132.31V132.308Z"
                fill="#585858" />
            <path
                d="M254.871 139.809C253.883 139.809 252.978 139.468 252.287 138.825L252.02 138.579L252.236 138.288C253.093 137.138 254.299 136.403 255.546 136.274C256.822 136.14 257.966 136.684 258.606 137.728L258.778 138.009L258.538 138.235C257.596 139.12 256.455 139.67 255.321 139.787C255.17 139.803 255.018 139.811 254.869 139.811L254.871 139.809ZM253.129 138.47C253.715 138.882 254.452 139.062 255.242 138.981C256.099 138.892 256.97 138.504 257.726 137.876C257.231 137.276 256.485 136.987 255.632 137.076C254.735 137.169 253.822 137.682 253.131 138.468L253.129 138.47Z"
                fill="#585858" />
            <path d="M279.411 130.548L267.079 131.851L267.164 132.654L279.496 131.352L279.411 130.548Z"
                fill="#585858" />
            <path d="M289.54 133.437L266.63 135.82L266.713 136.624L289.624 134.24L289.54 133.437Z" fill="#585858" />
            <path
                d="M348.984 132.48C348.919 132.48 348.855 132.464 348.794 132.433C348.649 132.357 348.564 132.197 348.582 132.033L348.863 129.452H348.845C347.729 129.452 346.715 129.041 345.951 128.274C344.945 127.262 344.472 125.718 344.654 124.041C345 120.863 347.59 118.029 350.427 117.724L356.352 117.086C357.649 116.946 358.845 117.35 359.718 118.223C360.732 119.237 361.209 120.793 361.027 122.486C360.682 125.682 358.092 128.522 355.253 128.815L353.223 129.025L349.245 132.387C349.17 132.45 349.077 132.482 348.984 132.482V132.48ZM349.315 128.617C349.422 128.617 349.525 128.66 349.602 128.736C349.689 128.823 349.732 128.944 349.717 129.066L349.495 131.116L352.796 128.326C352.859 128.274 352.936 128.241 353.017 128.233L355.17 128.011C357.649 127.755 359.916 125.237 360.223 122.399C360.381 120.948 359.987 119.635 359.147 118.793C358.449 118.096 357.488 117.774 356.439 117.888L350.513 118.526C348.032 118.793 345.766 121.306 345.458 124.128C345.303 125.561 345.691 126.864 346.525 127.702C347.224 128.405 348.19 128.73 349.245 128.621L349.275 128.617C349.289 128.617 349.303 128.615 349.317 128.615L349.315 128.617Z"
                fill="#585858" />
            <path
                d="M292.89 337.658C290.718 337.658 288.742 336.796 287.312 335.22C285.688 333.432 284.93 330.874 285.231 328.2L289.66 288.823C290.246 283.598 294.628 279.19 299.426 278.994L335.492 277.522C337.676 277.431 339.684 278.243 341.143 279.802C342.82 281.598 343.606 284.229 343.301 287.017L338.872 327.28C338.286 332.6 333.898 336.992 329.089 337.07L293.024 337.654L293.013 337.048L293.024 337.654C292.979 337.654 292.935 337.654 292.89 337.654V337.658ZM335.815 278.73C335.724 278.73 335.633 278.73 335.542 278.736L299.477 280.208C295.25 280.38 291.387 284.308 290.864 288.962L286.435 328.339C286.172 330.666 286.819 332.878 288.209 334.408C289.431 335.753 291.128 336.481 293.003 336.448L329.069 335.864C333.288 335.796 337.145 331.888 337.666 327.155L342.094 286.891C342.361 284.455 341.692 282.174 340.256 280.637C339.104 279.402 337.535 278.734 335.815 278.734V278.73Z"
                fill="#585858" />
            <path
                d="M234.033 338.612C231.824 338.612 229.826 337.743 228.39 336.159C226.814 334.42 226.08 331.949 226.377 329.379L230.806 291C231.394 285.903 235.774 281.596 240.573 281.4L276.638 279.927C278.857 279.832 280.891 280.653 282.356 282.222C283.986 283.972 284.748 286.515 284.445 289.198L280.016 328.466C279.428 333.66 275.04 337.949 270.234 338.028L234.168 338.612C234.121 338.612 234.077 338.612 234.031 338.612H234.033ZM276.972 281.131C276.879 281.131 276.784 281.131 276.689 281.137L240.623 282.61C236.396 282.782 232.531 286.608 232.01 291.138L227.581 329.516C227.321 331.771 227.927 333.842 229.289 335.343C230.517 336.698 232.24 337.432 234.15 337.395L270.216 336.812C274.434 336.743 278.291 332.937 278.812 328.326L283.241 289.059C283.504 286.728 282.857 284.536 281.469 283.045C280.311 281.802 278.723 281.127 276.97 281.127L276.972 281.131Z"
                fill="#585858" />
            <path
                d="M334.451 367.326L333.247 367.193L334.332 357.389C334.599 354.974 333.932 352.685 332.504 351.108C331.302 349.78 329.647 349.053 327.837 349.053C327.812 349.053 327.786 349.053 327.762 349.053L228.05 350.162L228.036 348.95L327.748 347.841C327.778 347.841 327.808 347.841 327.837 347.841C329.992 347.841 331.966 348.71 333.401 350.293C335.064 352.128 335.841 354.762 335.536 357.522L334.451 367.326V367.326Z"
                fill="#C7C7C7" />
            <path
                d="M194.746 367.891H179.763C179.541 367.891 179.359 367.709 179.359 367.487C179.359 367.265 179.541 367.083 179.763 367.083H194.746C194.969 367.083 195.15 367.265 195.15 367.487C195.15 367.709 194.969 367.891 194.746 367.891Z"
                fill="white" />
            <path
                d="M183.464 363.568H174.445C174.223 363.568 174.041 363.386 174.041 363.164C174.041 362.942 174.223 362.76 174.445 362.76H183.464C183.687 362.76 183.869 362.942 183.869 363.164C183.869 363.386 183.687 363.568 183.464 363.568Z"
                fill="white" />
            <path
                d="M277.406 290.556H262.423C262.201 290.556 262.019 290.374 262.019 290.152C262.019 289.93 262.201 289.748 262.423 289.748H277.406C277.628 289.748 277.81 289.93 277.81 290.152C277.81 290.374 277.628 290.556 277.406 290.556Z"
                fill="#585858" />
            <path
                d="M266.126 286.233H257.107C256.885 286.233 256.703 286.051 256.703 285.829C256.703 285.607 256.885 285.425 257.107 285.425H266.126C266.348 285.425 266.53 285.607 266.53 285.829C266.53 286.051 266.348 286.233 266.126 286.233Z"
                fill="#585858" />
            <path
                d="M225.113 375.04H73.6468C73.4246 375.04 73.2427 374.858 73.2427 374.635C73.2427 374.413 73.4246 374.231 73.6468 374.231H225.111C225.333 374.231 225.515 374.413 225.515 374.635C225.515 374.858 225.333 375.04 225.111 375.04H225.113Z"
                fill="white" />
            <path
                d="M166.507 362.261C165.467 355.574 170.154 338.729 174.187 329.719C171.663 327.292 149.114 339.434 149.27 342.765C149.059 345.507 146.516 360.317 132.63 362.045C132.63 362.045 122.833 369.154 136.313 369.849C143.984 370.245 166.505 362.261 166.505 362.261H166.507Z"
                fill="#FDB78F" />
            <path
                d="M126.508 373.437H167.245C168.485 370.263 168.031 365.649 167.301 362.32C163.77 358.667 148.288 369.162 136.8 366.055C131.618 364.653 132.632 362.045 132.632 362.045C126.518 363.778 118.8 365.708 118.843 368.081C118.691 368.413 118.96 369.071 119.483 369.823C121.075 372.112 123.722 373.439 126.51 373.439L126.508 373.437Z"
                fill="white" />
            <path
                d="M167.245 374.043H126.508C123.484 374.043 120.671 372.595 118.984 370.168C118.328 369.225 118.083 368.504 118.239 367.97C118.358 365.59 123.318 364.023 130.826 361.922C131.381 361.766 131.931 361.613 132.466 361.461C132.686 361.398 132.925 361.467 133.08 361.637C133.236 361.807 133.28 362.049 133.198 362.265C133.195 362.273 133.04 362.74 133.357 363.338C133.684 363.956 134.575 364.827 136.957 365.471C143.023 367.112 150.387 364.807 156.303 362.954C161.642 361.283 165.861 359.962 167.736 361.901C167.815 361.982 167.867 362.083 167.891 362.192C168.366 364.36 169.312 369.815 167.809 373.659C167.718 373.892 167.493 374.045 167.245 374.045V374.043ZM119.404 368.302C119.404 368.407 119.499 368.786 119.978 369.475C121.439 371.576 123.88 372.831 126.508 372.831H166.821C167.964 369.417 167.194 364.722 166.748 362.633C165.285 361.411 161.281 362.663 156.664 364.11C152.082 365.544 146.653 367.243 141.511 367.243C139.845 367.243 138.208 367.065 136.64 366.641C134.355 366.023 132.88 365.083 132.256 363.851C132.074 363.493 131.989 363.156 131.959 362.865C131.692 362.94 131.422 363.017 131.151 363.091C128.252 363.904 125.251 364.742 122.96 365.651C119.772 366.916 119.441 367.764 119.447 368.069C119.447 368.15 119.435 368.229 119.404 368.304V368.302Z"
                fill="#9961EC" />
            <path
                d="M260.225 318.205C257.726 315.559 245.454 308.843 245.454 308.843C246.153 305.417 250.165 293.53 255.15 292.312C264.655 300.322 270.171 299.691 270.694 299.736C284.851 299.112 282.809 335.117 276.574 336.577C272.436 337.547 269.026 327.52 260.227 318.205H260.225Z"
                fill="#FDB78F" />
            <path
                d="M278.079 327.058C279.667 316.494 270.876 300.752 270.692 299.738C270.658 298.063 276.81 298.752 279.588 301.516C283.794 305.7 279.111 308.938 284.57 318.302C289.577 326.89 287.223 337.038 282.528 341.978C278.915 345.778 276.562 344.998 272.432 337.549C271.601 336.052 270.779 334.476 269.963 332.893C269.741 332.46 276.489 337.622 278.077 327.058H278.079Z"
                fill="white" />
            <path
                d="M278.786 344.816C278.645 344.816 278.503 344.808 278.362 344.79C276.372 344.535 274.501 342.523 271.905 337.842C271.056 336.311 270.214 334.692 269.428 333.169C269.3 332.923 269.341 332.64 269.529 332.446C269.85 332.117 270.214 332.29 270.535 332.446C271.222 332.777 273.05 333.654 274.622 332.824C276.048 332.068 277.012 330.098 277.481 326.969C278.764 318.431 273.07 306.326 270.929 301.768C270.333 300.502 270.143 300.09 270.098 299.847C270.092 299.815 270.09 299.782 270.088 299.752C270.076 299.209 270.409 298.75 271.001 298.498C272.771 297.74 277.515 298.599 280.016 301.088C282.162 303.223 282.184 305.203 282.21 307.496C282.239 310.019 282.275 313.161 285.096 317.999C288.11 323.169 288.225 328.244 287.791 331.587C287.241 335.812 285.486 339.751 282.97 342.396C281.392 344.054 280.083 344.818 278.786 344.818V344.816ZM271.252 334.056C271.81 335.125 272.385 336.212 272.963 337.254C275.285 341.44 276.996 343.394 278.513 343.586C279.527 343.715 280.633 343.089 282.089 341.557C286.762 336.64 288.773 326.71 284.047 318.605C281.065 313.49 281.027 310.173 280.998 307.506C280.974 305.314 280.956 303.73 279.162 301.944C277.269 300.061 273.711 299.239 271.991 299.479C271.535 299.544 271.367 299.657 271.317 299.704C271.412 299.946 271.711 300.58 272.024 301.249C274.21 305.898 280.016 318.246 278.679 327.147C278.148 330.678 276.974 332.947 275.188 333.892C273.777 334.638 272.317 334.41 271.252 334.056V334.056Z"
                fill="#9961EC" />
            <path
                d="M243.86 161.527C243.555 160.555 243.118 159.628 242.615 158.743C242.104 157.862 241.504 157.036 240.849 156.258C239.53 154.711 237.958 153.401 236.265 152.315C234.57 151.228 232.744 150.361 230.84 149.763C229.26 149.119 227.487 148.771 225.644 148.555C226.949 148.597 228.242 148.676 229.511 148.874C230.412 149.005 231.299 149.211 232.164 149.486C233.032 149.751 233.871 150.108 234.691 150.51C235.507 150.921 236.299 151.387 237.065 151.904C237.831 152.422 238.564 152.993 239.304 153.571C238.702 152.854 238.037 152.185 237.328 151.561C236.609 150.951 235.841 150.387 235.018 149.904C234.202 149.411 233.325 149.018 232.426 148.692C231.523 148.375 230.588 148.155 229.646 147.999C227.757 147.7 225.854 147.733 223.993 147.822C222.126 147.91 220.284 148.046 218.409 148.011C212.754 147.531 208.026 146.244 208.093 139.11C208.119 136.262 208.18 135.47 208.248 136.89C208.293 138.383 208.705 139.896 209.465 141.195L209.608 141.438L209.762 141.674C209.861 141.834 209.976 141.983 210.087 142.133C210.319 142.427 210.562 142.714 210.826 142.977C211.087 143.246 211.364 143.494 211.653 143.729C211.944 143.961 212.251 144.169 212.562 144.369C213.819 145.147 215.257 145.642 216.706 145.688C215.287 145.403 213.978 144.779 212.849 143.945C212.57 143.731 212.297 143.51 212.045 143.27C211.788 143.034 211.542 142.785 211.315 142.522C210.859 141.999 210.469 141.421 210.144 140.815C209.816 140.209 209.58 139.559 209.41 138.894C209.236 138.227 209.154 137.551 209.127 136.85C209.099 136.114 209.04 135.379 208.95 134.645C209.02 134.979 209.089 135.312 209.154 135.645L209.402 136.924C209.501 137.361 209.612 137.795 209.762 138.219C209.907 138.644 210.077 139.062 210.279 139.466C210.477 139.87 210.703 140.262 210.964 140.631C211.986 142.124 213.443 143.282 215.045 144.038C216.649 144.805 218.381 145.219 220.11 145.417C220.977 145.51 221.848 145.557 222.716 145.543C223.585 145.533 224.452 145.474 225.307 145.343C224.874 145.367 224.444 145.367 224.011 145.357C223.581 145.349 223.151 145.333 222.722 145.302C221.866 145.242 221.011 145.147 220.171 144.995C218.488 144.702 216.841 144.205 215.35 143.43C213.869 142.646 212.55 141.559 211.653 140.169C211.202 139.478 210.837 138.732 210.58 137.945C210.445 137.553 210.346 137.149 210.257 136.745L210.02 135.48C209.691 133.769 209.364 132.027 208.663 130.419C205.44 123.045 199.824 121.286 197.191 121.486C197.191 121.486 186.99 143.737 197.349 159.533C208.847 177.065 233.849 182.378 239.93 171.228C243.445 164.782 241.742 158.488 237.429 154.115C238.415 154.953 239.338 155.854 240.174 156.83C240.811 157.563 241.385 158.347 241.896 159.169C242.415 159.987 242.843 160.858 243.209 161.757C243.93 163.559 244.284 165.511 244.296 167.505C244.652 165.541 244.49 163.458 243.858 161.525L243.86 161.527Z"
                fill="#9961EC" />
            <path
                d="M156.44 204.005C153.581 205.902 157.139 211.961 163.069 214.807C168.999 217.654 203.816 222.749 222.108 220.02C232.671 218.712 183.167 196.358 173.948 198.166C164.73 199.975 156.44 204.007 156.44 204.007V204.005Z"
                fill="#BD5253" />
            <path
                d="M146.884 345.56C145.993 345.378 145.401 344.525 145.546 343.628C149.304 320.201 149.983 291.78 148.51 274.627C145.279 236.995 165.243 199.615 166.309 198.164C206.982 198.164 211.222 215.32 211.222 215.32C209.212 221.064 191.964 252.008 183.402 270.37C181.188 275.117 180.07 280.303 180.151 285.544C180.533 310.401 175.955 337.907 175.017 343.258C174.916 343.838 174.52 344.327 173.973 344.545C161.525 349.493 155.009 347.22 146.886 345.56H146.884Z"
                fill="#CAACF9" />
            <path
                d="M150.934 284.968C150.698 284.968 150.472 284.829 150.375 284.594C149.003 281.307 148.195 278.063 147.906 274.677C146.217 254.99 150.953 235.51 155.224 222.635C159.808 208.817 165.093 198.796 165.823 197.804C166.021 197.536 166.4 197.477 166.669 197.675C166.938 197.873 166.996 198.253 166.798 198.522C166.39 199.075 161.172 208.552 156.373 223.015C152.139 235.783 147.441 255.091 149.112 274.572C149.391 277.83 150.171 280.956 151.492 284.126C151.621 284.435 151.476 284.79 151.167 284.918C151.09 284.95 151.011 284.964 150.934 284.964V284.968Z"
                fill="#9961EC" />
            <path
                d="M172.579 198.061C173.268 223.995 179.109 277.835 193.508 288.144C204.258 295.841 229.867 308.274 243.967 315.559C254.974 321.246 260.72 295.864 257.279 293.019C253.84 290.175 232.57 267.271 216.203 267.035C230.137 228.424 209.542 208.825 195.912 201.059C188.354 196.752 180.501 195.106 172.579 198.063V198.061Z"
                fill="#CAACF9" />
            <path
                d="M177.064 244.822C176.773 244.822 176.516 244.612 176.466 244.315C175.555 238.858 174.747 233.024 174.068 226.977C174.029 226.644 174.27 226.345 174.603 226.306C174.934 226.27 175.236 226.508 175.274 226.842C175.951 232.866 176.755 238.678 177.664 244.115C177.719 244.444 177.496 244.757 177.167 244.812C177.133 244.818 177.1 244.82 177.066 244.82L177.064 244.822Z"
                fill="#9961EC" />
            <path
                d="M203.062 217.663C200.397 217.663 196.516 216.885 193.12 214.673C188.675 211.776 186.139 207.087 185.788 201.115C185.768 200.782 186.022 200.495 186.358 200.475C186.691 200.453 186.978 200.709 186.998 201.045C187.331 206.697 189.613 210.94 193.781 213.657C197.126 215.839 200.971 216.528 203.452 216.445C203.789 216.435 204.066 216.696 204.078 217.031C204.091 217.366 203.828 217.645 203.493 217.657C203.353 217.661 203.208 217.665 203.06 217.665L203.062 217.663Z"
                fill="#5C63C6" />
            <path
                d="M250.794 295.928C250.638 295.928 250.484 295.869 250.365 295.75C249.323 294.711 248.27 293.691 247.236 292.719C246.991 292.491 246.979 292.107 247.209 291.863C247.438 291.618 247.822 291.606 248.066 291.837C249.111 292.816 250.171 293.845 251.222 294.893C251.458 295.13 251.458 295.513 251.222 295.75C251.103 295.869 250.949 295.928 250.794 295.928ZM244.411 289.942C244.27 289.942 244.126 289.891 244.011 289.792C242.902 288.818 241.783 287.875 240.686 286.984C240.425 286.774 240.387 286.392 240.597 286.131C240.807 285.871 241.189 285.832 241.449 286.043C242.559 286.942 243.688 287.897 244.809 288.881C245.062 289.101 245.086 289.485 244.866 289.736C244.747 289.873 244.579 289.942 244.409 289.942H244.411ZM237.613 284.434C237.487 284.434 237.36 284.396 237.251 284.315C236.063 283.434 234.867 282.592 233.699 281.812C233.42 281.626 233.346 281.25 233.531 280.972C233.717 280.693 234.093 280.618 234.372 280.804C235.558 281.594 236.768 282.448 237.972 283.341C238.241 283.541 238.298 283.921 238.098 284.19C237.978 284.35 237.797 284.434 237.611 284.434H237.613ZM230.329 279.59C230.226 279.59 230.119 279.564 230.024 279.507C228.743 278.757 227.46 278.063 226.214 277.444C225.915 277.295 225.791 276.931 225.941 276.632C226.09 276.333 226.454 276.21 226.753 276.359C228.026 276.99 229.333 277.697 230.638 278.463C230.927 278.632 231.024 279.004 230.854 279.293C230.741 279.485 230.539 279.592 230.331 279.592L230.329 279.59ZM222.486 275.727C222.411 275.727 222.337 275.713 222.264 275.685C220.866 275.135 219.49 274.677 218.179 274.321C217.855 274.234 217.665 273.901 217.752 273.578C217.839 273.254 218.173 273.064 218.496 273.151C219.852 273.517 221.268 273.99 222.708 274.557C223.019 274.681 223.173 275.032 223.05 275.343C222.957 275.582 222.727 275.727 222.486 275.727V275.727ZM214.045 273.519C214.025 273.519 214.005 273.519 213.984 273.517C213.433 273.462 212.918 273.434 212.455 273.434C211.992 273.434 211.776 273.462 211.774 273.462C211.683 273.475 211.588 273.462 211.501 273.434C211.295 273.363 210.568 273.016 209.907 271.555C209.77 271.25 209.905 270.891 210.21 270.753C210.515 270.616 210.875 270.751 211.012 271.056C211.356 271.816 211.683 272.129 211.833 272.24C211.972 272.23 212.178 272.222 212.455 272.222C212.958 272.222 213.512 272.252 214.106 272.311C214.439 272.345 214.681 272.642 214.649 272.976C214.617 273.289 214.354 273.521 214.047 273.521L214.045 273.519ZM209.471 267.668C209.164 267.668 208.901 267.436 208.869 267.125C208.754 266.022 208.697 264.779 208.697 263.434C208.697 263.189 208.697 262.941 208.703 262.684C208.707 262.353 208.978 262.086 209.309 262.086H209.317C209.653 262.09 209.919 262.367 209.915 262.701C209.911 262.951 209.909 263.196 209.909 263.432C209.909 264.737 209.966 265.937 210.075 266.998C210.109 267.331 209.867 267.628 209.535 267.662C209.513 267.664 209.493 267.666 209.473 267.666L209.471 267.668ZM209.531 258.929C209.515 258.929 209.497 258.929 209.481 258.929C209.148 258.9 208.899 258.61 208.927 258.274C209.04 256.902 209.196 255.428 209.392 253.894C209.434 253.563 209.738 253.327 210.071 253.369C210.402 253.411 210.639 253.714 210.596 254.048C210.402 255.563 210.249 257.02 210.138 258.373C210.111 258.69 209.847 258.929 209.533 258.929H209.531ZM210.622 250.244C210.59 250.244 210.558 250.242 210.525 250.236C210.194 250.183 209.97 249.872 210.024 249.541C210.206 248.407 210.41 247.229 210.628 246.038C210.679 245.767 210.723 245.496 210.768 245.227C210.82 244.896 211.134 244.67 211.463 244.724C211.794 244.777 212.019 245.088 211.966 245.419C211.922 245.698 211.873 245.977 211.823 246.256C211.606 247.44 211.404 248.609 211.222 249.733C211.174 250.03 210.917 250.242 210.624 250.242L210.622 250.244ZM211.806 241.577C211.806 241.577 211.788 241.577 211.78 241.577C211.445 241.563 211.186 241.28 211.2 240.944C211.224 240.395 211.237 239.835 211.237 239.284C211.237 238.411 211.206 237.52 211.146 236.639C211.123 236.306 211.376 236.017 211.709 235.993C212.039 235.969 212.332 236.223 212.356 236.556C212.417 237.466 212.449 238.383 212.449 239.284C212.449 239.854 212.437 240.431 212.412 240.999C212.398 241.324 212.13 241.579 211.806 241.579V241.577ZM211.229 232.859C210.94 232.859 210.683 232.651 210.633 232.356C210.394 230.973 210.081 229.554 209.701 228.138C209.614 227.815 209.806 227.482 210.129 227.397C210.451 227.31 210.786 227.502 210.871 227.825C211.261 229.278 211.582 230.732 211.827 232.152C211.883 232.482 211.661 232.795 211.332 232.851C211.297 232.857 211.263 232.859 211.229 232.859ZM208.98 224.409C208.731 224.409 208.497 224.253 208.408 224.005C207.941 222.694 207.406 221.336 206.814 219.97C206.681 219.663 206.822 219.306 207.129 219.174C207.436 219.041 207.794 219.182 207.925 219.489C208.527 220.879 209.073 222.263 209.548 223.599C209.661 223.914 209.495 224.261 209.18 224.372C209.113 224.397 209.045 224.407 208.978 224.407L208.98 224.409ZM205.523 216.368C205.301 216.368 205.087 216.245 204.98 216.031C204.375 214.817 203.717 213.554 202.961 212.17C202.802 211.875 202.909 211.507 203.204 211.348C203.497 211.188 203.866 211.295 204.026 211.59C204.788 212.988 205.456 214.263 206.066 215.491C206.216 215.79 206.093 216.156 205.794 216.303C205.707 216.346 205.616 216.366 205.525 216.366L205.523 216.368ZM201.353 208.667C201.143 208.667 200.937 208.558 200.826 208.36L200.583 207.932C199.896 206.725 199.248 205.586 198.674 204.531C198.514 204.237 198.623 203.869 198.916 203.709C199.209 203.55 199.579 203.659 199.739 203.952C200.306 204.996 200.953 206.129 201.638 207.332L201.882 207.76C202.048 208.051 201.947 208.42 201.656 208.586C201.561 208.641 201.458 208.665 201.357 208.665L201.353 208.667Z"
                fill="#9961EC" />
            <path
                d="M171.573 224.46C171.425 224.46 171.28 224.407 171.162 224.3C166.166 219.71 167.263 210.781 168.229 202.902C168.59 199.956 168.932 197.176 168.873 195.023C168.865 194.687 169.128 194.411 169.463 194.4C169.797 194.396 170.075 194.655 170.086 194.99C170.144 197.233 169.799 200.059 169.431 203.049C168.5 210.637 167.445 219.239 171.981 223.409C172.227 223.635 172.243 224.019 172.017 224.266C171.898 224.395 171.734 224.462 171.571 224.462L171.573 224.46Z"
                fill="#9961EC" />
            <path
                d="M173.46 219.844C173.161 219.844 172.9 219.622 172.86 219.317C172.201 214.264 171.649 206.979 172.759 200.971C172.819 200.641 173.134 200.423 173.466 200.484C173.795 200.544 174.013 200.862 173.953 201.191C172.872 207.043 173.415 214.193 174.064 219.161C174.106 219.492 173.874 219.797 173.54 219.84C173.514 219.844 173.488 219.846 173.462 219.846L173.46 219.844Z"
                fill="#9961EC" />
            <path
                d="M112.495 122.932C111.594 118.298 109.579 117.895 107.963 115.74C106.118 113.277 102.227 112.461 103.819 115.16C106.375 119.496 104.179 122.932 104.179 122.932H112.495Z"
                fill="#FDB78F" />
            <path
                d="M174.575 153.353C172.114 153.036 136.693 149.286 134.103 148.086C131.512 146.886 114.095 126.52 112.495 122.934C109.812 116.92 86.3247 115.742 86.4682 119.374C86.4884 119.867 94.1799 123.241 98.8672 125.251C100.928 126.136 102.629 125.261 105.266 132.185C108.624 140.999 116.386 161.48 126.302 166.125C134.753 170.082 134.751 170.335 169.475 180.61C169.475 180.61 181.095 154.195 174.577 153.357L174.575 153.353Z"
                fill="#FDB78F" />
            <path
                d="M183.62 152.01C175.308 150.287 163.808 150.081 147.13 149.545C146.799 149.535 146.514 149.786 146.486 150.117C145.401 162.77 145.512 172.794 145.556 175.039C145.562 175.32 145.75 175.558 146.021 175.629C148.833 176.36 163.843 180.207 167.574 179.889C186.687 169.756 183.618 152.008 183.618 152.008L183.62 152.01Z"
                fill="#FA6163" />
            <path
                d="M168.861 179.174C168.995 179.097 169.13 179.02 169.261 178.941C169.447 178.83 169.629 178.717 169.813 178.604C169.894 178.556 169.974 178.505 170.053 178.457C170.265 178.323 170.473 178.188 170.68 178.053C170.724 178.024 170.768 177.996 170.813 177.966C171.039 177.816 171.261 177.663 171.48 177.511C171.5 177.497 171.522 177.483 171.542 177.469C171.775 177.305 172.003 177.141 172.227 176.976C172.233 176.972 172.237 176.968 172.243 176.964C172.704 176.624 173.146 176.279 173.571 175.929C173.553 175.784 173.534 175.64 173.518 175.497C173.514 175.457 173.508 175.414 173.504 175.374C173.48 175.16 173.46 174.947 173.441 174.735C173.437 174.699 173.435 174.663 173.433 174.628C173.415 174.41 173.399 174.192 173.385 173.976V173.972C173.371 173.749 173.361 173.529 173.352 173.311C173.352 173.281 173.35 173.25 173.348 173.22C173.34 173.002 173.336 172.786 173.332 172.572C173.332 172.555 173.332 172.541 173.332 172.525C173.328 172.073 173.332 171.626 173.35 171.186V171.161C173.429 169.117 173.726 167.19 174.187 165.384L170.722 160.452C166.368 162.301 159.664 169.84 156.686 178.206C161.182 179.198 165.742 180.047 167.574 179.891C167.867 179.735 168.154 179.578 168.437 179.42C168.58 179.339 168.72 179.257 168.863 179.174H168.861Z"
                fill="#2E2E2E" fill-opacity="0.3" />
            <path
                d="M101.692 153.559C98.1944 148.171 93.5961 143.106 88.0259 138.508L88.5411 137.886C94.1759 142.536 98.8288 147.662 102.371 153.12L101.692 153.561V153.559Z"
                fill="white" />
            <path
                d="M107.832 155.755C105.87 151.918 103.369 148.148 100.403 144.55L101.027 144.037C104.031 147.68 106.563 151.498 108.553 155.387L107.834 155.755H107.832Z"
                fill="white" />
            <path
                d="M156.44 204.005C164.782 193.889 160.753 188.117 160.163 181.471C159.438 173.275 165.629 165.577 170.342 158.068C174.177 151.959 185.465 151.49 191.498 151.985C198.712 152.577 220.959 152.771 243.589 178.026C240.623 183.525 232.669 189.119 225.256 195.004C225.187 194.501 212.962 184.039 212.962 184.039C212.962 184.039 221.999 210.546 224.302 215.324C226.23 219.326 223.747 221.399 222.108 220.021C212.825 212.217 169.655 197.417 156.44 204.007V204.005Z"
                fill="#FA6163" />
            <path
                d="M215.427 179.908C208.608 180.605 187.255 199.538 187.255 199.538L223.577 183.275C223.577 183.275 222.246 179.211 215.427 179.908Z"
                fill="#2E2E2E" />
            <path
                d="M192.94 182.028C194.039 181.614 195.171 181.272 196.306 181.014C200.569 180.04 207.861 180.6 209.903 181.042C214.809 182.107 219.548 184.707 223.989 188.768C228.014 192.446 231.748 197.346 234.786 202.932C239.669 211.936 241.391 221.552 239.764 230.736C238.128 239.975 233.204 248.151 225.529 254.379C222.763 256.682 219.761 258.454 216.601 259.644C209.653 262.26 202.288 262.03 195.304 258.979C188.158 255.858 182.064 250.04 177.684 242.153C172.249 232.399 170.259 221.055 172.084 210.21C173.91 199.346 179.347 190.349 187.392 184.881C189.166 183.707 191.035 182.747 192.944 182.028H192.94Z"
                fill="#0A3F8E" />
            <path
                d="M200.969 207.461L201.014 206.865L173.33 204.818C173.272 205.014 173.213 205.208 173.159 205.406L200.971 207.461H200.969Z"
                fill="#7DA9EB" />
            <path
                d="M174.296 201.948L201.104 203.93L201.149 203.334L174.52 201.366C174.444 201.56 174.371 201.754 174.296 201.95V201.948Z"
                fill="#7DA9EB" />
            <path
                d="M200.834 210.997L200.878 210.401L172.445 208.3C172.403 208.496 172.365 208.694 172.326 208.892L200.836 210.999L200.834 210.997Z"
                fill="#7DA9EB" />
            <path
                d="M171.767 212.393L200.696 214.53L200.741 213.934L171.843 211.799C171.817 211.997 171.791 212.195 171.767 212.393Z"
                fill="#7DA9EB" />
            <path
                d="M201.242 200.394L201.286 199.798L176.066 197.936C175.969 198.127 175.874 198.321 175.779 198.515L201.242 200.396V200.394Z"
                fill="#7DA9EB" />
            <path
                d="M201.648 189.792L201.692 189.196L183.634 187.862C183.434 188.046 183.238 188.23 183.042 188.418L201.648 189.792V189.792Z"
                fill="#7DA9EB" />
            <path
                d="M192.94 182.028C192.916 182.038 192.892 182.048 192.867 182.056L201.921 182.725L201.965 182.129L194.3 181.563C193.843 181.707 193.389 181.86 192.94 182.03V182.028Z"
                fill="#7DA9EB" />
            <path
                d="M200.561 218.063L200.605 217.467L171.504 215.317C171.492 215.517 171.484 215.715 171.476 215.915L200.561 218.065V218.063Z"
                fill="#7DA9EB" />
            <path
                d="M201.513 193.327L201.557 192.731L180.493 191.176C180.337 191.364 180.183 191.552 180.03 191.741L201.513 193.329V193.327Z"
                fill="#7DA9EB" />
            <path
                d="M201.377 196.86L201.422 196.264L178.024 194.535C177.9 194.725 177.779 194.917 177.66 195.109L201.377 196.86V196.86Z"
                fill="#7DA9EB" />
            <path
                d="M186.982 185.165L201.785 186.258L201.83 185.662L187.788 184.624C187.655 184.709 187.521 184.792 187.39 184.879C187.253 184.972 187.117 185.068 186.982 185.163V185.165Z"
                fill="#7DA9EB" />
            <path
                d="M200.153 228.666L200.197 228.07L172.06 225.991C172.092 226.193 172.124 226.397 172.161 226.599L200.153 228.668V228.666Z"
                fill="#7DA9EB" />
            <path
                d="M200.018 232.199L200.062 231.603L172.783 229.587C172.831 229.791 172.884 229.995 172.936 230.199L200.02 232.201L200.018 232.199Z"
                fill="#7DA9EB" />
            <path
                d="M200.29 225.132L200.335 224.536L171.611 222.413C171.629 222.615 171.649 222.817 171.67 223.017L200.29 225.132Z"
                fill="#7DA9EB" />
            <path
                d="M199.745 239.266L199.789 238.67L175.13 236.848C175.215 237.054 175.298 237.262 175.387 237.466L199.747 239.266H199.745Z"
                fill="#7DA9EB" />
            <path
                d="M199.882 235.732L199.927 235.136L173.799 233.205C173.866 233.411 173.932 233.615 174.001 233.821L199.882 235.734V235.732Z"
                fill="#7DA9EB" />
            <path
                d="M200.426 221.597L200.47 221.001L171.429 218.855C171.431 219.055 171.433 219.255 171.439 219.455L200.426 221.597Z"
                fill="#7DA9EB" />
            <path
                d="M199.518 245.737L178.907 244.214C179.038 244.424 179.167 244.636 179.301 244.844L199.474 246.335L199.518 245.739V245.737Z"
                fill="#7DA9EB" />
            <path
                d="M199.201 253.402L199.246 252.806L184.842 251.741C185.061 251.959 185.277 252.18 185.497 252.39L199.201 253.402V253.402Z"
                fill="#7DA9EB" />
            <path
                d="M199.339 249.868L199.383 249.272L181.503 247.951C181.67 248.165 181.838 248.377 182.008 248.59L199.339 249.87V249.868Z"
                fill="#7DA9EB" />
            <path
                d="M176.813 240.517C176.921 240.725 177.026 240.933 177.135 241.141L199.609 242.801L199.654 242.206L176.813 240.519V240.517Z"
                fill="#7DA9EB" />
            <path
                d="M199.066 256.937L199.11 256.341L189.419 255.626C189.74 255.856 190.065 256.081 190.392 256.299L199.066 256.939V256.937Z"
                fill="#7DA9EB" />
            <path
                d="M200.411 182.537C207.661 179.808 215.32 180.305 222.561 183.978C229.477 187.485 235.697 193.849 240.078 201.899C244.999 210.974 247.05 221.183 245.852 230.643C244.591 240.597 239.946 249.088 232.416 255.198C229.65 257.501 226.648 259.272 223.488 260.462C216.54 263.079 209.176 262.848 202.191 259.798C195.045 256.676 188.952 250.858 184.572 242.971C179.137 233.217 177.147 221.874 178.971 211.031C180.798 200.166 186.234 191.17 194.28 185.701C196.26 184.392 198.326 183.327 200.415 182.539L200.411 182.537Z"
                fill="#1F6CDE" />
            <path
                d="M223.228 259.678C219.856 260.949 216.34 261.531 212.782 261.412C209.265 261.293 205.782 260.49 202.432 259.026C199.034 257.541 195.845 255.408 192.96 252.686C189.968 249.864 187.35 246.452 185.182 242.547C182.493 237.718 180.658 232.49 179.729 227.001C178.832 221.694 178.818 216.382 179.686 211.215C180.557 206.041 182.266 201.281 184.768 197.065C187.358 192.701 190.689 189.117 194.668 186.41C196.605 185.129 198.623 184.089 200.664 183.321C207.739 180.656 215.215 181.143 222.286 184.729C225.668 186.444 228.86 188.824 231.776 191.8C234.709 194.796 237.289 198.325 239.449 202.293C241.868 206.752 243.583 211.459 244.549 216.287C245.508 221.09 245.7 225.865 245.114 230.486C244.516 235.203 243.126 239.629 240.979 243.64C238.734 247.83 235.701 251.492 231.962 254.529H231.96V254.533C229.256 256.781 226.321 258.513 223.23 259.676M223.593 260.741C226.723 259.561 229.762 257.797 232.604 255.43C248.426 242.591 250.323 220.162 240.34 201.756C231.426 185.376 215.548 176.517 200.306 182.258C198.221 183.044 196.148 184.103 194.108 185.452C177.292 196.883 173.027 222.875 184.307 243.116C193.415 259.509 209.471 266.062 223.591 260.743L223.593 260.741Z"
                fill="#84AFF1" />
            <path
                d="M222.262 256.488C219.175 257.652 215.958 258.185 212.701 258.074C209.481 257.965 206.293 257.229 203.226 255.89C196.821 253.092 191.358 247.872 187.424 240.795C184.96 236.37 183.279 231.578 182.428 226.55C181.606 221.687 181.594 216.82 182.39 212.085C183.186 207.345 184.754 202.984 187.045 199.123C189.417 195.127 192.467 191.844 196.11 189.365C197.884 188.191 199.733 187.24 201.601 186.537C208.077 184.098 214.922 184.543 221.395 187.826C224.492 189.397 227.416 191.575 230.087 194.303C232.774 197.048 235.14 200.283 237.118 203.917C241.542 212.075 243.385 221.249 242.308 229.75C241.761 234.071 240.486 238.126 238.52 241.799C236.465 245.637 233.685 248.993 230.261 251.771H230.259V251.775C227.784 253.835 225.094 255.419 222.266 256.486M222.48 257.046C225.315 255.977 228.066 254.381 230.64 252.235C244.967 240.609 246.686 220.299 237.647 203.63C229.576 188.797 215.197 180.775 201.395 185.973C199.508 186.684 197.629 187.644 195.781 188.864C180.553 199.216 176.692 222.752 186.905 241.082C195.152 255.926 209.693 261.86 222.48 257.044V257.046Z"
                fill="#0A3F8E" />
            <path
                d="M219.286 234.281C216.941 234.91 215.082 234.815 213.708 233.998C212.459 233.329 211.535 232.198 211.139 230.853C211.017 230.445 211.005 230.012 211.105 229.596C211.205 229.232 211.401 228.901 211.672 228.634C212.328 228.063 213.216 227.825 214.07 227.992C214.437 228.086 214.772 228.275 215.037 228.541C215.337 228.848 215.547 229.229 215.646 229.645C215.799 230.132 215.785 230.656 215.606 231.138C215.455 231.533 215.178 231.87 214.818 232.099C215.331 232.477 215.965 232.663 216.609 232.627C217.343 232.638 218.077 232.549 218.788 232.361C219.731 232.117 220.58 231.6 221.224 230.877C221.885 230.099 222.274 229.134 222.336 228.127C222.433 226.921 222.313 225.711 221.983 224.55C221.69 223.327 221.157 222.174 220.414 221.154C219.841 220.333 219.007 219.724 218.04 219.419C217.146 219.149 216.188 219.138 215.282 219.388C214.508 219.666 213.813 220.124 213.257 220.723L211.826 221.975L211.609 221.165L216.409 209.443L206.143 212.195L208.848 222.299C209.015 223.036 209.404 223.703 209.967 224.214C210.504 224.657 211.24 224.789 211.908 224.562C212.522 224.384 213.064 224.017 213.454 223.516C213.902 222.97 214.254 222.354 214.496 221.695C214.505 221.589 214.548 221.487 214.617 221.404C214.67 221.328 214.75 221.272 214.84 221.247C215.023 221.215 215.211 221.241 215.377 221.319C215.599 221.461 215.757 221.68 215.822 221.933C215.847 222.108 215.861 222.284 215.864 222.461C215.731 223.423 215.319 224.331 214.677 225.075C214.077 225.753 213.285 226.24 212.404 226.472C210.181 227.068 208.527 227.052 207.44 226.423C206.294 225.703 205.495 224.557 205.224 223.243L202.526 213.165L197.304 214.565L196.802 212.688L202.048 211.282L200.901 207.001L199.385 206.146L199.128 205.186L202.613 204.251L204.1 204.564L205.641 210.318L219.19 206.641L220.896 207.607L214.773 218.025C215.222 217.692 215.718 217.425 216.244 217.231C217.323 216.991 218.442 217.003 219.511 217.266C220.723 217.479 221.845 218.03 222.742 218.854C223.532 219.542 224.183 220.371 224.662 221.298C225.046 222.028 225.353 222.794 225.577 223.587C225.989 225.103 226.039 226.696 225.723 228.243C225.431 229.736 224.63 231.092 223.452 232.086C222.25 233.122 220.825 233.874 219.286 234.281Z"
                fill="white" />
            <path
                d="M188.637 191.974L190.384 191.489C190.663 191.412 190.663 191.016 190.384 190.937L188.75 190.483C187.243 190.064 186.063 188.887 185.644 187.378L185.16 185.63C185.083 185.351 184.687 185.351 184.608 185.63L184.153 187.264C183.735 188.773 182.557 189.951 181.048 190.369L179.301 190.854C179.022 190.931 179.022 191.327 179.301 191.406L180.935 191.86C182.442 192.279 183.622 193.456 184.04 194.966L184.525 196.713C184.602 196.992 184.998 196.992 185.077 196.713L185.531 195.079C185.95 193.57 187.127 192.392 188.637 191.974Z"
                fill="white" />
            <path
                d="M174.633 192.683L175.579 192.42C175.73 192.378 175.73 192.164 175.579 192.121L174.694 191.875C173.878 191.648 173.239 191.01 173.013 190.194L172.75 189.248C172.708 189.097 172.494 189.097 172.451 189.248L172.205 190.133C171.979 190.949 171.34 191.588 170.524 191.814L169.578 192.077C169.427 192.119 169.427 192.333 169.578 192.376L170.463 192.622C171.28 192.848 171.918 193.487 172.144 194.303L172.407 195.249C172.449 195.4 172.664 195.4 172.706 195.249L172.952 194.364C173.179 193.547 173.817 192.909 174.633 192.683Z"
                fill="white" />
            <path
                d="M185.822 178.014L186.768 177.751C186.919 177.709 186.919 177.495 186.768 177.452L185.883 177.206C185.067 176.98 184.428 176.341 184.202 175.525L183.939 174.579C183.897 174.428 183.683 174.428 183.64 174.579L183.394 175.464C183.167 176.281 182.529 176.919 181.713 177.145L180.767 177.408C180.616 177.45 180.616 177.664 180.767 177.707L181.652 177.953C182.468 178.18 183.107 178.818 183.333 179.634L183.596 180.58C183.638 180.731 183.852 180.731 183.895 180.58L184.141 179.695C184.368 178.879 185.006 178.24 185.822 178.014Z"
                fill="white" />
            <path
                d="M205.2 158.062C212.249 155.103 241.227 165.905 250.903 196.219C256.301 213.13 251.543 230.02 249.028 235.224C245.514 242.499 241.173 248.262 237.128 247.65C231.568 246.81 236.772 240.723 235.928 235.878C235.495 233.403 232.988 239.317 230.056 236.68C229.497 236.177 234.542 229.106 235.528 226.31C237.421 220.941 238.518 212.843 235.669 202.94C232.61 192.303 221.219 185.808 208.84 178.673C200.046 173.602 205.198 158.062 205.198 158.062H205.2Z"
                fill="#FDB78F" />
            <path
                d="M191.498 151.983C198.712 152.575 220.959 152.769 243.589 178.024C240.623 183.523 232.669 189.117 225.256 195.002C225.187 194.499 208.608 180.606 208.608 180.606C208.608 180.606 185.467 151.49 191.498 151.983V151.983Z"
                fill="#FA6163" />
            <path
                d="M182.163 165.646C179.266 165.646 176.933 164.817 175.696 163.262C173.571 160.589 175.304 156.534 180.333 152.413C180.505 152.272 180.759 152.296 180.901 152.47C181.042 152.641 181.018 152.896 180.844 153.037C176.201 156.842 174.512 160.476 176.327 162.757C177.628 164.393 180.525 165.125 184.073 164.71C188.119 164.24 192.449 162.359 196.26 159.415C201.038 155.726 199.626 153.71 199.609 153.69C199.478 153.512 199.51 153.26 199.684 153.126C199.858 152.991 200.106 153.019 200.244 153.191C200.294 153.256 200.739 153.845 200.609 154.916C200.42 156.496 199.122 158.223 196.751 160.054C191.788 163.884 186.376 165.642 182.157 165.642L182.163 165.646Z"
                fill="white" />
            <path
                d="M239.352 245.686C239.273 245.686 239.195 245.664 239.126 245.618C238.942 245.492 238.894 245.242 239.019 245.056C242.506 239.919 242.849 237.607 242.852 237.585C242.882 237.365 243.082 237.209 243.304 237.238C243.524 237.266 243.68 237.466 243.654 237.686C243.641 237.785 243.314 240.167 239.688 245.511C239.609 245.626 239.482 245.688 239.352 245.688V245.686Z"
                fill="#E58863" />
            <path
                d="M236.075 245.668C235.992 245.668 235.907 245.642 235.835 245.589C235.655 245.456 235.619 245.203 235.75 245.023C239.475 240.001 240.263 236.229 240.271 236.191C240.316 235.973 240.528 235.831 240.746 235.874C240.964 235.918 241.108 236.13 241.063 236.348C241.031 236.508 240.241 240.322 236.398 245.504C236.32 245.611 236.196 245.668 236.073 245.668H236.075Z"
                fill="#E58863" />
            <path
                d="M244.502 241.189C244.429 241.189 244.355 241.169 244.29 241.129C244.1 241.011 244.044 240.761 244.161 240.573C244.935 239.329 245.599 238.131 246.139 237.011C246.236 236.809 246.478 236.727 246.678 236.821C246.88 236.918 246.965 237.159 246.868 237.361C246.316 238.506 245.638 239.731 244.848 240.999C244.771 241.123 244.64 241.189 244.504 241.189H244.502Z"
                fill="#E58863" />
            <path
                d="M198.448 139.89C198.454 141.688 197.89 143.498 197.167 145.393C196.102 148.177 196.72 151.237 198.528 153.607C198.551 153.638 198.573 153.668 198.591 153.698C199.195 154.676 198.122 158.488 193.473 160.567C178.806 167.129 171.516 161.29 180.583 153.561C184.485 150.264 184.366 148.47 187.2 142.577L198.446 139.888L198.448 139.89Z"
                fill="#FDB78F" />
            <path
                d="M185.277 146.884C187.243 146.648 190.431 145.654 191.776 144.64L186.936 143.137C186.234 144.626 185.725 145.838 185.277 146.882V146.884Z"
                fill="#3D3D3D" fill-opacity="0.2" />
            <path
                d="M198.91 124.472C197.973 123.936 196.999 123.51 195.985 123.258C195.476 123.138 194.962 123.043 194.443 123.007C193.926 122.965 193.405 122.959 192.888 123.003C192.37 123.037 191.855 123.118 191.346 123.237C190.837 123.349 190.34 123.51 189.849 123.694C188.871 124.074 187.946 124.595 187.095 125.26C187.774 124.417 188.677 123.749 189.665 123.272C190.158 123.027 190.679 122.843 191.211 122.694C191.744 122.553 192.292 122.46 192.843 122.413C193.395 122.377 193.95 122.385 194.5 122.45C195.047 122.522 195.593 122.633 196.114 122.813C197.159 123.165 198.118 123.736 198.91 124.47V124.472Z"
                fill="#2E2E2E" />
            <path
                d="M200.751 126.148C196.154 120.102 186.432 122.976 186.073 130.195C185.711 137.413 200.751 126.148 200.751 126.148Z"
                fill="#6427BD" />
            <path
                d="M196.449 145.131C190.71 147.086 182.915 144.244 182.22 141.011C180.945 135.082 187.346 127.065 193.088 125.11C198.827 123.154 201.347 125.455 203.303 131.197C205.258 136.938 202.189 143.175 196.449 145.131Z"
                fill="#FDB78F" />
            <path
                d="M192.978 124.373C190.79 129.712 196.157 133.532 195.205 137.924C195.884 138.874 198.953 137.112 199.149 139.759C199.234 140.902 198.248 142.779 195.878 142.852C196.553 144.478 195.886 151.856 197.284 152.113C202.674 153.099 209.94 135.05 205.38 127.651C204.442 126.13 201.834 122.488 198.298 121.619C196.096 121.078 193.837 122.276 192.978 124.373V124.373Z"
                fill="#9961EC" />
            <path
                d="M196.114 143.803C196.411 145.023 196.532 146.282 196.508 147.548C196.48 148.813 196.294 150.088 195.894 151.312C195.498 152.534 194.872 153.708 194.003 154.672C193.136 155.635 192.025 156.373 190.821 156.73C191.845 156.005 192.72 155.161 193.405 154.189C194.092 153.221 194.595 152.14 194.966 151.009C195.336 149.876 195.577 148.692 195.746 147.488C195.918 146.282 196.009 145.055 196.118 143.805L196.114 143.803Z"
                fill="#9961EC" />
            <path
                d="M196.652 144.349C196.736 144.896 196.839 145.448 196.88 145.995C196.908 146.27 196.928 146.545 196.949 146.817L196.979 147.638C196.987 148.729 196.951 149.822 196.793 150.89C196.502 153.034 196.249 154.67 195.431 156.644C195.225 157.137 195.015 157.628 194.803 158.115L194.156 159.565C193.728 160.529 192.948 161.931 192.647 162.921C192.508 163.418 192.38 163.919 192.318 164.432C192.235 164.943 192.235 165.466 192.267 165.996C192.346 167.054 192.688 168.135 193.195 169.198C192.451 168.214 191.932 167.113 191.677 165.986C191.443 164.858 191.493 163.725 191.712 162.658C191.934 161.59 192.3 160.573 192.69 159.579C193.081 158.585 193.508 157.616 193.904 156.64C194.71 154.694 195.393 152.717 195.853 150.668C196.324 148.622 196.538 146.504 196.647 144.347L196.652 144.349Z"
                fill="#9961EC" />
            <path
                d="M199.587 140.3C199.672 140.847 199.775 141.399 199.815 141.946C199.844 142.221 199.864 142.496 199.884 142.771L199.914 143.591C199.922 144.682 199.886 145.775 199.729 146.843C199.438 148.987 199.185 150.623 198.367 152.597C198.161 153.09 197.951 153.581 197.738 154.068L197.092 155.518C196.664 156.482 195.884 157.884 195.583 158.874C195.443 159.371 195.316 159.872 195.253 160.385C195.171 160.896 195.171 161.419 195.203 161.949C195.282 163.007 195.623 164.088 196.13 165.151C195.387 164.167 194.868 163.066 194.613 161.939C194.379 160.811 194.429 159.678 194.647 158.611C194.87 157.543 195.235 156.526 195.625 155.532C196.017 154.539 196.431 151.611 196.827 150.635C197.633 148.69 198.328 148.672 198.787 146.621C199.258 144.575 199.472 142.457 199.581 140.3H199.587Z"
                fill="#9961EC" />
            <path
                d="M196.122 144.035C195.678 144.385 195.033 144.308 194.682 143.864C194.33 143.419 194.409 142.775 194.853 142.423C195.298 142.072 195.942 142.15 196.294 142.595C196.643 143.039 196.567 143.684 196.122 144.035Z"
                fill="white" />
            <path
                d="M147.611 174.645C147.393 174.645 147.213 174.471 147.207 174.253C147.203 174.144 146.904 163.127 148.484 150.697C148.512 150.476 148.714 150.319 148.936 150.347C149.158 150.375 149.314 150.577 149.286 150.8C147.714 163.164 148.011 174.119 148.015 174.228C148.021 174.451 147.845 174.639 147.623 174.645H147.611V174.645Z"
                fill="white" />
            <path
                d="M222.745 193.049C222.617 193.049 222.49 192.988 222.411 192.875C222.284 192.691 222.33 192.441 222.512 192.314C222.632 192.231 234.42 184.014 238.793 177.36C238.916 177.174 239.166 177.121 239.352 177.244C239.538 177.368 239.591 177.618 239.467 177.804C235.008 184.59 223.462 192.639 222.973 192.978C222.902 193.027 222.821 193.051 222.743 193.051L222.745 193.049Z"
                fill="white" />
            <path
                d="M243.967 316.165C243.87 316.165 243.775 316.143 243.688 316.099C240.912 314.664 237.661 313.016 234.218 311.27C219.787 303.953 201.826 294.846 193.156 288.637C184.44 282.397 179.27 261.091 176.468 244.315C176.413 243.986 176.636 243.673 176.965 243.618C177.294 243.562 177.607 243.786 177.662 244.115C181.626 267.847 187.226 282.902 193.859 287.651C202.454 293.805 220.369 302.888 234.764 310.187C238.12 311.888 241.294 313.499 244.025 314.909C248.3 313.567 254.913 306.549 253.628 288.252C253.604 287.918 253.856 287.627 254.19 287.605C254.525 287.577 254.814 287.833 254.836 288.167C255.408 296.316 254.444 303.304 252.048 308.375C250.117 312.462 247.228 315.295 244.12 316.143C244.068 316.157 244.013 316.165 243.961 316.165H243.967Z"
                fill="#9961EC" />
            <path
                d="M168.518 340.341C168.487 340.341 168.455 340.339 168.423 340.333C168.091 340.283 167.865 339.972 167.918 339.64C168.122 338.327 168.326 336.875 168.522 335.323C168.564 334.992 168.867 334.757 169.199 334.798C169.53 334.84 169.766 335.143 169.724 335.475C169.526 337.038 169.32 338.503 169.114 339.826C169.067 340.125 168.809 340.339 168.516 340.339L168.518 340.341ZM169.629 331.658C169.607 331.658 169.587 331.658 169.564 331.654C169.231 331.618 168.991 331.321 169.025 330.988C169.174 329.592 169.316 328.129 169.451 326.642C169.481 326.309 169.774 326.064 170.11 326.093C170.443 326.123 170.69 326.418 170.659 326.751C170.524 328.246 170.381 329.715 170.231 331.117C170.199 331.428 169.934 331.658 169.629 331.658ZM170.417 322.939C170.401 322.939 170.387 322.939 170.37 322.939C170.037 322.915 169.787 322.622 169.813 322.288C169.92 320.868 170.023 319.402 170.118 317.929C170.14 317.595 170.429 317.345 170.76 317.363C171.094 317.385 171.348 317.672 171.326 318.008C171.231 319.484 171.128 320.957 171.021 322.381C170.997 322.699 170.732 322.941 170.417 322.941V322.939ZM170.977 314.201C170.966 314.201 170.954 314.201 170.944 314.201C170.611 314.183 170.354 313.898 170.37 313.565C170.445 312.135 170.516 310.666 170.579 309.199C170.593 308.864 170.878 308.605 171.209 308.619C171.544 308.634 171.803 308.916 171.789 309.25C171.726 310.723 171.655 312.195 171.581 313.628C171.564 313.951 171.296 314.201 170.977 314.201ZM171.35 305.456C171.35 305.456 171.336 305.456 171.33 305.456C170.995 305.446 170.734 305.165 170.744 304.829C170.793 303.395 170.835 301.924 170.871 300.46C170.88 300.124 171.156 299.858 171.492 299.87C171.827 299.878 172.092 300.157 172.082 300.49C172.045 301.959 172.003 303.431 171.954 304.87C171.944 305.197 171.674 305.456 171.348 305.456H171.35ZM171.569 296.704H171.558C171.223 296.698 170.956 296.423 170.962 296.088L170.966 295.789C170.989 294.369 171.013 293.011 171.037 291.71C171.043 291.379 171.314 291.116 171.643 291.116C171.647 291.116 171.651 291.116 171.655 291.116C171.991 291.122 172.255 291.399 172.249 291.734C172.225 293.033 172.201 294.391 172.179 295.809L172.175 296.108C172.169 296.439 171.898 296.704 171.569 296.704ZM171.736 287.958C171.736 287.958 171.726 287.958 171.722 287.958C171.387 287.95 171.122 287.674 171.13 287.338C171.166 285.75 171.205 284.32 171.245 282.962C171.255 282.627 171.526 282.368 171.87 282.374C172.205 282.384 172.468 282.663 172.457 282.999C172.417 284.352 172.379 285.781 172.342 287.364C172.334 287.694 172.066 287.956 171.736 287.956V287.958ZM172.007 279.219C172.007 279.219 171.991 279.219 171.981 279.219C171.645 279.205 171.387 278.922 171.401 278.588C171.468 276.986 171.538 275.556 171.619 274.211C171.639 273.875 171.926 273.621 172.259 273.643C172.593 273.663 172.847 273.95 172.827 274.283C172.746 275.619 172.676 277.045 172.609 278.637C172.595 278.962 172.326 279.219 172.003 279.219H172.007ZM172.55 270.495C172.532 270.495 172.512 270.495 172.494 270.493C172.16 270.463 171.916 270.168 171.946 269.835C172.094 268.237 172.264 266.806 172.464 265.465C172.512 265.134 172.821 264.905 173.153 264.956C173.484 265.004 173.712 265.313 173.662 265.645C173.466 266.964 173.298 268.372 173.153 269.948C173.124 270.263 172.86 270.497 172.55 270.497V270.495ZM173.878 261.871C173.831 261.871 173.785 261.865 173.738 261.855C173.413 261.778 173.209 261.453 173.286 261.127C173.603 259.772 173.977 258.42 174.462 256.877C174.563 256.558 174.902 256.38 175.221 256.481C175.541 256.582 175.718 256.921 175.617 257.24C175.143 258.754 174.777 260.077 174.466 261.404C174.401 261.683 174.151 261.873 173.876 261.873L173.878 261.871ZM176.428 253.523C176.361 253.523 176.294 253.513 176.228 253.489C175.912 253.38 175.745 253.032 175.854 252.717C176.064 252.111 176.286 251.485 176.516 250.826C176.765 250.119 177.026 249.378 177.298 248.594C177.409 248.277 177.755 248.111 178.07 248.22C178.385 248.331 178.553 248.677 178.444 248.992C178.171 249.776 177.91 250.517 177.662 251.226C177.432 251.883 177.211 252.509 177.001 253.113C176.914 253.364 176.68 253.519 176.43 253.519L176.428 253.523Z"
                fill="#9961EC" />
            <path
                d="M150.439 342.127C150.399 342.127 150.359 342.123 150.318 342.115C147.235 341.493 145.39 340.82 145.314 340.792C145.001 340.677 144.839 340.329 144.954 340.014C145.069 339.701 145.417 339.539 145.732 339.654C145.75 339.66 147.575 340.325 150.559 340.927C150.886 340.994 151.098 341.313 151.033 341.642C150.975 341.929 150.722 342.129 150.439 342.129V342.127Z"
                fill="#9961EC" />
            <path
                d="M160.493 343.135C158.018 343.135 155.755 342.951 153.801 342.694C153.47 342.65 153.236 342.347 153.28 342.014C153.324 341.682 153.628 341.446 153.961 341.492C160.115 342.303 169.399 342.367 178.664 338.072C178.969 337.931 179.329 338.064 179.468 338.367C179.61 338.67 179.476 339.032 179.173 339.171C172.593 342.22 166.014 343.135 160.493 343.135V343.135Z"
                fill="#9961EC" />
            <path
                d="M409.531 375.039H370.909C370.776 375.039 370.648 374.972 370.574 374.861C370.499 374.75 370.483 374.609 370.533 374.483C370.568 374.398 374.01 365.837 377.106 357.164C378.922 352.075 380.263 347.945 381.092 344.889C382.546 339.533 382.019 338.955 381.955 338.907C381.959 338.909 381.676 338.868 380.855 339.691C373.249 347.297 371.297 355.697 369.038 365.422C368.802 366.437 368.565 367.459 368.317 368.493C368.22 368.897 368 368.974 367.826 368.97C367.377 368.956 367.327 368.665 366.941 366.398C366.109 361.527 364.163 350.119 358.66 350.119C358.597 350.119 358.557 350.133 358.508 350.204C357.288 352.018 362.264 366.057 365.686 374.481C365.737 374.606 365.723 374.748 365.648 374.859C365.573 374.97 365.448 375.037 365.313 375.037H356.869C356.68 375.037 356.514 374.903 356.474 374.718C356.421 374.475 355.102 368.766 348.836 367.792C347.741 367.622 347.448 367.758 347.396 367.792C347.396 367.903 347.554 368.709 351.17 371.425C353.18 372.936 355.253 374.277 355.273 374.291C355.425 374.388 355.492 374.574 355.441 374.746C355.391 374.918 355.233 375.035 355.053 375.035H344.953L261.568 375.019C261.344 375.019 261.164 374.837 261.164 374.615C261.164 374.392 261.346 374.211 261.568 374.211L344.953 374.227H353.718C352.895 373.669 351.726 372.857 350.586 371.996C346.711 369.073 346.416 368.081 346.638 367.495C346.913 366.772 348.024 366.847 348.96 366.992C354.902 367.915 356.781 372.907 357.177 374.227H364.715C364.098 372.681 362.31 368.144 360.688 363.435C356.603 351.584 357.532 350.204 357.837 349.749C358.031 349.46 358.316 349.307 358.66 349.307C364.844 349.307 366.872 361.186 367.739 366.259C367.778 366.487 367.818 366.717 367.856 366.938C367.99 366.366 368.123 365.798 368.252 365.235C370.444 355.798 372.515 346.885 380.286 339.115C380.876 338.525 381.738 337.789 382.403 338.228C382.961 338.596 383.336 339.693 381.894 345.022C381.064 348.095 379.716 352.248 377.89 357.37C375.237 364.81 372.321 372.18 371.505 374.225H409.531C409.753 374.225 409.935 374.406 409.935 374.629C409.935 374.851 409.753 375.033 409.531 375.033V375.039Z"
                fill="#585858" />
            <path
                d="M114.097 55.5869H81.0677C74.9016 55.5869 69.9031 60.5852 69.9031 66.7508V99.7779C69.9031 105.944 74.9016 110.942 81.0677 110.942H114.097C120.263 110.942 125.261 105.944 125.261 99.7779V66.7508C125.261 60.5852 120.263 55.5869 114.097 55.5869Z"
                fill="#FD3289" />
            <path
                d="M81.0677 53.7744H114.097C120.259 53.7744 125.261 58.7766 125.261 64.9383V97.9654C125.261 104.127 120.259 109.129 114.097 109.129H81.0677C74.9055 109.129 69.9031 104.127 69.9031 97.9654V64.9383C69.9031 58.7766 74.9055 53.7744 81.0677 53.7744Z"
                fill="white" />
            <path
                d="M123.059 50.8628C122.978 50.8628 122.896 50.8466 122.817 50.8123C122.51 50.6789 122.37 50.3213 122.504 50.0143L125.855 42.3373C125.989 42.0302 126.346 41.8908 126.653 42.0242C126.961 42.1575 127.1 42.5151 126.967 42.8222L123.615 50.4991C123.516 50.7274 123.294 50.8628 123.059 50.8628Z"
                fill="#FD3289" />
            <path
                d="M128.294 53.6908C128.114 53.6908 127.934 53.61 127.815 53.4564C127.609 53.1918 127.658 52.812 127.92 52.6059L136.66 45.8037C136.925 45.5976 137.305 45.6461 137.511 45.9088C137.717 46.1734 137.669 46.5532 137.406 46.7593L128.666 53.5615C128.555 53.6483 128.423 53.6887 128.294 53.6887V53.6908Z"
                fill="#FD3289" />
            <path
                d="M131.123 57.9999C130.846 57.9999 130.595 57.808 130.533 57.5272C130.46 57.1999 130.664 56.8766 130.991 56.8039L139.784 54.8301C140.111 54.7574 140.434 54.9614 140.507 55.2887C140.58 55.616 140.376 55.9393 140.049 56.012L131.256 57.9858C131.211 57.9959 131.167 57.9999 131.123 57.9999V57.9999Z"
                fill="#FD3289" />
            <path
                d="M69.503 123.452C69.4445 123.452 69.3859 123.444 69.3253 123.426C69.006 123.329 68.8242 122.99 68.9232 122.671L71.2648 114.994C71.3618 114.672 71.7012 114.493 72.0204 114.592C72.3397 114.689 72.5215 115.028 72.4225 115.347L70.0809 123.024C70.0021 123.285 69.7617 123.454 69.501 123.454L69.503 123.452Z"
                fill="#FD3289" />
            <path
                d="M59.0557 119.614C58.8859 119.614 58.7162 119.543 58.597 119.404C58.3788 119.152 58.4051 118.768 58.6576 118.549L66.818 111.479C67.0705 111.258 67.4544 111.287 67.6726 111.539C67.8908 111.792 67.8645 112.176 67.612 112.394L59.4517 119.465C59.3365 119.564 59.1951 119.612 59.0557 119.612V119.614Z"
                fill="#FD3289" />
            <path
                d="M64.7915 107.626H56.2494C55.914 107.626 55.6432 107.355 55.6432 107.02C55.6432 106.685 55.914 106.414 56.2494 106.414H64.7915C65.1269 106.414 65.3976 106.685 65.3976 107.02C65.3976 107.355 65.1269 107.626 64.7915 107.626V107.626Z"
                fill="#FD3289" />
        </g>
        <path
            d="M97.477 60.4844V81.3193H83.9512V66.8555H82.3499V81.3193H76.6421V60.4844H89.8922V75.0971H91.4935V60.4844H97.477Z"
            fill="#FF3334" />
        <path
            d="M118.311 60.4844V81.3193H109.243V72.39H110.126V71.6459H106.405V72.39H107.894L107.642 81.3193H97.4761V60.4844H118.311Z"
            fill="#8637EB" />
        <path
            d="M117.853 82.4472V101.727L104.173 102.154V88.7604H103.429L103.399 101.727L97.4761 102.154V82.0635L110.941 82.4472V95.4573H111.846V82.4472H117.853Z"
            fill="#FFBE0C" />
        <path
            d="M96.909 82.4472V102.154H87.8036V93.726L89.2918 93.225V92.4809H85.5713L85.2299 93.726H86.8659V102.154H76.642V82.0635L96.909 82.4472Z"
            fill="#FF006E" />
        <path fill-rule="evenodd" clip-rule="evenodd"
            d="M98.4111 59.7402H75.8984V82.2529H75.8986V103.389H96.8084H98.4114H119.321V82.2534V80.8766V59.7407H98.4111V59.7402ZM77.5019 80.6495V61.3437H89.8844V75.0878H91.4879V61.3437H96.8077V80.6495H83.934V66.8352H82.3305V80.6495H77.5019ZM98.4119 80.6499V61.3441H117.718V80.6499H109.261V72.6346H110.9V71.0312H106.02V72.6346H107.658V80.6499H98.4119ZM98.4119 82.4801V101.786H103.24V87.972H104.844V101.786H117.718V82.4801H112.396V96.2245H110.793V82.4801H98.4119ZM77.5021 101.786V82.4801H96.8079V101.786H88.354V93.7707H89.9889V92.1673H85.1117V93.7707H86.7505V101.786H77.5021Z"
            fill="#050606" />
    </g>

</svg>