<svg width="358" height="348" viewBox="0 0 358 348" fill="none" xmlns="http://www.w3.org/2000/svg">
<mask id="mask0_150_434" style="mask-type:alpha" maskUnits="userSpaceOnUse" x="0" y="0" width="358" height="348">
<rect x="0.420898" width="357.158" height="348" fill="url(#paint0_linear_150_434)"/>
</mask>
<g mask="url(#mask0_150_434)">
<g clip-path="url(#clip0_150_434)">
<path d="M343.099 24.7271L334.969 32.8564L343.099 40.9858L351.229 32.8564L343.099 24.7271Z" fill="#FA6163"/>
<path d="M11.7866 143.565C11.6386 143.565 11.498 143.506 11.3943 143.402L3.26438 135.273C3.16077 135.169 3.10156 135.026 3.10156 134.88C3.10156 134.734 3.16077 134.592 3.26438 134.488L11.3943 126.359C11.6108 126.142 11.9624 126.142 12.1788 126.359L20.3088 134.488C20.5253 134.705 20.5253 135.056 20.3088 135.273L12.1788 143.402C12.0752 143.506 11.9328 143.565 11.7866 143.565ZM4.44114 134.88L11.7866 142.225L19.1321 134.88L11.7866 127.535L4.44114 134.88Z" fill="#FA6163"/>
<path d="M356.462 288.432L352.891 292.004L356.462 295.575L360.034 292.004L356.462 288.432Z" fill="#FA6163"/>
<path d="M29.936 183.866L26.3643 187.438L29.936 191.009L33.5077 187.437L29.936 183.866Z" fill="#FA6163"/>
<path d="M275.79 69.9442L272.219 73.5156L275.79 77.0871L279.362 73.5156L275.79 69.9442Z" fill="#FA6163"/>
<path d="M65.6459 167.993L62.0742 171.564L65.6459 175.136L69.2176 171.564L65.6459 167.993Z" fill="#FA6163"/>
<path d="M143.643 343.642C143.452 343.642 143.276 343.545 143.174 343.384C143.073 343.223 143.06 343.024 143.141 342.852C143.176 342.776 146.738 335.24 153.101 326.077C158.77 317.912 167.849 306.798 179.336 299.42C171.318 298.295 160.896 297.814 153.891 301.15C149.502 303.24 148.54 305.884 148.531 305.912C148.433 306.197 148.122 306.352 147.835 306.26C147.548 306.167 147.387 305.864 147.473 305.575C149.684 298.119 150.718 289.777 150.546 280.784C150.388 272.495 149.169 263.903 147.023 255.936C144.915 248.118 141.972 241.095 138.508 235.622C134.933 229.974 130.865 226.101 126.746 224.425C118.229 220.958 109.755 226.66 102.243 240.915C102.158 241.074 102.003 241.184 101.823 241.208C101.644 241.23 101.464 241.165 101.342 241.032C90.2483 228.947 78.5973 219.963 67.6513 215.049C62.4225 212.701 57.5378 211.378 53.1343 211.115C48.7214 210.851 44.9007 211.663 41.7793 213.524C36.4025 216.731 33.209 223.117 32.5429 231.994C31.7936 241.981 34.1193 254.867 39.4573 270.297C43.8535 283.002 51.2766 294.702 61.5214 305.076C69.7291 313.385 79.7555 320.867 91.3251 327.311C111.045 338.297 128.633 342.509 128.809 342.55C129.083 342.615 129.266 342.874 129.233 343.155C129.2 343.434 128.963 343.645 128.681 343.645H0.975971C0.668831 343.645 0.420898 343.397 0.420898 343.09C0.420898 342.783 0.668831 342.535 0.975971 342.535H124.568C118.218 340.656 105.067 336.232 90.8126 328.295C79.1468 321.799 69.0315 314.254 60.7462 305.868C50.3774 295.374 42.8617 283.527 38.41 270.66C33.0221 255.087 30.676 242.049 31.4383 231.911C32.1322 222.658 35.5126 215.972 41.2132 212.571C44.5306 210.594 48.5642 209.731 53.2027 210.007C57.7414 210.277 62.7555 211.633 68.1083 214.037C79.0154 218.932 90.5961 227.802 101.633 239.705C105.563 232.421 109.798 227.359 114.229 224.653C118.479 222.055 122.833 221.631 127.168 223.396C135.775 226.901 143.6 238.956 148.098 255.648C150.268 263.701 151.5 272.386 151.66 280.763C151.809 288.691 151.034 296.125 149.352 302.906C150.228 302.043 151.486 301.087 153.275 300.217C159.455 297.213 168.78 296.65 180.995 298.545C181.225 298.58 181.41 298.756 181.454 298.985C181.5 299.215 181.397 299.446 181.199 299.568C169.272 306.824 159.834 318.334 154.017 326.713C148.897 334.088 145.613 340.384 144.536 342.537L189.63 342.533C189.937 342.533 190.185 342.781 190.185 343.088C190.185 343.396 189.937 343.643 189.63 343.643L143.646 343.647L143.643 343.642Z" fill="#585858"/>
<path d="M131.51 333.483C131.438 333.483 131.364 333.468 131.294 333.438C120.879 329.024 110.532 321.994 100.545 312.541C92.5664 304.991 84.7936 295.886 77.4462 285.48C64.9405 267.77 57.8966 252.205 57.8281 252.05C57.7023 251.77 57.8281 251.441 58.1075 251.317C58.3869 251.191 58.7163 251.317 58.8421 251.596C58.9105 251.75 65.9192 267.234 78.3677 284.86C85.6724 295.202 93.3953 304.247 101.32 311.746C110.671 320.593 120.327 327.294 130.052 331.685C125.417 323.781 121.558 307.167 118.568 282.229C116.187 262.37 115.276 244.355 115.267 244.176C115.252 243.87 115.487 243.609 115.794 243.595C116.098 243.578 116.361 243.815 116.375 244.122C116.385 244.301 117.293 262.283 119.671 282.103C121.859 300.347 125.769 323.92 131.967 332.608C132.112 332.809 132.104 333.083 131.949 333.277C131.841 333.413 131.681 333.485 131.516 333.485L131.51 333.483Z" fill="#585858"/>
<path d="M103.468 293.503C103.255 293.503 103.054 293.381 102.961 293.175C96.2836 278.293 96.1707 264.752 97.2513 256.014C98.4225 246.534 101.137 240.663 101.251 240.417C101.381 240.14 101.712 240.02 101.99 240.151C102.267 240.28 102.388 240.612 102.258 240.889C102.23 240.948 99.4938 246.88 98.3485 256.197C97.292 264.785 97.4122 278.093 103.975 292.722C104.101 293.002 103.975 293.331 103.696 293.455C103.622 293.488 103.544 293.503 103.468 293.503Z" fill="#585858"/>
<path d="M88.6442 299.641C88.4517 299.641 88.2667 299.542 88.1631 299.364C88.102 299.258 82.0036 288.679 77.2633 275.198C74.475 267.268 72.6951 259.893 71.9679 253.281C71.0558 244.972 71.8181 237.84 74.2289 232.082C74.3473 231.799 74.673 231.666 74.9561 231.784C75.2392 231.903 75.3724 232.228 75.254 232.512C72.9153 238.091 72.1807 245.037 73.0707 253.152C73.7867 259.677 75.5463 266.966 78.305 274.813C83.0102 288.202 89.0623 298.703 89.1234 298.809C89.2769 299.073 89.1863 299.414 88.9217 299.567C88.8347 299.619 88.7385 299.643 88.6442 299.643V299.641Z" fill="#585858"/>
<path d="M122.672 306.285C122.655 306.285 122.638 306.285 122.622 306.283C122.317 306.255 122.091 305.985 122.119 305.68C122.124 305.624 122.631 300.105 123.976 293.974C125.799 285.665 128.215 280.239 131.161 277.846C131.399 277.652 131.749 277.689 131.941 277.928C132.134 278.166 132.099 278.514 131.86 278.709C125.258 284.072 123.243 305.565 123.225 305.781C123.199 306.07 122.957 306.286 122.674 306.286L122.672 306.285Z" fill="#585858"/>
<path d="M94.9223 343.642C74.3051 343.642 31.4202 328.688 30.9909 328.536C30.8485 328.486 30.7319 328.381 30.669 328.242C30.6061 328.103 30.6024 327.946 30.6597 327.805C30.7282 327.633 32.4101 323.545 38.0274 319.559C41.3023 317.236 45.247 315.428 49.7524 314.188C55.3605 312.644 61.8622 311.978 69.0782 312.209C69.3853 312.218 69.6258 312.475 69.6147 312.78C69.6036 313.086 69.3464 313.321 69.043 313.317C60.1803 313.036 47.7153 314.044 38.6694 320.464C34.4712 323.443 32.5747 326.494 31.9457 327.691C37.1707 329.485 75.8038 342.53 94.9242 342.53C95.2313 342.53 95.4792 342.778 95.4792 343.086C95.4792 343.393 95.2313 343.641 94.9242 343.641L94.9223 343.642Z" fill="#585858"/>
<path d="M94.9221 335.718C94.8425 335.718 94.7611 335.701 94.6852 335.664C83.4284 330.328 73.0985 326.628 63.9842 324.665C56.7072 323.098 50.1869 322.63 44.6066 323.276C35.1482 324.367 31.6309 328.334 31.5957 328.375C31.3959 328.606 31.0462 328.634 30.8131 328.434C30.5799 328.234 30.5522 327.886 30.7502 327.653C30.789 327.609 31.7141 326.536 33.8641 325.329C35.8143 324.234 39.2095 322.802 44.3198 322.192C50.0223 321.511 56.672 321.968 64.0823 323.551C73.3131 325.526 83.7688 329.263 95.1589 334.661C95.4365 334.793 95.5549 335.124 95.4235 335.401C95.3291 335.601 95.1293 335.72 94.9221 335.72V335.718Z" fill="#585858"/>
<path d="M329.531 311.944C329.518 311.944 329.503 311.944 329.49 311.943C329.286 311.92 329.14 311.737 329.162 311.534L352.524 98.5862C352.546 98.3827 352.729 98.2384 352.932 98.2587C353.136 98.2809 353.282 98.4641 353.26 98.6676L329.899 311.615C329.878 311.804 329.717 311.944 329.531 311.944Z" fill="#585858"/>
<path d="M302.236 343.088H206.575C199.557 343.088 194.565 337.099 195.427 329.706L220.705 110.094C221.567 102.512 227.956 95.6871 234.974 94.8546L330.635 83.5059C337.653 82.6734 342.645 88.5031 341.783 96.5197L316.505 328.917C315.643 336.747 309.254 343.089 302.236 343.089V343.088Z" fill="#1B1B1B"/>
<path d="M302.236 343.457H206.575C203.213 343.457 200.169 342.118 198.004 339.689C195.658 337.054 194.613 333.493 195.059 329.663L220.337 110.051C221.216 102.32 227.762 95.3373 234.929 94.4862L330.591 83.1376C333.786 82.7583 336.73 83.7204 338.88 85.8443C341.42 88.3568 342.614 92.2624 342.151 96.5584L316.873 328.956C315.992 336.952 309.426 343.457 302.236 343.457ZM331.938 83.7962C331.523 83.7962 331.103 83.8203 330.678 83.8721L235.016 95.2207C228.171 96.033 221.913 102.723 221.071 110.135L195.793 329.746C195.371 333.365 196.352 336.719 198.556 339.195C200.576 341.465 203.424 342.716 206.573 342.716H302.234C309.059 342.716 315.295 336.507 316.135 328.873L341.413 96.4751C341.849 92.4049 340.736 88.7213 338.356 86.3679C336.656 84.6861 334.41 83.7944 331.936 83.7944L331.938 83.7962Z" fill="#585858"/>
<path d="M226.531 172.407L226.531 172.407C225.302 172.507 224.274 172.064 223.587 171.284C222.896 170.501 222.522 169.346 222.677 167.985L222.677 167.984L224.975 147.801C224.975 147.801 224.975 147.801 224.975 147.801C225.291 145.036 227.631 142.619 230.128 142.378L323.567 133.373L323.567 133.373C324.788 133.255 325.811 133.705 326.499 134.519C327.193 135.338 327.571 136.557 327.414 138.002L327.414 138.002L325.116 159.176C325.116 159.176 325.116 159.176 325.116 159.177C324.799 162.091 322.449 164.569 319.97 164.771L319.55 164.806V164.809L226.531 172.407Z" stroke="#585858" stroke-width="0.915789"/>
<path d="M258.706 154.635L258.561 154.648L235.851 156.666C235.851 156.666 235.851 156.666 235.851 156.666C235.007 156.741 234.31 156.44 233.845 155.913C233.376 155.382 233.115 154.588 233.223 153.635L233.224 153.634C233.443 151.692 235.084 150.011 236.809 149.852L236.809 149.852L259.519 147.752C260.36 147.675 261.056 147.976 261.522 148.511C261.991 149.049 262.254 149.858 262.145 150.829C261.929 152.749 260.372 154.402 258.706 154.635Z" stroke="#585858" stroke-width="0.915789"/>
<path d="M251.24 160.932L232.477 162.551L232.572 163.657L251.336 162.038L251.24 160.932Z" fill="#585858"/>
<path d="M316.494 143.726L315.575 144.35L319.13 149.586L320.049 148.963L316.494 143.726Z" fill="#585858"/>
<path d="M319.159 148.937L314.381 154.912L315.248 155.605L320.026 149.631L319.159 148.937Z" fill="#585858"/>
<path d="M273.782 149.771L273.782 149.772C273.565 151.727 271.947 153.399 270.261 153.549C269.435 153.623 268.752 153.323 268.294 152.796C267.833 152.263 267.574 151.466 267.681 150.51L267.681 150.509C267.898 148.562 269.515 146.886 271.204 146.73C272.028 146.653 272.711 146.951 273.168 147.478C273.63 148.011 273.889 148.811 273.782 149.771Z" stroke="#585858" stroke-width="0.915789"/>
<path d="M218.473 204.789L218.473 204.789L220.771 184.687C220.771 184.687 220.771 184.687 220.771 184.687C221.086 181.938 223.422 179.57 225.916 179.373L319.355 172.009L319.355 172.009C320.576 171.913 321.602 172.38 322.293 173.208C322.989 174.041 323.367 175.266 323.21 176.704L323.665 176.754L323.21 176.704L320.912 197.797C320.595 200.698 318.249 203.126 315.774 203.285L222.335 209.275C221.106 209.354 220.075 208.894 219.384 208.1C218.691 207.304 218.318 206.143 218.473 204.789Z" stroke="#585858" stroke-width="0.915789"/>
<path d="M231.655 193.728L231.655 193.728C230.811 193.788 230.111 193.476 229.643 192.938C229.172 192.397 228.911 191.598 229.019 190.649C229.24 188.718 230.875 187.072 232.597 186.944L232.597 186.944L255.307 185.242L255.307 185.242C256.148 185.179 256.847 185.492 257.316 186.037C257.788 186.586 258.05 187.399 257.941 188.364C257.72 190.328 256.081 191.986 254.365 192.109C254.365 192.109 254.365 192.109 254.365 192.109L231.655 193.728Z" stroke="#585858" stroke-width="0.915789"/>
<path d="M228.787 200.156L228.773 199.963L261.437 197.725L261.45 197.918L228.787 200.156Z" stroke="#585858" stroke-width="0.915789"/>
<path d="M315.05 187.477L312.006 182.949L312.167 182.84L315.211 187.368L315.05 187.477Z" stroke="#585858" stroke-width="0.915789"/>
<path d="M310.965 193.38L310.814 193.258L315.014 188.088L315.165 188.21L310.965 193.38Z" stroke="#585858" stroke-width="0.915789"/>
<path d="M269.578 187.515L269.577 187.515C269.361 189.458 267.748 191.096 266.064 191.216C265.239 191.275 264.553 190.965 264.092 190.426C263.628 189.884 263.37 189.081 263.477 188.129L263.477 188.129C263.693 186.192 265.306 184.553 266.991 184.428C267.816 184.366 268.502 184.675 268.962 185.213C269.426 185.756 269.685 186.56 269.578 187.515Z" stroke="#585858" stroke-width="0.915789"/>
<path d="M214.277 241.383L216.575 221.362C216.575 221.362 216.575 221.362 216.575 221.362C216.889 218.627 219.221 216.309 221.712 216.158L221.712 216.158L315.151 210.433L315.151 210.433C316.371 210.358 317.401 210.843 318.095 211.684C318.793 212.53 319.17 213.761 319.014 215.192L319.014 215.192L316.716 236.205C316.404 239.043 314.134 241.389 311.708 241.576L311.586 241.581L218.147 245.935C215.731 246.048 213.968 244.065 214.277 241.383L214.277 241.383Z" stroke="#585858" stroke-width="0.915789"/>
<path d="M250.28 229.354L250.177 229.36L227.467 230.581C226.623 230.626 225.919 230.303 225.448 229.755C224.975 229.204 224.715 228.4 224.823 227.457L224.823 227.456C225.041 225.539 226.674 223.929 228.393 223.83L228.393 223.83L251.103 222.526C251.103 222.526 251.103 222.526 251.103 222.526C251.944 222.478 252.646 222.803 253.117 223.358C253.592 223.917 253.853 224.734 253.745 225.696C253.528 227.608 251.955 229.204 250.28 229.354Z" stroke="#585858" stroke-width="0.915789"/>
<path d="M224.586 236.949L224.576 236.755L247.981 235.557L247.991 235.751L224.586 236.949Z" stroke="#585858" stroke-width="0.915789"/>
<path d="M310.857 225.819L307.81 221.242L307.971 221.134L311.019 225.711L310.857 225.819Z" stroke="#585858" stroke-width="0.915789"/>
<path d="M306.789 231.66L306.639 231.536L310.833 226.458L310.983 226.581L306.789 231.66Z" stroke="#585858" stroke-width="0.915789"/>
<path d="M259.281 225.539L259.281 225.539C259.496 223.614 261.105 222.01 262.787 221.914C263.612 221.866 264.301 222.187 264.764 222.735C265.231 223.287 265.488 224.096 265.381 225.046L265.378 225.072V225.073C265.152 226.995 263.549 228.582 261.876 228.672C261.051 228.716 260.361 228.394 259.898 227.845C259.431 227.293 259.174 226.486 259.281 225.539Z" stroke="#585858" stroke-width="0.915789"/>
<path d="M264.309 102.118C263.826 102.118 263.388 101.942 263.057 101.611C262.635 101.189 262.435 100.554 262.513 99.8699C262.659 98.5637 263.712 97.4314 264.912 97.2926C265.486 97.2279 266.013 97.3999 266.398 97.7829C266.822 98.2048 267.02 98.8412 266.944 99.5276C266.798 100.836 265.743 101.968 264.542 102.105C264.463 102.114 264.385 102.118 264.309 102.118ZM265.151 98.0197C265.101 98.0197 265.049 98.0234 264.997 98.029C264.154 98.1271 263.353 99.0077 263.247 99.9531C263.195 100.414 263.317 100.828 263.578 101.089C263.802 101.313 264.107 101.411 264.459 101.37C265.301 101.274 266.102 100.393 266.209 99.448C266.261 98.9855 266.139 98.5711 265.876 98.3102C265.686 98.1196 265.436 98.0216 265.151 98.0216V98.0197Z" fill="#585858"/>
<path d="M291.456 96.2802L272.173 98.4873L272.257 99.2226L291.54 97.0154L291.456 96.2802Z" fill="#585858"/>
<path d="M233.527 129.537C232.274 129.537 231.144 129.083 230.3 128.23C229.244 127.163 228.751 125.555 228.948 123.821C229.331 120.445 232.187 117.422 235.316 117.085C236.781 116.926 238.117 117.374 239.081 118.341C240.145 119.409 240.641 121.026 240.443 122.774C240.06 126.167 237.201 129.189 234.071 129.509C233.886 129.527 233.705 129.537 233.523 129.537H233.527ZM235.886 117.794C235.725 117.794 235.562 117.803 235.397 117.82C232.593 118.121 230.03 120.852 229.684 123.905C229.512 125.416 229.93 126.802 230.827 127.71C231.63 128.523 232.757 128.898 233.999 128.772C236.802 128.486 239.364 125.759 239.71 122.691C239.882 121.167 239.462 119.772 238.56 118.863C237.866 118.166 236.929 117.794 235.888 117.794H235.886Z" fill="#585858"/>
<path d="M234.458 124.476C234.036 124.476 233.653 124.323 233.366 124.032C233.011 123.673 232.844 123.141 232.909 122.571C233.033 121.483 233.925 120.545 234.941 120.438C235.437 120.386 235.89 120.539 236.219 120.871C236.575 121.229 236.743 121.762 236.678 122.334C236.554 123.424 235.662 124.36 234.647 124.467C234.584 124.475 234.523 124.476 234.46 124.476H234.458ZM235.128 121.167C235.091 121.167 235.056 121.168 235.017 121.172C234.354 121.242 233.725 121.92 233.644 122.652C233.605 122.998 233.696 123.311 233.892 123.511C234.062 123.683 234.295 123.759 234.567 123.731C235.229 123.662 235.857 122.983 235.94 122.251C235.979 121.903 235.888 121.59 235.692 121.392C235.546 121.244 235.352 121.168 235.128 121.168V121.167Z" fill="#585858"/>
<path d="M233.828 128.036C232.924 128.036 232.095 127.724 231.462 127.135L231.218 126.909L231.416 126.643C232.2 125.59 233.305 124.917 234.446 124.798C235.616 124.676 236.663 125.174 237.25 126.131L237.407 126.388L237.187 126.595C236.324 127.405 235.279 127.909 234.241 128.016C234.102 128.031 233.964 128.038 233.827 128.038L233.828 128.036ZM232.234 126.81C232.77 127.187 233.445 127.352 234.169 127.278C234.953 127.196 235.751 126.841 236.443 126.266C235.99 125.716 235.307 125.452 234.526 125.533C233.704 125.618 232.868 126.088 232.235 126.808L232.234 126.81Z" fill="#585858"/>
<path d="M256.303 119.555L245.009 120.748L245.087 121.484L256.38 120.291L256.303 119.555Z" fill="#585858"/>
<path d="M265.579 122.201L244.598 124.384L244.674 125.12L265.656 122.937L265.579 122.201Z" fill="#585858"/>
<path d="M320.017 121.324C319.957 121.324 319.898 121.309 319.843 121.281C319.71 121.211 319.632 121.065 319.648 120.915L319.906 118.55H319.889C318.868 118.55 317.939 118.175 317.239 117.472C316.318 116.545 315.885 115.131 316.052 113.596C316.368 110.686 318.74 108.09 321.338 107.811L326.764 107.226C327.952 107.098 329.048 107.468 329.847 108.267C330.776 109.196 331.212 110.621 331.046 112.171C330.73 115.098 328.358 117.699 325.758 117.968L323.898 118.16L320.255 121.239C320.187 121.296 320.102 121.326 320.017 121.326V121.324ZM320.32 117.786C320.418 117.786 320.513 117.825 320.583 117.896C320.662 117.975 320.701 118.086 320.688 118.197L320.485 120.075L323.508 117.52C323.565 117.472 323.636 117.442 323.71 117.435L325.682 117.231C327.952 116.996 330.028 114.691 330.31 112.092C330.454 110.763 330.093 109.561 329.323 108.789C328.685 108.151 327.804 107.857 326.844 107.96L321.417 108.545C319.145 108.789 317.069 111.091 316.788 113.675C316.646 114.987 317.001 116.18 317.765 116.948C318.405 117.592 319.29 117.89 320.255 117.79L320.283 117.786C320.296 117.786 320.309 117.785 320.322 117.785L320.32 117.786Z" fill="#585858"/>
<path d="M268.647 309.224C266.658 309.224 264.848 308.434 263.538 306.991C262.051 305.354 261.357 303.012 261.633 300.562L265.688 264.501C266.225 259.717 270.238 255.68 274.632 255.501L307.661 254.152C309.661 254.069 311.5 254.812 312.836 256.241C314.372 257.885 315.092 260.294 314.812 262.847L310.756 299.72C310.22 304.592 306.201 308.614 301.798 308.686L268.769 309.221L268.76 308.666L268.769 309.221C268.728 309.221 268.688 309.221 268.647 309.221V309.224ZM307.957 255.258C307.874 255.258 307.791 255.258 307.707 255.264L274.679 256.612C270.808 256.77 267.27 260.366 266.791 264.629L262.735 300.69C262.495 302.821 263.087 304.847 264.36 306.248C265.479 307.48 267.033 308.146 268.75 308.116L301.779 307.582C305.642 307.519 309.175 303.94 309.652 299.606L313.708 262.733C313.952 260.501 313.339 258.413 312.024 257.005C310.969 255.874 309.532 255.262 307.957 255.262V255.258Z" fill="#585858"/>
<path d="M214.746 310.098C212.723 310.098 210.893 309.302 209.578 307.852C208.135 306.259 207.463 303.996 207.735 301.643L211.791 266.496C212.329 261.828 216.341 257.884 220.735 257.704L253.764 256.355C255.795 256.268 257.658 257.02 259 258.457C260.493 260.059 261.19 262.389 260.913 264.846L256.857 300.807C256.319 305.563 252.3 309.491 247.898 309.563L214.87 310.098C214.827 310.098 214.786 310.098 214.744 310.098H214.746ZM254.069 257.458C253.984 257.458 253.897 257.458 253.81 257.464L220.781 258.812C216.91 258.97 213.371 262.474 212.894 266.622L208.838 301.769C208.599 303.833 209.154 305.73 210.401 307.104C211.526 308.346 213.104 309.017 214.853 308.984L247.882 308.449C251.745 308.386 255.277 304.901 255.754 300.679L259.81 264.718C260.051 262.583 259.459 260.576 258.187 259.21C257.127 258.072 255.673 257.454 254.067 257.454L254.069 257.458Z" fill="#585858"/>
<path d="M306.708 336.393L305.605 336.271L306.599 327.293C306.843 325.082 306.232 322.985 304.924 321.54C303.823 320.325 302.308 319.659 300.65 319.659C300.628 319.659 300.604 319.659 300.582 319.659L209.267 320.675L209.254 319.565L300.569 318.549C300.597 318.549 300.624 318.549 300.65 318.549C302.624 318.549 304.432 319.344 305.746 320.795C307.269 322.475 307.981 324.887 307.702 327.415L306.708 336.393Z" fill="#C7C7C7"/>
<path d="M178.768 336.912H165.047C164.843 336.912 164.677 336.745 164.677 336.542C164.677 336.338 164.843 336.172 165.047 336.172H178.768C178.972 336.172 179.138 336.338 179.138 336.542C179.138 336.745 178.972 336.912 178.768 336.912Z" fill="white"/>
<path d="M168.436 332.953H160.177C159.973 332.953 159.807 332.786 159.807 332.583C159.807 332.379 159.973 332.213 160.177 332.213H168.436C168.64 332.213 168.806 332.379 168.806 332.583C168.806 332.786 168.64 332.953 168.436 332.953Z" fill="white"/>
<path d="M254.466 266.089H240.745C240.542 266.089 240.375 265.922 240.375 265.719C240.375 265.515 240.542 265.349 240.745 265.349H254.466C254.67 265.349 254.836 265.515 254.836 265.719C254.836 265.922 254.67 266.089 254.466 266.089Z" fill="#585858"/>
<path d="M244.136 262.13H235.877C235.673 262.13 235.507 261.963 235.507 261.76C235.507 261.556 235.673 261.39 235.877 261.39H244.136C244.34 261.39 244.506 261.556 244.506 261.76C244.506 261.963 244.34 262.13 244.136 262.13Z" fill="#585858"/>
<path d="M206.577 343.458H67.8661C67.6626 343.458 67.4961 343.291 67.4961 343.088C67.4961 342.884 67.6626 342.718 67.8661 342.718H206.575C206.779 342.718 206.945 342.884 206.945 343.088C206.945 343.291 206.779 343.458 206.575 343.458H206.577Z" fill="white"/>
<path d="M152.906 331.755C151.953 325.631 156.246 310.205 159.939 301.953C157.628 299.731 136.977 310.851 137.12 313.902C136.927 316.412 134.598 329.975 121.881 331.557C121.881 331.557 112.909 338.068 125.254 338.704C132.28 339.067 152.904 331.755 152.904 331.755H152.906Z" fill="#FDB78F"/>
<path d="M116.275 341.991H153.581C154.718 339.084 154.301 334.858 153.633 331.809C150.399 328.464 136.221 338.076 125.7 335.23C120.954 333.946 121.883 331.558 121.883 331.558C116.284 333.145 109.216 334.912 109.255 337.086C109.116 337.389 109.363 337.992 109.842 338.681C111.3 340.777 113.724 341.992 116.277 341.992L116.275 341.991Z" fill="white"/>
<path d="M153.581 342.546H116.275C113.505 342.546 110.929 341.22 109.384 338.998C108.783 338.134 108.559 337.473 108.702 336.985C108.811 334.805 113.353 333.369 120.229 331.445C120.737 331.303 121.241 331.162 121.731 331.023C121.933 330.966 122.151 331.029 122.294 331.184C122.436 331.34 122.477 331.562 122.401 331.76C122.399 331.767 122.257 332.195 122.547 332.742C122.847 333.308 123.663 334.106 125.844 334.696C131.399 336.198 138.143 334.087 143.56 332.391C148.45 330.861 152.314 329.651 154.031 331.427C154.103 331.501 154.151 331.593 154.173 331.693C154.608 333.678 155.474 338.674 154.097 342.195C154.014 342.407 153.809 342.548 153.581 342.548V342.546ZM109.769 337.288C109.769 337.384 109.856 337.732 110.295 338.363C111.632 340.287 113.868 341.436 116.275 341.436H153.193C154.24 338.309 153.535 334.01 153.126 332.097C151.786 330.977 148.119 332.124 143.891 333.449C139.695 334.763 134.723 336.319 130.015 336.319C128.488 336.319 126.989 336.156 125.554 335.767C123.461 335.201 122.11 334.341 121.539 333.212C121.372 332.885 121.294 332.576 121.267 332.309C121.022 332.378 120.774 332.448 120.527 332.517C117.871 333.26 115.124 334.028 113.026 334.861C110.106 336.019 109.803 336.796 109.808 337.075C109.808 337.149 109.797 337.221 109.769 337.29V337.288Z" fill="#9961EC"/>
<path d="M238.731 291.41C236.442 288.987 225.204 282.837 225.204 282.837C225.844 279.699 229.519 268.813 234.083 267.697C242.789 275.033 247.84 274.456 248.319 274.496C261.284 273.925 259.413 306.898 253.703 308.235C249.914 309.123 246.791 299.941 238.733 291.41H238.731Z" fill="#FDB78F"/>
<path d="M255.082 299.517C256.536 289.843 248.486 275.427 248.317 274.498C248.286 272.964 253.92 273.595 256.464 276.126C260.316 279.958 256.027 282.924 261.027 291.499C265.612 299.364 263.456 308.657 259.156 313.181C255.848 316.661 253.692 315.946 249.91 309.125C249.15 307.754 248.397 306.311 247.649 304.861C247.446 304.465 253.626 309.192 255.08 299.517H255.082Z" fill="white"/>
<path d="M255.73 315.78C255.6 315.78 255.47 315.772 255.341 315.756C253.518 315.523 251.805 313.68 249.428 309.393C248.65 307.991 247.879 306.509 247.159 305.114C247.043 304.888 247.08 304.629 247.252 304.451C247.546 304.15 247.879 304.309 248.173 304.451C248.802 304.755 250.477 305.558 251.916 304.797C253.222 304.105 254.105 302.302 254.534 299.436C255.709 291.617 250.495 280.531 248.534 276.357C247.988 275.197 247.814 274.82 247.773 274.598C247.768 274.568 247.766 274.539 247.764 274.511C247.753 274.013 248.058 273.593 248.601 273.362C250.221 272.668 254.566 273.454 256.856 275.734C258.821 277.689 258.842 279.502 258.866 281.602C258.892 283.913 258.925 286.79 261.508 291.221C264.268 295.956 264.374 300.603 263.976 303.665C263.473 307.534 261.865 311.141 259.561 313.563C258.116 315.082 256.917 315.782 255.73 315.782V315.78ZM248.83 305.926C249.341 306.905 249.868 307.9 250.397 308.855C252.523 312.688 254.09 314.477 255.48 314.653C256.409 314.771 257.421 314.198 258.755 312.795C263.034 308.292 264.875 299.199 260.548 291.776C257.817 287.092 257.781 284.054 257.756 281.612C257.733 279.604 257.717 278.154 256.074 276.518C254.34 274.794 251.082 274.041 249.507 274.261C249.089 274.32 248.935 274.424 248.889 274.466C248.976 274.688 249.25 275.269 249.537 275.882C251.539 280.139 256.856 291.447 255.631 299.599C255.145 302.833 254.07 304.91 252.434 305.776C251.143 306.459 249.805 306.25 248.83 305.926Z" fill="#9961EC"/>
<path d="M223.745 147.925C223.465 147.035 223.066 146.186 222.605 145.376C222.137 144.569 221.587 143.812 220.988 143.1C219.78 141.683 218.34 140.484 216.79 139.489C215.237 138.493 213.565 137.7 211.822 137.152C210.375 136.562 208.75 136.244 207.063 136.046C208.258 136.084 209.442 136.157 210.604 136.338C211.43 136.458 212.242 136.647 213.034 136.899C213.829 137.141 214.597 137.468 215.348 137.837C216.096 138.212 216.821 138.639 217.522 139.113C218.224 139.587 218.895 140.11 219.572 140.639C219.021 139.983 218.412 139.37 217.763 138.799C217.104 138.24 216.401 137.724 215.648 137.281C214.901 136.83 214.098 136.469 213.274 136.171C212.447 135.881 211.59 135.679 210.728 135.537C208.998 135.263 207.255 135.293 205.551 135.374C203.842 135.455 202.154 135.579 200.437 135.548C195.258 135.108 190.929 133.929 190.99 127.396C191.014 124.788 191.069 124.062 191.132 125.363C191.173 126.73 191.551 128.116 192.246 129.306L192.378 129.528L192.518 129.744C192.609 129.89 192.714 130.027 192.816 130.164C193.029 130.434 193.251 130.697 193.493 130.937C193.732 131.183 193.985 131.411 194.25 131.626C194.516 131.838 194.798 132.029 195.083 132.212C196.233 132.924 197.551 133.378 198.877 133.42C197.579 133.159 196.38 132.588 195.345 131.824C195.09 131.628 194.84 131.426 194.609 131.206C194.374 130.989 194.148 130.762 193.941 130.521C193.523 130.042 193.166 129.513 192.868 128.958C192.568 128.403 192.352 127.807 192.196 127.198C192.037 126.588 191.961 125.968 191.937 125.326C191.911 124.653 191.858 123.979 191.774 123.308C191.839 123.613 191.902 123.918 191.961 124.223L192.189 125.394C192.28 125.794 192.381 126.192 192.518 126.58C192.651 126.969 192.807 127.352 192.992 127.722C193.173 128.092 193.38 128.451 193.619 128.789C194.555 130.157 195.889 131.217 197.357 131.909C198.826 132.612 200.411 132.991 201.995 133.172C202.789 133.257 203.586 133.3 204.382 133.287C205.178 133.278 205.971 133.224 206.754 133.104C206.358 133.126 205.964 133.126 205.568 133.117C205.174 133.109 204.78 133.095 204.387 133.067C203.603 133.011 202.82 132.924 202.051 132.786C200.509 132.517 199.001 132.062 197.636 131.352C196.28 130.634 195.072 129.639 194.25 128.366C193.837 127.733 193.503 127.05 193.268 126.329C193.144 125.97 193.053 125.6 192.972 125.23L192.755 124.072C192.453 122.505 192.154 120.91 191.512 119.437C188.561 112.684 183.417 111.073 181.006 111.256C181.006 111.256 171.664 131.633 181.15 146.099C191.68 162.155 214.577 167.02 220.146 156.81C223.365 150.906 221.806 145.143 217.855 141.137C218.758 141.905 219.604 142.73 220.37 143.624C220.953 144.295 221.478 145.013 221.946 145.766C222.422 146.515 222.814 147.313 223.149 148.136C223.809 149.786 224.133 151.574 224.144 153.4C224.47 151.601 224.322 149.694 223.743 147.923L223.745 147.925Z" fill="#9961EC"/>
<path d="M143.686 186.826C141.068 188.563 144.327 194.112 149.757 196.718C155.188 199.325 187.073 203.991 203.825 201.492C213.498 200.295 168.163 179.823 159.721 181.479C151.278 183.135 143.686 186.828 143.686 186.828V186.826Z" fill="#BD5253"/>
<path d="M134.934 316.46C134.118 316.293 133.576 315.513 133.71 314.691C137.151 293.237 137.773 267.209 136.424 251.5C133.465 217.038 151.748 182.805 152.724 181.477C189.972 181.477 193.855 197.188 193.855 197.188C192.014 202.448 176.219 230.786 168.378 247.602C166.35 251.95 165.326 256.699 165.4 261.498C165.75 284.262 161.558 309.451 160.699 314.352C160.607 314.883 160.244 315.331 159.742 315.531C148.343 320.062 142.376 317.981 134.936 316.46H134.934Z" fill="#CAACF9"/>
<path d="M138.644 260.971C138.428 260.971 138.221 260.844 138.132 260.629C136.876 257.619 136.135 254.648 135.871 251.547C134.324 233.517 138.661 215.679 142.572 203.888C146.771 191.233 151.611 182.056 152.279 181.148C152.46 180.902 152.808 180.848 153.054 181.029C153.3 181.211 153.354 181.559 153.172 181.805C152.799 182.312 148.02 190.99 143.625 204.235C139.747 215.928 135.445 233.61 136.975 251.451C137.231 254.435 137.945 257.297 139.155 260.2C139.273 260.483 139.14 260.809 138.857 260.925C138.787 260.955 138.715 260.968 138.644 260.968V260.971Z" fill="#9961EC"/>
<path d="M158.466 181.383C159.097 205.133 164.446 254.439 177.632 263.88C187.478 270.929 210.929 282.314 223.842 288.986C233.922 294.194 239.184 270.949 236.033 268.344C232.884 265.739 213.405 244.764 198.416 244.548C211.177 209.188 192.316 191.24 179.834 184.128C172.913 180.184 165.721 178.676 158.466 181.385V181.383Z" fill="#CAACF9"/>
<path d="M162.574 224.206C162.307 224.206 162.072 224.013 162.026 223.741C161.192 218.744 160.452 213.401 159.83 207.864C159.795 207.558 160.015 207.285 160.32 207.249C160.624 207.216 160.899 207.434 160.934 207.74C161.554 213.257 162.291 218.58 163.123 223.558C163.173 223.86 162.97 224.147 162.668 224.197C162.637 224.202 162.607 224.204 162.576 224.204L162.574 224.206Z" fill="#9961EC"/>
<path d="M186.383 199.335C183.943 199.335 180.388 198.623 177.278 196.597C173.208 193.944 170.885 189.649 170.564 184.18C170.545 183.875 170.778 183.613 171.085 183.594C171.391 183.574 171.653 183.809 171.672 184.116C171.977 189.292 174.066 193.178 177.883 195.666C180.947 197.664 184.468 198.295 186.74 198.219C187.049 198.21 187.303 198.449 187.314 198.756C187.325 199.063 187.084 199.318 186.777 199.329C186.65 199.333 186.516 199.337 186.381 199.337L186.383 199.335Z" fill="#5C63C6"/>
<path d="M230.095 271.008C229.952 271.008 229.812 270.955 229.703 270.845C228.748 269.894 227.784 268.96 226.837 268.07C226.613 267.861 226.602 267.51 226.813 267.286C227.022 267.062 227.373 267.051 227.597 267.262C228.554 268.159 229.525 269.101 230.487 270.061C230.704 270.277 230.704 270.629 230.487 270.845C230.378 270.955 230.237 271.008 230.095 271.008ZM224.25 265.526C224.12 265.526 223.989 265.48 223.884 265.389C222.868 264.498 221.843 263.634 220.838 262.818C220.599 262.625 220.564 262.276 220.757 262.037C220.949 261.798 221.299 261.763 221.537 261.956C222.553 262.779 223.588 263.654 224.614 264.555C224.846 264.757 224.868 265.108 224.666 265.338C224.557 265.463 224.404 265.526 224.248 265.526H224.25ZM218.024 260.483C217.909 260.483 217.793 260.448 217.693 260.374C216.605 259.567 215.509 258.796 214.44 258.081C214.185 257.911 214.116 257.567 214.286 257.312C214.457 257.056 214.801 256.988 215.056 257.158C216.142 257.882 217.25 258.664 218.353 259.482C218.599 259.665 218.651 260.013 218.468 260.259C218.359 260.405 218.192 260.483 218.022 260.483H218.024ZM211.354 256.046C211.259 256.046 211.161 256.022 211.074 255.97C209.901 255.284 208.726 254.648 207.585 254.081C207.311 253.945 207.198 253.611 207.335 253.338C207.472 253.064 207.805 252.951 208.079 253.088C209.244 253.665 210.442 254.313 211.637 255.014C211.901 255.169 211.99 255.51 211.835 255.774C211.731 255.95 211.546 256.048 211.356 256.048L211.354 256.046ZM204.171 252.509C204.103 252.509 204.034 252.496 203.968 252.47C202.687 251.967 201.427 251.547 200.226 251.221C199.93 251.142 199.756 250.836 199.836 250.54C199.916 250.244 200.221 250.07 200.517 250.15C201.758 250.485 203.055 250.918 204.375 251.438C204.66 251.55 204.8 251.872 204.687 252.157C204.602 252.376 204.391 252.509 204.171 252.509ZM196.441 250.487C196.422 250.487 196.404 250.487 196.385 250.485C195.88 250.435 195.408 250.409 194.985 250.409C194.561 250.409 194.363 250.435 194.361 250.435C194.278 250.446 194.191 250.435 194.111 250.409C193.923 250.344 193.257 250.026 192.652 248.688C192.526 248.409 192.65 248.08 192.929 247.954C193.208 247.828 193.538 247.952 193.664 248.231C193.978 248.927 194.278 249.214 194.415 249.316C194.542 249.306 194.731 249.299 194.985 249.299C195.445 249.299 195.952 249.327 196.496 249.38C196.802 249.412 197.024 249.684 196.994 249.989C196.964 250.276 196.724 250.488 196.443 250.488L196.441 250.487ZM192.252 245.129C191.971 245.129 191.73 244.916 191.701 244.631C191.595 243.621 191.543 242.483 191.543 241.251C191.543 241.027 191.543 240.799 191.549 240.564C191.552 240.261 191.8 240.017 192.104 240.017H192.111C192.418 240.02 192.663 240.274 192.659 240.579C192.655 240.809 192.653 241.033 192.653 241.249C192.653 242.444 192.705 243.543 192.805 244.514C192.837 244.82 192.615 245.092 192.311 245.123C192.291 245.125 192.272 245.127 192.254 245.127L192.252 245.129ZM192.307 237.125C192.293 237.125 192.276 237.125 192.261 237.125C191.956 237.099 191.728 236.833 191.754 236.526C191.858 235.269 192 233.919 192.18 232.515C192.219 232.211 192.496 231.995 192.801 232.033C193.105 232.072 193.321 232.35 193.282 232.655C193.105 234.043 192.964 235.377 192.862 236.616C192.838 236.907 192.596 237.125 192.309 237.125H192.307ZM193.307 229.171C193.277 229.171 193.247 229.169 193.218 229.164C192.914 229.116 192.709 228.831 192.759 228.528C192.925 227.49 193.112 226.411 193.312 225.319C193.358 225.071 193.399 224.824 193.44 224.577C193.488 224.274 193.775 224.067 194.076 224.117C194.38 224.165 194.585 224.45 194.537 224.753C194.496 225.009 194.452 225.264 194.406 225.519C194.208 226.603 194.023 227.675 193.856 228.703C193.812 228.975 193.577 229.169 193.308 229.169L193.307 229.171ZM194.391 221.234C194.391 221.234 194.374 221.234 194.367 221.234C194.06 221.221 193.823 220.962 193.836 220.655C193.858 220.152 193.869 219.64 193.869 219.134C193.869 218.335 193.841 217.519 193.786 216.713C193.765 216.407 193.997 216.143 194.302 216.121C194.604 216.098 194.872 216.331 194.894 216.637C194.95 217.469 194.979 218.309 194.979 219.134C194.979 219.656 194.968 220.185 194.946 220.705C194.933 221.003 194.687 221.236 194.391 221.236V221.234ZM193.862 213.251C193.597 213.251 193.362 213.06 193.316 212.79C193.097 211.523 192.811 210.224 192.463 208.927C192.383 208.631 192.559 208.326 192.855 208.248C193.149 208.169 193.456 208.344 193.534 208.641C193.891 209.971 194.185 211.303 194.409 212.603C194.461 212.905 194.258 213.192 193.956 213.244C193.924 213.249 193.893 213.251 193.862 213.251ZM191.802 205.512C191.575 205.512 191.36 205.37 191.279 205.142C190.851 203.941 190.361 202.698 189.819 201.447C189.697 201.166 189.826 200.839 190.107 200.718C190.389 200.596 190.716 200.726 190.836 201.007C191.388 202.28 191.887 203.547 192.322 204.77C192.426 205.059 192.274 205.377 191.985 205.479C191.924 205.501 191.861 205.51 191.8 205.51L191.802 205.512ZM188.637 198.148C188.433 198.148 188.237 198.036 188.139 197.839C187.586 196.728 186.982 195.571 186.29 194.304C186.144 194.034 186.242 193.697 186.512 193.551C186.781 193.405 187.119 193.503 187.265 193.773C187.963 195.053 188.575 196.221 189.134 197.346C189.271 197.619 189.158 197.954 188.884 198.089C188.805 198.128 188.722 198.147 188.638 198.147L188.637 198.148ZM184.818 191.096C184.625 191.096 184.436 190.996 184.335 190.815L184.113 190.422C183.484 189.318 182.89 188.274 182.364 187.309C182.218 187.038 182.318 186.702 182.586 186.556C182.855 186.409 183.193 186.509 183.339 186.778C183.859 187.734 184.451 188.772 185.078 189.873L185.302 190.265C185.454 190.532 185.362 190.87 185.095 191.022C185.008 191.072 184.914 191.094 184.821 191.094L184.818 191.096Z" fill="#9961EC"/>
<path d="M157.545 205.558C157.409 205.558 157.276 205.51 157.169 205.412C152.593 201.209 153.598 193.031 154.482 185.816C154.814 183.118 155.126 180.572 155.073 178.6C155.065 178.293 155.306 178.04 155.613 178.03C155.918 178.027 156.173 178.263 156.183 178.571C156.236 180.624 155.92 183.213 155.583 185.951C154.73 192.9 153.764 200.778 157.918 204.596C158.144 204.803 158.159 205.155 157.952 205.381C157.842 205.499 157.693 205.56 157.543 205.56L157.545 205.558Z" fill="#9961EC"/>
<path d="M159.273 201.331C159 201.331 158.761 201.127 158.724 200.848C158.121 196.221 157.616 189.549 158.631 184.047C158.687 183.745 158.975 183.546 159.279 183.601C159.58 183.657 159.78 183.947 159.725 184.249C158.735 189.608 159.233 196.156 159.827 200.705C159.865 201.009 159.653 201.288 159.347 201.327C159.323 201.331 159.299 201.333 159.275 201.333L159.273 201.331Z" fill="#9961EC"/>
<path d="M103.442 112.58C102.617 108.336 100.772 107.968 99.2917 105.994C97.6024 103.739 94.0389 102.991 95.4969 105.463C97.8374 109.433 95.8262 112.58 95.8262 112.58H103.442Z" fill="#FDB78F"/>
<path d="M160.294 140.439C158.041 140.149 125.602 136.715 123.23 135.616C120.858 134.517 104.907 115.866 103.442 112.582C100.985 107.074 79.4757 105.996 79.607 109.322C79.6255 109.774 86.6694 112.863 90.962 114.704C92.8492 115.515 94.4071 114.713 96.8217 121.054C99.8968 129.126 107.005 147.882 116.086 152.136C123.826 155.76 123.824 155.992 155.624 165.401C155.624 165.401 166.265 141.211 160.296 140.443L160.294 140.439Z" fill="#FDB78F"/>
<path d="M168.578 139.21C160.966 137.631 150.434 137.443 135.161 136.952C134.857 136.943 134.596 137.173 134.57 137.476C133.577 149.063 133.679 158.244 133.719 160.299C133.725 160.556 133.897 160.775 134.145 160.839C136.72 161.509 150.466 165.032 153.883 164.741C171.386 155.461 168.576 139.208 168.576 139.208L168.578 139.21Z" fill="#FA6163"/>
<path d="M155.062 164.086C155.184 164.015 155.308 163.945 155.428 163.873C155.598 163.771 155.765 163.667 155.933 163.564C156.007 163.519 156.081 163.473 156.153 163.429C156.348 163.307 156.538 163.183 156.727 163.059C156.768 163.033 156.808 163.007 156.849 162.979C157.056 162.842 157.26 162.702 157.46 162.563C157.478 162.55 157.498 162.537 157.517 162.524C157.73 162.374 157.939 162.224 158.144 162.073C158.15 162.069 158.153 162.065 158.159 162.061C158.581 161.751 158.986 161.434 159.375 161.114C159.358 160.981 159.341 160.85 159.326 160.718C159.323 160.681 159.317 160.642 159.314 160.605C159.291 160.409 159.273 160.215 159.256 160.021C159.252 159.988 159.251 159.954 159.249 159.923C159.232 159.723 159.217 159.523 159.204 159.325V159.321C159.191 159.118 159.182 158.916 159.175 158.716C159.175 158.689 159.173 158.661 159.171 158.633C159.164 158.433 159.16 158.235 159.156 158.039C159.156 158.025 159.156 158.012 159.156 157.997C159.153 157.582 159.156 157.173 159.173 156.77V156.748C159.245 154.876 159.517 153.111 159.939 151.457L156.766 146.94C152.778 148.633 146.639 155.538 143.912 163.199C148.029 164.108 152.205 164.885 153.883 164.742C154.151 164.6 154.414 164.456 154.673 164.311C154.804 164.237 154.932 164.161 155.064 164.086H155.062Z" fill="#2E2E2E" fill-opacity="0.3"/>
<path d="M93.5482 140.628C90.3455 135.693 86.1343 131.055 81.0332 126.844L81.505 126.274C86.6653 130.533 90.9264 135.227 94.1699 140.226L93.5482 140.63V140.628Z" fill="white"/>
<path d="M99.1715 142.64C97.3749 139.127 95.0843 135.674 92.3682 132.379L92.9399 131.909C95.6912 135.245 98.0095 138.742 99.832 142.303L99.1733 142.64H99.1715Z" fill="white"/>
<path d="M143.687 186.826C151.326 177.562 147.637 172.276 147.097 166.189C146.432 158.683 152.101 151.634 156.418 144.757C159.93 139.163 170.267 138.733 175.792 139.187C182.399 139.729 202.772 139.906 223.497 163.035C220.781 168.071 213.496 173.194 206.708 178.583C206.645 178.123 195.449 168.541 195.449 168.541C195.449 168.541 203.725 192.816 205.834 197.192C207.599 200.857 205.325 202.755 203.825 201.493C195.323 194.346 155.789 180.792 143.687 186.827V186.826Z" fill="#FA6163"/>
<path d="M197.706 164.757C191.461 165.396 171.906 182.735 171.906 182.735L205.17 167.841C205.17 167.841 203.951 164.119 197.706 164.757Z" fill="#2E2E2E"/>
<path d="M177.113 166.7C178.12 166.321 179.156 166.008 180.196 165.771C184.1 164.879 190.777 165.392 192.648 165.797C197.14 166.772 201.481 169.153 205.548 172.872C209.233 176.241 212.653 180.728 215.435 185.843C219.907 194.089 221.484 202.896 219.994 211.306C218.496 219.767 213.987 227.255 206.958 232.958C204.425 235.068 201.675 236.69 198.781 237.78C192.418 240.176 185.674 239.965 179.278 237.171C172.734 234.313 167.153 228.984 163.142 221.762C158.165 212.829 156.342 202.441 158.013 192.509C159.686 182.559 164.665 174.321 172.032 169.312C173.657 168.237 175.368 167.359 177.117 166.7H177.113Z" fill="#0A3F8E"/>
<path d="M184.467 189.99L184.507 189.444L159.155 187.57C159.102 187.75 159.048 187.927 158.998 188.109L184.468 189.99H184.467Z" fill="#7DA9EB"/>
<path d="M160.039 184.942L184.59 186.757L184.631 186.211L160.244 184.409C160.174 184.587 160.108 184.764 160.039 184.944V184.942Z" fill="#7DA9EB"/>
<path d="M184.342 193.229L184.383 192.683L158.345 190.759C158.306 190.938 158.271 191.12 158.235 191.301L184.344 193.231L184.342 193.229Z" fill="#7DA9EB"/>
<path d="M157.723 194.507L184.216 196.464L184.257 195.918L157.793 193.963C157.769 194.144 157.745 194.326 157.723 194.507Z" fill="#7DA9EB"/>
<path d="M184.716 183.519L184.757 182.973L161.66 181.268C161.571 181.443 161.484 181.621 161.397 181.799L184.716 183.521V183.519Z" fill="#7DA9EB"/>
<path d="M185.088 173.81L185.128 173.264L168.591 172.043C168.408 172.211 168.228 172.38 168.049 172.552L185.088 173.81Z" fill="#7DA9EB"/>
<path d="M177.113 166.7C177.091 166.709 177.069 166.718 177.047 166.726L185.338 167.338L185.379 166.792L178.359 166.274C177.941 166.406 177.524 166.546 177.113 166.702V166.7Z" fill="#7DA9EB"/>
<path d="M184.093 199.701L184.134 199.155L157.483 197.187C157.472 197.37 157.464 197.551 157.457 197.734L184.093 199.703V199.701Z" fill="#7DA9EB"/>
<path d="M184.965 177.048L185.005 176.502L165.715 175.077C165.572 175.249 165.432 175.421 165.291 175.595L184.965 177.049V177.048Z" fill="#7DA9EB"/>
<path d="M184.84 180.284L184.881 179.738L163.453 178.154C163.34 178.328 163.229 178.504 163.12 178.68L184.84 180.284Z" fill="#7DA9EB"/>
<path d="M171.657 169.573L185.214 170.574L185.255 170.028L172.395 169.077C172.273 169.155 172.151 169.231 172.031 169.31C171.905 169.395 171.781 169.484 171.657 169.571V169.573Z" fill="#7DA9EB"/>
<path d="M183.719 209.41L183.76 208.865L157.991 206.961C158.021 207.146 158.05 207.333 158.084 207.518L183.719 209.412V209.41Z" fill="#7DA9EB"/>
<path d="M183.595 212.646L183.635 212.1L158.653 210.254C158.698 210.441 158.746 210.628 158.794 210.814L183.596 212.648L183.595 212.646Z" fill="#7DA9EB"/>
<path d="M183.844 206.175L183.885 205.629L157.58 203.685C157.597 203.87 157.615 204.055 157.634 204.238L183.844 206.175Z" fill="#7DA9EB"/>
<path d="M183.345 219.118L183.386 218.572L160.804 216.903C160.881 217.092 160.957 217.283 161.039 217.469L183.347 219.118H183.345Z" fill="#7DA9EB"/>
<path d="M183.471 215.882L183.511 215.336L159.584 213.567C159.645 213.756 159.706 213.943 159.769 214.132L183.471 215.884V215.882Z" fill="#7DA9EB"/>
<path d="M183.969 202.936L184.009 202.391L157.414 200.426C157.416 200.609 157.418 200.792 157.423 200.975L183.969 202.936Z" fill="#7DA9EB"/>
<path d="M183.138 225.044L164.262 223.649C164.382 223.842 164.5 224.036 164.623 224.227L183.097 225.592L183.138 225.046V225.044Z" fill="#7DA9EB"/>
<path d="M182.848 232.064L182.889 231.518L169.698 230.543C169.898 230.743 170.096 230.944 170.298 231.137L182.848 232.064Z" fill="#7DA9EB"/>
<path d="M182.974 228.827L183.014 228.281L166.64 227.071C166.793 227.267 166.947 227.462 167.102 227.656L182.974 228.829V228.827Z" fill="#7DA9EB"/>
<path d="M162.345 220.263C162.443 220.453 162.539 220.644 162.639 220.834L183.221 222.355L183.262 221.809L162.345 220.265V220.263Z" fill="#7DA9EB"/>
<path d="M182.724 235.3L182.764 234.755L173.889 234.1C174.183 234.311 174.481 234.516 174.78 234.716L182.724 235.302V235.3Z" fill="#7DA9EB"/>
<path d="M183.956 167.167C190.594 164.667 197.609 165.122 204.24 168.486C210.573 171.697 216.27 177.525 220.281 184.898C224.789 193.209 226.667 202.558 225.569 211.222C224.415 220.337 220.161 228.113 213.265 233.708C210.732 235.817 207.983 237.44 205.089 238.53C198.726 240.925 191.982 240.715 185.586 237.921C179.041 235.062 173.461 229.734 169.45 222.511C164.473 213.579 162.65 203.19 164.321 193.261C165.993 183.311 170.972 175.072 178.34 170.064C180.153 168.865 182.046 167.89 183.959 167.168L183.956 167.167Z" fill="#1F6CDE"/>
<path d="M204.85 237.811C201.762 238.975 198.543 239.508 195.285 239.398C192.063 239.289 188.874 238.555 185.806 237.213C182.694 235.854 179.774 233.9 177.132 231.408C174.392 228.823 171.994 225.698 170.009 222.122C167.546 217.7 165.866 212.912 165.015 207.885C164.193 203.025 164.18 198.161 164.976 193.428C165.773 188.69 167.339 184.331 169.629 180.47C172.001 176.474 175.052 173.192 178.695 170.713C180.47 169.54 182.318 168.587 184.187 167.884C190.666 165.443 197.512 165.889 203.988 169.173C207.086 170.744 210.009 172.924 212.679 175.649C215.365 178.392 217.728 181.625 219.706 185.258C221.921 189.342 223.492 193.652 224.376 198.074C225.255 202.472 225.431 206.846 224.894 211.077C224.346 215.397 223.073 219.45 221.107 223.123C219.051 226.96 216.274 230.314 212.849 233.095H212.847V233.099C210.372 235.158 207.683 236.744 204.852 237.809M205.185 238.784C208.051 237.704 210.834 236.089 213.437 233.92C227.927 222.163 229.664 201.623 220.522 184.766C212.359 169.765 197.818 161.653 183.859 166.911C181.95 167.63 180.052 168.6 178.183 169.836C162.783 180.304 158.877 204.107 169.207 222.644C177.548 237.656 192.252 243.657 205.183 238.786L205.185 238.784Z" fill="#84AFF1"/>
<path d="M203.966 234.89C201.139 235.956 198.193 236.444 195.21 236.342C192.261 236.242 189.341 235.569 186.533 234.342C180.668 231.78 175.664 226.999 172.062 220.518C169.805 216.466 168.265 212.078 167.486 207.473C166.733 203.02 166.722 198.563 167.451 194.226C168.18 189.886 169.616 185.891 171.714 182.356C173.886 178.696 176.68 175.69 180.016 173.42C181.641 172.345 183.334 171.473 185.045 170.829C190.975 168.596 197.244 169.003 203.172 172.01C206.008 173.449 208.686 175.444 211.132 177.941C213.593 180.456 215.759 183.418 217.571 186.746C221.623 194.217 223.31 202.618 222.324 210.404C221.822 214.361 220.655 218.074 218.855 221.438C216.973 224.953 214.427 228.026 211.291 230.57H211.289V230.574C209.022 232.461 206.56 233.911 203.969 234.888M204.166 235.401C206.762 234.422 209.282 232.96 211.639 230.995C224.759 220.348 226.333 201.749 218.055 186.483C210.664 172.9 197.495 165.553 184.856 170.313C183.128 170.964 181.408 171.843 179.715 172.961C165.769 182.441 162.234 203.995 171.587 220.781C179.139 234.376 192.455 239.809 204.166 235.399V235.401Z" fill="#0A3F8E"/>
<path d="M201.24 214.553C199.093 215.129 197.391 215.043 196.133 214.294C194.988 213.681 194.143 212.646 193.78 211.414C193.668 211.04 193.657 210.643 193.748 210.262C193.84 209.93 194.019 209.626 194.268 209.382C194.869 208.859 195.682 208.641 196.463 208.793C196.8 208.879 197.106 209.053 197.349 209.297C197.624 209.578 197.816 209.927 197.907 210.307C198.047 210.753 198.034 211.234 197.87 211.675C197.732 212.036 197.479 212.345 197.148 212.555C197.619 212.901 198.2 213.072 198.789 213.038C199.462 213.049 200.133 212.967 200.784 212.795C201.648 212.571 202.425 212.098 203.015 211.436C203.62 210.723 203.977 209.84 204.034 208.917C204.122 207.813 204.013 206.704 203.711 205.642C203.442 204.521 202.954 203.465 202.273 202.532C201.749 201.78 200.985 201.222 200.1 200.942C199.28 200.695 198.404 200.685 197.574 200.914C196.865 201.168 196.229 201.588 195.719 202.137L194.409 203.283L194.21 202.542L198.606 191.806L189.205 194.327L191.682 203.58C191.834 204.255 192.191 204.866 192.706 205.334C193.198 205.74 193.872 205.86 194.484 205.652C195.046 205.489 195.543 205.154 195.9 204.695C196.31 204.194 196.633 203.631 196.854 203.027C196.862 202.93 196.901 202.836 196.965 202.761C197.014 202.69 197.086 202.639 197.169 202.617C197.337 202.588 197.508 202.611 197.661 202.683C197.864 202.813 198.009 203.013 198.068 203.245C198.091 203.405 198.104 203.566 198.107 203.728C197.985 204.61 197.607 205.441 197.019 206.122C196.47 206.743 195.745 207.189 194.938 207.402C192.903 207.947 191.387 207.932 190.392 207.357C189.342 206.698 188.611 205.648 188.363 204.445L185.892 195.216L181.11 196.498L180.65 194.779L185.454 193.49L184.404 189.571L183.016 188.787L182.78 187.908L185.972 187.052L187.333 187.339L188.744 192.608L201.153 189.241L202.715 190.126L197.108 199.666C197.519 199.361 197.973 199.116 198.455 198.939C199.443 198.719 200.468 198.73 201.446 198.971C202.557 199.166 203.584 199.671 204.405 200.425C205.129 201.055 205.726 201.815 206.163 202.664C206.515 203.331 206.796 204.034 207.002 204.759C207.379 206.148 207.425 207.607 207.136 209.023C206.868 210.391 206.134 211.633 205.055 212.543C203.955 213.492 202.65 214.18 201.24 214.553Z" fill="white"/>
<path d="M173.172 175.808L174.773 175.364C175.028 175.294 175.028 174.932 174.773 174.859L173.276 174.443C171.895 174.06 170.815 172.981 170.432 171.599L169.988 169.999C169.918 169.744 169.555 169.744 169.483 169.999L169.066 171.496C168.683 172.878 167.605 173.957 166.223 174.339L164.622 174.784C164.367 174.854 164.367 175.216 164.622 175.289L166.119 175.705C167.499 176.088 168.58 177.166 168.963 178.549L169.407 180.149C169.477 180.404 169.84 180.404 169.912 180.149L170.328 178.652C170.711 177.27 171.79 176.191 173.172 175.808Z" fill="white"/>
<path d="M160.348 176.458L161.214 176.218C161.352 176.179 161.352 175.983 161.214 175.944L160.403 175.718C159.656 175.511 159.071 174.926 158.864 174.179L158.623 173.313C158.584 173.174 158.388 173.174 158.349 173.313L158.124 174.123C157.916 174.871 157.332 175.455 156.584 175.663L155.718 175.903C155.58 175.942 155.58 176.138 155.718 176.177L156.529 176.403C157.276 176.61 157.861 177.195 158.068 177.942L158.309 178.808C158.348 178.947 158.544 178.947 158.583 178.808L158.808 177.998C159.015 177.25 159.6 176.665 160.348 176.458Z" fill="white"/>
<path d="M170.595 163.024L171.461 162.783C171.599 162.744 171.599 162.548 171.461 162.509L170.65 162.284C169.903 162.076 169.318 161.492 169.111 160.744L168.87 159.878C168.831 159.74 168.635 159.74 168.596 159.878L168.371 160.689C168.163 161.436 167.579 162.021 166.831 162.228L165.965 162.469C165.827 162.508 165.827 162.704 165.965 162.742L166.776 162.968C167.523 163.175 168.108 163.76 168.315 164.507L168.556 165.373C168.595 165.512 168.791 165.512 168.83 165.373L169.055 164.563C169.263 163.816 169.847 163.231 170.595 163.024Z" fill="white"/>
<path d="M188.34 144.752C194.795 142.042 221.333 151.934 230.194 179.695C235.138 195.183 230.781 210.65 228.477 215.416C225.26 222.078 221.284 227.356 217.579 226.796C212.488 226.026 217.254 220.452 216.48 216.015C216.084 213.749 213.788 219.164 211.104 216.75C210.591 216.289 215.211 209.814 216.114 207.253C217.848 202.335 218.852 194.92 216.243 185.851C213.442 176.11 203.011 170.162 191.674 163.627C183.62 158.983 188.338 144.752 188.338 144.752H188.34Z" fill="#FDB78F"/>
<path d="M175.791 139.185C182.399 139.727 202.772 139.905 223.496 163.033C220.78 168.069 213.496 173.192 206.707 178.582C206.644 178.121 191.461 165.398 191.461 165.398C191.461 165.398 170.268 138.734 175.791 139.185Z" fill="#FA6163"/>
<path d="M167.244 151.698C164.59 151.698 162.453 150.939 161.321 149.514C159.375 147.067 160.962 143.353 165.567 139.579C165.725 139.45 165.958 139.472 166.087 139.631C166.217 139.788 166.195 140.021 166.035 140.151C161.784 143.635 160.237 146.963 161.898 149.052C163.09 150.55 165.743 151.22 168.992 150.841C172.698 150.41 176.663 148.687 180.153 145.992C184.529 142.613 183.235 140.767 183.22 140.748C183.1 140.586 183.13 140.354 183.289 140.232C183.448 140.108 183.676 140.134 183.801 140.292C183.848 140.351 184.255 140.891 184.136 141.872C183.962 143.318 182.775 144.9 180.602 146.576C176.058 150.084 171.101 151.694 167.238 151.694L167.244 151.698Z" fill="white"/>
<path d="M219.616 224.998C219.544 224.998 219.472 224.978 219.409 224.935C219.241 224.82 219.196 224.591 219.311 224.421C222.504 219.716 222.819 217.599 222.821 217.579C222.849 217.377 223.032 217.235 223.235 217.261C223.437 217.287 223.579 217.47 223.555 217.672C223.544 217.762 223.244 219.944 219.923 224.837C219.851 224.943 219.735 225 219.616 225V224.998Z" fill="#E58863"/>
<path d="M216.616 224.981C216.54 224.981 216.462 224.957 216.396 224.909C216.231 224.787 216.198 224.556 216.318 224.391C219.73 219.792 220.452 216.337 220.459 216.302C220.5 216.102 220.694 215.973 220.894 216.012C221.094 216.052 221.225 216.247 221.184 216.447C221.155 216.593 220.431 220.086 216.912 224.831C216.84 224.929 216.727 224.981 216.614 224.981H216.616Z" fill="#E58863"/>
<path d="M224.333 220.88C224.267 220.88 224.198 220.861 224.139 220.824C223.965 220.717 223.913 220.487 224.021 220.315C224.729 219.176 225.338 218.079 225.832 217.054C225.921 216.869 226.143 216.793 226.326 216.88C226.511 216.968 226.589 217.189 226.5 217.374C225.995 218.423 225.373 219.544 224.65 220.706C224.579 220.819 224.459 220.88 224.335 220.88H224.333Z" fill="#E58863"/>
<path d="M182.157 128.11C182.162 129.757 181.646 131.415 180.984 133.15C180.008 135.699 180.575 138.502 182.231 140.673C182.251 140.7 182.271 140.728 182.288 140.756C182.841 141.651 181.859 145.142 177.601 147.046C164.169 153.055 157.493 147.709 165.797 140.63C169.37 137.611 169.26 135.968 171.856 130.571L182.155 128.108L182.157 128.11Z" fill="#FDB78F"/>
<path d="M170.095 134.516C171.895 134.299 174.815 133.389 176.047 132.46L171.614 131.084C170.972 132.448 170.505 133.558 170.095 134.514V134.516Z" fill="#3D3D3D" fill-opacity="0.2"/>
<path d="M182.58 113.99C181.721 113.5 180.83 113.109 179.901 112.878C179.435 112.769 178.965 112.682 178.489 112.649C178.015 112.61 177.538 112.604 177.064 112.645C176.591 112.676 176.119 112.75 175.653 112.86C175.186 112.961 174.731 113.109 174.282 113.278C173.386 113.625 172.539 114.103 171.76 114.712C172.381 113.94 173.209 113.328 174.113 112.891C174.565 112.667 175.042 112.499 175.529 112.362C176.017 112.232 176.519 112.147 177.024 112.105C177.529 112.071 178.038 112.079 178.541 112.138C179.042 112.205 179.542 112.306 180.019 112.471C180.976 112.793 181.855 113.317 182.58 113.988V113.99Z" fill="#2E2E2E"/>
<path d="M184.266 115.526C180.057 109.989 171.154 112.622 170.824 119.232C170.493 125.843 184.266 115.526 184.266 115.526Z" fill="#6427BD"/>
<path d="M180.327 132.909C175.07 134.7 167.932 132.097 167.296 129.137C166.128 123.707 171.99 116.366 177.248 114.575C182.505 112.784 184.812 114.891 186.603 120.149C188.394 125.407 185.583 131.119 180.327 132.909Z" fill="#FDB78F"/>
<path d="M177.148 113.899C175.144 118.789 180.058 122.288 179.187 126.31C179.808 127.18 182.619 125.566 182.798 127.99C182.876 129.037 181.973 130.756 179.803 130.822C180.421 132.312 179.81 139.068 181.091 139.303C186.027 140.206 192.68 123.677 188.504 116.902C187.646 115.509 185.257 112.173 182.019 111.378C180.003 110.882 177.934 111.979 177.148 113.899Z" fill="#9961EC"/>
<path d="M180.02 131.694C180.291 132.812 180.403 133.964 180.38 135.124C180.354 136.283 180.184 137.45 179.818 138.571C179.455 139.691 178.882 140.766 178.086 141.648C177.292 142.531 176.275 143.206 175.172 143.533C176.11 142.869 176.911 142.096 177.538 141.206C178.167 140.32 178.628 139.33 178.969 138.294C179.307 137.256 179.527 136.172 179.683 135.069C179.84 133.964 179.923 132.841 180.023 131.696L180.02 131.694Z" fill="#9961EC"/>
<path d="M180.512 132.193C180.589 132.695 180.684 133.2 180.721 133.701C180.747 133.953 180.765 134.204 180.784 134.454L180.812 135.205C180.819 136.204 180.786 137.205 180.641 138.184C180.375 140.147 180.144 141.646 179.394 143.453C179.206 143.905 179.013 144.354 178.819 144.8L178.227 146.128C177.834 147.011 177.12 148.295 176.845 149.201C176.717 149.657 176.6 150.115 176.543 150.585C176.467 151.053 176.467 151.533 176.497 152.017C176.569 152.987 176.882 153.977 177.346 154.95C176.665 154.049 176.19 153.04 175.956 152.008C175.742 150.976 175.788 149.938 175.988 148.961C176.191 147.982 176.526 147.052 176.883 146.141C177.242 145.231 177.633 144.343 177.995 143.449C178.734 141.668 179.359 139.856 179.781 137.98C180.212 136.106 180.408 134.167 180.508 132.191L180.512 132.193Z" fill="#9961EC"/>
<path d="M183.2 128.486C183.278 128.988 183.372 129.493 183.409 129.994C183.435 130.246 183.454 130.497 183.472 130.749L183.5 131.5C183.507 132.499 183.474 133.5 183.33 134.479C183.063 136.442 182.832 137.94 182.083 139.748C181.894 140.199 181.702 140.649 181.507 141.095L180.915 142.423C180.523 143.306 179.809 144.59 179.533 145.496C179.405 145.951 179.289 146.41 179.231 146.88C179.156 147.348 179.156 147.828 179.185 148.312C179.257 149.282 179.57 150.272 180.034 151.245C179.354 150.344 178.878 149.335 178.645 148.303C178.43 147.271 178.477 146.233 178.676 145.256C178.88 144.277 179.215 143.347 179.572 142.436C179.931 141.526 180.31 138.845 180.673 137.952C181.411 136.17 182.048 136.153 182.468 134.275C182.899 132.401 183.095 130.462 183.195 128.486H183.2Z" fill="#9961EC"/>
<path d="M180.027 131.906C179.619 132.226 179.029 132.156 178.707 131.749C178.385 131.342 178.458 130.752 178.865 130.43C179.272 130.108 179.862 130.18 180.184 130.587C180.504 130.994 180.434 131.584 180.027 131.906Z" fill="white"/>
<path d="M135.601 159.938C135.401 159.938 135.237 159.779 135.231 159.579C135.227 159.479 134.953 149.39 136.4 138.007C136.426 137.805 136.611 137.661 136.815 137.687C137.018 137.713 137.161 137.898 137.135 138.101C135.695 149.424 135.967 159.457 135.971 159.557C135.977 159.76 135.816 159.932 135.612 159.938H135.601Z" fill="white"/>
<path d="M204.407 176.792C204.291 176.792 204.174 176.737 204.102 176.633C203.985 176.465 204.028 176.236 204.195 176.119C204.304 176.043 215.1 168.519 219.104 162.424C219.217 162.254 219.446 162.206 219.616 162.319C219.787 162.432 219.835 162.661 219.722 162.831C215.638 169.046 205.064 176.417 204.616 176.728C204.552 176.772 204.478 176.794 204.405 176.794L204.407 176.792Z" fill="white"/>
<path d="M223.843 289.541C223.754 289.541 223.667 289.52 223.587 289.48C221.045 288.166 218.068 286.656 214.915 285.058C201.699 278.357 185.25 270.016 177.311 264.331C169.329 258.616 164.594 239.104 162.028 223.741C161.978 223.439 162.182 223.153 162.483 223.103C162.785 223.051 163.072 223.256 163.122 223.558C166.752 245.291 171.881 259.078 177.955 263.428C185.826 269.064 202.232 277.382 215.415 284.066C218.488 285.624 221.395 287.099 223.896 288.39C227.812 287.161 233.867 280.734 232.691 263.978C232.668 263.672 232.9 263.406 233.205 263.385C233.512 263.36 233.777 263.595 233.797 263.9C234.321 271.363 233.438 277.763 231.244 282.407C229.475 286.149 226.829 288.743 223.983 289.52C223.935 289.533 223.885 289.541 223.837 289.541H223.843Z" fill="#9961EC"/>
<path d="M154.747 311.681C154.719 311.681 154.69 311.679 154.66 311.673C154.356 311.627 154.149 311.342 154.197 311.039C154.384 309.836 154.571 308.506 154.751 307.085C154.789 306.782 155.067 306.567 155.37 306.604C155.674 306.643 155.89 306.92 155.851 307.224C155.67 308.656 155.481 309.997 155.293 311.209C155.25 311.483 155.013 311.679 154.745 311.679L154.747 311.681ZM155.765 303.729C155.744 303.729 155.726 303.729 155.705 303.725C155.4 303.692 155.18 303.42 155.211 303.115C155.348 301.836 155.478 300.497 155.602 299.135C155.629 298.83 155.898 298.606 156.205 298.632C156.51 298.659 156.736 298.93 156.708 299.235C156.584 300.604 156.453 301.949 156.316 303.233C156.286 303.518 156.044 303.729 155.765 303.729ZM156.486 295.744C156.471 295.744 156.458 295.744 156.444 295.744C156.138 295.721 155.909 295.453 155.933 295.148C156.031 293.847 156.125 292.504 156.212 291.155C156.233 290.85 156.497 290.621 156.801 290.637C157.106 290.658 157.339 290.92 157.319 291.228C157.232 292.58 157.137 293.929 157.039 295.233C157.017 295.523 156.775 295.746 156.486 295.746V295.744ZM156.999 287.742C156.989 287.742 156.978 287.742 156.969 287.742C156.664 287.725 156.429 287.464 156.444 287.159C156.512 285.849 156.577 284.504 156.634 283.161C156.647 282.854 156.908 282.617 157.211 282.63C157.519 282.643 157.755 282.902 157.742 283.207C157.685 284.556 157.62 285.905 157.552 287.216C157.537 287.512 157.291 287.742 156.999 287.742ZM157.341 279.733C157.341 279.733 157.328 279.733 157.322 279.733C157.015 279.723 156.777 279.466 156.786 279.159C156.83 277.846 156.869 276.499 156.902 275.157C156.91 274.85 157.163 274.606 157.47 274.617C157.778 274.625 158.02 274.88 158.011 275.185C157.977 276.53 157.939 277.879 157.894 279.196C157.885 279.496 157.637 279.733 157.339 279.733H157.341ZM157.541 271.718H157.532C157.224 271.712 156.98 271.461 156.986 271.154L156.989 270.88C157.01 269.579 157.032 268.336 157.054 267.144C157.06 266.841 157.308 266.601 157.609 266.601C157.613 266.601 157.617 266.601 157.62 266.601C157.927 266.606 158.17 266.86 158.164 267.167C158.142 268.356 158.12 269.6 158.1 270.898L158.096 271.172C158.09 271.476 157.842 271.718 157.541 271.718ZM157.694 263.709C157.694 263.709 157.685 263.709 157.681 263.709C157.374 263.701 157.132 263.448 157.139 263.141C157.173 261.687 157.208 260.377 157.245 259.133C157.254 258.826 157.502 258.589 157.816 258.595C158.124 258.604 158.364 258.86 158.355 259.167C158.318 260.406 158.283 261.714 158.249 263.165C158.242 263.466 157.996 263.707 157.694 263.707V263.709ZM157.942 255.705C157.942 255.705 157.927 255.705 157.918 255.705C157.611 255.692 157.374 255.433 157.387 255.128C157.448 253.661 157.513 252.351 157.587 251.119C157.606 250.812 157.868 250.578 158.174 250.599C158.479 250.617 158.712 250.88 158.693 251.185C158.619 252.408 158.555 253.714 158.494 255.172C158.481 255.47 158.235 255.705 157.939 255.705H157.942ZM158.44 247.716C158.423 247.716 158.405 247.716 158.388 247.714C158.083 247.687 157.859 247.417 157.887 247.111C158.022 245.648 158.177 244.338 158.36 243.109C158.405 242.806 158.688 242.597 158.991 242.643C159.295 242.688 159.504 242.971 159.458 243.274C159.278 244.482 159.125 245.772 158.991 247.215C158.965 247.504 158.723 247.718 158.44 247.718V247.716ZM159.656 239.818C159.613 239.818 159.57 239.813 159.528 239.803C159.23 239.733 159.043 239.435 159.113 239.137C159.404 237.896 159.746 236.658 160.19 235.245C160.283 234.952 160.594 234.789 160.886 234.882C161.178 234.974 161.341 235.285 161.249 235.578C160.814 236.963 160.479 238.175 160.194 239.391C160.135 239.646 159.905 239.82 159.654 239.82L159.656 239.818ZM161.991 232.173C161.93 232.173 161.868 232.164 161.807 232.142C161.519 232.042 161.365 231.724 161.465 231.435C161.658 230.88 161.861 230.307 162.072 229.703C162.3 229.056 162.538 228.377 162.788 227.659C162.89 227.369 163.206 227.217 163.495 227.317C163.783 227.419 163.937 227.735 163.837 228.024C163.587 228.741 163.349 229.42 163.121 230.07C162.91 230.671 162.708 231.245 162.516 231.798C162.436 232.027 162.222 232.17 161.992 232.17L161.991 232.173Z" fill="#9961EC"/>
<path d="M138.191 313.317C138.154 313.317 138.117 313.313 138.08 313.306C135.257 312.736 133.567 312.12 133.497 312.094C133.21 311.989 133.062 311.671 133.168 311.382C133.273 311.095 133.592 310.947 133.88 311.053C133.897 311.058 135.568 311.667 138.3 312.218C138.6 312.279 138.794 312.572 138.735 312.873C138.682 313.136 138.45 313.319 138.191 313.319V313.317Z" fill="#9961EC"/>
<path d="M147.398 314.24C145.132 314.24 143.06 314.072 141.27 313.837C140.967 313.796 140.752 313.518 140.793 313.213C140.834 312.91 141.111 312.693 141.417 312.736C147.052 313.478 155.554 313.537 164.039 309.604C164.319 309.474 164.648 309.596 164.776 309.874C164.905 310.151 164.783 310.482 164.506 310.61C158.48 313.402 152.455 314.24 147.398 314.24Z" fill="#9961EC"/>
<path d="M375.465 343.457H340.096C339.974 343.457 339.857 343.396 339.789 343.294C339.72 343.192 339.706 343.063 339.752 342.948C339.783 342.871 342.936 335.03 345.771 327.087C347.434 322.427 348.663 318.645 349.421 315.846C350.753 310.941 350.271 310.412 350.211 310.368C350.215 310.369 349.956 310.332 349.205 311.085C342.239 318.051 340.451 325.744 338.383 334.65C338.166 335.579 337.95 336.515 337.722 337.463C337.633 337.833 337.432 337.903 337.273 337.899C336.862 337.886 336.816 337.62 336.462 335.544C335.7 331.083 333.918 320.636 328.878 320.636C328.821 320.636 328.784 320.649 328.739 320.713C327.622 322.375 332.179 335.231 335.313 342.946C335.359 343.061 335.346 343.191 335.278 343.292C335.21 343.394 335.095 343.455 334.971 343.455H327.239C327.065 343.455 326.913 343.333 326.876 343.163C326.828 342.941 325.62 337.712 319.882 336.821C318.879 336.665 318.611 336.789 318.563 336.821C318.563 336.922 318.707 337.661 322.019 340.147C323.86 341.531 325.758 342.76 325.777 342.773C325.916 342.861 325.977 343.032 325.931 343.189C325.884 343.346 325.74 343.453 325.575 343.453H316.326L239.963 343.439C239.757 343.439 239.593 343.272 239.593 343.069C239.593 342.865 239.759 342.698 239.963 342.698L316.326 342.713H324.352C323.599 342.203 322.528 341.459 321.484 340.671C317.936 337.994 317.666 337.085 317.869 336.549C318.121 335.886 319.138 335.955 319.995 336.088C325.437 336.934 327.157 341.505 327.52 342.713H334.423C333.859 341.298 332.221 337.143 330.736 332.83C326.994 321.977 327.846 320.713 328.125 320.297C328.303 320.033 328.563 319.892 328.878 319.892C334.542 319.892 336.399 330.771 337.193 335.416C337.228 335.625 337.265 335.836 337.3 336.038C337.422 335.514 337.545 334.995 337.663 334.478C339.67 325.836 341.567 317.674 348.683 310.558C349.223 310.018 350.013 309.344 350.622 309.746C351.133 310.083 351.477 311.087 350.156 315.968C349.395 318.782 348.161 322.586 346.489 327.276C344.059 334.09 341.389 340.839 340.642 342.711H375.465C375.669 342.711 375.835 342.878 375.835 343.081C375.835 343.285 375.669 343.451 375.465 343.451V343.457Z" fill="#585858"/>
<path d="M104.91 50.9053H74.6619C69.0151 50.9053 64.4375 55.4826 64.4375 61.1291V91.3749C64.4375 97.0213 69.0151 101.599 74.6619 101.599H104.91C110.556 101.599 115.134 97.0213 115.134 91.3749V61.1291C115.134 55.4826 110.556 50.9053 104.91 50.9053Z" fill="#FD3289"/>
<path d="M74.6619 49.2461H104.91C110.553 49.2461 115.134 53.827 115.134 59.4699V89.7157C115.134 95.3586 110.553 99.9395 104.91 99.9395H74.6619C69.0187 99.9395 64.4375 95.3586 64.4375 89.7157V59.4699C64.4375 53.827 69.0187 49.2461 74.6619 49.2461Z" fill="white"/>
<path d="M113.118 46.58C113.044 46.58 112.968 46.5652 112.896 46.5338C112.614 46.4117 112.487 46.0842 112.609 45.803L115.678 38.7725C115.8 38.4913 116.128 38.3636 116.409 38.4857C116.69 38.6078 116.818 38.9353 116.696 39.2165L113.626 46.247C113.536 46.4561 113.332 46.58 113.118 46.58Z" fill="#FD3289"/>
<path d="M117.911 49.1701C117.746 49.1701 117.582 49.0961 117.473 48.9555C117.284 48.7131 117.328 48.3653 117.569 48.1766L125.573 41.9472C125.815 41.7585 126.163 41.8029 126.352 42.0434C126.541 42.2858 126.496 42.6336 126.256 42.8223L118.252 49.0517C118.15 49.1313 118.03 49.1683 117.911 49.1683V49.1701Z" fill="#FD3289"/>
<path d="M120.502 53.1165C120.248 53.1165 120.019 52.9407 119.962 52.6836C119.895 52.3839 120.082 52.0878 120.382 52.0212L128.434 50.2137C128.734 50.1471 129.03 50.3339 129.096 50.6336C129.163 50.9334 128.976 51.2294 128.676 51.296L120.624 53.1036C120.583 53.1128 120.543 53.1165 120.502 53.1165Z" fill="#FD3289"/>
<path d="M64.0714 113.058C64.0177 113.058 63.9641 113.05 63.9086 113.033C63.6162 112.945 63.4497 112.634 63.5404 112.342L65.6848 105.311C65.7736 105.017 66.0844 104.852 66.3768 104.943C66.6691 105.032 66.8356 105.342 66.745 105.635L64.6006 112.665C64.5284 112.904 64.3082 113.059 64.0695 113.059L64.0714 113.058Z" fill="#FD3289"/>
<path d="M54.5035 109.542C54.3481 109.542 54.1927 109.477 54.0835 109.349C53.8837 109.118 53.9078 108.766 54.139 108.567L61.6122 102.091C61.8434 101.889 62.195 101.915 62.3948 102.147C62.5946 102.378 62.5706 102.729 62.3393 102.929L54.8662 109.405C54.7607 109.495 54.6312 109.54 54.5035 109.54V109.542Z" fill="#FD3289"/>
<path d="M59.7568 98.5632H51.934C51.6268 98.5632 51.3789 98.3153 51.3789 98.0082C51.3789 97.701 51.6268 97.4531 51.934 97.4531H59.7568C60.0639 97.4531 60.3119 97.701 60.3119 98.0082C60.3119 98.3153 60.0639 98.5632 59.7568 98.5632Z" fill="#FD3289"/>
</g>
<path d="M101.667 85.8907L98.3397 82.5632C97.7411 81.9646 98.1658 80.9435 99.0107 80.9435H101.701C104.749 80.9435 107.22 78.4722 107.22 75.4248H72.9004C72.9004 78.4722 75.3718 80.9435 78.4193 80.9435H81.1098C81.9547 80.9435 82.3794 81.9646 81.7808 82.5632L78.4532 85.8907C78.0827 86.2611 78.0827 86.862 78.4532 87.2325L81.0127 89.7919C81.3832 90.1624 81.9841 90.1624 82.3546 89.7919L85.6822 86.4645C86.2808 85.8658 87.3019 86.2905 87.3019 87.1354V91.2332C87.3019 91.7572 87.7266 92.1819 88.2508 92.1819H91.872C92.3961 92.1819 92.8208 91.7572 92.8208 91.2332V87.1354C92.8208 86.2905 93.8419 85.8658 94.4406 86.4645L97.7682 89.7919C98.1387 90.1624 98.7396 90.1624 99.1101 89.7919L101.67 87.2325C102.04 86.862 102.04 86.2611 101.67 85.8907H101.667Z" fill="#6923E7"/>
<path d="M90.057 63.7547C94.0895 63.7547 97.6339 65.8849 99.6219 69.0791H80.4921C82.4824 65.8849 86.0269 63.7547 90.0593 63.7547H90.057ZM90.0593 57.8203C80.5757 57.8203 72.8633 65.5325 72.8633 75.0134H107.251C107.251 65.5325 99.5383 57.8203 90.057 57.8203H90.0593Z" fill="#DED3F5"/>
<path d="M90.0563 63.7412C83.8303 63.7412 78.7812 68.7878 78.7812 75.0158H101.331C101.331 68.79 96.2822 63.7412 90.0563 63.7412Z" fill="#BBA6ED"/>
<path d="M95.4045 75.0141H84.7236C84.7236 72.0683 87.1182 69.6738 90.0641 69.6738C93.0099 69.6738 95.4045 72.0683 95.4045 75.0141Z" fill="#6923E7"/>
</g>
<defs>
<linearGradient id="paint0_linear_150_434" x1="179" y1="28.8474" x2="179" y2="337.011" gradientUnits="userSpaceOnUse">
<stop offset="0.0882488" stop-color="#D9D9D9"/>
<stop offset="1" stop-color="#D9D9D9" stop-opacity="0"/>
</linearGradient>
<clipPath id="clip0_150_434">
<rect width="380.245" height="318.915" fill="white" transform="translate(0.420898 24.7266)"/>
</clipPath>
</defs>
</svg>
