<svg width="40" height="40" viewBox="0 0 40 40" fill="none" xmlns="http://www.w3.org/2000/svg">
<path fill-rule="evenodd" clip-rule="evenodd" d="M5.731 8.75H34.269C35.3586 8.75 36.25 9.59736 36.25 10.6326V28.1174C36.25 29.1528 35.3586 30 34.269 30H5.731C4.64137 30 3.75 29.1526 3.75 28.1174V10.6326C3.75 9.59718 4.64137 8.75 5.731 8.75ZM28.1507 22.3208C28.6654 22.3208 29.1437 22.4671 29.5428 22.718C29.9422 22.467 30.4208 22.3208 30.9355 22.3208C32.3321 22.3208 33.4644 23.3975 33.4644 24.7251C33.4644 26.0532 32.3321 27.1295 30.9355 27.1295C30.4208 27.1295 29.9421 26.9831 29.5428 26.7326C29.1434 26.9831 28.6652 27.1295 28.1507 27.1295C26.754 27.1295 25.6214 26.0532 25.6214 24.7251C25.6214 23.3975 26.754 22.3208 28.1507 22.3208ZM7.14613 21.3424H16.0483V23.3781H7.14613V21.3424ZM7.14613 25.0706H20.945V27.1064H7.14613V25.0706Z" fill="#BC004F"/>
</svg>
