<svg width="360" height="312" viewBox="0 0 360 312" fill="none" xmlns="http://www.w3.org/2000/svg">
<g clip-path="url(#clip0_650_24164)">
<rect width="359" height="312" fill="#8637EB"/>
<g clip-path="url(#clip1_650_24164)">
<path d="M56.3989 76.2497C54.9765 75.9124 54.2434 75.6445 53.0936 75.0683C52.7438 74.8926 53.0073 74.7164 52.8364 73.6095C51.7604 66.6403 50.4471 65.1634 50.4076 64.6232C51.819 63.3384 53.1878 61.8455 54.8092 59.5252C57.7402 55.3315 59.386 51.1361 54.8006 48.8589C50.6211 46.7835 43.8854 47.5226 39.4217 52.1175C39.2451 52.0125 39.0664 51.9113 38.8927 51.8019C35.6737 49.7721 36.2992 51.5687 36.2163 48.8549C36.1449 46.5294 35.4281 44.7071 34.5481 43.5579C33.7149 42.4695 32.7367 42.1693 31.5993 41.8909C25.1503 40.3138 20.0456 44.5475 19.9301 44.5607C18.258 44.7538 -6.23186 35.3955 -22.7526 56.2121C-33.5276 69.7888 -30.1058 83.2059 -29.8956 94.4051C-29.548 112.924 -39.1171 115.732 -24.1611 118.812C-16.8204 120.324 -16.814 119.567 -15.2606 117.372C-14.4772 116.266 -14.1711 115.639 -13.2817 115.006C-12.2868 114.299 -11.7006 113.734 -10.743 113.994C-6.07611 115.266 -4.9013 115.766 -4.99674 117.316C-5.20312 120.646 -9.04077 124.262 2.51481 127.52C20.2717 132.527 12.4744 123.996 17.0238 120.234C17.5287 119.816 17.1409 120.323 17.4952 123.227C17.8697 126.291 21.2144 125.884 27.6234 126.972C30.7636 127.505 32.2861 128.129 33.4988 126.278C35.1666 123.731 34.3174 118.886 36.4983 116.097C38.7086 113.272 42.342 113.246 48.1448 106.194C54.4215 98.5671 48.0994 103.257 56.3602 100.484C59.7725 99.339 62.023 95.8715 62.8838 92.3312C64.3025 86.4959 62.6838 77.7409 56.3987 76.2504L56.3989 76.2497ZM57.0069 53.4815C56.3274 57.0126 52.7487 61.7182 50.2155 63.9769C50.1337 64.0499 49.9982 63.9056 50.0683 63.8129C50.2123 63.6233 50.9094 62.9873 51.8798 61.7566C52.036 61.5581 52.2045 61.3647 52.3224 61.0606C47.3937 66.1957 51.2919 61.7338 51.2967 61.5972C50.5684 62.0791 49.7398 63.1611 49.6169 63.0059C49.4926 62.8505 50.0789 62.5817 50.3212 62.0428C49.4998 62.6384 49.5127 62.7483 49.403 62.6384C49.0239 62.2571 51.5195 60.7388 52.3459 59.2864C52.149 59.1993 51.4824 60.093 48.9855 61.9339C48.0166 60.457 48.3067 61.5311 48.0692 57.0684C48.0572 56.8387 48.1834 56.6801 48.3593 56.4256C48.6222 59.4079 48.6679 60.1711 48.888 60.9511C48.6342 55.4697 48.5868 55.8348 48.9214 55.5795C48.9418 55.6872 49.1807 59.701 49.4588 61.0605C49.5286 60.9769 49.5402 61.4535 49.2947 56.1394C49.2591 55.3676 49.0603 55.0422 49.6671 54.6278C49.9268 58.2278 49.7792 56.761 50.2334 60.2525C50.6409 59.9682 49.4044 53.8172 50.403 53.9837C50.5564 55.8314 50.8304 57.6723 51.2426 59.4917C51.4294 58.7494 50.1225 53.1705 51.2051 53.3381C51.4866 55.0507 50.9679 53.0195 52.0284 58.6466C52.1275 58.5418 52.2006 58.9122 51.5015 53.3479C51.4651 53.0617 51.5607 52.931 51.7896 52.8451C51.925 52.8862 52.4636 57.615 52.8027 57.974C52.1136 52.2453 51.9399 52.4995 52.5941 52.3425C52.6329 52.6454 53.0715 56.2343 53.4267 57.0715C52.9239 51.8862 52.7621 52.1223 53.0972 52.0425C53.3609 51.9801 53.535 55.491 53.9824 56.3267C53.9812 56.3145 53.5 51.8977 53.5339 51.822C50.876 51.4916 46.1745 57.6251 47.1936 58.039C47.5168 58.1704 47.5939 57.6186 47.821 57.4826C47.8222 57.4947 48.1157 60.2897 48.0921 60.4362C47.8236 60.4352 47.371 59.4603 45.8448 57.7992C45.4824 57.4043 46.4429 56.5557 46.3727 56.2848C46.1126 56.4693 45.9602 56.7366 45.5745 57.2771C45.4904 57.3952 45.316 57.2745 45.3336 57.1557C45.3911 56.7665 46.6082 54.8884 46.5542 54.6991C45.9561 55.3868 45.548 56.175 45.1091 56.9328C44.8226 56.8155 44.8754 56.6886 44.9597 56.5656C46.7705 53.9308 48.8762 51.3954 52.3694 50.341C53.8594 49.8909 57.5736 50.5278 57.0057 53.4806L57.0069 53.4815ZM52.2447 48.6048C52.4789 48.654 52.7195 48.6911 52.9883 48.8543C51.9011 49.0339 49.3701 49.6639 48.4811 50.3127C49.2065 50.0316 50.2212 49.6902 51.6186 49.4696C50.3703 49.9185 48.6974 50.4491 46.4523 52.7054C46.489 52.7376 51.1761 49.3866 51.7358 49.8996C48.5579 51.1821 46.1672 53.3478 44.4742 56.3171C44.1964 56.1235 43.9876 55.8994 43.7611 55.6614C43.9627 55.416 44.1544 55.1813 44.3651 54.9243C44.2149 54.8839 44.1789 54.9333 43.6337 55.3818C43.4967 55.4941 43.2661 55.3185 43.3987 55.1331C43.7442 54.6496 43.8041 54.6518 43.7726 54.4998C43.5028 54.6235 43.3548 54.8868 43.1114 55.0345C42.9423 54.9863 42.8388 54.8509 42.7106 54.7165C42.8591 54.4027 43.1737 54.2194 43.3602 53.9199C43.2602 53.8554 43.2022 53.9356 43.1458 53.9741C42.3789 54.4965 42.5049 54.6095 42.1544 54.2034C42.3872 53.919 42.6227 53.6309 42.8993 53.2929C42.3598 53.3593 41.9881 54.3593 41.6139 53.7895C41.518 53.6436 41.6449 53.5736 42.8115 52.5443C42.5411 52.505 41.6269 53.2424 41.4253 53.4141C41.2328 53.5784 40.9352 53.3304 41.129 53.1741C42.3716 52.1697 42.1416 52.3613 43.2352 51.5849C43.1306 51.4739 43.0461 51.5941 42.9759 51.6313C40.5473 52.9293 40.9946 53.0574 40.7025 53.0436C40.5953 53.0387 40.4759 52.9207 40.7942 52.6145C41.3441 52.0855 41.6217 51.9309 44.6277 49.8958C44.4925 49.8351 41.2378 51.5347 40.3577 52.6147C40.2215 52.782 39.9879 52.5742 39.9607 52.4694C39.8124 51.896 45.7176 47.2404 52.2431 48.6059L52.2447 48.6048ZM45.858 99.8727C45.0163 99.6151 44.2249 99.2548 43.825 99.1875C45.1855 100.186 48.4291 100.999 50.0793 101.312C50.5361 102.332 41.4125 109.982 40.9838 110.353C41.3617 110.287 46.8482 106.042 49.4487 102.931C50.7104 101.421 50.2702 101.323 50.7735 101.489C50.6373 101.871 46.8881 108.334 39.8488 112.735C35.0028 115.764 29.6873 117.367 23.993 118.465C24.3156 119.063 32.8113 116.662 32.9742 116.706C32.3577 118.5 31.768 120.299 31.3476 122.15C31.5945 121.665 31.3779 122.086 33.1183 117.224C33.4015 116.432 33.5823 116.393 33.9238 116.386C33.9204 116.397 32.8453 118.934 31.8021 123.323C32.1464 123.257 33.9745 115.258 34.9024 116.017C35.2852 116.33 34.5061 115.193 32.5682 123.512C32.5283 123.682 32.3284 124.572 32.3417 124.988C32.5005 124.148 34.6125 115.721 35.9903 115.515C36.1384 115.385 36.2849 115.449 36.0436 115.656C33.8195 118.988 34.4634 122.597 33.3471 125.296C32.2498 127.95 30.904 126.722 23.6259 125.711C18.7845 125.038 17.8315 125.391 17.9106 120.261C17.921 119.564 17.8971 119.612 18.369 119.425C18.5473 119.354 18.6971 119.267 18.6992 119.082C18.7064 118.469 16.1704 119.304 15.3585 121.714C14.2737 124.936 14.7379 127.867 12.5171 128.382C10.0989 128.943 0.103704 126.92 -3.56657 124.275C-6.40937 122.226 -4.66759 119.982 -4.40572 117.471C-4.2312 115.799 -5.50822 115.302 -4.95517 115.379C-3.72383 115.551 1.60167 116.776 5.22529 117.02C5.27736 117.034 5.23455 116.908 5.23621 116.978C5.23625 116.981 5.21916 116.99 5.21104 116.988C-12.3001 114.769 -16.0289 110.287 -19.9355 107.763C-19.3852 108.722 -14.9845 111.664 -14.068 112.313C-15.1924 113.516 -16.2749 114.716 -17.1765 116.069C-16.185 114.99 -15.3468 114.031 -14.2178 112.916C-13.9322 112.633 -13.7929 112.435 -13.5997 112.597C-13.484 112.694 -13.3099 112.715 -13.2289 112.892C-14.2739 113.53 -16.9117 116.553 -17.3407 117.348C-17.0687 117.194 -16.3537 116.137 -14.0814 113.963C-12.8631 112.798 -12.682 113.05 -12.0605 113.407C-12.1521 113.657 -13.3393 113.883 -14.7437 115.598C-17.1371 118.519 -16.2223 119.362 -20.4 118.853C-23.2388 118.507 -26.3741 117.725 -28.7274 116.975C-30.3441 116.46 -31.5709 115.827 -31.9172 114.097C-32.5104 111.133 -30.9164 110.382 -29.8766 103.289C-28.6441 94.8778 -29.6623 93.6358 -29.9913 79.9013C-30.4583 60.4076 -15.4638 41.7532 8.859 43.3548C13.3792 43.6522 18.2697 44.7954 19.2686 45.1683C18.7777 46.4013 19.3814 44.8906 8.19297 44.2936C6.55845 44.206 3.26193 44.0539 1.6445 44.2468C3.60632 44.3142 19.2066 45.1025 18.5131 46.1645C17.7107 47.3933 16.156 50.7924 16.143 51.3171C16.5023 51.4539 18.1177 46.2771 21.3264 44.3427C24.7608 42.2721 28.1522 42.0155 28.5002 42.1859C28.4525 42.3011 26.2803 43.3304 26.1258 43.6317C26.0585 43.6239 26.0177 43.6506 26.0093 43.7206L26.0111 43.7223L26.0093 43.7206C25.7394 43.7193 26.0654 43.9656 26.0157 43.7274C26.0728 43.8042 26.119 43.7526 26.1669 43.7146C26.1577 43.6855 26.1444 43.6591 26.1273 43.6348C26.1443 43.6598 26.1582 43.6863 26.1676 43.7147C26.2568 43.6846 26.346 43.6544 26.517 43.5963C24.0088 45.5003 22.2151 47.9298 21.6865 48.9879C23.4054 46.924 25.4455 44.3417 28.1675 42.98C27.9745 43.4102 26.0815 43.9104 23.6821 47.5715C22.423 49.4937 20.903 53.2097 20.896 53.2203C22.3046 50.8126 24.0752 46.6773 26.4261 44.8221C22.9886 48.3478 20.4845 54.7792 21.2704 60.701C21.3006 60.7566 21.3231 60.8191 21.2608 60.8593C21.2416 60.8718 21.1877 60.83 21.1494 60.8136C20.3827 60.3639 20.2334 60.8894 20.4873 56.333C20.5029 56.058 20.5525 55.7846 20.5522 55.4967C20.0482 57.1589 20.1947 59.9332 20.0364 60.0653C19.3335 59.9197 19.9051 58.4528 19.6963 57.1906C19.5054 58.0066 19.4931 58.7721 19.3897 59.5562C19.0801 59.412 18.8787 59.2307 18.8481 58.8768C18.8084 58.4116 18.7647 57.9492 18.8733 57.4202C18.4841 57.7894 18.6871 58.7192 18.48 58.7755C18.1167 58.8745 15.4589 55.2172 15.4069 55.2291C15.3651 55.2977 15.3988 55.3609 15.4291 55.4193C17.5633 59.6408 19.879 60.6672 20.8717 61.3542C22.1796 62.2593 23.2413 61.8328 24.9779 60.2459C25.1171 60.1186 25.4693 59.7816 25.3941 59.6081C24.6928 60.1843 23.0906 61.2126 22.1632 61.2518C21.6872 61.2719 21.0115 57.045 23.0621 51.5189C25.6055 44.664 31.2034 41.0207 33.7414 43.5491C36.8108 46.607 35.1172 53.6023 35.6529 53.9417C35.9472 53.1951 36.2045 51.1865 36.2071 51.1765C39.5214 52.0543 51.7672 60.9387 52.2991 74.5614C51.9331 74.523 49.606 73.1266 48.8353 72.6754C48.6971 73.0978 54.1625 76.2055 54.3316 76.3021C54.1795 76.5568 52.5393 76.5216 50.4907 78.5632C47.4249 81.6188 45.5061 87.5833 47.1361 93.7161C48.8131 100.027 53.114 100.397 53.0275 100.664C52.9075 101.035 49.6273 101.027 45.8608 99.8725L45.858 99.8727ZM51.1589 99.0257C46.4063 95.5369 45.7717 85.9792 49.778 80.3339C55.1728 72.7321 64.356 78.3044 62.6102 90.8145C61.7642 97.0052 56.1136 102.663 51.1588 99.0263L51.1589 99.0257Z" fill="#6100BE"/>
<path d="M31.5658 54.4795C31.2309 54.3838 31.0257 54.6082 30.7963 54.404C30.3213 53.9807 26.3699 52.5949 25.9236 52.321C26.0168 51.8985 26.0005 51.8477 26.5017 52.0766C26.928 52.271 31.2838 54.1713 31.7337 54.0333C31.0065 53.6935 29.1981 52.8936 28.4935 52.5897C26.0557 51.5374 26.0322 51.7133 26.1944 51.3495C26.2894 51.1366 26.3421 51.1922 26.8494 51.437C29.4348 52.6843 29.303 52.5836 31.961 53.6853C32.4132 53.8727 31.905 53.8621 32.6636 54.2401C34.2193 55.0146 35.5409 54.5684 35.2993 54.0798C35.0477 53.5704 34.4479 54.808 32.1612 53.6207C26.2917 50.572 26.2479 51.1779 26.5145 50.5629C26.696 50.1453 26.1197 50.2762 33.6862 53.5675C33.6506 53.4632 33.5698 53.4114 33.4739 53.3624C26.5237 49.7764 26.6466 50.2503 26.8547 49.8665C27.0032 49.5935 26.2956 49.5206 34.2892 53.2029C34.1351 53.046 34.0331 52.9692 33.9104 52.9059C26.33 49.0014 26.9389 49.629 27.3225 49.0853C27.5661 48.7398 29.1619 50.0146 33.5116 51.9025C33.4934 51.791 34.0842 52.1281 28.3496 49.0713C27.8276 48.7928 27.5581 48.76 27.7001 48.5546C27.8347 48.3589 27.8756 48.4207 28.0832 48.5288C30.0312 49.5439 28.4948 48.7822 33.6318 51.2971C33.0204 50.7231 28.18 48.225 28.037 48.113C28.5633 47.5086 27.9108 47.5079 32.0373 49.4701C32.3482 49.6181 33.3838 50.1159 33.8145 50.1314C32.0053 49.2984 30.4002 48.2914 28.661 47.5446C28.7046 46.5912 30.1788 47.8445 33.6771 49.2849C32.2789 48.4419 30.8622 47.6446 29.3905 46.9639C29.4886 46.056 32.9406 48.2527 33.5271 48.1496C30.8676 46.7374 30.0538 46.5139 30.2935 46.3782C30.7202 46.1367 30.4732 46.1665 33.0881 47.2285C32.5495 46.7412 31.8459 46.533 31.22 46.1359C31.9683 45.73 33.5016 46.8793 33.6016 46.9031C33.7049 46.6833 32.9802 45.6779 32.1392 45.5244C28.3025 44.8229 24.7725 50.5428 24.8165 56.2393C24.8203 56.7012 24.8122 57.2815 25.1086 57.5692C25.3208 57.775 25.259 57.2194 25.4327 57.0136C26.2812 57.2682 26.1754 57.2566 26.4783 57.2206C26.2391 57.0349 25.9501 56.9641 25.6884 56.8374C25.4641 56.7289 25.3072 56.6901 25.3925 56.5062C25.4435 56.3966 25.435 56.4153 26.9557 56.8821C27.1533 56.9426 26.9478 57.1684 26.8019 57.3906C30.1017 55.0896 31.0349 55.1413 31.6291 54.8606C31.7815 54.7891 31.8053 54.5487 31.5636 54.4798L31.5658 54.4795ZM27.0136 56.7948C25.599 56.1235 25.4478 56.1622 25.4079 56.0024C25.3844 55.9081 25.4072 55.7467 25.5268 55.7855C26.212 56.01 26.8956 56.239 27.6112 56.4769C27.28 56.8073 27.2513 56.9071 27.0136 56.7948ZM27.5544 56.3433C25.4608 55.4116 25.4137 55.4637 25.4224 55.2436C25.4381 54.864 25.431 54.9904 28.0442 55.8984C28.1028 55.9186 28.18 55.9114 28.2214 56.026C28.1644 56.0973 27.8095 56.4562 27.5545 56.3426L27.5544 56.3433ZM28.1128 55.8138C25.4485 54.6568 25.4629 54.7662 25.4981 54.4802C25.5511 54.0515 25.9179 54.6017 28.5474 55.39C28.6609 55.4241 28.7865 55.4317 28.9049 55.5882C28.5578 55.832 28.483 55.9751 28.1128 55.8138ZM29.7164 55.0784C29.2878 55.3707 29.0118 55.68 28.6683 55.3111C25.1355 53.782 25.528 54.1293 25.653 53.4686C25.8824 53.4544 25.3609 53.3733 29.5428 54.8463C29.5715 54.8173 29.6556 54.7883 29.5671 54.7477C25.7051 52.945 25.506 53.3334 25.8345 52.6691C25.9437 52.6189 26.035 52.6853 26.1233 52.7265C28.5576 53.8639 30.7718 54.266 30.7788 54.4962C30.7817 54.581 30.7921 54.552 29.7171 55.0786L29.7164 55.0784Z" fill="#6100BE"/>
<path d="M-2.50224 92.0998C-2.11986 92.5821 -1.72956 93.0595 -1.28309 93.4627C-5.52595 88.07 -10.2122 81.3904 -12.3734 74.8869C-15.4026 65.7729 -15.1988 56.0453 -12.1736 50.9163C-11.6694 50.0614 -12.3569 50.0162 -13.1501 52.2385C-14.0217 54.679 -15.2627 58.3888 -14.8425 64.2372C-14.0299 75.5455 -9.56472 83.1933 -2.50224 92.0998Z" fill="#6100BE"/>
<path d="M45.0009 68.0169C43.4267 66.6387 42.3076 69.3489 43.9769 70.9507C44.0981 71.067 44.256 71.1558 44.4115 71.2239C45.9972 71.9177 46.2741 69.131 45.0009 68.0169ZM44.2023 68.5585C43.9911 68.4399 44.1861 68.2248 44.3713 68.3069C44.4017 68.3204 44.4307 68.3413 44.4544 68.3648C44.8476 68.7452 45.0825 69.1982 45.1162 69.8433C44.8644 69.3274 44.6628 68.8169 44.2023 68.5585Z" fill="#6100BE"/>
<path d="M-3.54657 116.304C-3.29613 116.883 5.04175 118.112 9.98031 118.412C11.3157 118.494 12.6501 118.591 13.9819 118.543C5.04643 118.199 -3.69202 115.968 -3.54712 116.304L-3.54657 116.304Z" fill="#6100BE"/>
<path d="M45.1898 77.1057C43.6266 79.3739 42.2782 84.2482 42.0154 86.9794C41.8862 88.3222 41.7707 92.2471 42.1498 93.277C42.1661 92.7606 41.5621 88.4104 43.3221 82.2993C44.3996 78.5558 45.5132 77.3101 45.8005 76.6373C45.8167 76.5997 45.7411 76.306 45.1905 77.1058L45.1898 77.1057Z" fill="#6100BE"/>
<path d="M-8.11656 113.534C-8.65286 113.376 -9.18326 113.186 -9.773 113.117C-8.81077 114.31 1.53783 115.786 4.24969 115.679C4.13947 115.613 -2.67343 115.139 -8.11724 113.534L-8.11656 113.534Z" fill="#6100BE"/>
<path d="M50.0457 71.4994C50.1194 71.3659 50.1593 71.2141 50.2071 71.0877C50.248 70.2082 50.0131 69.2948 49.2207 68.9027C48.5587 68.5746 47.6352 69.8394 48.4859 71.0989C48.9096 71.7258 49.6865 72.148 50.045 71.4992L50.0457 71.4994ZM49.1371 69.4969C49.453 69.8149 49.8397 70.5114 49.6444 70.8057C49.548 70.744 49.5361 70.64 49.513 70.5436C49.4271 70.1855 49.2748 69.8626 49.0136 69.597C48.8829 69.4642 49.0846 69.4441 49.1365 69.4961L49.1371 69.4969Z" fill="#6100BE"/>
<path d="M19.1154 123.954C19.4218 124.593 42.8498 128.339 20.9875 124.284C20.3693 124.169 19.749 124.065 19.1154 123.954Z" fill="#6100BE"/>
<path d="M25.8322 49.8694C25.4722 50.04 23.4545 54.9511 24.0091 58.6905C24.1396 59.5694 24.378 59.385 24.3666 59.2523C24.2516 57.8948 24.6822 53.169 25.8322 49.8694Z" fill="#6100BE"/>
<path d="M41.1098 109.022C41.1217 109.041 41.1337 109.059 41.1456 109.078C49.2222 103.03 49.1227 101.379 48.2114 102.49C47.0785 103.871 46.1753 104.628 43.6063 106.865C42.7771 107.587 41.9426 108.303 41.1098 109.022Z" fill="#6100BE"/>
<path d="M13.4254 45.8367C12.1355 45.2262 5.78733 45.0552 4.21342 44.996C4.21006 45.0249 4.20671 45.0537 4.20335 45.0826C7.27765 45.3338 10.3511 45.5855 13.4254 45.8367Z" fill="#6100BE"/>
<path d="M16.4445 53.8855C16.458 53.9217 17.2532 51.1881 20.1033 46.2246C19.0043 46.0882 16.7705 52.7526 16.4445 53.8855Z" fill="#6100BE"/>
<path d="M12.8561 127.671C12.8582 127.66 13.9637 123.857 15.3188 120.16C15.3813 119.989 15.378 119.988 15.3317 119.751C14.4494 120.509 13.0953 126.407 12.8561 127.671Z" fill="#6100BE"/>
<path d="M6.31288 126.817C6.19577 126.724 4.06917 126.307 -1.50391 123.706C-1.17416 124.618 5.21479 126.794 6.31288 126.817Z" fill="#6100BE"/>
<path d="M6.31427 126.817C6.53623 126.994 6.67685 126.966 6.67133 126.877C6.66568 126.788 6.54988 126.822 6.31427 126.817Z" fill="#6100BE"/>
<path d="M40.5807 92.8271C40.6583 87.5341 40.8908 87.1324 41.0841 84.8352C40.2094 85.7864 40.4581 92.533 40.5807 92.8271Z" fill="#6100BE"/>
<path d="M45.4746 98.6968C46.7865 99.6806 51.6067 100.996 51.6296 100.429C51.6348 100.317 49.2677 100.304 45.4746 98.6968Z" fill="#6100BE"/>
<path d="M45.7696 89.0259C45.5175 89.0343 45.5326 90.6824 46.3857 93.7533C46.4742 94.0718 46.558 94.393 46.734 94.6642C45.5467 89.136 46.1022 89.0151 45.7696 89.0259Z" fill="#6100BE"/>
<path d="M4.47899 118.807C7.68688 119.15 8.99255 119.318 9.60024 119.095C9.35036 119.044 5.12994 118.727 4.49564 118.757C4.49028 118.774 4.48504 118.79 4.47899 118.807Z" fill="#6100BE"/>
<path d="M34.8452 48.7954C34.9283 48.2784 34.5416 47.9525 34.872 47.8122C35.1862 47.6793 34.8037 46.3821 34.6616 46.5546C34.5411 46.7016 34.6979 46.852 34.6634 47.0013C34.8251 47.2144 34.6117 47.3523 34.5345 47.2113C34.5277 47.1988 34.1208 45.5117 33.6411 45.7325C33.5912 45.7554 33.5886 45.8138 33.6052 45.8668C33.7024 46.1765 33.5963 45.3612 34.8452 48.7954Z" fill="#6100BE"/>
<path d="M41.2179 107.951C45.2776 104.99 46.3544 102.771 41.1913 107.925C41.2002 107.934 41.209 107.943 41.2179 107.951Z" fill="#6100BE"/>
<path d="M12.2388 126.679C12.4366 126.717 13.305 123.285 13.1774 123.132C12.9215 122.827 12.3008 126.307 12.2388 126.679Z" fill="#6100BE"/>
<path d="M31.3819 118.037C31.1071 118.05 30.7776 119.498 30.2044 121.537C30.3176 121.432 30.3807 121.317 30.4255 121.188C31.2172 118.903 31.5646 118.028 31.3817 118.037L31.3819 118.037Z" fill="#6100BE"/>
<path d="M4.53281 46.3045C5.0826 46.3025 7.72163 46.6476 8.11904 46.3718C7.46199 46.2397 5.10192 46.0521 4.53281 46.3045Z" fill="#6100BE"/>
<path d="M17.1449 54.2357C17.4711 53.2312 17.7973 52.2268 18.1226 51.2236C17.6531 51.0498 17.0804 53.8978 17.1449 54.2357Z" fill="#6100BE"/>
<path d="M52.4876 76.0304C52.6357 75.9265 52.7253 76.0866 52.8395 76.1209C53.08 76.1923 53.2575 76.2 53.2509 76.1053C53.2353 75.8799 53.2904 76.0819 51.0678 74.9047C50.99 74.8633 50.9301 74.7719 50.807 74.8216C51.378 75.3901 52.5414 75.8686 52.4875 76.0311L52.4876 76.0304Z" fill="#6100BE"/>
<path d="M34.1357 49.1428C34.4595 50.817 34.4274 50.7864 34.5397 50.8048C34.7138 50.6153 34.6319 49.443 34.616 49.2042C34.6024 48.9981 34.0319 48.6051 34.1357 49.1428Z" fill="#6100BE"/>
<path d="M23.3359 57.2322C23.4801 59.7 23.4462 59.7013 23.6087 59.9545C23.6982 60.0936 23.8699 59.9611 23.8356 59.8051C23.5279 58.4386 23.5971 57.469 23.3366 57.2323L23.3359 57.2322Z" fill="#6100BE"/>
<path d="M20.4609 123.448C20.4861 123.63 23.2589 124.284 23.4451 124.294C23.6638 124.306 23.7117 124.086 23.5135 124.032C23.1784 123.942 21.048 123.519 20.7422 123.459C20.6515 123.442 20.5568 123.379 20.4608 123.448L20.4609 123.448Z" fill="#6100BE"/>
<path d="M3.14766 115.096C2.03441 114.968 1.00809 114.733 -0.0542345 114.744C0.852798 115.016 2.5874 115.197 3.14766 115.096Z" fill="#6100BE"/>
<path d="M39.5298 93.1195C39.5271 93.0748 39.4223 90.8959 39.3393 90.6149C38.9517 91.028 39.3748 92.7154 39.5298 93.1195Z" fill="#6100BE"/>
<path d="M2.43637 124.915C3.14757 125.355 3.96761 125.478 4.76027 125.687C4.43054 125.472 2.96646 124.969 2.43637 124.915Z" fill="#6100BE"/>
<path d="M21.4321 123.043C21.2537 122.903 21.6591 123.049 19.1797 122.29C19.3544 122.531 21.0565 123.319 21.4321 123.043Z" fill="#6100BE"/>
<path d="M2.96012 124.124C4.56513 124.668 4.5447 124.679 4.70218 124.622C4.08197 124.299 3.45778 124.049 2.82419 123.819C2.55368 123.72 2.41612 123.939 2.96025 124.123L2.96012 124.124Z" fill="#6100BE"/>
<path d="M44.9948 91.803C45.2461 93.434 45.3 93.5278 45.506 93.7296C45.3162 93.0044 45.3101 92.3245 45.2217 91.6536C45.1552 91.1483 44.9335 91.404 44.9948 91.803Z" fill="#6100BE"/>
<path d="M11.5771 126.415C11.8692 125.717 12.1352 124.741 12.2363 124.104C12.2835 123.806 11.8043 124.106 11.5771 126.415Z" fill="#6100BE"/>
<path d="M30.2241 119.428C30.2423 119.294 30.0898 119.269 30.0294 119.377C29.9957 119.437 29.9507 119.493 29.9315 119.557C29.7679 120.096 29.5529 120.62 29.5479 121.199C30.2357 119.507 30.1971 119.629 30.2248 119.428L30.2241 119.428Z" fill="#6100BE"/>
<path d="M41.1825 106.541C41.4048 106.401 42.8223 105.496 42.6546 105.296C42.277 105.466 41.7134 105.927 41.1825 106.541Z" fill="#6100BE"/>
<path d="M22.903 58.9794C22.7085 59.488 22.7622 60.3278 22.9129 60.4174C23.0536 60.5008 23.105 60.307 23.084 60.2069C23.0004 59.8029 22.945 59.3952 22.903 58.9794Z" fill="#6100BE"/>
<path d="M6.93618 119.371C6.54214 119.292 6.14574 119.299 5.69673 119.332C6.8987 119.855 7.28213 119.441 6.93618 119.371Z" fill="#6100BE"/>
<path d="M51.4741 75.7802C52.3289 76.7913 52.3571 76.1088 52.3679 76.1108C51.6402 75.7703 51.6283 75.714 51.4741 75.7802Z" fill="#6100BE"/>
<path d="M52.3679 76.1101C52.449 76.1486 52.4485 76.0734 52.4859 76.0391C52.4859 76.0391 52.4848 76.0375 52.4842 76.0367L52.4859 76.0391C52.4865 76.0357 52.487 76.033 52.4883 76.0297C52.4859 76.0314 52.4844 76.0318 52.482 76.0334C52.431 76.0399 52.3836 76.0527 52.3679 76.1101Z" fill="#6100BE"/>
<path d="M18.794 121.75C19.0336 121.833 19.2717 121.921 19.5132 121.999C20.2857 122.244 19.9172 121.521 18.794 121.75Z" fill="#6100BE"/>
<path d="M3.54883 123.073C3.8819 123.39 4.10391 123.492 4.58029 123.519C4.25662 123.379 3.93349 123.24 3.54883 123.073Z" fill="#6100BE"/>
<path d="M49.2876 99.4154C49.0199 99.2616 48.7528 99.1338 48.4455 99.1522C48.7128 99.2898 48.9824 99.4187 49.2876 99.4154Z" fill="#6100BE"/>
<path d="M54.8138 91.0779C55.8723 89.1367 55.911 85.7995 54.8057 84.9397C52.897 83.4533 51.2369 88.6364 52.2522 91.1841C52.8255 92.6227 54.0496 92.4796 54.8138 91.0779ZM52.5987 89.4311C52.5372 89.2777 53.7413 87.6497 54.076 87.4126C54.1556 87.5814 52.7082 89.3823 52.5987 89.4311ZM52.6966 90.3038C52.6036 90.2132 52.5146 90.1683 54.1519 88.0054C54.381 88.2705 54.2548 88.2733 52.6966 90.3038ZM53.2447 91.4162C53.1545 91.5219 52.9726 91.352 53.0405 91.2603C53.3527 90.8379 53.6553 90.4066 54.0602 89.9175C53.954 90.7194 53.5505 91.0571 53.2447 91.4162ZM52.9424 90.8332C52.917 90.8671 52.8457 90.9216 52.8154 90.885C52.7094 90.7555 52.6948 90.8622 53.9861 89.1448C54.048 89.0624 54.0989 88.971 54.2113 88.9445C54.2708 89.1418 54.2917 89.0538 52.9416 90.8338L52.9424 90.8332ZM55.0225 87.695C55.0141 88.0991 55.0233 88.5065 54.8413 88.9269C54.9106 87.7412 54.6508 86.1254 53.4359 85.9046C53.8923 84.7458 55.0736 85.1778 55.0225 87.695ZM53.4949 86.5418C53.4313 86.7888 52.9308 87.4423 52.7645 87.5428C52.782 87.0646 53.0668 86.7977 53.4949 86.5418ZM52.5614 88.6527C52.6064 88.4148 52.4045 88.7072 53.7338 86.8587C53.7861 86.7864 53.9265 86.8453 53.8994 86.9441C53.8099 87.2725 53.6521 87.2019 52.7347 88.4973C52.7059 88.5382 52.6592 88.5659 52.5614 88.6527Z" fill="#6100BE"/>
<path d="M58.8979 85.7562C57.5956 86.479 56.9064 89.8321 57.5891 91.6789C58.2939 93.5866 60.1652 92.697 60.6522 89.7198C61.1071 87.9536 60.4865 84.8741 58.8979 85.7562ZM58.8194 87.2244C58.5921 87.5169 58.4481 87.7367 58.226 87.9235C58.2831 87.5679 58.4808 87.3349 58.8194 87.2244ZM58.9362 87.6045C59.061 87.4491 59.159 87.547 59.0542 87.6704C58.7121 88.0731 58.3679 88.4754 57.9893 88.9189C58.0097 88.6961 57.8318 88.9797 58.9362 87.6045ZM57.9093 89.7566C57.9496 89.5438 57.7171 89.8269 59.094 88.1201C59.1161 88.0927 59.1813 88.1001 59.2264 88.0918C59.2604 88.3088 59.3307 88.1782 57.9771 89.7765C57.9545 89.7701 57.932 89.763 57.9093 89.7566ZM58.0246 90.5414C58.013 90.5546 57.9665 90.5374 57.9361 90.5345C57.903 90.465 57.9248 90.3758 57.9468 90.3484C59.2649 88.7336 59.1081 88.932 59.1965 88.8989C59.1973 88.9314 59.2124 88.9742 59.1973 88.9945C59.0378 89.2107 58.2018 90.3433 58.0253 90.5415L58.0246 90.5414ZM58.3191 91.8444C58.235 91.7323 58.258 91.67 58.3021 91.6187C58.4899 91.4015 58.6794 91.1861 58.8684 90.9699C58.8232 91.3495 58.4588 92.0294 58.3191 91.8444ZM58.1582 91.2707C58.0874 91.3555 58.0332 91.2189 58.0391 91.1878C58.0515 91.1227 58.0633 91.0491 58.1016 90.9988C58.4371 90.557 58.7789 90.1191 59.1337 89.6605C59.2842 90.0442 59.1885 90.0345 58.1589 91.2708L58.1582 91.2707ZM59.546 91.1824C59.8322 89.6699 60.3382 86.8296 58.8178 86.61C60.5763 84.5774 60.4643 90.8571 59.546 91.1824Z" fill="#6100BE"/>
<path d="M54.9427 99.4119C51.9045 99.3296 50.4857 96.9119 50.6886 97.575C51.0324 98.6985 53.823 100.234 56.0684 99.5996C58.7277 98.8479 59.7709 96.828 60.7389 95.1351C60.9278 94.8044 61.1165 94.4674 61.1844 94.09C60.8372 94.2005 58.762 99.5156 54.9427 99.4119Z" fill="#6100BE"/>
<path d="M58.6932 78.8737C60.318 80.2474 60.7501 81.787 61.4915 83.5684C61.5731 83.7635 61.6609 83.9563 61.7528 84.1674C61.8664 83.9678 60.9637 81.5074 60.884 81.2944C60.5358 80.3609 59.7207 79.2065 58.2605 78.0942C58.0765 77.9541 57.5434 77.6412 57.4413 77.8507C57.3863 77.9638 57.6123 77.9596 58.6932 78.8737Z" fill="#6100BE"/>
<path d="M48.8507 83.8173C48.7947 83.5828 47.7074 86.0099 48.1069 87.4696C48.3732 84.6198 48.9203 84.1092 48.8507 83.8173Z" fill="#6100BE"/>
<path d="M57.6833 97.3455C58.729 96.8808 59.3978 95.9496 59.3778 95.7921C59.3141 95.2978 58.7557 96.4577 57.6833 97.3455Z" fill="#6100BE"/>
<path d="M59.5612 80.7886C59.7941 81.2004 60.0309 81.6102 60.2669 82.0206C60.1301 80.6077 59.414 80.5284 59.5612 80.7886Z" fill="#6100BE"/>
<path d="M50.3939 52.7179C50.7792 52.6918 51.1292 52.0028 52.9316 51.4069C54.7154 50.8173 56.1982 51.5022 55.773 53.8047C56.1014 53.7342 56.0938 52.677 56.0824 52.3443C56.0676 51.907 55.3775 50.8113 54.1021 50.8767C52.675 50.9498 50.1931 52.218 50.3939 52.7179Z" fill="#6100BE"/>
<path d="M50.6107 51.6275C50.2001 51.9428 48.2634 53.5451 48.1265 54.0421C49.0613 53.1922 50.0089 52.4043 51.0259 51.7025C51.5601 51.3341 51.3094 51.0908 50.6107 51.6275Z" fill="#6100BE"/>
<path d="M54.6112 54.9139C54.5014 55.4161 54.2874 56.3912 54.0751 57.0943C54.4621 57.07 55.063 55.1629 55.113 54.9022C55.1937 54.4795 54.8583 53.7822 54.6112 54.9139Z" fill="#6100BE"/>
<path d="M53.5259 59.4246C53.5362 59.6112 53.6578 59.5991 53.7068 59.5698C53.9604 59.4163 54.7847 57.767 54.9594 57.3853C54.8609 57.4719 54.8081 57.5026 54.777 57.5487C53.4721 59.453 53.5239 59.3793 53.5266 59.4248L53.5259 59.4246Z" fill="#6100BE"/>
<path d="M54.3549 54.6647C54.3741 54.6599 54.394 54.6546 54.4132 54.6498C54.3278 54.011 54.243 53.3724 54.1562 52.7334C54.1205 52.4698 53.4447 52.2254 54.3549 54.6647Z" fill="#6100BE"/>
<path d="M26.9926 10.973C26.1442 10.4727 23.5543 9.21193 21.1204 9.41813C11.6746 10.217 5.8989 26.3057 12.8661 33.3503C15.1784 35.6886 19.2158 36.7945 23.2946 35.2116C29.5612 32.7806 33.4253 22.4956 30.5417 15.1668C29.7255 13.0912 28.5108 11.8682 26.9919 10.9729L26.9926 10.973ZM30.0248 14.6204C29.8654 14.6289 29.99 14.597 28.8091 14.3742C28.6573 14.3455 28.6619 14.2881 28.5547 14.0685C28.585 14.0272 28.6201 14.0381 28.6544 14.0459C29.8875 14.3193 29.8691 14.2828 29.9236 14.4104C29.9513 14.4753 29.9845 14.537 30.025 14.6198L30.0248 14.6204ZM29.8547 14.989C29.81 15.055 29.7377 14.9992 29.6797 14.991C28.8043 14.8668 28.9508 14.938 28.7841 14.5506C28.796 14.5507 29.7722 14.6281 29.8189 14.8299C29.8311 14.8842 29.8878 14.9405 29.8547 14.989ZM26.2135 30.9672C26.3834 30.7368 26.4032 30.6802 26.473 30.7046C27.3454 31.0073 27.3614 30.9935 27.3284 31.0602C27.2102 31.299 27.188 31.3088 26.9444 31.2241C26.7094 31.1424 26.4753 31.0595 26.2135 30.9672ZM27.0416 31.4334C27.0416 31.4854 27.0781 31.4263 26.8394 31.7419C26.765 31.7531 26.0953 31.5323 25.8323 31.4502C26.1228 30.9493 26.0423 31.0745 27.0415 31.4341L27.0416 31.4334ZM26.6017 30.5844C26.4711 30.533 26.6897 30.2859 26.7483 30.2619C26.7985 30.2412 27.484 30.4826 27.5156 30.4935C27.5618 30.5092 27.6137 30.5169 27.6501 30.5617C27.5867 30.6704 27.5244 30.7808 27.4402 30.8772C27.3445 30.8822 26.6677 30.6102 26.6017 30.5844ZM26.8542 30.0805C27.1615 29.6059 26.9206 29.6705 27.9943 30.0218C27.7588 30.4917 27.742 30.4135 27.576 30.3561C27.3811 30.2883 26.889 30.1264 26.8542 30.0805ZM27.1882 29.5836C27.2563 29.4315 27.3448 29.3051 27.4311 29.1677C27.7368 29.2579 28.0355 29.3446 28.3465 29.4476C28.2656 29.6043 28.1841 29.7419 28.0856 29.8805C27.7878 29.782 27.4927 29.684 27.1884 29.5829L27.1882 29.5836ZM27.5338 29.0292C27.5343 28.9675 27.487 29.0688 27.8125 28.4762C27.9427 28.4925 28.5976 28.6992 28.7125 28.7336C28.7376 28.7861 28.7054 28.8193 28.6869 28.8537C28.4218 29.3426 28.4557 29.3083 28.3432 29.2758C28.0903 29.2033 27.5945 29.0611 27.5338 29.0292ZM27.895 28.3185C28.065 27.9688 27.9716 27.6318 29.0605 28.1032C28.9997 28.2763 28.9138 28.4299 28.8292 28.5949C28.5182 28.5031 28.2193 28.4142 27.895 28.3185ZM28.3253 27.7464C28.2853 27.7354 28.2415 27.7334 28.1998 27.6904C28.2722 27.5265 28.3467 27.3588 28.4264 27.1788C28.5626 27.2081 28.6024 27.224 29.3432 27.4435C29.3271 27.5619 29.2687 27.6597 29.2216 27.7602C29.0955 28.0298 29.2732 28.0178 28.3253 27.7464ZM28.7048 26.4973C29.6467 26.7633 29.6216 26.7255 29.5873 26.8286C29.4341 27.286 29.444 27.304 29.3461 27.2763C28.318 26.9807 28.4543 27.1132 28.7047 26.498L28.7048 26.4973ZM28.761 26.3486C28.8047 26.1996 28.8599 26.0634 28.9071 25.9256C29.0521 25.9306 29.3727 26.0236 29.7992 26.1836C29.7451 26.325 29.6968 26.4506 29.6442 26.5873C29.3645 26.5119 29.0701 26.4324 28.761 26.3486ZM29.1159 25.2892C29.4159 25.3727 29.7027 25.4515 30.0073 25.5365C29.9538 25.7117 29.9082 25.8596 29.8597 26.0196C28.8215 25.7178 28.9013 25.8782 29.1158 25.2899L29.1159 25.2892ZM29.1716 25.132C29.2051 24.9257 29.2772 24.7337 29.325 24.5216C30.2132 24.7894 30.224 24.7696 30.2019 24.849C30.0631 25.3527 30.0737 25.3856 29.9831 25.36C29.7161 25.2842 29.4488 25.2097 29.1716 25.132ZM29.3705 24.3555C29.472 23.9009 29.4418 24.0306 29.4752 23.9134C29.6389 23.9311 30.0416 24.0501 30.3629 24.1762C30.3123 24.4586 30.3358 24.3458 30.2716 24.5997C30.1216 24.5951 29.8533 24.5219 29.3705 24.3555ZM29.618 23.181C29.6936 23.1377 30.0911 23.2916 30.1365 23.3149C30.1499 23.4333 30.1242 23.4726 30.0502 23.8748C29.9744 23.8787 29.6094 23.7528 29.5554 23.7342C29.4955 23.7137 29.5182 23.6899 29.618 23.181ZM30.1713 23.9279C30.2196 23.7398 30.2661 23.557 30.3152 23.3642C30.3923 23.3724 30.4572 23.3925 30.5339 23.4287C30.5051 23.6142 30.456 23.7958 30.403 23.9978C30.3174 23.9717 30.2504 23.9513 30.1713 23.9279ZM30.185 23.1437C29.9988 23.0895 29.8359 23.0418 29.663 22.9916C29.6498 22.8613 29.6968 22.7425 29.7047 22.612C29.9271 22.6492 29.9212 22.6579 29.8878 22.7716C29.8734 22.8215 29.8354 22.9744 29.885 22.9901C29.9273 23.0037 29.9508 22.9688 29.9614 22.935C29.9851 22.8616 30.003 22.7857 30.0159 22.7397C30.0864 22.6822 30.2043 22.7269 30.241 22.7739C30.2243 22.8844 30.206 23.0031 30.1842 23.1443L30.185 23.1437ZM29.7353 22.4353C29.7581 22.2592 29.7595 22.0847 29.8087 21.9102C30.1271 22.0076 30.0164 21.9656 30.0869 22.0456C30.0558 22.0615 30.0679 22.042 29.9618 22.488C29.8783 22.4954 29.8087 22.4703 29.7352 22.436L29.7353 22.4353ZM30.1288 22.0542C30.3829 21.9423 30.2971 22.2588 30.2722 22.5496C29.9513 22.7584 30.1591 22.0979 30.1288 22.0542ZM30.1307 21.7732C30.076 21.8435 29.8769 21.7686 29.8138 21.7202C29.8266 21.5598 29.84 21.3925 29.8539 21.2189C30.026 21.2515 30.1842 21.287 30.3374 21.3448C30.3676 21.4706 30.3368 21.7672 30.3189 21.8726C30.2543 21.873 30.1867 21.8855 30.1307 21.7732ZM29.8847 20.4779C29.9645 20.4713 29.9623 20.4828 30.4221 20.6231C30.4034 20.8035 30.3858 20.9778 30.3651 21.1725C29.7413 21.0242 29.8556 21.1694 29.884 20.4778L29.8847 20.4779ZM30.4454 21.3786C30.5455 21.3687 30.628 21.3998 30.7151 21.4331C30.7212 21.6196 30.7015 21.8012 30.6814 22.0002C30.3789 21.9451 30.4296 21.9701 30.4461 21.3787L30.4454 21.3786ZM30.4532 21.2004C30.4301 20.6731 30.4117 20.6296 30.4907 20.646C30.7033 20.6904 30.7339 20.6997 30.7323 20.7675C30.7294 20.9235 30.7302 21.0787 30.729 21.2519C30.6208 21.2602 30.547 21.2125 30.4533 21.1997L30.4532 21.2004ZM29.8843 19.8419C29.9064 19.8293 30.7218 19.9401 30.7195 20.1228C30.7181 20.2566 30.7426 20.3904 30.7147 20.5374C29.7422 20.2558 29.883 20.4313 29.8843 19.8419ZM29.8847 19.6511C29.8649 19.507 29.8674 19.3755 29.8618 19.2382C29.8806 19.239 30.6844 19.363 30.695 19.5293C30.7016 19.6281 30.7046 19.7269 30.7108 19.8573C30.4167 19.784 30.15 19.7174 29.8847 19.6511ZM29.81 18.5848C29.8499 18.5369 29.8384 18.5607 30.5138 18.711C30.6706 18.7463 30.6384 18.6939 30.6751 19.2455C30.6437 19.248 30.622 19.2551 30.6033 19.2501C29.7228 19.0309 29.8554 19.1753 29.81 18.5848ZM29.7798 18.1179C30.419 18.2698 30.7029 18.2379 30.6067 18.5461C30.5708 18.554 29.6112 18.5009 29.7798 18.1179ZM29.6893 17.6614C29.7214 17.6479 30.7772 17.7192 30.5446 18.1293C29.6112 17.926 29.7487 18.0447 29.6893 17.6614ZM29.6388 17.3873C29.5764 17.0533 29.5367 16.9665 29.6204 16.9837C30.5582 17.1787 30.4161 17.1841 30.4891 17.6142C30.4613 17.6201 30.4403 17.6309 30.4213 17.6273C29.6836 17.4765 29.658 17.4934 29.6382 17.3865L29.6388 17.3873ZM29.6152 16.8297C29.4943 16.8012 29.5051 16.7401 29.4593 16.5152C29.5398 16.494 29.6091 16.5204 29.6789 16.5301C30.387 16.6297 30.2907 16.6045 30.3217 16.7634C30.3742 17.0309 30.5044 17.0401 29.6145 16.8296L29.6152 16.8297ZM29.3306 16.0529C29.3648 15.9913 29.3838 16.0391 30.0924 16.162C30.176 16.1764 30.2184 16.2153 30.2267 16.2976C30.2313 16.3399 30.2404 16.3809 30.2519 16.4498C29.2764 16.3059 29.4214 16.4077 29.3313 16.053L29.3306 16.0529ZM29.3546 15.863C29.2343 15.8424 29.2469 15.7984 29.1617 15.5071C29.2005 15.4724 29.2356 15.4909 29.2688 15.4972C30.0296 15.6559 30.0569 15.6337 30.0851 15.7591C30.1024 15.8347 30.1387 15.9061 30.1284 15.9863C30.0773 16.0082 30.0968 15.9901 29.3538 15.8636L29.3546 15.863ZM28.9987 15.0741C29.0725 15.0326 29.0433 15.0573 29.8166 15.1756C29.9189 15.1914 29.9406 15.2025 29.996 15.4257C30.0219 15.5296 29.1354 15.4348 28.9987 15.0741ZM29.7595 14.1203C29.7417 14.1366 28.3364 13.9093 28.4084 13.7179C29.778 13.8487 29.6316 13.8582 29.7595 14.1203ZM29.4884 13.6879C29.4593 13.7196 28.2873 13.6017 28.2054 13.4149C28.1798 13.3574 28.1404 13.3064 28.0947 13.2325C28.2629 13.2264 27.9895 13.2063 29.1964 13.3842C29.2715 13.3956 29.4772 13.6507 29.4885 13.6872L29.4884 13.6879ZM29.1726 13.2133C29.1546 13.2569 29.1258 13.2459 29.1 13.241C27.9679 13.0092 27.9891 13.0785 27.9137 12.9582C27.8495 12.8562 27.7798 12.7574 27.6989 12.6361C27.8505 12.6318 27.5898 12.6077 28.7713 12.8054C28.8379 12.8166 29.1325 13.1397 29.1726 13.2133ZM28.6607 12.6146C28.6436 12.6162 27.5151 12.5094 27.4494 12.2892C27.462 12.2895 28.4779 12.3757 28.6607 12.6146ZM28.332 12.2681C28.2748 12.2846 28.3418 12.2868 27.4192 12.108C27.2982 12.0846 27.1948 12.0122 27.1088 11.8906C27.1339 11.8505 27.1543 11.895 28.021 12.0352C28.1694 12.0591 28.2505 12.1537 28.3312 12.2686L28.332 12.2681ZM27.8548 11.8676C26.7233 11.6064 26.8627 11.6482 26.8359 11.6045C26.8385 11.591 27.7024 11.6127 27.8548 11.8676ZM27.3207 11.5089C26.4334 11.3438 26.6239 11.4121 26.4014 11.2086C26.4499 11.1637 27.1102 11.2599 27.3207 11.5089ZM26.6414 11.0827C26.2707 11.0428 25.9843 10.9359 25.7449 10.6772C25.8575 10.6789 26.5033 10.952 26.6414 11.0827ZM17.7603 35.5645C17.8454 35.5631 17.9335 35.539 18.0319 35.6159C17.9174 35.6202 17.8381 35.5982 17.7603 35.5645ZM18.5529 10.282C29.5595 5.74816 34.1782 24.5571 23.8811 33.0175C22.2742 34.3376 20.328 35.2594 18.2578 35.3119C7.34976 35.5877 7.37265 14.8882 18.5528 10.2827L18.5529 10.282ZM18.2841 35.5885C18.5023 35.5182 18.6072 35.531 18.8139 35.6663C18.6332 35.6756 18.4476 35.7142 18.2841 35.5885ZM18.9508 35.5252C19.1055 35.4562 19.1401 35.5034 19.4529 35.6637C19.3076 35.7457 19.1207 35.6766 18.9508 35.5252ZM19.4195 35.4623C19.7375 35.328 19.7647 35.3991 20.2885 35.6534C20.1376 35.6978 19.8668 35.7013 19.4195 35.4623ZM20.0059 35.3297C20.2065 35.2336 20.1542 35.2504 20.914 35.5773C20.8096 35.6362 20.6421 35.6536 20.0059 35.3297ZM20.4911 35.1906C20.6199 35.0886 20.6405 35.1353 21.4898 35.4828C21.345 35.5508 20.5174 35.237 20.4911 35.1906ZM20.9172 35.0452C21.2218 34.8038 21.3597 34.9577 22.1786 35.3246C22.1542 35.346 20.9277 35.0753 20.9172 35.0452ZM22.7593 35.1594C22.6003 35.2283 22.4851 35.2956 22.28 35.1929C21.8192 34.9618 21.5217 34.895 21.4867 34.802C21.5114 34.7899 21.5318 34.7825 21.5494 34.7711C21.7464 34.642 21.8355 34.7277 22.6777 35.0899C22.7088 35.1035 22.7474 35.1108 22.7592 35.1601L22.7593 35.1594ZM21.9699 34.5994C22.1451 34.2928 23.3137 34.907 23.3189 34.9164C23.2994 34.9563 22.632 34.8903 21.9699 34.5994ZM23.5855 34.809C23.5198 34.8414 23.4915 34.8052 23.2471 34.7063C22.4017 34.3645 22.4497 34.4003 22.4102 34.3416C22.8399 34.0734 22.5634 34.0702 23.9637 34.5535C23.9736 34.5567 23.9788 34.5739 23.9871 34.5853C23.975 34.6272 23.9804 34.6135 23.5854 34.8096L23.5855 34.809ZM23.0106 34.0537C22.901 34.0175 23.039 33.9482 23.0977 33.9053C23.1481 33.8685 23.1987 33.8647 23.2577 33.8864C23.6459 34.0265 24.0354 34.1634 24.445 34.309C24.1625 34.6079 24.0835 34.4063 23.0098 34.0543L23.0106 34.0537ZM23.4032 33.7665C23.3914 33.7622 23.3835 33.7481 23.3671 33.7309C23.7067 33.4534 23.4638 33.4909 24.9027 33.9892C24.6728 34.329 24.6092 34.1941 23.4033 33.7659L23.4032 33.7665ZM23.9734 33.4863C23.9218 33.466 23.8634 33.4592 23.816 33.4095C23.9336 33.1033 24.1499 33.2804 25.3253 33.7028C25.0703 33.9859 25.1452 33.9425 23.9734 33.4863ZM25.2007 33.5305C24.1392 33.1106 24.2069 33.1459 24.1778 33.1031C24.202 33.079 24.2269 33.0549 24.2501 33.0291C24.3837 32.8789 24.3802 32.9161 25.6027 33.3419C25.6481 33.3575 25.7024 33.3601 25.731 33.409C25.5219 33.6874 25.3718 33.5979 25.2007 33.5305ZM26.2987 32.9493C25.8825 33.3057 26.0963 33.455 24.5449 32.7985C24.5614 32.7595 24.9033 32.3582 25.0262 32.406C25.4365 32.5664 25.8476 32.7264 26.2577 32.8875C26.2766 32.8953 26.2971 32.9055 26.2987 32.9493ZM26.3458 32.7448C25.6588 32.4667 25.3605 32.371 25.0916 32.2492C25.1332 32.2037 25.1608 32.1802 25.1796 32.1514C25.2547 32.04 25.2809 32.0871 26.3362 32.4545C26.4494 32.4942 26.5659 32.5233 26.6729 32.5737C26.6769 32.6341 26.5393 32.8236 26.3458 32.7448ZM25.3773 31.9446C25.4907 31.8201 25.5914 31.7107 25.6916 31.6005C25.7747 31.5987 27.1228 32.0096 27.1732 32.0879C26.7973 32.4948 27.0909 32.6599 25.3773 31.9446ZM27.0257 31.8291C26.9799 31.8155 26.9282 31.8106 26.8876 31.7616C27.1494 31.3794 27.1312 31.4609 27.5423 31.6061C27.3453 32.0686 27.1844 31.8767 27.0257 31.8291ZM27.6759 31.4671C27.5296 31.4247 27.3949 31.3873 27.2565 31.3176C27.3237 31.2257 27.386 31.1413 27.4504 31.0532C27.5962 31.0948 27.7392 31.1289 27.8739 31.2105C27.8041 31.3012 27.7401 31.3838 27.6759 31.4671ZM27.9563 31.0906C27.8163 31.0627 27.6891 31.0008 27.5358 30.9395C27.837 30.5086 27.7035 30.5536 28.2046 30.7165C28.1321 30.8586 28.0432 30.9688 27.9564 31.09L27.9563 31.0906ZM28.2941 30.5994C28.2249 30.6094 27.9433 30.4993 27.9018 30.4627C27.8959 30.4012 28.0919 30.1329 28.1512 30.0901C28.1879 30.0634 28.3436 30.1153 28.5396 30.2071C28.4677 30.3458 28.3798 30.4731 28.2948 30.5995L28.2941 30.5994ZM28.5687 30.0603C28.462 30.024 28.3546 29.9868 28.2447 29.9373C28.3406 29.7863 28.4278 29.6483 28.5216 29.5011C28.6388 29.5345 28.7539 29.5676 28.8837 29.6048C28.8752 29.6347 28.669 30.0941 28.5687 30.0603ZM28.9667 29.478C28.844 29.4365 28.7318 29.3991 28.6045 29.3561C28.9462 28.6739 28.8481 28.7698 29.2566 28.925C29.1623 29.1044 29.0677 29.2851 28.9668 29.4773L28.9667 29.478ZM29.3362 28.7562C29.2217 28.7198 29.1204 28.6879 29.0085 28.6527C29.0647 28.4704 29.1627 28.3162 29.2347 28.1467C29.3524 28.1626 29.4606 28.195 29.5745 28.2348C29.5175 28.4136 29.4251 28.5722 29.3363 28.7555L29.3362 28.7562ZM29.3237 28.0365C29.291 27.9903 29.2875 28.0198 29.5177 27.5117C29.6317 27.5213 29.735 27.5612 29.8525 27.6003C29.6137 28.2317 29.7023 28.1453 29.3238 28.0358L29.3237 28.0365ZM29.9405 27.3874C29.9083 27.4761 29.8319 27.4237 29.7183 27.3896C29.5516 27.3398 29.5699 27.3917 29.7745 26.8148C29.8821 26.817 29.9734 26.8574 30.0682 26.8831C30.1363 26.9016 30.1079 26.9327 29.9412 27.3875L29.9405 27.3874ZM30.1768 26.7506C29.8498 26.6543 29.9443 26.6848 29.8403 26.6413C29.8389 26.5821 29.8485 26.5684 29.9661 26.2433C30.054 26.2311 30.1253 26.2699 30.1999 26.2875C30.3419 26.3228 30.3244 26.2893 30.1769 26.7499L30.1768 26.7506ZM30.3583 26.1624C30.2471 26.1308 30.1405 26.1008 30.0221 26.0664C30.0727 25.8991 30.1194 25.7451 30.1698 25.5785C30.2853 25.606 30.3927 25.6319 30.5148 25.6614C30.4711 25.837 30.4221 25.9955 30.3583 26.1624ZM30.2227 25.4215C30.259 25.2297 30.3202 25.0434 30.3797 24.8588C30.4429 24.8511 30.666 24.9144 30.7135 24.9676C30.692 25.0477 30.619 25.5596 30.2227 25.4215ZM30.7656 24.7739C30.6396 24.7536 30.5375 24.7111 30.4291 24.6758C30.465 24.5233 30.4982 24.3808 30.5319 24.2362C30.5853 24.2175 30.5971 24.2289 30.8735 24.3149C30.8377 24.4668 30.8033 24.6154 30.7663 24.774L30.7656 24.7739ZM30.9153 24.12C30.8441 24.1437 30.7926 24.1122 30.7406 24.0974C30.5459 24.0437 30.5623 24.0609 30.6043 23.8688C30.6315 23.7434 30.6547 23.6172 30.6853 23.463C30.7997 23.4959 30.9009 23.5248 31.016 23.5579C30.9916 23.754 30.9524 23.9389 30.9154 24.1193L30.9153 24.12ZM31.0507 23.3932C30.3559 23.1936 30.5523 23.2497 30.347 23.1926C30.3641 23.0576 30.379 22.9383 30.3929 22.8237C30.4276 22.7888 30.3895 22.7788 30.9914 22.9468C31.132 22.986 31.115 22.9498 31.0507 23.3932ZM31.1085 22.8061C30.2685 22.5804 30.4023 22.756 30.4287 22.1307C30.4805 22.0906 30.6355 22.0722 30.7006 22.3513C30.8146 22.3827 30.7113 22.1722 30.9433 22.2365C31.0181 22.2569 31.0971 22.2656 31.1663 22.3152C31.153 22.4748 31.1586 22.638 31.1092 22.8062L31.1085 22.8061ZM31.1779 22.1538C31.0482 22.1384 30.9353 22.1009 30.8295 22.0444C30.8484 21.8556 30.8672 21.6711 30.8861 21.4894C31.3137 21.2804 31.2007 21.8332 31.1779 22.1538ZM31.2211 21.4067C31.097 21.3727 31.0023 21.3464 30.895 21.3163C30.8952 21.2377 30.8899 20.8352 30.9123 20.7615C31.3203 20.8303 31.2497 20.7215 31.2219 21.4062L31.2211 21.4067ZM31.2425 20.459C31.2442 20.5281 31.2607 20.6001 31.2223 20.6735C30.8334 20.5852 30.8979 20.6598 30.8893 20.1044C30.9097 20.097 30.9237 20.0857 30.9344 20.0884C31.3089 20.1824 31.2321 20.0914 31.2425 20.459ZM31.2071 19.9786C30.9041 19.9149 30.8214 19.9666 30.8755 19.4877C30.9849 19.5105 31.0881 19.5321 31.188 19.5531C31.2278 19.621 31.2439 19.9139 31.2071 19.9786ZM31.1981 19.3774C30.7639 19.4469 30.8358 19.1488 30.817 18.7993C30.8938 18.7794 30.9617 18.8098 31.0307 18.8235C31.1868 18.8552 31.1545 18.8105 31.1988 19.3776L31.1981 19.3774ZM31.1274 18.5758C31.1401 18.6976 31.1333 18.704 31.0225 18.6774C30.7709 18.6165 30.7761 18.6448 30.7919 18.3572C30.8628 18.372 30.9182 18.3832 30.9734 18.3958C31.0654 18.4165 31.1167 18.4765 31.1274 18.5758ZM31.0745 18.2394C30.6928 18.3286 30.724 17.9632 30.7167 17.872C31.082 17.9222 31.0381 17.8648 31.0745 18.2394ZM31.0053 17.7561C30.6646 17.7098 30.6669 17.7278 30.6058 17.2902C30.6048 17.2844 30.6102 17.2784 30.6171 17.2601C30.973 17.2411 30.9278 17.4094 31.0053 17.7561ZM30.8312 16.9819C30.8989 17.1948 30.8394 17.1533 30.6765 17.1134C30.5196 17.0746 30.5327 16.9682 30.4864 16.7236C30.4841 16.7099 30.4861 16.6955 30.4863 16.6647C30.8349 16.6878 30.743 16.7062 30.8312 16.9819ZM30.72 16.5201C30.4818 16.5887 30.3663 16.4496 30.3635 16.2385C30.3982 16.2184 30.6373 16.2489 30.6498 16.2864C30.6744 16.3605 30.6953 16.4354 30.72 16.5201ZM30.592 16.0768C30.3594 16.1339 30.192 15.9913 30.2036 15.7043C30.4801 15.7223 30.4855 15.7162 30.592 16.0768ZM30.4075 15.5794C30.1069 15.6586 30.0739 15.3513 30.0374 15.244C30.272 15.1017 30.4321 15.4829 30.4075 15.5794ZM30.2346 15.0841C29.9939 15.1698 29.8086 14.8322 29.8874 14.7573C29.9336 14.7134 30.1142 14.7862 30.1449 14.8502C30.1812 14.9252 30.2226 14.999 30.2339 15.084L30.2346 15.0841Z" fill="#6100BE"/>
<path d="M15.9176 13.0781C16.0414 12.9281 16.1369 12.5939 15.5448 13.1493C10.6187 17.7705 9.75871 26.2045 11.8884 29.8566C10.732 26.1634 10.9067 22.7116 11.8149 19.8C13.1185 15.622 15.5108 13.5703 15.9176 13.0781Z" fill="#6100BE"/>
<path d="M21.8857 33.1788C22.1426 33.4008 24.4319 31.7374 25.3657 30.1735C27.0363 27.3746 27.6232 24.7595 27.583 24.6192C27.4528 24.6662 26.8318 27.2503 25.2986 29.8161C24.7071 30.8062 22.148 32.8045 21.8863 33.1789L21.8857 33.1788Z" fill="#6100BE"/>
<path d="M22.2754 12.8185C22.2648 12.9744 25.8097 24.8398 25.9165 24.9541C25.7805 24.4679 22.9456 14.001 22.2754 12.8185Z" fill="#6100BE"/>
<path d="M15.9161 33.0243C15.7752 31.9111 16.0665 34.6734 13.3321 20.5308C13.2584 20.7906 15.1919 31.946 15.9161 33.0243Z" fill="#6100BE"/>
<path d="M24.8164 11.6682C24.822 11.6349 24.8081 11.6196 24.7893 11.6076C21.0788 9.23421 18.402 11.484 18.5044 11.6402C18.5621 11.7284 20.4095 9.60097 24.8157 11.6681L24.8164 11.6682Z" fill="#6100BE"/>
<path d="M20.1206 21.8351C20.1211 21.7026 17.8486 12.7248 17.7666 12.524C17.5991 13.0159 20.1155 21.8215 20.1206 21.8351Z" fill="#6100BE"/>
<path d="M18.5645 26.3289C19.6086 31.2011 21.557 37.531 18.7451 26.8684C18.6966 26.6838 18.6646 26.4931 18.5645 26.3289Z" fill="#6100BE"/>
<path d="M23.4028 18.4358C23.3508 18.2954 23.2116 18.3154 23.2593 18.4858C24.6218 23.3516 24.4756 22.5449 24.7686 23.6216C24.7112 23.1089 24.5555 22.7488 24.0489 20.8505C23.8596 20.1415 23.5281 18.7747 23.4035 18.4359L23.4028 18.4358Z" fill="#6100BE"/>
<path d="M13.4199 25.2441C13.3608 25.579 14.2738 30.1611 14.571 30.5226C14.4955 30.3322 13.6933 26.6919 13.4199 25.2441Z" fill="#6100BE"/>
<path d="M18.5784 19.266C18.5778 19.2539 17.8036 14.5837 17.5508 14.2769C17.533 14.4707 18.2272 18.0702 18.5784 19.266Z" fill="#6100BE"/>
<path d="M26.1782 22.8467C26.1864 22.7591 25.3894 18.8762 25.0119 18.3015C24.9898 18.3072 26.1754 22.8356 26.1782 22.8467Z" fill="#6100BE"/>
<path d="M28.3109 15.7502C28.2087 15.5708 28.0494 15.5786 28.147 15.8967C28.2282 16.1613 28.5468 17.0547 28.7257 18.1709C28.7595 18.3816 28.7833 18.5931 28.7674 18.8105C29.0195 18.4574 28.514 16.108 28.3102 15.75L28.3109 15.7502Z" fill="#6100BE"/>
<path d="M20.8771 31.9466C20.6226 30.8926 20.3631 29.8833 20.0625 28.8838C20.1098 29.2051 20.7178 31.7354 20.8771 31.9466Z" fill="#6100BE"/>
<path d="M17.0801 15.3203C17.038 15.6317 17.4255 16.4982 17.585 17.6318C17.6331 16.9214 17.2423 15.6458 17.0801 15.3203Z" fill="#6100BE"/>
<path d="M22.3467 14.8659C22.171 14.9934 22.7337 16.7515 22.7959 16.9492C22.804 16.9473 22.8121 16.9453 22.8203 16.9426C22.3382 14.7183 22.4579 15.2463 22.3467 14.8659Z" fill="#6100BE"/>
<path d="M16.337 34.1825C16.4494 34.2964 17.5589 34.3997 17.6199 34.3334C17.6105 34.3238 17.6027 34.3091 17.592 34.3063C17.1653 34.2066 16.0329 33.8723 16.3371 34.1818L16.337 34.1825Z" fill="#6100BE"/>
<path d="M13.5 29.353C13.5157 29.6669 13.6094 29.9577 13.6979 30.2503C13.7155 30.3091 14.0377 30.8052 13.5 29.353Z" fill="#6100BE"/>
</g>
<g clip-path="url(#clip2_650_24164)">
<path d="M316.257 74.2497C317.68 73.9124 318.413 73.6445 319.563 73.0683C319.912 72.8926 319.649 72.7164 319.82 71.6095C320.896 64.6403 322.209 63.1634 322.249 62.6232C320.837 61.3384 319.468 59.8455 317.847 57.5252C314.916 53.3315 313.27 49.1361 317.856 46.8589C322.035 44.7835 328.771 45.5226 333.235 50.1175C333.411 50.0125 333.59 49.9113 333.764 49.8019C336.983 47.7721 336.357 49.5687 336.44 46.8549C336.511 44.5294 337.228 42.7071 338.108 41.5579C338.941 40.4695 339.92 40.1693 341.057 39.8909C347.506 38.3138 352.611 42.5475 352.726 42.5607C354.398 42.7538 378.888 33.3955 395.409 54.2121C406.184 67.7888 402.762 81.2059 402.552 92.4051C402.204 110.924 411.773 113.732 396.817 116.812C389.477 118.324 389.47 117.567 387.917 115.372C387.133 114.266 386.827 113.639 385.938 113.006C384.943 112.299 384.357 111.734 383.399 111.994C378.732 113.266 377.558 113.766 377.653 115.316C377.859 118.646 381.697 122.262 370.141 125.52C352.385 130.527 360.182 121.996 355.632 118.234C355.128 117.816 355.515 118.323 355.161 121.227C354.787 124.291 351.442 123.884 345.033 124.972C341.893 125.505 340.37 126.129 339.157 124.278C337.49 121.731 338.339 116.886 336.158 114.097C333.948 111.272 330.314 111.246 324.511 104.194C318.235 96.5671 324.557 101.257 316.296 98.4845C312.884 97.339 310.633 93.8715 309.772 90.3312C308.354 84.4959 309.972 75.7409 316.258 74.2504L316.257 74.2497ZM315.649 51.4815C316.329 55.0126 319.908 59.7182 322.441 61.9769C322.523 62.0499 322.658 61.9056 322.588 61.8129C322.444 61.6233 321.747 60.9873 320.776 59.7566C320.62 59.5581 320.452 59.3647 320.334 59.0606C325.263 64.1957 321.364 59.7338 321.36 59.5972C322.088 60.0791 322.916 61.1611 323.039 61.0059C323.164 60.8505 322.577 60.5817 322.335 60.0428C323.156 60.6384 323.144 60.7483 323.253 60.6384C323.632 60.2571 321.137 58.7388 320.31 57.2864C320.507 57.1993 321.174 58.093 323.671 59.9339C324.64 58.457 324.35 59.5311 324.587 55.0684C324.599 54.8387 324.473 54.6801 324.297 54.4256C324.034 57.4079 323.988 58.1711 323.768 58.9511C324.022 53.4697 324.069 53.8348 323.735 53.5795C323.714 53.6872 323.476 57.701 323.197 59.0605C323.128 58.9769 323.116 59.4535 323.362 54.1394C323.397 53.3676 323.596 53.0422 322.989 52.6278C322.729 56.2278 322.877 54.761 322.423 58.2525C322.015 57.9682 323.252 51.8172 322.253 51.9837C322.1 53.8314 321.826 55.6723 321.414 57.4917C321.227 56.7494 322.534 51.1705 321.451 51.3381C321.17 53.0507 321.688 51.0195 320.628 56.6466C320.529 56.5418 320.456 56.9122 321.155 51.3479C321.191 51.0617 321.096 50.931 320.867 50.8451C320.731 50.8862 320.193 55.615 319.854 55.974C320.543 50.2453 320.716 50.4995 320.062 50.3425C320.023 50.6454 319.585 54.2343 319.23 55.0715C319.732 49.8862 319.894 50.1223 319.559 50.0425C319.295 49.9801 319.121 53.491 318.674 54.3267C318.675 54.3145 319.156 49.8977 319.122 49.822C321.78 49.4916 326.482 55.6251 325.463 56.039C325.139 56.1704 325.062 55.6186 324.835 55.4826C324.834 55.4947 324.541 58.2897 324.564 58.4362C324.833 58.4352 325.285 57.4603 326.811 55.7992C327.174 55.4043 326.213 54.5557 326.284 54.2848C326.544 54.4693 326.696 54.7366 327.082 55.2771C327.166 55.3952 327.34 55.2745 327.323 55.1557C327.265 54.7665 326.048 52.8884 326.102 52.6991C326.7 53.3868 327.108 54.175 327.547 54.9328C327.834 54.8155 327.781 54.6886 327.697 54.5656C325.886 51.9308 323.78 49.3954 320.287 48.341C318.797 47.8909 315.083 48.5278 315.651 51.4806L315.649 51.4815ZM320.412 46.6048C320.177 46.654 319.937 46.6911 319.668 46.8543C320.755 47.0339 323.286 47.6639 324.175 48.3127C323.45 48.0316 322.435 47.6902 321.038 47.4696C322.286 47.9185 323.959 48.4491 326.204 50.7054C326.167 50.7376 321.48 47.3866 320.92 47.8996C324.098 49.1821 326.489 51.3478 328.182 54.3171C328.46 54.1235 328.669 53.8994 328.895 53.6614C328.694 53.416 328.502 53.1813 328.291 52.9243C328.441 52.8839 328.477 52.9333 329.023 53.3818C329.16 53.4941 329.39 53.3185 329.258 53.1331C328.912 52.6496 328.852 52.6518 328.884 52.4998C329.153 52.6235 329.301 52.8868 329.545 53.0345C329.714 52.9863 329.817 52.8509 329.946 52.7165C329.797 52.4027 329.483 52.2194 329.296 51.9199C329.396 51.8554 329.454 51.9356 329.51 51.9741C330.277 52.4965 330.151 52.6095 330.502 52.2034C330.269 51.919 330.034 51.6309 329.757 51.2929C330.296 51.3593 330.668 52.3593 331.042 51.7895C331.138 51.6436 331.011 51.5736 329.845 50.5443C330.115 50.505 331.029 51.2424 331.231 51.4141C331.423 51.5784 331.721 51.3304 331.527 51.1741C330.285 50.1697 330.515 50.3613 329.421 49.5849C329.526 49.4739 329.61 49.5941 329.68 49.6313C332.109 50.9293 331.662 51.0574 331.954 51.0436C332.061 51.0387 332.18 50.9207 331.862 50.6145C331.312 50.0855 331.035 49.9309 328.029 47.8958C328.164 47.8351 331.418 49.5347 332.299 50.6147C332.435 50.782 332.668 50.5742 332.696 50.4694C332.844 49.896 326.939 45.2404 320.413 46.6059L320.412 46.6048ZM326.798 97.8727C327.64 97.6151 328.431 97.2548 328.831 97.1875C327.471 98.1855 324.227 98.9994 322.577 99.3117C322.12 100.332 331.244 107.982 331.672 108.353C331.295 108.287 325.808 104.042 323.208 100.931C321.946 99.4213 322.386 99.3225 321.883 99.4887C322.019 99.8707 325.768 106.334 332.807 110.735C337.653 113.764 342.969 115.367 348.663 116.465C348.341 117.063 339.845 114.662 339.682 114.706C340.299 116.5 340.888 118.299 341.309 120.15C341.062 119.665 341.278 120.086 339.538 115.224C339.255 114.432 339.074 114.393 338.732 114.386C338.736 114.397 339.811 116.934 340.854 121.323C340.51 121.257 338.682 113.258 337.754 114.017C337.371 114.33 338.15 113.193 340.088 121.512C340.128 121.682 340.328 122.572 340.315 122.988C340.156 122.148 338.044 113.721 336.666 113.515C336.518 113.385 336.371 113.449 336.613 113.656C338.837 116.988 338.193 120.597 339.309 123.296C340.406 125.95 341.752 124.722 349.03 123.711C353.872 123.038 354.825 123.391 354.746 118.261C354.735 117.564 354.759 117.612 354.287 117.425C354.109 117.354 353.959 117.267 353.957 117.082C353.95 116.469 356.486 117.304 357.298 119.714C358.383 122.936 357.918 125.867 360.139 126.382C362.557 126.943 372.553 124.92 376.223 122.275C379.066 120.226 377.324 117.982 377.062 115.471C376.887 113.799 378.164 113.302 377.611 113.379C376.38 113.551 371.055 114.776 367.431 115.02C367.379 115.034 367.422 114.908 367.42 114.978C367.42 114.981 367.437 114.99 367.445 114.988C384.956 112.769 388.685 108.287 392.592 105.763C392.041 106.722 387.641 109.664 386.724 110.313C387.849 111.516 388.931 112.716 389.833 114.069C388.841 112.99 388.003 112.031 386.874 110.916C386.588 110.633 386.449 110.435 386.256 110.597C386.14 110.694 385.966 110.715 385.885 110.892C386.93 111.53 389.568 114.553 389.997 115.348C389.725 115.194 389.01 114.137 386.738 111.963C385.519 110.798 385.338 111.05 384.717 111.407C384.808 111.657 385.996 111.883 387.4 113.598C389.793 116.519 388.879 117.362 393.056 116.853C395.895 116.507 399.03 115.725 401.384 114.975C403 114.46 404.227 113.827 404.573 112.097C405.167 109.133 403.573 108.382 402.533 101.289C401.3 92.8778 402.319 91.6358 402.648 77.9013C403.115 58.4076 388.12 39.7532 363.797 41.3548C359.277 41.6522 354.387 42.7954 353.388 43.1683C353.879 44.4013 353.275 42.8906 364.463 42.2936C366.098 42.206 369.394 42.0539 371.012 42.2468C369.05 42.3142 353.45 43.1025 354.143 44.1645C354.946 45.3933 356.5 48.7924 356.513 49.3171C356.154 49.4539 354.539 44.2771 351.33 42.3427C347.895 40.2721 344.504 40.0155 344.156 40.1859C344.204 40.3011 346.376 41.3304 346.53 41.6317C346.598 41.6239 346.639 41.6506 346.647 41.7206L346.645 41.7223L346.647 41.7206C346.917 41.7193 346.591 41.9656 346.641 41.7274C346.583 41.8042 346.537 41.7526 346.489 41.7146C346.499 41.6855 346.512 41.6591 346.529 41.6348C346.512 41.6598 346.498 41.6863 346.489 41.7147C346.399 41.6846 346.31 41.6544 346.139 41.5963C348.647 43.5003 350.441 45.9298 350.97 46.9879C349.251 44.924 347.211 42.3417 344.489 40.98C344.682 41.4102 346.575 41.9104 348.974 45.5715C350.233 47.4937 351.753 51.2097 351.76 51.2203C350.352 48.8126 348.581 44.6773 346.23 42.8221C349.668 46.3478 352.172 52.7792 351.386 58.701C351.356 58.7566 351.333 58.8191 351.395 58.8593C351.415 58.8718 351.469 58.83 351.507 58.8136C352.274 58.3639 352.423 58.8894 352.169 54.333C352.153 54.058 352.104 53.7846 352.104 53.4967C352.608 55.1589 352.462 57.9332 352.62 58.0653C353.323 57.9197 352.751 56.4528 352.96 55.1906C353.151 56.0066 353.163 56.7721 353.267 57.5562C353.576 57.412 353.778 57.2307 353.808 56.8768C353.848 56.4116 353.892 55.9492 353.783 55.4202C354.172 55.7894 353.969 56.7192 354.176 56.7755C354.54 56.8745 357.197 53.2172 357.249 53.2291C357.291 53.2977 357.257 53.3609 357.227 53.4193C355.093 57.6408 352.777 58.6672 351.785 59.3542C350.477 60.2593 349.415 59.8328 347.678 58.2459C347.539 58.1186 347.187 57.7816 347.262 57.6081C347.963 58.1843 349.566 59.2126 350.493 59.2518C350.969 59.2719 351.645 55.045 349.594 49.5189C347.051 42.664 341.453 39.0207 338.915 41.5491C335.845 44.607 337.539 51.6023 337.003 51.9417C336.709 51.1951 336.452 49.1865 336.449 49.1765C333.135 50.0543 320.889 58.9387 320.357 72.5614C320.723 72.523 323.05 71.1266 323.821 70.6754C323.959 71.0978 318.494 74.2055 318.325 74.3021C318.477 74.5568 320.117 74.5216 322.166 76.5632C325.231 79.6188 327.15 85.5833 325.52 91.7161C323.843 98.0269 319.542 98.3966 319.629 98.6645C319.749 99.0355 323.029 99.0268 326.795 97.8725L326.798 97.8727ZM321.497 97.0257C326.25 93.5369 326.885 83.9792 322.878 78.3339C317.483 70.7321 308.3 76.3044 310.046 88.8145C310.892 95.0052 316.543 100.663 321.497 97.0263L321.497 97.0257Z" fill="#6100BE"/>
<path d="M341.09 52.4795C341.425 52.3838 341.631 52.6082 341.86 52.404C342.335 51.9807 346.286 50.5949 346.733 50.321C346.639 49.8985 346.656 49.8477 346.155 50.0766C345.728 50.271 341.372 52.1713 340.923 52.0333C341.65 51.6935 343.458 50.8936 344.163 50.5897C346.601 49.5374 346.624 49.7133 346.462 49.3495C346.367 49.1366 346.314 49.1922 345.807 49.437C343.221 50.6843 343.353 50.5836 340.695 51.6853C340.243 51.8727 340.751 51.8621 339.993 52.2401C338.437 53.0146 337.115 52.5684 337.357 52.0798C337.609 51.5704 338.208 52.808 340.495 51.6207C346.365 48.572 346.408 49.1779 346.142 48.5629C345.96 48.1453 346.537 48.2762 338.97 51.5675C339.006 51.4632 339.086 51.4114 339.182 51.3624C346.133 47.7764 346.01 48.2503 345.802 47.8665C345.653 47.5935 346.361 47.5206 338.367 51.2029C338.521 51.046 338.623 50.9692 338.746 50.9059C346.326 47.0014 345.717 47.629 345.334 47.0853C345.09 46.7398 343.494 48.0146 339.145 49.9025C339.163 49.791 338.572 50.1281 344.307 47.0713C344.829 46.7928 345.098 46.76 344.956 46.5546C344.822 46.3589 344.781 46.4207 344.573 46.5288C342.625 47.5439 344.161 46.7822 339.024 49.2971C339.636 48.7231 344.476 46.225 344.619 46.113C344.093 45.5086 344.745 45.5079 340.619 47.4701C340.308 47.6181 339.272 48.1159 338.842 48.1314C340.651 47.2984 342.256 46.2914 343.995 45.5446C343.952 44.5912 342.477 45.8445 338.979 47.2849C340.377 46.4419 341.794 45.6446 343.266 44.9639C343.168 44.056 339.716 46.2527 339.129 46.1496C341.789 44.7374 342.602 44.5139 342.363 44.3782C341.936 44.1367 342.183 44.1665 339.568 45.2285C340.107 44.7412 340.81 44.533 341.436 44.1359C340.688 43.73 339.155 44.8793 339.055 44.9031C338.951 44.6833 339.676 43.6779 340.517 43.5244C344.354 42.8229 347.884 48.5428 347.84 54.2393C347.836 54.7012 347.844 55.2815 347.548 55.5692C347.335 55.775 347.397 55.2194 347.224 55.0136C346.375 55.2682 346.481 55.2566 346.178 55.2206C346.417 55.0349 346.706 54.9641 346.968 54.8374C347.192 54.7289 347.349 54.6901 347.264 54.5062C347.213 54.3966 347.221 54.4153 345.701 54.8821C345.503 54.9426 345.708 55.1684 345.854 55.3906C342.555 53.0896 341.621 53.1413 341.027 52.8606C340.875 52.7891 340.851 52.5487 341.093 52.4798L341.09 52.4795ZM345.643 54.7948C347.057 54.1235 347.208 54.1622 347.248 54.0024C347.272 53.9081 347.249 53.7467 347.129 53.7855C346.444 54.01 345.761 54.239 345.045 54.4769C345.376 54.8073 345.405 54.9071 345.643 54.7948ZM345.102 54.3433C347.195 53.4116 347.243 53.4637 347.234 53.2436C347.218 52.864 347.225 52.9904 344.612 53.8984C344.553 53.9186 344.476 53.9114 344.435 54.026C344.492 54.0973 344.847 54.4562 345.102 54.3426L345.102 54.3433ZM344.543 53.8138C347.208 52.6568 347.193 52.7662 347.158 52.4802C347.105 52.0515 346.738 52.6017 344.109 53.39C343.995 53.4241 343.87 53.4317 343.751 53.5882C344.098 53.832 344.173 53.9751 344.543 53.8138ZM342.94 53.0784C343.368 53.3707 343.644 53.68 343.988 53.3111C347.521 51.782 347.128 52.1293 347.003 51.4686C346.774 51.4544 347.295 51.3733 343.113 52.8463C343.085 52.8173 343.001 52.7883 343.089 52.7477C346.951 50.945 347.15 51.3334 346.822 50.6691C346.713 50.6189 346.621 50.6853 346.533 50.7265C344.099 51.8639 341.884 52.266 341.877 52.4962C341.875 52.581 341.864 52.552 342.939 53.0786L342.94 53.0784Z" fill="#6100BE"/>
<path d="M327.655 66.0169C329.23 64.6387 330.349 67.3489 328.679 68.9507C328.558 69.067 328.4 69.1558 328.245 69.2239C326.659 69.9177 326.382 67.131 327.655 66.0169ZM328.454 66.5585C328.665 66.4399 328.47 66.2248 328.285 66.3069C328.255 66.3204 328.226 66.3413 328.202 66.3648C327.809 66.7452 327.574 67.1982 327.54 67.8433C327.792 67.3274 327.993 66.8169 328.454 66.5585Z" fill="#6100BE"/>
<path d="M376.203 114.304C375.952 114.883 367.614 116.112 362.676 116.412C361.341 116.494 360.006 116.591 358.674 116.543C367.61 116.199 376.348 113.968 376.203 114.304L376.203 114.304Z" fill="#6100BE"/>
<path d="M327.466 75.1057C329.03 77.3739 330.378 82.2482 330.641 84.9794C330.77 86.3222 330.886 90.2471 330.506 91.277C330.49 90.7606 331.094 86.4104 329.334 80.2993C328.257 76.5558 327.143 75.3101 326.856 74.6373C326.84 74.5997 326.915 74.306 327.466 75.1058L327.466 75.1057Z" fill="#6100BE"/>
<path d="M322.611 69.4994C322.537 69.3659 322.497 69.2141 322.449 69.0877C322.408 68.2082 322.643 67.2948 323.436 66.9027C324.098 66.5746 325.021 67.8394 324.17 69.0989C323.747 69.7258 322.97 70.148 322.611 69.4992L322.611 69.4994ZM323.519 67.4969C323.203 67.8149 322.817 68.5114 323.012 68.8057C323.108 68.744 323.12 68.64 323.143 68.5436C323.229 68.1855 323.381 67.8626 323.643 67.597C323.773 67.4642 323.572 67.4441 323.52 67.4961L323.519 67.4969Z" fill="#6100BE"/>
<path d="M353.541 121.954C353.234 122.593 329.806 126.339 351.669 122.284C352.287 122.169 352.907 122.065 353.541 121.954Z" fill="#6100BE"/>
<path d="M346.824 47.8694C347.184 48.04 349.202 52.9511 348.647 56.6905C348.517 57.5694 348.278 57.385 348.29 57.2523C348.405 55.8948 347.974 51.169 346.824 47.8694Z" fill="#6100BE"/>
<path d="M331.546 107.022C331.535 107.041 331.523 107.059 331.511 107.078C323.434 101.03 323.534 99.3792 324.445 100.49C325.578 101.871 326.481 102.628 329.05 104.865C329.879 105.587 330.714 106.303 331.546 107.022Z" fill="#6100BE"/>
<path d="M359.231 43.8367C360.521 43.2262 366.869 43.0552 368.443 42.996C368.446 43.0249 368.45 43.0537 368.453 43.0826C365.379 43.3338 362.305 43.5855 359.231 43.8367Z" fill="#6100BE"/>
<path d="M356.212 51.8855C356.198 51.9217 355.403 49.1881 352.553 44.2246C353.652 44.0882 355.886 50.7526 356.212 51.8855Z" fill="#6100BE"/>
<path d="M359.8 125.671C359.798 125.66 358.693 121.857 357.337 118.16C357.275 117.989 357.278 117.988 357.325 117.751C358.207 118.509 359.561 124.407 359.8 125.671Z" fill="#6100BE"/>
<path d="M332.076 90.8271C331.998 85.5341 331.765 85.1324 331.572 82.8352C332.447 83.7864 332.198 90.533 332.076 90.8271Z" fill="#6100BE"/>
<path d="M327.182 96.6968C325.87 97.6806 321.05 98.9957 321.027 98.4294C321.021 98.3167 323.389 98.3039 327.182 96.6968Z" fill="#6100BE"/>
<path d="M326.887 87.0259C327.139 87.0343 327.124 88.6824 326.271 91.7533C326.182 92.0718 326.098 92.393 325.922 92.6642C327.11 87.136 326.554 87.0151 326.887 87.0259Z" fill="#6100BE"/>
<path d="M337.811 46.7954C337.728 46.2784 338.115 45.9525 337.784 45.8122C337.47 45.6793 337.853 44.3821 337.995 44.5546C338.115 44.7016 337.958 44.852 337.993 45.0013C337.831 45.2144 338.045 45.3523 338.122 45.2113C338.129 45.1988 338.535 43.5117 339.015 43.7325C339.065 43.7554 339.068 43.8138 339.051 43.8668C338.954 44.1765 339.06 43.3612 337.811 46.7954Z" fill="#6100BE"/>
<path d="M331.438 105.951C327.379 102.99 326.302 100.771 331.465 105.925C331.456 105.934 331.447 105.943 331.438 105.951Z" fill="#6100BE"/>
<path d="M360.417 124.679C360.22 124.717 359.351 121.285 359.479 121.132C359.735 120.827 360.355 124.307 360.417 124.679Z" fill="#6100BE"/>
<path d="M341.274 116.037C341.549 116.05 341.879 117.498 342.452 119.537C342.339 119.432 342.276 119.317 342.231 119.188C341.439 116.903 341.092 116.028 341.275 116.037L341.274 116.037Z" fill="#6100BE"/>
<path d="M355.511 52.2357C355.185 51.2312 354.859 50.2268 354.534 49.2236C355.003 49.0498 355.576 51.8978 355.511 52.2357Z" fill="#6100BE"/>
<path d="M320.169 74.0304C320.021 73.9265 319.931 74.0866 319.817 74.1209C319.576 74.1923 319.399 74.2 319.405 74.1053C319.421 73.8799 319.366 74.0819 321.588 72.9047C321.666 72.8633 321.726 72.7719 321.849 72.8216C321.278 73.3901 320.115 73.8686 320.169 74.0311L320.169 74.0304Z" fill="#6100BE"/>
<path d="M338.521 47.1428C338.197 48.817 338.229 48.7864 338.117 48.8048C337.942 48.6153 338.024 47.443 338.04 47.2042C338.054 46.9981 338.624 46.6051 338.521 47.1428Z" fill="#6100BE"/>
<path d="M349.32 55.2322C349.176 57.7 349.21 57.7013 349.048 57.9545C348.958 58.0936 348.786 57.9611 348.821 57.8051C349.128 56.4386 349.059 55.469 349.32 55.2323L349.32 55.2322Z" fill="#6100BE"/>
<path d="M352.195 121.448C352.17 121.63 349.397 122.284 349.211 122.294C348.992 122.306 348.945 122.086 349.143 122.032C349.478 121.942 351.608 121.519 351.914 121.459C352.005 121.442 352.099 121.379 352.195 121.448L352.195 121.448Z" fill="#6100BE"/>
<path d="M333.126 91.1195C333.129 91.0748 333.234 88.8959 333.317 88.6149C333.705 89.028 333.281 90.7154 333.126 91.1195Z" fill="#6100BE"/>
<path d="M351.224 121.043C351.403 120.903 350.997 121.049 353.477 120.29C353.302 120.531 351.6 121.319 351.224 121.043Z" fill="#6100BE"/>
<path d="M327.661 89.803C327.41 91.434 327.356 91.5278 327.15 91.7296C327.34 91.0044 327.346 90.3245 327.435 89.6536C327.501 89.1483 327.723 89.404 327.661 89.803Z" fill="#6100BE"/>
<path d="M342.432 117.428C342.414 117.294 342.566 117.269 342.627 117.377C342.661 117.437 342.706 117.493 342.725 117.557C342.888 118.096 343.103 118.62 343.108 119.199C342.421 117.507 342.459 117.629 342.431 117.428L342.432 117.428Z" fill="#6100BE"/>
<path d="M331.474 104.541C331.251 104.401 329.834 103.496 330.002 103.296C330.379 103.466 330.943 103.927 331.474 104.541Z" fill="#6100BE"/>
<path d="M349.753 56.9794C349.948 57.488 349.894 58.3278 349.743 58.4174C349.603 58.5008 349.551 58.307 349.572 58.2069C349.656 57.8029 349.711 57.3952 349.753 56.9794Z" fill="#6100BE"/>
<path d="M321.182 73.7802C320.327 74.7913 320.299 74.1088 320.288 74.1108C321.016 73.7703 321.028 73.714 321.182 73.7802Z" fill="#6100BE"/>
<path d="M320.288 74.1101C320.207 74.1486 320.208 74.0734 320.17 74.0391C320.17 74.0391 320.171 74.0375 320.172 74.0367L320.17 74.0391C320.17 74.0357 320.169 74.033 320.168 74.0297C320.17 74.0314 320.172 74.0318 320.174 74.0334C320.225 74.0399 320.273 74.0527 320.288 74.1101Z" fill="#6100BE"/>
<path d="M353.862 119.75C353.623 119.833 353.385 119.921 353.143 119.999C352.371 120.244 352.739 119.521 353.862 119.75Z" fill="#6100BE"/>
<path d="M323.369 97.4154C323.636 97.2616 323.903 97.1338 324.211 97.1522C323.943 97.2898 323.674 97.4187 323.369 97.4154Z" fill="#6100BE"/>
<path d="M317.842 89.0779C316.784 87.1367 316.745 83.7995 317.851 82.9397C319.759 81.4533 321.419 86.6364 320.404 89.1841C319.831 90.6227 318.607 90.4796 317.842 89.0779ZM320.058 87.4311C320.119 87.2777 318.915 85.6497 318.58 85.4126C318.501 85.5814 319.948 87.3823 320.058 87.4311ZM319.96 88.3038C320.053 88.2132 320.142 88.1683 318.504 86.0054C318.275 86.2705 318.401 86.2733 319.96 88.3038ZM319.412 89.4162C319.502 89.5219 319.684 89.352 319.616 89.2603C319.304 88.8379 319.001 88.4066 318.596 87.9175C318.702 88.7194 319.106 89.0571 319.412 89.4162ZM319.714 88.8332C319.739 88.8671 319.811 88.9216 319.841 88.885C319.947 88.7555 319.961 88.8622 318.67 87.1448C318.608 87.0624 318.557 86.971 318.445 86.9445C318.385 87.1418 318.365 87.0538 319.715 88.8338L319.714 88.8332ZM317.634 85.695C317.642 86.0991 317.633 86.5065 317.815 86.9269C317.746 85.7412 318.005 84.1254 319.22 83.9046C318.764 82.7458 317.583 83.1778 317.634 85.695ZM319.161 84.5418C319.225 84.7888 319.725 85.4423 319.892 85.5428C319.874 85.0646 319.589 84.7977 319.161 84.5418ZM320.095 86.6527C320.05 86.4148 320.252 86.7072 318.922 84.8587C318.87 84.7864 318.73 84.8453 318.757 84.9441C318.846 85.2725 319.004 85.2019 319.922 86.4973C319.95 86.5382 319.997 86.5659 320.095 86.6527Z" fill="#6100BE"/>
<path d="M313.758 83.7562C315.061 84.479 315.75 87.8321 315.067 89.6789C314.362 91.5866 312.491 90.697 312.004 87.7198C311.549 85.9536 312.17 82.8741 313.758 83.7562ZM313.837 85.2244C314.064 85.5169 314.208 85.7367 314.43 85.9235C314.373 85.5679 314.175 85.3349 313.837 85.2244ZM313.72 85.6045C313.595 85.4491 313.497 85.547 313.602 85.6704C313.944 86.0731 314.288 86.4754 314.667 86.9189C314.647 86.6961 314.824 86.9797 313.72 85.6045ZM314.747 87.7566C314.707 87.5438 314.939 87.8269 313.562 86.1201C313.54 86.0927 313.475 86.1001 313.43 86.0918C313.396 86.3088 313.326 86.1782 314.679 87.7765C314.702 87.7701 314.724 87.763 314.747 87.7566ZM314.632 88.5414C314.643 88.5546 314.69 88.5374 314.72 88.5345C314.753 88.465 314.731 88.3758 314.709 88.3484C313.391 86.7336 313.548 86.932 313.46 86.8989C313.459 86.9314 313.444 86.9742 313.459 86.9945C313.618 87.2107 314.454 88.3433 314.631 88.5415L314.632 88.5414ZM314.337 89.8444C314.421 89.7323 314.398 89.67 314.354 89.6187C314.166 89.4015 313.977 89.1861 313.788 88.9699C313.833 89.3495 314.197 90.0294 314.337 89.8444ZM314.498 89.2707C314.569 89.3555 314.623 89.2189 314.617 89.1878C314.605 89.1227 314.593 89.0491 314.555 88.9988C314.219 88.557 313.877 88.1191 313.523 87.6605C313.372 88.0442 313.468 88.0345 314.497 89.2708L314.498 89.2707ZM313.11 89.1824C312.824 87.6699 312.318 84.8296 313.838 84.61C312.08 82.5774 312.192 88.8571 313.11 89.1824Z" fill="#6100BE"/>
<path d="M317.714 97.4119C320.752 97.3296 322.171 94.9119 321.968 95.575C321.624 96.6985 318.833 98.2339 316.588 97.5996C313.929 96.8479 312.885 94.828 311.917 93.1351C311.728 92.8044 311.54 92.4674 311.472 92.09C311.819 92.2005 313.894 97.5156 317.714 97.4119Z" fill="#6100BE"/>
<path d="M313.963 76.8737C312.338 78.2474 311.906 79.787 311.165 81.5684C311.083 81.7635 310.995 81.9563 310.903 82.1674C310.79 81.9678 311.693 79.5074 311.772 79.2944C312.12 78.3609 312.936 77.2065 314.396 76.0942C314.58 75.9541 315.113 75.6412 315.215 75.8507C315.27 75.9638 315.044 75.9596 313.963 76.8737Z" fill="#6100BE"/>
<path d="M323.806 81.8173C323.862 81.5828 324.949 84.0099 324.549 85.4696C324.283 82.6198 323.736 82.1092 323.806 81.8173Z" fill="#6100BE"/>
<path d="M314.973 95.3455C313.927 94.8808 313.258 93.9496 313.278 93.7921C313.342 93.2978 313.901 94.4577 314.973 95.3455Z" fill="#6100BE"/>
<path d="M313.095 78.7886C312.862 79.2004 312.625 79.6102 312.389 80.0206C312.526 78.6077 313.242 78.5284 313.095 78.7886Z" fill="#6100BE"/>
<path d="M322.262 50.7179C321.877 50.6918 321.527 50.0028 319.725 49.4069C317.941 48.8173 316.458 49.5022 316.883 51.8047C316.555 51.7342 316.562 50.677 316.574 50.3443C316.589 49.907 317.279 48.8113 318.554 48.8767C319.981 48.9498 322.463 50.218 322.262 50.7179Z" fill="#6100BE"/>
<path d="M322.046 49.6275C322.456 49.9428 324.393 51.5451 324.53 52.0421C323.595 51.1922 322.647 50.4043 321.63 49.7025C321.096 49.3341 321.347 49.0908 322.046 49.6275Z" fill="#6100BE"/>
<path d="M318.045 52.9139C318.155 53.4161 318.369 54.3912 318.581 55.0943C318.194 55.07 317.593 53.1629 317.543 52.9022C317.463 52.4795 317.798 51.7822 318.045 52.9139Z" fill="#6100BE"/>
<path d="M319.13 57.4246C319.12 57.6112 318.998 57.5991 318.949 57.5698C318.696 57.4163 317.872 55.767 317.697 55.3853C317.795 55.4719 317.848 55.5026 317.879 55.5487C319.184 57.453 319.132 57.3793 319.13 57.4248L319.13 57.4246Z" fill="#6100BE"/>
<path d="M318.301 52.6647C318.282 52.6599 318.262 52.6546 318.243 52.6498C318.328 52.011 318.413 51.3724 318.5 50.7334C318.536 50.4698 319.212 50.2254 318.301 52.6647Z" fill="#6100BE"/>
<path d="M345.664 8.97301C346.512 8.47274 349.102 7.21193 351.536 7.41813C360.982 8.21704 366.757 24.3057 359.79 31.3503C357.478 33.6886 353.44 34.7945 349.362 33.2116C343.095 30.7806 339.231 20.4956 342.115 13.1668C342.931 11.0912 344.145 9.86816 345.664 8.97289L345.664 8.97301ZM342.631 12.6204C342.791 12.6289 342.666 12.597 343.847 12.3742C343.999 12.3455 343.994 12.2881 344.102 12.0685C344.071 12.0272 344.036 12.0381 344.002 12.0459C342.769 12.3193 342.787 12.2828 342.733 12.4104C342.705 12.4753 342.672 12.537 342.631 12.6198L342.631 12.6204ZM342.802 12.989C342.846 13.055 342.919 12.9992 342.977 12.991C343.852 12.8668 343.705 12.938 343.872 12.5506C343.86 12.5507 342.884 12.6281 342.837 12.8299C342.825 12.8842 342.768 12.9405 342.802 12.989ZM346.443 28.9672C346.273 28.7368 346.253 28.6802 346.183 28.7046C345.311 29.0073 345.295 28.9935 345.328 29.0602C345.446 29.299 345.468 29.3088 345.712 29.2241C345.947 29.1424 346.181 29.0595 346.443 28.9672ZM345.615 29.4334C345.615 29.4854 345.578 29.4263 345.817 29.7419C345.891 29.7531 346.561 29.5323 346.824 29.4502C346.533 28.9493 346.614 29.0745 345.615 29.4341L345.615 29.4334ZM346.055 28.5844C346.185 28.533 345.967 28.2859 345.908 28.2619C345.858 28.2412 345.172 28.4826 345.141 28.4935C345.094 28.5092 345.043 28.5169 345.006 28.5617C345.07 28.6704 345.132 28.7808 345.216 28.8772C345.312 28.8822 345.989 28.6102 346.055 28.5844ZM345.802 28.0805C345.495 27.6059 345.736 27.6705 344.662 28.0218C344.897 28.4917 344.914 28.4135 345.08 28.3561C345.275 28.2883 345.767 28.1264 345.802 28.0805ZM345.468 27.5836C345.4 27.4315 345.311 27.3051 345.225 27.1677C344.919 27.2579 344.621 27.3446 344.31 27.4476C344.391 27.6043 344.472 27.7419 344.571 27.8805C344.868 27.782 345.164 27.684 345.468 27.5829L345.468 27.5836ZM345.122 27.0292C345.122 26.9675 345.169 27.0688 344.844 26.4762C344.714 26.4925 344.059 26.6992 343.944 26.7336C343.919 26.7861 343.951 26.8193 343.969 26.8537C344.234 27.3426 344.201 27.3083 344.313 27.2758C344.566 27.2033 345.062 27.0611 345.122 27.0292ZM344.761 26.3185C344.591 25.9688 344.685 25.6318 343.596 26.1032C343.657 26.2763 343.742 26.4299 343.827 26.5949C344.138 26.5031 344.437 26.4142 344.761 26.3185ZM344.331 25.7464C344.371 25.7354 344.415 25.7334 344.456 25.6904C344.384 25.5265 344.31 25.3588 344.23 25.1788C344.094 25.2081 344.054 25.224 343.313 25.4435C343.329 25.5619 343.388 25.6597 343.435 25.7602C343.561 26.0298 343.383 26.0178 344.331 25.7464ZM343.951 24.4973C343.01 24.7633 343.035 24.7255 343.069 24.8286C343.222 25.286 343.212 25.304 343.31 25.2763C344.338 24.9807 344.202 25.1132 343.952 24.498L343.951 24.4973ZM343.895 24.3486C343.852 24.1996 343.796 24.0634 343.749 23.9256C343.604 23.9306 343.284 24.0236 342.857 24.1836C342.911 24.325 342.959 24.4506 343.012 24.5873C343.292 24.5119 343.586 24.4324 343.895 24.3486ZM343.54 23.2892C343.24 23.3727 342.954 23.4515 342.649 23.5365C342.702 23.7117 342.748 23.8596 342.797 24.0196C343.835 23.7178 343.755 23.8782 343.54 23.2899L343.54 23.2892ZM343.485 23.132C343.451 22.9257 343.379 22.7337 343.331 22.5216C342.443 22.7894 342.432 22.7696 342.454 22.849C342.593 23.3527 342.583 23.3856 342.673 23.36C342.94 23.2842 343.207 23.2097 343.485 23.132ZM343.286 22.3555C343.184 21.9009 343.214 22.0306 343.181 21.9134C343.017 21.9311 342.615 22.0501 342.293 22.1762C342.344 22.4586 342.32 22.3458 342.385 22.5997C342.535 22.5951 342.803 22.5219 343.286 22.3555ZM343.038 21.181C342.963 21.1377 342.565 21.2916 342.52 21.3149C342.506 21.4333 342.532 21.4726 342.606 21.8748C342.682 21.8787 343.047 21.7528 343.101 21.7342C343.161 21.7137 343.138 21.6899 343.038 21.181ZM342.485 21.9279C342.437 21.7398 342.39 21.557 342.341 21.3642C342.264 21.3724 342.199 21.3925 342.122 21.4287C342.151 21.6142 342.2 21.7958 342.253 21.9978C342.339 21.9717 342.406 21.9513 342.485 21.9279ZM342.471 21.1437C342.657 21.0895 342.82 21.0418 342.993 20.9916C343.006 20.8613 342.959 20.7425 342.952 20.612C342.729 20.6492 342.735 20.6579 342.768 20.7716C342.783 20.8215 342.821 20.9744 342.771 20.9901C342.729 21.0037 342.705 20.9688 342.695 20.935C342.671 20.8616 342.653 20.7857 342.64 20.7397C342.57 20.6822 342.452 20.7269 342.415 20.7739C342.432 20.8844 342.45 21.0031 342.472 21.1443L342.471 21.1437ZM342.921 20.4353C342.898 20.2592 342.897 20.0847 342.848 19.9102C342.529 20.0076 342.64 19.9656 342.569 20.0456C342.6 20.0615 342.588 20.042 342.694 20.488C342.778 20.4954 342.848 20.4703 342.921 20.436L342.921 20.4353ZM342.527 20.0542C342.273 19.9423 342.359 20.2588 342.384 20.5496C342.705 20.7584 342.497 20.0979 342.527 20.0542ZM342.526 19.7732C342.58 19.8435 342.779 19.7686 342.842 19.7202C342.83 19.5598 342.816 19.3925 342.802 19.2189C342.63 19.2515 342.472 19.287 342.319 19.3448C342.289 19.4706 342.319 19.7672 342.337 19.8726C342.402 19.873 342.47 19.8855 342.526 19.7732ZM342.772 18.4779C342.692 18.4713 342.694 18.4828 342.234 18.6231C342.253 18.8035 342.27 18.9778 342.291 19.1725C342.915 19.0242 342.801 19.1694 342.772 18.4778L342.772 18.4779ZM342.211 19.3786C342.111 19.3687 342.028 19.3998 341.941 19.4331C341.935 19.6196 341.955 19.8012 341.975 20.0002C342.277 19.9451 342.227 19.9701 342.21 19.3787L342.211 19.3786ZM342.203 19.2004C342.226 18.6731 342.245 18.6296 342.166 18.646C341.953 18.6904 341.922 18.6997 341.924 18.7675C341.927 18.9235 341.926 19.0787 341.927 19.2519C342.035 19.2602 342.109 19.2125 342.203 19.1997L342.203 19.2004ZM342.772 17.8419C342.75 17.8293 341.934 17.9401 341.937 18.1228C341.938 18.2566 341.914 18.3904 341.942 18.5374C342.914 18.2558 342.773 18.4313 342.772 17.8419ZM342.772 17.6511C342.791 17.507 342.789 17.3755 342.794 17.2382C342.776 17.239 341.972 17.363 341.961 17.5293C341.955 17.6281 341.952 17.7269 341.945 17.8573C342.24 17.784 342.506 17.7174 342.772 17.6511ZM342.846 16.5848C342.806 16.5369 342.818 16.5607 342.142 16.711C341.986 16.7463 342.018 16.6939 341.981 17.2455C342.013 17.248 342.034 17.2551 342.053 17.2501C342.933 17.0309 342.801 17.1753 342.846 16.5848ZM342.876 16.1179C342.237 16.2698 341.953 16.2379 342.05 16.5461C342.085 16.554 343.045 16.5009 342.876 16.1179ZM342.967 15.6614C342.935 15.6479 341.879 15.7192 342.112 16.1293C343.045 15.926 342.908 16.0447 342.967 15.6614ZM343.017 15.3873C343.08 15.0533 343.12 14.9665 343.036 14.9837C342.098 15.1787 342.24 15.1841 342.167 15.6142C342.195 15.6201 342.216 15.6309 342.235 15.6273C342.973 15.4765 342.998 15.4934 343.018 15.3865L343.017 15.3873ZM343.041 14.8297C343.162 14.8012 343.151 14.7401 343.197 14.5152C343.116 14.494 343.047 14.5204 342.977 14.5301C342.269 14.6297 342.366 14.6045 342.335 14.7634C342.282 15.0309 342.152 15.0401 343.042 14.8296L343.041 14.8297ZM343.326 14.0529C343.291 13.9913 343.272 14.0391 342.564 14.162C342.48 14.1764 342.438 14.2153 342.43 14.2976C342.425 14.3399 342.416 14.3809 342.404 14.4498C343.38 14.3059 343.235 14.4077 343.325 14.053L343.326 14.0529ZM343.302 13.863C343.422 13.8424 343.409 13.7984 343.495 13.5071C343.456 13.4724 343.421 13.4909 343.387 13.4972C342.627 13.6559 342.599 13.6337 342.571 13.7591C342.554 13.8347 342.518 13.9061 342.528 13.9863C342.579 14.0082 342.559 13.9901 343.302 13.8636L343.302 13.863ZM343.658 13.0741C343.584 13.0326 343.613 13.0573 342.84 13.1756C342.737 13.1914 342.716 13.2025 342.66 13.4257C342.634 13.5296 343.521 13.4348 343.658 13.0741ZM342.897 12.1203C342.915 12.1366 344.32 11.9093 344.248 11.7179C342.878 11.8487 343.025 11.8582 342.897 12.1203ZM343.168 11.6879C343.197 11.7196 344.369 11.6017 344.451 11.4149C344.476 11.3574 344.516 11.3064 344.562 11.2325C344.393 11.2264 344.667 11.2063 343.46 11.3842C343.385 11.3956 343.179 11.6507 343.168 11.6872L343.168 11.6879ZM343.484 11.2133C343.502 11.2569 343.53 11.2459 343.556 11.241C344.688 11.0092 344.667 11.0785 344.743 10.9582C344.807 10.8562 344.876 10.7574 344.957 10.6361C344.806 10.6318 345.066 10.6077 343.885 10.8054C343.818 10.8166 343.524 11.1397 343.484 11.2133ZM343.996 10.6146C344.013 10.6162 345.141 10.5094 345.207 10.2892C345.194 10.2895 344.178 10.3757 343.996 10.6146ZM344.324 10.2681C344.381 10.2846 344.314 10.2868 345.237 10.108C345.358 10.0846 345.461 10.0122 345.547 9.89061C345.522 9.85045 345.502 9.89501 344.635 10.0352C344.487 10.0591 344.406 10.1537 344.325 10.2686L344.324 10.2681ZM344.801 9.86756C345.933 9.60639 345.794 9.64822 345.82 9.60454C345.818 9.59099 344.954 9.6127 344.801 9.86756ZM345.336 9.50887C346.223 9.34377 346.032 9.41212 346.255 9.20857C346.206 9.1637 345.546 9.25989 345.336 9.50887ZM346.015 9.08272C346.386 9.04275 346.672 8.93591 346.911 8.67722C346.799 8.67889 346.153 8.95201 346.015 9.08272ZM354.896 33.5645C354.811 33.5631 354.723 33.539 354.624 33.6159C354.739 33.6202 354.818 33.5982 354.896 33.5645ZM354.103 8.28199C343.097 3.74816 338.478 22.5571 348.775 31.0175C350.382 32.3376 352.328 33.2594 354.398 33.3119C365.306 33.5877 365.284 12.8882 354.103 8.28267L354.103 8.28199ZM354.372 33.5885C354.154 33.5182 354.049 33.531 353.842 33.6663C354.023 33.6756 354.209 33.7142 354.372 33.5885ZM353.705 33.5252C353.551 33.4562 353.516 33.5034 353.203 33.6637C353.349 33.7457 353.536 33.6766 353.705 33.5252ZM353.237 33.4623C352.919 33.328 352.892 33.3991 352.368 33.6534C352.519 33.6978 352.789 33.7013 353.237 33.4623ZM352.65 33.3297C352.45 33.2336 352.502 33.2504 351.742 33.5773C351.847 33.6362 352.014 33.6536 352.65 33.3297ZM352.165 33.1906C352.036 33.0886 352.016 33.1353 351.166 33.4828C351.311 33.5508 352.139 33.237 352.165 33.1906ZM351.739 33.0452C351.434 32.8038 351.297 32.9577 350.478 33.3246C350.502 33.346 351.729 33.0753 351.739 33.0452ZM349.897 33.1594C350.056 33.2283 350.171 33.2956 350.376 33.1929C350.837 32.9618 351.135 32.895 351.17 32.802C351.145 32.7899 351.124 32.7825 351.107 32.7711C350.91 32.642 350.821 32.7277 349.979 33.0899C349.947 33.1035 349.909 33.1108 349.897 33.1601L349.897 33.1594ZM350.686 32.5994C350.511 32.2928 349.343 32.907 349.337 32.9164C349.357 32.9563 350.024 32.8903 350.686 32.5994ZM349.071 32.809C349.136 32.8414 349.165 32.8052 349.409 32.7063C350.255 32.3645 350.207 32.4003 350.246 32.3416C349.816 32.0734 350.093 32.0702 348.693 32.5535C348.683 32.5567 348.677 32.5739 348.669 32.5853C348.681 32.6272 348.676 32.6135 349.071 32.8096L349.071 32.809ZM349.646 32.0537C349.755 32.0175 349.617 31.9482 349.559 31.9053C349.508 31.8685 349.458 31.8647 349.399 31.8864C349.01 32.0265 348.621 32.1634 348.211 32.309C348.494 32.6079 348.573 32.4063 349.646 32.0543L349.646 32.0537ZM349.253 31.7665C349.265 31.7622 349.273 31.7481 349.289 31.7309C348.95 31.4534 349.192 31.4909 347.754 31.9892C347.983 32.329 348.047 32.1941 349.253 31.7659L349.253 31.7665ZM348.683 31.4863C348.734 31.466 348.793 31.4592 348.84 31.4095C348.723 31.1033 348.506 31.2804 347.331 31.7028C347.586 31.9859 347.511 31.9425 348.683 31.4863ZM347.456 31.5305C348.517 31.1106 348.449 31.1459 348.478 31.1031C348.454 31.079 348.429 31.0549 348.406 31.0291C348.273 30.8789 348.276 30.9161 347.054 31.3419C347.008 31.3575 346.954 31.3601 346.925 31.409C347.134 31.6874 347.284 31.5979 347.456 31.5305ZM346.358 30.9493C346.774 31.3057 346.56 31.455 348.111 30.7985C348.095 30.7595 347.753 30.3582 347.63 30.406C347.22 30.5664 346.809 30.7264 346.399 30.8875C346.38 30.8953 346.359 30.9055 346.358 30.9493ZM346.31 30.7448C346.997 30.4667 347.296 30.371 347.565 30.2492C347.523 30.2037 347.495 30.1802 347.477 30.1514C347.402 30.04 347.375 30.0871 346.32 30.4545C346.207 30.4942 346.09 30.5233 345.983 30.5737C345.979 30.6341 346.117 30.8236 346.31 30.7448ZM347.279 29.9446C347.166 29.8201 347.065 29.7107 346.965 29.6005C346.882 29.5987 345.533 30.0096 345.483 30.0879C345.859 30.4948 345.565 30.6599 347.279 29.9446ZM345.631 29.8291C345.676 29.8155 345.728 29.8106 345.769 29.7616C345.507 29.3794 345.525 29.4609 345.114 29.6061C345.311 30.0686 345.472 29.8767 345.631 29.8291ZM344.98 29.4671C345.127 29.4247 345.261 29.3873 345.4 29.3176C345.333 29.2257 345.27 29.1413 345.206 29.0532C345.06 29.0948 344.917 29.1289 344.782 29.2105C344.852 29.3012 344.916 29.3838 344.98 29.4671ZM344.7 29.0906C344.84 29.0627 344.967 29.0008 345.12 28.9395C344.819 28.5086 344.953 28.5536 344.452 28.7165C344.524 28.8586 344.613 28.9688 344.7 29.09L344.7 29.0906ZM344.362 28.5994C344.431 28.6094 344.713 28.4993 344.754 28.4627C344.76 28.4012 344.564 28.1329 344.505 28.0901C344.468 28.0634 344.313 28.1153 344.117 28.2071C344.189 28.3458 344.276 28.4731 344.361 28.5995L344.362 28.5994ZM344.088 28.0603C344.194 28.024 344.302 27.9868 344.412 27.9373C344.316 27.7863 344.228 27.6483 344.135 27.5011C344.017 27.5345 343.902 27.5676 343.773 27.6048C343.781 27.6347 343.987 28.0941 344.088 28.0603ZM343.69 27.478C343.812 27.4365 343.924 27.3991 344.052 27.3561C343.71 26.6739 343.808 26.7698 343.4 26.925C343.494 27.1044 343.589 27.2851 343.689 27.4773L343.69 27.478ZM343.32 26.7562C343.435 26.7198 343.536 26.6879 343.648 26.6527C343.592 26.4704 343.494 26.3162 343.422 26.1467C343.304 26.1626 343.196 26.195 343.082 26.2348C343.139 26.4136 343.231 26.5722 343.32 26.7555L343.32 26.7562ZM343.333 26.0365C343.365 25.9903 343.369 26.0198 343.139 25.5117C343.025 25.5213 342.921 25.5612 342.804 25.6003C343.043 26.2317 342.954 26.1453 343.332 26.0358L343.333 26.0365ZM342.716 25.3874C342.748 25.4761 342.824 25.4237 342.938 25.3896C343.105 25.3398 343.086 25.3917 342.882 24.8148C342.774 24.817 342.683 24.8574 342.588 24.8831C342.52 24.9016 342.548 24.9327 342.715 25.3875L342.716 25.3874ZM342.479 24.7506C342.806 24.6543 342.712 24.6848 342.816 24.6413C342.817 24.5821 342.808 24.5684 342.69 24.2433C342.602 24.2311 342.531 24.2699 342.456 24.2875C342.314 24.3228 342.332 24.2893 342.479 24.7499L342.479 24.7506ZM342.298 24.1624C342.409 24.1308 342.516 24.1008 342.634 24.0664C342.584 23.8991 342.537 23.7451 342.486 23.5785C342.371 23.606 342.264 23.6319 342.141 23.6614C342.185 23.837 342.234 23.9955 342.298 24.1624ZM342.434 23.4215C342.397 23.2297 342.336 23.0434 342.277 22.8588C342.213 22.8511 341.99 22.9144 341.943 22.9676C341.964 23.0477 342.037 23.5596 342.434 23.4215ZM341.891 22.7739C342.017 22.7536 342.119 22.7111 342.227 22.6758C342.191 22.5233 342.158 22.3808 342.124 22.2362C342.071 22.2175 342.059 22.2289 341.783 22.3149C341.819 22.4668 341.853 22.6154 341.89 22.774L341.891 22.7739ZM341.741 22.12C341.812 22.1437 341.864 22.1122 341.916 22.0974C342.11 22.0437 342.094 22.0609 342.052 21.8688C342.025 21.7434 342.002 21.6172 341.971 21.463C341.857 21.4959 341.755 21.5248 341.64 21.5579C341.665 21.754 341.704 21.9389 341.741 22.1193L341.741 22.12ZM341.606 21.3932C342.3 21.1936 342.104 21.2497 342.309 21.1926C342.292 21.0576 342.277 20.9383 342.263 20.8237C342.229 20.7888 342.267 20.7788 341.665 20.9468C341.524 20.986 341.541 20.9498 341.606 21.3932ZM341.548 20.8061C342.388 20.5804 342.254 20.756 342.228 20.1307C342.176 20.0906 342.021 20.0722 341.956 20.3513C341.842 20.3827 341.945 20.1722 341.713 20.2365C341.638 20.2569 341.559 20.2656 341.49 20.3152C341.503 20.4748 341.498 20.638 341.547 20.8062L341.548 20.8061ZM341.478 20.1538C341.608 20.1384 341.721 20.1009 341.827 20.0444C341.808 19.8556 341.789 19.6711 341.77 19.4894C341.343 19.2804 341.456 19.8332 341.478 20.1538ZM341.435 19.4067C341.559 19.3727 341.654 19.3464 341.761 19.3163C341.761 19.2377 341.766 18.8352 341.744 18.7615C341.336 18.8303 341.407 18.7215 341.434 19.4062L341.435 19.4067ZM341.414 18.459C341.412 18.5281 341.396 18.6001 341.434 18.6735C341.823 18.5852 341.758 18.6598 341.767 18.1044C341.747 18.097 341.733 18.0857 341.722 18.0884C341.347 18.1824 341.424 18.0914 341.414 18.459ZM341.449 17.9786C341.752 17.9149 341.835 17.9666 341.781 17.4877C341.671 17.5105 341.568 17.5321 341.468 17.5531C341.428 17.621 341.412 17.9139 341.449 17.9786ZM341.458 17.3774C341.892 17.4469 341.82 17.1488 341.839 16.7993C341.762 16.7794 341.695 16.8098 341.626 16.8235C341.469 16.8552 341.502 16.8105 341.457 17.3776L341.458 17.3774ZM341.529 16.5758C341.516 16.6976 341.523 16.704 341.634 16.6774C341.885 16.6165 341.88 16.6448 341.864 16.3572C341.793 16.372 341.738 16.3832 341.683 16.3958C341.591 16.4165 341.54 16.4765 341.529 16.5758ZM341.582 16.2394C341.963 16.3286 341.932 15.9632 341.94 15.872C341.574 15.9222 341.618 15.8648 341.582 16.2394ZM341.651 15.7561C341.992 15.7098 341.989 15.7278 342.05 15.2902C342.051 15.2844 342.046 15.2784 342.039 15.2601C341.683 15.2411 341.728 15.4094 341.651 15.7561ZM341.825 14.9819C341.757 15.1948 341.817 15.1533 341.98 15.1134C342.137 15.0746 342.124 14.9682 342.17 14.7236C342.172 14.7099 342.17 14.6955 342.17 14.6647C341.821 14.6878 341.913 14.7062 341.825 14.9819ZM341.936 14.5201C342.174 14.5887 342.29 14.4496 342.293 14.2385C342.258 14.2184 342.019 14.2489 342.006 14.2864C341.982 14.3605 341.961 14.4354 341.936 14.5201ZM342.064 14.0768C342.297 14.1339 342.464 13.9913 342.453 13.7043C342.176 13.7223 342.171 13.7162 342.064 14.0768ZM342.249 13.5794C342.549 13.6586 342.582 13.3513 342.619 13.244C342.384 13.1017 342.224 13.4829 342.249 13.5794ZM342.422 13.0841C342.662 13.1698 342.848 12.8322 342.769 12.7573C342.723 12.7134 342.542 12.7862 342.511 12.8502C342.475 12.9252 342.434 12.999 342.422 13.084L342.422 13.0841Z" fill="#6100BE"/>
<path d="M356.739 11.0781C356.615 10.9281 356.519 10.5939 357.111 11.1493C362.038 15.7705 362.898 24.2045 360.768 27.8566C361.924 24.1634 361.75 20.7116 360.841 17.8C359.538 13.622 357.145 11.5703 356.739 11.0781Z" fill="#6100BE"/>
<path d="M350.771 31.1788C350.514 31.4008 348.224 29.7374 347.291 28.1735C345.62 25.3746 345.033 22.7595 345.073 22.6192C345.203 22.6662 345.824 25.2503 347.358 27.8161C347.949 28.8062 350.508 30.8045 350.77 31.1789L350.771 31.1788Z" fill="#6100BE"/>
<path d="M350.381 10.8185C350.391 10.9744 346.847 22.8398 346.74 22.9541C346.876 22.4679 349.711 12.001 350.381 10.8185Z" fill="#6100BE"/>
<path d="M356.74 31.0243C356.881 29.9111 356.59 32.6734 359.324 18.5308C359.398 18.7906 357.464 29.946 356.74 31.0243Z" fill="#6100BE"/>
<path d="M347.84 9.6682C347.834 9.63486 347.848 9.61959 347.867 9.60761C351.577 7.23421 354.254 9.48399 354.152 9.64022C354.094 9.72835 352.247 7.60097 347.841 9.66807L347.84 9.6682Z" fill="#6100BE"/>
<path d="M352.536 19.8351C352.535 19.7026 354.808 10.7248 354.89 10.524C355.057 11.0159 352.541 19.8215 352.536 19.8351Z" fill="#6100BE"/>
<path d="M354.092 24.3289C353.048 29.2011 351.099 35.531 353.911 24.8684C353.96 24.6838 353.992 24.4931 354.092 24.3289Z" fill="#6100BE"/>
<path d="M349.253 16.4358C349.305 16.2954 349.445 16.3154 349.397 16.4858C348.034 21.3516 348.181 20.5449 347.888 21.6216C347.945 21.1089 348.101 20.7488 348.607 18.8505C348.797 18.1415 349.128 16.7747 349.253 16.4359L349.253 16.4358Z" fill="#6100BE"/>
<path d="M359.236 23.2441C359.295 23.579 358.382 28.1611 358.085 28.5226C358.161 28.3322 358.963 24.6919 359.236 23.2441Z" fill="#6100BE"/>
<path d="M354.078 17.266C354.078 17.2539 354.853 12.5837 355.105 12.2769C355.123 12.4707 354.429 16.0702 354.078 17.266Z" fill="#6100BE"/>
<path d="M346.478 20.8467C346.47 20.7591 347.267 16.8762 347.644 16.3015C347.666 16.3072 346.481 20.8356 346.478 20.8467Z" fill="#6100BE"/>
<path d="M344.345 13.7502C344.448 13.5708 344.607 13.5786 344.509 13.8967C344.428 14.1613 344.109 15.0547 343.931 16.1709C343.897 16.3816 343.873 16.5931 343.889 16.8105C343.637 16.4574 344.142 14.108 344.346 13.75L344.345 13.7502Z" fill="#6100BE"/>
<path d="M351.779 29.9466C352.034 28.8926 352.293 27.8833 352.594 26.8838C352.546 27.2051 351.938 29.7354 351.779 29.9466Z" fill="#6100BE"/>
<path d="M355.576 13.3203C355.618 13.6317 355.231 14.4982 355.071 15.6318C355.023 14.9214 355.414 13.6458 355.576 13.3203Z" fill="#6100BE"/>
<path d="M350.31 12.8658C350.485 12.9933 349.923 14.7513 349.86 14.9491C349.852 14.9471 349.844 14.9452 349.836 14.9425C350.318 12.7182 350.198 13.2462 350.31 12.8658Z" fill="#6100BE"/>
<path d="M356.319 32.1825C356.207 32.2964 355.097 32.3997 355.036 32.3334C355.046 32.3238 355.054 32.3091 355.064 32.3063C355.491 32.2066 356.623 31.8723 356.319 32.1818L356.319 32.1825Z" fill="#6100BE"/>
<path d="M359.156 27.353C359.141 27.6669 359.047 27.9577 358.958 28.2503C358.941 28.3091 358.619 28.8052 359.156 27.353Z" fill="#6100BE"/>
</g>
</g>
<defs>
<clipPath id="clip0_650_24164">
<rect width="360" height="312" rx="8" fill="white"/>
</clipPath>
<clipPath id="clip1_650_24164">
<rect width="95" height="120" fill="white" transform="translate(-16.6875 2) rotate(10.7162)"/>
</clipPath>
<clipPath id="clip2_650_24164">
<rect width="95" height="120" fill="white" transform="matrix(-0.98256 0.185945 0.185945 0.98256 389.344 0)"/>
</clipPath>
</defs>
</svg>
