<svg width="80" height="83" viewBox="0 0 80 83" fill="none" xmlns="http://www.w3.org/2000/svg">
<g clip-path="url(#clip0_963_117487)">
<path d="M68.0219 55.2813C58.0129 75.2286 35.7419 84.2988 18.29 75.5417C16.9008 74.8471 15.5871 74.0552 14.3455 73.1842C11.0343 70.859 8.25943 67.9436 6.05321 64.6071C5.43777 63.6748 4.86552 62.7102 4.34005 61.7168C3.35391 59.8452 2.52612 57.8692 1.87109 55.8176C2.50453 57.7144 3.27833 59.5429 4.19969 61.2813C4.72515 62.2747 5.2974 63.2429 5.91284 64.1751C8.11907 67.5117 10.8939 70.4235 14.2051 72.7487C15.4468 73.6197 16.764 74.4079 18.1497 75.1062C35.6015 83.8633 57.8725 74.7931 67.8815 54.8458C68.6733 53.2693 69.3643 51.664 69.969 50.0371C70.2713 49.2165 70.5484 48.3958 70.804 47.568C71.5958 44.9621 72.1284 42.295 72.4343 39.6496C72.5351 38.7605 72.6071 37.8715 72.6503 36.9897C72.7115 35.7803 72.7187 34.5817 72.6791 33.3904C72.6035 31.1444 72.3444 28.9381 71.9125 26.8001C71.6929 25.6915 71.423 24.6009 71.1099 23.5319C71.0235 23.2368 70.9335 22.9416 70.84 22.6465C70.9875 23.0784 71.1243 23.5211 71.2539 23.9638C71.567 25.0364 71.8369 26.127 72.0564 27.232C72.4883 29.3736 72.7475 31.5799 72.8231 33.8223C72.8626 35.0137 72.8554 36.2158 72.7943 37.4252C72.7511 38.3106 72.6791 39.196 72.5783 40.0851C72.2724 42.7305 71.7397 45.3976 70.9515 47.9999C70.696 48.8242 70.4189 49.6484 70.113 50.4726C69.5119 52.0959 68.8173 53.7012 68.0255 55.2813H68.0219Z" fill="#EDB013"/>
<path d="M22.5613 77.3056C21.1217 76.8305 19.7001 76.2475 18.3145 75.5492L25.473 79.1413C26.8622 79.8396 28.2803 80.419 29.7199 80.8977C33.5637 82.1611 37.5622 82.647 41.5536 82.4202C42.6693 82.3555 43.785 82.2367 44.8971 82.0675C46.9882 81.74 49.0649 81.2217 51.1055 80.5198C52.1529 80.1635 53.193 79.7532 54.2223 79.2961C54.9745 78.9613 55.7231 78.5978 56.4573 78.2127C60.3731 76.1719 64.0514 73.4292 67.2941 70.0639C68.2155 69.1065 69.1008 68.1022 69.9466 67.0477C70.8608 65.9067 71.7354 64.7045 72.5559 63.4484C73.3729 62.1994 74.1395 60.8929 74.8413 59.5359C74.9565 59.3164 75.0717 59.0968 75.1833 58.8737C75.9715 57.3044 76.6589 55.7099 77.2527 54.0974C77.5622 53.266 77.843 52.4309 78.1021 51.5923C78.9011 48.9936 79.4338 46.3265 79.7289 43.6774C79.9772 41.4639 80.0528 39.2647 79.9628 37.1015C79.6425 29.5682 77.2959 22.4668 73.1642 16.7439C72.5559 15.9053 71.9153 15.0918 71.2351 14.3144C70.5369 13.5154 69.7955 12.7559 69.0181 12.0288C66.8694 10.024 64.4257 8.30358 61.7048 6.93585L54.5462 3.34375C55.9319 4.03841 57.2455 4.82666 58.4872 5.69769C59.6785 6.53272 60.8014 7.45054 61.8559 8.43315C62.6369 9.16021 63.3747 9.91966 64.0729 10.7187C64.7568 11.4962 65.401 12.3096 66.0092 13.1518C70.141 18.8783 72.4876 25.9761 72.8007 33.5058C72.8943 35.669 72.8187 37.8682 72.5703 40.0817C72.2752 42.7308 71.739 45.3979 70.9436 47.9966C70.6844 48.8352 70.4001 49.6667 70.0942 50.5017C69.5003 52.1142 68.8129 53.7123 68.0247 55.278C67.9132 55.5011 67.798 55.7207 67.6828 55.9402C66.9774 57.2972 66.2144 58.6037 65.3974 59.8527C64.5768 61.1088 63.7022 62.311 62.7881 63.452C61.9423 64.5066 61.0569 65.5108 60.132 66.4682C56.8928 69.8371 53.2146 72.5762 49.2988 74.6206C48.5646 75.0057 47.816 75.3692 47.0638 75.704C46.0344 76.1611 44.9943 76.5714 43.947 76.9277C41.9063 77.6296 39.8333 78.1479 37.7386 78.4754C36.6265 78.6446 35.5108 78.7634 34.3951 78.8281C30.4001 79.0549 26.4051 78.569 22.5613 77.3056Z" fill="#2962D3"/>
<path d="M18.3145 75.5526L25.473 79.1447C26.8622 79.843 28.2803 80.4225 29.7199 80.9012C33.5637 82.1645 37.5622 82.6504 41.5536 82.4237C42.6693 82.3589 43.785 82.2401 44.8971 82.071C46.9882 81.7434 49.0649 81.2251 51.1055 80.5233C52.1529 80.1669 53.193 79.7566 54.2223 79.2995C54.9745 78.9648 55.7231 78.6012 56.4573 78.2161L49.2988 74.624C48.5646 75.0091 47.816 75.3727 47.0638 75.7074C46.0344 76.1645 44.9943 76.5748 43.947 76.9312C41.9063 77.633 39.8333 78.1513 37.7386 78.4789C36.6265 78.648 35.5108 78.7668 34.3951 78.8316C30.4001 79.0584 26.4051 78.5724 22.5613 77.3091C21.1217 76.834 19.7001 76.2509 18.3145 75.5526Z" fill="#2962D3"/>
<path d="M64.0742 10.7227C64.758 11.5001 65.4023 12.3135 66.0105 13.1558C70.1422 18.8823 72.4888 25.9801 72.8019 33.5098C72.8955 35.673 72.8199 37.8721 72.5716 40.0857C72.2765 42.7348 71.7402 45.4019 70.9448 48.0005C70.6857 48.8392 70.4014 49.6706 70.0955 50.5057C69.5016 52.1181 68.8142 53.7162 68.026 55.2819C67.9144 55.5051 67.7992 55.7246 67.6841 55.9442L74.8426 59.5363C74.9578 59.3167 75.073 59.0972 75.1845 58.874C75.9727 57.3047 76.6601 55.7102 77.254 54.0978C77.5635 53.2663 77.8442 52.4313 78.1034 51.5926C78.9024 48.994 79.435 46.3269 79.7301 43.6778C79.9785 41.4642 80.0541 39.2651 79.9641 37.1019C79.6438 29.5686 77.2972 22.4672 73.1655 16.7443C72.5572 15.9056 71.9166 15.0922 71.2364 14.3148L64.0742 10.7227Z" fill="#507FF3"/>
<path d="M74.9398 19.483C77.9666 24.6624 79.6942 30.7236 79.9641 37.1016L72.8019 33.5095C72.5356 27.1387 70.8081 21.0775 67.7812 15.8945L74.9398 19.4866V19.483Z" fill="#7FA6F4" fill-opacity="0.8"/>
<path d="M68.0223 55.2819C58.0133 75.2292 35.7423 84.2994 18.2904 75.5423C16.9012 74.8477 15.5875 74.0558 14.3458 73.1848C11.0347 70.8596 8.25983 67.9442 6.0536 64.6077C5.43816 63.6755 4.86591 62.7108 4.34045 61.7174C3.3543 59.8458 2.52652 57.8698 1.87149 55.8182C1.53318 54.7672 1.23805 53.6874 0.98972 52.5896C-0.154783 47.5182 -0.323939 42.0725 0.583025 36.5944C0.79537 35.2842 1.0725 33.9705 1.41081 32.6639C1.78151 31.2458 2.2206 29.8277 2.73527 28.4204C3.33631 26.7899 4.03093 25.1738 4.83352 23.5793C6.02481 21.2038 7.40685 18.9758 8.92566 16.8882C10.5308 14.6963 12.3484 12.6735 14.2991 10.8522C24.416 1.36447 38.1249 -2.42199 50.2789 1.58403C51.7185 2.05913 53.1366 2.64222 54.5222 3.33688C55.9078 4.03155 57.2431 4.83059 58.4884 5.70522C59.5681 6.46107 60.5902 7.28171 61.5548 8.15994C62.4437 8.96618 63.2859 9.82281 64.0777 10.7262C67.3817 14.4911 69.8002 19.019 71.247 23.9644C71.5602 25.037 71.8301 26.1276 72.0496 27.2326C72.4815 29.3742 72.7407 31.5805 72.8162 33.8229C72.8558 35.0143 72.8486 36.2164 72.7875 37.4258C72.7443 38.3112 72.6723 39.1967 72.5715 40.0857C72.2656 42.7312 71.7329 45.3982 70.9447 48.0005C70.6892 48.8248 70.4121 49.649 70.1061 50.4732C69.5051 52.0965 68.8105 53.7018 68.0187 55.2819H68.0223Z" fill="#FFC414"/>
<path d="M68.9038 55.7209C58.8948 75.6682 36.6238 84.7384 19.1719 75.9813C17.7827 75.283 16.4691 74.4948 15.2274 73.6238C11.9162 71.2986 9.14136 68.3832 6.93513 65.0467C6.31969 64.1144 5.74744 63.1462 5.22197 62.1564C4.23223 60.2848 3.40805 58.3088 2.74942 56.2536C2.41111 55.2026 2.11958 54.1228 1.87125 53.025C0.726744 47.9536 0.557588 42.5079 1.46095 37.0297C1.6733 35.7196 1.95043 34.4059 2.28874 33.0957C2.65944 31.6776 3.09853 30.2595 3.61679 28.8521C4.21424 27.2217 4.91246 25.6056 5.71505 24.0111C6.90634 21.6356 8.28838 19.4076 9.80718 17.32C11.4124 15.128 13.2299 13.1052 15.1806 11.284C25.2976 1.80706 39.0064 -1.9794 51.1604 2.02661C52.6 2.50172 54.0181 3.08481 55.4037 3.77947C56.7894 4.47413 58.121 5.27318 59.3663 6.1478C60.446 6.90366 61.4681 7.7243 62.4327 8.60252C63.3217 9.40876 64.1638 10.2654 64.9556 11.1688C68.2596 14.9337 70.6781 19.4616 72.125 24.407C72.4381 25.4796 72.708 26.5702 72.9276 27.6752C73.3595 29.8168 73.6186 32.0231 73.6942 34.2655C73.7338 35.4569 73.7266 36.659 73.6654 37.8684C73.6222 38.7538 73.5502 39.6392 73.4494 40.5283C73.1435 43.1737 72.6108 45.8408 71.8227 48.4431C71.5671 49.2673 71.29 50.0916 70.9841 50.9158C70.383 52.5391 69.6884 54.1444 68.8966 55.7245L68.9038 55.7209Z" fill="#C8DBFC"/>
<path d="M68.0301 55.7243C58.0211 75.6716 35.7501 84.7418 18.2982 75.9847C16.909 75.29 15.5953 74.4982 14.3537 73.6272C11.0425 71.302 8.26764 68.3866 6.06141 65.05C5.44597 64.1178 4.87372 63.1532 4.34826 62.1598C3.36212 60.2882 2.53433 58.3122 1.8793 56.2606C1.54099 55.2096 1.24587 54.1298 0.997532 53.032C-0.14697 47.9606 -0.316126 42.5149 0.590838 37.0367C0.803183 35.7266 1.08031 34.4129 1.41862 33.1063C1.78933 31.6882 2.22841 30.2701 2.74308 28.8627C3.34412 27.2323 4.03874 25.6162 4.84133 24.0217C6.03262 21.6462 7.41466 19.4182 8.93347 17.3306C10.5387 15.1386 12.3562 13.1158 14.3069 11.2946C24.4238 1.80685 38.1327 -1.97961 50.2867 2.02641C51.7263 2.50152 53.1444 3.0846 54.53 3.77927C55.9156 4.47393 57.2509 5.27297 58.4962 6.1476C59.5759 6.90345 60.598 7.72409 61.5626 8.60232C62.4515 9.40856 63.2937 10.2652 64.0855 11.1686C67.3895 14.9335 69.808 19.4614 71.2549 24.4068C71.568 25.4794 71.8379 26.57 72.0574 27.675C72.4893 29.8166 72.7485 32.0229 72.8241 34.2653C72.8636 35.4567 72.8564 36.6588 72.7953 37.8682C72.7521 38.7536 72.6801 39.639 72.5793 40.5281C72.2734 43.1735 71.7407 45.8406 70.9525 48.4429C70.697 49.2671 70.4199 50.0914 70.114 50.9156C69.5129 52.5389 68.8183 54.1442 68.0265 55.7243H68.0301Z" fill="#507FF3"/>
<path d="M71.2513 23.9648L0.990387 52.5864C-0.154116 47.515 -0.323272 42.0692 0.580094 36.5875L64.0784 10.7266C67.3823 14.4914 69.8009 19.0193 71.2513 23.9684V23.9648Z" fill="#7FA6F4" fill-opacity="0.8"/>
<path d="M70.1108 50.4732L14.3469 73.1848C11.0358 70.8596 8.25731 67.9442 6.05469 64.6076L72.7921 37.4258C72.7489 38.3112 72.677 39.1966 72.5762 40.0857C72.2703 42.7311 71.7376 45.3982 70.9458 48.0005C70.6903 48.8283 70.4096 49.649 70.1072 50.4696L70.1108 50.4732Z" fill="#7FA6F4" fill-opacity="0.8"/>
<path d="M72.8211 33.8227L4.3417 61.7137C3.35196 59.842 2.52777 57.866 1.86914 55.8144L72.0545 27.2324C72.4864 29.374 72.7455 31.5804 72.8211 33.8227Z" fill="#7FA6F4" fill-opacity="0.8"/>
<path d="M61.5561 8.1598L1.41211 32.6566C1.77921 31.2385 2.2219 29.8204 2.74016 28.413L58.4897 5.70508C59.5694 6.46093 60.5915 7.28157 61.5561 8.1598Z" fill="#7FA6F4" fill-opacity="0.8"/>
<path d="M71.7834 25.9908C69.2209 16.9421 63.4444 9.27564 54.9614 5.01767C41.8608 -1.55464 26.0501 1.92588 14.7346 12.5258C12.7875 14.347 10.97 16.3698 9.36123 18.5618C7.83882 20.6494 6.45678 22.8774 5.26909 25.2493C0.421151 34.9134 -0.662167 45.3586 1.49007 54.5512C-1.21642 44.9662 -0.313058 33.8264 4.8336 23.5684C6.02489 21.1965 7.40334 18.9649 8.92574 16.8773C10.5345 14.6854 12.352 12.6626 14.2991 10.8413C25.6146 0.24141 41.4253 -3.23911 54.5223 3.3332C63.5271 7.85392 69.4872 16.2115 71.7834 25.9908Z" fill="#7FA6F4" fill-opacity="0.8"/>
<path d="M10.5739 26.448C2.39318 42.7492 7.34189 61.8363 21.605 68.9917C21.9505 69.1644 22.3032 69.3336 22.6559 69.4884C26.1722 71.0577 29.9008 71.7703 33.6439 71.7055C34.666 71.6875 35.6917 71.6155 36.7139 71.4824C38.625 71.2376 40.5253 70.7985 42.3896 70.1722C43.3469 69.8483 44.2971 69.4776 45.2292 69.0564C49.5877 67.1056 53.6439 64.1146 57.0234 60.2454C57.8476 59.2988 58.6358 58.2982 59.3772 57.2508C60.1941 56.0954 60.9572 54.8752 61.6554 53.5975C61.8713 53.2016 62.0837 52.802 62.2888 52.3917C63.2318 50.5093 64.038 48.4973 64.6858 46.4097C65.312 44.3653 65.7583 42.1949 66.0102 39.967C67.4751 26.9339 61.6878 15.1318 51.2613 9.89845C50.9086 9.72208 50.5523 9.55652 50.1924 9.39455C49.0299 8.87625 47.8458 8.45153 46.6329 8.1132C45.5424 7.81086 44.4374 7.5805 43.3253 7.42213C38.8121 6.78146 34.1297 7.31775 29.6453 8.96263C28.6951 9.31176 27.7522 9.71129 26.8236 10.1576C25.0349 11.0214 23.2929 12.0616 21.623 13.2854C20.7412 13.9333 19.8774 14.6279 19.0353 15.3766C18.7905 15.5889 18.553 15.8085 18.3154 16.0316C16.6743 17.5793 15.1915 19.2422 13.9282 20.9591C12.924 22.334 12.0027 23.7845 11.1893 25.2782C10.9769 25.6634 10.7718 26.0521 10.5775 26.4408L10.5739 26.448Z" fill="#2962D3"/>
<path d="M64.8866 26.6243L7.4024 50.0377C6.37307 45.3874 6.35147 40.3664 7.42399 35.3598C7.47438 35.1258 7.52837 34.8955 7.58235 34.6615L57.505 14.3291C57.6597 14.4767 57.8109 14.6242 57.962 14.7754C61.1616 18.0004 63.5262 22.0604 64.8902 26.6243H64.8866Z" fill="#7FA6F4" fill-opacity="0.8"/>
<path d="M62.3177 52.327L21.5116 68.9449C21.1876 68.7829 20.8709 68.6138 20.5542 68.4374C17.3294 66.6306 14.6157 64.1938 12.4707 61.3108L66.0536 39.4883C66.0356 39.6502 66.0212 39.8122 66.0032 39.9742C65.744 42.2165 65.2978 44.3977 64.6751 46.4349C64.1713 48.0654 63.5594 49.6707 62.8468 51.2112C62.6777 51.5891 62.4977 51.9598 62.3141 52.327H62.3177Z" fill="#7FA6F4" fill-opacity="0.8"/>
<path d="M66.23 36.0149L10.7108 58.6293C10.6605 58.5393 10.6065 58.4493 10.5561 58.3593C9.62032 56.7036 8.84652 54.94 8.23828 53.1007L65.6434 29.7197C66.0141 31.6453 66.212 33.6394 66.23 35.6838C66.23 35.7953 66.23 35.9069 66.23 36.0185V36.0149Z" fill="#7FA6F4" fill-opacity="0.8"/>
<path d="M54.7652 12.0434L8.71875 30.7993C9.08945 29.7519 9.51054 28.7081 9.98562 27.6751C10.1548 27.3008 10.3311 26.9301 10.5147 26.5593L51.3209 9.94141C51.6412 10.1034 51.9615 10.2761 52.2746 10.4489C53.142 10.9348 53.9734 11.4675 54.7652 12.0434Z" fill="#7FA6F4" fill-opacity="0.8"/>
<g style="mix-blend-mode:lighten">
<path d="M35.5626 55.1393C33.2909 54.5155 31.786 53.508 31.0478 52.117C30.3395 50.9166 30.1339 49.4791 30.476 48.1189C30.5781 47.7051 30.7852 47.3245 31.0768 47.0143C31.3419 46.7499 31.6715 46.5607 32.0318 46.4658C32.8653 46.2985 33.7255 46.5348 34.3548 47.1037C34.6148 47.3681 34.7989 47.6987 34.8876 48.0607C34.9841 48.4756 34.969 48.9096 34.8438 49.3182C34.7277 49.8154 34.4535 50.2618 34.063 50.5893C33.7395 50.8552 33.3398 51.0091 32.9239 51.0278C33.1642 51.6097 33.6001 52.0869 34.1558 52.3762C34.7632 52.7515 35.4203 53.0392 36.1081 53.2309C37.0174 53.4892 37.9848 53.465 38.8843 53.1614C39.8255 52.8169 40.6337 52.1771 41.189 51.3366C41.8731 50.3426 42.3792 49.2365 42.6842 48.0688C43.0511 46.8648 43.1832 45.6023 43.073 44.3511C43.0052 43.356 42.6139 42.4134 41.9596 41.6687C41.3477 40.9897 40.5536 40.5036 39.672 40.2682C38.887 40.1232 38.0775 40.1735 37.3134 40.4146L35.4921 40.7841L35.7163 39.9761L45.5891 32.2307L35.6407 29.499L32.844 39.5817C32.6141 40.3016 32.6054 41.0731 32.819 41.7948C33.0459 42.4449 33.5949 42.9255 34.2662 43.0618C34.8681 43.2139 35.504 43.167 36.0803 42.928C36.7277 42.6783 37.3297 42.3214 37.8614 41.8722C37.9224 41.7845 38.0085 41.7177 38.1081 41.6808C38.1908 41.6409 38.2848 41.6323 38.3729 41.6563C38.5413 41.7197 38.6854 41.8347 38.7849 41.9853C38.8992 42.2184 38.9221 42.4869 38.8492 42.7376C38.7831 42.9013 38.7067 43.0608 38.6204 43.2149C38.0276 43.981 37.2294 44.5604 36.3213 44.8839C35.4812 45.1722 34.5761 45.1989 33.7245 44.9603C31.5706 44.3689 30.1972 43.5309 29.6044 42.4462C29.0075 41.253 28.9141 39.8646 29.3454 38.5939L32.135 28.5364L27.075 27.147L27.5947 25.2736L32.6782 26.6695L33.863 22.3981L33.0251 20.9033L33.2908 19.9454L36.6681 20.8728L37.753 21.8838L36.1603 27.6257L49.3131 31.1939L50.254 32.8782L39.9294 38.8363C40.471 38.7724 41.0184 38.7881 41.5544 38.8828C42.5758 39.2124 43.5042 39.7801 44.2644 40.5399C45.1701 41.3278 45.8307 42.3624 46.1677 43.521C46.4833 44.5101 46.6121 45.5512 46.5475 46.5908C46.5034 47.4126 46.3758 48.2284 46.1667 49.0252C45.7517 50.5416 44.9964 51.944 43.9592 53.1237C42.968 54.2697 41.6203 55.0431 40.1392 55.3159C38.618 55.6135 37.0516 55.553 35.5626 55.1393Z" fill="white"/>
</g>
<path d="M10.5739 26.4515C2.39318 42.7528 7.34189 61.8362 21.605 68.9952C21.8569 69.1212 22.1125 69.2436 22.368 69.3623C8.66635 61.9298 4.02715 43.2207 12.0675 27.2002C12.2618 26.8115 12.467 26.4192 12.6793 26.034C13.4891 24.5403 14.4105 23.0934 15.4146 21.7185C16.6779 19.998 18.1571 18.3387 19.7983 16.7874C20.0358 16.5679 20.2769 16.3483 20.5181 16.1324C21.3566 15.3873 22.2204 14.6891 23.1058 14.0412C24.7758 12.821 26.5177 11.7736 28.3064 10.9134C29.2386 10.4671 30.178 10.0676 31.1281 9.71843C35.6125 8.07355 40.2949 7.53726 44.8082 8.17793C45.9239 8.3363 47.0288 8.56306 48.1157 8.869C49.325 9.20733 50.5163 9.63205 51.6752 10.1503C51.7759 10.1935 51.8767 10.2439 51.9775 10.2907C51.7364 10.1611 51.4952 10.0316 51.2505 9.90919C50.8978 9.73283 50.5451 9.56366 50.1852 9.40529C49.0227 8.88699 47.835 8.46228 46.6257 8.12394C45.5388 7.818 44.4338 7.59125 43.3181 7.43288C38.8049 6.7922 34.1225 7.3285 29.6381 8.97338C28.6879 9.32251 27.745 9.71843 26.8164 10.1683C25.0277 11.0286 23.2857 12.0724 21.6122 13.2961C20.7304 13.944 19.8666 14.6387 19.0281 15.3873C18.7833 15.5997 18.5422 15.8192 18.3082 16.0424C16.6671 17.5901 15.1843 19.253 13.9246 20.9734C12.9204 22.3484 11.9991 23.7989 11.1893 25.289C10.9733 25.6741 10.7718 26.0664 10.5739 26.4551V26.4515Z" fill="#2962D3"/>
<path d="M44.8656 67.5879C43.7463 64.2082 45.7401 59.8242 45.7401 59.8242C45.7401 59.8242 43.4152 64.0426 40.0392 65.1656C36.6201 66.2993 32.1465 64.3341 32.1465 64.3341C32.1465 64.3341 36.3934 66.7457 37.5307 70.165C38.65 73.5447 36.6597 77.9287 36.6597 77.9287C36.6597 77.9287 38.9847 73.7103 42.3606 72.5873C45.7797 71.4499 50.2498 73.4152 50.2498 73.4152C50.2498 73.4152 46.0029 71.0036 44.8692 67.5843L44.8656 67.5879Z" fill="white"/>
</g>
<defs>
<clipPath id="clip0_963_117487">
<rect width="80" height="82.4742" fill="white"/>
</clipPath>
</defs>
</svg>
