<svg width="10" height="10" viewBox="0 0 10 10" fill="none" xmlns="http://www.w3.org/2000/svg">
<path fill-rule="evenodd" clip-rule="evenodd" d="M2.63276 3.13403C1.92078 3.68719 1.35096 4.35495 1.01197 4.79747L1.01005 4.79997L1.01005 4.79997C0.965551 4.85725 0.941398 4.92773 0.941398 5.00026C0.941398 5.0728 0.965551 5.14327 1.01005 5.20056L1.01185 5.20289L1.01184 5.20289C1.38763 5.693 2.04229 6.45429 2.85671 7.03256C3.06889 7.18321 3.11877 7.47735 2.96812 7.68954C2.81746 7.90172 2.52332 7.9516 2.31113 7.80094C1.38749 7.14513 0.666637 6.30131 0.2648 5.77735C0.0925241 5.55496 -0.000976562 5.28161 -0.000976562 5.00026C-0.000976562 4.71896 0.0924959 4.44566 0.264722 4.22328C0.629341 3.74743 1.25481 3.01124 2.05459 2.38986C2.84969 1.77212 3.86529 1.23053 4.9997 1.23053C6.01856 1.23053 6.94015 1.66736 7.69001 2.20077C7.90206 2.35161 7.95169 2.64579 7.80085 2.85784C7.65001 3.0699 7.35582 3.11952 7.14377 2.96868C6.48007 2.49657 5.74873 2.1729 4.9997 2.1729C4.1636 2.1729 3.35005 2.57675 2.63276 3.13403Z" fill="#B0A9B3"/>
<path fill-rule="evenodd" clip-rule="evenodd" d="M9.10264 0.897346C9.28665 1.08136 9.28665 1.3797 9.10264 1.56371L6.3846 4.28174C6.36961 4.3023 6.35274 4.3219 6.33401 4.34033C6.3172 4.35686 6.29947 4.37187 6.28097 4.38537L4.38401 6.28233C4.37083 6.30022 4.35622 6.31738 4.34019 6.33368C4.32231 6.35184 4.30333 6.36825 4.28345 6.3829L1.56364 9.1027C1.37963 9.28671 1.0813 9.28671 0.897285 9.1027C0.713275 8.91869 0.713275 8.62035 0.897285 8.43634L3.37541 5.95822C3.33143 5.88418 3.29248 5.80705 3.2589 5.72733C3.16231 5.49805 3.11208 5.2519 3.1111 5.00311C3.11011 4.75431 3.1584 4.50778 3.25317 4.27773C3.34794 4.04769 3.48732 3.83869 3.66327 3.66278C3.83922 3.48687 4.04825 3.34754 4.27832 3.25282C4.50839 3.15811 4.75493 3.10988 5.00373 3.11092C5.25252 3.11196 5.49865 3.16226 5.72792 3.2589C5.80749 3.29244 5.88448 3.33133 5.95839 3.37524L8.43628 0.897346C8.62029 0.713336 8.91863 0.713336 9.10264 0.897346ZM5.24642 4.08721C5.16624 4.06509 5.08331 4.05364 4.99978 4.05329C4.87538 4.05277 4.75211 4.07688 4.63708 4.12424C4.52204 4.1716 4.41752 4.24126 4.32955 4.32922C4.24157 4.41717 4.17188 4.52167 4.1245 4.63669C4.07711 4.75171 4.05297 4.87498 4.05346 4.99938C4.05379 5.08299 4.06525 5.16599 4.08738 5.24624L5.24642 4.08721ZM8.23993 3.24713C8.42734 3.06658 8.72563 3.07214 8.90618 3.25955C9.2001 3.56463 9.47661 3.88603 9.73438 4.22222C9.90672 4.44457 10.0003 4.71789 10.0005 4.99925C10.0006 5.28069 9.9072 5.55418 9.73497 5.77673C9.37035 6.25259 8.74488 6.9888 7.94507 7.61019C7.14997 8.22793 6.13437 8.76952 4.99996 8.76952L4.99782 8.76952C4.63386 8.76786 4.272 8.71431 3.92316 8.61047C3.67375 8.53623 3.53174 8.27385 3.60598 8.02444C3.68023 7.77502 3.9426 7.63302 4.19202 7.70726C4.45463 7.78543 4.72703 7.8258 5.00102 7.82715C5.83675 7.82681 6.64991 7.42307 7.3669 6.86602C8.07889 6.31286 8.64871 5.6451 8.98769 5.20258L8.98945 5.2003C9.03397 5.14291 9.05812 5.07233 9.05809 4.9997C9.05805 4.92707 9.03384 4.85651 8.98926 4.79917L8.9873 4.79665L8.98731 4.79665C8.75086 4.48817 8.49719 4.19328 8.22752 3.91338C8.04697 3.72597 8.05253 3.42769 8.23993 3.24713Z" fill="#B0A9B3"/>
</svg>
