<svg width="102" height="102" viewBox="0 0 102 102" fill="none" xmlns="http://www.w3.org/2000/svg">
<path d="M29.75 12.75H21.25C18.9957 12.75 16.8337 13.6455 15.2396 15.2396C13.6455 16.8337 12.75 18.9957 12.75 21.25V29.75M72.25 12.75H80.75C83.0043 12.75 85.1663 13.6455 86.7604 15.2396C88.3545 16.8337 89.25 18.9957 89.25 21.25V29.75M68 34V42.5M34 34V42.5M38.25 68C38.25 68 42.5 72.25 51 72.25C59.5 72.25 63.75 68 63.75 68M51 34V55.25H46.75M29.75 89.25H21.25C18.9957 89.25 16.8337 88.3545 15.2396 86.7604C13.6455 85.1663 12.75 83.0043 12.75 80.75V72.25M72.25 89.25H80.75C83.0043 89.25 85.1663 88.3545 86.7604 86.7604C88.3545 85.1663 89.25 83.0043 89.25 80.75V72.25" stroke="#958E99" stroke-width="6.3125" stroke-linecap="round" stroke-linejoin="round"/>
</svg>
