<svg width="24" height="24" viewBox="0 0 24 24" fill="none" xmlns="http://www.w3.org/2000/svg">
    <path
        d="M12 11C12 14.517 10.991 17.799 9.247 20.571M5.807 18.531L5.861 18.441C7.26352 16.213 8.00523 13.6328 8 11C8 9.93916 8.42143 8.92175 9.17157 8.1716C9.92172 7.42145 10.9391 7.00003 12 7.00003C13.0609 7.00003 14.0783 7.42145 14.8284 8.1716C15.5786 8.92175 16 9.93916 16 11C16 12.017 15.93 13.019 15.797 14M13.679 20.844C14.2962 19.6125 14.7958 18.3255 15.171 17M19.01 18.132C19.655 15.866 20 13.473 20 11C20.0003 9.59558 19.6309 8.2158 18.9289 6.9994C18.2269 5.78299 17.217 4.77284 16.0008 4.07048C14.7846 3.36812 13.4049 2.99831 12.0004 2.99823C10.596 2.99815 9.21629 3.3678 8 4.07003M3 15.364C3.64 14.045 4 12.564 4 11C4 9.54303 4.39 8.17703 5.07 7.00003"
        stroke="white" stroke-width="2" stroke-linecap="round" stroke-linejoin="round" />
</svg>