<svg width="79" height="86" viewBox="0 0 79 86" fill="none" xmlns="http://www.w3.org/2000/svg">
<path d="M39.6072 0.0107422C44.1815 0.0107422 48.6487 0.563953 53.0086 1.67038C57.3686 2.77966 61.5855 4.37068 65.6596 6.44343C66.3029 6.72933 66.6788 7.13959 66.7875 7.67422C66.8932 8.21171 66.8389 8.73061 66.6245 9.23093C66.4101 9.73125 66.0527 10.1244 65.5524 10.4103C65.0521 10.6962 64.4445 10.6604 63.7298 10.303C59.9416 8.37324 56.0277 6.88943 51.988 5.85163C47.9511 4.81668 43.8242 4.2992 39.6072 4.2992C35.4617 4.2992 31.3876 4.78094 27.3851 5.74441C23.3825 6.71075 19.5586 8.23029 15.9134 10.303C15.3416 10.6604 14.7884 10.749 14.2538 10.5689C13.7163 10.3917 13.2689 10.0172 12.9115 9.44536C12.6971 8.87356 12.6442 8.35466 12.7528 7.88865C12.8586 7.42549 13.1974 7.01523 13.7692 6.65786C17.7718 4.51363 21.953 2.86972 26.313 1.72613C30.6729 0.582536 35.1043 0.0107422 39.6072 0.0107422ZM39.6072 10.5175C47.1835 10.5175 54.3309 12.1428 61.0495 15.3935C67.7681 18.647 73.3788 23.3471 77.8817 29.4939C78.382 30.1372 78.5421 30.709 78.362 31.2093C78.1848 31.7096 77.8817 32.1385 77.4529 32.4958C77.024 32.8532 76.5237 33.0133 75.9519 32.9761C75.3801 32.9418 74.8798 32.6388 74.4509 32.067C70.5198 26.492 65.4638 22.2207 59.2826 19.2531C53.0987 16.2883 46.5402 14.8059 39.6072 14.8059C32.6742 14.8059 26.17 16.2883 20.0947 19.2531C14.0194 22.2207 8.98042 26.492 4.97786 32.067C4.54901 32.7103 4.04869 33.0676 3.47689 33.1391C2.9051 33.2106 2.40478 33.0676 1.97593 32.7103C1.47561 32.3529 1.15398 31.9055 1.01103 31.368C0.86808 30.8333 1.04677 30.2801 1.54709 29.7083C5.90702 23.633 11.4463 18.9157 18.1649 15.5564C24.8835 12.1971 32.0309 10.5175 39.6072 10.5175ZM39.6072 30.9949C46.2543 30.9949 51.9722 33.2277 56.761 37.6935C61.5498 42.162 63.9442 47.6484 63.9442 54.1526C63.9442 54.7958 63.7469 55.3133 63.3524 55.705C62.9607 56.0995 62.4432 56.2968 61.8 56.2968C61.2282 56.2968 60.7279 56.0995 60.299 55.705C59.8702 55.3133 59.6557 54.7958 59.6557 54.1526C59.6557 48.792 57.6716 44.3063 53.7034 40.6954C49.738 37.0873 45.0392 35.2833 39.6072 35.2833C34.1751 35.2833 29.5107 37.0873 25.6139 40.6954C21.72 44.3063 19.773 48.792 19.773 54.1526C19.773 59.942 20.7737 64.8551 22.775 68.892C24.7763 72.9317 27.7067 76.9886 31.5663 81.0627C31.9952 81.4915 32.2096 81.9918 32.2096 82.5636C32.2096 83.1354 31.9952 83.6357 31.5663 84.0646C31.1375 84.4934 30.6372 84.7078 30.0654 84.7078C29.4936 84.7078 28.9932 84.4934 28.5644 84.0646C24.3474 79.6332 21.1139 75.1117 18.8639 70.5002C16.611 65.8915 15.4846 60.4423 15.4846 54.1526C15.4846 47.6484 17.8432 42.162 22.5605 37.6935C27.2779 33.2277 32.9601 30.9949 39.6072 30.9949ZM39.5 52.0083C40.1432 52.0083 40.6621 52.2228 41.0567 52.6516C41.4484 53.0804 41.6442 53.5808 41.6442 54.1526C41.6442 59.5131 43.574 63.9088 47.4336 67.3396C51.2932 70.7704 55.7961 72.4857 60.9423 72.4857C61.3711 72.4857 61.9787 72.45 62.7649 72.3785C63.5511 72.3071 64.373 72.1998 65.2307 72.0569C65.874 71.9139 66.4286 72.0026 66.8947 72.3228C67.3578 72.6458 67.6609 73.129 67.8038 73.7723C67.9468 74.3441 67.8396 74.8444 67.4822 75.2732C67.1248 75.7021 66.6602 75.988 66.0884 76.1309C64.8019 76.4883 63.6769 76.6856 62.7134 76.7227C61.7471 76.757 61.1567 76.7742 60.9423 76.7742C54.5811 76.7742 49.059 74.63 44.3759 70.3415C39.6958 66.053 37.3557 60.6567 37.3557 54.1526C37.3557 53.5808 37.5516 53.0804 37.9433 52.6516C38.3378 52.2228 38.8567 52.0083 39.5 52.0083ZM39.6072 41.5016C43.2524 41.5016 46.3615 42.7167 48.9346 45.1468C51.5077 47.5769 52.7942 50.5788 52.7942 54.1526C52.7942 56.5112 53.6876 58.4953 55.4745 60.1049C57.2614 61.7117 59.3698 62.5151 61.8 62.5151C64.2301 62.5151 66.3029 61.7117 68.0182 60.1049C69.7336 58.4953 70.5913 56.5112 70.5913 54.1526C70.5913 45.8615 67.5537 38.8928 61.4783 33.2463C55.403 27.5998 48.1484 24.7766 39.7144 24.7766C31.2804 24.7766 24.0258 27.5998 17.9505 33.2463C11.8751 38.8928 8.83747 45.8258 8.83747 54.0454C8.83747 55.7607 8.999 57.905 9.32207 60.478C9.64227 63.0511 10.4099 66.053 11.625 69.4838C11.8394 70.1271 11.8222 70.6989 11.5735 71.1992C11.3219 71.6995 10.9102 72.0569 10.3384 72.2713C9.76664 72.4857 9.212 72.4672 8.67451 72.2156C8.13988 71.9668 7.76536 71.5566 7.55093 70.9848C6.47882 68.1973 5.71118 65.4269 5.24803 62.6737C4.78202 59.9234 4.54901 57.083 4.54901 54.1526C4.54901 44.6465 7.99836 36.6771 14.8971 30.2444C21.7929 23.8117 30.0296 20.5954 39.6072 20.5954C49.2562 20.5954 57.5472 23.8117 64.4803 30.2444C71.4133 36.6771 74.8798 44.6465 74.8798 54.1526C74.8798 57.7263 73.6118 60.7111 71.0759 63.1069C68.5371 65.4998 65.4452 66.6963 61.8 66.6963C58.1548 66.6963 55.0285 65.4998 52.4211 63.1069C49.8109 60.7111 48.5057 57.7263 48.5057 54.1526C48.5057 51.7939 47.6309 49.8098 45.8812 48.2002C44.1287 46.5934 42.0373 45.7901 39.6072 45.7901C37.1771 45.7901 35.0857 46.5934 33.3332 48.2002C31.5835 49.8098 30.7086 51.7939 30.7086 54.1526C30.7086 61.0856 32.7642 66.875 36.8754 71.5208C40.9838 76.1667 46.29 79.4188 52.7942 81.2771C53.4375 81.563 53.8663 81.9375 54.0807 82.4007C54.2952 82.8667 54.3309 83.3856 54.188 83.9574C54.045 84.4577 53.7591 84.8865 53.3303 85.2439C52.9014 85.6013 52.3654 85.7085 51.7221 85.5655C44.2888 83.6357 38.2134 79.9191 33.4961 74.4155C28.7788 68.912 26.4202 62.1577 26.4202 54.1526C26.4202 50.5788 27.7067 47.5769 30.2798 45.1468C32.8529 42.7167 35.962 41.5016 39.6072 41.5016Z" fill="#958E99"/>
</svg>
