<svg width="266" height="178" viewBox="0 0 266 178" fill="none" xmlns="http://www.w3.org/2000/svg">
<path d="M251.711 166.768C251.711 167.975 201.902 168.95 140.463 168.95C79.0242 168.95 29.2148 167.971 29.2148 166.768C29.2148 165.565 79.0242 164.586 140.463 164.586C201.902 164.586 251.711 165.565 251.711 166.768Z" fill="#F5F5F5"/>
<path d="M224.891 29.1309H208.661C208.273 29.1309 207.959 29.4464 207.959 29.8357V50.7757C207.959 51.165 208.273 51.4805 208.661 51.4805H224.891C225.279 51.4805 225.593 51.165 225.593 50.7757V29.8357C225.593 29.4464 225.279 29.1309 224.891 29.1309Z" fill="#263238"/>
<g opacity="0.4">
<path d="M225.59 29.1309H210.762V51.4805H225.59V29.1309Z" fill="white"/>
</g>
<path d="M180.489 45.9668H152.527V53.126H193.477V45.9668H180.489ZM157.833 51.9725H153.971V47.1167H157.833V51.9725ZM163.135 51.9725H159.273V47.1167H163.135V51.9725ZM168.438 51.9725H164.575V47.1167H168.438V51.9725ZM173.74 51.9725H169.878V47.1167H173.74V51.9725ZM179.042 51.9725H175.18V47.1167H179.042V51.9725ZM182.947 51.9725H181.152V47.1167H182.947V51.9725ZM185.412 51.9725H183.617V47.1167H185.412V51.9725ZM187.877 51.9725H186.082V47.1167H187.877V51.9725ZM190.342 51.9725H188.547V47.1167H190.342V51.9725ZM192.807 51.9725H191.012V47.1167H192.807V51.9725Z" fill="#6923E7"/>
<path opacity="0.4" d="M180.489 45.9668H152.527V53.126H193.477V45.9668H180.489ZM157.833 51.9725H153.971V47.1167H157.833V51.9725ZM163.135 51.9725H159.273V47.1167H163.135V51.9725ZM168.438 51.9725H164.575V47.1167H168.438V51.9725ZM173.74 51.9725H169.878V47.1167H173.74V51.9725ZM179.042 51.9725H175.18V47.1167H179.042V51.9725ZM182.947 51.9725H181.152V47.1167H182.947V51.9725ZM185.412 51.9725H183.617V47.1167H185.412V51.9725ZM187.877 51.9725H186.082V47.1167H187.877V51.9725ZM190.342 51.9725H188.547V47.1167H190.342V51.9725ZM192.807 51.9725H191.012V47.1167H192.807V51.9725Z" fill="black"/>
<path d="M177.822 53.46H168.186V58.355H177.822V53.46Z" fill="#263238"/>
<path d="M179.224 112.678H166.654V166.768H179.451V112.678H179.22H179.224ZM168.034 113.988H174.028L168.034 120.406V113.988ZM168.034 123.853L174.028 130.271H168.034V123.853ZM168.034 131.581H174.028L168.034 138V131.581ZM168.034 141.446L174.028 147.865H168.034V141.446ZM168.034 149.175H174.028L168.034 155.594V149.175ZM168.034 165.458V159.04L174.028 165.458H168.034ZM174.872 164.39L168.878 157.972H174.872V164.39ZM174.872 156.662H168.878L174.872 150.243V156.662ZM174.872 146.797L168.878 140.382H174.872V146.797ZM174.872 139.068H168.878L174.872 132.649V139.068ZM174.872 129.203L168.878 122.785H174.872V129.203ZM174.872 121.474H168.878L174.872 115.056V121.474ZM176.709 115.056L178.709 121.474H176.709V115.056ZM176.709 122.785H178.709L176.709 129.203V122.785ZM176.709 132.649L178.709 139.068H176.709V132.649ZM176.709 140.378H178.709L176.709 146.793V140.378ZM176.709 150.243L178.709 156.662H176.709V150.243ZM176.709 157.972H178.709L176.709 164.39V157.972ZM178.99 165.458H176.989L178.99 159.04V165.458ZM178.99 155.594L176.989 149.175H178.99V155.594ZM178.99 147.865H176.989L178.99 141.446V147.865ZM178.99 138L176.989 131.581H178.99V138ZM178.99 130.271H176.989L178.99 123.853V130.271ZM178.99 120.406L176.989 113.988H178.99V120.406Z" fill="#6923E7"/>
<path opacity="0.4" d="M179.224 112.678H166.654V166.768H179.451V112.678H179.22H179.224ZM168.034 113.988H174.028L168.034 120.406V113.988ZM168.034 123.853L174.028 130.271H168.034V123.853ZM168.034 131.581H174.028L168.034 138V131.581ZM168.034 141.446L174.028 147.865H168.034V141.446ZM168.034 149.175H174.028L168.034 155.594V149.175ZM168.034 165.458V159.04L174.028 165.458H168.034ZM174.872 164.39L168.878 157.972H174.872V164.39ZM174.872 156.662H168.878L174.872 150.243V156.662ZM174.872 146.797L168.878 140.382H174.872V146.797ZM174.872 139.068H168.878L174.872 132.649V139.068ZM174.872 129.203L168.878 122.785H174.872V129.203ZM174.872 121.474H168.878L174.872 115.056V121.474ZM176.709 115.056L178.709 121.474H176.709V115.056ZM176.709 122.785H178.709L176.709 129.203V122.785ZM176.709 132.649L178.709 139.068H176.709V132.649ZM176.709 140.378H178.709L176.709 146.793V140.378ZM176.709 150.243L178.709 156.662H176.709V150.243ZM176.709 157.972H178.709L176.709 164.39V157.972ZM178.99 165.458H176.989L178.99 159.04V165.458ZM178.99 155.594L176.989 149.175H178.99V155.594ZM178.99 147.865H176.989L178.99 141.446V147.865ZM178.99 138L176.989 131.581H178.99V138ZM178.99 130.271H176.989L178.99 123.853V130.271ZM178.99 120.406L176.989 113.988H178.99V120.406Z" fill="black"/>
<path d="M178.763 112.678H169.854V166.768H179.451V112.678H178.763ZM171.233 132.649L177.227 139.068H171.233V132.649ZM171.233 140.378H177.227L171.233 146.793V140.378ZM171.233 150.243L177.227 156.662H171.233V150.243ZM172.077 149.175H178.071V155.594L172.077 149.175ZM178.071 147.865H172.077L178.071 141.446V147.865ZM172.077 131.581H178.071V138L172.077 131.581ZM178.071 130.271H172.077L178.071 123.853V130.271ZM171.233 129.203V122.785H177.227L171.233 129.203ZM171.233 121.474V115.056L177.227 121.474H171.233ZM171.233 157.972H177.227L171.233 164.39V157.972ZM178.071 113.988V120.406L172.077 113.988H178.071ZM172.077 165.458L178.071 159.04V165.458H172.077Z" fill="#6923E7"/>
<path d="M166.885 112.678H169.857V166.768H166.654V112.678H166.885ZM169.396 132.649L167.396 139.068H169.396V132.649ZM169.396 140.378H167.396L169.396 146.793V140.378ZM169.396 150.243L167.396 156.662H169.396V150.243ZM169.116 149.175H167.115V155.594L169.116 149.175ZM167.115 147.865H169.116L167.115 141.446V147.865ZM169.116 131.581H167.115V138L169.116 131.581ZM167.115 130.271H169.116L167.115 123.853V130.271ZM169.396 129.203V122.785H167.396L169.396 129.203ZM169.396 121.474V115.056L167.396 121.474H169.396ZM169.396 157.972H167.396L169.396 164.39V157.972ZM167.115 113.988V120.406L169.116 113.988H167.115ZM169.116 165.458L167.115 159.04V165.458H169.116Z" fill="#6923E7"/>
<path opacity="0.3" d="M178.763 112.678H169.854V166.768H179.451V112.678H178.763ZM171.233 132.649L177.227 139.068H171.233V132.649ZM171.233 140.378H177.227L171.233 146.793V140.378ZM171.233 150.243L177.227 156.662H171.233V150.243ZM172.077 149.175H178.071V155.594L172.077 149.175ZM178.071 147.865H172.077L178.071 141.446V147.865ZM172.077 131.581H178.071V138L172.077 131.581ZM178.071 130.271H172.077L178.071 123.853V130.271ZM171.233 129.203V122.785H177.227L171.233 129.203ZM171.233 121.474V115.056L177.227 121.474H171.233ZM171.233 157.972H177.227L171.233 164.39V157.972ZM178.071 113.988V120.406L172.077 113.988H178.071ZM172.077 165.458L178.071 159.04V165.458H172.077Z" fill="white"/>
<path d="M179.173 59.7471H166.604V113.838H179.4V59.7471H179.169H179.173ZM167.983 61.0571H173.977L167.983 67.4723V61.0571ZM167.983 70.9219L173.977 77.3406H167.983V70.9219ZM167.983 78.6507H173.977L167.983 85.0694V78.6507ZM167.983 88.5154L173.977 94.9341H167.983V88.5154ZM167.983 96.2442H173.977L167.983 102.663V96.2442ZM167.983 112.528V106.109L173.977 112.528H167.983ZM174.821 111.46L168.827 105.041H174.821V111.46ZM174.821 103.731H168.827L174.821 97.3122V103.731ZM174.821 93.8661L168.827 87.4474H174.821V93.8661ZM174.821 86.1374H168.827L174.821 79.7187V86.1374ZM174.821 76.2726L168.827 69.8539H174.821V76.2726ZM174.821 68.5438H168.827L174.821 62.1287V68.5438ZM176.658 62.1287L178.659 68.5438H176.658V62.1287ZM176.658 69.8575H178.659L176.658 76.2761V69.8575ZM176.658 79.7222L178.659 86.1409H176.658V79.7222ZM176.658 87.451H178.659L176.658 93.8697V87.451ZM176.658 97.3157L178.659 103.734H176.658V97.3157ZM176.658 105.045H178.659L176.658 111.463V105.045ZM178.939 112.531H176.939L178.939 106.113V112.531ZM178.939 102.666L176.939 96.2477H178.939V102.666ZM178.939 94.9377H176.939L178.939 88.519V94.9377ZM178.939 85.0729L176.939 78.6542H178.939V85.0729ZM178.939 77.3441H176.939L178.939 70.9255V77.3441ZM178.939 67.4794L176.939 61.0643H178.939V67.4794Z" fill="#6923E7"/>
<path opacity="0.4" d="M179.173 59.7471H166.604V113.838H179.4V59.7471H179.169H179.173ZM167.983 61.0571H173.977L167.983 67.4723V61.0571ZM167.983 70.9219L173.977 77.3406H167.983V70.9219ZM167.983 78.6507H173.977L167.983 85.0694V78.6507ZM167.983 88.5154L173.977 94.9341H167.983V88.5154ZM167.983 96.2442H173.977L167.983 102.663V96.2442ZM167.983 112.528V106.109L173.977 112.528H167.983ZM174.821 111.46L168.827 105.041H174.821V111.46ZM174.821 103.731H168.827L174.821 97.3122V103.731ZM174.821 93.8661L168.827 87.4474H174.821V93.8661ZM174.821 86.1374H168.827L174.821 79.7187V86.1374ZM174.821 76.2726L168.827 69.8539H174.821V76.2726ZM174.821 68.5438H168.827L174.821 62.1287V68.5438ZM176.658 62.1287L178.659 68.5438H176.658V62.1287ZM176.658 69.8575H178.659L176.658 76.2761V69.8575ZM176.658 79.7222L178.659 86.1409H176.658V79.7222ZM176.658 87.451H178.659L176.658 93.8697V87.451ZM176.658 97.3157L178.659 103.734H176.658V97.3157ZM176.658 105.045H178.659L176.658 111.463V105.045ZM178.939 112.531H176.939L178.939 106.113V112.531ZM178.939 102.666L176.939 96.2477H178.939V102.666ZM178.939 94.9377H176.939L178.939 88.519V94.9377ZM178.939 85.0729L176.939 78.6542H178.939V85.0729ZM178.939 77.3441H176.939L178.939 70.9255V77.3441ZM178.939 67.4794L176.939 61.0643H178.939V67.4794Z" fill="black"/>
<path d="M178.712 59.7471H169.803V113.838H179.4V59.7471H178.712ZM171.182 79.7187L177.176 86.1374H171.182V79.7187ZM171.182 87.4474H177.176L171.182 93.8661V87.4474ZM171.182 97.3122L177.176 103.731H171.182V97.3122ZM172.027 96.2442H178.02V102.663L172.027 96.2442ZM178.02 94.9341H172.027L178.02 88.5154V94.9341ZM172.027 78.6507H178.02V85.0694L172.027 78.6507ZM178.02 77.3406H172.027L178.02 70.9219V77.3406ZM171.182 76.2726V69.8539H177.176L171.182 76.2726ZM171.182 68.5438V62.1287L177.176 68.5438H171.182ZM171.182 105.041H177.176L171.182 111.46V105.041ZM178.02 61.0571V67.4723L172.027 61.0571H178.02ZM172.027 112.528L178.02 106.109V112.528H172.027Z" fill="#6923E7"/>
<path d="M166.834 59.7471H169.806V113.838H166.604V59.7471H166.834ZM169.345 79.7187L167.345 86.1374H169.345V79.7187ZM169.345 87.4474H167.345L169.345 93.8661V87.4474ZM169.345 97.3122L167.345 103.731H169.345V97.3122ZM169.065 96.2442H167.065V102.663L169.065 96.2442ZM167.065 94.9341H169.065L167.065 88.5154V94.9341ZM169.065 78.6507H167.065V85.0694L169.065 78.6507ZM167.065 77.3406H169.065L167.065 70.9219V77.3406ZM169.345 76.2726V69.8539H167.345L169.345 76.2726ZM169.345 68.5438V62.1287L167.345 68.5438H169.345ZM169.345 105.041H167.345L169.345 111.46V105.041ZM167.065 61.0571V67.4723L169.065 61.0571H167.065ZM169.065 112.528L167.065 106.109V112.528H169.065Z" fill="#6923E7"/>
<path opacity="0.3" d="M178.712 59.7471H169.803V113.838H179.4V59.7471H178.712ZM171.182 79.7187L177.176 86.1374H171.182V79.7187ZM171.182 87.4474H177.176L171.182 93.8661V87.4474ZM171.182 97.3122L177.176 103.731H171.182V97.3122ZM172.027 96.2442H178.02V102.663L172.027 96.2442ZM178.02 94.9341H172.027L178.02 88.5154V94.9341ZM172.027 78.6507H178.02V85.0694L172.027 78.6507ZM178.02 77.3406H172.027L178.02 70.9219V77.3406ZM171.182 76.2726V69.8539H177.176L171.182 76.2726ZM171.182 68.5438V62.1287L177.176 68.5438H171.182ZM171.182 105.041H177.176L171.182 111.46V105.041ZM178.02 61.0571V67.4723L172.027 61.0571H178.02ZM172.027 112.528L178.02 106.109V112.528H172.027Z" fill="white"/>
<path d="M179.702 56.9639H166.307V59.7513H179.702V56.9639Z" fill="#263238"/>
<path opacity="0.3" d="M179.698 56.9639H169.654V59.7513H179.698V56.9639Z" fill="white"/>
<path d="M171.698 11.2637L166.307 33.3392V52.4386H179.702V33.3392L174.28 11.2637H171.698ZM172.357 13.9016L172.928 18.2698H171.325L172.357 13.9016ZM171.002 19.6439H172.325L170.414 22.1324L171.002 19.6439ZM173.255 20.7618L173.748 24.5176H170.371L173.258 20.7618H173.255ZM173.925 25.8882L174.588 30.9612L170.424 25.8882H173.921H173.925ZM169.318 26.7675L174.148 32.6557H167.927L169.318 26.7675ZM167.747 34.0263H174.021L167.747 40.744V34.0263ZM167.747 51.068V44.3503L174.021 51.068H167.747ZM174.904 49.9502L168.63 43.2325H174.904V49.9502ZM174.904 41.8619H168.63L174.904 35.1442V41.8619ZM178.922 43.2325L176.83 49.9502V43.2325H178.922ZM176.83 41.8619V35.1442L178.922 41.8619H176.83ZM179.217 51.068H177.124L179.217 44.3503V51.068ZM179.217 40.7405L177.124 34.0228H179.217V40.7405ZM179.039 32.6557H176.964L177.56 26.7995L179.039 32.6557ZM176.525 30.9718L175.872 25.9273H177.039L176.525 30.9718ZM175.695 24.5638L175.212 20.8294L176.823 24.5638H175.695ZM176.397 22.1964L175.329 19.7222H175.773L176.397 22.1964ZM174.893 18.3588L174.329 14.0156L175.425 18.3588H174.89H174.893Z" fill="#6923E7"/>
<path opacity="0.4" d="M171.698 11.2637L166.307 33.3392V52.4386H179.702V33.3392L174.28 11.2637H171.698ZM172.357 13.9016L172.928 18.2698H171.325L172.357 13.9016ZM171.002 19.6439H172.325L170.414 22.1324L171.002 19.6439ZM173.255 20.7618L173.748 24.5176H170.371L173.258 20.7618H173.255ZM173.925 25.8882L174.588 30.9612L170.424 25.8882H173.921H173.925ZM169.318 26.7675L174.148 32.6557H167.927L169.318 26.7675ZM167.747 34.0263H174.021L167.747 40.744V34.0263ZM167.747 51.068V44.3503L174.021 51.068H167.747ZM174.904 49.9502L168.63 43.2325H174.904V49.9502ZM174.904 41.8619H168.63L174.904 35.1442V41.8619ZM178.922 43.2325L176.83 49.9502V43.2325H178.922ZM176.83 41.8619V35.1442L178.922 41.8619H176.83ZM179.217 51.068H177.124L179.217 44.3503V51.068ZM179.217 40.7405L177.124 34.0228H179.217V40.7405ZM179.039 32.6557H176.964L177.56 26.7995L179.039 32.6557ZM176.525 30.9718L175.872 25.9273H177.039L176.525 30.9718ZM175.695 24.5638L175.212 20.8294L176.823 24.5638H175.695ZM176.397 22.1964L175.329 19.7222H175.773L176.397 22.1964ZM174.893 18.3588L174.329 14.0156L175.425 18.3588H174.89H174.893Z" fill="black"/>
<path d="M171.726 11.2637L166.303 33.3392V52.4386H179.699V33.3392L174.308 11.2637H171.726ZM173.648 13.9016L174.68 18.2698H173.077L173.648 13.9016ZM171.672 14.0156L171.108 18.3588H170.573L171.669 14.0156H171.672ZM172.077 25.8882H175.574L171.41 30.9612L172.073 25.8882H172.077ZM177.368 41.8619H171.094V35.1442L177.368 41.8619ZM170.229 19.7222H170.672L169.605 22.1964L170.229 19.7222ZM168.441 26.8031L169.037 32.6593H166.962L168.441 26.8031ZM166.785 34.0263H168.878L166.785 40.744V34.0263ZM166.785 51.068V44.3503L168.878 51.068H166.785ZM169.172 49.9502L167.079 43.2325H169.172V49.9502ZM169.172 41.8619H167.079L169.172 35.1442V41.8619ZM169.477 30.9754L168.963 25.9309H170.13L169.477 30.9754ZM170.307 24.5674H169.179L170.789 20.833L170.307 24.5674ZM171.098 43.2325H177.372L171.098 49.9502V43.2325ZM178.255 51.068H171.981L178.255 44.3503V51.068ZM178.255 40.7405L171.981 34.0228H178.255V40.7405ZM178.074 32.6522H171.853L176.684 26.7639L178.074 32.6522ZM172.258 24.5104L172.751 20.7546L175.638 24.5104H172.261H172.258ZM175.591 22.1288L173.68 19.6404H175.003L175.591 22.1288Z" fill="#6923E7"/>
<path opacity="0.3" d="M172.364 11.2637L169.654 33.3392V52.4386H179.698V33.3392L174.308 11.2637H172.364ZM173.648 13.9016L174.68 18.2698H173.077L173.648 13.9016ZM172.08 25.8846H175.577L171.413 30.9576L172.077 25.8846H172.08ZM171.098 35.1442L177.372 41.8619H171.098V35.1442ZM171.098 43.2325H177.372L171.098 49.9502V43.2325ZM178.255 51.068H171.981L178.255 44.3503V51.068ZM178.255 40.7405L171.981 34.0228H178.255V40.7405ZM178.074 32.6522H171.853L176.684 26.7639L178.074 32.6522ZM172.258 24.5104L172.751 20.7546L175.638 24.5104H172.261H172.258ZM175.591 22.1288L173.68 19.6404H175.003L175.591 22.1288Z" fill="white"/>
<path d="M179.702 52.4385H166.307V53.8198H179.702V52.4385Z" fill="#263238"/>
<path d="M165.516 45.9668V53.126H193.478V45.9668H165.516ZM177.567 47.1167H181.43V51.9725H177.567V47.1167ZM176.124 51.9725H172.261V47.1167H176.124V51.9725ZM182.869 47.1167H186.732V51.9725H182.869V47.1167ZM166.959 47.1167H170.821V51.9725H166.959V47.1167ZM192.034 51.9725H188.172V47.1167H192.034V51.9725Z" fill="#6923E7"/>
<path d="M152.527 45.9668V53.126H165.515V45.9668H152.527ZM158.124 47.1167H159.919V51.9725H158.124V47.1167ZM157.454 51.9725H155.659V47.1167H157.454V51.9725ZM160.585 47.1167H162.38V51.9725H160.585V47.1167ZM153.194 47.1167H154.989V51.9725H153.194V47.1167ZM164.841 51.9725H163.047V47.1167H164.841V51.9725Z" fill="#6923E7"/>
<path opacity="0.2" d="M152.527 45.9668V53.126H165.515V45.9668H152.527ZM158.124 47.1167H159.919V51.9725H158.124V47.1167ZM157.454 51.9725H155.659V47.1167H157.454V51.9725ZM160.585 47.1167H162.38V51.9725H160.585V47.1167ZM153.194 47.1167H154.989V51.9725H153.194V47.1167ZM164.841 51.9725H163.047V47.1167H164.841V51.9725Z" fill="black"/>
<path d="M177.348 8.72522V11.3561C177.348 11.6658 177.096 11.9221 176.784 11.9221H167.786C167.474 11.9221 167.219 11.6658 167.219 11.3561V8.72522C167.219 8.4155 167.474 8.15918 167.786 8.15918H176.784C177.096 8.15918 177.348 8.4155 177.348 8.72522Z" fill="#6923E7"/>
<path opacity="0.3" d="M177.348 8.72522V11.3561C177.348 11.6658 177.096 11.9221 176.784 11.9221H168.265C167.953 11.9221 167.697 11.6658 167.697 11.3561V8.72522C167.697 8.4155 167.953 8.15918 168.265 8.15918H176.784C177.096 8.15918 177.348 8.4155 177.348 8.72522Z" fill="white"/>
<path d="M170.234 10.0385C170.234 10.8003 169.744 11.4198 169.141 11.4198C168.538 11.4198 168.049 10.8003 168.049 10.0385C168.049 9.27667 168.538 8.65723 169.141 8.65723C169.744 8.65723 170.234 9.27667 170.234 10.0385Z" fill="#263238"/>
<path d="M122.701 33.6705C122.64 33.6705 122.58 33.6384 122.548 33.5779C122.506 33.4925 122.537 33.3892 122.623 33.3465L169.47 8.89286C169.552 8.85014 169.658 8.88218 169.701 8.96762C169.744 9.05306 169.712 9.1563 169.627 9.19902L122.779 33.6527C122.754 33.6669 122.725 33.6705 122.701 33.6705Z" fill="#263238"/>
<path d="M177.251 8.93094L177.016 9.17773L211.089 41.9413L211.324 41.6945L177.251 8.93094Z" fill="#263238"/>
<path d="M220.646 41.8086H220.306V38.0741C220.306 37.4226 219.777 36.8886 219.125 36.8886H182.98C182.331 36.8886 181.799 37.4191 181.799 38.0741V41.8086H181.459V38.0741C181.459 37.2304 182.14 36.5469 182.98 36.5469H219.125C219.965 36.5469 220.646 37.2304 220.646 38.0741V41.8086Z" fill="#263238"/>
<path d="M186.655 36.7178H186.314V41.8086H186.655V36.7178Z" fill="#263238"/>
<path d="M191.51 36.7178H191.17V41.8086H191.51V36.7178Z" fill="#263238"/>
<path d="M196.366 36.7178H196.025V41.8086H196.366V36.7178Z" fill="#263238"/>
<path d="M201.221 36.7178H200.881V41.8086H201.221V36.7178Z" fill="#263238"/>
<path d="M206.077 36.7178H205.736V41.8086H206.077V36.7178Z" fill="#263238"/>
<path d="M210.932 36.7178H210.592V41.8086H210.932V36.7178Z" fill="#263238"/>
<path d="M215.788 36.7178H215.447V41.8086H215.788V36.7178Z" fill="#263238"/>
<path d="M220.476 39.3594H181.629V39.7011H220.476V39.3594Z" fill="#263238"/>
<path d="M226.966 41.8085H226.483V38.074C226.483 37.4581 225.987 36.9597 225.373 36.9597H189.229C188.616 36.9597 188.119 37.4581 188.119 38.074V41.8085H187.637V38.074C187.637 37.1947 188.35 36.4756 189.229 36.4756H225.373C226.249 36.4756 226.966 37.1911 226.966 38.074V41.8085Z" fill="#263238"/>
<path d="M192.978 36.7178H192.496V41.8086H192.978V36.7178Z" fill="#263238"/>
<path d="M197.834 36.7178H197.352V41.8086H197.834V36.7178Z" fill="#263238"/>
<path d="M202.689 36.7178H202.207V41.8086H202.689V36.7178Z" fill="#263238"/>
<path d="M207.545 36.7178H207.062V41.8086H207.545V36.7178Z" fill="#263238"/>
<path d="M212.4 36.7178H211.918V41.8086H212.4V36.7178Z" fill="#263238"/>
<path d="M217.258 36.7178H216.775V41.8086H217.258V36.7178Z" fill="#263238"/>
<path d="M222.113 36.7178H221.631V41.8086H222.113V36.7178Z" fill="#263238"/>
<path d="M226.728 39.292H187.881V39.7762H226.728V39.292Z" fill="#263238"/>
<g opacity="0.3">
<path d="M226.966 41.8085H226.483V38.074C226.483 37.4581 225.987 36.9597 225.373 36.9597H189.229C188.616 36.9597 188.119 37.4581 188.119 38.074V41.8085H187.637V38.074C187.637 37.1947 188.35 36.4756 189.229 36.4756H225.373C226.249 36.4756 226.966 37.1911 226.966 38.074V41.8085Z" fill="white"/>
<path d="M192.978 36.7178H192.496V41.8086H192.978V36.7178Z" fill="white"/>
<path d="M197.834 36.7178H197.352V41.8086H197.834V36.7178Z" fill="white"/>
<path d="M202.689 36.7178H202.207V41.8086H202.689V36.7178Z" fill="white"/>
<path d="M207.545 36.7178H207.062V41.8086H207.545V36.7178Z" fill="white"/>
<path d="M212.4 36.7178H211.918V41.8086H212.4V36.7178Z" fill="white"/>
<path d="M217.258 36.7178H216.775V41.8086H217.258V36.7178Z" fill="white"/>
<path d="M222.113 36.7178H221.631V41.8086H222.113V36.7178Z" fill="white"/>
<path d="M226.728 39.292H187.881V39.7762H226.728V39.292Z" fill="white"/>
</g>
<path d="M182.002 41.1211H181.257C181.22 41.1211 181.189 41.1514 181.189 41.1887V42.5309C181.189 42.5682 181.22 42.5985 181.257 42.5985H182.002C182.039 42.5985 182.069 42.5682 182.069 42.5309V41.1887C182.069 41.1514 182.039 41.1211 182.002 41.1211Z" fill="#6923E7"/>
<path d="M186.857 41.1211H186.112C186.075 41.1211 186.045 41.1514 186.045 41.1887V42.5309C186.045 42.5682 186.075 42.5985 186.112 42.5985H186.857C186.894 42.5985 186.924 42.5682 186.924 42.5309V41.1887C186.924 41.1514 186.894 41.1211 186.857 41.1211Z" fill="#6923E7"/>
<path d="M191.713 41.1211H190.968C190.931 41.1211 190.9 41.1514 190.9 41.1887V42.5309C190.9 42.5682 190.931 42.5985 190.968 42.5985H191.713C191.75 42.5985 191.78 42.5682 191.78 42.5309V41.1887C191.78 41.1514 191.75 41.1211 191.713 41.1211Z" fill="#6923E7"/>
<path d="M196.568 41.1211H195.823C195.786 41.1211 195.756 41.1514 195.756 41.1887V42.5309C195.756 42.5682 195.786 42.5985 195.823 42.5985H196.568C196.605 42.5985 196.635 42.5682 196.635 42.5309V41.1887C196.635 41.1514 196.605 41.1211 196.568 41.1211Z" fill="#6923E7"/>
<path d="M201.424 41.1211H200.679C200.641 41.1211 200.611 41.1514 200.611 41.1887V42.5309C200.611 42.5682 200.641 42.5985 200.679 42.5985H201.424C201.461 42.5985 201.491 42.5682 201.491 42.5309V41.1887C201.491 41.1514 201.461 41.1211 201.424 41.1211Z" fill="#6923E7"/>
<path d="M206.279 41.1211H205.534C205.497 41.1211 205.467 41.1514 205.467 41.1887V42.5309C205.467 42.5682 205.497 42.5985 205.534 42.5985H206.279C206.316 42.5985 206.346 42.5682 206.346 42.5309V41.1887C206.346 41.1514 206.316 41.1211 206.279 41.1211Z" fill="#6923E7"/>
<path d="M211.134 41.1211H210.39C210.352 41.1211 210.322 41.1514 210.322 41.1887V42.5309C210.322 42.5682 210.352 42.5985 210.39 42.5985H211.134C211.172 42.5985 211.202 42.5682 211.202 42.5309V41.1887C211.202 41.1514 211.172 41.1211 211.134 41.1211Z" fill="#6923E7"/>
<path d="M215.99 41.1211H215.245C215.208 41.1211 215.178 41.1514 215.178 41.1887V42.5309C215.178 42.5682 215.208 42.5985 215.245 42.5985H215.99C216.027 42.5985 216.057 42.5682 216.057 42.5309V41.1887C216.057 41.1514 216.027 41.1211 215.99 41.1211Z" fill="#6923E7"/>
<path d="M220.845 41.1211H220.101C220.063 41.1211 220.033 41.1514 220.033 41.1887V42.5309C220.033 42.5682 220.063 42.5985 220.101 42.5985H220.845C220.883 42.5985 220.913 42.5682 220.913 42.5309V41.1887C220.913 41.1514 220.883 41.1211 220.845 41.1211Z" fill="#6923E7"/>
<path d="M227.342 41.3311H162.385V42.3919H227.342V41.3311Z" fill="#6923E7"/>
<path opacity="0.3" d="M227.342 41.3311H162.385V42.3919H227.342V41.3311Z" fill="white"/>
<path d="M188.254 41.1211H187.509C187.472 41.1211 187.441 41.1514 187.441 41.1887V42.5309C187.441 42.5682 187.472 42.5985 187.509 42.5985H188.254C188.291 42.5985 188.321 42.5682 188.321 42.5309V41.1887C188.321 41.1514 188.291 41.1211 188.254 41.1211Z" fill="#6923E7"/>
<path d="M193.109 41.1211H192.364C192.327 41.1211 192.297 41.1514 192.297 41.1887V42.5309C192.297 42.5682 192.327 42.5985 192.364 42.5985H193.109C193.146 42.5985 193.176 42.5682 193.176 42.5309V41.1887C193.176 41.1514 193.146 41.1211 193.109 41.1211Z" fill="#6923E7"/>
<path d="M197.22 41.1211H197.965C198.004 41.1211 198.032 41.1531 198.032 41.1887V42.5309C198.032 42.57 198 42.5985 197.965 42.5985H197.22C197.181 42.5985 197.152 42.5665 197.152 42.5309V41.1887C197.152 41.1496 197.184 41.1211 197.22 41.1211Z" fill="#6923E7"/>
<path d="M202.82 41.1211H202.075C202.038 41.1211 202.008 41.1514 202.008 41.1887V42.5309C202.008 42.5682 202.038 42.5985 202.075 42.5985H202.82C202.857 42.5985 202.887 42.5682 202.887 42.5309V41.1887C202.887 41.1514 202.857 41.1211 202.82 41.1211Z" fill="#6923E7"/>
<path d="M206.931 41.1211H207.675C207.714 41.1211 207.743 41.1531 207.743 41.1887V42.5309C207.743 42.57 207.711 42.5985 207.675 42.5985H206.931C206.892 42.5985 206.863 42.5665 206.863 42.5309V41.1887C206.863 41.1496 206.895 41.1211 206.931 41.1211Z" fill="#6923E7"/>
<path d="M212.531 41.1211H211.786C211.749 41.1211 211.719 41.1514 211.719 41.1887V42.5309C211.719 42.5682 211.749 42.5985 211.786 42.5985H212.531C212.568 42.5985 212.598 42.5682 212.598 42.5309V41.1887C212.598 41.1514 212.568 41.1211 212.531 41.1211Z" fill="#6923E7"/>
<path d="M217.386 41.1211H216.642C216.604 41.1211 216.574 41.1514 216.574 41.1887V42.5309C216.574 42.5682 216.604 42.5985 216.642 42.5985H217.386C217.424 42.5985 217.454 42.5682 217.454 42.5309V41.1887C217.454 41.1514 217.424 41.1211 217.386 41.1211Z" fill="#6923E7"/>
<path d="M221.497 41.1211H222.242C222.281 41.1211 222.309 41.1531 222.309 41.1887V42.5309C222.309 42.57 222.277 42.5985 222.242 42.5985H221.497C221.458 42.5985 221.43 42.5665 221.43 42.5309V41.1887C221.43 41.1496 221.462 41.1211 221.497 41.1211Z" fill="#6923E7"/>
<path d="M227.097 41.1211H226.353C226.315 41.1211 226.285 41.1514 226.285 41.1887V42.5309C226.285 42.5682 226.315 42.5985 226.353 42.5985H227.097C227.135 42.5985 227.165 42.5682 227.165 42.5309V41.1887C227.165 41.1514 227.135 41.1211 227.097 41.1211Z" fill="#6923E7"/>
<g opacity="0.5">
<path d="M188.254 41.1211H187.509C187.472 41.1211 187.441 41.1514 187.441 41.1887V42.5309C187.441 42.5682 187.472 42.5985 187.509 42.5985H188.254C188.291 42.5985 188.321 42.5682 188.321 42.5309V41.1887C188.321 41.1514 188.291 41.1211 188.254 41.1211Z" fill="white"/>
<path d="M193.109 41.1211H192.364C192.327 41.1211 192.297 41.1514 192.297 41.1887V42.5309C192.297 42.5682 192.327 42.5985 192.364 42.5985H193.109C193.146 42.5985 193.176 42.5682 193.176 42.5309V41.1887C193.176 41.1514 193.146 41.1211 193.109 41.1211Z" fill="white"/>
<path d="M197.22 41.1211H197.965C198.004 41.1211 198.032 41.1531 198.032 41.1887V42.5309C198.032 42.57 198 42.5985 197.965 42.5985H197.22C197.181 42.5985 197.152 42.5665 197.152 42.5309V41.1887C197.152 41.1496 197.184 41.1211 197.22 41.1211Z" fill="white"/>
<path d="M202.82 41.1211H202.075C202.038 41.1211 202.008 41.1514 202.008 41.1887V42.5309C202.008 42.5682 202.038 42.5985 202.075 42.5985H202.82C202.857 42.5985 202.887 42.5682 202.887 42.5309V41.1887C202.887 41.1514 202.857 41.1211 202.82 41.1211Z" fill="white"/>
<path d="M206.931 41.1211H207.675C207.714 41.1211 207.743 41.1531 207.743 41.1887V42.5309C207.743 42.57 207.711 42.5985 207.675 42.5985H206.931C206.892 42.5985 206.863 42.5665 206.863 42.5309V41.1887C206.863 41.1496 206.895 41.1211 206.931 41.1211Z" fill="white"/>
<path d="M212.531 41.1211H211.786C211.749 41.1211 211.719 41.1514 211.719 41.1887V42.5309C211.719 42.5682 211.749 42.5985 211.786 42.5985H212.531C212.568 42.5985 212.598 42.5682 212.598 42.5309V41.1887C212.598 41.1514 212.568 41.1211 212.531 41.1211Z" fill="white"/>
<path d="M217.386 41.1211H216.642C216.604 41.1211 216.574 41.1514 216.574 41.1887V42.5309C216.574 42.5682 216.604 42.5985 216.642 42.5985H217.386C217.424 42.5985 217.454 42.5682 217.454 42.5309V41.1887C217.454 41.1514 217.424 41.1211 217.386 41.1211Z" fill="white"/>
<path d="M221.497 41.1211H222.242C222.281 41.1211 222.309 41.1531 222.309 41.1887V42.5309C222.309 42.57 222.277 42.5985 222.242 42.5985H221.497C221.458 42.5985 221.43 42.5665 221.43 42.5309V41.1887C221.43 41.1496 221.462 41.1211 221.497 41.1211Z" fill="white"/>
<path d="M227.097 41.1211H226.353C226.315 41.1211 226.285 41.1514 226.285 41.1887V42.5309C226.285 42.5682 226.315 42.5985 226.353 42.5985H227.097C227.135 42.5985 227.165 42.5682 227.165 42.5309V41.1887C227.165 41.1514 227.135 41.1211 227.097 41.1211Z" fill="white"/>
</g>
<path d="M52.9947 33.4598C52.9451 32.9008 52.4804 32.4736 51.9236 32.4736H51.4413C50.8844 32.4736 50.4198 32.9008 50.3702 33.4598L50.207 35.3216H53.1614L52.9983 33.4598H52.9947ZM51.8385 33.4989C51.8385 33.6271 51.7747 33.7339 51.6824 33.8086C51.5902 33.7374 51.5264 33.6271 51.5264 33.4989C51.5264 33.3708 51.5902 33.264 51.6824 33.1892C51.7747 33.2604 51.8385 33.3708 51.8385 33.4989Z" fill="#6923E7"/>
<path opacity="0.3" d="M52.9948 33.4598C52.9451 32.9008 52.4805 32.4736 51.9237 32.4736C51.3669 32.4736 50.9023 32.9008 50.8526 33.4598L50.6895 35.3216H53.1615L52.9983 33.4598H52.9948ZM51.9237 33.8976C51.7038 33.8976 51.5265 33.7196 51.5265 33.4989C51.5265 33.2782 51.7038 33.1002 51.9237 33.1002C52.1436 33.1002 52.3209 33.2782 52.3209 33.4989C52.3209 33.7196 52.1436 33.8976 51.9237 33.8976Z" fill="white"/>
<path d="M88.4264 33.4598C88.3767 32.9008 87.9121 32.4736 87.3553 32.4736H86.8729C86.3161 32.4736 85.8515 32.9008 85.8018 33.4598L85.6387 35.3216H88.593L88.4299 33.4598H88.4264ZM87.2701 33.4989C87.2701 33.6271 87.2063 33.7339 87.1141 33.8086C87.0219 33.7374 86.958 33.6271 86.958 33.4989C86.958 33.3708 87.0219 33.264 87.1141 33.1892C87.2063 33.2604 87.2701 33.3708 87.2701 33.4989Z" fill="#6923E7"/>
<path opacity="0.3" d="M88.4264 33.4598C88.3768 32.9008 87.9122 32.4736 87.3553 32.4736C86.7985 32.4736 86.3339 32.9008 86.2842 33.4598L86.1211 35.3216H88.5931L88.43 33.4598H88.4264ZM87.3553 33.8976C87.1354 33.8976 86.9581 33.7196 86.9581 33.4989C86.9581 33.2782 87.1354 33.1002 87.3553 33.1002C87.5752 33.1002 87.7526 33.2782 87.7526 33.4989C87.7526 33.7196 87.5752 33.8976 87.3553 33.8976Z" fill="white"/>
<path d="M123.856 33.4598C123.806 32.9008 123.342 32.4736 122.785 32.4736H122.303C121.746 32.4736 121.281 32.9008 121.232 33.4598L121.068 35.3216H124.023L123.86 33.4598H123.856ZM122.7 33.4989C122.7 33.6271 122.636 33.7339 122.544 33.8086C122.452 33.7374 122.388 33.6271 122.388 33.4989C122.388 33.3708 122.452 33.264 122.544 33.1892C122.636 33.2604 122.7 33.3708 122.7 33.4989Z" fill="#6923E7"/>
<path opacity="0.3" d="M123.856 33.4598C123.806 32.9008 123.342 32.4736 122.785 32.4736C122.228 32.4736 121.764 32.9008 121.714 33.4598L121.551 35.3216H124.023L123.86 33.4598H123.856ZM122.785 33.8976C122.565 33.8976 122.388 33.7196 122.388 33.4989C122.388 33.2782 122.565 33.1002 122.785 33.1002C123.005 33.1002 123.182 33.2782 123.182 33.4989C123.182 33.7196 123.005 33.8976 122.785 33.8976Z" fill="white"/>
<path d="M159.292 33.4598C159.242 32.9008 158.777 32.4736 158.22 32.4736H157.738C157.181 32.4736 156.717 32.9008 156.667 33.4598L156.504 35.3216H159.458L159.295 33.4598H159.292ZM158.135 33.4989C158.135 33.6271 158.072 33.7339 157.979 33.8086C157.887 33.7374 157.823 33.6271 157.823 33.4989C157.823 33.3708 157.887 33.264 157.979 33.1892C158.072 33.2604 158.135 33.3708 158.135 33.4989Z" fill="#6923E7"/>
<path opacity="0.3" d="M159.292 33.4598C159.242 32.9008 158.777 32.4736 158.221 32.4736C157.664 32.4736 157.199 32.9008 157.149 33.4598L156.986 35.3216H159.458L159.295 33.4598H159.292ZM158.221 33.8976C158.001 33.8976 157.823 33.7196 157.823 33.4989C157.823 33.2782 158.001 33.1002 158.221 33.1002C158.44 33.1002 158.618 33.2782 158.618 33.4989C158.618 33.7196 158.44 33.8976 158.221 33.8976Z" fill="white"/>
<path d="M159.271 34.3037H50.2602L43.8301 42.3742L85.9645 42.392H165.616L159.274 34.3037H159.271ZM66.1741 35.4643H71.831L64.4788 40.5159L66.1741 35.4643ZM63.3226 40.5159L59.3609 35.4643H65.0179L63.3226 40.5159ZM50.6645 35.4643H56.3214L48.9692 40.5159L50.6645 35.4643ZM57.0272 36.1763L55.3319 41.2279H49.675L57.0272 36.1763ZM58.1834 36.1763L62.1451 41.2279H56.4881L58.1834 36.1763ZM72.5403 36.1763L70.845 41.2279H65.1881L72.5403 36.1763ZM73.6966 36.1763L77.6582 41.2279H72.0012L73.6966 36.1763ZM74.8776 35.4643H80.5345L78.8392 40.5159L74.8776 35.4643ZM81.6907 35.4643H87.3477L79.9954 40.5159L81.6907 35.4643ZM112.713 35.4643H118.37L111.018 40.5159L112.713 35.4643ZM109.862 40.5159L105.9 35.4643H111.557L109.862 40.5159ZM97.2039 35.4643H102.861L95.5086 40.5159L97.2039 35.4643ZM94.3523 40.5159L90.3907 35.4643H96.0476L94.3523 40.5159ZM103.567 36.1763L101.871 41.2279H96.2143L103.567 36.1763ZM104.723 36.1763L108.684 41.2279H103.027L104.723 36.1763ZM119.08 36.1763L117.384 41.2279H111.727L119.08 36.1763ZM120.236 36.1763L124.198 41.2279H118.541L120.236 36.1763ZM121.417 35.4643H127.074L125.379 40.5159L121.417 35.4643ZM128.23 35.4643H133.887L126.535 40.5159L128.23 35.4643ZM143.74 35.4643H149.397L142.044 40.5159L143.74 35.4643ZM140.888 40.5159L136.927 35.4643H142.583L140.888 40.5159ZM150.102 36.1763L148.407 41.2279H142.75L150.102 36.1763ZM151.259 36.1763L155.22 41.2279H149.563L151.259 36.1763ZM152.44 35.4643H158.097L156.401 40.5159L152.44 35.4643ZM48.384 38.8498L47.586 41.2279L46.5007 41.2101L48.384 38.8463V38.8498ZM80.7048 41.2279L88.057 36.1763L86.3617 41.2279H80.7048ZM89.2132 36.1763L93.1748 41.2279H87.5179L89.2132 36.1763ZM127.237 41.2279L134.589 36.1763L132.894 41.2279H127.237ZM135.745 36.1763L139.707 41.2279H134.05L135.745 36.1763ZM157.316 41.2279L159.012 36.1763L162.973 41.2279H157.316Z" fill="#6923E7"/>
<path opacity="0.4" d="M159.271 34.3037H50.2602L43.8301 42.3742L85.9645 42.392H165.616L159.274 34.3037H159.271ZM66.1741 35.4643H71.831L64.4788 40.5159L66.1741 35.4643ZM63.3226 40.5159L59.3609 35.4643H65.0179L63.3226 40.5159ZM50.6645 35.4643H56.3214L48.9692 40.5159L50.6645 35.4643ZM57.0272 36.1763L55.3319 41.2279H49.675L57.0272 36.1763ZM58.1834 36.1763L62.1451 41.2279H56.4881L58.1834 36.1763ZM72.5403 36.1763L70.845 41.2279H65.1881L72.5403 36.1763ZM73.6966 36.1763L77.6582 41.2279H72.0012L73.6966 36.1763ZM74.8776 35.4643H80.5345L78.8392 40.5159L74.8776 35.4643ZM81.6907 35.4643H87.3477L79.9954 40.5159L81.6907 35.4643ZM112.713 35.4643H118.37L111.018 40.5159L112.713 35.4643ZM109.862 40.5159L105.9 35.4643H111.557L109.862 40.5159ZM97.2039 35.4643H102.861L95.5086 40.5159L97.2039 35.4643ZM94.3523 40.5159L90.3907 35.4643H96.0476L94.3523 40.5159ZM103.567 36.1763L101.871 41.2279H96.2143L103.567 36.1763ZM104.723 36.1763L108.684 41.2279H103.027L104.723 36.1763ZM119.08 36.1763L117.384 41.2279H111.727L119.08 36.1763ZM120.236 36.1763L124.198 41.2279H118.541L120.236 36.1763ZM121.417 35.4643H127.074L125.379 40.5159L121.417 35.4643ZM128.23 35.4643H133.887L126.535 40.5159L128.23 35.4643ZM143.74 35.4643H149.397L142.044 40.5159L143.74 35.4643ZM140.888 40.5159L136.927 35.4643H142.583L140.888 40.5159ZM150.102 36.1763L148.407 41.2279H142.75L150.102 36.1763ZM151.259 36.1763L155.22 41.2279H149.563L151.259 36.1763ZM152.44 35.4643H158.097L156.401 40.5159L152.44 35.4643ZM48.384 38.8498L47.586 41.2279L46.5007 41.2101L48.384 38.8463V38.8498ZM80.7048 41.2279L88.057 36.1763L86.3617 41.2279H80.7048ZM89.2132 36.1763L93.1748 41.2279H87.5179L89.2132 36.1763ZM127.237 41.2279L134.589 36.1763L132.894 41.2279H127.237ZM135.745 36.1763L139.707 41.2279H134.05L135.745 36.1763ZM157.316 41.2279L159.012 36.1763L162.973 41.2279H157.316Z" fill="black"/>
<path d="M159.483 34.4497L159.27 34.3037H50.2598L50.1428 34.4497L43.8262 42.3742H123.477L165.612 42.392L159.483 34.4497ZM129.702 41.2137H124.045L128.063 36.1727L129.702 41.2137ZM129.216 36.1727L136.511 41.2137H130.854L129.216 36.1727ZM129.929 35.4643H135.586L137.224 40.5052L129.929 35.4643ZM136.742 35.4643H142.399L138.38 40.5052L136.742 35.4643ZM143.573 36.1763L145.211 41.2172H139.554L143.573 36.1763ZM144.729 36.1763L152.024 41.2172H146.367L144.729 36.1763ZM145.442 35.4678H151.099L152.737 40.5088L145.442 35.4678ZM152.255 35.4678H157.912L153.893 40.5088L152.255 35.4678ZM159.086 36.1798L160.724 41.2208H155.067L159.086 36.1798ZM161.122 38.8854L162.966 41.2386L161.881 41.2208L161.122 38.8854ZM126.893 35.4714L122.874 40.5124L121.236 35.4714H126.893ZM83.1729 41.2244H77.516L81.5343 36.1834L83.1729 41.2244ZM82.687 36.1834L89.9825 41.2244H84.3256L82.687 36.1834ZM83.3999 35.4714H89.0568L90.6954 40.5124L83.3999 35.4714ZM90.213 35.4714H95.87L91.8516 40.5124L90.213 35.4714ZM97.0439 36.1834L98.6825 41.2244H93.0255L97.0439 36.1834ZM98.2001 36.1834L105.496 41.2244H99.8387L98.2001 36.1834ZM98.913 35.4714H104.57L106.208 40.5124L98.913 35.4714ZM105.726 35.4714H111.383L107.365 40.5124L105.726 35.4714ZM112.557 36.1834L114.196 41.2244H108.539L112.557 36.1834ZM113.713 36.1834L121.009 41.2244H115.352L113.713 36.1834ZM121.722 40.5159L114.426 35.475H120.083L121.722 40.5159ZM80.3639 35.475L76.3456 40.5159L74.707 35.475H80.3639ZM50.5152 36.187L52.1537 41.2279H46.4968L50.5152 36.187ZM51.6714 36.187L58.9669 41.2279H53.31L51.6714 36.187ZM52.3843 35.4785H58.0412L59.6798 40.5195L52.3843 35.4785ZM59.1974 35.4785H64.8544L60.836 40.5195L59.1974 35.4785ZM66.0283 36.1905L67.6669 41.2315H62.0099L66.0283 36.1905ZM67.1845 36.1905L74.48 41.2315H68.8231L67.1845 36.1905ZM75.1929 40.523L67.8974 35.4821H73.5543L75.1929 40.523Z" fill="#6923E7"/>
<path opacity="0.3" d="M159.482 34.4497L159.269 34.3037H50.2591L53.0539 42.3742H123.48L165.614 42.392L159.486 34.4497H159.482ZM129.701 41.2137H124.044L128.062 36.1727L129.701 41.2137ZM129.215 36.1727L136.51 41.2137H130.854L129.215 36.1727ZM129.928 35.4643H135.585L137.223 40.5052L129.928 35.4643ZM136.741 35.4643H142.398L138.38 40.5052L136.741 35.4643ZM143.572 36.1763L145.21 41.2172H139.554L143.572 36.1763ZM144.728 36.1763L152.024 41.2172H146.367L144.728 36.1763ZM145.441 35.4678H151.098L152.736 40.5088L145.441 35.4678ZM152.254 35.4678H157.911L153.893 40.5088L152.254 35.4678ZM159.085 36.1798L160.724 41.2208H155.067L159.085 36.1798ZM161.121 38.8854L162.965 41.2386L161.88 41.2208L161.121 38.8854ZM126.892 35.4714L122.874 40.5124L121.235 35.4714H126.892ZM83.1722 41.2244H77.5152L81.5336 36.1834L83.1722 41.2244ZM82.6863 36.1834L89.9818 41.2244H84.3248L82.6863 36.1834ZM83.3992 35.4714H89.0561L90.6947 40.5124L83.3992 35.4714ZM90.2123 35.4714H95.8692L91.8509 40.5124L90.2123 35.4714ZM97.0432 36.1834L98.6817 41.2244H93.0248L97.0432 36.1834ZM98.1994 36.1834L105.495 41.2244H99.838L98.1994 36.1834ZM98.9123 35.4714H104.569L106.208 40.5124L98.9123 35.4714ZM105.725 35.4714H111.382L107.364 40.5124L105.725 35.4714ZM112.556 36.1834L114.195 41.2244H108.538L112.556 36.1834ZM113.713 36.1834L121.008 41.2244H115.351L113.713 36.1834ZM121.721 40.5159L114.425 35.475H120.082L121.721 40.5159ZM80.3632 35.475L76.3448 40.5159L74.7063 35.475H80.3632ZM50.5145 36.187L52.153 41.2279H46.4961L50.5145 36.187ZM51.6707 36.187L58.9662 41.2279H53.3092L51.6707 36.187ZM52.3836 35.4785H58.0405L59.6791 40.5195L52.3836 35.4785ZM59.1967 35.4785H64.8536L60.8353 40.5195L59.1967 35.4785ZM66.0276 36.1905L67.6661 41.2315H62.0092L66.0276 36.1905ZM67.1838 36.1905L74.4793 41.2315H68.8224L67.1838 36.1905ZM75.1922 40.523L67.8967 35.4821H73.5536L75.1922 40.523Z" fill="white"/>
<path d="M127.098 30.6153L124.162 32.1475L124.635 33.0603L127.571 31.5282L127.098 30.6153Z" fill="#263238"/>
<path d="M122.655 33.7054C122.559 33.7054 122.484 33.627 122.484 33.5345C122.484 33.4419 122.562 33.3636 122.655 33.3636C123.13 33.3636 123.442 33.1892 123.446 33.1892C123.527 33.1429 123.63 33.1714 123.68 33.2532C123.726 33.3351 123.697 33.4384 123.616 33.4846C123.602 33.4953 123.226 33.7054 122.655 33.7054Z" fill="#263238"/>
<path d="M178.791 8.72522V11.3561C178.791 11.6658 178.54 11.9221 178.227 11.9221H169.23C168.917 11.9221 168.662 11.6658 168.662 11.3561V8.72522C168.662 8.4155 168.917 8.15918 169.23 8.15918H178.227C178.54 8.15918 178.791 8.4155 178.791 8.72522Z" fill="#6923E7"/>
<path opacity="0.3" d="M178.791 8.72522V11.3561C178.791 11.6658 178.539 11.9221 178.227 11.9221H169.708C169.396 11.9221 169.141 11.6658 169.141 11.3561V8.72522C169.141 8.4155 169.396 8.15918 169.708 8.15918H178.227C178.539 8.15918 178.791 8.4155 178.791 8.72522Z" fill="white"/>
<path d="M186.302 28.7711H173.829C173.095 28.7711 172.46 29.2838 172.304 29.9993L170.616 37.6498C170.591 37.7601 170.58 37.8741 170.58 37.988V41.313C170.58 42.1781 171.279 42.883 172.144 42.883H186.306C187.168 42.883 187.87 42.1817 187.87 41.313V30.3375C187.87 29.4725 187.171 28.7676 186.306 28.7676L186.302 28.7711Z" fill="#6923E7"/>
<path opacity="0.2" d="M178.826 28.7715C178.095 28.7715 177.46 29.2841 177.301 29.9997L175.612 37.6537C175.588 37.764 175.573 37.878 175.573 37.9954V41.3205C175.573 42.1891 176.272 42.8904 177.138 42.8904H172.14C171.275 42.8904 170.576 42.1891 170.576 41.3205V37.9954C170.576 37.8815 170.59 37.764 170.615 37.6537L172.303 29.9997C172.463 29.2841 173.098 28.7715 173.828 28.7715H178.826Z" fill="black"/>
<path d="M177.386 29.0918C177.095 29.309 176.886 29.6294 176.801 29.9996L175.113 37.6536C175.088 37.764 175.074 37.8779 175.074 37.9954V40.7045H170.889V38.3158C170.889 38.2018 170.899 38.0844 170.924 37.974L172.673 30.0494C172.797 29.487 173.293 29.0918 173.868 29.0918H177.39H177.386Z" fill="#263238"/>
<path d="M181.249 29.2734H178.827C178.323 29.2734 177.897 29.6188 177.787 30.11L176.152 37.522H181.249V29.2734Z" fill="#263238"/>
<path d="M183.997 29.2734H181.652V37.522L183.958 36.2368C184.202 36.1015 184.351 35.8416 184.351 35.564V29.633C184.351 29.4372 184.192 29.277 183.997 29.277V29.2734Z" fill="#263238"/>
<path d="M189.137 165.105H155.025V168.431H189.137V165.105Z" fill="#263238"/>
<path d="M98.1938 65.7207H55.7402V71.0215H98.1938V65.7207Z" fill="#6923E7"/>
<path opacity="0.3" d="M98.1931 67.6611H60.5488V68.5191H98.1931V67.6611Z" fill="black"/>
<path d="M67.7447 65.2754H62.8574V71.3203H67.7447V65.2754Z" fill="#263238"/>
<path d="M65.5324 42.2393H65.1777V66.7392H65.5324V42.2393Z" fill="#263238"/>
<path d="M93.4771 65.2754H88.5898V71.3203H93.4771V65.2754Z" fill="#263238"/>
<path d="M91.2629 42.0107H90.9082V66.7385H91.2629V42.0107Z" fill="#263238"/>
<path d="M66.2098 40.9824H64.4648V42.7339H66.2098V40.9824Z" fill="#263238"/>
<path d="M91.9508 40.8398H90.1172V42.6804H91.9508V40.8398Z" fill="#263238"/>
<path opacity="0.4" d="M62.0036 65.7207H55.7402V71.0215H62.0036V65.7207Z" fill="black"/>
<path opacity="0.4" d="M60.8727 66.3223H56.6309V67.5184H60.8727V66.3223Z" fill="black"/>
<path opacity="0.4" d="M60.8727 68.8857H56.6309V70.0819H60.8727V68.8857Z" fill="black"/>
<path d="M49.1844 152.236H24.9004V154.355H49.1844V152.236Z" fill="#6923E7"/>
<path opacity="0.3" d="M26.8404 152.236H24.9004V154.355H26.8404V152.236Z" fill="black"/>
<path opacity="0.3" d="M26.2333 153.707H25.5098V154.355H26.2333V153.707Z" fill="black"/>
<path opacity="0.3" d="M26.2349 152.236H25.5078V152.888H26.2349V152.236Z" fill="black"/>
<path d="M51.4188 152.236H27.1348V154.355H51.4188V152.236Z" fill="#6923E7"/>
<path opacity="0.3" d="M29.0748 152.236H27.1348V154.355H29.0748V152.236Z" fill="black"/>
<path opacity="0.3" d="M28.4677 153.707H27.7441V154.355H28.4677V153.707Z" fill="black"/>
<path opacity="0.3" d="M28.468 152.236H27.748V152.888H28.468V152.236Z" fill="black"/>
<path d="M53.6603 152.236H29.3691V154.355H53.6603V152.236Z" fill="#6923E7"/>
<path opacity="0.3" d="M31.3092 152.236H29.3691V154.355H31.3092V152.236Z" fill="black"/>
<path opacity="0.3" d="M30.702 153.707H29.9785V154.355H30.702V153.707Z" fill="black"/>
<path opacity="0.3" d="M30.6985 152.236H29.9785V152.888H30.6985V152.236Z" fill="black"/>
<path d="M55.8914 152.236H31.6074V154.355H55.8914V152.236Z" fill="#6923E7"/>
<path opacity="0.3" d="M33.5474 152.236H31.6074V154.355H33.5474V152.236Z" fill="black"/>
<path opacity="0.3" d="M32.9384 153.707H32.2148V154.355H32.9384V153.707Z" fill="black"/>
<path opacity="0.3" d="M32.9348 152.236H32.2148V152.888H32.9348V152.236Z" fill="black"/>
<path d="M58.1258 152.236H33.8418V154.355H58.1258V152.236Z" fill="#6923E7"/>
<path opacity="0.3" d="M35.7818 152.236H33.8418V154.355H35.7818V152.236Z" fill="black"/>
<path opacity="0.3" d="M35.1727 153.707H34.4492V154.355H35.1727V153.707Z" fill="black"/>
<path opacity="0.3" d="M35.1763 152.236H34.4492V152.888H35.1763V152.236Z" fill="black"/>
<path d="M49.5567 154.354H25.2656V156.476H49.5567V154.354Z" fill="#6923E7"/>
<path opacity="0.3" d="M27.2057 154.354H25.2656V156.476H27.2057V154.354Z" fill="black"/>
<path opacity="0.3" d="M26.5985 155.825H25.875V156.473H26.5985V155.825Z" fill="black"/>
<path opacity="0.3" d="M26.5985 154.354H25.875V155.002H26.5985V154.354Z" fill="black"/>
<path d="M51.7915 154.354H27.5039V156.473H51.7915V154.354Z" fill="#6923E7"/>
<path opacity="0.3" d="M29.4439 154.354H27.5039V156.473H29.4439V154.354Z" fill="black"/>
<path opacity="0.3" d="M28.8348 155.825H28.1113V156.473H28.8348V155.825Z" fill="black"/>
<path opacity="0.3" d="M28.8348 154.354H28.1113V155.002H28.8348V154.354Z" fill="black"/>
<path d="M54.0259 154.354H29.7383V156.473H54.0259V154.354Z" fill="#6923E7"/>
<path opacity="0.3" d="M31.6783 154.354H29.7383V156.473H31.6783V154.354Z" fill="black"/>
<path opacity="0.3" d="M31.0692 155.825H30.3457V156.473H31.0692V155.825Z" fill="black"/>
<path opacity="0.3" d="M31.0692 154.354H30.3457V155.002H31.0692V154.354Z" fill="black"/>
<path d="M56.2602 154.354H31.9727V156.473H56.2602V154.354Z" fill="#6923E7"/>
<path opacity="0.3" d="M33.9127 154.354H31.9727V156.473H33.9127V154.354Z" fill="black"/>
<path opacity="0.3" d="M33.3056 155.825H32.582V156.473H33.3056V155.825Z" fill="black"/>
<path opacity="0.3" d="M33.3056 154.354H32.582V155.002H33.3056V154.354Z" fill="black"/>
<path d="M58.4911 154.354H34.207V156.473H58.4911V154.354Z" fill="#6923E7"/>
<path opacity="0.3" d="M36.1471 154.354H34.207V156.473H36.1471V154.354Z" fill="black"/>
<path opacity="0.3" d="M35.5399 155.825H34.8164V156.473H35.5399V155.825Z" fill="black"/>
<path opacity="0.3" d="M35.5399 154.354H34.8164V155.002H35.5399V154.354Z" fill="black"/>
<path d="M48.7938 156.477H24.5098V158.595H48.7938V156.477Z" fill="#6923E7"/>
<path opacity="0.3" d="M26.4498 156.477H24.5098V158.595H26.4498V156.477Z" fill="black"/>
<path opacity="0.3" d="M25.8407 157.947H25.1172V158.595H25.8407V157.947Z" fill="black"/>
<path opacity="0.3" d="M25.8372 156.477H25.1172V157.121H25.8372V156.477Z" fill="black"/>
<path d="M51.0317 156.473H26.7441V158.591H51.0317V156.473Z" fill="#6923E7"/>
<path opacity="0.3" d="M28.6842 156.473H26.7441V158.591H28.6842V156.473Z" fill="black"/>
<path opacity="0.3" d="M28.0751 157.943H27.3516V158.591H28.0751V157.943Z" fill="black"/>
<path opacity="0.3" d="M28.0751 156.473H27.3516V157.121H28.0751V156.473Z" fill="black"/>
<path d="M53.2661 156.473H28.9785V158.591H53.2661V156.473Z" fill="#6923E7"/>
<path opacity="0.3" d="M30.9185 156.473H28.9785V158.591H30.9185V156.473Z" fill="black"/>
<path opacity="0.3" d="M30.3095 157.943H29.5859V158.591H30.3095V157.943Z" fill="black"/>
<path opacity="0.3" d="M30.3095 156.473H29.5859V157.121H30.3095V156.473Z" fill="black"/>
<path d="M55.5005 156.473H31.2129V158.591H55.5005V156.473Z" fill="#6923E7"/>
<path opacity="0.3" d="M33.1529 156.473H31.2129V158.591H33.1529V156.473Z" fill="black"/>
<path opacity="0.3" d="M32.5458 157.943H31.8223V158.591H32.5458V157.943Z" fill="black"/>
<path opacity="0.3" d="M32.5458 156.473H31.8223V157.121H32.5458V156.473Z" fill="black"/>
<path d="M57.7313 156.473H33.4473V158.594H57.7313V156.473Z" fill="#6923E7"/>
<path opacity="0.3" d="M35.3873 156.473H33.4473V158.591H35.3873V156.473Z" fill="black"/>
<path opacity="0.3" d="M34.7802 157.943H34.0566V158.591H34.7802V157.943Z" fill="black"/>
<path opacity="0.3" d="M34.7802 156.473H34.0566V157.121H34.7802V156.473Z" fill="black"/>
<path d="M49.4048 158.595H25.1172V160.713H49.4048V158.595Z" fill="#6923E7"/>
<path opacity="0.3" d="M27.0572 158.595H25.1172V160.713H27.0572V158.595Z" fill="black"/>
<path opacity="0.3" d="M26.4501 160.065H25.7266V160.713H26.4501V160.065Z" fill="black"/>
<path opacity="0.3" d="M26.4501 158.595H25.7266V159.243H26.4501V158.595Z" fill="black"/>
<path d="M51.6391 158.595H27.3516V160.713H51.6391V158.595Z" fill="#6923E7"/>
<path opacity="0.3" d="M29.2916 158.595H27.3516V160.713H29.2916V158.595Z" fill="black"/>
<path opacity="0.3" d="M28.6845 160.065H27.9609V160.713H28.6845V160.065Z" fill="black"/>
<path opacity="0.3" d="M28.6845 158.595H27.9609V159.243H28.6845V158.595Z" fill="black"/>
<path d="M53.8735 158.595H29.5859V160.713H53.8735V158.595Z" fill="#6923E7"/>
<path opacity="0.3" d="M31.526 158.595H29.5859V160.713H31.526V158.595Z" fill="black"/>
<path opacity="0.3" d="M30.9188 160.065H30.1953V160.713H30.9188V160.065Z" fill="black"/>
<path opacity="0.3" d="M30.9188 158.595H30.1953V159.243H30.9188V158.595Z" fill="black"/>
<path d="M56.1098 158.595H31.8223V160.713H56.1098V158.595Z" fill="#6923E7"/>
<path opacity="0.3" d="M33.7623 158.595H31.8223V160.713H33.7623V158.595Z" fill="black"/>
<path opacity="0.3" d="M33.1532 160.065H32.4297V160.713H33.1532V160.065Z" fill="black"/>
<path opacity="0.3" d="M33.1532 158.595H32.4297V159.243H33.1532V158.595Z" fill="black"/>
<path d="M58.3407 158.595H34.0566V160.713H58.3407V158.595Z" fill="#6923E7"/>
<path opacity="0.3" d="M35.9967 158.595H34.0566V160.713H35.9967V158.595Z" fill="black"/>
<path opacity="0.3" d="M35.3876 160.065H34.6641V160.713H35.3876V160.065Z" fill="black"/>
<path opacity="0.3" d="M35.3876 158.595H34.6641V159.243H35.3876V158.595Z" fill="black"/>
<path d="M49.188 160.713H24.9004V162.831H49.188V160.713Z" fill="#6923E7"/>
<path opacity="0.3" d="M26.8404 160.713H24.9004V162.831H26.8404V160.713Z" fill="black"/>
<path opacity="0.3" d="M26.2333 162.184H25.5098V162.832H26.2333V162.184Z" fill="black"/>
<path opacity="0.3" d="M26.2333 160.713H25.5098V161.361H26.2333V160.713Z" fill="black"/>
<path d="M51.4223 160.713H27.1348V162.831H51.4223V160.713Z" fill="#6923E7"/>
<path opacity="0.3" d="M29.0748 160.713H27.1348V162.831H29.0748V160.713Z" fill="black"/>
<path opacity="0.3" d="M28.4677 162.184H27.7441V162.832H28.4677V162.184Z" fill="black"/>
<path opacity="0.3" d="M28.4677 160.713H27.7441V161.361H28.4677V160.713Z" fill="black"/>
<path d="M53.6567 160.713H29.3691V162.831H53.6567V160.713Z" fill="#6923E7"/>
<path opacity="0.3" d="M31.3092 160.713H29.3691V162.831H31.3092V160.713Z" fill="black"/>
<path opacity="0.3" d="M30.702 162.184H29.9785V162.832H30.702V162.184Z" fill="black"/>
<path opacity="0.3" d="M30.702 160.713H29.9785V161.361H30.702V160.713Z" fill="black"/>
<path d="M55.8911 160.713H31.6035V162.831H55.8911V160.713Z" fill="#6923E7"/>
<path opacity="0.3" d="M33.5435 160.713H31.6035V162.831H33.5435V160.713Z" fill="black"/>
<path opacity="0.3" d="M32.9364 162.184H32.2129V162.832H32.9364V162.184Z" fill="black"/>
<path opacity="0.3" d="M32.9364 160.713H32.2129V161.361H32.9364V160.713Z" fill="black"/>
<path d="M58.1258 160.713H33.8418V162.831H58.1258V160.713Z" fill="#6923E7"/>
<path opacity="0.3" d="M35.7818 160.713H33.8418V162.831H35.7818V160.713Z" fill="black"/>
<path opacity="0.3" d="M35.1727 162.184H34.4492V162.832H35.1727V162.184Z" fill="black"/>
<path opacity="0.3" d="M35.1727 160.713H34.4492V161.361H35.1727V160.713Z" fill="black"/>
<path d="M48.7973 162.831H24.5098V164.949H48.7973V162.831Z" fill="#6923E7"/>
<path opacity="0.3" d="M26.4498 162.831H24.5098V164.949H26.4498V162.831Z" fill="black"/>
<path opacity="0.3" d="M25.8407 164.302H25.1172V164.95H25.8407V164.302Z" fill="black"/>
<path opacity="0.3" d="M25.8407 162.831H25.1172V163.479H25.8407V162.831Z" fill="black"/>
<path d="M51.0317 162.831H26.7441V164.949H51.0317V162.831Z" fill="#6923E7"/>
<path opacity="0.3" d="M28.6842 162.831H26.7441V164.949H28.6842V162.831Z" fill="black"/>
<path opacity="0.3" d="M28.0751 164.302H27.3516V164.95H28.0751V164.302Z" fill="black"/>
<path opacity="0.3" d="M28.0751 162.831H27.3516V163.479H28.0751V162.831Z" fill="black"/>
<path d="M53.2661 162.831H28.9785V164.949H53.2661V162.831Z" fill="#6923E7"/>
<path opacity="0.3" d="M30.9185 162.831H28.9785V164.949H30.9185V162.831Z" fill="black"/>
<path opacity="0.3" d="M30.3095 164.302H29.5859V164.95H30.3095V164.302Z" fill="black"/>
<path opacity="0.3" d="M30.3095 162.831H29.5859V163.479H30.3095V162.831Z" fill="black"/>
<path d="M55.5005 162.831H31.2129V164.949H55.5005V162.831Z" fill="#6923E7"/>
<path opacity="0.3" d="M33.1529 162.831H31.2129V164.949H33.1529V162.831Z" fill="black"/>
<path opacity="0.3" d="M32.5458 164.302H31.8223V164.95H32.5458V164.302Z" fill="black"/>
<path opacity="0.3" d="M32.5458 162.831H31.8223V163.479H32.5458V162.831Z" fill="black"/>
<path d="M57.7313 162.831H33.4473V164.949H57.7313V162.831Z" fill="#6923E7"/>
<path opacity="0.3" d="M35.3873 162.831H33.4473V164.949H35.3873V162.831Z" fill="black"/>
<path opacity="0.3" d="M34.7802 164.302H34.0566V164.95H34.7802V164.302Z" fill="black"/>
<path opacity="0.3" d="M34.7802 162.831H34.0566V163.479H34.7802V162.831Z" fill="black"/>
<path d="M49.1844 164.949H24.9004V167.071H49.1844V164.949Z" fill="#6923E7"/>
<path opacity="0.3" d="M26.8404 164.949H24.9004V167.067H26.8404V164.949Z" fill="black"/>
<path opacity="0.3" d="M26.2333 166.42H25.5098V167.068H26.2333V166.42Z" fill="black"/>
<path opacity="0.3" d="M26.2333 164.949H25.5098V165.597H26.2333V164.949Z" fill="black"/>
<path d="M51.4188 164.949H27.1348V167.071H51.4188V164.949Z" fill="#6923E7"/>
<path opacity="0.3" d="M29.0748 164.949H27.1348V167.067H29.0748V164.949Z" fill="black"/>
<path opacity="0.3" d="M28.4677 166.42H27.7441V167.068H28.4677V166.42Z" fill="black"/>
<path opacity="0.3" d="M28.4677 164.949H27.7441V165.597H28.4677V164.949Z" fill="black"/>
<path d="M53.6603 164.949H29.3691V167.071H53.6603V164.949Z" fill="#6923E7"/>
<path opacity="0.3" d="M31.3092 164.949H29.3691V167.067H31.3092V164.949Z" fill="black"/>
<path opacity="0.3" d="M30.702 166.42H29.9785V167.068H30.702V166.42Z" fill="black"/>
<path opacity="0.3" d="M30.702 164.949H29.9785V165.597H30.702V164.949Z" fill="black"/>
<path d="M55.8914 164.949H31.6074V167.071H55.8914V164.949Z" fill="#6923E7"/>
<path opacity="0.3" d="M33.5435 164.949H31.6035V167.067H33.5435V164.949Z" fill="black"/>
<path opacity="0.3" d="M32.9364 166.42H32.2129V167.068H32.9364V166.42Z" fill="black"/>
<path opacity="0.3" d="M32.9364 164.949H32.2129V165.597H32.9364V164.949Z" fill="black"/>
<path d="M58.1258 164.949H33.8418V167.071H58.1258V164.949Z" fill="#6923E7"/>
<path opacity="0.3" d="M35.7818 164.949H33.8418V167.067H35.7818V164.949Z" fill="black"/>
<path opacity="0.3" d="M35.1727 166.42H34.4492V167.068H35.1727V166.42Z" fill="black"/>
<path opacity="0.3" d="M35.1727 164.949H34.4492V165.597H35.1727V164.949Z" fill="black"/>
<path opacity="0.1" d="M57.7307 164.301H35.3867V164.945H57.7307V164.301Z" fill="black"/>
<path opacity="0.1" d="M57.7307 162.831H35.3867V163.013H57.7307V162.831Z" fill="black"/>
<path opacity="0.1" d="M58.1252 160.713H35.7812V160.894H58.1252V160.713Z" fill="black"/>
<path opacity="0.1" d="M57.7307 156.473H35.3867V156.658H57.7307V156.473Z" fill="black"/>
<path opacity="0.1" d="M57.7307 158.011H35.3867V158.595H57.7307V158.011Z" fill="black"/>
<path opacity="0.1" d="M58.1252 153.738H35.7812V154.322H58.1252V153.738Z" fill="black"/>
<path d="M61.4846 167.071H21.5137V168.513H61.4846V167.071Z" fill="#263238"/>
<path opacity="0.3" d="M61.4846 167.071H21.5137V168.513H61.4846V167.071Z" fill="white"/>
<path opacity="0.3" d="M61.4841 167.071H36.0723V168.513H61.4841V167.071Z" fill="white"/>
<path opacity="0.1" d="M58.4904 156.473V154.355H58.1251V152.236H50.216H42.9241H24.8999V154.355H25.2652V156.476H24.5098V157.121H41.3068L40.9166 158.011L40.6577 158.594L40.6542 158.605H41.477L40.5088 160.713H40.2144L40.1399 160.894L39.3206 162.831H38.9908L38.9234 163.012L38.4659 164.301L38.2354 164.949H38.6007L37.6644 167.071H58.1251V164.949H57.7349V162.831H58.1251V160.713H58.3414V158.594H57.7349V156.473H58.4904Z" fill="black"/>
<path d="M50.0145 148.666H25.7305V150.784H50.0145V148.666Z" fill="#6923E7"/>
<path opacity="0.7" d="M50.0145 148.666H25.7305V150.784H50.0145V148.666Z" fill="white"/>
<path opacity="0.15" d="M27.6666 148.666H25.7266V150.784H27.6666V148.666Z" fill="black"/>
<path opacity="0.15" d="M27.0595 148.662H26.3359V149.31H27.0595V148.662Z" fill="black"/>
<path opacity="0.15" d="M27.0595 150.136H26.3359V150.784H27.0595V150.136Z" fill="black"/>
<path d="M52.284 148.666H28V150.784H52.284V148.666Z" fill="#6923E7"/>
<path opacity="0.7" d="M52.284 148.666H28V150.784H52.284V148.666Z" fill="white"/>
<path opacity="0.15" d="M29.94 148.666H28V150.784H29.94V148.666Z" fill="black"/>
<path opacity="0.15" d="M29.3309 148.662H28.6074V149.31H29.3309V148.662Z" fill="black"/>
<path opacity="0.15" d="M29.3309 150.136H28.6074V150.784H29.3309V150.136Z" fill="black"/>
<path d="M54.5606 148.666H30.2695V150.784H54.5606V148.666Z" fill="#6923E7"/>
<path opacity="0.7" d="M54.5606 148.666H30.2695V150.784H54.5606V148.666Z" fill="white"/>
<path opacity="0.15" d="M32.2096 148.666H30.2695V150.784H32.2096V148.666Z" fill="black"/>
<path opacity="0.15" d="M31.6024 148.662H30.8789V149.31H31.6024V148.662Z" fill="black"/>
<path opacity="0.15" d="M31.6024 150.136H30.8789V150.784H31.6024V150.136Z" fill="black"/>
<path d="M56.827 148.666H32.543V150.784H56.827V148.666Z" fill="#6923E7"/>
<path opacity="0.7" d="M56.827 148.666H32.543V150.784H56.827V148.666Z" fill="white"/>
<path opacity="0.15" d="M34.483 148.666H32.543V150.784H34.483V148.666Z" fill="black"/>
<path opacity="0.15" d="M33.8739 148.662H33.1504V149.31H33.8739V148.662Z" fill="black"/>
<path opacity="0.15" d="M33.8739 150.136H33.1504V150.784H33.8739V150.136Z" fill="black"/>
<path d="M59.1036 148.666H34.8125V150.784H59.1036V148.666Z" fill="#6923E7"/>
<path opacity="0.7" d="M59.1036 148.666H34.8125V150.784H59.1036V148.666Z" fill="white"/>
<path opacity="0.15" d="M36.7525 148.666H34.8125V150.784H36.7525V148.666Z" fill="black"/>
<path opacity="0.15" d="M36.1454 148.662H35.4219V149.31H36.1454V148.662Z" fill="black"/>
<path opacity="0.15" d="M36.1454 150.136H35.4219V150.784H36.1454V150.136Z" fill="black"/>
<path d="M50.8403 146.562H26.5527V148.68H50.8403V146.562Z" fill="#6923E7"/>
<path opacity="0.7" d="M50.8403 146.562H26.5527V148.68H50.8403V146.562Z" fill="white"/>
<path opacity="0.15" d="M28.4928 146.562H26.5527V148.68H28.4928V146.562Z" fill="black"/>
<path opacity="0.15" d="M27.8856 146.562H27.1621V147.209H27.8856V146.562Z" fill="black"/>
<path opacity="0.15" d="M27.8856 148.032H27.1621V148.68H27.8856V148.032Z" fill="black"/>
<path d="M53.1137 146.562H28.8262V148.68H53.1137V146.562Z" fill="#6923E7"/>
<path opacity="0.7" d="M53.1137 146.562H28.8262V148.68H53.1137V146.562Z" fill="white"/>
<path opacity="0.15" d="M30.7662 146.562H28.8262V148.68H30.7662V146.562Z" fill="black"/>
<path opacity="0.15" d="M30.1571 146.562H29.4336V147.209H30.1571V146.562Z" fill="black"/>
<path opacity="0.15" d="M30.1571 148.032H29.4336V148.68H30.1571V148.032Z" fill="black"/>
<path d="M55.3833 146.562H31.0957V148.68H55.3833V146.562Z" fill="#6923E7"/>
<path opacity="0.7" d="M55.3833 146.562H31.0957V148.68H55.3833V146.562Z" fill="white"/>
<path opacity="0.15" d="M33.0357 146.562H31.0957V148.68H33.0357V146.562Z" fill="black"/>
<path opacity="0.15" d="M32.4286 146.562H31.7051V147.209H32.4286V146.562Z" fill="black"/>
<path opacity="0.15" d="M32.4286 148.032H31.7051V148.68H32.4286V148.032Z" fill="black"/>
<path d="M57.6567 146.562H33.3691V148.68H57.6567V146.562Z" fill="#6923E7"/>
<path opacity="0.7" d="M57.6567 146.562H33.3691V148.68H57.6567V146.562Z" fill="white"/>
<path opacity="0.15" d="M35.3092 146.562H33.3691V148.68H35.3092V146.562Z" fill="black"/>
<path opacity="0.15" d="M34.7001 146.562H33.9766V147.209H34.7001V146.562Z" fill="black"/>
<path opacity="0.15" d="M34.7001 148.032H33.9766V148.68H34.7001V148.032Z" fill="black"/>
<path d="M59.9227 146.565H35.6387V148.684H59.9227V146.565Z" fill="#6923E7"/>
<path opacity="0.7" d="M59.9227 146.565H35.6387V148.684H59.9227V146.565Z" fill="white"/>
<path opacity="0.15" d="M37.5787 146.562H35.6387V148.68H37.5787V146.562Z" fill="black"/>
<path opacity="0.15" d="M36.9716 146.562H36.248V147.209H36.9716V146.562Z" fill="black"/>
<path opacity="0.15" d="M36.9716 148.032H36.248V148.68H36.9716V148.032Z" fill="black"/>
<path d="M49.5786 144.458H25.291V146.576H49.5786V144.458Z" fill="#6923E7"/>
<path opacity="0.7" d="M49.5786 144.458H25.291V146.576H49.5786V144.458Z" fill="white"/>
<path opacity="0.15" d="M27.231 144.458H25.291V146.576H27.231V144.458Z" fill="black"/>
<path opacity="0.15" d="M26.6239 144.458H25.9004V145.106H26.6239V144.458Z" fill="black"/>
<path opacity="0.15" d="M26.6239 145.932H25.9004V146.58H26.6239V145.932Z" fill="black"/>
<path d="M51.852 144.458H27.5645V146.576H51.852V144.458Z" fill="#6923E7"/>
<path opacity="0.7" d="M51.852 144.458H27.5645V146.576H51.852V144.458Z" fill="white"/>
<path opacity="0.15" d="M29.5045 144.458H27.5645V146.576H29.5045V144.458Z" fill="black"/>
<path opacity="0.15" d="M28.8954 144.458H28.1719V145.106H28.8954V144.458Z" fill="black"/>
<path opacity="0.15" d="M28.8954 145.932H28.1719V146.58H28.8954V145.932Z" fill="black"/>
<path d="M54.1216 144.458H29.834V146.576H54.1216V144.458Z" fill="#6923E7"/>
<path opacity="0.7" d="M54.1216 144.458H29.834V146.576H54.1216V144.458Z" fill="white"/>
<path opacity="0.15" d="M31.774 144.458H29.834V146.576H31.774V144.458Z" fill="black"/>
<path opacity="0.15" d="M31.1669 144.458H30.4434V145.106H31.1669V144.458Z" fill="black"/>
<path opacity="0.15" d="M31.1669 145.932H30.4434V146.58H31.1669V145.932Z" fill="black"/>
<path d="M56.395 144.458H32.1074V146.576H56.395V144.458Z" fill="#6923E7"/>
<path opacity="0.7" d="M56.395 144.458H32.1074V146.576H56.395V144.458Z" fill="white"/>
<path opacity="0.15" d="M34.0474 144.458H32.1074V146.576H34.0474V144.458Z" fill="black"/>
<path opacity="0.15" d="M33.4384 144.458H32.7148V145.106H33.4384V144.458Z" fill="black"/>
<path opacity="0.15" d="M33.4384 145.932H32.7148V146.58H33.4384V145.932Z" fill="black"/>
<path d="M58.6681 144.462H34.377V146.58H58.6681V144.462Z" fill="#6923E7"/>
<path opacity="0.7" d="M58.6681 144.462H34.377V146.58H58.6681V144.462Z" fill="white"/>
<path opacity="0.15" d="M36.317 144.458H34.377V146.576H36.317V144.458Z" fill="black"/>
<path opacity="0.15" d="M35.7098 144.458H34.9863V145.106H35.7098V144.458Z" fill="black"/>
<path opacity="0.15" d="M35.7098 145.932H34.9863V146.58H35.7098V145.932Z" fill="black"/>
<path d="M50.2348 142.357H25.9473V144.476H50.2348V142.357Z" fill="#6923E7"/>
<path opacity="0.7" d="M50.2348 142.357H25.9473V144.476H50.2348V142.357Z" fill="white"/>
<path opacity="0.15" d="M27.8873 142.357H25.9473V144.476H27.8873V142.357Z" fill="black"/>
<path opacity="0.15" d="M27.2782 142.357H26.5547V143.005H27.2782V142.357Z" fill="black"/>
<path opacity="0.15" d="M27.2782 143.828H26.5547V144.476H27.2782V143.828Z" fill="black"/>
<path d="M52.5044 142.357H28.2168V144.476H52.5044V142.357Z" fill="#6923E7"/>
<path opacity="0.7" d="M52.5044 142.357H28.2168V144.476H52.5044V142.357Z" fill="white"/>
<path opacity="0.15" d="M30.1568 142.357H28.2168V144.476H30.1568V142.357Z" fill="black"/>
<path opacity="0.15" d="M29.5497 142.357H28.8262V143.005H29.5497V142.357Z" fill="black"/>
<path opacity="0.15" d="M29.5497 143.828H28.8262V144.476H29.5497V143.828Z" fill="black"/>
<path d="M54.7778 142.357H30.4902V144.476H54.7778V142.357Z" fill="#6923E7"/>
<path opacity="0.7" d="M54.7778 142.357H30.4902V144.476H54.7778V142.357Z" fill="white"/>
<path opacity="0.15" d="M32.4303 142.357H30.4902V144.476H32.4303V142.357Z" fill="black"/>
<path opacity="0.15" d="M31.8212 142.357H31.0977V143.005H31.8212V142.357Z" fill="black"/>
<path opacity="0.15" d="M31.8212 143.828H31.0977V144.476H31.8212V143.828Z" fill="black"/>
<path d="M57.0473 142.357H32.7598V144.476H57.0473V142.357Z" fill="#6923E7"/>
<path opacity="0.7" d="M57.0473 142.357H32.7598V144.476H57.0473V142.357Z" fill="white"/>
<path opacity="0.15" d="M34.6998 142.357H32.7598V144.476H34.6998V142.357Z" fill="black"/>
<path opacity="0.15" d="M34.0927 142.357H33.3691V143.005H34.0927V142.357Z" fill="black"/>
<path opacity="0.15" d="M34.0927 143.828H33.3691V144.476H34.0927V143.828Z" fill="black"/>
<path d="M59.3172 142.357H35.0332V144.476H59.3172V142.357Z" fill="#6923E7"/>
<path opacity="0.7" d="M59.3172 142.357H35.0332V144.476H59.3172V142.357Z" fill="white"/>
<path opacity="0.15" d="M36.9732 142.357H35.0332V144.476H36.9732V142.357Z" fill="black"/>
<path opacity="0.15" d="M36.3641 142.357H35.6406V143.005H36.3641V142.357Z" fill="black"/>
<path opacity="0.15" d="M36.3641 143.828H35.6406V144.476H36.3641V143.828Z" fill="black"/>
<path d="M49.1489 140.253H24.8613V142.371H49.1489V140.253Z" fill="#6923E7"/>
<path opacity="0.7" d="M49.1489 140.253H24.8613V142.371H49.1489V140.253Z" fill="white"/>
<path opacity="0.15" d="M26.8014 140.253H24.8613V142.371H26.8014V140.253Z" fill="black"/>
<path opacity="0.15" d="M26.1942 140.253H25.4707V140.901H26.1942V140.253Z" fill="black"/>
<path opacity="0.15" d="M26.1942 141.724H25.4707V142.372H26.1942V141.724Z" fill="black"/>
<path d="M51.4223 140.253H27.1348V142.371H51.4223V140.253Z" fill="#6923E7"/>
<path opacity="0.7" d="M51.4223 140.253H27.1348V142.371H51.4223V140.253Z" fill="white"/>
<path opacity="0.15" d="M29.0748 140.253H27.1348V142.371H29.0748V140.253Z" fill="black"/>
<path opacity="0.15" d="M28.4677 140.253H27.7441V140.901H28.4677V140.253Z" fill="black"/>
<path opacity="0.15" d="M28.4677 141.724H27.7441V142.372H28.4677V141.724Z" fill="black"/>
<path d="M53.6919 140.253H29.4043V142.371H53.6919V140.253Z" fill="#6923E7"/>
<path opacity="0.7" d="M53.6919 140.253H29.4043V142.371H53.6919V140.253Z" fill="white"/>
<path opacity="0.15" d="M31.3443 140.253H29.4043V142.371H31.3443V140.253Z" fill="black"/>
<path opacity="0.15" d="M30.7372 140.253H30.0137V140.901H30.7372V140.253Z" fill="black"/>
<path opacity="0.15" d="M30.7372 141.724H30.0137V142.372H30.7372V141.724Z" fill="black"/>
<path d="M55.9653 140.253H31.6777V142.371H55.9653V140.253Z" fill="#6923E7"/>
<path opacity="0.7" d="M55.9653 140.253H31.6777V142.371H55.9653V140.253Z" fill="white"/>
<path opacity="0.15" d="M33.6178 140.253H31.6777V142.371H33.6178V140.253Z" fill="black"/>
<path opacity="0.15" d="M33.0106 140.253H32.2871V140.901H33.0106V140.253Z" fill="black"/>
<path opacity="0.15" d="M33.0106 141.724H32.2871V142.372H33.0106V141.724Z" fill="black"/>
<path d="M58.2384 140.257H33.9473V142.375H58.2384V140.257Z" fill="#6923E7"/>
<path opacity="0.7" d="M58.2384 140.257H33.9473V142.375H58.2384V140.257Z" fill="white"/>
<path opacity="0.15" d="M35.8873 140.253H33.9473V142.371H35.8873V140.253Z" fill="black"/>
<path opacity="0.15" d="M35.2802 140.253H34.5566V140.901H35.2802V140.253Z" fill="black"/>
<path opacity="0.15" d="M35.2802 141.724H34.5566V142.372H35.2802V141.724Z" fill="black"/>
<path d="M50.0141 138.152H25.7266V140.271H50.0141V138.152Z" fill="#6923E7"/>
<path opacity="0.7" d="M50.0141 138.152H25.7266V140.271H50.0141V138.152Z" fill="white"/>
<path opacity="0.15" d="M27.6666 138.152H25.7266V140.271H27.6666V138.152Z" fill="black"/>
<path opacity="0.15" d="M27.0595 138.152H26.3359V138.8H27.0595V138.152Z" fill="black"/>
<path opacity="0.15" d="M27.0595 139.623H26.3359V140.271H27.0595V139.623Z" fill="black"/>
<path d="M52.2876 138.152H28V140.271H52.2876V138.152Z" fill="#6923E7"/>
<path opacity="0.7" d="M52.2876 138.152H28V140.271H52.2876V138.152Z" fill="white"/>
<path opacity="0.15" d="M29.94 138.152H28V140.271H29.94V138.152Z" fill="black"/>
<path opacity="0.15" d="M29.3309 138.152H28.6074V138.8H29.3309V138.152Z" fill="black"/>
<path opacity="0.15" d="M29.3309 139.623H28.6074V140.271H29.3309V139.623Z" fill="black"/>
<path d="M54.5571 138.152H30.2695V140.271H54.5571V138.152Z" fill="#6923E7"/>
<path opacity="0.7" d="M54.5571 138.152H30.2695V140.271H54.5571V138.152Z" fill="white"/>
<path opacity="0.15" d="M32.2096 138.152H30.2695V140.271H32.2096V138.152Z" fill="black"/>
<path opacity="0.15" d="M31.6024 138.152H30.8789V138.8H31.6024V138.152Z" fill="black"/>
<path opacity="0.15" d="M31.6024 139.623H30.8789V140.271H31.6024V139.623Z" fill="black"/>
<path d="M56.8305 138.152H32.543V140.271H56.8305V138.152Z" fill="#6923E7"/>
<path opacity="0.7" d="M56.8305 138.152H32.543V140.271H56.8305V138.152Z" fill="white"/>
<path opacity="0.15" d="M34.483 138.152H32.543V140.271H34.483V138.152Z" fill="black"/>
<path opacity="0.15" d="M33.8739 138.152H33.1504V138.8H33.8739V138.152Z" fill="black"/>
<path opacity="0.15" d="M33.8739 139.623H33.1504V140.271H33.8739V139.623Z" fill="black"/>
<path d="M59.1036 138.152H34.8125V140.271H59.1036V138.152Z" fill="#6923E7"/>
<path opacity="0.7" d="M59.1036 138.152H34.8125V140.271H59.1036V138.152Z" fill="white"/>
<path opacity="0.15" d="M36.7525 138.152H34.8125V140.271H36.7525V138.152Z" fill="black"/>
<path opacity="0.15" d="M36.1454 138.152H35.4219V138.8H36.1454V138.152Z" fill="black"/>
<path opacity="0.15" d="M36.1454 139.623H35.4219V140.271H36.1454V139.623Z" fill="black"/>
<path d="M49.8094 136.053H25.5254V138.171H49.8094V136.053Z" fill="#6923E7"/>
<path opacity="0.7" d="M49.8094 136.053H25.5254V138.171H49.8094V136.053Z" fill="white"/>
<path opacity="0.15" d="M27.4654 136.049H25.5254V138.167H27.4654V136.049Z" fill="black"/>
<path opacity="0.15" d="M26.8583 136.049H26.1348V136.697H26.8583V136.049Z" fill="black"/>
<path opacity="0.15" d="M26.8583 137.52H26.1348V138.167H26.8583V137.52Z" fill="black"/>
<path d="M52.0829 136.053H27.7988V138.171H52.0829V136.053Z" fill="#6923E7"/>
<path opacity="0.7" d="M52.0829 136.053H27.7988V138.171H52.0829V136.053Z" fill="white"/>
<path opacity="0.15" d="M29.7349 136.049H27.7949V138.167H29.7349V136.049Z" fill="black"/>
<path opacity="0.15" d="M29.1278 136.049H28.4043V136.697H29.1278V136.049Z" fill="black"/>
<path opacity="0.15" d="M29.1278 137.52H28.4043V138.167H29.1278V137.52Z" fill="black"/>
<path d="M54.3524 136.053H30.0684V138.171H54.3524V136.053Z" fill="#6923E7"/>
<path opacity="0.7" d="M54.3524 136.053H30.0684V138.171H54.3524V136.053Z" fill="white"/>
<path opacity="0.15" d="M32.0084 136.049H30.0684V138.167H32.0084V136.049Z" fill="black"/>
<path opacity="0.15" d="M31.4013 136.049H30.6777V136.697H31.4013V136.049Z" fill="black"/>
<path opacity="0.15" d="M31.4013 137.52H30.6777V138.167H31.4013V137.52Z" fill="black"/>
<path d="M56.629 136.053H32.3379V138.171H56.629V136.053Z" fill="#6923E7"/>
<path opacity="0.7" d="M56.629 136.053H32.3379V138.171H56.629V136.053Z" fill="white"/>
<path opacity="0.15" d="M34.2779 136.049H32.3379V138.167H34.2779V136.049Z" fill="black"/>
<path opacity="0.15" d="M33.6708 136.049H32.9473V136.697H33.6708V136.049Z" fill="black"/>
<path opacity="0.15" d="M33.6708 137.52H32.9473V138.167H33.6708V137.52Z" fill="black"/>
<path d="M58.8954 136.053H34.6113V138.171H58.8954V136.053Z" fill="#6923E7"/>
<path opacity="0.7" d="M58.8954 136.053H34.6113V138.171H58.8954V136.053Z" fill="white"/>
<path opacity="0.15" d="M36.5514 136.049H34.6113V138.167H36.5514V136.049Z" fill="black"/>
<path opacity="0.15" d="M35.9442 136.049H35.2207V136.697H35.9442V136.049Z" fill="black"/>
<path opacity="0.15" d="M35.9442 137.52H35.2207V138.167H35.9442V137.52Z" fill="black"/>
<path d="M62.6369 150.783H22.666V152.221H62.6369V150.783Z" fill="#263238"/>
<path opacity="0.3" d="M62.6369 150.783H22.666V152.221H62.6369V150.783Z" fill="white"/>
<path opacity="0.3" d="M62.64 150.783H37.2246V152.221H62.64V150.783Z" fill="white"/>
<path opacity="0.1" d="M58.8948 138.011H36.5508V138.171H58.8948V138.011Z" fill="black"/>
<path opacity="0.1" d="M58.2398 140.271H35.8887V140.776H58.2398V140.271Z" fill="black"/>
<path opacity="0.1" d="M58.6675 144.461H36.3164V144.966H58.6675V144.461Z" fill="black"/>
<path opacity="0.1" d="M59.105 148.68H36.7539V149.185H59.105V148.68Z" fill="black"/>
<path opacity="0.1" d="M58.6675 146.469H36.3164V146.576H58.6675V146.469Z" fill="black"/>
<path opacity="0.1" d="M58.2398 142.271H35.8887V142.36H58.2398V142.271Z" fill="black"/>
<path opacity="0.1" d="M59.9276 146.565V148.68H59.1048V150.784H38.6973L39.6336 149.189L39.928 148.68L39.9386 148.666H40.3607L41.6942 146.58L41.7048 146.565L41.7297 146.523H40.7827L40.8146 146.469L41.6836 144.967L41.9673 144.476L41.9779 144.461H42.6518L43.8187 142.404H43.5739L43.5917 142.375L43.6023 142.357L43.6555 142.272L44.5918 140.777L44.9039 140.271H45.4147L45.4253 140.257L46.5815 138.171H46.4219L46.4325 138.153L46.5212 138.011L47.7235 136.053H58.8991V138.153H59.1048V140.271H58.2394V142.357H59.3211V144.476H58.665V146.565H59.9276Z" fill="black"/>
<path d="M70.0379 152.219H45.7539V154.341H70.0379V152.219Z" fill="#263238"/>
<path opacity="0.5" d="M70.0379 152.219H45.7539V154.341H70.0379V152.219Z" fill="white"/>
<path opacity="0.2" d="M47.6939 152.219H45.7539V154.341H47.6939V152.219Z" fill="black"/>
<path opacity="0.2" d="M47.0884 152.219H46.3613V152.87H47.0884V152.219Z" fill="black"/>
<path opacity="0.2" d="M47.0868 153.692H46.3633V154.34H47.0868V153.692Z" fill="black"/>
<path d="M72.2684 152.219H47.9844V154.341H72.2684V152.219Z" fill="#263238"/>
<path opacity="0.5" d="M72.2684 152.219H47.9844V154.341H72.2684V152.219Z" fill="white"/>
<path opacity="0.2" d="M49.9244 152.219H47.9844V154.341H49.9244V152.219Z" fill="black"/>
<path opacity="0.2" d="M49.3208 152.219H48.5938V152.87H49.3208V152.219Z" fill="black"/>
<path opacity="0.2" d="M49.3173 153.692H48.5938V154.34H49.3173V153.692Z" fill="black"/>
<path d="M74.5028 152.219H50.2188V154.341H74.5028V152.219Z" fill="#263238"/>
<path opacity="0.5" d="M74.5028 152.219H50.2188V154.341H74.5028V152.219Z" fill="white"/>
<path opacity="0.2" d="M52.1588 152.219H50.2188V154.341H52.1588V152.219Z" fill="black"/>
<path opacity="0.2" d="M51.5461 152.219H50.8262V152.87H51.5461V152.219Z" fill="black"/>
<path opacity="0.2" d="M51.5497 153.692H50.8262V154.34H51.5497V153.692Z" fill="black"/>
<path d="M76.7403 152.219H52.4492V154.341H76.7403V152.219Z" fill="#263238"/>
<path opacity="0.5" d="M76.7403 152.219H52.4492V154.341H76.7403V152.219Z" fill="white"/>
<path opacity="0.2" d="M54.3892 152.219H52.4492V154.341H54.3892V152.219Z" fill="black"/>
<path opacity="0.2" d="M53.7786 152.219H53.0586V152.87H53.7786V152.219Z" fill="black"/>
<path opacity="0.2" d="M53.7821 153.692H53.0586V154.34H53.7821V153.692Z" fill="black"/>
<path d="M78.9149 152.219H54.6309V154.341H78.9149V152.219Z" fill="#263238"/>
<path opacity="0.5" d="M78.9149 152.219H54.6309V154.341H78.9149V152.219Z" fill="white"/>
<path opacity="0.2" d="M56.5709 152.219H54.6309V154.341H56.5709V152.219Z" fill="black"/>
<path opacity="0.2" d="M55.9583 152.219H55.2383V152.87H55.9583V152.219Z" fill="black"/>
<path opacity="0.2" d="M55.9618 153.692H55.2383V154.34H55.9618V153.692Z" fill="black"/>
<path d="M70.0747 164.938H45.7871V167.057H70.0747V164.938Z" fill="#263238"/>
<path opacity="0.5" d="M70.0747 164.938H45.7871V167.057H70.0747V164.938Z" fill="white"/>
<path opacity="0.2" d="M47.7271 164.938H45.7871V167.057H47.7271V164.938Z" fill="black"/>
<path opacity="0.2" d="M47.12 164.938H46.3965V165.586H47.12V164.938Z" fill="black"/>
<path opacity="0.2" d="M47.12 166.412H46.3965V167.06H47.12V166.412Z" fill="black"/>
<path d="M72.3052 164.938H48.0176V167.057H72.3052V164.938Z" fill="#263238"/>
<path opacity="0.5" d="M72.3052 164.938H48.0176V167.057H72.3052V164.938Z" fill="white"/>
<path opacity="0.2" d="M49.9576 164.938H48.0176V167.057H49.9576V164.938Z" fill="black"/>
<path opacity="0.2" d="M49.3505 164.938H48.627V165.586H49.3505V164.938Z" fill="black"/>
<path opacity="0.2" d="M49.3505 166.412H48.627V167.06H49.3505V166.412Z" fill="black"/>
<path d="M74.5395 164.938H50.252V167.057H74.5395V164.938Z" fill="#263238"/>
<path opacity="0.5" d="M74.5395 164.938H50.252V167.057H74.5395V164.938Z" fill="white"/>
<path opacity="0.2" d="M52.192 164.938H50.252V167.057H52.192V164.938Z" fill="black"/>
<path opacity="0.2" d="M51.5829 164.938H50.8594V165.586H51.5829V164.938Z" fill="black"/>
<path opacity="0.2" d="M51.5829 166.412H50.8594V167.06H51.5829V166.412Z" fill="black"/>
<path d="M76.77 164.938H52.4824V167.057H76.77V164.938Z" fill="#263238"/>
<path opacity="0.5" d="M76.77 164.938H52.4824V167.057H76.77V164.938Z" fill="white"/>
<path opacity="0.2" d="M54.4224 164.938H52.4824V167.057H54.4224V164.938Z" fill="black"/>
<path opacity="0.2" d="M53.8153 164.938H53.0918V165.586H53.8153V164.938Z" fill="black"/>
<path opacity="0.2" d="M53.8153 166.412H53.0918V167.06H53.8153V166.412Z" fill="black"/>
<path d="M78.9477 164.938H54.6602V167.057H78.9477V164.938Z" fill="#263238"/>
<path opacity="0.5" d="M78.9477 164.938H54.6602V167.057H78.9477V164.938Z" fill="white"/>
<path opacity="0.2" d="M56.6002 164.938H54.6602V167.057H56.6002V164.938Z" fill="black"/>
<path opacity="0.2" d="M55.9931 164.938H55.2695V165.586H55.9931V164.938Z" fill="black"/>
<path opacity="0.2" d="M55.9931 166.412H55.2695V167.06H55.9931V166.412Z" fill="black"/>
<path d="M70.6528 162.82H46.3652V164.939H70.6528V162.82Z" fill="#263238"/>
<path opacity="0.5" d="M70.6528 162.82H46.3652V164.939H70.6528V162.82Z" fill="white"/>
<path opacity="0.2" d="M48.3053 162.82H46.3652V164.939H48.3053V162.82Z" fill="black"/>
<path opacity="0.2" d="M47.6962 162.82H46.9727V163.468H47.6962V162.82Z" fill="black"/>
<path opacity="0.2" d="M47.6962 164.291H46.9727V164.939H47.6962V164.291Z" fill="black"/>
<path d="M72.8833 162.82H48.5957V164.939H72.8833V162.82Z" fill="#263238"/>
<path opacity="0.5" d="M72.8833 162.82H48.5957V164.939H72.8833V162.82Z" fill="white"/>
<path opacity="0.2" d="M50.5357 162.82H48.5957V164.939H50.5357V162.82Z" fill="black"/>
<path opacity="0.2" d="M49.9286 162.82H49.2051V163.468H49.9286V162.82Z" fill="black"/>
<path opacity="0.2" d="M49.9286 164.291H49.2051V164.939H49.9286V164.291Z" fill="black"/>
<path d="M75.1137 162.82H50.8262V164.939H75.1137V162.82Z" fill="#263238"/>
<path opacity="0.5" d="M75.1137 162.82H50.8262V164.939H75.1137V162.82Z" fill="white"/>
<path opacity="0.2" d="M52.7662 162.82H50.8262V164.939H52.7662V162.82Z" fill="black"/>
<path opacity="0.2" d="M52.1591 162.82H51.4355V163.468H52.1591V162.82Z" fill="black"/>
<path opacity="0.2" d="M52.1591 164.291H51.4355V164.939H52.1591V164.291Z" fill="black"/>
<path d="M77.3481 162.82H53.0605V164.939H77.3481V162.82Z" fill="#263238"/>
<path opacity="0.5" d="M77.3481 162.82H53.0605V164.939H77.3481V162.82Z" fill="white"/>
<path opacity="0.2" d="M55.0006 162.82H53.0605V164.939H55.0006V162.82Z" fill="black"/>
<path opacity="0.2" d="M54.3915 162.82H53.668V163.468H54.3915V162.82Z" fill="black"/>
<path opacity="0.2" d="M54.3915 164.291H53.668V164.939H54.3915V164.291Z" fill="black"/>
<path d="M79.5259 162.82H55.2383V164.939H79.5259V162.82Z" fill="#263238"/>
<path opacity="0.5" d="M79.5259 162.82H55.2383V164.939H79.5259V162.82Z" fill="white"/>
<path opacity="0.2" d="M57.1783 162.82H55.2383V164.939H57.1783V162.82Z" fill="black"/>
<path opacity="0.2" d="M56.5712 162.82H55.8477V163.468H56.5712V162.82Z" fill="black"/>
<path opacity="0.2" d="M56.5712 164.291H55.8477V164.939H56.5712V164.291Z" fill="black"/>
<path d="M70.0415 160.702H45.7539V162.82H70.0415V160.702Z" fill="#263238"/>
<path opacity="0.5" d="M70.0415 160.702H45.7539V162.82H70.0415V160.702Z" fill="white"/>
<path opacity="0.2" d="M47.6939 160.702H45.7539V162.82H47.6939V160.702Z" fill="black"/>
<path opacity="0.2" d="M47.0868 160.702H46.3633V161.35H47.0868V160.702Z" fill="black"/>
<path opacity="0.2" d="M47.0868 162.173H46.3633V162.821H47.0868V162.173Z" fill="black"/>
<path d="M72.2719 160.702H47.9844V162.82H72.2719V160.702Z" fill="#263238"/>
<path opacity="0.5" d="M72.2719 160.702H47.9844V162.82H72.2719V160.702Z" fill="white"/>
<path opacity="0.2" d="M49.9244 160.702H47.9844V162.82H49.9244V160.702Z" fill="black"/>
<path opacity="0.2" d="M49.3173 160.702H48.5938V161.35H49.3173V160.702Z" fill="black"/>
<path opacity="0.2" d="M49.3173 162.173H48.5938V162.821H49.3173V162.173Z" fill="black"/>
<path d="M74.5063 160.702H50.2188V162.82H74.5063V160.702Z" fill="#263238"/>
<path opacity="0.5" d="M74.5063 160.702H50.2188V162.82H74.5063V160.702Z" fill="white"/>
<path opacity="0.2" d="M52.1588 160.702H50.2188V162.82H52.1588V160.702Z" fill="black"/>
<path opacity="0.2" d="M51.5497 160.702H50.8262V161.35H51.5497V160.702Z" fill="black"/>
<path opacity="0.2" d="M51.5497 162.173H50.8262V162.821H51.5497V162.173Z" fill="black"/>
<path d="M76.7368 160.702H52.4492V162.82H76.7368V160.702Z" fill="#263238"/>
<path opacity="0.5" d="M76.7368 160.702H52.4492V162.82H76.7368V160.702Z" fill="white"/>
<path opacity="0.2" d="M54.3892 160.702H52.4492V162.82H54.3892V160.702Z" fill="black"/>
<path opacity="0.2" d="M53.7821 160.702H53.0586V161.35H53.7821V160.702Z" fill="black"/>
<path opacity="0.2" d="M53.7821 162.173H53.0586V162.821H53.7821V162.173Z" fill="black"/>
<path d="M78.9145 160.702H54.627V162.82H78.9145V160.702Z" fill="#263238"/>
<path opacity="0.5" d="M78.9145 160.702H54.627V162.82H78.9145V160.702Z" fill="white"/>
<path opacity="0.2" d="M56.567 160.702H54.627V162.82H56.567V160.702Z" fill="black"/>
<path opacity="0.2" d="M55.9598 160.702H55.2363V161.35H55.9598V160.702Z" fill="black"/>
<path opacity="0.2" d="M55.9598 162.173H55.2363V162.821H55.9598V162.173Z" fill="black"/>
<path d="M70.2915 158.58H46.0039V160.698H70.2915V158.58Z" fill="#263238"/>
<path opacity="0.5" d="M70.2915 158.58H46.0039V160.698H70.2915V158.58Z" fill="white"/>
<path opacity="0.2" d="M47.9439 158.58H46.0039V160.698H47.9439V158.58Z" fill="black"/>
<path opacity="0.2" d="M47.3368 158.58H46.6133V159.228H47.3368V158.58Z" fill="black"/>
<path opacity="0.2" d="M47.3368 160.051H46.6133V160.699H47.3368V160.051Z" fill="black"/>
<path d="M72.5219 158.58H48.2344V160.698H72.5219V158.58Z" fill="#263238"/>
<path opacity="0.5" d="M72.5219 158.58H48.2344V160.698H72.5219V158.58Z" fill="white"/>
<path opacity="0.2" d="M50.1744 158.58H48.2344V160.698H50.1744V158.58Z" fill="black"/>
<path opacity="0.2" d="M49.5673 158.58H48.8438V159.228H49.5673V158.58Z" fill="black"/>
<path opacity="0.2" d="M49.5673 160.051H48.8438V160.699H49.5673V160.051Z" fill="black"/>
<path d="M74.7563 158.58H50.4688V160.698H74.7563V158.58Z" fill="#263238"/>
<path opacity="0.5" d="M74.7563 158.58H50.4688V160.698H74.7563V158.58Z" fill="white"/>
<path opacity="0.2" d="M52.4088 158.58H50.4688V160.698H52.4088V158.58Z" fill="black"/>
<path opacity="0.2" d="M51.7997 158.58H51.0762V159.228H51.7997V158.58Z" fill="black"/>
<path opacity="0.2" d="M51.7997 160.051H51.0762V160.699H51.7997V160.051Z" fill="black"/>
<path d="M76.9868 158.58H52.6992V160.698H76.9868V158.58Z" fill="#263238"/>
<path opacity="0.5" d="M76.9868 158.58H52.6992V160.698H76.9868V158.58Z" fill="white"/>
<path opacity="0.2" d="M54.6392 158.58H52.6992V160.698H54.6392V158.58Z" fill="black"/>
<path opacity="0.2" d="M54.0321 158.58H53.3086V159.228H54.0321V158.58Z" fill="black"/>
<path opacity="0.2" d="M54.0321 160.051H53.3086V160.699H54.0321V160.051Z" fill="black"/>
<path d="M79.1645 158.58H54.877V160.698H79.1645V158.58Z" fill="#263238"/>
<path opacity="0.5" d="M79.1645 158.58H54.877V160.698H79.1645V158.58Z" fill="white"/>
<path opacity="0.2" d="M56.817 158.58H54.877V160.698H56.817V158.58Z" fill="black"/>
<path opacity="0.2" d="M56.2099 158.58H55.4863V159.228H56.2099V158.58Z" fill="black"/>
<path opacity="0.2" d="M56.2099 160.051H55.4863V160.699H56.2099V160.051Z" fill="black"/>
<path d="M69.8934 156.462H45.6094V158.58H69.8934V156.462Z" fill="#263238"/>
<path opacity="0.5" d="M69.8934 156.462H45.6094V158.58H69.8934V156.462Z" fill="white"/>
<path opacity="0.2" d="M47.5494 156.462H45.6094V158.58H47.5494V156.462Z" fill="black"/>
<path opacity="0.2" d="M46.9423 156.462H46.2188V157.11H46.9423V156.462Z" fill="black"/>
<path opacity="0.2" d="M46.9423 157.933H46.2188V158.581H46.9423V157.933Z" fill="black"/>
<path d="M72.1313 156.462H47.8438V158.58H72.1313V156.462Z" fill="#263238"/>
<path opacity="0.5" d="M72.1313 156.462H47.8438V158.58H72.1313V156.462Z" fill="white"/>
<path opacity="0.2" d="M49.7838 156.462H47.8438V158.58H49.7838V156.462Z" fill="black"/>
<path opacity="0.2" d="M49.1747 156.462H48.4512V157.11H49.1747V156.462Z" fill="black"/>
<path opacity="0.2" d="M49.1747 157.933H48.4512V158.581H49.1747V157.933Z" fill="black"/>
<path d="M74.3618 156.462H50.0742V158.58H74.3618V156.462Z" fill="#263238"/>
<path opacity="0.5" d="M74.3618 156.462H50.0742V158.58H74.3618V156.462Z" fill="white"/>
<path opacity="0.2" d="M52.0142 156.462H50.0742V158.58H52.0142V156.462Z" fill="black"/>
<path opacity="0.2" d="M51.4071 156.462H50.6836V157.11H51.4071V156.462Z" fill="black"/>
<path opacity="0.2" d="M51.4071 157.933H50.6836V158.581H51.4071V157.933Z" fill="black"/>
<path d="M76.5923 156.462H52.3047V158.58H76.5923V156.462Z" fill="#263238"/>
<path opacity="0.5" d="M76.5923 156.462H52.3047V158.58H76.5923V156.462Z" fill="white"/>
<path opacity="0.2" d="M54.2447 156.462H52.3047V158.58H54.2447V156.462Z" fill="black"/>
<path opacity="0.2" d="M53.6376 156.462H52.9141V157.11H53.6376V156.462Z" fill="black"/>
<path opacity="0.2" d="M53.6376 157.933H52.9141V158.581H53.6376V157.933Z" fill="black"/>
<path d="M78.7739 156.462H54.4863V158.58H78.7739V156.462Z" fill="#263238"/>
<path opacity="0.5" d="M78.7739 156.462H54.4863V158.58H78.7739V156.462Z" fill="white"/>
<path opacity="0.2" d="M56.4264 156.462H54.4863V158.58H56.4264V156.462Z" fill="black"/>
<path opacity="0.2" d="M55.8173 156.462H55.0938V157.11H55.8173V156.462Z" fill="black"/>
<path opacity="0.2" d="M55.8173 157.933H55.0938V158.581H55.8173V157.933Z" fill="black"/>
<path d="M70.0985 154.345H45.8145V156.463H70.0985V154.345Z" fill="#263238"/>
<path opacity="0.5" d="M70.0985 154.345H45.8145V156.463H70.0985V154.345Z" fill="white"/>
<path opacity="0.2" d="M47.7545 154.345H45.8145V156.463H47.7545V154.345Z" fill="black"/>
<path opacity="0.2" d="M47.1454 154.341H46.4219V154.989H47.1454V154.341Z" fill="black"/>
<path opacity="0.2" d="M47.1454 155.812H46.4219V156.459H47.1454V155.812Z" fill="black"/>
<path d="M72.3325 154.341H48.0449V156.459H72.3325V154.341Z" fill="#263238"/>
<path opacity="0.5" d="M72.3325 154.341H48.0449V156.459H72.3325V154.341Z" fill="white"/>
<path opacity="0.2" d="M49.9849 154.341H48.0449V156.459H49.9849V154.341Z" fill="black"/>
<path opacity="0.2" d="M49.3778 154.341H48.6543V154.989H49.3778V154.341Z" fill="black"/>
<path opacity="0.2" d="M49.3778 155.812H48.6543V156.459H49.3778V155.812Z" fill="black"/>
<path d="M74.563 154.341H50.2754V156.459H74.563V154.341Z" fill="#263238"/>
<path opacity="0.5" d="M74.563 154.341H50.2754V156.459H74.563V154.341Z" fill="white"/>
<path opacity="0.2" d="M52.2154 154.341H50.2754V156.459H52.2154V154.341Z" fill="black"/>
<path opacity="0.2" d="M51.6083 154.341H50.8848V154.989H51.6083V154.341Z" fill="black"/>
<path opacity="0.2" d="M51.6083 155.812H50.8848V156.459H51.6083V155.812Z" fill="black"/>
<path d="M76.7973 154.341H52.5098V156.459H76.7973V154.341Z" fill="#263238"/>
<path opacity="0.5" d="M76.7973 154.341H52.5098V156.459H76.7973V154.341Z" fill="white"/>
<path opacity="0.2" d="M54.4498 154.341H52.5098V156.459H54.4498V154.341Z" fill="black"/>
<path opacity="0.2" d="M53.8407 154.341H53.1172V154.989H53.8407V154.341Z" fill="black"/>
<path opacity="0.2" d="M53.8407 155.812H53.1172V156.459H53.8407V155.812Z" fill="black"/>
<path d="M78.9715 154.345H54.6875V156.463H78.9715V154.345Z" fill="#263238"/>
<path opacity="0.5" d="M78.9715 154.345H54.6875V156.463H78.9715V154.345Z" fill="white"/>
<path opacity="0.2" d="M56.6275 154.341H54.6875V156.459H56.6275V154.341Z" fill="black"/>
<path opacity="0.2" d="M56.0204 154.341H55.2969V154.989H56.0204V154.341Z" fill="black"/>
<path opacity="0.2" d="M56.0204 155.812H55.2969V156.459H56.0204V155.812Z" fill="black"/>
<path opacity="0.1" d="M78.9191 154.177H56.6035V154.341H78.9191V154.177Z" fill="black"/>
<path opacity="0.1" d="M78.7883 158.424H56.4727V158.588H78.7883V158.424Z" fill="black"/>
<path opacity="0.1" d="M78.9152 162.66H56.5996V162.824H78.9152V162.66Z" fill="black"/>
<path opacity="0.1" d="M78.7395 156.462H56.4238V157.263H78.7395V156.462Z" fill="black"/>
<path opacity="0.1" d="M78.9152 160.713H56.5996V161.514H78.9152V160.713Z" fill="black"/>
<path opacity="0.1" d="M78.9152 164.953H56.5996V165.754H78.9152V164.953Z" fill="black"/>
<path d="M83.2112 167.057H43.2402V168.495H83.2112V167.057Z" fill="#263238"/>
<path opacity="0.3" d="M83.2142 167.057H57.7988V168.495H83.2142V167.057Z" fill="white"/>
<path opacity="0.7" d="M83.2112 167.057H43.2402V168.495H83.2112V167.057Z" fill="white"/>
<path opacity="0.15" d="M78.9729 154.344V154.358H77.6393L76.7952 156.067L76.6001 156.462L76.5966 156.477H76.3235L75.9156 157.263L75.7738 157.534H45.6094V156.462H45.8151V154.344H45.7548V152.219H78.9161V154.344H78.9729Z" fill="black"/>
<path d="M70.938 148.73H46.6504V150.849H70.938V148.73Z" fill="#6923E7"/>
<path opacity="0.3" d="M48.5904 148.73H46.6504V150.849H48.5904V148.73Z" fill="black"/>
<path opacity="0.3" d="M47.9813 148.73H47.2578V149.378H47.9813V148.73Z" fill="black"/>
<path opacity="0.3" d="M47.9813 150.201H47.2578V150.849H47.9813V150.201Z" fill="black"/>
<path d="M73.1723 148.73H48.8848V150.849H73.1723V148.73Z" fill="#6923E7"/>
<path opacity="0.3" d="M50.8248 148.73H48.8848V150.849H50.8248V148.73Z" fill="black"/>
<path opacity="0.3" d="M50.2177 148.73H49.4941V149.378H50.2177V148.73Z" fill="black"/>
<path opacity="0.3" d="M50.2177 150.201H49.4941V150.849H50.2177V150.201Z" fill="black"/>
<path d="M75.4067 148.73H51.1191V150.849H75.4067V148.73Z" fill="#6923E7"/>
<path opacity="0.3" d="M53.0592 148.73H51.1191V150.849H53.0592V148.73Z" fill="black"/>
<path opacity="0.3" d="M52.452 148.73H51.7285V149.378H52.452V148.73Z" fill="black"/>
<path opacity="0.3" d="M52.452 150.201H51.7285V150.849H52.452V150.201Z" fill="black"/>
<path d="M77.6411 148.73H53.3535V150.849H77.6411V148.73Z" fill="#6923E7"/>
<path opacity="0.3" d="M55.2935 148.73H53.3535V150.849H55.2935V148.73Z" fill="black"/>
<path opacity="0.3" d="M54.6864 148.73H53.9629V149.378H54.6864V148.73Z" fill="black"/>
<path opacity="0.3" d="M54.6864 150.201H53.9629V150.849H54.6864V150.201Z" fill="black"/>
<path d="M79.8719 148.73H55.5879V150.849H79.8719V148.73Z" fill="#6923E7"/>
<path opacity="0.3" d="M57.5279 148.73H55.5879V150.849H57.5279V148.73Z" fill="black"/>
<path opacity="0.3" d="M56.9208 148.73H56.1973V149.378H56.9208V148.73Z" fill="black"/>
<path opacity="0.3" d="M56.9208 150.201H56.1973V150.849H56.9208V150.201Z" fill="black"/>
<path d="M71.3032 146.611H47.0156V148.73H71.3032V146.611Z" fill="#6923E7"/>
<path opacity="0.3" d="M48.9557 146.611H47.0156V148.73H48.9557V146.611Z" fill="black"/>
<path opacity="0.3" d="M48.3485 146.611H47.625V147.259H48.3485V146.611Z" fill="black"/>
<path opacity="0.3" d="M48.3485 148.082H47.625V148.73H48.3485V148.082Z" fill="black"/>
<path d="M73.5376 146.611H49.25V148.73H73.5376V146.611Z" fill="#6923E7"/>
<path opacity="0.3" d="M51.19 146.611H49.25V148.73H51.19V146.611Z" fill="black"/>
<path opacity="0.3" d="M50.5829 146.611H49.8594V147.259H50.5829V146.611Z" fill="black"/>
<path opacity="0.3" d="M50.5829 148.082H49.8594V148.73H50.5829V148.082Z" fill="black"/>
<path d="M75.7719 146.611H51.4844V148.73H75.7719V146.611Z" fill="#6923E7"/>
<path opacity="0.3" d="M53.4244 146.611H51.4844V148.73H53.4244V146.611Z" fill="black"/>
<path opacity="0.3" d="M52.8173 146.611H52.0938V147.259H52.8173V146.611Z" fill="black"/>
<path opacity="0.3" d="M52.8173 148.082H52.0938V148.73H52.8173V148.082Z" fill="black"/>
<path d="M78.0083 146.611H53.7207V148.73H78.0083V146.611Z" fill="#6923E7"/>
<path opacity="0.3" d="M55.6607 146.611H53.7207V148.73H55.6607V146.611Z" fill="black"/>
<path opacity="0.3" d="M55.0516 146.611H54.3281V147.259H55.0516V146.611Z" fill="black"/>
<path opacity="0.3" d="M55.0516 148.082H54.3281V148.73H55.0516V148.082Z" fill="black"/>
<path d="M80.2372 146.611H55.9531V148.73H80.2372V146.611Z" fill="#6923E7"/>
<path opacity="0.3" d="M57.8971 146.611H55.957V148.73H57.8971V146.611Z" fill="black"/>
<path opacity="0.3" d="M57.286 146.611H56.5625V147.259H57.286V146.611Z" fill="black"/>
<path opacity="0.3" d="M57.286 148.082H56.5625V148.73H57.286V148.082Z" fill="black"/>
<path d="M70.5434 144.493H46.2559V146.611H70.5434V144.493Z" fill="#6923E7"/>
<path opacity="0.3" d="M48.1959 144.493H46.2559V146.611H48.1959V144.493Z" fill="black"/>
<path opacity="0.3" d="M47.5888 144.493H46.8652V145.141H47.5888V144.493Z" fill="black"/>
<path opacity="0.3" d="M47.5888 145.964H46.8652V146.612H47.5888V145.964Z" fill="black"/>
<path d="M72.7778 144.493H48.4902V146.611H72.7778V144.493Z" fill="#6923E7"/>
<path opacity="0.3" d="M50.4303 144.493H48.4902V146.611H50.4303V144.493Z" fill="black"/>
<path opacity="0.3" d="M49.8231 144.493H49.0996V145.141H49.8231V144.493Z" fill="black"/>
<path opacity="0.3" d="M49.8231 145.964H49.0996V146.612H49.8231V145.964Z" fill="black"/>
<path d="M75.0122 144.493H50.7246V146.611H75.0122V144.493Z" fill="#6923E7"/>
<path opacity="0.3" d="M52.6646 144.493H50.7246V146.611H52.6646V144.493Z" fill="black"/>
<path opacity="0.3" d="M52.0575 144.493H51.334V145.141H52.0575V144.493Z" fill="black"/>
<path opacity="0.3" d="M52.0575 145.964H51.334V146.612H52.0575V145.964Z" fill="black"/>
<path d="M77.2505 144.493H52.9629V146.611H77.2505V144.493Z" fill="#6923E7"/>
<path opacity="0.3" d="M54.9029 144.493H52.9629V146.611H54.9029V144.493Z" fill="black"/>
<path opacity="0.3" d="M54.2938 144.493H53.5703V145.141H54.2938V144.493Z" fill="black"/>
<path opacity="0.3" d="M54.2938 145.964H53.5703V146.612H54.2938V145.964Z" fill="black"/>
<path d="M79.4813 144.49H55.1973V146.612H79.4813V144.49Z" fill="#6923E7"/>
<path opacity="0.3" d="M57.1373 144.494H55.1973V146.612H57.1373V144.494Z" fill="black"/>
<path opacity="0.3" d="M56.5282 144.494H55.8047V145.142H56.5282V144.494Z" fill="black"/>
<path opacity="0.3" d="M56.5282 145.964H55.8047V146.612H56.5282V145.964Z" fill="black"/>
<path d="M71.1528 142.372H46.8652V144.49H71.1528V142.372Z" fill="#6923E7"/>
<path opacity="0.3" d="M48.8053 142.372H46.8652V144.49H48.8053V142.372Z" fill="black"/>
<path opacity="0.3" d="M48.1981 142.372H47.4746V143.02H48.1981V142.372Z" fill="black"/>
<path opacity="0.3" d="M48.1981 143.843H47.4746V144.491H48.1981V143.843Z" fill="black"/>
<path d="M73.3872 142.372H49.0996V144.49H73.3872V142.372Z" fill="#6923E7"/>
<path opacity="0.3" d="M51.0396 142.372H49.0996V144.49H51.0396V142.372Z" fill="black"/>
<path opacity="0.3" d="M50.4325 142.372H49.709V143.02H50.4325V142.372Z" fill="black"/>
<path opacity="0.3" d="M50.4325 143.843H49.709V144.491H50.4325V143.843Z" fill="black"/>
<path d="M75.6216 142.372H51.334V144.49H75.6216V142.372Z" fill="#6923E7"/>
<path opacity="0.3" d="M53.274 142.372H51.334V144.49H53.274V142.372Z" fill="black"/>
<path opacity="0.3" d="M52.6669 142.372H51.9434V143.02H52.6669V142.372Z" fill="black"/>
<path opacity="0.3" d="M52.6669 143.843H51.9434V144.491H52.6669V143.843Z" fill="black"/>
<path d="M77.8559 142.372H53.5684V144.49H77.8559V142.372Z" fill="#6923E7"/>
<path opacity="0.3" d="M55.5084 142.372H53.5684V144.49H55.5084V142.372Z" fill="black"/>
<path opacity="0.3" d="M54.9013 142.372H54.1777V143.02H54.9013V142.372Z" fill="black"/>
<path opacity="0.3" d="M54.9013 143.843H54.1777V144.491H54.9013V143.843Z" fill="black"/>
<path d="M80.0868 142.372H55.8027V144.49H80.0868V142.372Z" fill="#6923E7"/>
<path opacity="0.3" d="M57.7428 142.372H55.8027V144.49H57.7428V142.372Z" fill="black"/>
<path opacity="0.3" d="M57.1356 142.372H56.4121V143.02H57.1356V142.372Z" fill="black"/>
<path opacity="0.3" d="M57.1356 143.843H56.4121V144.491H57.1356V143.843Z" fill="black"/>
<path d="M70.938 140.254H46.6504V142.372H70.938V140.254Z" fill="#6923E7"/>
<path opacity="0.3" d="M48.5904 140.254H46.6504V142.372H48.5904V140.254Z" fill="black"/>
<path opacity="0.3" d="M47.9813 140.254H47.2578V140.902H47.9813V140.254Z" fill="black"/>
<path opacity="0.3" d="M47.9813 141.725H47.2578V142.373H47.9813V141.725Z" fill="black"/>
<path d="M73.1723 140.254H48.8848V142.372H73.1723V140.254Z" fill="#6923E7"/>
<path opacity="0.3" d="M50.8248 140.254H48.8848V142.372H50.8248V140.254Z" fill="black"/>
<path opacity="0.3" d="M50.2177 140.254H49.4941V140.902H50.2177V140.254Z" fill="black"/>
<path opacity="0.3" d="M50.2177 141.725H49.4941V142.373H50.2177V141.725Z" fill="black"/>
<path d="M75.4067 140.254H51.1191V142.372H75.4067V140.254Z" fill="#6923E7"/>
<path opacity="0.3" d="M53.0592 140.254H51.1191V142.372H53.0592V140.254Z" fill="black"/>
<path opacity="0.3" d="M52.452 140.254H51.7285V140.902H52.452V140.254Z" fill="black"/>
<path opacity="0.3" d="M52.452 141.725H51.7285V142.373H52.452V141.725Z" fill="black"/>
<path d="M77.6411 140.254H53.3535V142.372H77.6411V140.254Z" fill="#6923E7"/>
<path opacity="0.3" d="M55.2935 140.254H53.3535V142.372H55.2935V140.254Z" fill="black"/>
<path opacity="0.3" d="M54.6864 140.254H53.9629V140.902H54.6864V140.254Z" fill="black"/>
<path opacity="0.3" d="M54.6864 141.725H53.9629V142.373H54.6864V141.725Z" fill="black"/>
<path d="M79.8719 140.254H55.5879V142.372H79.8719V140.254Z" fill="#6923E7"/>
<path opacity="0.3" d="M57.5279 140.254H55.5879V142.372H57.5279V140.254Z" fill="black"/>
<path opacity="0.3" d="M56.9208 140.254H56.1973V140.902H56.9208V140.254Z" fill="black"/>
<path opacity="0.3" d="M56.9208 141.725H56.1973V142.373H56.9208V141.725Z" fill="black"/>
<path d="M70.5434 138.136H46.2559V140.254H70.5434V138.136Z" fill="#6923E7"/>
<path opacity="0.3" d="M48.1959 138.136H46.2559V140.254H48.1959V138.136Z" fill="black"/>
<path opacity="0.3" d="M47.5888 138.136H46.8652V138.784H47.5888V138.136Z" fill="black"/>
<path opacity="0.3" d="M47.5888 139.606H46.8652V140.254H47.5888V139.606Z" fill="black"/>
<path d="M72.7778 138.136H48.4902V140.254H72.7778V138.136Z" fill="#6923E7"/>
<path opacity="0.3" d="M50.4303 138.136H48.4902V140.254H50.4303V138.136Z" fill="black"/>
<path opacity="0.3" d="M49.8231 138.136H49.0996V138.784H49.8231V138.136Z" fill="black"/>
<path opacity="0.3" d="M49.8231 139.606H49.0996V140.254H49.8231V139.606Z" fill="black"/>
<path d="M75.0122 138.136H50.7246V140.254H75.0122V138.136Z" fill="#6923E7"/>
<path opacity="0.3" d="M52.6646 138.136H50.7246V140.254H52.6646V138.136Z" fill="black"/>
<path opacity="0.3" d="M52.0575 138.136H51.334V138.784H52.0575V138.136Z" fill="black"/>
<path opacity="0.3" d="M52.0575 139.606H51.334V140.254H52.0575V139.606Z" fill="black"/>
<path d="M77.2505 138.136H52.9629V140.254H77.2505V138.136Z" fill="#6923E7"/>
<path opacity="0.3" d="M54.9029 138.136H52.9629V140.254H54.9029V138.136Z" fill="black"/>
<path opacity="0.3" d="M54.2938 138.136H53.5703V138.784H54.2938V138.136Z" fill="black"/>
<path opacity="0.3" d="M54.2938 139.606H53.5703V140.254H54.2938V139.606Z" fill="black"/>
<path d="M79.4813 138.136H55.1973V140.254H79.4813V138.136Z" fill="#6923E7"/>
<path opacity="0.3" d="M57.1373 138.136H55.1973V140.254H57.1373V138.136Z" fill="black"/>
<path opacity="0.3" d="M56.5282 138.136H55.8047V138.784H56.5282V138.136Z" fill="black"/>
<path opacity="0.3" d="M56.5282 139.606H55.8047V140.254H56.5282V139.606Z" fill="black"/>
<path d="M70.9344 136.014H46.6504V138.135H70.9344V136.014Z" fill="#6923E7"/>
<path opacity="0.3" d="M48.5904 136.018H46.6504V138.136H48.5904V136.018Z" fill="black"/>
<path opacity="0.3" d="M47.9813 136.018H47.2578V136.666H47.9813V136.018Z" fill="black"/>
<path opacity="0.3" d="M47.9813 137.487H47.2578V138.135H47.9813V137.487Z" fill="black"/>
<path d="M73.1688 136.014H48.8848V138.135H73.1688V136.014Z" fill="#6923E7"/>
<path opacity="0.3" d="M50.8248 136.018H48.8848V138.136H50.8248V136.018Z" fill="black"/>
<path opacity="0.3" d="M50.2177 136.018H49.4941V136.666H50.2177V136.018Z" fill="black"/>
<path opacity="0.3" d="M50.2177 137.487H49.4941V138.135H50.2177V137.487Z" fill="black"/>
<path d="M75.4064 136.014H51.1152V138.135H75.4064V136.014Z" fill="#6923E7"/>
<path opacity="0.3" d="M53.0592 136.018H51.1191V138.136H53.0592V136.018Z" fill="black"/>
<path opacity="0.3" d="M52.452 136.018H51.7285V136.666H52.452V136.018Z" fill="black"/>
<path opacity="0.3" d="M52.452 137.487H51.7285V138.135H52.452V137.487Z" fill="black"/>
<path d="M77.6414 136.014H53.3574V138.135H77.6414V136.014Z" fill="#6923E7"/>
<path opacity="0.3" d="M55.2935 136.018H53.3535V138.136H55.2935V136.018Z" fill="black"/>
<path opacity="0.3" d="M54.6864 136.018H53.9629V136.666H54.6864V136.018Z" fill="black"/>
<path opacity="0.3" d="M54.6864 137.487H53.9629V138.135H54.6864V137.487Z" fill="black"/>
<path d="M79.8719 136.014H55.5879V138.135H79.8719V136.014Z" fill="#6923E7"/>
<path opacity="0.3" d="M57.5279 136.018H55.5879V138.136H57.5279V136.018Z" fill="black"/>
<path opacity="0.3" d="M56.9208 136.018H56.1973V136.666H56.9208V136.018Z" fill="black"/>
<path opacity="0.3" d="M56.9208 137.487H56.1973V138.135H56.9208V137.487Z" fill="black"/>
<path opacity="0.1" d="M79.4807 138.136H57.1367V138.78H79.4807V138.136Z" fill="black"/>
<path opacity="0.1" d="M79.4807 140.072H57.1367V140.254H79.4807V140.072Z" fill="black"/>
<path opacity="0.1" d="M79.8713 142.19H57.5273V142.372H79.8713V142.19Z" fill="black"/>
<path opacity="0.1" d="M79.4807 146.427H57.1367V146.612H79.4807V146.427Z" fill="black"/>
<path opacity="0.1" d="M79.4807 144.49H57.1367V145.074H79.4807V144.49Z" fill="black"/>
<path opacity="0.1" d="M79.8713 148.762H57.5273V149.346H79.8713V148.762Z" fill="black"/>
<path d="M83.2326 150.849H43.2617V152.29H83.2326V150.849Z" fill="#263238"/>
<path opacity="0.3" d="M83.2326 150.849H43.2617V152.29H83.2326V150.849Z" fill="white"/>
<path opacity="0.3" d="M83.2322 150.849H57.8203V152.29H83.2322V150.849Z" fill="white"/>
</svg>
