<svg width="48" height="48" viewBox="0 0 48 48" fill="none" xmlns="http://www.w3.org/2000/svg">
<circle cx="24" cy="24" r="24" fill="white"/>
<path d="M36.0679 21.5895H35.0765V21.5384H23.9996V26.4615H30.9553C29.9405 29.3273 27.2137 31.3846 23.9996 31.3846C19.9214 31.3846 16.615 28.0781 16.615 24C16.615 19.9218 19.9214 16.6153 23.9996 16.6153C25.882 16.6153 27.5947 17.3255 28.8987 18.4855L32.3799 15.0043C30.1817 12.9556 27.2414 11.6923 23.9996 11.6923C17.2027 11.6923 11.6919 17.203 11.6919 24C11.6919 30.7969 17.2027 36.3076 23.9996 36.3076C30.7965 36.3076 36.3073 30.7969 36.3073 24C36.3073 23.1747 36.2224 22.3692 36.0679 21.5895Z" fill="#FFC107"/>
<path d="M13.1111 18.2713L17.1548 21.2369C18.2489 18.528 20.8988 16.6153 23.9997 16.6153C25.8822 16.6153 27.5948 17.3255 28.8988 18.4855L32.38 15.0043C30.1819 12.9556 27.2415 11.6923 23.9997 11.6923C19.2723 11.6923 15.1726 14.3612 13.1111 18.2713Z" fill="#FF3D00"/>
<path d="M23.9996 36.3077C27.1787 36.3077 30.0673 35.0911 32.2513 33.1126L28.4421 29.8892C27.2064 30.8252 25.6704 31.3846 23.9996 31.3846C20.7984 31.3846 18.0803 29.3434 17.0563 26.4948L13.0427 29.5871C15.0796 33.5729 19.2163 36.3077 23.9996 36.3077Z" fill="#4CAF50"/>
<path d="M36.0681 21.5895H35.0767V21.5385H23.9998V26.4615H30.9554C30.4681 27.8381 29.5825 29.0252 28.4404 29.8898C28.441 29.8892 28.4416 29.8892 28.4422 29.8886L32.2514 33.112C31.9819 33.3569 36.3074 30.1538 36.3074 24C36.3074 23.1748 36.2225 22.3692 36.0681 21.5895Z" fill="#1976D2"/>
</svg>
