<svg width="21" height="20" viewBox="0 0 21 20" fill="none" xmlns="http://www.w3.org/2000/svg">
<path fill-rule="evenodd" clip-rule="evenodd" d="M4.66663 5.83333C4.44561 5.83333 4.23365 5.92113 4.07737 6.07741C3.92109 6.23369 3.83329 6.44565 3.83329 6.66666V15.8333C3.83329 16.0543 3.92109 16.2663 4.07737 16.4226C4.23365 16.5789 4.44561 16.6667 4.66663 16.6667H13.8333C14.0543 16.6667 14.2663 16.5789 14.4225 16.4226C14.5788 16.2663 14.6666 16.0543 14.6666 15.8333V10.8333C14.6666 10.3731 15.0397 10 15.5 10C15.9602 10 16.3333 10.3731 16.3333 10.8333V15.8333C16.3333 16.4964 16.0699 17.1323 15.6011 17.6011C15.1322 18.0699 14.4963 18.3333 13.8333 18.3333H4.66663C4.00358 18.3333 3.3677 18.0699 2.89886 17.6011C2.43002 17.1323 2.16663 16.4964 2.16663 15.8333V6.66666C2.16663 6.00362 2.43002 5.36774 2.89886 4.8989C3.3677 4.43006 4.00358 4.16666 4.66663 4.16666H9.66663C10.1269 4.16666 10.5 4.53976 10.5 5C10.5 5.46023 10.1269 5.83333 9.66663 5.83333H4.66663Z" fill="white"/>
<path fill-rule="evenodd" clip-rule="evenodd" d="M12.1666 2.5C12.1666 2.03976 12.5397 1.66666 13 1.66666H18C18.4602 1.66666 18.8333 2.03976 18.8333 2.5V7.5C18.8333 7.96023 18.4602 8.33333 18 8.33333C17.5397 8.33333 17.1666 7.96023 17.1666 7.5V3.33333H13C12.5397 3.33333 12.1666 2.96023 12.1666 2.5Z" fill="white"/>
<path fill-rule="evenodd" clip-rule="evenodd" d="M18.5893 1.91074C18.9147 2.23618 18.9147 2.76382 18.5893 3.08925L9.42259 12.2559C9.09715 12.5814 8.56951 12.5814 8.24408 12.2559C7.91864 11.9305 7.91864 11.4028 8.24408 11.0774L17.4107 1.91074C17.7362 1.5853 18.2638 1.5853 18.5893 1.91074Z" fill="white"/>
</svg>
