<svg width="14" height="18" viewBox="0 0 14 18" fill="none" xmlns="http://www.w3.org/2000/svg">
<path d="M7 9C7.45834 9 7.85084 8.83667 8.1775 8.51C8.50417 8.18333 8.66722 7.79111 8.66667 7.33333C8.66667 6.875 8.50333 6.4825 8.17667 6.15583C7.85 5.82917 7.45778 5.66611 7 5.66667C6.54167 5.66667 6.14917 5.83 5.8225 6.15667C5.49584 6.48333 5.33278 6.87556 5.33334 7.33333C5.33334 7.79167 5.49667 8.18417 5.82334 8.51083C6.15 8.8375 6.54222 9.00056 7 9ZM7 17.3333C4.76389 15.4306 3.09389 13.6633 1.99 12.0317C0.886114 10.4 0.333891 8.88945 0.333336 7.5C0.333336 5.41667 1.00361 3.75695 2.34417 2.52083C3.68472 1.28472 5.23667 0.666668 7 0.666668C8.76389 0.666668 10.3161 1.28472 11.6567 2.52083C12.9972 3.75695 13.6672 5.41667 13.6667 7.5C13.6667 8.88889 13.1144 10.3994 12.01 12.0317C10.9056 13.6639 9.23556 15.4311 7 17.3333Z" fill="#958E99"/>
</svg>
