<svg width="18" height="18" viewBox="0 0 18 18" fill="none" xmlns="http://www.w3.org/2000/svg">
<path d="M13.5329 10.2887C13.3504 10.2887 13.1797 10.3589 13.0523 10.4863L10.484 13.0548C10.2189 13.3197 10.2189 13.7509 10.4839 14.016L11.7944 15.3267C11.9217 15.454 12.0924 15.5242 12.2749 15.5242C12.4574 15.5242 12.628 15.454 12.7553 15.3267L15.3242 12.7578C15.4515 12.6302 15.5217 12.4597 15.5217 12.277C15.5217 12.0946 15.4515 11.924 15.3242 11.7966L14.0135 10.4862C13.8862 10.3589 13.7155 10.2887 13.5329 10.2887ZM12.2749 16.7153C11.7742 16.7153 11.3043 16.5212 10.9521 16.1688L9.64159 14.8581C8.9124 14.1287 8.9124 12.9419 9.64185 12.2125L12.2102 9.64402C12.5623 9.2918 13.0323 9.09766 13.5329 9.09766C14.0336 9.09766 14.5033 9.29167 14.8556 9.64396L16.1663 10.9544C16.5187 11.3066 16.7126 11.7764 16.7127 12.277C16.7127 12.7778 16.5187 13.2475 16.1665 13.5998L13.5975 16.1688C13.2453 16.5212 12.7755 16.7153 12.2749 16.7153Z" fill="white"/>
<path d="M4.46468 10.2887C4.2821 10.2887 4.11141 10.3589 3.98403 10.4862L2.67369 11.7966C2.54626 11.924 2.47618 12.0946 2.47618 12.277C2.47612 12.4597 2.54626 12.6302 2.67369 12.7578L5.24242 15.3267C5.36984 15.454 5.54048 15.5242 5.72297 15.5242C5.9055 15.5242 6.0762 15.454 6.20357 15.3266L7.51449 14.0159C7.64177 13.8885 7.71197 13.7178 7.71197 13.5353C7.71197 13.3529 7.64177 13.1821 7.5144 13.0548L4.94541 10.4862C4.81798 10.3589 4.64731 10.2887 4.46468 10.2887ZM5.72297 16.7153C5.22232 16.7153 4.7525 16.5212 4.40027 16.1688L1.83143 13.5998C1.47915 13.2475 1.28516 12.7778 1.28516 12.277C1.28516 11.7764 1.47926 11.3066 1.83162 10.9544L3.14184 9.64396C3.49423 9.29167 3.964 9.09766 4.46468 9.09766C4.96531 9.09766 5.43509 9.29167 5.78743 9.64396L8.35646 12.2126C8.70881 12.5649 8.90295 13.0346 8.90308 13.5353C8.90308 14.036 8.70893 14.5058 8.35665 14.8582L7.04567 16.1688C6.69338 16.5212 6.22363 16.7153 5.72297 16.7153Z" fill="white"/>
<path d="M5.72297 2.47726C5.54048 2.47726 5.36984 2.54738 5.2425 2.67476L2.67358 5.24376C2.54626 5.37114 2.47612 5.54174 2.47612 5.72433C2.47612 5.90693 2.54626 6.07754 2.67369 6.20489L3.9841 7.51535C4.11141 7.64277 4.2821 7.71284 4.46468 7.71284C4.64723 7.71284 4.81786 7.64264 4.94518 7.51535L7.51393 4.94627C7.77891 4.68137 7.77885 4.25013 7.51393 3.98513L6.20357 2.67476C6.0762 2.54738 5.9055 2.47726 5.72297 2.47726ZM4.46468 8.90393C3.964 8.90393 3.49423 8.70991 3.14195 8.35763L1.8315 7.0471C1.47915 6.69475 1.28516 6.22508 1.28516 5.72433C1.28504 5.22365 1.47915 4.75391 1.83143 4.40158L4.40027 1.83257C4.7525 1.48024 5.22232 1.28613 5.72297 1.28613C6.22363 1.28613 6.69338 1.48024 7.04575 1.83257L8.35613 3.14295C9.08539 3.87237 9.08552 5.05904 8.3562 5.78845L5.78743 8.35756C5.43509 8.70978 4.96531 8.90393 4.46468 8.90393Z" fill="white"/>
<path d="M12.2752 2.47726C12.0926 2.47726 11.922 2.54738 11.7947 2.67475L10.4842 3.98542C10.3568 4.11279 10.2867 4.28349 10.2867 4.46599C10.2867 4.64849 10.3568 4.81919 10.4842 4.94646L13.0529 7.51508C13.1803 7.6425 13.351 7.7127 13.5335 7.7127C13.716 7.7127 13.8869 7.6425 14.0141 7.51521L15.3249 6.20481C15.4522 6.07733 15.5224 5.90678 15.5224 5.72432C15.5224 5.54174 15.4522 5.37123 15.3249 5.24386L12.7557 2.67475C12.6283 2.54728 12.4577 2.47726 12.2752 2.47726ZM13.5335 8.90359C13.0329 8.90359 12.5631 8.70958 12.2107 8.35736L9.64207 5.78876C9.28972 5.43642 9.0957 4.96668 9.0957 4.46599C9.09564 3.9653 9.28972 3.49556 9.64194 3.14323L10.9524 1.83256C11.3046 1.48024 11.7745 1.28613 12.2752 1.28613C12.7757 1.28613 13.2455 1.48014 13.5979 1.83247L16.1671 4.40158C16.5194 4.75391 16.7135 5.22365 16.7135 5.72432C16.7134 6.22506 16.5192 6.69473 16.1669 7.04708L14.8562 8.35748C14.504 8.70958 14.0341 8.90359 13.5335 8.90359Z" fill="white"/>
<path d="M5.81896 5.06115C5.40055 5.06115 5.06021 5.40158 5.06021 5.82009V12.1801C5.06021 12.5984 5.40055 12.939 5.81896 12.939H12.1791C12.5975 12.939 12.9378 12.5984 12.9378 12.1801V5.82009C12.9378 5.40158 12.5975 5.06115 12.1791 5.06115H5.81896ZM12.1791 14.1299H5.81896C4.74381 14.1299 3.86914 13.2552 3.86914 12.1801V5.82009C3.86914 4.7449 4.74381 3.87012 5.81896 3.87012H12.1791C13.2542 3.87012 14.1289 4.7449 14.1289 5.82009V12.1801C14.1289 13.2552 13.2542 14.1299 12.1791 14.1299Z" fill="white"/>
</svg>
