<svg width="163" height="164" viewBox="0 0 163 164" fill="none" xmlns="http://www.w3.org/2000/svg">
    <path
        d="M78.2344 6.10022V78.2445H30.1382V26.623H24.1462V78.2445H6.1001V6.10022H52.3687V57.4621H58.3608V6.10022H78.2344Z"
        fill="#FF3334" />
    <path
        d="M156.371 6.10022V78.2445H124.783V48.3042H130.895V42.3122H112.669V48.3042H118.791V78.2445H84.2264V6.10022H156.371Z"
        fill="#8637EB" />
    <path d="M157 84.9656V157.11H108.904V105.488H102.912V157.11H84.8657V84.9656H131.134V136.327H137.126V84.9656H157Z"
        fill="#FFBE0C" />
    <path
        d="M78.6238 84.9656V157.11H47.0357V127.17H53.1476V121.178H34.9217V127.17H41.0436V157.11H6.47949V84.9656H78.6238Z"
        fill="#FF006E" />
    <path fill-rule="evenodd" clip-rule="evenodd"
        d="M78.24 0H0V79.09V84.24V163.33H78.24H84.24H162.48V84.24V79.09V0H84.24H78.24ZM84.24 157.33H102.31V105.64H108.31V157.33H156.48V85.09H136.57V136.52H130.57V85.09H84.24V157.33ZM78.24 157.33V85.09H6V157.33H40.6001V127.34H34.48V121.34H52.73V127.34H46.6001V157.33H78.24ZM78.24 6H58.3301V57.43H52.3301V6H6V78.24H24.0701V26.55H30.0701V78.24H78.24V6ZM84.24 6V78.24H118.84V48.25H112.71V42.25H130.97V48.25H124.84V78.24H156.48V6H84.24Z"
        fill="#050606" />
</svg>