<svg width="124" height="124" viewBox="0 0 124 124" fill="none" xmlns="http://www.w3.org/2000/svg">
<rect width="123.887" height="123.887" rx="26.8423" fill="#6923E7"/>
<path d="M86.0381 84.714L79.1674 77.9111C77.9313 76.6872 78.8082 74.5997 80.5527 74.5997H86.108C92.4003 74.5997 97.5032 69.5471 97.5032 63.3169H26.6416C26.6416 69.5471 31.7445 74.5997 38.0367 74.5997H43.592C45.3365 74.5997 46.2134 76.6872 44.9774 77.9111L38.1067 84.714C37.3417 85.4714 37.3417 86.7 38.1067 87.4574L43.3915 92.69C44.1564 93.4475 45.3971 93.4475 46.1621 92.69L53.0328 85.8871C54.2688 84.6632 56.3771 85.5315 56.3771 87.2588V95.6366C56.3771 96.7081 57.254 97.5763 58.3362 97.5763H65.8132C66.8954 97.5763 67.7723 96.7081 67.7723 95.6366V87.2588C67.7723 85.5315 69.8806 84.6632 71.1166 85.8871L77.9873 92.69C78.7523 93.4475 79.993 93.4475 80.758 92.69L86.0427 87.4574C86.8077 86.7 86.8077 85.4714 86.0427 84.714H86.0381Z" fill="white"/>
<path d="M62.0642 39.454C70.3902 39.454 77.7086 43.8092 81.8133 50.3396H42.3151C46.4245 43.8092 53.7429 39.454 62.0689 39.454H62.0642ZM62.0689 27.3214C42.4877 27.3214 26.5635 43.0887 26.5635 62.4722H97.5649C97.5649 43.0887 81.6407 27.3214 62.0642 27.3214H62.0689Z" fill="#BBA6ED"/>
<path d="M62.0583 39.4272C49.2032 39.4272 38.7783 49.7448 38.7783 62.4778H85.3383C85.3383 49.7494 74.9134 39.4272 62.0583 39.4272Z" fill="#7850DC"/>
<path d="M73.106 62.4732H51.0527C51.0527 56.4508 55.997 51.5553 62.0794 51.5553C68.1617 51.5553 73.106 56.4508 73.106 62.4732Z" fill="white"/>
</svg>
