<svg width="15" height="20" viewBox="0 0 15 20" fill="none" xmlns="http://www.w3.org/2000/svg">
<path d="M9.68907 20C8.23159 20 7.16777 19.6562 6.49763 18.9687C5.87683 18.3867 5.51658 17.5878 5.49562 16.7465C5.48807 16.4909 5.54856 16.2378 5.67114 16.012C5.78548 15.8169 5.95065 15.6551 6.14978 15.543C6.61901 15.3138 7.17093 15.3138 7.64017 15.543C7.83894 15.6546 8.00334 15.8167 8.11611 16.012C8.24223 16.2367 8.30498 16.4902 8.29792 16.7465C8.31094 17.0525 8.22128 17.3544 8.04264 17.6059C7.89373 17.8111 7.6809 17.9636 7.43605 18.0405C7.6755 18.339 8.01429 18.5458 8.39344 18.6249C8.81763 18.7456 9.25696 18.8076 9.69868 18.8092C10.2835 18.8142 10.8563 18.6465 11.3423 18.328C11.8465 17.9792 12.2225 17.4806 12.4146 16.9062C12.6581 16.2224 12.7769 15.5021 12.7656 14.7781C12.7853 14.0233 12.6552 13.2719 12.3826 12.5656C12.1776 12.0006 11.7885 11.5174 11.2752 11.1906C10.7982 10.8949 10.2444 10.7398 9.67983 10.7437C9.1879 10.7845 8.71355 10.9422 8.29792 11.2031L7.27321 11.7062V11.2031L11.8784 5.15378H5.49562V11.4312C5.47758 11.8842 5.59996 12.332 5.84667 12.7156C6.08945 13.0556 6.49621 13.2464 6.91895 13.2187C7.30297 13.2111 7.67435 13.0829 7.9784 12.8531C8.32305 12.6058 8.62296 12.3036 8.86566 11.9593C8.8875 11.8989 8.92779 11.8466 8.98105 11.8094C9.02381 11.7732 9.0784 11.7532 9.13491 11.7531C9.2458 11.7631 9.35072 11.8067 9.43494 11.8781C9.5416 11.9948 9.59966 12.1464 9.59765 12.303C9.58533 12.4083 9.56614 12.5127 9.54021 12.6155C9.31347 13.1529 8.9334 13.615 8.44549 13.9464C7.99234 14.2466 7.45712 14.4058 6.90997 14.4031C5.52806 14.4031 4.57071 14.1364 4.03792 13.6031C3.48472 13.0076 3.19947 12.2192 3.24644 11.4155V5.15378H0V3.98743H3.26157V1.32806L2.51484 0.596357V0H4.6817L5.49562 0.412554V3.98743L13.9271 3.96232L14.7666 4.78731L9.59649 9.87442C9.90883 9.75142 10.2378 9.67352 10.573 9.64316C11.2365 9.67162 11.8838 9.85255 12.4626 10.1713C13.1329 10.4833 13.6978 10.9769 14.0904 11.5937C14.4421 12.1158 14.691 12.6977 14.8244 13.3093C14.934 13.7918 14.9929 14.284 15 14.7782C15.0033 15.7214 14.7849 16.6528 14.3617 17.5C13.9602 18.3205 13.2846 18.982 12.4467 19.3751C11.5891 19.7889 10.6452 20.0028 9.68907 20Z" fill="white"/>
</svg>
