<svg width="276" height="274" viewBox="0 0 276 274" fill="none" xmlns="http://www.w3.org/2000/svg">
<path d="M214.667 207.505L192.8 185.853C188.866 181.958 191.657 175.314 197.209 175.314H214.89C234.916 175.314 251.157 159.233 251.157 139.405H25.627C25.627 159.233 41.8677 175.314 61.894 175.314H79.5748C85.1269 175.314 87.9178 181.958 83.9838 185.853L62.1167 207.505C59.6821 209.915 59.6821 213.825 62.1167 216.236L78.9364 232.89C81.371 235.301 85.3199 235.301 87.7545 232.89L109.622 211.238C113.556 207.343 120.266 210.107 120.266 215.604V242.268C120.266 245.678 123.057 248.441 126.501 248.441H150.298C153.742 248.441 156.533 245.678 156.533 242.268V215.604C156.533 210.107 163.243 207.343 167.177 211.238L189.044 232.89C191.479 235.301 195.427 235.301 197.862 232.89L214.682 216.236C217.116 213.825 217.116 209.915 214.682 207.505H214.667Z" fill="#6923E7"/>
<path d="M138.359 63.4553C164.857 63.4553 188.15 77.3165 201.214 98.1008H75.5037C88.5824 77.3165 111.875 63.4553 138.373 63.4553H138.359ZM138.373 24.8412C76.0529 24.8412 25.3711 75.0234 25.3711 136.715H251.346C251.346 75.0234 200.664 24.8412 138.359 24.8412L138.373 24.8412Z" fill="#DED3F5"/>
<path d="M138.346 63.3722C97.4327 63.3722 64.2534 96.2097 64.2534 136.735H212.439C212.439 96.2244 179.26 63.3722 138.346 63.3722Z" fill="#BBA6ED"/>
<path d="M173.503 136.719H103.314C103.314 117.552 119.05 101.971 138.408 101.971C157.767 101.971 173.503 117.552 173.503 136.719Z" fill="#6923E7"/>
</svg>
