<svg width="307" height="304" viewBox="0 0 307 304" fill="none" xmlns="http://www.w3.org/2000/svg">
<path d="M238.008 230.068L213.763 206.062C209.402 201.743 212.496 194.377 218.652 194.377H238.255C260.459 194.377 278.466 176.548 278.466 154.563H28.4131C28.4131 176.548 46.4198 194.377 68.6236 194.377H88.2269C94.3827 194.377 97.4771 201.743 93.1153 206.062L68.8705 230.068C66.1712 232.741 66.1712 237.076 68.8705 239.748L87.5191 258.213C90.2185 260.886 94.5967 260.886 97.296 258.213L121.541 234.207C125.903 229.889 133.342 232.952 133.342 239.048V268.611C133.342 272.392 136.437 275.456 140.255 275.456H166.64C170.458 275.456 173.553 272.392 173.553 268.611V239.048C173.553 232.952 180.993 229.889 185.354 234.207L209.599 258.213C212.298 260.886 216.677 260.886 219.376 258.213L238.025 239.748C240.724 237.076 240.724 232.741 238.025 230.068H238.008Z" fill="#DED3F5"/>
<path d="M153.403 70.3555C182.783 70.3555 208.608 85.7238 223.092 108.768H83.7131C98.2139 85.7238 124.039 70.3555 153.419 70.3555H153.403ZM153.419 27.5426C84.3221 27.5426 28.1294 83.1814 28.1294 151.581H278.676C278.676 83.1814 222.483 27.5426 153.403 27.5426L153.419 27.5426Z" fill="#3E1D88"/>
<path d="M153.389 70.2632C108.026 70.2632 71.2393 106.671 71.2393 151.603H235.538C235.538 106.687 198.751 70.2632 153.389 70.2632Z" fill="#6732E2"/>
<path d="M192.368 151.586H114.548C114.548 130.334 131.995 113.059 153.458 113.059C174.921 113.059 192.368 130.334 192.368 151.586Z" fill="#DED3F5"/>
</svg>
