<svg width="40" height="41" viewBox="0 0 40 41" fill="none" xmlns="http://www.w3.org/2000/svg">
<mask id="mask0_779_17471" style="mask-type:alpha" maskUnits="userSpaceOnUse" x="0" y="0" width="40" height="41">
<circle cx="20" cy="20.5" r="20" fill="#D9D9D9"/>
</mask>
<g mask="url(#mask0_779_17471)">
<path d="M43.3263 21.4248C43.238 31.3383 35.9303 39.8538 26.6197 42.7272C26.3303 42.8113 26.0341 42.8906 25.7369 42.9639C24.5461 43.2574 23.319 43.458 22.0634 43.5597C21.7495 43.5852 21.4337 43.6047 21.1139 43.6194C12.1623 45.0703 3.93258 38.9332 -0.221506 31.3383C-3.29759 25.7383 -4.1441 18.9867 -2.52857 12.7723C-2.45206 12.5424 -2.06755 12.3888 -1.91355 12.1589C0.317005 7.47949 3.93258 3.94963 8.4702 1.49497C10.5468 0.267151 12.4703 -1.03698 14.7008 -1.804C24.9306 -5.25656 36.3149 0.267151 40.4689 10.394C40.6995 10.8538 41.238 11.2383 41.4685 11.7744C42.6995 14.5363 43.1605 17.528 43.3302 20.512C43.3371 20.8172 43.3361 21.1225 43.3263 21.4248Z" fill="#FD3F00"/>
<path d="M20.6873 20.5263C20.9236 20.3661 21.1674 20.1414 21.175 19.8344C21.1808 19.5787 21.0152 19.3791 20.8168 19.239C20.3645 18.9195 19.7087 18.86 19.1765 18.9447C18.8956 18.9892 18.6258 19.0973 18.4088 19.2835C18.2028 19.4613 18.0112 19.7229 17.9918 20.0022C17.954 20.5548 18.6039 20.7409 19.0352 20.7938C19.337 20.8307 19.6406 20.8181 19.9407 20.7745C20.1971 20.7367 20.4687 20.6713 20.6873 20.5271C20.8008 20.4525 20.8496 20.304 20.7781 20.1824C20.7117 20.0692 20.5469 20.0172 20.4326 20.0919C20.3998 20.1137 20.3653 20.133 20.3291 20.1506C20.3182 20.1556 20.2526 20.1841 20.2938 20.1674C20.3334 20.1514 20.2577 20.1808 20.2468 20.1841C20.1501 20.2185 20.0492 20.2437 19.9483 20.2638C19.8953 20.2739 19.8415 20.2831 19.7877 20.2906C19.8465 20.2822 19.786 20.2906 19.7625 20.2931C19.7314 20.2965 19.7003 20.299 19.6691 20.3015C19.5531 20.3107 19.4363 20.3141 19.3194 20.3107C19.2664 20.3091 19.2134 20.3066 19.1613 20.3024C19.1311 20.2998 19.1008 20.2965 19.0705 20.294C19.0587 20.2931 19.047 20.2906 19.0344 20.2898C19.1058 20.2965 19.0445 20.2915 19.031 20.2889C18.9326 20.2722 18.8351 20.252 18.7401 20.221C18.7182 20.2135 18.6972 20.2051 18.6754 20.1975C18.6199 20.1783 18.7224 20.2227 18.6627 20.1917C18.6249 20.1715 18.5888 20.1497 18.5526 20.1279C18.5072 20.1003 18.593 20.169 18.5501 20.1254C18.5392 20.1145 18.5274 20.1028 18.5165 20.0919C18.4736 20.0508 18.5408 20.1397 18.5139 20.0894C18.5106 20.0835 18.5064 20.0759 18.5022 20.0701C18.4719 20.029 18.5274 20.0852 18.5089 20.091C18.5072 20.091 18.4971 20.0541 18.4954 20.0491C18.4761 19.9954 18.4929 20.1003 18.4954 20.055C18.4954 20.0508 18.4912 20.0038 18.4963 20.0022C18.5232 19.9913 18.4778 20.0709 18.4921 20.0323C18.4963 20.0206 18.498 20.0063 18.5013 19.9946C18.5047 19.9829 18.5282 19.9175 18.5122 19.9585C18.4954 19.9996 18.5274 19.93 18.5333 19.9191C18.5442 19.899 18.556 19.8797 18.5686 19.8604C18.577 19.8479 18.5862 19.8353 18.5946 19.8227C18.6258 19.7774 18.5896 19.8269 18.6031 19.811C18.6426 19.764 18.6829 19.7179 18.7266 19.6751C18.7477 19.655 18.7695 19.6365 18.7914 19.6181C18.7426 19.6583 18.8082 19.608 18.8259 19.5971C18.8687 19.5694 18.9141 19.5468 18.9604 19.525C18.9747 19.5183 19.015 19.5049 18.9587 19.525C18.9705 19.5208 18.9814 19.5158 18.9932 19.5116C19.0226 19.5015 19.052 19.4906 19.0823 19.4822C19.1378 19.4655 19.1941 19.452 19.2504 19.442C19.2765 19.437 19.3017 19.4336 19.3278 19.4294C19.2681 19.4386 19.3143 19.4311 19.3295 19.4294C19.3497 19.4277 19.369 19.4252 19.3892 19.4235C19.5128 19.4135 19.6372 19.4135 19.7616 19.4235C19.7885 19.4252 19.8146 19.4286 19.8415 19.4311C19.855 19.4319 19.8676 19.4344 19.881 19.4353C19.8213 19.4286 19.8676 19.4336 19.8827 19.4353C19.9441 19.4453 20.0046 19.4562 20.0651 19.4705C20.1198 19.4831 20.1744 19.4982 20.2283 19.5149C20.251 19.5225 20.2745 19.53 20.2972 19.5384C20.3115 19.5434 20.3249 19.5493 20.3384 19.5544C20.393 19.5745 20.3233 19.5468 20.3426 19.5552C20.3947 19.5787 20.446 19.6038 20.4956 19.634C20.5175 19.6474 20.5377 19.6625 20.5595 19.6759C20.573 19.6843 20.5931 19.707 20.5435 19.6625C20.5545 19.6718 20.5654 19.6801 20.5763 19.6894C20.5931 19.7045 20.6091 19.7204 20.6251 19.7363C20.631 19.7422 20.636 19.7497 20.6428 19.7556C20.6755 19.7858 20.6167 19.7078 20.6343 19.7447C20.6411 19.7598 20.6545 19.7833 20.6655 19.7967C20.6898 19.8269 20.6596 19.7539 20.6562 19.7741C20.6554 19.7816 20.6638 19.7992 20.6663 19.8068C20.6873 19.868 20.6713 19.7674 20.668 19.8068C20.668 19.816 20.668 19.8269 20.668 19.8353C20.6713 19.8873 20.6528 19.8135 20.6713 19.8151C20.673 19.8151 20.6562 19.8688 20.6545 19.8747C20.6554 19.8697 20.6848 19.8177 20.6646 19.8512C20.657 19.8629 20.652 19.8764 20.6453 19.8881C20.6318 19.9116 20.5906 19.9577 20.6318 19.9124C20.6125 19.9334 20.594 19.956 20.5738 19.9762C20.5486 20.0013 20.5217 20.024 20.4948 20.0474C20.467 20.0718 20.5267 20.024 20.4956 20.0474C20.4746 20.0634 20.4527 20.0785 20.4309 20.0936C20.3182 20.1699 20.2678 20.3149 20.3401 20.4382C20.4057 20.5497 20.5721 20.6059 20.6856 20.5288L20.6873 20.5263Z" fill="black"/>
<path d="M5.61208 18.5458C4.92686 18.8746 4.24752 19.5655 4.47116 20.2901C4.65865 20.8955 5.36405 21.153 5.9837 21.2913C7.93007 21.7257 9.95296 21.823 11.9321 21.5765C12.7351 21.4767 13.686 21.184 13.8793 20.3999C14.6301 17.3643 7.10865 17.828 5.61124 18.545L5.61208 18.5458Z" fill="white"/>
<path d="M26.1414 18.546C25.4562 18.8747 24.7768 19.5657 25.0005 20.2902C25.1879 20.8957 25.8934 21.1531 26.513 21.2915C28.4594 21.7258 30.4823 21.8231 32.4614 21.5766C33.2644 21.4768 34.2153 21.1841 34.4086 20.4001C35.1594 17.3644 27.6379 17.8281 26.1405 18.5451L26.1414 18.546Z" fill="white"/>
<path d="M15.7303 25.1117C15.8984 26.1943 15.8942 27.3054 15.7194 28.3863C15.6975 28.5214 15.7547 28.6555 15.8959 28.6966C16.0162 28.731 16.1851 28.6547 16.207 28.5205C16.3979 27.3432 16.4012 26.1566 16.2179 24.9775C16.1969 24.8417 16.0279 24.7696 15.9069 24.8014C15.7622 24.8392 15.7093 24.9775 15.7303 25.1117Z" fill="black"/>
<path d="M16.488 26.0573C18.2343 25.5324 20.1285 25.5072 21.8883 25.9869C22.3028 26.1001 22.7887 26.3416 22.7887 26.7701C22.7887 27.2272 22.2456 27.4594 21.7966 27.5525C19.9276 27.9399 17.9821 27.9584 16.1055 27.6079L16.4872 26.0582L16.488 26.0573Z" fill="black"/>
<path d="M16.5539 26.2998C17.625 25.9853 18.7348 25.8494 19.8505 25.9107C20.3954 25.9409 20.9351 26.0172 21.4665 26.1404C21.7709 26.2109 22.6024 26.3576 22.5275 26.8172C22.4578 27.2465 21.6817 27.3228 21.3538 27.3815C20.7914 27.483 20.223 27.5484 19.653 27.5811C18.4877 27.6474 17.3198 27.5736 16.1722 27.3639C15.8544 27.3061 15.7182 27.7916 16.0377 27.8495C17.1248 28.0482 18.2295 28.1379 19.3343 28.0994C19.8657 28.0801 20.3954 28.0314 20.9225 27.9576C21.3892 27.8922 21.8852 27.8369 22.3216 27.6516C23.0043 27.3614 23.3238 26.5782 22.6537 26.0683C22.3174 25.8126 21.8869 25.7161 21.4816 25.6272C20.9847 25.5182 20.4786 25.4478 19.9716 25.4142C18.7752 25.3346 17.5687 25.4763 16.4194 25.8142C16.1083 25.9056 16.2403 26.392 16.5539 26.2998Z" fill="black"/>
<path d="M9.96355 14.5606C9.8223 14.5539 9.65079 14.5631 9.58437 14.6872C9.50786 14.8306 9.63818 14.9958 9.76765 15.0939C10.1208 15.3614 10.5521 15.5241 10.9943 15.5568C10.5487 15.53 10.1023 15.5358 9.65751 15.5736C9.46246 15.5903 9.22116 15.6532 9.18416 15.8453C9.13876 16.0851 9.44816 16.2201 9.68946 16.2629C11.0381 16.5044 12.3942 16.7467 13.7638 16.7694C13.9774 16.7727 14.2565 16.7157 14.2784 16.5044C14.2985 16.3157 14.0867 16.1941 13.9093 16.1254L12.8339 15.7061C13.1627 15.7606 13.4914 15.8151 13.821 15.8696C13.9337 15.888 14.0598 15.904 14.1531 15.8377C14.2767 15.7497 14.2716 15.5518 14.1817 15.4293C14.0909 15.3069 13.9429 15.2432 13.8008 15.1887C12.5901 14.7274 11.2634 14.626 9.96271 14.5614L9.96355 14.5606Z" fill="black"/>
<path d="M8.46237 17.8383C8.21771 17.8576 8.01593 18.011 7.9411 18.2475C7.86627 18.4865 7.95875 18.7448 8.13195 18.9167C8.49937 19.2815 9.14087 19.2404 9.60918 19.1565C9.82694 19.118 10.0539 19.04 10.2002 18.8656C10.3448 18.692 10.3844 18.4647 10.328 18.2475C10.207 17.7788 9.72941 17.5691 9.27792 17.5926C8.80709 17.6169 8.33037 17.7955 7.9411 18.0572C7.73091 18.198 7.51399 18.401 7.61572 18.6794C7.70064 18.9117 7.94866 18.998 8.17315 19.0341C8.44135 19.0769 8.70535 19.0735 8.97272 19.0257C9.193 18.9863 9.43262 18.9125 9.56546 18.7196C9.71007 18.5092 9.65542 18.2333 9.47886 18.0588C9.28044 17.8643 9.00635 17.8534 8.74739 17.8911C8.47414 17.9305 8.13195 18.037 8.12859 18.375C8.12523 18.7255 8.46826 18.7943 8.74319 18.8362C9.27035 18.9159 9.87991 18.8739 10.1817 18.3658C10.2658 18.224 10.1868 18.0404 10.0304 17.9959C9.57471 17.8651 9.02653 17.8157 8.56831 17.9666C8.36821 18.032 8.17231 18.1444 8.06301 18.3305C7.94362 18.5335 7.95287 18.7909 8.07982 18.9888C8.38502 19.466 8.98701 19.4064 9.45952 19.2597C9.68989 19.1876 9.94717 19.1012 10.1372 18.9477C10.3213 18.7993 10.3936 18.5435 10.2524 18.3398C10.1002 18.1201 9.82441 18.0949 9.58143 18.063C9.27876 18.0245 8.97608 17.9859 8.67341 17.9465C8.53804 17.9289 8.42118 18.0748 8.42118 18.198C8.42118 18.349 8.53804 18.4328 8.67341 18.4496C8.8609 18.4739 9.04839 18.4974 9.23588 18.5217C9.40235 18.5427 9.57723 18.5519 9.74118 18.5913C9.75884 18.5955 9.8034 18.6081 9.80592 18.6089C9.78826 18.6014 9.82946 18.6207 9.8261 18.619C9.89588 18.64 9.83703 18.6341 9.83787 18.6249C9.83787 18.6232 9.82442 18.5813 9.82273 18.5779C9.80844 18.5502 9.84375 18.5603 9.81433 18.5603C9.78742 18.5603 9.68737 18.6308 9.65038 18.6475C9.56966 18.6853 9.48727 18.7171 9.40319 18.7456C9.16778 18.8261 8.73394 18.983 8.53552 18.7574C8.51198 18.7297 8.48591 18.6844 8.48255 18.6693C8.47414 18.6291 8.49264 18.588 8.50273 18.5737C8.5599 18.4999 8.66752 18.4563 8.77598 18.4287C9.13751 18.3364 9.54024 18.3775 9.89504 18.4798C9.84459 18.3565 9.79415 18.2333 9.7437 18.11C9.62095 18.3163 9.36704 18.3733 9.13919 18.3708C8.98113 18.3691 8.82474 18.344 8.67004 18.3146C8.65323 18.3113 8.62548 18.302 8.60783 18.3012C8.52795 18.3004 8.63641 18.2266 8.63053 18.3884C8.628 18.4488 8.61623 18.4236 8.6196 18.4287C8.61791 18.4253 8.71965 18.4018 8.72637 18.401C8.82979 18.3809 8.99626 18.3372 9.09631 18.3943C9.09631 18.3943 9.14676 18.4437 9.13919 18.4345C9.18207 18.4957 9.13583 18.4605 9.14171 18.4505C9.16105 18.4169 9.11313 18.458 9.13162 18.4505C8.89285 18.5519 8.59606 18.5846 8.32028 18.5502C8.25554 18.5419 8.18744 18.5318 8.12607 18.5108C8.10589 18.5041 8.09916 18.4907 8.07898 18.489L8.08487 18.4957C8.05544 18.463 8.05712 18.4723 8.09075 18.5226C8.10421 18.5838 8.07814 18.5779 8.13195 18.536C8.19585 18.4857 8.26816 18.4437 8.33794 18.4027C8.58933 18.2567 8.87099 18.1511 9.15937 18.1083C9.26951 18.0924 9.38974 18.0865 9.49988 18.1066C9.61843 18.1284 9.72857 18.1855 9.7807 18.2584C9.83619 18.3347 9.85805 18.3959 9.84543 18.4832C9.85132 18.4412 9.8303 18.5243 9.8303 18.5234C9.84543 18.4915 9.80676 18.5511 9.81937 18.536C9.78994 18.5704 9.75127 18.5939 9.71007 18.6115C9.55789 18.6786 9.36956 18.6928 9.20561 18.7012C9.04166 18.7096 8.87014 18.7121 8.70956 18.6718C8.60446 18.6458 8.48255 18.5955 8.43295 18.4932C8.42874 18.4848 8.41613 18.4345 8.41613 18.4312C8.41445 18.4094 8.42118 18.3926 8.4237 18.3876C8.45649 18.3238 8.41277 18.4001 8.45565 18.3456C8.4506 18.3515 8.49516 18.3398 8.45901 18.3423C8.59521 18.3314 8.71124 18.2341 8.71124 18.0907C8.71124 17.9624 8.59521 17.8282 8.45901 17.8391L8.46237 17.8383Z" fill="black"/>
<path d="M29.9931 14.6653C30.1436 14.6946 30.337 14.802 30.2798 14.9437C30.2478 15.0225 30.1528 15.0519 30.0696 15.0712C29.6198 15.1751 29.1708 15.2783 28.721 15.3823C29.1691 15.4217 29.6164 15.4619 30.0645 15.5014C30.1638 15.5106 30.2705 15.5215 30.3454 15.5869C30.4631 15.6884 30.4505 15.8846 30.3597 16.0104C30.2689 16.1362 30.1217 16.2083 29.9796 16.2712C28.9926 16.7114 27.9307 16.9848 26.8528 17.0762C26.7519 17.0846 26.6334 17.0846 26.5703 17.0066C26.4619 16.8724 26.6191 16.6879 26.7637 16.5949C27.1008 16.3768 27.4582 16.1898 27.8298 16.038C27.2665 16.0498 26.704 16.0615 26.1407 16.0741C25.9465 16.0783 25.7455 16.0808 25.5673 16.0037C25.389 15.9257 25.2419 15.7437 25.2688 15.5525C25.3411 15.0485 26.1541 15.0913 26.5115 15.02C27.105 14.9009 27.7028 14.7969 28.2914 14.6544C28.9001 14.5068 29.3718 14.5462 29.9922 14.6653H29.9931Z" fill="black"/>
<path d="M28.5868 17.9511C28.2379 17.957 27.8688 17.9797 27.5846 18.2044C27.35 18.3897 27.202 18.7344 27.3004 19.0287C27.4265 19.4069 27.8192 19.5 28.174 19.5293C28.5372 19.5595 28.9138 19.5143 29.2602 19.401C29.5747 19.2979 29.9354 19.1377 30.0875 18.8224C30.2422 18.5021 30.1649 18.0878 29.821 17.9293C29.5074 17.7843 29.0896 17.8413 28.7667 17.9243C28.591 17.9696 28.4186 18.0375 28.258 18.1205C28.1008 18.2019 27.936 18.3092 27.8881 18.4912C27.7569 18.9876 28.4447 19.0723 28.776 19.079C29.1677 19.0874 29.578 18.8971 29.689 18.4954C29.7277 18.357 29.6411 18.2312 29.5125 18.1851C29.0879 18.0342 28.6053 18.0895 28.2202 18.3201C28.0697 18.4098 28.0663 18.591 28.1689 18.7159C28.3161 18.8954 28.607 18.9314 28.7961 18.7989C28.908 18.721 28.9601 18.5784 28.8869 18.4543C28.8222 18.3444 28.6532 18.2857 28.5414 18.3637C28.485 18.4031 28.5414 18.3595 28.5523 18.3797C28.522 18.3721 28.5162 18.3704 28.5355 18.3755C28.5506 18.3864 28.5481 18.3805 28.5262 18.3587C28.5094 18.4904 28.4918 18.6228 28.475 18.7545C28.7533 18.5876 29.0727 18.5625 29.3779 18.6698C29.3191 18.5667 29.2602 18.4635 29.2014 18.3595C29.1627 18.4987 28.9979 18.5675 28.8365 18.5725C28.7205 18.5759 28.607 18.5608 28.4926 18.5407C28.4531 18.534 28.39 18.5071 28.3522 18.5088C28.3194 18.5105 28.3505 18.4954 28.3522 18.513C28.353 18.5231 28.4338 18.6681 28.3615 18.6455C28.3657 18.6472 28.4346 18.5952 28.4438 18.5901C28.4993 18.5583 28.5565 18.5289 28.6154 18.5038C28.7188 18.4593 28.8272 18.4258 28.9374 18.3989C29.1257 18.3537 29.3721 18.3101 29.5612 18.3662C29.7008 18.4082 29.689 18.5398 29.6024 18.648C29.483 18.7973 29.2628 18.8711 29.0862 18.9256C28.8483 18.9994 28.6044 19.0354 28.3547 19.0321C28.2017 19.0304 27.9192 19.0388 27.8057 18.9189C27.8007 18.9138 27.7813 18.8811 27.7771 18.8711C27.7914 18.8996 27.7771 18.8249 27.7771 18.8635C27.7771 18.809 27.7712 18.8157 27.7881 18.7604C27.8074 18.6941 27.8578 18.6212 27.9175 18.5784C28.0949 18.4493 28.3715 18.456 28.5876 18.4526C28.9122 18.4476 28.913 17.9436 28.5876 17.9486L28.5868 17.9511Z" fill="black"/>
</g>
</svg>
