<svg width="30" height="30" viewBox="0 0 30 30" fill="none" xmlns="http://www.w3.org/2000/svg">
<rect width="30" height="30" rx="15" fill="#1E1C1F"/>
<path d="M19 12.3333C20.1046 12.3333 21 11.4379 21 10.3333C21 9.22876 20.1046 8.33333 19 8.33333C17.8954 8.33333 17 9.22876 17 10.3333C17 11.4379 17.8954 12.3333 19 12.3333Z" stroke="white" stroke-width="1.33333" stroke-linecap="round" stroke-linejoin="round"/>
<path d="M11 17C12.1046 17 13 16.1046 13 15C13 13.8954 12.1046 13 11 13C9.89543 13 9 13.8954 9 15C9 16.1046 9.89543 17 11 17Z" stroke="white" stroke-width="1.33333" stroke-linecap="round" stroke-linejoin="round"/>
<path d="M19 21.6667C20.1046 21.6667 21 20.7712 21 19.6667C21 18.5621 20.1046 17.6667 19 17.6667C17.8954 17.6667 17 18.5621 17 19.6667C17 20.7712 17.8954 21.6667 19 21.6667Z" stroke="white" stroke-width="1.33333" stroke-linecap="round" stroke-linejoin="round"/>
<path d="M12.7266 16.0065L17.2799 18.6598" stroke="white" stroke-width="1.33333" stroke-linecap="round" stroke-linejoin="round"/>
<path d="M17.2732 11.3398L12.7266 13.9932" stroke="white" stroke-width="1.33333" stroke-linecap="round" stroke-linejoin="round"/>
</svg>
