<svg width="20" height="20" viewBox="0 0 20 20" fill="none" xmlns="http://www.w3.org/2000/svg">
<path fill-rule="evenodd" clip-rule="evenodd" d="M1.66675 4.99984C1.66675 4.5396 2.03984 4.1665 2.50008 4.1665H17.5001C17.9603 4.1665 18.3334 4.5396 18.3334 4.99984C18.3334 5.46007 17.9603 5.83317 17.5001 5.83317H2.50008C2.03984 5.83317 1.66675 5.46007 1.66675 4.99984Z" fill="#FF006E"/>
<path fill-rule="evenodd" clip-rule="evenodd" d="M8.33325 2.50016C8.11224 2.50016 7.90028 2.58796 7.744 2.74424C7.58772 2.90052 7.49992 3.11248 7.49992 3.3335V5.00016C7.49992 5.4604 7.12682 5.8335 6.66659 5.8335C6.20635 5.8335 5.83325 5.4604 5.83325 5.00016V3.3335C5.83325 2.67045 6.09664 2.03457 6.56549 1.56573C7.03433 1.09689 7.67021 0.833496 8.33325 0.833496H11.6666C12.3296 0.833496 12.9655 1.09689 13.4344 1.56573C13.9032 2.03457 14.1666 2.67045 14.1666 3.3335V5.00016C14.1666 5.4604 13.7935 5.8335 13.3333 5.8335C12.873 5.8335 12.4999 5.4604 12.4999 5.00016V3.3335C12.4999 3.11248 12.4121 2.90052 12.2558 2.74424C12.0996 2.58796 11.8876 2.50016 11.6666 2.50016H8.33325ZM4.16659 4.16683C4.62682 4.16683 4.99992 4.53993 4.99992 5.00016V16.6668C4.99992 16.8878 5.08772 17.0998 5.244 17.2561C5.40028 17.4124 5.61224 17.5002 5.83325 17.5002H14.1666C14.3876 17.5002 14.5996 17.4124 14.7558 17.2561C14.9121 17.0998 14.9999 16.8878 14.9999 16.6668V5.00016C14.9999 4.53993 15.373 4.16683 15.8333 4.16683C16.2935 4.16683 16.6666 4.53993 16.6666 5.00016V16.6668C16.6666 17.3299 16.4032 17.9658 15.9344 18.4346C15.4655 18.9034 14.8296 19.1668 14.1666 19.1668H5.83325C5.17021 19.1668 4.53433 18.9034 4.06548 18.4346C3.59664 17.9658 3.33325 17.3299 3.33325 16.6668V5.00016C3.33325 4.53993 3.70635 4.16683 4.16659 4.16683Z" fill="#FF006E"/>
<path fill-rule="evenodd" clip-rule="evenodd" d="M8.33333 8.3335C8.79357 8.3335 9.16667 8.70659 9.16667 9.16683V14.1668C9.16667 14.6271 8.79357 15.0002 8.33333 15.0002C7.8731 15.0002 7.5 14.6271 7.5 14.1668V9.16683C7.5 8.70659 7.8731 8.3335 8.33333 8.3335Z" fill="#FF006E"/>
<path fill-rule="evenodd" clip-rule="evenodd" d="M11.6666 8.3335C12.1268 8.3335 12.4999 8.70659 12.4999 9.16683V14.1668C12.4999 14.6271 12.1268 15.0002 11.6666 15.0002C11.2063 15.0002 10.8333 14.6271 10.8333 14.1668V9.16683C10.8333 8.70659 11.2063 8.3335 11.6666 8.3335Z" fill="#FF006E"/>
</svg>
