<svg width="48" height="48" viewBox="0 0 48 48" fill="none" xmlns="http://www.w3.org/2000/svg">
<circle cx="24" cy="24" r="24" fill="#6BABE9"/>
<path d="M35.1645 16.8793C34.3503 17.2399 33.4746 17.4805 32.5509 17.5944C33.49 17.0369 34.2125 16.1476 34.5516 15.0972C33.6728 15.6122 32.6993 15.9907 31.6636 16.1901C30.8365 15.3132 29.6568 14.7692 28.3497 14.7692C25.8389 14.7692 23.8039 16.7864 23.8039 19.2738C23.8039 19.6258 23.8451 19.9685 23.9226 20.3015C20.1454 20.1119 16.7953 18.3162 14.554 15.5913C14.1602 16.2572 13.9386 17.0369 13.9386 17.8596C13.9386 19.4233 14.7393 20.7999 15.9602 21.611C15.2149 21.5882 14.5134 21.3809 13.8993 21.0486C13.8993 21.0621 13.8993 21.0824 13.8993 21.1015C13.8993 23.2867 15.4666 25.1064 17.5442 25.5206C17.1645 25.6246 16.7633 25.6824 16.3497 25.6824C16.0562 25.6824 15.77 25.6492 15.4931 25.5993C16.0716 27.3852 17.7497 28.6904 19.738 28.7292C18.1823 29.9353 16.2229 30.6578 14.0925 30.6578C13.7245 30.6578 13.3645 30.6369 13.0088 30.5938C15.0217 31.8682 17.4119 32.6153 19.9774 32.6153C28.3374 32.6153 32.9109 25.7501 32.9109 19.7944C32.9109 19.5993 32.9048 19.4049 32.8956 19.2129C33.7879 18.5827 34.5571 17.7876 35.1645 16.8793Z" fill="white"/>
</svg>
