<svg width="11" height="11" viewBox="0 0 11 11" fill="none" xmlns="http://www.w3.org/2000/svg">
<path d="M0.234863 8.93989C-0.0761719 9.25092 -0.0825195 9.80317 0.241211 10.1269C0.571289 10.4506 1.12354 10.4443 1.42822 10.1396L5.18604 6.38178L8.9375 10.1332C9.25488 10.4506 9.80078 10.4506 10.1245 10.1269C10.4482 9.79682 10.4482 9.25727 10.1309 8.93989L6.37939 5.18842L10.1309 1.43061C10.4482 1.11323 10.4546 0.567328 10.1245 0.243597C9.80078 -0.0801333 9.25488 -0.0801333 8.9375 0.23725L5.18604 3.98871L1.42822 0.23725C1.12354 -0.0737856 0.564941 -0.0864809 0.241211 0.243597C-0.0825195 0.567328 -0.0761719 1.12592 0.234863 1.43061L3.98633 5.18842L0.234863 8.93989Z" fill="#EBEBF5" fill-opacity="0.6"/>
</svg>
