<svg width="32" height="33" viewBox="0 0 32 33" fill="none" xmlns="http://www.w3.org/2000/svg">
<g clip-path="url(#clip0_1553_133836)">
<path d="M25.8782 32.3273C25.6889 32.3273 25.4989 32.2562 25.3524 32.1139L24.1962 30.9878H14.6464C14.4136 30.9878 13.9808 30.9878 10.3382 28.4679C10.293 28.4369 10.2511 28.4001 10.2135 28.3599L7.56458 25.4967C7.50765 25.4347 7.46076 25.3636 7.42728 25.2866L5.91866 21.8289C5.76629 21.4807 5.89773 21.0738 6.22423 20.8796C9.42733 18.9783 11.2198 21.4849 12.1348 22.9223L14.2512 23.7319C14.6397 23.8809 14.8339 24.3162 14.6857 24.7047C14.5367 25.0932 14.1014 25.2882 13.7129 25.1392L11.3629 24.2401C11.2105 24.1815 11.0816 24.076 10.9946 23.9378C9.85932 22.1337 9.00371 21.3116 7.58467 21.8783L8.75757 24.5666L11.2633 27.2749C12.6388 28.2243 14.2956 29.2942 14.7402 29.48H24.5026C24.6994 29.48 24.8878 29.5571 25.0284 29.6935L26.4039 31.033C26.702 31.3235 26.7087 31.8007 26.4181 32.0988C26.2708 32.2503 26.0741 32.3265 25.8782 32.3265V32.3273Z" fill="white"/>
<path d="M22.0142 26.9693H15.9864C14.173 26.9693 13.2236 25.7478 13.2236 24.5414C13.2236 23.3351 14.173 22.1136 15.9864 22.1136H19.9471C20.0702 22.0567 20.3373 21.8524 20.5181 21.7142C21.0932 21.2739 21.7454 20.7741 22.4939 20.7741H25.8426C26.977 20.7741 28.2713 21.6046 29.0348 22.3153C29.0415 22.3212 29.0474 22.3279 29.0541 22.3338C30.0386 23.3183 31.7473 24.9358 31.7641 24.9517C32.0663 25.238 32.0797 25.7144 31.7934 26.0166C31.5071 26.3188 31.0307 26.3322 30.7285 26.0459C30.7109 26.03 28.9997 24.4092 27.9984 23.4087C27.3914 22.8461 26.4588 22.2802 25.8426 22.2802H22.4939C22.2561 22.2802 21.7421 22.6737 21.4348 22.9098C20.9375 23.2907 20.5072 23.6197 20.0049 23.6197H15.9864C15.361 23.6197 14.7306 23.9043 14.7306 24.5406C14.7306 25.1769 15.361 25.4615 15.9864 25.4615H22.0142C22.4302 25.4615 22.7676 25.7989 22.7676 26.215C22.7676 26.6311 22.4302 26.9685 22.0142 26.9685V26.9693Z" fill="white"/>
<path d="M15.522 16.9741C15.1612 16.9741 14.797 16.9054 14.4814 16.7648C14.2444 16.6593 12.5307 16.0741 11.0187 15.5584C10.107 15.2469 9.16437 14.9255 8.37992 14.6534C6.96171 14.1611 5.75951 13.2435 4.90306 11.9995C3.75443 10.3309 2.40237 8.11323 1.95279 7.36813L0.545473 6.96376C0.145295 6.84907 -0.0857701 6.43131 0.0297624 6.03113C0.144458 5.63095 0.562217 5.39989 0.962395 5.51542L2.65436 6.00183C2.83854 6.05457 2.9951 6.17513 3.09305 6.34005C3.10979 6.36768 4.77915 9.16139 6.14462 11.1455C6.81772 12.1234 7.76123 12.8442 8.87386 13.2301C9.65496 13.5014 10.596 13.822 11.506 14.1326C13.5462 14.8292 14.8112 15.262 15.095 15.3884C15.4014 15.5249 15.8385 15.4654 15.9707 15.3759C15.9657 14.8451 15.5731 13.9242 14.9753 13.3574C14.8439 13.2327 14.3524 13.0543 13.9565 12.9103C13.0364 12.5755 11.8919 12.1594 11.1686 11.2627C10.6362 10.6022 10.7065 9.45106 10.7257 9.22669C10.7475 8.97888 10.8898 8.75787 11.1058 8.63647L13.3746 7.35557C13.4232 7.32794 13.4742 7.30617 13.5278 7.29027L14.1833 7.09269C14.3374 7.04664 14.5015 7.05083 14.653 7.10441L17.2952 8.04458C17.4182 8.08811 17.5279 8.16346 17.6133 8.26308L19.5179 10.4758C19.6879 10.6725 19.744 10.9429 19.6661 11.1916C19.6644 11.1966 19.507 11.7073 19.3195 12.5713C19.2316 12.9782 18.8306 13.236 18.4237 13.1481C18.0168 13.0602 17.759 12.6592 17.8469 12.2523C17.949 11.7826 18.042 11.4101 18.1114 11.1522L16.6011 9.39748L14.3801 8.60717L14.041 8.70931L12.2218 9.73654C12.236 9.99775 12.2812 10.2397 12.3398 10.3184C12.7995 10.8885 13.686 11.2108 14.4688 11.4955C15.1034 11.7265 15.6509 11.9258 16.0101 12.2657C16.8841 13.0954 17.4995 14.4357 17.4735 15.4529C17.4609 15.9468 17.2115 16.3721 16.7728 16.6492C16.4304 16.8652 15.9774 16.9766 15.5203 16.9766L15.522 16.9741Z" fill="white"/>
<path d="M21.1141 16.1436C21.0338 16.1436 20.9517 16.1302 20.8714 16.1034C20.477 15.9695 20.2669 15.5416 20.4009 15.1473L22.0719 10.2355L19.1158 5.41413C18.6654 4.77535 18.0057 4.30987 17.2555 4.10225C13.1985 2.97874 7.57591 1.49691 7.51982 1.48184C7.11713 1.37551 6.87686 0.963616 6.98318 0.560926C7.0895 0.158237 7.5014 -0.0820374 7.90409 0.024286C7.96018 0.0393554 13.592 1.5237 17.6574 2.64972C18.7516 2.95278 19.7135 3.63426 20.364 4.5694C20.3724 4.58112 20.3808 4.59368 20.3883 4.60624L23.542 9.74911C23.6592 9.93999 23.6852 10.1736 23.6132 10.3854L21.8283 15.6321C21.7219 15.9452 21.4289 16.1427 21.115 16.1427L21.1141 16.1436Z" fill="white"/>
<path d="M17.1714 20.9415C14.5401 20.9415 12.3994 18.8008 12.3994 16.1695C12.3994 15.9075 12.4212 15.6446 12.463 15.3884C12.5309 14.9782 12.9185 14.6994 13.3287 14.7672C13.7389 14.835 14.0169 15.2227 13.9499 15.6329C13.9206 15.8087 13.9064 15.9887 13.9064 16.1687C13.9064 17.9687 15.3714 19.4337 17.1714 19.4337C18.9714 19.4337 20.4365 17.9687 20.4365 16.1687C20.4365 14.3687 18.9714 12.9036 17.1714 12.9036C16.6264 12.9036 16.0872 13.0401 15.6126 13.2988C15.2475 13.4981 14.7896 13.3633 14.5903 12.9974C14.3911 12.6316 14.5259 12.1744 14.8917 11.9752C15.5874 11.5968 16.3752 11.3967 17.1714 11.3967C19.8027 11.3967 21.9434 13.5374 21.9434 16.1687C21.9434 18.8 19.8027 20.9407 17.1714 20.9407V20.9415Z" fill="white"/>
</g>
<defs>
<clipPath id="clip0_1553_133836">
<rect width="32" height="32.3273" fill="white"/>
</clipPath>
</defs>
</svg>
