<svg width="639" height="522" viewBox="0 0 639 522" fill="none" xmlns="http://www.w3.org/2000/svg">
<g id="No Results">
<g id="circle">
<path id="Stroke 1" d="M21.6724 239.519V244.935" stroke="#393739" stroke-width="1.75794" stroke-linecap="round"/>
<g id="Group 8">
<path id="Stroke 2" d="M9.50684 242.453L13.9329 247.009" stroke="#393739" stroke-width="1.75794" stroke-linecap="round"/>
<path id="Stroke 4" d="M4.33301 254.582H10.5913" stroke="#393739" stroke-width="1.75794" stroke-linecap="round"/>
<path id="Stroke 6" d="M9.00146 266.926L13.4275 262.37" stroke="#393739" stroke-width="1.75794" stroke-linecap="round"/>
</g>
<path id="Stroke 9" d="M21.6724 268.406V262.99" stroke="#393739" stroke-width="1.75794" stroke-linecap="round"/>
<path id="Stroke 10" d="M30.6996 264.796L27.0886 261.185" stroke="#393739" stroke-width="1.75794" stroke-linecap="round"/>
<path id="Stroke 11" d="M37.9213 255.768H32.5049" stroke="#393739" stroke-width="1.75794" stroke-linecap="round"/>
<path id="Stroke 12" d="M34.3104 243.13L30.6995 246.741" stroke="#393739" stroke-width="1.75794" stroke-linecap="round"/>
<path id="Stroke 13" d="M312.356 3V6.61098" stroke="#393739" stroke-width="1.75794" stroke-linecap="round"/>
<path id="Stroke 15" d="M301.523 13.8325H305.134" stroke="#393739" stroke-width="1.75794" stroke-linecap="round"/>
<path id="Stroke 16" d="M312.356 24.6659V21.0549" stroke="#393739" stroke-width="1.75794" stroke-linecap="round"/>
<path id="Stroke 17" d="M321.383 13.8325H317.772" stroke="#393739" stroke-width="1.75794" stroke-linecap="round"/>
<path id="Stroke 18" d="M102.923 154.661V160.078" stroke="#393739" stroke-width="1.75794" stroke-linecap="round"/>
<path id="Stroke 19" d="M86.6711 170.911H92.0876" stroke="#393739" stroke-width="1.75794" stroke-linecap="round"/>
<path id="Stroke 20" d="M102.923 185.354V179.938" stroke="#393739" stroke-width="1.75794" stroke-linecap="round"/>
<path id="Stroke 21" d="M117.366 170.911H111.95" stroke="#393739" stroke-width="1.75794" stroke-linecap="round"/>
<g id="Group 42">
<path id="Stroke 22" d="M491.559 351.53C495.874 351.53 499.373 355.03 499.373 359.346C499.373 363.663 495.874 367.162 491.559 367.162C487.244 367.162 483.745 363.663 483.745 359.346" stroke="#393739" stroke-width="1.75794" stroke-linecap="round"/>
<path id="Fill 26" fill-rule="evenodd" clip-rule="evenodd" d="M527.325 280.618C531.964 279.171 539.077 273.496 540.723 267.391C542.216 272.788 548.474 279.171 554.121 279.654C547.764 281.904 541.687 288.59 540.723 293.843C540.067 288.489 531.661 281.398 527.325 280.618Z" fill="#393739"/>
<path id="Fill 28" fill-rule="evenodd" clip-rule="evenodd" d="M51.0564 349.122C53.377 348.398 56.9316 345.562 57.7547 342.509C58.5011 345.206 61.6295 348.398 64.4529 348.64C61.2755 349.764 58.2375 353.108 57.7547 355.734C57.4266 353.057 53.2238 349.511 51.0564 349.122Z" fill="#393739"/>
<path id="Fill 30" fill-rule="evenodd" clip-rule="evenodd" d="M94.1223 97.9635C94.1223 101.312 91.4093 104.024 88.0632 104.024C84.7156 104.024 82.0042 101.312 82.0042 97.9635C82.0042 94.6166 84.7156 91.9028 88.0632 91.9028C91.4093 91.9028 94.1223 94.6166 94.1223 97.9635Z" fill="#393739"/>
<path id="Fill 32" fill-rule="evenodd" clip-rule="evenodd" d="M498.721 114.237C498.721 119.832 494.185 124.367 488.593 124.367C482.999 124.367 478.465 119.832 478.465 114.237C478.465 108.642 482.999 104.107 488.593 104.107C494.185 104.107 498.721 108.642 498.721 114.237Z" fill="#393739"/>
<path id="Fill 34" fill-rule="evenodd" clip-rule="evenodd" d="M639 86.792C639 91.2306 635.404 94.8274 630.968 94.8274C626.531 94.8274 622.935 91.2306 622.935 86.792C622.935 82.3534 626.531 78.7566 630.968 78.7566C635.404 78.7566 639 82.3534 639 86.792Z" fill="#393739"/>
<path id="Stroke 36" fill-rule="evenodd" clip-rule="evenodd" d="M207.359 462.077C207.359 464.875 205.092 467.143 202.294 467.143C199.499 467.143 197.232 464.875 197.232 462.077C197.232 459.279 199.499 457.011 202.294 457.011C205.092 457.011 207.359 459.279 207.359 462.077Z" stroke="#393739" stroke-width="1.75794" stroke-linecap="round"/>
<path id="Stroke 38" fill-rule="evenodd" clip-rule="evenodd" d="M204.347 59.0272C204.347 62.3757 201.634 65.0879 198.288 65.0879C194.942 65.0879 192.229 62.3757 192.229 59.0272C192.229 55.6803 194.942 52.9666 198.288 52.9666C201.634 52.9666 204.347 55.6803 204.347 59.0272Z" stroke="#393739" stroke-width="1.75794" stroke-linecap="round"/>
<path id="Stroke 40" fill-rule="evenodd" clip-rule="evenodd" d="M358.903 518.171C355.031 519.644 350.698 517.699 349.225 513.827C347.752 509.954 349.695 505.619 353.569 504.147C357.439 502.673 361.772 504.617 363.245 508.49C364.72 512.363 362.775 516.697 358.903 518.171Z" stroke="#393739" stroke-width="1.75794" stroke-linecap="round"/>
</g>
</g>
<g id="search">
<g id="documents">
<path id="Fill 1" fill-rule="evenodd" clip-rule="evenodd" d="M356.591 374.93H208.533C198.112 374.93 189.582 366.375 189.582 355.919V144.78C189.582 134.324 198.112 125.773 208.533 125.773H356.591C367.017 125.773 375.547 134.324 375.547 144.78V355.919C375.547 366.375 367.017 374.93 356.591 374.93Z" fill="#1F1D20"/>
<path id="Fill 3" fill-rule="evenodd" clip-rule="evenodd" d="M343.953 383.957H195.895C185.474 383.957 176.944 375.402 176.944 364.946V153.807C176.944 143.351 185.474 134.8 195.895 134.8H343.953C354.379 134.8 362.909 143.351 362.909 153.807V364.946C362.909 375.402 354.379 383.957 343.953 383.957Z" fill="#333335"/>
<path id="Fill 5" fill-rule="evenodd" clip-rule="evenodd" d="M331.661 391.084H183.296C172.854 391.084 164.306 382.564 164.306 372.151V161.887C164.306 151.474 172.854 142.958 183.296 142.958H331.661C342.107 142.958 350.655 151.474 350.655 161.887V372.151C350.655 382.564 342.107 391.084 331.661 391.084Z" fill="#D8DBEA"/>
<path id="Fill 8" fill-rule="evenodd" clip-rule="evenodd" d="M331.661 391.084H183.296C172.854 391.084 164.306 382.564 164.306 372.151V161.887C164.306 151.474 172.854 142.958 183.296 142.958H331.661C342.107 142.958 350.655 151.474 350.655 161.887V372.151C350.655 382.564 342.107 391.084 331.661 391.084Z" fill="#393739"/>
<path id="Fill 11" fill-rule="evenodd" clip-rule="evenodd" d="M310.278 207.02H200.693C197.563 207.02 195.001 204.583 195.001 201.606C195.001 198.624 197.563 196.187 200.693 196.187H310.278C313.407 196.187 315.969 198.624 315.969 201.606C315.969 204.583 313.407 207.02 310.278 207.02Z" fill="#5A585A"/>
<path id="Fill 13" fill-rule="evenodd" clip-rule="evenodd" d="M310.278 239.518H200.693C197.563 239.518 195.001 237.081 195.001 234.104C195.001 231.123 197.563 228.686 200.693 228.686H310.278C313.407 228.686 315.969 231.123 315.969 234.104C315.969 237.081 313.407 239.518 310.278 239.518Z" fill="#5A585A"/>
<path id="Fill 15" fill-rule="evenodd" clip-rule="evenodd" d="M310.278 272.017H200.693C197.563 272.017 195.001 269.58 195.001 266.603C195.001 263.626 197.563 261.185 200.693 261.185H310.278C313.407 261.185 315.969 263.626 315.969 266.603C315.969 269.58 313.407 272.017 310.278 272.017Z" fill="#5A585A"/>
<path id="Fill 17" fill-rule="evenodd" clip-rule="evenodd" d="M310.278 304.517H200.693C197.563 304.517 195.001 302.079 195.001 299.102C195.001 296.121 197.563 293.684 200.693 293.684H310.278C313.407 293.684 315.969 296.121 315.969 299.102C315.969 302.079 313.407 304.517 310.278 304.517Z" fill="#5A585A"/>
<path id="Fill 19" fill-rule="evenodd" clip-rule="evenodd" d="M257.894 337.015H200.717C197.574 337.015 195.001 334.578 195.001 331.6C195.001 328.619 197.574 326.182 200.717 326.182H257.894C261.037 326.182 263.61 328.619 263.61 331.6C263.61 334.578 261.037 337.015 257.894 337.015Z" fill="#5A585A"/>
</g>
<g id="search_2">
<path id="Fill 21" fill-rule="evenodd" clip-rule="evenodd" d="M373.301 295.014C351.388 316.923 317.465 319.395 292.837 302.479C289.689 300.279 286.694 297.807 283.9 295.014C282.462 293.581 281.106 292.102 279.829 290.544C277.274 287.434 275.036 284.117 273.203 280.69C269.973 274.902 267.777 268.759 266.577 262.41C262.709 242.5 268.493 221.069 283.9 205.669C299.343 190.224 320.778 184.477 340.692 188.309C347.037 189.544 353.185 191.74 358.975 194.933C362.407 196.808 365.678 199.045 368.794 201.599C370.347 202.872 371.826 204.232 373.26 205.669C376.058 208.463 378.567 211.453 380.726 214.605C397.649 239.224 395.172 273.147 373.301 295.014Z" fill="white" fill-opacity="0.1"/>
<path id="Fill 23" fill-rule="evenodd" clip-rule="evenodd" d="M367.171 290.699C344.374 313.5 307.429 313.496 284.628 290.699C261.856 267.927 261.856 230.978 284.658 208.181C307.429 185.409 344.374 185.409 367.146 208.181C389.943 230.978 389.943 267.927 367.171 290.699ZM378.873 196.468C349.611 167.206 302.192 167.206 272.93 196.468C243.672 225.726 243.647 273.174 272.905 302.436C299.537 329.06 341.279 331.461 370.639 309.601C373.506 307.463 376.268 305.066 378.902 302.436C381.533 299.802 383.929 297.04 386.063 294.173C407.923 264.809 405.501 223.096 378.873 196.468Z" fill="#5A585A"/>
<path id="Fill 25" fill-rule="evenodd" clip-rule="evenodd" d="M494.032 412.741L492.803 413.969C484.676 422.101 471.367 422.101 463.235 413.969L388.19 338.924L418.987 308.128L494.032 383.172C502.163 391.304 502.163 404.609 494.032 412.741Z" fill="#FF006E"/>
<path id="Fill 27" fill-rule="evenodd" clip-rule="evenodd" d="M387.681 291.878L409.857 314.054L394.113 329.793L371.941 307.617C374.868 305.436 377.681 302.99 380.374 300.306C383.058 297.622 385.503 294.804 387.681 291.878Z" fill="#5A585A"/>
<path id="Fill 29" fill-rule="evenodd" clip-rule="evenodd" d="M492.906 382.249L462.305 412.846L456.796 407.332L487.393 376.736L492.906 382.249Z" fill="#FF86A0"/>
<path id="Fill 31" fill-rule="evenodd" clip-rule="evenodd" d="M420.689 309.187L389.25 340.627L384.579 335.956L416.018 304.517L420.689 309.187Z" fill="#FF86A0"/>
<path id="Fill 33" fill-rule="evenodd" clip-rule="evenodd" d="M352.078 200.337L274.977 277.434C272.073 272.23 270.099 266.708 269.025 261.001L335.643 194.382C341.347 195.497 346.873 197.467 352.078 200.337Z" fill="white" fill-opacity="0.2"/>
<path id="Fill 35" fill-rule="evenodd" clip-rule="evenodd" d="M377.354 218.663L294 297.295C291.015 295.33 288.173 293.118 285.524 290.619C284.16 289.332 282.87 288.012 281.663 286.619L366.033 207.021C367.51 208.163 368.913 209.38 370.273 210.667C372.922 213.167 375.306 215.843 377.354 218.663Z" fill="white" fill-opacity="0.2"/>
</g>
</g>
</g>
</svg>
