<svg width="555" height="513" viewBox="0 0 555 513" fill="none" xmlns="http://www.w3.org/2000/svg">
<g id="Wallet is Empty">
<path id="Fill 1" fill-rule="evenodd" clip-rule="evenodd" d="M373.426 492.255C373.426 495.892 326.622 498.841 268.885 498.841C211.148 498.841 164.341 495.892 164.341 492.255C164.341 488.62 211.148 485.67 268.885 485.67C326.622 485.67 373.426 488.62 373.426 492.255Z" fill="#1E1C1F"/>
<path id="Stroke 3" d="M255.678 69.1465C198.648 73.9742 177.688 122.246 194.859 150.384C206.975 170.237 227.507 197.068 265.779 190.632C304.05 184.195 307.274 148.776 287.119 143.958C266.963 139.142 195.159 161.611 203.274 213.52C209.132 250.973 259.906 261.768 259.906 261.768" stroke="#393739" stroke-width="1.13427" stroke-dasharray="3.97"/>
<path id="Fill 5" fill-rule="evenodd" clip-rule="evenodd" d="M288.642 39.5122C288.642 39.5122 296.814 18.165 297.675 9.86076C298.128 5.52153 290.938 -6.55985 282.522 4.61543C274.106 15.7907 277.945 29.493 288.642 39.5122Z" fill="#393739"/>
<path id="Fill 7" fill-rule="evenodd" clip-rule="evenodd" d="M259.644 16.2635C250.071 13.026 245.737 15.5502 243.891 20.5885C242.042 25.6285 244.622 35.2218 259.061 37.4086C273.502 39.5955 287.817 39.5116 287.817 39.5116C287.817 39.5116 269.217 19.501 259.644 16.2635Z" fill="#393739"/>
<path id="Fill 9" fill-rule="evenodd" clip-rule="evenodd" d="M287.021 43.7419C287.238 42.8495 287.525 41.9943 287.845 41.1584C286.078 41.4376 284.28 41.8297 282.47 42.3606C280.506 42.9351 278.674 43.6886 276.95 44.5519C276.202 45.9655 275.596 47.4759 275.203 49.0976C272.777 59.0812 278.504 69.1439 288.126 72.4389C289.169 72.2324 290.216 71.9936 291.264 71.687C294.195 70.8285 296.898 69.6925 299.342 68.3758C289.944 64.2529 284.536 53.9643 287.021 43.7419Z" fill="#393739"/>
<path id="Fill 11" fill-rule="evenodd" clip-rule="evenodd" d="M273.283 48.9481C273.513 47.9618 273.825 47.0187 274.17 46.0972C265.845 51.4304 261.184 59.7075 261.952 64.5343C256.633 66.8207 253.244 68.7468 253.244 68.7468C253.244 68.7468 257.258 68.4413 263.107 67.3172C266.239 71.8949 274.923 74.96 284.525 73.8608C275.827 69.3628 270.917 59.1264 273.283 48.9481Z" fill="#393739"/>
<path id="Fill 13" fill-rule="evenodd" clip-rule="evenodd" d="M300.591 52.799C298.533 52.3033 297.258 50.2284 297.753 48.1502C298.247 46.0864 300.327 44.8074 302.383 45.3031C304.45 45.802 305.713 47.8849 305.221 49.9503C304.724 52.0269 302.66 53.2963 300.591 52.799ZM290.978 41.3684C290.569 42.321 290.22 43.3258 289.971 44.3666C287.789 53.491 292.83 62.6693 301.379 65.8528C308.513 61.3953 312.519 55.0835 310.893 49.6032C309.087 43.4559 300.779 40.2814 290.978 41.3684Z" fill="#393739"/>
<path id="Fill 15" fill-rule="evenodd" clip-rule="evenodd" d="M170.523 426.402H375.539C380.736 426.402 384.952 422.177 384.952 416.966V279.457C384.952 274.234 380.726 270 375.517 270H165.549C163.063 270 161.049 272.019 161.049 274.51V416.905C161.049 422.15 165.29 426.402 170.523 426.402Z" fill="#1E1C1F"/>
<path id="Fill 17" fill-rule="evenodd" clip-rule="evenodd" d="M170.397 424.756H195.275C195.466 424.756 195.622 424.6 195.622 424.408V250.591C195.622 250.399 195.466 250.244 195.275 250.244H170.397C165.233 250.244 161.049 254.415 161.049 259.564V415.436C161.049 420.583 165.233 424.756 170.397 424.756Z" fill="#393739"/>
<path id="Fill 19" fill-rule="evenodd" clip-rule="evenodd" d="M333.402 367.134H397.776C397.966 367.134 398.122 366.976 398.122 366.782V327.974C398.122 327.779 397.966 327.622 397.776 327.622H333.402C328.231 327.622 324.037 331.867 324.037 337.1V357.655C324.037 362.891 328.231 367.134 333.402 367.134Z" fill="#FF006E"/>
<path id="Fill 21" fill-rule="evenodd" clip-rule="evenodd" d="M347.57 250.244H170.623V250.267C165.318 250.395 161.049 254.746 161.049 260.123C161.049 265.499 165.318 269.85 170.623 269.978V270H358.261C358.454 270 358.61 269.844 358.61 269.649V261.366C358.61 255.223 353.666 250.244 347.57 250.244Z" fill="#393739"/>
<path id="Fill 23" fill-rule="evenodd" clip-rule="evenodd" d="M355.318 347.378C355.318 351.925 351.633 355.61 347.086 355.61C342.539 355.61 338.854 351.925 338.854 347.378C338.854 342.832 342.539 339.146 347.086 339.146C351.633 339.146 355.318 342.832 355.318 347.378Z" fill="#FEFEFF"/>
<path id="Stroke 25" d="M17.8176 306.22V311.159" stroke="#393739" stroke-width="1.6566" stroke-linecap="round"/>
<path id="Stroke 27" d="M7.93945 311.158L11.2321 314.451" stroke="#393739" stroke-width="1.6566" stroke-linecap="round"/>
<path id="Stroke 29" d="M3 321.037H7.93902" stroke="#393739" stroke-width="1.6566" stroke-linecap="round"/>
<path id="Stroke 31" d="M7.93945 330.915L11.2321 327.622" stroke="#393739" stroke-width="1.6566" stroke-linecap="round"/>
<path id="Stroke 33" d="M17.8176 335.854V330.915" stroke="#393739" stroke-width="1.6566" stroke-linecap="round"/>
<path id="Stroke 35" d="M27.6948 330.915L24.4021 327.622" stroke="#393739" stroke-width="1.6566" stroke-linecap="round"/>
<path id="Stroke 37" d="M32.6341 321.037H27.6951" stroke="#393739" stroke-width="1.6566" stroke-linecap="round"/>
<path id="Stroke 39" d="M27.6948 311.158L24.4021 314.451" stroke="#393739" stroke-width="1.6566" stroke-linecap="round"/>
<path id="Stroke 41" d="M271.353 103.72V107.012" stroke="#393739" stroke-width="1.6566" stroke-linecap="round"/>
<path id="Stroke 43" d="M263.122 111.951H266.415" stroke="#393739" stroke-width="1.6566" stroke-linecap="round"/>
<path id="Stroke 45" d="M271.353 121.829V118.537" stroke="#393739" stroke-width="1.6566" stroke-linecap="round"/>
<path id="Stroke 47" d="M281.232 113.597H277.939" stroke="#393739" stroke-width="1.6566" stroke-linecap="round"/>
<path id="Stroke 49" d="M90.2563 233.78V238.719" stroke="#393739" stroke-width="1.6566" stroke-linecap="round"/>
<path id="Stroke 51" d="M75.4395 248.597H80.3785" stroke="#393739" stroke-width="1.6566" stroke-linecap="round"/>
<path id="Stroke 53" d="M88.6099 261.768V256.829" stroke="#393739" stroke-width="1.6566" stroke-linecap="round"/>
<path id="Stroke 55" d="M103.427 248.597H98.488" stroke="#393739" stroke-width="1.6566" stroke-linecap="round"/>
<path id="Stroke 57" d="M426.11 406.646C429.747 406.646 432.695 409.595 432.695 413.233C432.695 416.869 429.747 419.817 426.11 419.817C422.473 419.817 419.525 416.869 419.525 413.233" stroke="#393739" stroke-width="1.6566" stroke-linecap="round"/>
<path id="Stroke 59" d="M457.28 496.438C458.12 502.317 454.056 507.766 448.206 508.609C442.358 509.452 436.935 505.369 436.097 499.49C435.259 493.609 439.321 488.16 445.171 487.317" stroke="#393739" stroke-width="1.6566" stroke-linecap="round"/>
<path id="Fill 61" fill-rule="evenodd" clip-rule="evenodd" d="M457.391 344.084C461.382 342.822 467.499 337.879 468.916 332.561C470.199 337.262 475.582 342.822 480.44 343.244C474.973 345.206 469.745 351.033 468.916 355.609C468.351 350.944 461.122 344.764 457.391 344.084Z" fill="#393739"/>
<path id="Fill 63" fill-rule="evenodd" clip-rule="evenodd" d="M44.1592 404.176C46.1556 403.546 49.2138 401.074 49.9222 398.415C50.5638 400.765 53.254 403.546 55.6836 403.757C52.9494 404.737 50.3358 407.65 49.9222 409.939C49.6388 407.607 46.0254 404.516 44.1592 404.176Z" fill="#393739"/>
<path id="Fill 65" fill-rule="evenodd" clip-rule="evenodd" d="M80.3773 186.036C80.3773 188.765 78.1656 190.975 75.4383 190.975C72.7095 190.975 70.4993 188.765 70.4993 186.036C70.4993 183.307 72.7095 181.097 75.4383 181.097C78.1656 181.097 80.3773 183.307 80.3773 186.036Z" fill="#393739"/>
<path id="Fill 69" fill-rule="evenodd" clip-rule="evenodd" d="M554.525 176.158C554.525 179.796 551.577 182.744 547.94 182.744C544.302 182.744 541.354 179.796 541.354 176.158C541.354 172.521 544.302 169.573 547.94 169.573C551.577 169.573 554.525 172.521 554.525 176.158Z" fill="#393739"/>
<path id="Stroke 73" fill-rule="evenodd" clip-rule="evenodd" d="M175.865 151.464C175.865 154.192 173.654 156.403 170.926 156.403C168.198 156.403 165.987 154.192 165.987 151.464C165.987 148.735 168.198 146.525 170.926 146.525C173.654 146.525 175.865 148.735 175.865 151.464Z" stroke="#393739" stroke-width="1.6566" stroke-linecap="round"/>
<path id="Stroke 75" fill-rule="evenodd" clip-rule="evenodd" d="M99.1827 463.836C95.7843 465.129 91.982 463.422 90.6891 460.024C89.3945 456.625 91.1029 452.823 94.5013 451.53C97.8998 450.235 101.702 451.944 102.995 455.342C104.288 458.741 102.581 462.543 99.1827 463.836Z" stroke="#393739" stroke-width="1.6566" stroke-linecap="round"/>
</g>
</svg>
