<svg width="158" height="158" viewBox="0 0 158 158" fill="none" xmlns="http://www.w3.org/2000/svg">
<path d="M79 158C122.63 158 158 122.63 158 79C158 35.3695 122.63 0 79 0C35.3695 0 0 35.3695 0 79C0 122.63 35.3695 158 79 158Z" fill="#1E1C1F"/>
<path d="M126.4 158H31.6001V55.8267C36.0683 55.8216 40.3521 54.0444 43.5117 50.8849C46.6712 47.7254 48.4484 43.4416 48.4534 38.9733H109.547C109.542 41.1868 109.976 43.3792 110.824 45.4237C111.673 47.4682 112.918 49.3243 114.488 50.8844C116.048 52.455 117.904 53.7006 119.949 54.549C121.994 55.3973 124.186 55.8316 126.4 55.8267V158Z" fill="#393739"/>
<path d="M79 107.44C92.9617 107.44 104.28 96.1218 104.28 82.16C104.28 68.1982 92.9617 56.88 79 56.88C65.0382 56.88 53.72 68.1982 53.72 82.16C53.72 96.1218 65.0382 107.44 79 107.44Z" fill="#5A585A"/>
<path d="M87.9378 94.0773L79 85.1395L70.0622 94.0773L67.0829 91.098L76.0207 82.1602L67.0829 73.2223L70.0622 70.2431L79 79.1809L87.9378 70.2431L90.9171 73.2223L81.9793 82.1602L90.9171 91.098L87.9378 94.0773Z" fill="#FF006E"/>
<path d="M92.6934 113.76H65.3067C63.5615 113.76 62.1467 115.175 62.1467 116.92C62.1467 118.665 63.5615 120.08 65.3067 120.08H92.6934C94.4386 120.08 95.8534 118.665 95.8534 116.92C95.8534 115.175 94.4386 113.76 92.6934 113.76Z" fill="#5A585A"/>
<path d="M102.173 126.4H55.8267C54.0815 126.4 52.6667 127.815 52.6667 129.56C52.6667 131.305 54.0815 132.72 55.8267 132.72H102.173C103.919 132.72 105.333 131.305 105.333 129.56C105.333 127.815 103.919 126.4 102.173 126.4Z" fill="#5A585A"/>
</svg>
