<svg width="32" height="32" viewBox="0 0 32 32" fill="none" xmlns="http://www.w3.org/2000/svg">
<g clip-path="url(#clip0_1553_133821)">
<path d="M28.5507 8.88889H3.44845C3.00525 8.88889 2.58019 9.06495 2.2668 9.37834C1.95341 9.69174 1.77734 10.1168 1.77734 10.56V26.7733C1.77734 27.2165 1.95341 27.6416 2.2668 27.955C2.58019 28.2684 3.00525 28.4444 3.44845 28.4444H28.5507C28.9939 28.4444 29.4189 28.2684 29.7323 27.955C30.0457 27.6416 30.2218 27.2165 30.2218 26.7733V10.56C30.2218 10.1168 30.0457 9.69174 29.7323 9.37834C29.4189 9.06495 28.9939 8.88889 28.5507 8.88889ZM28.444 26.6667H3.55512V10.6667H28.444V26.6667Z" fill="#958E99"/>
<path d="M7.60905 17.2889C8.13647 17.2889 8.65204 17.1325 9.09057 16.8395C9.5291 16.5465 9.87089 16.13 10.0727 15.6427C10.2746 15.1554 10.3274 14.6193 10.2245 14.102C10.1216 13.5847 9.86761 13.1095 9.49467 12.7366C9.12173 12.3637 8.64657 12.1097 8.12929 12.0068C7.61201 11.9039 7.07583 11.9567 6.58856 12.1585C6.10129 12.3604 5.68481 12.7022 5.3918 13.1407C5.09878 13.5792 4.94238 14.0948 4.94238 14.6222C4.94238 15.3295 5.22333 16.0077 5.72343 16.5078C6.22353 17.0079 6.90181 17.2889 7.60905 17.2889ZM7.60905 13.2C7.89175 13.1929 8.17013 13.2703 8.40864 13.4222C8.64716 13.5741 8.83497 13.7937 8.94809 14.0529C9.0612 14.312 9.09449 14.5991 9.04369 14.8772C8.9929 15.1554 8.86033 15.4122 8.66292 15.6146C8.4655 15.8171 8.21221 15.9561 7.9354 16.014C7.65859 16.0718 7.37083 16.0458 7.10888 15.9392C6.84692 15.8327 6.62267 15.6505 6.46476 15.4159C6.30686 15.1813 6.22247 14.905 6.22238 14.6222C6.22227 14.2511 6.36722 13.8946 6.62629 13.6289C6.88537 13.3632 7.23805 13.2093 7.60905 13.2Z" fill="#958E99"/>
<path d="M7.0227 24.8889L12.356 19.5556L15.1827 22.3822L12.676 24.8889H14.4538L21.0849 18.2578L26.6671 23.7956V22.0178L21.5116 16.8889C21.3934 16.7716 21.2336 16.7058 21.0671 16.7058C20.9006 16.7058 20.7409 16.7716 20.6227 16.8889L16.036 21.4756L12.7738 18.2222C12.6556 18.105 12.4959 18.0392 12.3294 18.0392C12.1629 18.0392 12.0031 18.105 11.8849 18.2222L5.2627 24.8889H7.0227Z" fill="#958E99"/>
<path d="M26.7913 2.66667C26.7913 2.43092 26.6977 2.20483 26.531 2.03813C26.3643 1.87143 26.1382 1.77778 25.9025 1.77778H6.3469C6.11115 1.77778 5.88506 1.87143 5.71836 2.03813C5.55166 2.20483 5.45801 2.43092 5.45801 2.66667V3.55556H26.7913V2.66667Z" fill="#958E99"/>
<path d="M28.551 6.22222C28.551 5.98648 28.4573 5.76038 28.2906 5.59369C28.124 5.42699 27.8979 5.33334 27.6621 5.33334H4.551C4.31525 5.33334 4.08916 5.42699 3.92246 5.59369C3.75576 5.76038 3.66211 5.98648 3.66211 6.22222V7.11111H28.551V6.22222Z" fill="#958E99"/>
</g>
<defs>
<clipPath id="clip0_1553_133821">
<rect width="32" height="32" fill="white"/>
</clipPath>
</defs>
</svg>
