<svg width="213" height="149" viewBox="0 0 213 149" fill="none" xmlns="http://www.w3.org/2000/svg">
<path d="M170.958 0H43.298C37.4226 0 32.6597 4.76293 32.6597 10.6383V138.298C32.6597 144.173 37.4226 148.936 43.298 148.936H170.958C176.833 148.936 181.596 144.173 181.596 138.298V10.6383C181.596 4.76293 176.833 0 170.958 0Z" fill="#1E1C1F"/>
<g filter="url(#filter0_d_3414_16345)">
<path d="M56.0638 57.4468H199.681C201.092 57.4468 202.444 58.0072 203.442 59.0047C204.44 60.0023 205 61.3552 205 62.7659V89.3617C205 90.7724 204.44 92.1253 203.442 93.1229C202.444 94.1204 201.092 94.6808 199.681 94.6808H56.0638C54.6531 94.6808 53.3001 94.1204 52.3026 93.1229C51.305 92.1253 50.7446 90.7724 50.7446 89.3617V62.7659C50.7446 61.3552 51.305 60.0023 52.3026 59.0047C53.3001 58.0072 54.6531 57.4468 56.0638 57.4468V57.4468Z" fill="#393739"/>
</g>
<path d="M134.787 65.9575H107.128C105.365 65.9575 103.936 67.3864 103.936 69.149C103.936 70.9116 105.365 72.3405 107.128 72.3405H134.787C136.55 72.3405 137.979 70.9116 137.979 69.149C137.979 67.3864 136.55 65.9575 134.787 65.9575Z" fill="#5A585A"/>
<path d="M153.936 79.7874H107.128C105.365 79.7874 103.936 81.2162 103.936 82.9788C103.936 84.7415 105.365 86.1703 107.128 86.1703H153.936C155.699 86.1703 157.128 84.7415 157.128 82.9788C157.128 81.2162 155.699 79.7874 153.936 79.7874Z" fill="#5A585A"/>
<path d="M83.1913 86.1703C88.7729 86.1703 93.2977 81.6455 93.2977 76.0639C93.2977 70.4823 88.7729 65.9575 83.1913 65.9575C77.6097 65.9575 73.085 70.4823 73.085 76.0639C73.085 81.6455 77.6097 86.1703 83.1913 86.1703Z" fill="#FF006E"/>
<path d="M79.3936 78.2766H78.5783L80.4103 73.1857H81.2978L83.1298 78.2766H82.3145L80.8752 74.1104H80.8354L79.3936 78.2766ZM79.5304 76.283H82.1752V76.9293H79.5304V76.283ZM83.865 78.2766V73.1857H85.7293C86.0906 73.1857 86.3897 73.2454 86.6267 73.3647C86.8637 73.4823 87.041 73.6423 87.1586 73.8444C87.2763 74.045 87.3351 74.2712 87.3351 74.5231C87.3351 74.7352 87.2962 74.9142 87.2183 75.06C87.1404 75.2042 87.036 75.3202 86.9051 75.408C86.7758 75.4942 86.6333 75.5572 86.4775 75.5969V75.6466C86.6466 75.6549 86.8115 75.7096 86.9722 75.8107C87.1346 75.9101 87.2689 76.0518 87.3749 76.2358C87.481 76.4197 87.534 76.6434 87.534 76.9069C87.534 77.1671 87.4727 77.4008 87.3501 77.6079C87.2291 77.8134 87.0418 77.9767 86.7883 78.0976C86.5347 78.217 86.2107 78.2766 85.8163 78.2766H83.865ZM84.6331 77.6179H85.7417C86.1096 77.6179 86.3731 77.5466 86.5322 77.4041C86.6913 77.2616 86.7709 77.0834 86.7709 76.8697C86.7709 76.7089 86.7303 76.5614 86.6491 76.4272C86.5679 76.2929 86.4519 76.1861 86.301 76.1065C86.1519 76.027 85.9746 75.9872 85.7691 75.9872H84.6331V77.6179ZM84.6331 75.3881H85.6622C85.8345 75.3881 85.9895 75.355 86.127 75.2887C86.2662 75.2224 86.3765 75.1296 86.4577 75.0103C86.5405 74.8893 86.5819 74.7468 86.5819 74.5827C86.5819 74.3723 86.5082 74.1958 86.3607 74.0532C86.2132 73.9107 85.987 73.8395 85.6821 73.8395H84.6331V75.3881Z" fill="#FF006E"/>
<g filter="url(#filter1_d_3414_16345)">
<path d="M10.3191 103.191H153.936C155.347 103.191 156.7 103.752 157.697 104.749C158.695 105.747 159.255 107.1 159.255 108.511V135.106C159.255 136.517 158.695 137.87 157.697 138.868C156.7 139.865 155.347 140.425 153.936 140.425H10.3191C8.90842 140.425 7.55548 139.865 6.55794 138.868C5.56041 137.87 5 136.517 5 135.106V108.511C5 107.1 5.56041 105.747 6.55794 104.749C7.55548 103.752 8.90842 103.191 10.3191 103.191V103.191Z" fill="#393739"/>
</g>
<path d="M89.0425 111.702H61.3829C59.6203 111.702 58.1914 113.131 58.1914 114.894C58.1914 116.656 59.6203 118.085 61.3829 118.085H89.0425C90.8051 118.085 92.234 116.656 92.234 114.894C92.234 113.131 90.8051 111.702 89.0425 111.702Z" fill="#4E4C4E"/>
<path d="M108.191 125.532H61.3829C59.6203 125.532 58.1914 126.961 58.1914 128.723C58.1914 130.486 59.6203 131.915 61.3829 131.915H108.191C109.954 131.915 111.383 130.486 111.383 128.723C111.383 126.961 109.954 125.532 108.191 125.532Z" fill="#4E4C4E"/>
<path d="M23.6171 131.915C29.1987 131.915 33.7235 127.39 33.7235 121.809C33.7235 116.227 29.1987 111.702 23.6171 111.702C18.0355 111.702 13.5107 116.227 13.5107 121.809C13.5107 127.39 18.0355 131.915 23.6171 131.915Z" fill="#FF006E"/>
<path d="M22.166 120.268C22.1395 120.032 22.0301 119.85 21.8379 119.721C21.6457 119.59 21.4037 119.524 21.112 119.524C20.9032 119.524 20.7226 119.558 20.5701 119.624C20.4177 119.688 20.2992 119.778 20.2147 119.892C20.1318 120.005 20.0904 120.133 20.0904 120.278C20.0904 120.399 20.1185 120.503 20.1749 120.591C20.2329 120.679 20.3083 120.752 20.4011 120.812C20.4956 120.87 20.5967 120.919 20.7044 120.959C20.8121 120.997 20.9157 121.028 21.0151 121.053L21.5123 121.182C21.6747 121.222 21.8412 121.276 22.0119 121.344C22.1826 121.412 22.3409 121.501 22.4867 121.613C22.6325 121.724 22.7502 121.861 22.8397 122.025C22.9308 122.189 22.9764 122.386 22.9764 122.614C22.9764 122.903 22.9018 123.159 22.7527 123.382C22.6052 123.606 22.3906 123.783 22.1088 123.912C21.8288 124.041 21.4899 124.106 21.0922 124.106C20.711 124.106 20.3812 124.045 20.1028 123.924C19.8244 123.803 19.6065 123.632 19.449 123.41C19.2916 123.186 19.2046 122.921 19.188 122.614H19.9586C19.9735 122.798 20.0332 122.952 20.1376 123.074C20.2437 123.195 20.3787 123.285 20.5428 123.345C20.7085 123.403 20.89 123.432 21.0872 123.432C21.3043 123.432 21.4973 123.398 21.6664 123.33C21.8371 123.261 21.9713 123.164 22.0691 123.042C22.1668 122.918 22.2157 122.773 22.2157 122.607C22.2157 122.456 22.1726 122.333 22.0865 122.236C22.002 122.14 21.8868 122.061 21.7409 121.998C21.5968 121.935 21.4335 121.879 21.2512 121.831L20.6497 121.667C20.242 121.556 19.9189 121.393 19.6802 121.177C19.4432 120.962 19.3248 120.677 19.3248 120.322C19.3248 120.029 19.4043 119.773 19.5634 119.554C19.7225 119.336 19.9379 119.166 20.2097 119.045C20.4815 118.922 20.7881 118.861 21.1294 118.861C21.4741 118.861 21.7782 118.921 22.0417 119.042C22.3069 119.163 22.5157 119.33 22.6681 119.542C22.8206 119.752 22.9002 119.994 22.9068 120.268H22.166ZM26.6709 120.268C26.6444 120.032 26.535 119.85 26.3428 119.721C26.1505 119.59 25.9086 119.524 25.6169 119.524C25.4081 119.524 25.2275 119.558 25.075 119.624C24.9226 119.688 24.8041 119.778 24.7195 119.892C24.6367 120.005 24.5953 120.133 24.5953 120.278C24.5953 120.399 24.6234 120.503 24.6798 120.591C24.7378 120.679 24.8132 120.752 24.906 120.812C25.0004 120.87 25.1015 120.919 25.2093 120.959C25.317 120.997 25.4205 121.028 25.52 121.053L26.0171 121.182C26.1795 121.222 26.3461 121.276 26.5168 121.344C26.6875 121.412 26.8457 121.501 26.9916 121.613C27.1374 121.724 27.2551 121.861 27.3445 122.025C27.4357 122.189 27.4813 122.386 27.4813 122.614C27.4813 122.903 27.4067 123.159 27.2575 123.382C27.1101 123.606 26.8954 123.783 26.6137 123.912C26.3337 124.041 25.9948 124.106 25.597 124.106C25.2159 124.106 24.8861 124.045 24.6077 123.924C24.3293 123.803 24.1114 123.632 23.9539 123.41C23.7965 123.186 23.7095 122.921 23.6929 122.614H24.4635C24.4784 122.798 24.5381 122.952 24.6425 123.074C24.7485 123.195 24.8836 123.285 25.0477 123.345C25.2134 123.403 25.3949 123.432 25.5921 123.432C25.8092 123.432 26.0022 123.398 26.1713 123.33C26.3419 123.261 26.4762 123.164 26.574 123.042C26.6717 122.918 26.7206 122.773 26.7206 122.607C26.7206 122.456 26.6775 122.333 26.5914 122.236C26.5068 122.14 26.3917 122.061 26.2458 121.998C26.1017 121.935 25.9384 121.879 25.7561 121.831L25.1546 121.667C24.7469 121.556 24.4237 121.393 24.1851 121.177C23.9481 120.962 23.8296 120.677 23.8296 120.322C23.8296 120.029 23.9092 119.773 24.0683 119.554C24.2274 119.336 24.4428 119.166 24.7146 119.045C24.9864 118.922 25.2929 118.861 25.6343 118.861C25.979 118.861 26.2831 118.921 26.5466 119.042C26.8118 119.163 27.0206 119.33 27.173 119.542C27.3255 119.752 27.405 119.994 27.4117 120.268H26.6709Z" fill="#FF006E"/>
<g filter="url(#filter2_d_3414_16345)">
<path d="M153.936 11.7021H10.3191C7.38146 11.7021 5 14.0836 5 17.0213V43.617C5 46.5547 7.38146 48.9362 10.3191 48.9362H153.936C156.874 48.9362 159.255 46.5547 159.255 43.617V17.0213C159.255 14.0836 156.874 11.7021 153.936 11.7021Z" fill="#393739"/>
</g>
<path d="M86.915 20.2129H59.2555C57.4928 20.2129 56.064 21.6418 56.064 23.4044C56.064 25.167 57.4928 26.5959 59.2555 26.5959H86.915C88.6776 26.5959 90.1065 25.167 90.1065 23.4044C90.1065 21.6418 88.6776 20.2129 86.915 20.2129Z" fill="#5A585A"/>
<path d="M106.064 34.0427H59.2555C57.4928 34.0427 56.064 35.4716 56.064 37.2342C56.064 38.9968 57.4928 40.4257 59.2555 40.4257H106.064C107.827 40.4257 109.255 38.9968 109.255 37.2342C109.255 35.4716 107.827 34.0427 106.064 34.0427Z" fill="#5A585A"/>
<path d="M37.4472 40.4257C43.0288 40.4257 47.5536 35.9009 47.5536 30.3193C47.5536 24.7377 43.0288 20.2129 37.4472 20.2129C31.8656 20.2129 27.3408 24.7377 27.3408 30.3193C27.3408 35.9009 31.8656 40.4257 37.4472 40.4257Z" fill="#FF006E"/>
<path d="M33.0028 32.532H32.1875L34.0195 27.4411H34.907L36.739 32.532H35.9236L34.4844 28.3658H34.4446L33.0028 32.532ZM33.1396 30.5384H35.7844V31.1847H33.1396V30.5384ZM37.9042 32.532H37.0889L38.9209 27.4411H39.8083L41.6403 32.532H40.825L39.3857 28.3658H39.346L37.9042 32.532ZM38.0409 30.5384H40.6858V31.1847H38.0409V30.5384Z" fill="#FF006E"/>
<defs>
<filter id="filter0_d_3414_16345" x="48.7446" y="55.4468" width="164.255" height="47.2341" filterUnits="userSpaceOnUse" color-interpolation-filters="sRGB">
<feFlood flood-opacity="0" result="BackgroundImageFix"/>
<feColorMatrix in="SourceAlpha" type="matrix" values="0 0 0 0 0 0 0 0 0 0 0 0 0 0 0 0 0 0 127 0" result="hardAlpha"/>
<feOffset dx="3" dy="3"/>
<feGaussianBlur stdDeviation="2.5"/>
<feColorMatrix type="matrix" values="0 0 0 0 0.230539 0 0 0 0 0.370572 0 0 0 0 0.482993 0 0 0 0.1 0"/>
<feBlend mode="normal" in2="BackgroundImageFix" result="effect1_dropShadow_3414_16345"/>
<feBlend mode="normal" in="SourceGraphic" in2="effect1_dropShadow_3414_16345" result="shape"/>
</filter>
<filter id="filter1_d_3414_16345" x="0" y="101.191" width="164.255" height="47.2341" filterUnits="userSpaceOnUse" color-interpolation-filters="sRGB">
<feFlood flood-opacity="0" result="BackgroundImageFix"/>
<feColorMatrix in="SourceAlpha" type="matrix" values="0 0 0 0 0 0 0 0 0 0 0 0 0 0 0 0 0 0 127 0" result="hardAlpha"/>
<feOffset dy="3"/>
<feGaussianBlur stdDeviation="2.5"/>
<feColorMatrix type="matrix" values="0 0 0 0 0.230539 0 0 0 0 0.370572 0 0 0 0 0.482993 0 0 0 0.1 0"/>
<feBlend mode="normal" in2="BackgroundImageFix" result="effect1_dropShadow_3414_16345"/>
<feBlend mode="normal" in="SourceGraphic" in2="effect1_dropShadow_3414_16345" result="shape"/>
</filter>
<filter id="filter2_d_3414_16345" x="0" y="9.70215" width="164.255" height="47.2341" filterUnits="userSpaceOnUse" color-interpolation-filters="sRGB">
<feFlood flood-opacity="0" result="BackgroundImageFix"/>
<feColorMatrix in="SourceAlpha" type="matrix" values="0 0 0 0 0 0 0 0 0 0 0 0 0 0 0 0 0 0 127 0" result="hardAlpha"/>
<feOffset dy="3"/>
<feGaussianBlur stdDeviation="2.5"/>
<feColorMatrix type="matrix" values="0 0 0 0 0.230539 0 0 0 0 0.370572 0 0 0 0 0.482993 0 0 0 0.1 0"/>
<feBlend mode="normal" in2="BackgroundImageFix" result="effect1_dropShadow_3414_16345"/>
<feBlend mode="normal" in="SourceGraphic" in2="effect1_dropShadow_3414_16345" result="shape"/>
</filter>
</defs>
</svg>
