<svg width="33" height="32" viewBox="0 0 33 32" fill="none" xmlns="http://www.w3.org/2000/svg">
<path d="M25.3125 7.0125C23.8 4.425 21.7375 3 19.5 3H13.5C11.2625 3 9.2 4.425 7.6875 7.0125C6.175 9.6 5.5 12.625 5.5 16C5.5 19.375 6.275 22.575 7.6875 24.9875C9.1 27.4 11.2625 29 13.5 29H19.5C21.7375 29 23.8 27.575 25.3125 24.9875C26.825 22.4 27.5 19.375 27.5 16C27.5 12.625 26.725 9.425 25.3125 7.0125ZM25.475 15H21.475C21.375 12.85 20.9625 10.7875 20.2625 9H24.0875C24.85 10.675 25.3625 12.75 25.475 15ZM22.9 7H19.3125C18.8892 6.27909 18.3861 5.60819 17.8125 5H19.5C20.75 5 21.925 5.75 22.9 7ZM7.5 16C7.5 10.0375 10.25 5 13.5 5C16.75 5 19.5 10.0375 19.5 16C19.5 21.9625 16.75 27 13.5 27C10.25 27 7.5 21.9625 7.5 16ZM19.5 27H17.8125C18.3861 26.3918 18.8892 25.7209 19.3125 25H22.9C21.925 26.25 20.75 27 19.5 27ZM24.0875 23H20.2625C20.9625 21.2125 21.375 19.15 21.475 17H25.475C25.3625 19.25 24.85 21.325 24.0875 23Z" fill="white"/>
</svg>
