<svg width="16" height="16" viewBox="0 0 16 16" fill="none" xmlns="http://www.w3.org/2000/svg">
    <g clip-path="url(#clip0_779_62996)">
        <path fill-rule="evenodd" clip-rule="evenodd"
            d="M0.976311 10.3097C1.60143 9.68456 2.44928 9.33337 3.33333 9.33337H8C8.88406 9.33337 9.7319 9.68456 10.357 10.3097C10.9821 10.9348 11.3333 11.7827 11.3333 12.6667V14C11.3333 14.3682 11.0349 14.6667 10.6667 14.6667C10.2985 14.6667 10 14.3682 10 14V12.6667C10 12.1363 9.78929 11.6276 9.41421 11.2525C9.03914 10.8774 8.53043 10.6667 8 10.6667H3.33333C2.8029 10.6667 2.29419 10.8774 1.91912 11.2525C1.54405 11.6276 1.33333 12.1363 1.33333 12.6667V14C1.33333 14.3682 1.03486 14.6667 0.666667 14.6667C0.298477 14.6667 0 14.3682 0 14V12.6667C0 11.7827 0.35119 10.9348 0.976311 10.3097Z"
            fill="#AC72FF" />
        <path fill-rule="evenodd" clip-rule="evenodd"
            d="M5.66732 2.66671C4.56275 2.66671 3.66732 3.56214 3.66732 4.66671C3.66732 5.77128 4.56275 6.66671 5.66732 6.66671C6.77189 6.66671 7.66732 5.77128 7.66732 4.66671C7.66732 3.56214 6.77189 2.66671 5.66732 2.66671ZM2.33398 4.66671C2.33398 2.82576 3.82637 1.33337 5.66732 1.33337C7.50827 1.33337 9.00065 2.82576 9.00065 4.66671C9.00065 6.50766 7.50827 8.00004 5.66732 8.00004C3.82637 8.00004 2.33398 6.50766 2.33398 4.66671Z"
            fill="#AC72FF" />
        <path fill-rule="evenodd" clip-rule="evenodd"
            d="M13.3327 4.66663C13.7009 4.66663 13.9993 4.9651 13.9993 5.33329V9.33329C13.9993 9.70148 13.7009 9.99996 13.3327 9.99996C12.9645 9.99996 12.666 9.70148 12.666 9.33329V5.33329C12.666 4.9651 12.9645 4.66663 13.3327 4.66663Z"
            fill="#AC72FF" />
        <path fill-rule="evenodd" clip-rule="evenodd"
            d="M10.666 7.33329C10.666 6.9651 10.9645 6.66663 11.3327 6.66663H15.3327C15.7009 6.66663 15.9993 6.9651 15.9993 7.33329C15.9993 7.70148 15.7009 7.99996 15.3327 7.99996H11.3327C10.9645 7.99996 10.666 7.70148 10.666 7.33329Z"
            fill="#AC72FF" />
    </g>
    <defs>
        <clipPath id="clip0_779_62996">
            <rect width="16" height="16" fill="white" />
        </clipPath>
    </defs>
</svg>