<svg width="24" height="24" viewBox="0 0 24 24" fill="none" xmlns="http://www.w3.org/2000/svg">
<path d="M11.991 3C7.023 3 3 7.032 3 12C3 16.968 7.023 21 11.991 21C16.968 21 21 16.968 21 12C21 7.032 16.968 3 11.991 3ZM18.228 8.4H15.573C15.285 7.275 14.871 6.195 14.331 5.196C15.987 5.763 17.364 6.915 18.228 8.4ZM12 4.836C12.747 5.916 13.332 7.113 13.719 8.4H10.281C10.668 7.113 11.253 5.916 12 4.836ZM5.034 13.8C4.89 13.224 4.8 12.621 4.8 12C4.8 11.379 4.89 10.776 5.034 10.2H8.076C8.004 10.794 7.95 11.388 7.95 12C7.95 12.612 8.004 13.206 8.076 13.8H5.034ZM5.772 15.6H8.427C8.715 16.725 9.129 17.805 9.669 18.804C8.013 18.237 6.636 17.094 5.772 15.6ZM8.427 8.4H5.772C6.636 6.906 8.013 5.763 9.669 5.196C9.129 6.195 8.715 7.275 8.427 8.4ZM12 19.164C11.253 18.084 10.668 16.887 10.281 15.6H13.719C13.332 16.887 12.747 18.084 12 19.164ZM14.106 13.8H9.894C9.813 13.206 9.75 12.612 9.75 12C9.75 11.388 9.813 10.785 9.894 10.2H14.106C14.187 10.785 14.25 11.388 14.25 12C14.25 12.612 14.187 13.206 14.106 13.8ZM14.331 18.804C14.871 17.805 15.285 16.725 15.573 15.6H18.228C17.364 17.085 15.987 18.237 14.331 18.804ZM15.924 13.8C15.996 13.206 16.05 12.612 16.05 12C16.05 11.388 15.996 10.794 15.924 10.2H18.966C19.11 10.776 19.2 11.379 19.2 12C19.2 12.621 19.11 13.224 18.966 13.8H15.924Z" fill="#FAECFF"/>
</svg>
