<svg width="158" height="158" fill="none" xmlns="http://www.w3.org/2000/svg">
    <mask id="b" style="mask-type:alpha" maskUnits="userSpaceOnUse" x="0" y="0" width="158" height="158">
        <rect width="158" height="158" rx="22" fill="url(#a)"/>
    </mask>
    <g clip-path="url(#c)">
        <path d="m111.236 96.192-59.96-34.689c-1.7-.984-1.702-3.44-.001-4.427l33.598-19.478a6.04 6.04 0 0 1 6.053-.002l59.737 34.56c1.772 1.026 1.773 3.583.002 4.61L117.158 96.19a5.908 5.908 0 0 1-5.922.003Z" fill="#00A8A8"/>
        <path d="m56.332 57.211-6.299-.053L50 59.29l5.341 3.692.99-5.77ZM152 72.346l-.032 2.346-2.578 2.228-1.453-4.65 4.063.076Z" fill="#00A8A8"/>
        <path d="m111.268 94.023-59.96-34.689c-1.702-.984-1.703-3.44-.002-4.427L84.905 35.43a6.038 6.038 0 0 1 6.052-.003l59.695 34.537c1.791 1.036 1.792 3.62.003 4.657l-33.466 19.4a5.909 5.909 0 0 1-5.922.004h.001Z" fill="#00BAC0"/>
        <path d="m75.98 40.657 66.696 38.586 7.971-4.621-66.744-38.615-7.922 4.65Z" fill="#29BEC6"/>
        <path d="m85.566 55.943 27.66 16.004 3.306-1.917-27.68-16.015-3.287 1.928Z" fill="#027875"/>
        <path d="m75.204 52.625-6.727-3.807a.328.328 0 0 1 0-.569l5.932-3.472c.24-.14.537-.14.778 0l6.72 3.802a.328.328 0 0 1 0 .569l-5.942 3.477a.757.757 0 0 1-.76 0Z" fill="#87D3E4"/>
        <path d="M87.7 76.514 53.735 56.87a.328.328 0 0 1 .006-.569l.464-.276a.776.776 0 0 1 .777.007l33.91 19.594c.219.128.168.404-.004.568l-.428.418c-.237.135-.526.041-.76-.097v-.001Z" fill="#29BEC6"/>
        <path d="m85.576 55.937 3.275 1.895v-3.817l-3.275 1.922Z" fill="#006664"/>
        <path d="m52.795 22.72-.43 1.122-.053.14c-.698 1.82 1.594 4.391 5.118 5.742 3.464 1.327 6.827.982 7.605-.758l.04-.092.538-1.403" fill="#0380FF"/>
        <path d="M65.613 27.47c.698-1.82-1.594-4.39-5.119-5.742-3.525-1.35-6.948-.97-7.646.85-.697 1.821 1.594 4.392 5.12 5.743 3.524 1.35 6.947.97 7.645-.85Z" fill="#0098FF"/>
        <path d="M57.844 28.327c-1.668-.655-3.105-1.6-4.057-2.668-.98-1.099-1.33-2.2-.985-3.098.345-.899 1.34-1.483 2.804-1.646 1.452-.16 3.194.111 4.906.767 3.54 1.358 5.853 3.963 5.147 5.807-.345.898-1.34 1.483-2.804 1.645-1.452.162-3.194-.11-4.906-.767l-.106-.04Zm2.735-6.511a6.314 6.314 0 0 0-.103-.04c-1.698-.651-3.423-.921-4.86-.762-1.424.159-2.39.721-2.721 1.583-.33.862.012 1.926.966 2.996.962 1.08 2.425 2.03 4.124 2.682 1.697.65 3.423.92 4.86.76 1.424-.158 2.39-.72 2.72-1.582.681-1.774-1.551-4.288-4.986-5.637Z" fill="#0098FF"/>
        <path d="M64.352 26.988c-.53 1.38-3.25 1.62-6.078.537-2.827-1.084-4.69-3.082-4.162-4.462.53-1.38 3.25-1.62 6.078-.537 2.827 1.084 4.69 3.082 4.162 4.462Z" fill="#0380FF"/>
        <path d="M52.436 25.61a.05.05 0 0 1-.029-.064l.424-1.106a.05.05 0 0 1 .064-.028.05.05 0 0 1 .028.064l-.423 1.106a.05.05 0 0 1-.064.029ZM53.048 26.656a.05.05 0 0 1-.028-.064l.458-1.196a.05.05 0 0 1 .064-.029.05.05 0 0 1 .028.064l-.458 1.197a.05.05 0 0 1-.064.028ZM53.965 27.66a.05.05 0 0 1-.028-.064l.467-1.221a.05.05 0 0 1 .065-.029.05.05 0 0 1 .028.064l-.468 1.222a.05.05 0 0 1-.064.028ZM56.495 29.287a.05.05 0 0 1-.028-.065l.465-1.213a.05.05 0 0 1 .064-.029.05.05 0 0 1 .029.064l-.465 1.214a.05.05 0 0 1-.065.029ZM57.063 29.556a.05.05 0 0 1-.029-.064l.466-1.214a.05.05 0 0 1 .064-.028.05.05 0 0 1 .028.064l-.465 1.214a.05.05 0 0 1-.064.028ZM57.554 29.748a.05.05 0 0 1-.029-.065l.466-1.213a.05.05 0 0 1 .064-.029.05.05 0 0 1 .028.065l-.465 1.213a.05.05 0 0 1-.064.029ZM60.466 30.445a.05.05 0 0 1-.028-.065l.465-1.213a.05.05 0 0 1 .064-.029.05.05 0 0 1 .029.064l-.466 1.214a.05.05 0 0 1-.064.029ZM61.363 30.509a.05.05 0 0 1-.029-.064l.465-1.214a.05.05 0 0 1 .065-.029.05.05 0 0 1 .028.064l-.465 1.214a.05.05 0 0 1-.064.029ZM61.93 30.487a.05.05 0 0 1-.03-.064l.466-1.214a.05.05 0 0 1 .064-.029.05.05 0 0 1 .029.065l-.466 1.213a.05.05 0 0 1-.064.029ZM63.423 30.23a.05.05 0 0 1-.028-.065l.465-1.213a.05.05 0 0 1 .064-.029.05.05 0 0 1 .029.064l-.465 1.214a.05.05 0 0 1-.065.029Z" fill="#0098FF"/>
        <path d="M60.121 22.701c2.774 1.063 4.62 3.006 4.189 4.382.015-.03.029-.063.042-.095.529-1.38-1.335-3.378-4.162-4.462-2.828-1.083-5.549-.843-6.078.537-.01.027-.019.053-.027.08.616-1.296 3.275-1.5 6.036-.442Z" fill="#076BFF"/>
        <path d="M112.939 66.686c4.458-3.616 3.996-11.573-1.033-17.772-5.028-6.198-12.72-8.291-17.178-4.674-4.458 3.616-3.996 11.573 1.032 17.772 5.029 6.198 12.72 8.291 17.179 4.674Z" fill="#0380FF"/>
        <path d="m110.173 68.726 2.761-2.031.395-1.729-1.454.388-1.702 3.372ZM95.76 43.947l-.506-.091-2.633 1.932 1.862.804 1.278-2.645Z" fill="#0380FF"/>
        <path d="M110.737 68.305c4.458-3.617 3.996-11.573-1.033-17.772-5.028-6.198-12.72-8.291-17.178-4.675-4.459 3.617-3.996 11.574 1.032 17.772 5.03 6.199 12.72 8.292 17.179 4.675Z" fill="#0098FF"/>
        <path d="M109.023 66.583c3.61-2.929 3.098-9.542-1.144-14.771-4.243-5.23-10.609-7.094-14.219-4.166-3.61 2.929-3.098 9.542 1.145 14.771 4.242 5.23 10.608 7.095 14.218 4.166Z" fill="#0380FF"/>
        <path d="M95.298 62.094c-4.242-5.23-4.754-11.843-1.143-14.771.069-.056.139-.11.21-.162a5.88 5.88 0 0 0-.695.486c-3.61 2.928-3.1 9.541 1.143 14.77 4.16 5.13 10.364 7.023 14.007 4.33-3.688 2.2-9.54.255-13.522-4.653Z" fill="#076BFF"/>
        <path d="M113.191 56.84a.082.082 0 0 1 .025-.113l1.806-1.163a.081.081 0 0 1 .113.024.082.082 0 0 1-.025.114l-1.805 1.163a.082.082 0 0 1-.114-.025ZM109.73 50.313a.08.08 0 0 1 .024-.112l1.806-1.163a.081.081 0 0 1 .113.024.082.082 0 0 1-.025.114l-1.805 1.163a.081.081 0 0 1-.113-.025ZM107.845 48.372a.082.082 0 0 1 .025-.112l1.805-1.163a.081.081 0 0 1 .113.024.081.081 0 0 1-.024.114l-1.806 1.163a.081.081 0 0 1-.113-.025ZM98.299 43.908a.082.082 0 0 1 .024-.113l1.806-1.163a.081.081 0 0 1 .113.025.082.082 0 0 1-.025.113l-1.805 1.163a.081.081 0 0 1-.113-.024ZM95.437 44.276a.082.082 0 0 1 .024-.113L97.267 43a.081.081 0 0 1 .113.024.082.082 0 0 1-.025.114L95.55 44.3a.081.081 0 0 1-.113-.025ZM108.509 49.036a.082.082 0 0 1 .025-.113l1.805-1.163a.081.081 0 0 1 .113.025.081.081 0 0 1-.024.113l-1.806 1.163a.081.081 0 0 1-.113-.025ZM113.832 59.993a.081.081 0 0 1 .014-.114l1.697-1.317a.081.081 0 0 1 .115.014.083.083 0 0 1-.015.116l-1.696 1.317a.082.082 0 0 1-.115-.015ZM113.796 61.858a.083.083 0 0 1 .021-.114l1.762-1.228a.082.082 0 0 1 .114.02.083.083 0 0 1-.021.115l-1.761 1.228a.083.083 0 0 1-.115-.02Z" fill="#0098FF"/>
        <path d="M101.319 34.39c4.966-4.961 6.1-11.879 2.531-15.45-3.568-3.573-10.487-2.447-15.454 2.514-4.966 4.962-6.1 11.879-2.531 15.451 3.568 3.572 10.487 2.446 15.454-2.515Z" fill="#0380FF"/>
        <path d="m83.837 34.679 2.028 2.23 1.547.189-.47-1.236-3.105-1.183ZM104.208 19.823l.033-.452-1.93-2.127-.534 1.702 2.431.877Z" fill="#0380FF"/>
        <path d="M99.703 32.611c4.966-4.961 6.1-11.879 2.531-15.45-3.568-3.573-10.487-2.447-15.454 2.515-4.967 4.96-6.1 11.878-2.531 15.45 3.568 3.572 10.487 2.446 15.454-2.515Z" fill="#0098FF"/>
        <path d="M98.42 31.129c4.189-4.186 5.244-9.923 2.354-12.816-2.89-2.892-8.628-1.844-12.818 2.342-4.19 4.185-5.245 9.922-2.355 12.815 2.89 2.892 8.629 1.844 12.819-2.341Z" fill="#0380FF"/>
        <path d="M88.29 21.063c4.19-4.185 9.93-5.233 12.818-2.34.056.055.109.112.161.169a5.135 5.135 0 0 0-.488-.564c-2.889-2.893-8.629-1.845-12.819 2.34-4.11 4.105-5.202 9.704-2.516 12.646-2.26-3.027-1.09-8.323 2.844-12.251Z" fill="#076BFF"/>
        <path d="M94.508 36.24a.072.072 0 0 1 .102.012l1.181 1.473a.073.073 0 0 1-.01.102.072.072 0 0 1-.102-.011l-1.182-1.474a.073.073 0 0 1 .011-.101ZM99.903 32.62a.072.072 0 0 1 .101.011l1.182 1.474a.073.073 0 0 1-.011.101.073.073 0 0 1-.102-.01l-1.181-1.474a.073.073 0 0 1 .01-.102ZM101.43 30.797a.072.072 0 0 1 .101.012l1.182 1.473a.073.073 0 0 1-.011.102.072.072 0 0 1-.101-.011l-1.182-1.474a.073.073 0 0 1 .011-.102ZM104.472 22.04a.072.072 0 0 1 .101.01l1.182 1.474a.072.072 0 0 1-.011.102.072.072 0 0 1-.101-.011l-1.182-1.474a.072.072 0 0 1 .011-.101ZM103.889 19.57a.073.073 0 0 1 .102.011l1.181 1.474a.072.072 0 0 1-.011.101.072.072 0 0 1-.101-.01l-1.182-1.474a.073.073 0 0 1 .011-.102ZM100.913 31.436a.072.072 0 0 1 .101.012l1.181 1.473a.073.073 0 0 1-.011.102.072.072 0 0 1-.101-.011l-1.181-1.474a.073.073 0 0 1 .011-.102ZM91.809 37.086a.072.072 0 0 1 .102.003l1.306 1.364a.073.073 0 0 1-.002.102.072.072 0 0 1-.102-.002l-1.306-1.364a.073.073 0 0 1 .002-.103ZM90.173 37.224a.072.072 0 0 1 .101.008l1.235 1.43a.072.072 0 1 1-.109.094l-1.234-1.43a.072.072 0 0 1 .007-.101ZM92.32-5.648c1.338-3.513-1.537-7.87-6.422-9.73-4.885-1.86-9.93-.52-11.268 2.993-1.338 3.513 1.537 7.87 6.422 9.73 4.885 1.86 9.93.52 11.268-2.993Z" fill="#0098FF"/>
        <path d="M132.884 38.199c2.394-2.73 2.743-6.337.78-8.058-1.963-1.722-5.495-.905-7.888 1.824-2.393 2.73-2.742 6.337-.78 8.058 1.963 1.721 5.495.905 7.888-1.824Z" fill="#0380FF"/>
        <path d="m134.79 31.23-1.123-1.082-.805-.044.286.621 1.642.505ZM124.784 39.59l-.002.234 1.069 1.032.217-.897-1.284-.37Z" fill="#0380FF"/>
        <path d="M133.779 39.061c2.393-2.729 2.742-6.337.779-8.058s-5.494-.904-7.887 1.825c-2.394 2.729-2.743 6.336-.78 8.058 1.963 1.721 5.494.904 7.888-1.825Z" fill="#0098FF"/>
        <path d="M127.385 33.556c2.019-2.302 4.945-3.038 6.534-1.644 1.589 1.394 1.241 4.39-.779 6.692-2.019 2.302-4.944 3.038-6.534 1.644-1.589-1.394-1.24-4.39.779-6.692Z" fill="#0380FF"/>
        <path d="M132.956 38.407c-2.02 2.302-4.945 3.038-6.534 1.644a2.71 2.71 0 0 1-.089-.081c.083.096.173.189.271.274 1.589 1.394 4.515.658 6.534-1.644 1.981-2.258 2.354-5.184.867-6.61 1.269 1.484.846 4.256-1.049 6.417Z" fill="#076BFF"/>
        <path d="M129.228 30.788a.038.038 0 0 1-.053-.002l-.659-.72a.036.036 0 0 1 .002-.053.037.037 0 0 1 .052.002l.66.72a.037.037 0 0 1-.002.053ZM126.568 32.84a.038.038 0 0 1-.053-.003l-.659-.72a.036.036 0 0 1 .002-.052.037.037 0 0 1 .052.002l.66.72a.037.037 0 0 1-.002.053ZM125.844 33.833a.038.038 0 0 1-.053-.003l-.659-.72a.037.037 0 0 1 .002-.053.038.038 0 0 1 .053.003l.659.72a.037.037 0 0 1-.002.052ZM124.572 38.455a.038.038 0 0 1-.053-.003l-.66-.72a.037.037 0 0 1 .055-.05l.66.72a.037.037 0 0 1-.002.052ZM124.957 39.71a.037.037 0 0 1-.052-.003l-.66-.72a.037.037 0 0 1 .002-.053.038.038 0 0 1 .053.002l.66.72c.013.015.013.04-.003.053ZM126.092 33.485a.038.038 0 0 1-.053-.002l-.659-.72a.037.037 0 0 1 .002-.053.037.037 0 0 1 .052.002l.66.72a.037.037 0 0 1-.002.053ZM130.596 30.26a.038.038 0 0 1-.053.002l-.72-.66a.036.036 0 0 1-.002-.052.036.036 0 0 1 .052-.003l.72.66a.036.036 0 0 1 .003.053ZM131.43 30.133a.038.038 0 0 1-.053 0l-.685-.696a.036.036 0 0 1 0-.053.037.037 0 0 1 .052 0l.686.695a.038.038 0 0 1 0 .053Z" fill="#0098FF"/>
        <path d="M136.94 5.183c1.106-3.64-2.1-7.839-7.162-9.376-5.062-1.538-10.062.167-11.168 3.807-1.106 3.64 2.101 7.839 7.162 9.376 5.062 1.538 10.062-.166 11.168-3.807Z" fill="#0380FF"/>
        <path d="m119.368-2.529-.762 2.14.425 1.096.654-.753-.317-2.483ZM136.48 5.727l.312-.138.728-2.039-1.321.25.281 1.927Z" fill="#0380FF"/>
        <path d="M137.548 3.477c1.106-3.64-2.101-7.839-7.162-9.376-5.062-1.538-10.062.167-11.168 3.807-1.106 3.64 2.1 7.839 7.162 9.376 5.062 1.538 10.062-.167 11.168-3.807Z" fill="#0098FF"/>
        <path d="M136.253 2.907c.896-2.948-1.841-6.389-6.111-7.685-4.271-1.297-8.458.042-9.353 2.99-.895 2.948 1.841 6.388 6.111 7.685 4.271 1.297 8.458-.042 9.353-2.99Z" fill="#0380FF"/>
        <path d="M129.996-4.41c4.27 1.297 7.006 4.738 6.11 7.686a2.495 2.495 0 0 1-.055.167c.079-.168.147-.343.202-.524.896-2.948-1.841-6.39-6.111-7.686-4.188-1.272-8.298-.009-9.298 2.822 1.208-2.577 5.144-3.681 9.152-2.465Z" fill="#076BFF"/>
        <path d="M122.124 5.117c.028.013.04.044.029.072l-.56 1.308a.054.054 0 0 1-.071.029.055.055 0 0 1-.028-.072l.559-1.309a.055.055 0 0 1 .072-.028h-.001ZM126.446 7.416c.027.012.04.044.028.071l-.559 1.309a.055.055 0 0 1-.072.028.055.055 0 0 1-.028-.072l.559-1.308a.055.055 0 0 1 .072-.029ZM128.201 7.783c.027.012.04.044.028.071l-.559 1.309a.055.055 0 0 1-.072.028.055.055 0 0 1-.028-.071l.559-1.309a.055.055 0 0 1 .072-.028ZM135.101 6.69c.028.012.04.044.029.071l-.56 1.309a.053.053 0 0 1-.071.028.055.055 0 0 1-.029-.071l.56-1.309a.054.054 0 0 1 .071-.028ZM136.537 5.426c.027.012.04.044.028.071l-.559 1.309a.055.055 0 0 1-.072.028.055.055 0 0 1-.028-.071l.559-1.309a.055.055 0 0 1 .072-.028ZM127.593 7.664c.027.012.04.044.028.071l-.559 1.309a.054.054 0 0 1-.071.028.055.055 0 0 1-.029-.072l.56-1.308a.054.054 0 0 1 .071-.029v.001ZM120.6 3.623c.028.01.043.04.034.069l-.443 1.352a.054.054 0 1 1-.102-.033l.442-1.353a.055.055 0 0 1 .069-.035ZM119.929 2.586a.054.054 0 0 1 .03.07l-.511 1.328a.055.055 0 0 1-.071.031.054.054 0 0 1-.03-.07l.511-1.329a.054.054 0 0 1 .07-.03h.001Z" fill="#0098FF"/>
        <path d="m87.214 58.59 2.316-.353 22.412 12.967-21.637.173s-6.502-9.601-6.502-9.774c0-.172 3.41-3.014 3.41-3.014Z" fill="#00BAC0"/>
        <path d="M91.623 29.8c-.52-.297-.827-.643-.921-1.038-.1-.346-.06-.72.11-1.041a.648.648 0 0 1 .218-.241.535.535 0 0 1 .27-.08.67.67 0 0 1 .531.304.539.539 0 0 1 .071.274.642.642 0 0 1-.09.313.614.614 0 0 1-.272.272.484.484 0 0 1-.308.04c.023.162.1.308.219.415.126.132.27.245.427.335.207.121.447.175.688.154.253-.029.492-.14.682-.317.23-.208.425-.455.574-.73.166-.28.278-.59.33-.911a1.187 1.187 0 0 0-.106-.744 1.194 1.194 0 0 0-.476-.493 1.214 1.214 0 0 0-.59-.108l-.471-.02.106-.189 2.918-1.34-2.278-1.3-1.323 2.364a.997.997 0 0 0-.145.555c.015.178.12.332.277.408a.719.719 0 0 0 .455.078c.175-.023.346-.076.505-.156a.132.132 0 0 1 .073-.033.094.094 0 0 1 .066.01.217.217 0 0 1 .081.108.277.277 0 0 1-.031.194 1.113 1.113 0 0 1-.087.106 1.284 1.284 0 0 1-.67.278c-.226.02-.45-.028-.645-.14-.493-.282-.779-.577-.857-.887a1.325 1.325 0 0 1 .179-.985l1.32-2.358-1.16-.66.247-.44 1.164.664.56-1.001-.112-.428.125-.225.774.442.203.32-.753 1.347 3.014 1.707.126.482-2.917.863c.137.017.271.055.397.112.23.145.424.345.563.583.174.254.271.555.281.867.016.269-.018.538-.1.796a3.207 3.207 0 0 1-.246.589 2.7 2.7 0 0 1-.801.895 1.678 1.678 0 0 1-1.079.316 2.474 2.474 0 0 1-1.116-.326ZM131.806 2.956c-.31.304-.642.421-.994.35a1.698 1.698 0 0 1-.89-.47.852.852 0 0 1-.186-.261.5.5 0 0 1-.041-.243.37.37 0 0 1 .318-.311.501.501 0 0 1 .244.044.838.838 0 0 1 .262.186.8.8 0 0 1 .208.316c.03.094.031.185.003.26a.514.514 0 0 0 .382-.021c.127-.052.239-.124.334-.216a.697.697 0 0 0 .204-.49 1.263 1.263 0 0 0-.205-.659 3.663 3.663 0 0 0-.573-.724 3.5 3.5 0 0 0-.755-.597 1.216 1.216 0 0 0-.655-.189.706.706 0 0 0-.476.196.743.743 0 0 0-.155.43l-.065.367-.153-.154-.861-2.81-1.36 1.331 1.912 1.92c.134.142.296.253.465.32.156.053.3.026.382-.07.08-.083.12-.2.115-.334a1.494 1.494 0 0 0-.083-.458.138.138 0 0 1-.022-.07c-.001-.02.004-.037.016-.05a.142.142 0 0 1 .102-.024.344.344 0 0 1 .164.096c.03.035.057.071.083.108.115.212.175.432.172.635a.65.65 0 0 1-.188.46c-.295.289-.58.407-.856.355a1.662 1.662 0 0 1-.835-.504l-1.906-1.914-.692.677-.355-.357.695-.68-.81-.813-.382-.068-.182-.183.462-.452.299-.044 1.089 1.094 1.789-1.768.43.077.447 2.635a.81.81 0 0 1 .138-.275c.15-.13.343-.209.564-.232.238-.045.508-.012.78.095.234.086.464.212.679.371.17.125.332.263.484.413.288.288.525.618.693.965.164.335.222.678.163.973a1.41 1.41 0 0 1-.398.767ZM61.442 26.05c-.116.177-.27.261-.463.253-.167 0-.358-.06-.53-.168a.54.54 0 0 1-.135-.117.28.28 0 0 1-.057-.12.162.162 0 0 1 .12-.18.282.282 0 0 1 .132.003c.056.014.112.04.163.074a.5.5 0 0 1 .154.143c.03.045.044.09.04.13.08.01.148-.004.194-.04a.451.451 0 0 0 .142-.134.318.318 0 0 0 .033-.263.743.743 0 0 0-.202-.316 2.344 2.344 0 0 0-.403-.32 2.223 2.223 0 0 0-.479-.242.709.709 0 0 0-.367-.045.323.323 0 0 0-.217.136.343.343 0 0 0-.017.227l.02.19-.102-.065-.858-1.349-.509.776 1.272.819c.09.061.19.105.288.125.088.014.159-.01.187-.065.029-.048.033-.11.01-.176a.842.842 0 0 0-.11-.225.082.082 0 0 1-.021-.033c-.004-.01-.004-.02 0-.026a.068.068 0 0 1 .05-.02.214.214 0 0 1 .1.035c.02.015.039.031.058.048.09.098.154.204.182.306a.298.298 0 0 1-.03.247c-.11.168-.24.25-.39.244a1.032 1.032 0 0 1-.507-.189l-1.268-.817-.259.395-.236-.152.26-.397-.539-.347-.208-.004-.12-.078.172-.264.149-.045.724.467.667-1.028.234.006.618 1.291c0-.054.01-.104.031-.148a.46.46 0 0 1 .258-.161.79.79 0 0 1 .417-.012c.134.025.272.07.406.134.107.05.211.107.312.17.191.123.362.271.5.433a.874.874 0 0 1 .227.477.63.63 0 0 1-.093.417ZM103.067 62.89c-.478.044-.866-.124-1.165-.505-.27-.32-.48-.775-.583-1.264a1.43 1.43 0 0 1-.026-.433.625.625 0 0 1 .103-.288c.128-.148.309-.164.489-.045.078.06.151.149.21.26.067.126.117.272.144.422.039.178.044.356.014.508a.437.437 0 0 1-.149.272c.113.166.247.277.381.311.153.058.304.08.449.069.192-.015.361-.13.484-.33.126-.218.192-.52.189-.86a6.143 6.143 0 0 0-.128-1.251 6.134 6.134 0 0 0-.379-1.278c-.132-.323-.315-.593-.52-.768-.191-.157-.39-.231-.575-.212a.676.676 0 0 0-.4.309l-.279.324-.058-.293.819-3.663-2.094.191.718 3.658c.046.264.138.522.263.738.118.19.273.29.409.26.125-.015.232-.101.305-.244.085-.155.149-.34.189-.547a.201.201 0 0 1 .021-.091c.01-.023.026-.036.044-.038.038.003.077.025.113.064a.616.616 0 0 1 .102.243c.008.062.013.123.017.184-.013.32-.085.6-.207.808-.115.188-.272.297-.452.312-.453.041-.798-.085-1.033-.38a2.884 2.884 0 0 1-.51-1.25l-.716-3.65-1.065.098-.133-.68 1.07-.097-.305-1.55-.328-.404-.069-.347.711-.065.314.216.41 2.083 2.762-.268.37.456-1.114 3.119a.69.69 0 0 1 .293-.164c.221-.003.454.083.681.251.255.162.497.432.696.78.175.294.324.625.437.978.091.277.167.562.226.85a5.85 5.85 0 0 1 .102 1.605c-.038.49-.184.896-.414 1.15-.234.267-.519.42-.833.447ZM128.998 38.544a.56.56 0 0 1-.141-.548c.039-.182.141-.38.285-.55a.626.626 0 0 1 .146-.128.277.277 0 0 1 .129-.043c.087.005.142.064.15.16a.376.376 0 0 1-.034.145.657.657 0 0 1-.11.166.562.562 0 0 1-.174.144.196.196 0 0 1-.137.022.313.313 0 0 0-.005.219.45.45 0 0 0 .099.177c.057.063.144.091.248.08a.769.769 0 0 0 .354-.17c.144-.11.281-.24.405-.386.133-.149.251-.313.346-.483a.886.886 0 0 0 .128-.393.35.35 0 0 0-.082-.26.304.304 0 0 0-.219-.057l-.19-.01.088-.1 1.512-.713-.64-.684-1.09 1.253a1.005 1.005 0 0 0-.188.294c-.035.093-.027.175.02.215.04.04.099.054.17.04a.839.839 0 0 0 .244-.083.086.086 0 0 1 .038-.017c.01-.003.019-.001.025.005a.08.08 0 0 1 .008.057.263.263 0 0 1-.057.102c-.02.02-.04.039-.06.056a.787.787 0 0 1-.341.149c-.098.011-.179-.015-.234-.074-.138-.148-.188-.304-.149-.467.048-.178.157-.366.301-.522l1.088-1.25-.326-.348.203-.232.327.35.462-.531.052-.227.103-.119.218.233.01.17-.621.713.849.898-.059.255-1.402.461c.053.01.1.029.138.059a.501.501 0 0 1 .098.308.986.986 0 0 1-.084.458 2.105 2.105 0 0 1-.224.421 3.467 3.467 0 0 1-.238.312 2.61 2.61 0 0 1-.536.475c-.183.12-.366.18-.518.17a.553.553 0 0 1-.385-.172Z" fill="#fff" style="mix-blend-mode:lighten"/>
    </g>
    <defs>
        <linearGradient id="a" x1="79" y1="0" x2="79" y2="158" gradientUnits="userSpaceOnUse">
            <stop offset=".224" stop-color="#FFBE0C"/>
            <stop offset="1" stop-color="#E1A61B"/>
        </linearGradient>
        <clipPath id="c">
            <rect width="158" height="158" rx="22" fill="#fff"/>
        </clipPath>
    </defs>
</svg>
