<svg width="390" height="162" viewBox="0 0 390 162" fill="none" xmlns="http://www.w3.org/2000/svg">
<path d="M25.66 78.96C25.66 77.5733 25.96 76.34 26.56 75.26C27.16 74.1667 27.9933 73.32 29.06 72.72C30.14 72.1067 31.36 71.8 32.72 71.8C34.3867 71.8 35.8133 72.24 37 73.12C38.1867 74 38.98 75.2 39.38 76.72H35.62C35.34 76.1333 34.94 75.6867 34.42 75.38C33.9133 75.0733 33.3333 74.92 32.68 74.92C31.6267 74.92 30.7733 75.2867 30.12 76.02C29.4667 76.7533 29.14 77.7333 29.14 78.96C29.14 80.1867 29.4667 81.1667 30.12 81.9C30.7733 82.6333 31.6267 83 32.68 83C33.3333 83 33.9133 82.8467 34.42 82.54C34.94 82.2333 35.34 81.7867 35.62 81.2H39.38C38.98 82.72 38.1867 83.92 37 84.8C35.8133 85.6667 34.3867 86.1 32.72 86.1C31.36 86.1 30.14 85.8 29.06 85.2C27.9933 84.5867 27.16 83.74 26.56 82.66C25.96 81.58 25.66 80.3467 25.66 78.96ZM46.7544 86.16C45.661 86.16 44.6744 85.9267 43.7944 85.46C42.9277 84.9933 42.241 84.3267 41.7344 83.46C41.241 82.5933 40.9944 81.58 40.9944 80.42C40.9944 79.2733 41.2477 78.2667 41.7544 77.4C42.261 76.52 42.9544 75.8467 43.8344 75.38C44.7144 74.9133 45.701 74.68 46.7944 74.68C47.8877 74.68 48.8744 74.9133 49.7544 75.38C50.6344 75.8467 51.3277 76.52 51.8344 77.4C52.341 78.2667 52.5944 79.2733 52.5944 80.42C52.5944 81.5667 52.3344 82.58 51.8144 83.46C51.3077 84.3267 50.6077 84.9933 49.7144 85.46C48.8344 85.9267 47.8477 86.16 46.7544 86.16ZM46.7544 83.2C47.4077 83.2 47.961 82.96 48.4144 82.48C48.881 82 49.1144 81.3133 49.1144 80.42C49.1144 79.5267 48.8877 78.84 48.4344 78.36C47.9944 77.88 47.4477 77.64 46.7944 77.64C46.1277 77.64 45.5744 77.88 45.1344 78.36C44.6944 78.8267 44.4744 79.5133 44.4744 80.42C44.4744 81.3133 44.6877 82 45.1144 82.48C45.5544 82.96 46.101 83.2 46.7544 83.2ZM68.8488 74.72C70.2354 74.72 71.3354 75.14 72.1488 75.98C72.9754 76.82 73.3888 77.9867 73.3888 79.48V86H69.9888V79.94C69.9888 79.22 69.7954 78.6667 69.4088 78.28C69.0354 77.88 68.5154 77.68 67.8488 77.68C67.1821 77.68 66.6554 77.88 66.2688 78.28C65.8954 78.6667 65.7088 79.22 65.7088 79.94V86H62.3088V79.94C62.3088 79.22 62.1154 78.6667 61.7287 78.28C61.3554 77.88 60.8354 77.68 60.1687 77.68C59.5021 77.68 58.9754 77.88 58.5887 78.28C58.2154 78.6667 58.0287 79.22 58.0287 79.94V86H54.6087V74.84H58.0287V76.24C58.3754 75.7733 58.8287 75.4067 59.3888 75.14C59.9488 74.86 60.5821 74.72 61.2888 74.72C62.1288 74.72 62.8754 74.9 63.5287 75.26C64.1954 75.62 64.7154 76.1333 65.0888 76.8C65.4754 76.1867 66.0021 75.6867 66.6688 75.3C67.3354 74.9133 68.0621 74.72 68.8488 74.72ZM77.7006 73.68C77.1006 73.68 76.6073 73.5067 76.2206 73.16C75.8473 72.8 75.6606 72.36 75.6606 71.84C75.6606 71.3067 75.8473 70.8667 76.2206 70.52C76.6073 70.16 77.1006 69.98 77.7006 69.98C78.2873 69.98 78.7673 70.16 79.1406 70.52C79.5273 70.8667 79.7206 71.3067 79.7206 71.84C79.7206 72.36 79.5273 72.8 79.1406 73.16C78.7673 73.5067 78.2873 73.68 77.7006 73.68ZM79.4006 74.84V86H75.9806V74.84H79.4006ZM88.8791 74.72C90.1857 74.72 91.2257 75.1467 91.9991 76C92.7857 76.84 93.1791 78 93.1791 79.48V86H89.7791V79.94C89.7791 79.1933 89.5857 78.6133 89.1991 78.2C88.8124 77.7867 88.2924 77.58 87.6391 77.58C86.9857 77.58 86.4657 77.7867 86.0791 78.2C85.6924 78.6133 85.4991 79.1933 85.4991 79.94V86H82.0791V74.84H85.4991V76.32C85.8457 75.8267 86.3124 75.44 86.8991 75.16C87.4857 74.8667 88.1457 74.72 88.8791 74.72ZM99.9956 74.68C100.782 74.68 101.469 74.84 102.056 75.16C102.656 75.48 103.116 75.9 103.436 76.42V74.84H106.856V85.98C106.856 87.0067 106.649 87.9333 106.236 88.76C105.836 89.6 105.216 90.2667 104.376 90.76C103.549 91.2533 102.516 91.5 101.276 91.5C99.6223 91.5 98.2823 91.1067 97.2556 90.32C96.229 89.5467 95.6423 88.4933 95.4956 87.16H98.8756C98.9823 87.5867 99.2356 87.92 99.6356 88.16C100.036 88.4133 100.529 88.54 101.116 88.54C101.822 88.54 102.382 88.3333 102.796 87.92C103.222 87.52 103.436 86.8733 103.436 85.98V84.4C103.102 84.92 102.642 85.3467 102.056 85.68C101.469 86 100.782 86.16 99.9956 86.16C99.0756 86.16 98.2423 85.9267 97.4956 85.46C96.749 84.98 96.1556 84.3067 95.7156 83.44C95.289 82.56 95.0756 81.5467 95.0756 80.4C95.0756 79.2533 95.289 78.2467 95.7156 77.38C96.1556 76.5133 96.749 75.8467 97.4956 75.38C98.2423 74.9133 99.0756 74.68 99.9956 74.68ZM103.436 80.42C103.436 79.5667 103.196 78.8933 102.716 78.4C102.249 77.9067 101.676 77.66 100.996 77.66C100.316 77.66 99.7356 77.9067 99.2556 78.4C98.789 78.88 98.5556 79.5467 98.5556 80.4C98.5556 81.2533 98.789 81.9333 99.2556 82.44C99.7356 82.9333 100.316 83.18 100.996 83.18C101.676 83.18 102.249 82.9333 102.716 82.44C103.196 81.9467 103.436 81.2733 103.436 80.42ZM118.508 86.16C117.535 86.16 116.668 85.9933 115.908 85.66C115.148 85.3267 114.548 84.8733 114.108 84.3C113.668 83.7133 113.421 83.06 113.368 82.34H116.748C116.788 82.7267 116.968 83.04 117.288 83.28C117.608 83.52 118.001 83.64 118.468 83.64C118.895 83.64 119.221 83.56 119.448 83.4C119.688 83.2267 119.808 83.0067 119.808 82.74C119.808 82.42 119.641 82.1867 119.308 82.04C118.975 81.88 118.435 81.7067 117.688 81.52C116.888 81.3333 116.221 81.14 115.688 80.94C115.155 80.7267 114.695 80.4 114.308 79.96C113.921 79.5067 113.728 78.9 113.728 78.14C113.728 77.5 113.901 76.92 114.248 76.4C114.608 75.8667 115.128 75.4467 115.808 75.14C116.501 74.8333 117.321 74.68 118.268 74.68C119.668 74.68 120.768 75.0267 121.568 75.72C122.381 76.4133 122.848 77.3333 122.968 78.48H119.808C119.755 78.0933 119.581 77.7867 119.288 77.56C119.008 77.3333 118.635 77.22 118.168 77.22C117.768 77.22 117.461 77.3 117.248 77.46C117.035 77.6067 116.928 77.8133 116.928 78.08C116.928 78.4 117.095 78.64 117.428 78.8C117.775 78.96 118.308 79.12 119.028 79.28C119.855 79.4933 120.528 79.7067 121.048 79.92C121.568 80.12 122.021 80.4533 122.408 80.92C122.808 81.3733 123.015 81.9867 123.028 82.76C123.028 83.4133 122.841 84 122.468 84.52C122.108 85.0267 121.581 85.4267 120.888 85.72C120.208 86.0133 119.415 86.16 118.508 86.16ZM130.4 86.16C129.307 86.16 128.32 85.9267 127.44 85.46C126.574 84.9933 125.887 84.3267 125.38 83.46C124.887 82.5933 124.64 81.58 124.64 80.42C124.64 79.2733 124.894 78.2667 125.4 77.4C125.907 76.52 126.6 75.8467 127.48 75.38C128.36 74.9133 129.347 74.68 130.44 74.68C131.534 74.68 132.52 74.9133 133.4 75.38C134.28 75.8467 134.974 76.52 135.48 77.4C135.987 78.2667 136.24 79.2733 136.24 80.42C136.24 81.5667 135.98 82.58 135.46 83.46C134.954 84.3267 134.254 84.9933 133.36 85.46C132.48 85.9267 131.494 86.16 130.4 86.16ZM130.4 83.2C131.054 83.2 131.607 82.96 132.06 82.48C132.527 82 132.76 81.3133 132.76 80.42C132.76 79.5267 132.534 78.84 132.08 78.36C131.64 77.88 131.094 77.64 130.44 77.64C129.774 77.64 129.22 77.88 128.78 78.36C128.34 78.8267 128.12 79.5133 128.12 80.42C128.12 81.3133 128.334 82 128.76 82.48C129.2 82.96 129.747 83.2 130.4 83.2ZM143.335 86.16C142.242 86.16 141.255 85.9267 140.375 85.46C139.508 84.9933 138.822 84.3267 138.315 83.46C137.822 82.5933 137.575 81.58 137.575 80.42C137.575 79.2733 137.828 78.2667 138.335 77.4C138.842 76.52 139.535 75.8467 140.415 75.38C141.295 74.9133 142.282 74.68 143.375 74.68C144.468 74.68 145.455 74.9133 146.335 75.38C147.215 75.8467 147.908 76.52 148.415 77.4C148.922 78.2667 149.175 79.2733 149.175 80.42C149.175 81.5667 148.915 82.58 148.395 83.46C147.888 84.3267 147.188 84.9933 146.295 85.46C145.415 85.9267 144.428 86.16 143.335 86.16ZM143.335 83.2C143.988 83.2 144.542 82.96 144.995 82.48C145.462 82 145.695 81.3133 145.695 80.42C145.695 79.5267 145.468 78.84 145.015 78.36C144.575 77.88 144.028 77.64 143.375 77.64C142.708 77.64 142.155 77.88 141.715 78.36C141.275 78.8267 141.055 79.5133 141.055 80.42C141.055 81.3133 141.268 82 141.695 82.48C142.135 82.96 142.682 83.2 143.335 83.2ZM157.989 74.72C159.296 74.72 160.336 75.1467 161.109 76C161.896 76.84 162.289 78 162.289 79.48V86H158.889V79.94C158.889 79.1933 158.696 78.6133 158.309 78.2C157.923 77.7867 157.403 77.58 156.749 77.58C156.096 77.58 155.576 77.7867 155.189 78.2C154.803 78.6133 154.609 79.1933 154.609 79.94V86H151.189V74.84H154.609V76.32C154.956 75.8267 155.423 75.44 156.009 75.16C156.596 74.8667 157.256 74.72 157.989 74.72Z" fill="white" fill-opacity="0.8"/>
<path d="M35.408 51.696V60H34.316V53.808L31.556 60H30.788L28.016 53.796V60H26.924V51.696H28.1L31.172 58.56L34.244 51.696H35.408ZM40.1279 60.108C39.5119 60.108 38.9519 59.968 38.4479 59.688C37.9519 59.408 37.5599 59.012 37.2719 58.5C36.9919 57.98 36.8519 57.38 36.8519 56.7C36.8519 56.028 36.9959 55.436 37.2839 54.924C37.5799 54.404 37.9799 54.008 38.4839 53.736C38.9879 53.456 39.5519 53.316 40.1759 53.316C40.7999 53.316 41.3639 53.456 41.8679 53.736C42.3719 54.008 42.7679 54.4 43.0559 54.912C43.3519 55.424 43.4999 56.02 43.4999 56.7C43.4999 57.38 43.3479 57.98 43.0439 58.5C42.7479 59.012 42.3439 59.408 41.8319 59.688C41.3199 59.968 40.7519 60.108 40.1279 60.108ZM40.1279 59.148C40.5199 59.148 40.8879 59.056 41.2319 58.872C41.5759 58.688 41.8519 58.412 42.0599 58.044C42.2759 57.676 42.3839 57.228 42.3839 56.7C42.3839 56.172 42.2799 55.724 42.0719 55.356C41.8639 54.988 41.5919 54.716 41.2559 54.54C40.9199 54.356 40.5559 54.264 40.1639 54.264C39.7639 54.264 39.3959 54.356 39.0599 54.54C38.7319 54.716 38.4679 54.988 38.2679 55.356C38.0679 55.724 37.9679 56.172 37.9679 56.7C37.9679 57.236 38.0639 57.688 38.2559 58.056C38.4559 58.424 38.7199 58.7 39.0479 58.884C39.3759 59.06 39.7359 59.148 40.1279 59.148ZM46.0277 54.492C46.2197 54.116 46.4917 53.824 46.8437 53.616C47.2037 53.408 47.6397 53.304 48.1517 53.304V54.432H47.8637C46.6397 54.432 46.0277 55.096 46.0277 56.424V60H44.9357V53.424H46.0277V54.492ZM55.4123 56.46C55.4123 56.668 55.4003 56.888 55.3763 57.12H50.1203C50.1603 57.768 50.3803 58.276 50.7803 58.644C51.1883 59.004 51.6803 59.184 52.2563 59.184C52.7283 59.184 53.1203 59.076 53.4323 58.86C53.7523 58.636 53.9763 58.34 54.1043 57.972H55.2803C55.1043 58.604 54.7523 59.12 54.2243 59.52C53.6963 59.912 53.0403 60.108 52.2563 60.108C51.6323 60.108 51.0723 59.968 50.5763 59.688C50.0883 59.408 49.7043 59.012 49.4243 58.5C49.1443 57.98 49.0043 57.38 49.0043 56.7C49.0043 56.02 49.1403 55.424 49.4123 54.912C49.6843 54.4 50.0643 54.008 50.5523 53.736C51.0483 53.456 51.6163 53.316 52.2563 53.316C52.8803 53.316 53.4323 53.452 53.9123 53.724C54.3923 53.996 54.7603 54.372 55.0163 54.852C55.2803 55.324 55.4123 55.86 55.4123 56.46ZM54.2843 56.232C54.2843 55.816 54.1923 55.46 54.0083 55.164C53.8243 54.86 53.5723 54.632 53.2523 54.48C52.9403 54.32 52.5923 54.24 52.2083 54.24C51.6563 54.24 51.1843 54.416 50.7923 54.768C50.4083 55.12 50.1883 55.608 50.1323 56.232H54.2843ZM68.8129 53.424L66.7609 60H65.6329L64.0489 54.78L62.4649 60H61.3369L59.2729 53.424H60.3889L61.9009 58.944L63.5329 53.424H64.6489L66.2449 58.956L67.7329 53.424H68.8129ZM70.4607 52.356C70.2527 52.356 70.0767 52.284 69.9327 52.14C69.7887 51.996 69.7167 51.82 69.7167 51.612C69.7167 51.404 69.7887 51.228 69.9327 51.084C70.0767 50.94 70.2527 50.868 70.4607 50.868C70.6607 50.868 70.8287 50.94 70.9647 51.084C71.1087 51.228 71.1807 51.404 71.1807 51.612C71.1807 51.82 71.1087 51.996 70.9647 52.14C70.8287 52.284 70.6607 52.356 70.4607 52.356ZM70.9887 53.424V60H69.8967V53.424H70.9887ZM72.4418 56.688C72.4418 56.016 72.5778 55.428 72.8498 54.924C73.1218 54.412 73.4938 54.016 73.9658 53.736C74.4458 53.456 74.9818 53.316 75.5738 53.316C76.0858 53.316 76.5618 53.436 77.0018 53.676C77.4418 53.908 77.7778 54.216 78.0098 54.6V51.12H79.1138V60H78.0098V58.764C77.7938 59.156 77.4738 59.48 77.0498 59.736C76.6258 59.984 76.1298 60.108 75.5618 60.108C74.9778 60.108 74.4458 59.964 73.9658 59.676C73.4938 59.388 73.1218 58.984 72.8498 58.464C72.5778 57.944 72.4418 57.352 72.4418 56.688ZM78.0098 56.7C78.0098 56.204 77.9098 55.772 77.7098 55.404C77.5098 55.036 77.2378 54.756 76.8938 54.564C76.5578 54.364 76.1858 54.264 75.7778 54.264C75.3698 54.264 74.9978 54.36 74.6618 54.552C74.3258 54.744 74.0578 55.024 73.8578 55.392C73.6578 55.76 73.5578 56.192 73.5578 56.688C73.5578 57.192 73.6578 57.632 73.8578 58.008C74.0578 58.376 74.3258 58.66 74.6618 58.86C74.9978 59.052 75.3698 59.148 75.7778 59.148C76.1858 59.148 76.5578 59.052 76.8938 58.86C77.2378 58.66 77.5098 58.376 77.7098 58.008C77.9098 57.632 78.0098 57.196 78.0098 56.7ZM83.6712 53.316C84.2392 53.316 84.7352 53.44 85.1592 53.688C85.5912 53.936 85.9112 54.248 86.1192 54.624V53.424H87.2232V60.144C87.2232 60.744 87.0952 61.276 86.8392 61.74C86.5832 62.212 86.2152 62.58 85.7352 62.844C85.2632 63.108 84.7112 63.24 84.0792 63.24C83.2152 63.24 82.4952 63.036 81.9192 62.628C81.3432 62.22 81.0032 61.664 80.8992 60.96H81.9792C82.0992 61.36 82.3472 61.68 82.7232 61.92C83.0992 62.168 83.5512 62.292 84.0792 62.292C84.6792 62.292 85.1672 62.104 85.5432 61.728C85.9272 61.352 86.1192 60.824 86.1192 60.144V58.764C85.9032 59.148 85.5832 59.468 85.1592 59.724C84.7352 59.98 84.2392 60.108 83.6712 60.108C83.0872 60.108 82.5552 59.964 82.0752 59.676C81.6032 59.388 81.2312 58.984 80.9592 58.464C80.6872 57.944 80.5512 57.352 80.5512 56.688C80.5512 56.016 80.6872 55.428 80.9592 54.924C81.2312 54.412 81.6032 54.016 82.0752 53.736C82.5552 53.456 83.0872 53.316 83.6712 53.316ZM86.1192 56.7C86.1192 56.204 86.0192 55.772 85.8192 55.404C85.6192 55.036 85.3472 54.756 85.0032 54.564C84.6672 54.364 84.2952 54.264 83.8872 54.264C83.4792 54.264 83.1072 54.36 82.7712 54.552C82.4352 54.744 82.1672 55.024 81.9672 55.392C81.7672 55.76 81.6672 56.192 81.6672 56.688C81.6672 57.192 81.7672 57.632 81.9672 58.008C82.1672 58.376 82.4352 58.66 82.7712 58.86C83.1072 59.052 83.4792 59.148 83.8872 59.148C84.2952 59.148 84.6672 59.052 85.0032 58.86C85.3472 58.66 85.6192 58.376 85.8192 58.008C86.0192 57.632 86.1192 57.196 86.1192 56.7ZM95.0685 56.46C95.0685 56.668 95.0565 56.888 95.0325 57.12H89.7765C89.8165 57.768 90.0365 58.276 90.4365 58.644C90.8445 59.004 91.3365 59.184 91.9125 59.184C92.3845 59.184 92.7765 59.076 93.0885 58.86C93.4085 58.636 93.6325 58.34 93.7605 57.972H94.9365C94.7605 58.604 94.4085 59.12 93.8805 59.52C93.3525 59.912 92.6965 60.108 91.9125 60.108C91.2885 60.108 90.7285 59.968 90.2325 59.688C89.7445 59.408 89.3605 59.012 89.0805 58.5C88.8005 57.98 88.6605 57.38 88.6605 56.7C88.6605 56.02 88.7965 55.424 89.0685 54.912C89.3405 54.4 89.7205 54.008 90.2085 53.736C90.7045 53.456 91.2725 53.316 91.9125 53.316C92.5365 53.316 93.0885 53.452 93.5685 53.724C94.0485 53.996 94.4165 54.372 94.6725 54.852C94.9365 55.324 95.0685 55.86 95.0685 56.46ZM93.9405 56.232C93.9405 55.816 93.8485 55.46 93.6645 55.164C93.4805 54.86 93.2285 54.632 92.9085 54.48C92.5965 54.32 92.2485 54.24 91.8645 54.24C91.3125 54.24 90.8405 54.416 90.4485 54.768C90.0645 55.12 89.8445 55.608 89.7885 56.232H93.9405ZM97.8419 54.324V58.2C97.8419 58.52 97.9099 58.748 98.0459 58.884C98.1819 59.012 98.4179 59.076 98.7539 59.076H99.5579V60H98.5739C97.9659 60 97.5099 59.86 97.2059 59.58C96.9019 59.3 96.7499 58.84 96.7499 58.2V54.324H95.8979V53.424H96.7499V51.768H97.8419V53.424H99.5579V54.324H97.8419ZM103.209 60.108C102.705 60.108 102.253 60.024 101.853 59.856C101.453 59.68 101.137 59.44 100.905 59.136C100.673 58.824 100.545 58.468 100.521 58.068H101.649C101.681 58.396 101.833 58.664 102.105 58.872C102.385 59.08 102.749 59.184 103.197 59.184C103.613 59.184 103.941 59.092 104.181 58.908C104.421 58.724 104.541 58.492 104.541 58.212C104.541 57.924 104.413 57.712 104.157 57.576C103.901 57.432 103.505 57.292 102.969 57.156C102.481 57.028 102.081 56.9 101.769 56.772C101.465 56.636 101.201 56.44 100.977 56.184C100.761 55.92 100.653 55.576 100.653 55.152C100.653 54.816 100.753 54.508 100.953 54.228C101.153 53.948 101.437 53.728 101.805 53.568C102.173 53.4 102.593 53.316 103.065 53.316C103.793 53.316 104.381 53.5 104.829 53.868C105.277 54.236 105.517 54.74 105.549 55.38H104.457C104.433 55.036 104.293 54.76 104.037 54.552C103.789 54.344 103.453 54.24 103.029 54.24C102.637 54.24 102.325 54.324 102.093 54.492C101.861 54.66 101.745 54.88 101.745 55.152C101.745 55.368 101.813 55.548 101.949 55.692C102.093 55.828 102.269 55.94 102.477 56.028C102.693 56.108 102.989 56.2 103.365 56.304C103.837 56.432 104.221 56.56 104.517 56.688C104.813 56.808 105.065 56.992 105.273 57.24C105.489 57.488 105.601 57.812 105.609 58.212C105.609 58.572 105.509 58.896 105.309 59.184C105.109 59.472 104.825 59.7 104.457 59.868C104.097 60.028 103.681 60.108 103.209 60.108Z" fill="white" fill-opacity="0.8"/>
<g clip-path="url(#clip0_2497_12430)">
<path d="M241.094 79.1813L310.69 88.2893L353.382 32.568L283.785 23.4599L241.094 79.1813Z" stroke="#1E1C1F" stroke-linejoin="round"/>
<path d="M241.094 79.1813L310.69 88.2893L337.605 153.12L268.009 144.012L241.094 79.1813Z" stroke="#1E1C1F" stroke-linejoin="round"/>
<path d="M335.964 55.3001L294.766 49.9084L269.491 82.8977L285.427 121.27L326.625 126.662L351.889 93.6809L335.964 55.3001Z" fill="#FF006E"/>
<path d="M353.382 32.568L283.785 23.4599L241.094 79.1813L268.009 144.012L337.605 153.12L380.297 97.3987L353.382 32.568Z" stroke="#1E1C1F" stroke-linejoin="round"/>
<path d="M283.785 23.4599L310.69 88.2893L268.009 144.012L241.094 79.1813L283.785 23.4599Z" stroke="#1E1C1F" stroke-linejoin="round"/>
<path d="M310.69 88.2893L380.297 97.3986L337.605 153.12L268.009 144.012L310.69 88.2893Z" stroke="#1E1C1F" stroke-linecap="round" stroke-linejoin="round"/>
</g>
<path d="M372.38 7.3382C372.38 3.83632 369.61 1 366.19 1C362.77 1 360 3.83632 360 7.3382C360 10.8401 362.77 13.6764 366.19 13.6764C369.61 13.6764 372.38 10.8401 372.38 7.3382Z" stroke="#8637EB" stroke-linecap="round" stroke-linejoin="round"/>
<g clip-path="url(#clip1_2497_12430)">
<path d="M1.41498 128.846L-1.79251 126.945L-5 128.846L-5 132.639L-1.79251 134.531L1.41498 132.639L1.41498 128.846Z" fill="#8637EB"/>
<path d="M9.17353 128.846L5.96604 126.945L2.75854 128.846L2.75854 132.639L5.96604 134.531L9.17353 132.639L9.17353 128.846Z" fill="#8637EB"/>
<path d="M16.9325 128.846L13.725 126.945L10.5098 128.846L10.5098 132.639L13.725 134.531L16.9325 132.639L16.9325 128.846Z" fill="#8637EB"/>
<path d="M24.6903 128.846L21.4751 126.945L18.2676 128.846L18.2676 132.639L21.4751 134.531L24.6903 132.639L24.6903 128.846Z" fill="#8637EB"/>
<path d="M32.4414 128.846L29.2339 126.945L26.0264 128.846L26.0264 132.639L29.2339 134.531L32.4414 132.639L32.4414 128.846Z" fill="#8637EB"/>
<path d="M36.9925 126.945L33.785 128.846L33.785 132.639L36.9925 134.531L40.2 132.639L40.2 128.846L36.9925 126.945Z" fill="#8637EB"/>
<path d="M-1.125 135.335L-1.125 139.136L2.09026 141.028L5.29775 139.136L5.29775 135.335L2.09026 133.442L-1.125 135.335Z" fill="#8637EB"/>
<path d="M6.63391 135.335L6.63391 139.136L9.8414 141.028L13.0567 139.136L13.0567 135.335L9.8414 133.442L6.63391 135.335Z" fill="#8637EB"/>
<path d="M14.3925 135.335L14.3925 139.136L17.6 141.028L20.8075 139.136L20.8075 135.335L17.6 133.442L14.3925 135.335Z" fill="#8637EB"/>
<path d="M22.1514 135.335L22.1514 139.136L25.3589 141.028L28.5664 139.136L28.5664 135.335L25.3589 133.442L22.1514 135.335Z" fill="#8637EB"/>
<path d="M29.9014 135.335L29.9014 139.136L33.1166 141.028L36.3241 139.136L36.3241 135.335L33.1166 133.442L29.9014 135.335Z" fill="#8637EB"/>
</g>
<g clip-path="url(#clip2_2497_12430)">
<path d="M246.081 124.463L232.798 119.136L219.509 124.463L206.22 119.136L200.144 121.57L199 118.575L206.22 115.682L219.509 121.009L232.798 115.682L246.081 121.009L259.37 115.682L266.59 118.575L265.446 121.57L259.37 119.136L246.081 124.463Z" fill="#FFBE0C"/>
<path d="M246.081 133.245L232.798 127.924L219.509 133.245L206.22 127.924L200.144 130.358L199 127.356L206.22 124.463L219.509 129.79L232.798 124.463L246.081 129.79L259.37 124.463L266.59 127.356L265.446 130.358L259.37 127.924L246.081 133.245Z" fill="#FFBE0C"/>
</g>
<g clip-path="url(#clip3_2497_12430)">
<path d="M396.16 33.7662L380.05 33.7662L372 48.0502L380.05 62.3342L396.16 62.3342L404.21 48.0502L396.16 33.7662ZM391.59 54.2246L384.63 54.2246L381.15 48.0502L384.63 41.8758L391.59 41.8758L395.07 48.0502L391.59 54.2246Z" fill="#FF3334"/>
</g>
<path d="M205.37 63.655C205.37 60.1532 202.6 57.3168 199.19 57.3168C195.78 57.3168 193 60.1532 193 63.655C193 67.1569 195.77 69.9932 199.19 69.9932C202.61 69.9932 205.38 67.1569 205.38 63.655H205.37Z" stroke="#FF006E" stroke-linecap="round" stroke-linejoin="round"/>
<path d="M126.38 127.14C126.38 123.638 123.61 120.801 120.19 120.801C116.77 120.801 114 123.638 114 127.14C114 130.641 116.77 133.478 120.19 133.478C123.61 133.478 126.38 130.641 126.38 127.14Z" stroke="#FFBE0C" stroke-linecap="round" stroke-linejoin="round"/>
<defs>
<clipPath id="clip0_2497_12430">
<rect width="141.39" height="122.58" fill="white" transform="translate(248.551 18.3446) rotate(7.45586)"/>
</clipPath>
<clipPath id="clip1_2497_12430">
<rect width="45.2" height="14.0835" fill="white" transform="translate(-5 126.945)"/>
</clipPath>
<clipPath id="clip2_2497_12430">
<rect width="67.59" height="17.5633" fill="white" transform="translate(199 115.682)"/>
</clipPath>
<clipPath id="clip3_2497_12430">
<rect width="32.21" height="28.5578" fill="white" transform="translate(372 33.7662)"/>
</clipPath>
</defs>
</svg>
