<svg width="158" height="158" viewBox="0 0 158 158" fill="none" xmlns="http://www.w3.org/2000/svg">
<g clip-path="url(#clip0_2497_12692)">
<mask id="mask0_2497_12692" style="mask-type:alpha" maskUnits="userSpaceOnUse" x="0" y="0" width="158" height="158">
<rect width="158" height="158" rx="22" fill="url(#paint0_linear_2497_12692)"/>
</mask>
<g mask="url(#mask0_2497_12692)">
</g>
<g clip-path="url(#clip1_2497_12692)">
<g clip-path="url(#clip2_2497_12692)">
<path d="M65.3043 82.447L64.4203 81.9309C61.1476 80.0188 61.5583 76.6802 65.3367 74.4721L126.927 38.4918C130.705 36.2838 136.421 36.0444 139.694 37.9565L140.578 38.4726C143.851 40.3848 143.44 43.7234 139.662 45.9314L78.0726 81.9117C74.2943 84.1197 68.5782 84.3592 65.3054 82.447H65.3043Z" fill="#080344"/>
<g opacity="0.5">
<path d="M70.8778 89C67.8797 89 64.9753 88.3427 62.6994 87.0133L61.8153 86.4972C58.7547 84.7093 57 81.8643 57 78.6906C57 75.2345 59.0895 72.0314 62.7317 69.9036L124.322 33.9233C129.709 30.7767 137.438 30.5463 142.301 33.388L143.186 33.9052C146.245 35.6931 148 38.5382 148 41.7119C148 45.1679 145.91 48.3699 142.268 50.4977L80.6781 86.478C77.8128 88.1518 74.2845 89 70.8778 89ZM69.1745 78.319C70.9682 78.6748 73.6326 78.415 75.4666 77.3443L135.826 42.0834C134.031 41.7265 131.366 41.9874 129.533 43.0581L69.1745 78.319Z" fill="#0098FF"/>
</g>
<path d="M65.3043 82.447L64.4203 81.9309C61.1476 80.0188 61.5583 76.6802 65.3367 74.4721L126.927 38.4918C130.705 36.2838 136.421 36.0444 139.694 37.9565L140.578 38.4726C143.851 40.3848 143.44 43.7234 139.662 45.9314L78.0726 81.9117C74.2943 84.1197 68.5782 84.3592 65.3054 82.447H65.3043Z" fill="#080344"/>
<path d="M65.3386 79.1672L126.929 43.1869C130.707 40.9789 136.424 40.7394 139.696 42.6515L140.58 43.1677C141.084 43.4625 141.491 43.7934 141.821 44.1469C143.42 42.1761 143.053 39.9161 140.58 38.4715L139.696 37.9554C136.423 36.0432 130.707 36.2838 126.929 38.4907L65.3386 74.471C62.1418 76.338 61.366 79.0125 63.1809 80.9506C63.6977 80.3136 64.4155 79.7071 65.3386 79.1672Z" fill="#0098FF"/>
<path style="mix-blend-mode:lighten" opacity="0.15" d="M131.276 30.701V-43H72.5105V56.8643L131.276 30.701Z" fill="url(#paint1_linear_2497_12692)"/>
<mask id="mask1_2497_12692" style="mask-type:alpha" maskUnits="userSpaceOnUse" x="63" y="-12" width="80" height="96">
<path d="M65.3046 82.447L64.4206 81.9309C61.1478 80.0188 64.2944 15.8851 68.0728 13.6771L123.513 -10.9547C127.291 -13.1627 136.422 36.0444 139.694 37.9565L140.578 38.4726C143.851 40.3848 143.44 43.7234 139.662 45.9314L78.0729 81.9117C74.2945 84.1197 68.5784 84.3592 65.3057 82.447H65.3046Z" fill="white"/>
</mask>
<g mask="url(#mask1_2497_12692)">
<path d="M84.4706 76.2792L85.2832 74.9962C88.9891 75.3689 93.301 74.4258 97.9511 71.9919C112.774 64.2338 125.415 44.27 126.187 27.4019C126.429 22.1094 125.472 17.7521 123.589 14.5016L124.402 13.2186L119.313 9.91948C114.709 6.93439 108.155 7.02814 100.744 10.9077C85.9206 18.6658 73.2795 38.6296 72.5082 55.4977C72.1231 63.9323 74.7786 69.995 79.383 72.9801L84.4718 76.2792H84.4706Z" fill="#006FFF"/>
<path d="M121.238 45.9958C124.11 39.8686 125.912 33.4376 126.187 27.4019C126.43 22.1094 125.473 17.7521 123.59 14.5016L124.403 13.2186L119.314 9.91948C114.709 6.93439 108.156 7.02814 100.745 10.9077C95.4403 13.6839 90.4207 18.0277 86.1188 23.2276L121.238 45.9958Z" fill="#006FFF"/>
<path d="M72.5049 55.6174C72.15 63.9887 74.7999 70.0109 79.3819 72.9813L84.4707 76.2803L85.2833 74.9973C88.4422 75.3147 92.0442 74.6664 95.9185 72.9643L96.8919 71.4283L72.5061 55.6185L72.5049 55.6174Z" fill="#006FFF"/>
<path d="M86.0902 75.0402C86.9987 75.0843 87.9397 75.0515 88.9119 74.9408L73.6199 65.0267C73.9257 65.9686 74.2941 66.8462 74.7126 67.6639L86.089 75.0391L86.0902 75.0402Z" fill="#0098FF"/>
<path d="M126.187 27.402C126.294 25.0584 126.154 22.9102 125.814 20.9484L106.687 8.54836C106.026 8.72568 105.356 8.92897 104.675 9.17293L125.407 22.6132L123.775 25.1917L101.31 10.6276C101.121 10.7225 100.934 10.8083 100.744 10.9077C100.386 11.0952 100.031 11.2951 99.6759 11.4973L122.91 26.5594L121.278 29.1379L96.8196 13.2818C96.3441 13.6071 95.8708 13.9436 95.402 14.2915L120.412 30.5056L118.78 33.0841L92.8916 16.3008C92.4675 16.6633 92.0489 17.0338 91.6325 17.4133L117.914 34.4519L116.282 37.0304L89.3845 19.5931C89.0028 19.985 88.6244 20.3825 88.2515 20.788L115.416 38.3981L113.784 40.9766L86.2212 23.1079C85.8751 23.5246 85.5336 23.9459 85.1965 24.3728L112.918 42.3443L111.286 44.9228L83.3581 26.8169C83.0455 27.2563 82.7386 27.7013 82.4361 28.1485L110.419 46.2906L108.788 48.869L80.7897 30.718C80.5084 31.1788 80.2327 31.6441 79.9637 32.1117L107.921 50.2368L106.289 52.8153L78.497 34.7975C78.2481 35.2809 78.0048 35.7665 77.7692 36.2544L105.424 54.183L103.793 56.7615L76.4979 39.0656C76.2836 39.5738 76.0782 40.0832 75.8784 40.5937L102.926 58.1293L101.294 60.7077L74.8224 43.546C74.6472 44.0814 74.4809 44.6167 74.3246 45.1521L100.428 62.0755L98.7964 64.654L73.5187 48.2671C73.3915 48.8363 73.2743 49.4033 73.1705 49.9702L97.9302 66.0217L96.2983 68.6002L72.6883 53.2942C72.6246 53.9086 72.5733 54.5196 72.5398 55.1272L95.4321 69.9691L93.8002 72.5476L72.5242 58.755C72.561 59.4597 72.6257 60.1396 72.7083 60.8037L92.934 73.9153L92.7889 74.1434C94.4521 73.6386 96.18 72.9305 97.957 71.9998C101.415 70.1905 104.751 67.7091 107.849 64.7658L123.832 39.5241C125.18 35.4469 126.013 31.3437 126.193 27.4099L126.187 27.402Z" fill="#0098FF"/>
<path d="M124.553 16.495C124.263 15.7959 123.949 15.1228 123.589 14.5016L123.842 14.104L114.515 8.05706C113.463 7.8707 112.357 7.79729 111.203 7.83908L124.554 16.495H124.553Z" fill="#0098FF"/>
<path d="M122.425 56.414C133.452 39.0005 134.337 19.6619 124.401 13.2201C114.466 6.77833 97.472 15.6727 86.4447 33.0863C75.4175 50.4998 74.5326 69.8384 84.4683 76.2802C94.404 82.722 111.398 73.8276 122.425 56.414Z" fill="#0098FF"/>
<path opacity="0.2" d="M96.8892 49.82C96.321 62.2381 102.35 69.506 111.481 69.3863C122.387 59.7703 130.657 44.2418 131.276 30.701C131.843 18.2829 125.816 11.015 116.684 11.1348C105.779 20.7507 97.5087 36.2793 96.8903 49.82H96.8892Z" fill="white"/>
<path opacity="0.7" d="M77.5967 58.7979C78.368 41.9298 91.0091 21.966 105.832 14.2079C112.995 10.4593 119.351 10.2549 123.926 12.9384C119.304 9.64051 112.565 9.59646 104.905 13.6059C90.0815 21.364 77.4404 41.3278 76.6691 58.1959C76.2707 66.9128 79.1259 73.0886 84.0183 75.9584C79.6963 72.8751 77.2239 66.9478 77.5967 58.7967V58.7979Z" fill="white"/>
<path d="M117.205 53.0298C125.033 40.6692 125.661 26.942 118.608 22.3693C111.555 17.7966 99.492 24.1099 91.6646 36.4705C83.8372 48.8311 83.2093 62.5583 90.2622 67.131C97.3151 71.7037 109.378 65.3904 117.205 53.0298Z" fill="#0080FF"/>
<path d="M122.322 34.0216C121.775 45.9947 112.8 60.1656 102.279 65.6727C97.3308 68.2625 92.9218 68.4737 89.6959 66.7276C92.9809 69.2463 97.871 69.3468 103.445 66.4295C113.967 60.9223 122.941 46.7514 123.488 34.7783C123.778 28.4354 121.644 23.9832 118.011 22.0157C120.927 24.2508 122.579 28.3925 122.322 34.0227V34.0216Z" fill="#006CFF"/>
<path opacity="0.4" d="M122.322 34.0216C121.775 45.9947 112.8 60.1656 102.279 65.6727C97.3308 68.2625 92.9218 68.4737 89.6959 66.7276C92.9809 69.2463 97.871 69.3468 103.445 66.4295C113.967 60.9223 122.941 46.7514 123.488 34.7783C123.778 28.4354 121.644 23.9832 118.011 22.0157C120.927 24.2508 122.579 28.3925 122.322 34.0227V34.0216Z" fill="#006CFF"/>
<path opacity="0.4" d="M81.0037 74.0328L84.4696 76.2792C85.2498 76.7852 86.0903 77.1952 86.9777 77.5204L122.002 57.0597C122.335 56.5469 122.662 56.0308 122.981 55.509C123.042 55.4084 123.105 55.3091 123.165 55.2085C123.348 54.9058 123.527 54.6009 123.704 54.2948C123.797 54.1367 123.888 53.9775 123.979 53.8182C124.145 53.5279 124.308 53.2365 124.47 52.9429C124.567 52.7667 124.662 52.5883 124.758 52.4109C124.912 52.1241 125.067 51.8372 125.217 51.548C125.307 51.373 125.394 51.1968 125.482 51.0217C125.735 50.5225 125.981 50.0222 126.219 49.5185C126.328 49.2881 126.439 49.0577 126.545 48.8261C126.659 48.5776 126.769 48.328 126.88 48.0796C126.988 47.8345 127.095 47.5894 127.2 47.3432C127.257 47.211 127.312 47.0789 127.367 46.9456L117.35 52.7972L115.909 52.4764L90.7371 67.2065L91.601 67.8401L81.0026 74.0316L81.0037 74.0328Z" fill="#8E3D00"/>
</g>
<path d="M93.0435 33.2276L91.1046 26.1426L83.8113 26.1234L90.7196 24.1356L90.8312 16.7819L92.837 23.8059L100.064 23.886L93.1774 25.9179L93.0435 33.2276Z" fill="white"/>
<g style="mix-blend-mode:lighten">
<path d="M99.8128 55.0611C99.0274 54.4386 98.6835 53.6254 98.7811 52.6214C98.8349 51.7487 99.1738 50.7607 99.7239 49.8735C99.8904 49.6034 100.092 49.365 100.309 49.1816C100.5 49.0268 100.697 48.9284 100.879 48.8964C101.285 48.8575 101.583 49.0932 101.683 49.5329C101.715 49.7343 101.696 49.9737 101.626 50.2258C101.544 50.5142 101.409 50.8057 101.234 51.0703C101.037 51.3954 100.787 51.6722 100.523 51.8584C100.306 52.0091 100.089 52.0775 99.9061 52.0532C99.836 52.4671 99.8805 52.8277 100.032 53.0722C100.18 53.3793 100.376 53.6317 100.612 53.822C100.924 54.077 101.345 54.1466 101.819 54.0216C102.324 53.8728 102.859 53.5128 103.346 52.9951C103.933 52.3853 104.478 51.684 104.955 50.9233C105.469 50.1437 105.9 49.3037 106.225 48.4498C106.491 47.7725 106.604 47.1018 106.546 46.5414C106.486 46.029 106.291 45.6306 105.984 45.3935C105.692 45.226 105.331 45.1881 104.933 45.2829L104.045 45.3705L104.381 44.8453L110.899 40.4965L107.459 37.7706L103.27 44.3243C102.959 44.7895 102.726 45.3092 102.603 45.8151C102.507 46.2738 102.598 46.6467 102.845 46.7983C103.057 46.9543 103.342 46.9791 103.66 46.869C104.01 46.758 104.374 46.5707 104.734 46.3149C104.786 46.2611 104.843 46.2237 104.896 46.2076C104.944 46.1881 104.986 46.1906 105.017 46.2146C105.07 46.2723 105.097 46.3628 105.095 46.4732C105.075 46.6406 105.005 46.8237 104.899 46.9864C104.822 47.091 104.742 47.1918 104.66 47.2881C104.179 47.7523 103.666 48.0723 103.182 48.2099C102.737 48.3299 102.343 48.2675 102.05 48.031C101.305 47.4408 100.967 46.7535 101.036 45.9692C101.135 45.1112 101.507 44.1663 102.069 43.3473L106.247 36.81L104.498 35.4235L105.276 34.2058L107.033 35.5988L108.808 32.8224L108.894 31.7395L109.292 31.1169L110.459 32.0424L110.623 32.8207L108.237 36.5529L112.798 40.1276L112.7 41.3474L106.519 44.4504C106.77 44.4553 106.999 44.5145 107.2 44.626C107.538 44.939 107.766 45.4044 107.866 45.9844C108.019 46.5964 107.994 47.353 107.794 48.1645C107.635 48.8598 107.381 49.5736 107.044 50.2691C106.782 50.8197 106.485 51.3587 106.159 51.8777C105.531 52.8638 104.792 53.7429 103.999 54.4467C103.235 55.1318 102.43 55.5339 101.716 55.5864C100.977 55.6522 100.326 55.4724 99.8128 55.0611Z" fill="white"/>
</g>
</g>
</g>
</g>
<defs>
<linearGradient id="paint0_linear_2497_12692" x1="79" y1="0" x2="79" y2="158" gradientUnits="userSpaceOnUse">
<stop offset="0.223958" stop-color="#FFBE0C"/>
<stop offset="1" stop-color="#E1A61B"/>
</linearGradient>
<linearGradient id="paint1_linear_2497_12692" x1="101.892" y1="30.7123" x2="101.892" y2="-53.8888" gradientUnits="userSpaceOnUse">
<stop stop-color="#0098FF"/>
<stop offset="0.14" stop-color="#0072CB"/>
<stop offset="0.29" stop-color="#01509B"/>
<stop offset="0.44" stop-color="#013373"/>
<stop offset="0.59" stop-color="#021C54"/>
<stop offset="0.74" stop-color="#020C3E"/>
<stop offset="0.88" stop-color="#020331"/>
<stop offset="1" stop-color="#03002D"/>
</linearGradient>
<clipPath id="clip0_2497_12692">
<rect width="158" height="158" fill="white"/>
</clipPath>
<clipPath id="clip1_2497_12692">
<rect width="158" height="158" rx="22" fill="white"/>
</clipPath>
<clipPath id="clip2_2497_12692">
<rect width="91" height="132" fill="white" transform="translate(57 -43)"/>
</clipPath>
</defs>
</svg>
