<svg width="13" height="10" viewBox="0 0 13 10" fill="none" xmlns="http://www.w3.org/2000/svg">
<path d="M6.50065 1.50001C8.71148 1.50001 10.6832 2.74251 11.6457 4.70834C10.6832 6.67418 8.71148 7.91668 6.50065 7.91668C4.28982 7.91668 2.31815 6.67418 1.35565 4.70834C2.31815 2.74251 4.28982 1.50001 6.50065 1.50001ZM6.50065 0.333344C3.58398 0.333344 1.09315 2.14751 0.0839844 4.70834C1.09315 7.26918 3.58398 9.08334 6.50065 9.08334C9.41732 9.08334 11.9082 7.26918 12.9173 4.70834C11.9082 2.14751 9.41732 0.333344 6.50065 0.333344ZM6.50065 4.41668C7.30565 4.41668 7.95898 5.07001 7.95898 5.87501C7.95898 6.68001 7.30565 6.16668 6.50065 6.16668C5.69565 6.16668 5.04232 5.51334 5.04232 4.70834C5.04232 3.90334 5.69565 3.25001 6.50065 3.25001M6.50065 2.08334C5.05398 2.08334 3.87565 3.26168 3.87565 4.70834C3.87565 6.15501 5.05398 7.33334 6.50065 7.33334C7.94732 7.33334 9.12565 6.15501 9.12565 4.70834C9.12565 3.26168 7.94732 2.08334 6.50065 2.08334Z" fill="#C197FF"/>
</svg>
