<svg width="14" height="12" viewBox="0 0 14 12" fill="none" xmlns="http://www.w3.org/2000/svg">
<path d="M7.00065 2.5C9.21148 2.5 11.1832 3.7425 12.1457 5.70834C11.8015 6.42 11.3173 7.0325 10.7398 7.52834L11.5623 8.35084C12.3732 7.63334 13.0148 6.735 13.4173 5.70834C12.4082 3.1475 9.91732 1.33334 7.00065 1.33334C6.25982 1.33334 5.54815 1.45 4.87732 1.66584L5.83982 2.62834C6.21898 2.5525 6.60398 2.5 7.00065 2.5ZM6.37648 3.165L7.58398 4.3725C7.91648 4.51834 8.18482 4.78667 8.33065 5.11917L9.53815 6.32667C9.58482 6.12834 9.61982 5.91834 9.61982 5.7025C9.62565 4.25584 8.44732 3.08334 7.00065 3.08334C6.78482 3.08334 6.58065 3.1125 6.37648 3.165ZM1.17315 1.2575L2.73648 2.82084C1.78565 3.5675 1.03315 4.55917 0.583984 5.70834C1.59315 8.26917 4.08398 10.0833 7.00065 10.0833C7.88732 10.0833 8.73898 9.91417 9.52065 9.605L11.5157 11.6L12.3382 10.7775L1.99565 0.429169L1.17315 1.2575ZM5.54815 5.6325L7.07065 7.155C7.04732 7.16083 7.02398 7.16667 7.00065 7.16667C6.19565 7.16667 5.54232 6.51334 5.54232 5.70834C5.54232 5.67917 5.54815 5.66167 5.54815 5.6325V5.6325ZM3.56482 3.64917L4.58565 4.67C4.45148 4.99084 4.37565 5.34084 4.37565 5.70834C4.37565 7.155 5.55398 8.33334 7.00065 8.33334C7.36815 8.33334 7.71815 8.2575 8.03315 8.12334L8.60482 8.695C8.09148 8.835 7.55482 8.91667 7.00065 8.91667C4.78982 8.91667 2.81815 7.67417 1.85565 5.70834C2.26398 4.87417 2.85898 4.18583 3.56482 3.64917Z" fill="#C197FF"/>
</svg>
