<svg width="24" height="24" viewBox="0 0 24 24" fill="none" xmlns="http://www.w3.org/2000/svg">
<path d="M4.8 4.8H11.1V3H4.8C3.81 3 3 3.81 3 4.8V11.1H4.8V4.8ZM10.2 12.9L6.6 17.4H17.4L14.7 13.8L12.873 16.239L10.2 12.9ZM16.5 8.85C16.5 8.103 15.897 7.5 15.15 7.5C14.403 7.5 13.8 8.103 13.8 8.85C13.8 9.597 14.403 10.2 15.15 10.2C15.897 10.2 16.5 9.597 16.5 8.85ZM19.2 3H12.9V4.8H19.2V11.1H21V4.8C21 3.81 20.19 3 19.2 3ZM19.2 19.2H12.9V21H19.2C20.19 21 21 20.19 21 19.2V12.9H19.2V19.2ZM4.8 12.9H3V19.2C3 20.19 3.81 21 4.8 21H11.1V19.2H4.8V12.9Z" fill="#FAECFF"/>
</svg>
