<svg width="158" height="158" viewBox="0 0 158 158" fill="none" xmlns="http://www.w3.org/2000/svg">
<mask id="mask0_2497_12580" style="mask-type:alpha" maskUnits="userSpaceOnUse" x="0" y="0" width="158" height="158">
<rect width="158" height="158" rx="22" fill="url(#paint0_linear_2497_12580)"/>
</mask>
<g mask="url(#mask0_2497_12580)">
<g clip-path="url(#clip0_2497_12580)">
<path d="M162.95 73.6502C162.944 76.1751 162.936 78.7003 162.93 81.2226C162.924 83.4447 163.068 85.695 162.383 87.8412C161.039 92.0694 157.515 95.2426 153.803 97.4481C152.67 98.124 151.491 98.7273 150.285 99.2661C148.29 100.155 146.211 100.86 144.095 101.415C143.45 101.586 142.802 101.743 142.154 101.887C140.821 102.178 139.475 102.417 138.119 102.602C135.791 102.922 133.44 103.085 131.088 103.096C130.87 103.099 130.648 103.099 130.429 103.096C129.932 103.096 129.43 103.085 128.936 103.068C125.811 102.969 122.685 102.619 119.619 101.971C118.384 101.71 117.158 101.401 115.946 101.045C115.8 101 115.657 100.958 115.511 100.91C112.315 99.9311 109.173 98.5816 106.376 96.7382C105.644 96.2583 104.936 95.7422 104.255 95.1894C101.157 92.6728 98.5816 89.1881 98.2841 85.0973C98.2309 84.3595 98.2562 83.6157 98.2618 82.8809C98.2645 81.5817 98.2675 80.2771 98.2731 78.9782C98.2784 76.9748 98.2841 74.9743 98.2871 72.9709C98.2871 73.7789 98.377 74.59 98.5507 75.381C99.4991 79.7021 102.726 83.0184 106.376 85.4088C107.268 85.9952 108.183 86.5254 109.097 86.9996C111.151 88.0656 113.303 88.9242 115.511 89.6031C116.861 90.0241 118.236 90.3718 119.619 90.661C120.898 90.9303 122.186 91.1462 123.474 91.3176C128.322 91.9599 133.271 91.9573 138.119 91.298C138.496 91.2474 138.871 91.1912 139.245 91.1323C140.875 90.8744 142.496 90.5432 144.095 90.1222C146.214 89.5695 148.293 88.8596 150.285 87.9704C151.306 87.5214 152.308 87.0162 153.281 86.4665C158.09 83.7365 162.832 79.2558 162.947 73.3387C162.95 73.2798 162.95 73.2179 162.95 73.159V73.6502Z" fill="#58128E"/>
<path d="M99.3282 75.7364C99.4573 81.3926 104.168 85.6544 108.896 88.2385C113.236 90.6094 118.115 91.9868 123.02 92.6854C128.21 93.4235 133.53 93.4122 138.715 92.6404C143.599 91.9139 148.459 90.5055 152.757 88.0898C157.468 85.4384 162.067 81.0501 161.912 75.3547C161.78 70.4672 158.141 66.5362 154.16 63.972C149.954 61.2618 145.053 59.6484 140.123 58.7561C134.955 57.819 129.624 57.6619 124.406 58.2483C119.456 58.8041 114.518 60.0271 110.055 62.2212C105.61 64.404 101.113 67.8215 99.7239 72.7006C99.4377 73.6824 99.3032 74.7067 99.3282 75.7364Z" fill="url(#paint1_linear_2497_12580)" fill-opacity="0.9"/>
<path d="M101.616 75.7195C101.737 80.8399 106.103 84.6977 110.485 87.0349C114.506 89.1784 119.029 90.4267 123.577 91.0581C128.385 91.726 133.318 91.7177 138.124 91.0188C142.652 90.3622 147.156 89.0886 151.14 86.9001C155.505 84.5013 159.767 80.5284 159.624 75.3714C159.503 70.9469 156.131 67.3923 152.439 65.069C148.542 62.617 143.999 61.155 139.429 60.347C134.639 59.4997 129.699 59.3566 124.859 59.887C120.271 60.3892 115.693 61.4974 111.557 63.4809C107.438 65.4561 103.269 68.5507 101.981 72.9643C101.72 73.8622 101.594 74.788 101.616 75.7195Z" fill="url(#paint2_radial_2497_12580)" fill-opacity="0.5"/>
<path d="M159.612 76.0336C159.39 80.8678 155.311 84.6021 151.136 86.8974C147.154 89.0859 142.648 90.3595 138.12 91.0161C133.314 91.7146 128.384 91.7259 123.572 91.0554C119.027 90.424 114.504 89.1754 110.481 87.0318C106.158 84.7256 101.853 80.9407 101.624 75.9214C101.612 76.1318 101.61 76.3451 101.612 76.5554C101.733 81.6758 106.099 85.5336 110.481 87.8708C114.502 90.0174 119.024 91.263 123.572 91.8943C128.381 92.5619 133.314 92.5536 138.12 91.8551C142.648 91.1985 147.152 89.9245 151.136 87.736C155.501 85.3372 159.763 81.3643 159.62 76.2076C159.62 76.1514 159.615 76.0925 159.612 76.0336Z" fill="#320555"/>
<path d="M162.946 75.3381C162.808 70.1558 159.051 65.9865 154.938 63.2679C153.443 62.2775 151.86 61.4245 150.219 60.695C148.266 59.8281 146.232 59.1296 144.164 58.5768C142.93 58.2456 141.684 57.9678 140.436 57.7351C139.667 57.592 138.892 57.4656 138.115 57.3591C133.511 56.7111 128.809 56.6632 124.193 57.1963C122.661 57.3704 121.132 57.6117 119.615 57.9258C118.228 58.2094 116.856 58.5545 115.507 58.9695C113.394 59.6121 111.338 60.4171 109.368 61.4105C108.361 61.921 107.348 62.4908 106.372 63.1274C102.893 65.3944 99.8148 68.4864 98.6953 72.5209C98.4061 73.5732 98.266 74.6591 98.2883 75.7504C98.4035 81.0082 102.16 85.1299 106.372 87.9104C106.966 88.3031 107.572 88.6679 108.176 89.01C110.496 90.3092 112.962 91.3306 115.51 92.1076C116.859 92.5256 118.234 92.8764 119.617 93.1653C120.664 93.3869 121.716 93.5723 122.768 93.7237C127.841 94.4645 133.037 94.4925 138.118 93.7996C138.404 93.7603 138.693 93.718 138.979 93.6761C140.722 93.4095 142.456 93.0588 144.164 92.6042C146.232 92.0627 148.263 91.3725 150.219 90.5056C151.336 90.0147 152.427 89.4619 153.488 88.8502C158.355 86.0331 163.106 81.3786 162.946 75.3381ZM152.755 88.0871C151.928 88.5527 151.086 88.9794 150.219 89.3694C148.272 90.256 146.241 90.9628 144.164 91.5156C142.368 91.9982 140.542 92.3686 138.713 92.6378C138.514 92.6687 138.317 92.694 138.118 92.722C133.121 93.4095 128.009 93.3926 123.021 92.6827C121.884 92.52 120.745 92.321 119.617 92.0824C118.231 91.7905 116.859 91.4371 115.51 91.0104C113.218 90.2979 110.995 89.386 108.897 88.2359C108.047 87.77 107.197 87.2538 106.374 86.6787C102.623 84.0749 99.4358 80.3743 99.3293 75.7364C99.307 74.7124 99.4415 73.6827 99.722 72.695C100.724 69.1823 103.333 66.4271 106.374 64.3481C107.558 63.5371 108.81 62.8272 110.053 62.2159C111.806 61.3543 113.636 60.6388 115.51 60.0637C116.859 59.6431 118.231 59.2949 119.617 59.0061C121.203 58.6749 122.804 58.4253 124.404 58.2456C128.952 57.7321 133.584 57.7884 138.118 58.4363C138.789 58.5292 139.454 58.6357 140.121 58.7565C141.477 59.0004 142.829 59.3006 144.167 59.6654C146.243 60.2264 148.277 60.9363 150.222 61.8285C151.585 62.4515 152.904 63.164 154.161 63.9721C158.142 66.5366 161.781 70.4672 161.91 75.3547C162.062 81.0475 157.463 85.4358 152.755 88.0871Z" fill="#58128E"/>
<path d="M99.7212 73.6434C101.11 68.767 105.607 65.3468 110.052 63.164C114.516 60.9729 119.454 59.7469 124.403 59.1911C129.624 58.6077 134.952 58.7648 140.12 59.6989C145.053 60.5912 149.954 62.2072 154.157 64.9149C157.967 67.3699 161.463 71.9179 161.87 76.5165C161.904 76.1321 161.918 75.742 161.909 75.3437C161.777 70.4559 158.139 66.5253 154.157 63.9607C149.951 61.2504 145.05 59.6374 140.12 58.7451C134.952 57.808 129.621 57.6509 124.403 58.2373C119.454 58.7927 114.516 60.0161 110.052 62.2102C105.607 64.393 101.11 67.8102 99.7212 72.6893C99.4407 73.6797 99.3029 74.7037 99.3282 75.7334C99.3339 75.9663 99.3508 76.1993 99.3705 76.4266C99.4264 75.773 99.5389 74.2801 99.7212 73.6434Z" fill="#320555"/>
<path d="M159.688 75.3687C159.567 70.9468 156.186 67.3862 152.488 65.0689C151.753 64.6087 150.996 64.1824 150.219 63.7893C149.573 63.4612 148.911 63.1554 148.243 62.8718C146.919 62.3107 145.556 61.8395 144.164 61.4355C143.709 61.3064 143.255 61.1802 142.797 61.0651C141.686 60.7819 140.567 60.5433 139.445 60.3496C139.004 60.274 138.558 60.1981 138.115 60.1336C137.862 60.0943 137.613 60.0607 137.36 60.0271C133.219 59.4743 128.991 59.435 124.841 59.8866C123.463 60.0384 122.086 60.2431 120.722 60.5096C120.352 60.5799 119.981 60.6584 119.614 60.7396C118.744 60.9333 117.88 61.1519 117.027 61.3989C116.516 61.5476 116.009 61.7047 115.504 61.8731C114.137 62.3304 112.799 62.8635 111.505 63.4808C110.599 63.9158 109.69 64.401 108.809 64.9481C107.959 65.473 107.137 66.0507 106.365 66.685C104.303 68.3796 102.639 70.4586 101.904 72.9669C101.643 73.8648 101.52 74.7906 101.54 75.7221C101.618 79.2068 103.675 82.1078 106.365 84.3385C107.14 84.9838 107.962 85.5702 108.809 86.1003C109.345 86.4341 109.887 86.7456 110.431 87.0401C112.05 87.8988 113.75 88.6199 115.501 89.2063C116.003 89.3747 116.511 89.5345 117.024 89.6832C117.877 89.9358 118.738 90.1574 119.611 90.3508C119.979 90.438 120.349 90.5135 120.72 90.5868C121.662 90.7774 122.608 90.9319 123.553 91.0637C128.115 91.695 132.787 91.7203 137.357 91.1282C137.61 91.0946 137.857 91.0637 138.112 91.0244C138.118 91.0244 138.126 91.0214 138.131 91.0214C139.694 90.7971 141.257 90.4969 142.792 90.1095C143.249 89.9947 143.704 89.8739 144.158 89.7421C145.547 89.3494 146.913 88.8778 148.238 88.3168C148.908 88.0362 149.565 87.7334 150.213 87.4049C150.538 87.2452 150.858 87.0768 151.178 86.9027C155.558 84.5009 159.833 80.5253 159.688 75.3687ZM150.524 86.2518C150.423 86.305 150.322 86.3586 150.219 86.4088C148.302 87.4079 146.265 88.1963 144.164 88.808C142.186 89.3857 140.157 89.8093 138.118 90.1012C138.045 90.1125 137.972 90.1238 137.899 90.1348C133.233 90.7941 128.452 90.8054 123.783 90.1741C122.389 89.9834 120.994 89.7395 119.617 89.425C118.225 89.1081 116.851 88.7238 115.509 88.2608C113.983 87.7387 112.505 87.1187 111.085 86.3809C109.429 85.5253 107.779 84.4507 106.374 83.1711C104.16 81.168 102.553 78.6623 102.482 75.7138C102.463 74.8382 102.584 73.9599 102.836 73.1156C103.453 71.0673 104.744 69.3224 106.374 67.8521C108.057 66.3399 110.097 65.1192 112.125 64.1737C113.225 63.6606 114.356 63.2116 115.512 62.8216C116.853 62.3587 118.228 61.9769 119.62 61.6654C121.401 61.2614 123.219 60.9752 125.032 60.7819C129.378 60.3216 133.805 60.4001 138.123 61.0484C138.474 61.1017 138.822 61.1576 139.17 61.2165C140.853 61.5027 142.531 61.8844 144.172 62.367C146.271 62.987 148.313 63.781 150.227 64.7827C150.76 65.0603 151.282 65.3552 151.792 65.6693C155.373 67.8578 158.647 71.2104 158.765 75.3826C158.894 80.2421 154.758 83.9877 150.524 86.2518Z" fill="#58128E"/>
<path d="M102.836 73.9267C104.085 69.7661 108.13 66.8481 112.126 64.9851C116.138 63.1138 120.579 62.0699 125.029 61.596C129.723 61.0964 134.515 61.2312 139.164 62.0306C143.597 62.794 148.005 64.1715 151.787 66.4834C155.215 68.5793 158.358 72.4594 158.723 76.3847C158.753 76.0563 158.768 75.7225 158.756 75.383C158.639 71.2108 155.367 67.8582 151.787 65.6697C148.005 63.3578 143.597 61.9803 139.164 61.2169C134.518 60.4175 129.723 60.2854 125.029 60.7823C120.579 61.2565 116.138 62.3001 112.126 64.1715C108.13 66.0345 104.085 68.9524 102.836 73.113C102.584 73.9577 102.46 74.8329 102.482 75.7112C102.488 75.9105 102.502 76.1069 102.522 76.3032C102.569 75.7421 102.671 74.4682 102.836 73.9267Z" fill="#320555"/>
<path d="M131.849 69.2882L122.641 74.6053L129.366 67.8545L126.333 66.104L110.95 74.984L113.124 76.241L124.266 69.8074L116.135 77.9775L118.618 79.4112L134.001 70.5312L131.849 69.2882ZM135.036 79.0185L131.917 77.2171L136.554 74.5407L140.533 76.8357L142.73 75.5674L136.336 71.875L120.952 80.7554L123.371 82.1498L129.72 78.4827L132.84 80.2838L135.036 79.0185ZM143.782 76.1764L141.585 77.4444L144.113 78.9033L130.929 86.5154L133.348 87.9098L146.532 80.2978L149.06 81.7567L151.256 80.4888L143.782 76.1764Z" fill="#7F1FC9"/>
<path d="M131.849 69.2602L122.641 74.5773L129.366 67.8265L126.333 66.076L110.95 74.956L113.124 76.213L124.266 69.7794L116.135 77.9495L118.618 79.3832L134.001 70.5032L131.849 69.2602ZM135.036 78.9905L131.917 77.1894L136.554 74.5127L140.533 76.8077L142.73 75.5394L136.336 71.8474L120.952 80.7274L123.371 82.1218L129.72 78.4547L132.84 80.2558L135.036 78.9905ZM143.782 76.1484L141.585 77.4164L144.113 78.8754L130.929 86.4874L133.348 87.8818L146.532 80.2698L149.06 81.7288L151.256 80.4608L143.782 76.1484Z" fill="#7F1FC9"/>
<path d="M131.849 69.2323L122.641 74.5493L129.366 67.7986L126.333 66.0481L110.95 74.9281L113.124 76.185L124.266 69.7514L116.135 77.9216L118.618 79.3552L134.001 70.4752L131.849 69.2323ZM135.036 78.9625L131.917 77.1615L136.554 74.4848L140.533 76.7797L142.73 75.5115L136.336 71.8194L120.952 80.6994L123.371 82.0938L129.72 78.4267L132.84 80.2278L135.036 78.9625ZM143.782 76.1205L141.585 77.3884L144.113 78.8474L130.929 86.4594L133.348 87.8539L146.532 80.2418L149.06 81.7008L151.256 80.4328L143.782 76.1205Z" fill="#7F1FC9"/>
<path d="M131.849 69.2046L122.641 74.5214L129.366 67.7706L126.333 66.0201L110.95 74.9001L113.124 76.1571L124.266 69.7235L116.135 77.8936L118.618 79.3273L134.001 70.4473L131.849 69.2046ZM135.036 78.9346L131.917 77.1335L136.554 74.4568L140.533 76.7518L142.73 75.4835L136.336 71.7915L120.952 80.6715L123.371 82.0659L129.72 78.3988L132.84 80.1999L135.036 78.9346ZM143.782 76.0925L141.585 77.3605L144.113 78.8194L130.929 86.4315L133.348 87.8259L146.532 80.2139L149.06 81.6728L151.256 80.4049L143.782 76.0925Z" fill="#7F1FC9"/>
<path d="M131.849 69.1767L122.641 74.4934L129.366 67.7426L126.333 65.9921L110.95 74.8721L113.124 76.1291L124.266 69.6955L116.135 77.8656L118.618 79.2993L134.001 70.4193L131.849 69.1767ZM135.036 78.9066L131.917 77.1055L136.554 74.4288L140.533 76.7238L142.73 75.4555L136.336 71.7635L120.952 80.6435L123.371 82.0379L129.72 78.3708L132.84 80.1719L135.036 78.9066ZM143.782 76.0645L141.585 77.3325L144.113 78.7915L130.929 86.4035L133.348 87.7979L146.532 80.1859L149.06 81.6449L151.256 80.3769L143.782 76.0645Z" fill="#7F1FC9"/>
<path d="M131.849 69.1481L122.641 74.4648L129.366 67.7144L126.333 65.9635L110.95 74.8435L113.124 76.1005L124.266 69.6672L116.135 77.8374L118.618 79.271L134.001 70.3911L131.849 69.1481ZM135.036 78.878L131.917 77.0769L136.554 74.4002L140.533 76.6952L142.73 75.4273L136.336 71.7349L120.952 80.6149L123.371 82.0093L129.72 78.3422L132.84 80.1436L135.036 78.878ZM143.782 76.0359L141.585 77.3042L144.113 78.7632L130.929 86.3749L133.348 87.7693L146.532 80.1576L149.06 81.6166L151.256 80.3483L143.782 76.0359Z" fill="#7F1FC9"/>
<path d="M131.849 69.1201L122.641 74.4368L129.366 67.6864L126.333 65.9355L110.95 74.8155L113.124 76.0725L124.266 69.6392L116.135 77.8094L118.618 79.2431L134.001 70.3631L131.849 69.1201ZM135.036 78.85L131.917 77.0489L136.554 74.3723L140.533 76.6672L142.73 75.3993L136.336 71.7069L120.952 80.5869L123.371 81.9813L129.72 78.3142L132.84 80.1157L135.036 78.85ZM143.782 76.008L141.585 77.2762L144.113 78.7352L130.929 86.3469L133.348 87.7413L146.532 80.1296L149.06 81.5886L151.256 80.3203L143.782 76.008Z" fill="#7F1FC9"/>
<path d="M131.849 69.0921L122.641 74.4088L129.366 67.6584L126.333 65.9076L110.95 74.7876L113.124 76.0445L124.266 69.6113L116.135 77.7814L118.618 79.2151L134.001 70.3351L131.849 69.0921ZM135.036 78.8221L131.917 77.021L136.554 74.3443L140.533 76.6392L142.73 75.3713L136.336 71.6789L120.952 80.5589L123.371 81.9533L129.72 78.2863L132.84 80.0877L135.036 78.8221ZM143.782 75.98L141.585 77.2483L144.113 78.7072L130.929 86.3189L133.348 87.7134L146.532 80.1017L149.06 81.5606L151.256 80.2923L143.782 75.98Z" fill="#7F1FC9"/>
<path d="M131.849 69.0642L122.641 74.3809L129.366 67.6305L126.333 65.8797L110.95 74.7597L113.124 76.0166L124.266 69.5834L116.135 77.7535L118.618 79.1872L134.001 70.3072L131.849 69.0642ZM135.036 78.7945L131.917 76.9931L136.554 74.3164L140.533 76.6113L142.73 75.3434L136.336 71.651L120.952 80.531L123.371 81.9254L129.72 78.2584L132.84 80.0598L135.036 78.7945ZM143.782 75.9521L141.585 77.2204L144.113 78.6793L130.929 86.291L133.348 87.6855L146.532 80.0738L149.06 81.5327L151.256 80.2644L143.782 75.9521Z" fill="#7F1FC9"/>
<path d="M131.849 69.0362L122.641 74.353L129.366 67.6026L126.333 65.8517L110.95 74.7317L113.124 75.9887L124.266 69.5554L116.135 77.7255L118.618 79.1592L134.001 70.2792L131.849 69.0362ZM135.036 78.7665L131.917 76.9651L136.554 74.2884L140.533 76.5834L142.73 75.3154L136.336 71.6231L120.952 80.5031L123.371 81.8975L129.72 78.2304L132.84 80.0318L135.036 78.7665ZM143.782 75.9241L141.585 77.1924L144.113 78.6514L130.929 86.2631L133.348 87.6575L146.532 80.0458L149.06 81.5048L151.256 80.2365L143.782 75.9241Z" fill="#7F1FC9"/>
<path d="M131.849 69.0076L122.641 74.3243L129.366 67.5739L126.333 65.8234L110.95 74.7034L113.124 75.9604L124.266 69.5267L116.135 77.6969L118.618 79.1306L134.001 70.2506L131.849 69.0076ZM135.036 78.7379L131.917 76.9365L136.554 74.2601L140.533 76.5551L142.73 75.2868L136.336 71.5944L120.952 80.4744L123.371 81.8692L129.72 78.2021L132.84 80.0032L135.036 78.7379ZM143.782 75.8958L141.585 77.1637L144.113 78.6227L130.929 86.2348L133.348 87.6292L146.532 80.0171L149.06 81.4761L151.256 80.2082L143.782 75.8958Z" fill="#7F1FC9"/>
<path d="M131.849 68.9797L122.641 74.2968L129.366 67.546L126.333 65.7955L110.95 74.6755L113.124 75.9325L124.266 69.4989L116.135 77.669L118.618 79.1027L134.001 70.2227L131.849 68.9797ZM135.036 78.71L131.917 76.9086L136.554 74.2322L140.533 76.5272L142.73 75.2589L136.336 71.5665L120.952 80.4469L123.371 81.8413L129.72 78.1742L132.84 79.9753L135.036 78.71ZM143.782 75.8679L141.585 77.1359L144.113 78.5948L130.929 86.2069L133.348 87.6013L146.532 79.9893L149.06 81.4482L151.256 80.1803L143.782 75.8679Z" fill="#7F1FC9"/>
<path d="M131.849 68.9517L122.641 74.2688L129.366 67.518L126.333 65.7675L110.95 74.6475L113.124 75.9045L124.266 69.4709L116.135 77.641L118.618 79.0747L134.001 70.1947L131.849 68.9517ZM135.036 78.682L131.917 76.8806L136.554 74.2042L140.533 76.4992L142.73 75.2309L136.336 71.5385L120.952 80.4189L123.371 81.8133L129.72 78.1462L132.84 79.9473L135.036 78.682ZM143.782 75.8399L141.585 77.1079L144.113 78.5669L130.929 86.1789L133.348 87.5733L146.532 79.9613L149.06 81.4203L151.256 80.1523L143.782 75.8399Z" fill="#7F1FC9"/>
<path d="M131.849 68.9238L122.641 74.2408L129.366 67.4901L126.333 65.7396L110.95 74.6196L113.124 75.8765L124.266 69.4429L116.135 77.6131L118.618 79.0467L134.001 70.1667L131.849 68.9238ZM135.036 78.654L131.917 76.853L136.554 74.1763L140.533 76.4712L142.73 75.2029L136.336 71.5109L120.952 80.3909L123.371 81.7853L129.72 78.1182L132.84 79.9193L135.036 78.654ZM143.782 75.812L141.585 77.0799L144.113 78.5389L130.929 86.1509L133.348 87.5454L146.532 79.9333L149.06 81.3923L151.256 80.1243L143.782 75.812Z" fill="#7F1FC9"/>
<path d="M131.849 68.8958L122.641 74.2129L129.366 67.4621L126.333 65.7116L110.95 74.5916L113.124 75.8486L124.266 69.415L116.135 77.5851L118.618 79.0188L134.001 70.1388L131.849 68.8958ZM135.036 78.6261L131.917 76.825L136.554 74.1483L140.533 76.4433L142.73 75.175L136.336 71.483L120.952 80.363L123.371 81.7574L129.72 78.0903L132.84 79.8914L135.036 78.6261ZM143.782 75.784L141.585 77.052L144.113 78.511L130.929 86.123L133.348 87.5174L146.532 79.9054L149.06 81.3643L151.256 80.0964L143.782 75.784Z" fill="#7F1FC9"/>
<path d="M131.849 68.8675L122.641 74.1842L129.366 67.4338L126.333 65.6829L110.95 74.5629L113.124 75.8199L124.266 69.3866L116.135 77.5568L118.618 78.9904L134.001 70.1104L131.849 68.8675ZM135.036 78.5974L131.917 76.7963L136.554 74.1196L140.533 76.4146L142.73 75.1466L136.336 71.4543L120.952 80.3343L123.371 81.7287L129.72 78.0616L132.84 79.863L135.036 78.5974ZM143.782 75.7553L141.585 77.0236L144.113 78.4826L130.929 86.0943L133.348 87.4887L146.532 79.877L149.06 81.336L151.256 80.0677L143.782 75.7553Z" fill="#7F1FC9"/>
<path d="M131.849 68.8395L122.641 74.1563L129.366 67.4058L126.333 65.655L110.95 74.535L113.124 75.792L124.266 69.3587L116.135 77.5288L118.618 78.9625L134.001 70.0825L131.849 68.8395ZM135.036 78.5695L131.917 76.7684L136.554 74.0917L140.533 76.3867L142.73 75.1187L136.336 71.4263L120.952 80.3063L123.371 81.7008L129.72 78.0337L132.84 79.8351L135.036 78.5695ZM143.782 75.7274L141.585 76.9957L144.113 78.4547L130.929 86.0664L133.348 87.4608L146.532 79.8491L149.06 81.3081L151.256 80.0398L143.782 75.7274Z" fill="#7F1FC9"/>
<path d="M131.849 68.8116L122.641 74.1284L129.366 67.3779L126.333 65.6271L110.95 74.5071L113.124 75.764L124.266 69.3308L116.135 77.5009L118.618 78.9346L134.001 70.0546L131.849 68.8116ZM135.036 78.5416L131.917 76.7405L136.554 74.0638L140.533 76.3588L142.73 75.0908L136.336 71.3984L120.952 80.2784L123.371 81.6728L129.72 78.0058L132.84 79.8072L135.036 78.5416ZM143.782 75.6995L141.585 76.9678L144.113 78.4268L130.929 86.0385L133.348 87.4329L146.532 79.8212L149.06 81.2801L151.256 80.0119L143.782 75.6995Z" fill="#7F1FC9"/>
<path d="M131.849 68.7836L122.641 74.1004L129.366 67.3499L126.333 65.5991L110.95 74.4791L113.124 75.7361L124.266 69.3028L116.135 77.4729L118.618 78.9066L134.001 70.0266L131.849 68.7836ZM135.036 78.5136L131.917 76.7125L136.554 74.0358L140.533 76.3308L142.73 75.0628L136.336 71.3704L120.952 80.2504L123.371 81.6449L129.72 77.9778L132.84 79.7792L135.036 78.5136ZM143.782 75.6715L141.585 76.9398L144.113 78.3988L130.929 86.0105L133.348 87.4049L146.532 79.7932L149.06 81.2522L151.256 79.9839L143.782 75.6715Z" fill="#7F1FC9"/>
<path d="M131.849 68.7557L122.641 74.0725L129.366 67.322L126.333 65.5712L110.95 74.4512L113.124 75.7082L124.266 69.2749L116.135 77.445L118.618 78.8787L134.001 69.9987L131.849 68.7557ZM135.036 78.4857L131.917 76.6846L136.554 74.0079L140.533 76.3029L142.73 75.0349L136.336 71.3425L120.952 80.2225L123.371 81.617L129.72 77.9499L132.84 79.7513L135.036 78.4857ZM143.782 75.6436L141.585 76.9119L144.113 78.3709L130.929 85.9826L133.348 87.377L146.532 79.7653L149.06 81.2243L151.256 79.956L143.782 75.6436Z" fill="#7F1FC9"/>
<path d="M131.849 68.7271L122.641 74.0438L129.366 67.2934L126.333 65.5425L110.95 74.4229L113.124 75.6795L124.266 69.2462L116.135 77.4164L118.618 78.8501L134.001 69.9701L131.849 68.7271ZM135.036 78.4574L131.917 76.6559L136.554 73.9793L140.533 76.2746L142.73 75.0063L136.336 71.3139L120.952 80.1939L123.371 81.5883L129.72 77.9216L132.84 79.7227L135.036 78.4574ZM143.782 75.6153L141.585 76.8832L144.113 78.3422L130.929 85.9543L133.348 87.3487L146.532 79.7366L149.06 81.1956L151.256 79.9277L143.782 75.6153Z" fill="#7F1FC9"/>
<path d="M131.849 68.6992L122.641 74.0159L129.366 67.2655L126.333 65.515L110.95 74.395L113.124 75.6519L124.266 69.2183L116.135 77.3885L118.618 78.8222L134.001 69.9422L131.849 68.6992ZM135.036 78.4295L131.917 76.628L136.554 73.9517L140.533 76.2467L142.73 74.9784L136.336 71.286L120.952 80.166L123.371 81.5607L129.72 77.8937L132.84 79.6948L135.036 78.4295ZM143.782 75.5874L141.585 76.8553L144.113 78.3143L130.929 85.9264L133.348 87.3208L146.532 79.7087L149.06 81.1677L151.256 79.8998L143.782 75.5874Z" fill="#7F1FC9"/>
<path d="M131.849 68.6712L122.641 73.9879L129.366 67.2375L126.333 65.487L110.95 74.367L113.124 75.6239L124.266 69.1903L116.135 77.3605L118.618 78.7942L134.001 69.9142L131.849 68.6712ZM135.036 78.4015L131.917 76.6L136.554 73.9237L140.533 76.2186L142.73 74.9504L136.336 71.258L120.952 80.138L123.371 81.5327L129.72 77.8657L132.84 79.6667L135.036 78.4015ZM143.782 75.5594L141.585 76.8273L144.113 78.2863L130.929 85.8984L133.348 87.2928L146.532 79.6807L149.06 81.1397L151.256 79.8717L143.782 75.5594Z" fill="#7F1FC9"/>
<path d="M131.849 68.6432L122.641 73.96L129.366 67.2095L126.333 65.459L110.95 74.339L113.124 75.596L124.266 69.1624L116.135 77.3325L118.618 78.7662L134.001 69.8862L131.849 68.6432ZM135.036 78.3735L131.917 76.5721L136.554 73.8957L140.533 76.1907L142.73 74.9224L136.336 71.23L120.952 80.11L123.371 81.5048L129.72 77.8377L132.84 79.6388L135.036 78.3735ZM143.782 75.5314L141.585 76.7994L144.113 78.2584L130.929 85.8704L133.348 87.2648L146.532 79.6528L149.06 81.1118L151.256 79.8438L143.782 75.5314Z" fill="#7F1FC9"/>
<path d="M131.849 68.6153L122.641 73.9323L129.366 67.1816L126.333 65.4311L110.95 74.3111L113.124 75.568L124.266 69.1344L116.135 77.3046L118.618 78.7382L134.001 69.8582L131.849 68.6153ZM135.036 78.3455L131.917 76.5441L136.554 73.8678L140.533 76.1627L142.73 74.8944L136.336 71.2021L120.952 80.0824L123.371 81.4768L129.72 77.8097L132.84 79.6108L135.036 78.3455ZM143.782 75.5035L141.585 76.7714L144.113 78.2304L130.929 85.8424L133.348 87.2369L146.532 79.6248L149.06 81.0838L151.256 79.8158L143.782 75.5035Z" fill="#7F1FC9"/>
<path d="M131.849 68.587L122.641 73.9037L129.366 67.1533L126.333 65.4024L110.95 74.2824L113.124 75.5394L124.266 69.1058L116.135 77.2763L118.618 78.71L134.001 69.83L131.849 68.587ZM135.036 78.3169L131.917 76.5158L136.554 73.8392L140.533 76.1341L142.73 74.8662L136.336 71.1738L120.952 80.0538L123.371 81.4482L129.72 77.7811L132.84 79.5825L135.036 78.3169ZM143.782 75.4748L141.585 76.7431L144.113 78.2021L130.929 85.8138L133.348 87.2082L146.532 79.5965L149.06 81.0555L151.256 79.7872L143.782 75.4748Z" fill="#7F1FC9"/>
<path d="M131.849 68.559L122.641 73.8758L129.366 67.1253L126.333 65.3745L110.95 74.2545L113.124 75.5115L124.266 69.0778L116.135 77.2483L118.618 78.682L134.001 69.802L131.849 68.559ZM135.036 78.289L131.917 76.4879L136.554 73.8112L140.533 76.1062L142.73 74.8382L136.336 71.1458L120.952 80.0258L123.371 81.4203L129.72 77.7532L132.84 79.5546L135.036 78.289ZM143.782 75.4469L141.585 76.7152L144.113 78.1742L130.929 85.7859L133.348 87.1803L146.532 79.5686L149.06 81.0276L151.256 79.7593L143.782 75.4469Z" fill="#7F1FC9"/>
<path d="M131.849 68.531L122.641 73.8478L129.366 67.0973L126.333 65.3465L110.95 74.2265L113.124 75.4835L124.266 69.0499L116.135 77.2203L118.618 78.654L134.001 69.774L131.849 68.531ZM135.036 78.261L131.917 76.4599L136.554 73.7832L140.533 76.0782L142.73 74.8102L136.336 71.1178L120.952 79.9978L123.371 81.3923L129.72 77.7252L132.84 79.5266L135.036 78.261ZM143.782 75.4189L141.585 76.6872L144.113 78.1462L130.929 85.7579L133.348 87.1523L146.532 79.5406L149.06 80.9996L151.256 79.7313L143.782 75.4189Z" fill="#7F1FC9"/>
<path d="M131.849 68.5031L122.641 73.8198L129.366 67.0694L126.333 65.3186L110.95 74.1986L113.124 75.4555L124.266 69.0223L116.135 77.1924L118.618 78.6261L134.001 69.7461L131.849 68.5031ZM135.036 78.2331L131.917 76.432L136.554 73.7553L140.533 76.0502L142.73 74.7823L136.336 71.0899L120.952 79.9699L123.371 81.3643L129.72 77.6973L132.84 79.4987L135.036 78.2331ZM143.782 75.391L141.585 76.6593L144.113 78.1182L130.929 85.73L133.348 87.1244L146.532 79.5127L149.06 80.9716L151.256 79.7034L143.782 75.391Z" fill="#7F1FC9"/>
<path d="M131.849 68.4751L122.641 73.7919L129.366 67.0415L126.333 65.2906L110.95 74.1706L113.124 75.4276L124.266 68.9943L116.135 77.1644L118.618 78.5981L134.001 69.7181L131.849 68.4751ZM135.036 78.2051L131.917 76.404L136.554 73.7273L140.533 76.0223L142.73 74.7543L136.336 71.062L120.952 79.942L123.371 81.3364L129.72 77.6693L132.84 79.4707L135.036 78.2051ZM143.782 75.363L141.585 76.6313L144.113 78.0903L130.929 85.702L133.348 87.0964L146.532 79.4847L149.06 80.9437L151.256 79.6754L143.782 75.363Z" fill="#7F1FC9"/>
<path d="M131.849 68.4465L122.641 73.7632L129.366 67.0128L126.333 65.262L110.95 74.142L113.124 75.3989L124.266 68.9657L116.135 77.1358L118.618 78.5695L134.001 69.6895L131.849 68.4465ZM135.036 78.1768L131.917 76.3754L136.554 73.6987L140.533 75.994L142.73 74.7257L136.336 71.0333L120.952 79.9133L123.371 81.3077L129.72 77.641L132.84 79.4421L135.036 78.1768ZM143.782 75.3347L141.585 76.6027L144.113 78.0616L130.929 85.6737L133.348 87.0681L146.532 79.4561L149.06 80.915L151.256 79.6467L143.782 75.3347Z" fill="#7F1FC9"/>
<path d="M131.849 68.4185L122.641 73.7353L129.366 66.9849L126.333 65.234L110.95 74.1143L113.124 75.371L124.266 68.9377L116.135 77.1078L118.618 78.5415L134.001 69.6615L131.849 68.4185ZM135.036 78.1488L131.917 76.3474L136.554 73.6707L140.533 75.966L142.73 74.6977L136.336 71.0054L120.952 79.8854L123.371 81.2798L129.72 77.613L132.84 79.4141L135.036 78.1488ZM143.782 75.3068L141.585 76.5747L144.113 78.0337L130.929 85.6457L133.348 87.0401L146.532 79.4281L149.06 80.8871L151.256 79.6188L143.782 75.3068Z" fill="#7F1FC9"/>
<path d="M131.849 68.3906L122.641 73.7073L129.366 66.9569L126.333 65.2061L110.95 74.0864L113.124 75.343L124.266 68.9097L116.135 77.0799L118.618 78.5136L134.001 69.6336L131.849 68.3906ZM135.036 78.1209L131.917 76.3194L136.554 73.6428L140.533 75.9381L142.73 74.6698L136.336 70.9774L120.952 79.8574L123.371 81.2518L129.72 77.5851L132.84 79.3862L135.036 78.1209ZM143.782 75.2788L141.585 76.5467L144.113 78.0057L130.929 85.6178L133.348 87.0122L146.532 79.4001L149.06 80.8591L151.256 79.5908L143.782 75.2788Z" fill="#7F1FC9"/>
<path d="M131.849 68.3627L122.641 73.6794L129.366 66.929L126.333 65.1781L110.95 74.0585L113.124 75.3151L124.266 68.8818L116.135 77.052L118.618 78.4857L134.001 69.6057L131.849 68.3627ZM135.036 78.093L131.917 76.2915L136.554 73.6152L140.533 75.9101L142.73 74.6419L136.336 70.9495L120.952 79.8295L123.371 81.2239L129.72 77.5571L132.84 79.3582L135.036 78.093ZM143.782 75.2509L141.585 76.5188L144.113 77.9778L130.929 85.5899L133.348 86.9843L146.532 79.3722L149.06 80.8312L151.256 79.5632L143.782 75.2509Z" fill="#7F1FC9"/>
<path d="M131.849 68.3347L122.641 73.6514L129.366 66.901L126.333 65.1505L110.95 74.0305L113.124 75.2871L124.266 68.8538L116.135 77.024L118.618 78.4577L134.001 69.5777L131.849 68.3347ZM135.036 78.065L131.917 76.2635L136.554 73.5872L140.533 75.8822L142.73 74.6139L136.336 70.9215L120.952 79.8015L123.371 81.1959L129.72 77.5292L132.84 79.3303L135.036 78.065ZM143.782 75.2229L141.585 76.4908L144.113 77.9498L130.929 85.5619L133.348 86.9563L146.532 79.3442L149.06 80.8032L151.256 79.5353L143.782 75.2229Z" fill="#7F1FC9"/>
<path d="M131.849 68.3064L122.641 73.6232L129.366 66.8727L126.333 65.1219L110.95 74.0019L113.124 75.2589L124.266 68.8252L116.135 76.9954L118.618 78.4294L134.001 69.5491L131.849 68.3064ZM135.036 78.0364L131.917 76.2353L136.554 73.5586L140.533 75.8536L142.73 74.5856L136.336 70.8932L120.952 79.7732L123.371 81.1676L129.72 77.5006L132.84 79.3017L135.036 78.0364ZM143.782 75.1943L141.585 76.4626L144.113 77.9216L130.929 85.5333L133.348 86.9277L146.532 79.316L149.06 80.7749L151.256 79.5067L143.782 75.1943Z" fill="#7F1FC9"/>
<path d="M131.849 68.2785L122.641 73.5952L129.366 66.8448L126.333 65.094L110.95 73.974L113.124 75.2309L124.266 68.7973L116.135 76.9675L118.618 78.4015L134.001 69.5215L131.849 68.2785ZM135.036 78.0085L131.917 76.2074L136.554 73.5307L140.533 75.8256L142.73 74.5577L136.336 70.8653L120.952 79.7453L123.371 81.1397L129.72 77.4726L132.84 79.2737L135.036 78.0085ZM143.782 75.1664L141.585 76.4347L144.113 77.8936L130.929 85.5054L133.348 86.8998L146.532 79.2881L149.06 80.747L151.256 79.4787L143.782 75.1664Z" fill="#7F1FC9"/>
<path d="M131.849 68.2504L122.641 73.5672L129.366 66.8168L126.333 65.0659L110.95 73.9459L113.124 75.2029L124.266 68.7693L116.135 76.9397L118.618 78.3734L134.001 69.4934L131.849 68.2504ZM135.036 77.9804L131.917 76.1793L136.554 73.5026L140.533 75.7976L142.73 74.5296L136.336 70.8373L120.952 79.7173L123.371 81.1117L129.72 77.4446L132.84 79.246L135.036 77.9804ZM143.782 75.1383L141.585 76.4066L144.113 77.8656L130.929 85.4773L133.348 86.8717L146.532 79.26L149.06 80.719L151.256 79.4507L143.782 75.1383Z" fill="#7F1FC9"/>
<path d="M131.849 68.2225L122.641 73.5393L129.366 66.7889L126.333 65.038L110.95 73.918L113.124 75.175L124.266 68.7414L116.135 76.9119L118.618 78.3455L134.001 69.4655L131.849 68.2225ZM135.036 77.9525L131.917 76.1514L136.554 73.4747L140.533 75.7697L142.73 74.5017L136.336 70.8094L120.952 79.6894L123.371 81.0838L129.72 77.4167L132.84 79.2181L135.036 77.9525ZM143.782 75.1104L141.585 76.3787L144.113 77.8377L130.929 85.4494L133.348 86.8438L146.532 79.2321L149.06 80.6911L151.256 79.4228L143.782 75.1104Z" fill="#7F1FC9"/>
<path d="M131.849 68.1946L122.641 73.5113L129.366 66.7609L126.333 65.0101L110.95 73.8901L113.124 75.147L124.266 68.7134L116.135 76.8839L118.618 78.3176L134.001 69.4376L131.849 68.1946ZM135.036 77.9246L131.917 76.1235L136.554 73.4468L140.533 75.7417L142.73 74.4738L136.336 70.7814L120.952 79.6614L123.371 81.0558L129.72 77.3888L132.84 79.1902L135.036 77.9246ZM143.782 75.0825L141.585 76.3508L144.113 77.8097L130.929 85.4215L133.348 86.8159L146.532 79.2042L149.06 80.6631L151.256 79.3948L143.782 75.0825Z" fill="#7F1FC9"/>
<path d="M131.849 68.166L122.641 73.4827L129.366 66.7323L126.333 64.9814L110.95 73.8614L113.124 75.1184L124.266 68.6851L116.135 76.8553L118.618 78.289L134.001 69.409L131.849 68.166ZM135.036 77.8963L131.917 76.0948L136.554 73.4182L140.533 75.7135L142.73 74.4452L136.336 70.7528L120.952 79.6328L123.371 81.0272L129.72 77.3601L132.84 79.1616L135.036 77.8963ZM143.782 75.0539L141.585 76.3221L144.113 77.7811L130.929 85.3928L133.348 86.7872L146.532 79.1755L149.06 80.6345L151.256 79.3662L143.782 75.0539Z" fill="#7F1FC9"/>
<path d="M131.849 68.138L122.641 73.4547L129.366 66.7043L126.333 64.9535L110.95 73.8335L113.124 75.0904L124.266 68.6572L116.135 76.8273L118.618 78.261L134.001 69.381L131.849 68.138ZM135.036 77.8683L131.917 76.0669L136.554 73.3902L140.533 75.6855L142.73 74.4172L136.336 70.7248L120.952 79.6048L123.371 80.9992L129.72 77.3321L132.84 79.1336L135.036 77.8683ZM143.782 75.0259L141.585 76.2942L144.113 77.7531L130.929 85.3648L133.348 86.7596L146.532 79.1475L149.06 80.6065L151.256 79.3382L143.782 75.0259Z" fill="#7F1FC9"/>
<path d="M131.849 68.11L122.641 73.4268L129.366 66.6764L126.333 64.9255L110.95 73.8055L113.124 75.0625L124.266 68.6292L116.135 76.7993L118.618 78.233L134.001 69.353L131.849 68.11ZM135.036 77.8403L131.917 76.0389L136.554 73.3622L140.533 75.6575L142.73 74.3892L136.336 70.6969L120.952 79.5769L123.371 80.9713L129.72 77.3042L132.84 79.1056L135.036 77.8403ZM143.782 74.9979L141.585 76.2662L144.113 77.7252L130.929 85.3369L133.348 86.7316L146.532 79.1196L149.06 80.5786L151.256 79.3103L143.782 74.9979Z" fill="#7F1FC9"/>
<path d="M131.849 68.0821L122.641 73.3988L129.366 66.6484L126.333 64.8976L110.95 73.7775L113.124 75.0345L124.266 68.6012L116.135 76.7714L118.618 78.2051L134.001 69.3251L131.849 68.0821ZM135.036 77.8124L131.917 76.0109L136.554 73.3343L140.533 75.6296L142.73 74.3613L136.336 70.6689L120.952 79.5489L123.371 80.9433L129.72 77.2766L132.84 79.0777L135.036 77.8124ZM143.782 74.9703L141.585 76.2382L144.113 77.6972L130.929 85.3093L133.348 86.7037L146.532 79.0916L149.06 80.5506L151.256 79.2823L143.782 74.9703Z" fill="#7F1FC9"/>
<path d="M131.849 68.0541L122.641 73.3709L129.366 66.6204L126.333 64.8696L110.95 73.7496L113.124 75.0066L124.266 68.5733L116.135 76.7434L118.618 78.1771L134.001 69.2971L131.849 68.0541ZM135.036 77.7844L131.917 75.983L136.554 73.3063L140.533 75.6016L142.73 74.3333L136.336 70.6409L120.952 79.5209L123.371 80.9154L129.72 77.2486L132.84 79.0497L135.036 77.7844ZM143.782 74.9423L141.585 76.2103L144.113 77.6693L130.929 85.2813L133.348 86.6757L146.532 79.0637L149.06 80.5227L151.256 79.2544L143.782 74.9423Z" fill="#7F1FC9"/>
<path d="M131.849 68.0258L122.641 73.3426L129.366 66.5921L126.333 64.8413L110.95 73.7213L113.124 74.9783L124.266 68.5447L116.135 76.7148L118.618 78.1485L134.001 69.2685L131.849 68.0258ZM135.036 77.7558L131.917 75.9547L136.554 73.278L140.533 75.573L142.73 74.3047L136.336 70.6127L120.952 79.4927L123.371 80.8871L129.72 77.22L132.84 79.0211L135.036 77.7558ZM143.782 74.9137L141.585 76.182L144.113 77.641L130.929 85.2527L133.348 86.6471L146.532 79.0354L149.06 80.4944L151.256 79.2261L143.782 74.9137Z" fill="#7F1FC9"/>
<path d="M131.849 67.9979L122.641 73.3147L129.366 66.5643L126.333 64.8134L110.95 73.6934L113.124 74.9504L124.266 68.5168L116.135 76.6869L118.618 78.1209L134.001 69.2406L131.849 67.9979ZM135.036 77.7279L131.917 75.9268L136.554 73.2501L140.533 75.5451L142.73 74.2768L136.336 70.5848L120.952 79.4648L123.371 80.8592L129.72 77.1921L132.84 78.9932L135.036 77.7279ZM143.782 74.8858L141.585 76.1541L144.113 77.6131L130.929 85.2248L133.348 86.6192L146.532 79.0075L149.06 80.4665L151.256 79.1982L143.782 74.8858Z" fill="#7F1FC9"/>
<path d="M131.849 67.9699L122.641 73.2867L129.366 66.5362L126.333 64.7854L110.95 73.6654L113.124 74.9224L124.266 68.4888L116.135 76.6589L118.618 78.0929L134.001 69.2126L131.849 67.9699ZM135.036 77.6999L131.917 75.8988L136.554 73.2221L140.533 75.5171L142.73 74.2491L136.336 70.5568L120.952 79.4367L123.371 80.8312L129.72 77.1641L132.84 78.9652L135.036 77.6999ZM143.782 74.8578L141.585 76.1261L144.113 77.5851L130.929 85.1968L133.348 86.5912L146.532 78.9795L149.06 80.4385L151.256 79.1702L143.782 74.8578Z" fill="#7F1FC9"/>
<path d="M131.849 67.942L122.641 73.2588L129.366 66.5083L126.333 64.7575L110.95 73.6375L113.124 74.8945L124.266 68.4609L116.135 76.631L118.618 78.065L134.001 69.1847L131.849 67.942ZM135.036 77.672L131.917 75.8709L136.554 73.1942L140.533 75.4892L142.73 74.2212L136.336 70.5289L120.952 79.4089L123.371 80.8033L129.72 77.1362L132.84 78.9373L135.036 77.672ZM143.782 74.8299L141.585 76.0982L144.113 77.5572L130.929 85.1689L133.348 86.5633L146.532 78.9516L149.06 80.4106L151.256 79.1423L143.782 74.8299Z" fill="#7F1FC9"/>
<path d="M131.849 67.914L122.641 73.2308L129.366 66.4804L126.333 64.7295L110.95 73.6095L113.124 74.8665L124.266 68.4329L116.135 76.603L118.618 78.037L134.001 69.157L131.849 67.914ZM135.036 77.644L131.917 75.8429L136.554 73.1662L140.533 75.4612L142.73 74.1932L136.336 70.5009L120.952 79.3809L123.371 80.7753L129.72 77.1082L132.84 78.9093L135.036 77.644ZM143.782 74.8019L141.585 76.0702L144.113 77.5292L130.929 85.1409L133.348 86.5353L146.532 78.9236L149.06 80.3826L151.256 79.1143L143.782 74.8019Z" fill="#7F1FC9"/>
<path d="M131.849 67.8854L122.641 73.2022L129.366 66.4517L126.333 64.7009L110.95 73.5809L113.124 74.8379L124.266 68.4046L116.135 76.5747L118.618 78.0084L134.001 69.1284L131.849 67.8854ZM135.036 77.6157L131.917 75.8143L136.554 73.1376L140.533 75.4329L142.73 74.1646L136.336 70.4723L120.952 79.3522L123.371 80.7467L129.72 77.0796L132.84 78.881L135.036 77.6157ZM143.782 74.7733L141.585 76.0416L144.113 77.5006L130.929 85.1123L133.348 86.5067L146.532 78.895L149.06 80.354L151.256 79.0857L143.782 74.7733Z" fill="#7F1FC9"/>
<path d="M131.849 67.8575L122.641 73.1742L129.366 66.4238L126.333 64.6729L110.95 73.5529L113.124 74.8099L124.266 68.3766L116.135 76.5468L118.618 77.9805L134.001 69.1005L131.849 67.8575ZM135.036 77.5878L131.917 75.7863L136.554 73.1097L140.533 75.405L142.73 74.1367L136.336 70.4443L120.952 79.3243L123.371 80.7187L129.72 77.0516L132.84 78.853L135.036 77.5878ZM143.782 74.7453L141.585 76.0136L144.113 77.4726L130.929 85.0843L133.348 86.4787L146.532 78.867L149.06 80.326L151.256 79.0577L143.782 74.7453Z" fill="#7F1FC9"/>
<path d="M131.849 67.8295L122.641 73.1462L129.366 66.3958L126.333 64.645L110.95 73.525L113.124 74.7819L124.266 68.3486L116.135 76.5188L118.618 77.9525L134.001 69.0725L131.849 67.8295ZM135.036 77.5598L131.917 75.7584L136.554 73.0817L140.533 75.377L142.73 74.1087L136.336 70.4163L120.952 79.2963L123.371 80.6907L129.72 77.0236L132.84 78.8251L135.036 77.5598ZM143.782 74.7174L141.585 75.9857L144.113 77.4446L130.929 85.0563L133.348 86.4508L146.532 78.839L149.06 80.298L151.256 79.0297L143.782 74.7174Z" fill="#7F1FC9"/>
<path d="M131.849 67.8015L122.641 73.1183L129.366 66.3678L126.333 64.617L110.95 73.497L113.124 74.754L124.266 68.3207L116.135 76.4908L118.618 77.9245L134.001 69.0445L131.849 67.8015ZM135.036 77.5318L131.917 75.7304L136.554 73.0537L140.533 75.349L142.73 74.0807L136.336 70.3884L120.952 79.2684L123.371 80.6628L129.72 76.9957L132.84 78.7971L135.036 77.5318ZM143.782 74.6894L141.585 75.9577L144.113 77.4167L130.929 85.0284L133.348 86.4228L146.532 78.8111L149.06 80.2701L151.256 79.0018L143.782 74.6894Z" fill="#7F1FC9"/>
<path d="M131.849 67.7736L122.641 73.0903L129.366 66.3399L126.333 64.5891L110.95 73.4691L113.124 74.726L124.266 68.2927L116.135 76.4629L118.618 77.8966L134.001 69.0166L131.849 67.7736ZM135.036 77.5039L131.917 75.7024L136.554 73.0258L140.533 75.3211L142.73 74.0528L136.336 70.3604L120.952 79.2404L123.371 80.6348L129.72 76.9677L132.84 78.7692L135.036 77.5039ZM143.782 74.6615L141.585 75.9297L144.113 77.3887L130.929 85.0004L133.348 86.3948L146.532 78.7831L149.06 80.2421L151.256 78.9738L143.782 74.6615Z" fill="#7F1FC9"/>
<path d="M131.849 67.7453L122.641 73.0621L129.366 66.3113L126.333 64.5608L110.95 73.4408L113.124 74.6978L124.266 68.2641L116.135 76.4343L118.618 77.868L134.001 68.988L131.849 67.7453ZM135.036 77.4753L131.917 75.6742L136.554 72.9975L140.533 75.2925L142.73 74.0242L136.336 70.3321L120.952 79.2121L123.371 80.6066L129.72 76.9395L132.84 78.7406L135.036 77.4753ZM143.782 74.6332L141.585 75.9015L144.113 77.3601L130.929 84.9722L133.348 86.3666L146.532 78.7549L149.06 80.2135L151.256 78.9456L143.782 74.6332Z" fill="#7F1FC9"/>
<path d="M131.849 67.7174L122.641 73.0341L129.366 66.2837L126.333 64.5328L110.95 73.4128L113.124 74.6698L124.266 68.2362L116.135 76.4063L118.618 77.84L134.001 68.96L131.849 67.7174ZM135.036 77.4473L131.917 75.6462L136.554 72.9696L140.533 75.2645L142.73 73.9962L136.336 70.3042L120.952 79.1842L123.371 80.5786L129.72 76.9115L132.84 78.7126L135.036 77.4473ZM143.782 74.6052L141.585 75.8735L144.113 77.3322L130.929 84.9442L133.348 86.3386L146.532 78.7269L149.06 80.1856L151.256 78.9176L143.782 74.6052Z" fill="#7F1FC9"/>
<path d="M131.849 67.6894L122.641 73.0061L129.366 66.2557L126.333 64.5049L110.95 73.3849L113.124 74.6418L124.266 68.2082L116.135 76.3784L118.618 77.812L134.001 68.932L131.849 67.6894ZM135.036 77.4193L131.917 75.6182L136.554 72.9416L140.533 75.2365L142.73 73.9682L136.336 70.2762L120.952 79.1562L123.371 80.5506L129.72 76.8835L132.84 78.6846L135.036 77.4193ZM143.782 74.5773L141.585 75.8455L144.113 77.3042L130.929 84.9162L133.348 86.3107L146.532 78.6989L149.06 80.1576L151.256 78.8896L143.782 74.5773Z" fill="#7F1FC9"/>
<path d="M131.849 67.6614L122.641 72.9782L129.366 66.2277L126.333 64.4769L110.95 73.3569L113.124 74.6139L124.266 68.1803L116.135 76.3504L118.618 77.7841L134.001 68.9041L131.849 67.6614ZM135.036 77.3914L131.917 75.5903L136.554 72.9136L140.533 75.2086L142.73 73.9403L136.336 70.2483L120.952 79.1282L123.371 80.5227L129.72 76.8556L132.84 78.6567L135.036 77.3914ZM143.782 74.5493L141.585 75.8176L144.113 77.2766L130.929 84.8883L133.348 86.2827L146.532 78.671L149.06 80.13L151.256 78.8617L143.782 74.5493Z" fill="#7F1FC9"/>
<path d="M131.849 67.6335L122.641 72.9502L129.366 66.1998L126.333 64.449L110.95 73.329L113.124 74.5859L124.266 68.1523L116.135 76.3225L118.618 77.7565L134.001 68.8762L131.849 67.6335ZM135.036 77.3635L131.917 75.5624L136.554 72.8857L140.533 75.1807L142.73 73.9124L136.336 70.2203L120.952 79.1003L123.371 80.4947L129.72 76.8277L132.84 78.6287L135.036 77.3635ZM143.782 74.5214L141.585 75.7897L144.113 77.2486L130.929 84.8604L133.348 86.2548L146.532 78.6431L149.06 80.102L151.256 78.8338L143.782 74.5214Z" fill="#7F1FC9"/>
<path d="M131.849 67.6048L122.641 72.9216L129.366 66.1712L126.333 64.4203L110.95 73.3003L113.124 74.5573L124.266 68.124L116.135 76.2942L118.618 77.7278L134.001 68.8478L131.849 67.6048ZM135.036 77.3351L131.917 75.5337L136.554 72.857L140.533 75.1523L142.73 73.884L136.336 70.1917L120.952 79.0717L123.371 80.4661L129.72 76.799L132.84 78.6004L135.036 77.3351ZM143.782 74.4927L141.585 75.761L144.113 77.22L130.929 84.8317L133.348 86.2261L146.532 78.6144L149.06 80.0734L151.256 78.8051L143.782 74.4927Z" fill="#7F1FC9"/>
<path d="M131.849 67.5769L122.641 72.8937L129.366 66.1432L126.333 64.3924L110.95 73.2724L113.124 74.5294L124.266 68.0961L116.135 76.2662L118.618 77.6999L134.001 68.8199L131.849 67.5769ZM135.036 77.3072L131.917 75.5058L136.554 72.8291L140.533 75.1244L142.73 73.8561L136.336 70.1637L120.952 79.0437L123.371 80.4382L129.72 76.7711L132.84 78.5725L135.036 77.3072ZM143.782 74.4648L141.585 75.7331L144.113 77.1921L130.929 84.8038L133.348 86.1982L146.532 78.5865L149.06 80.0455L151.256 78.7772L143.782 74.4648Z" fill="#7F1FC9"/>
<path d="M131.849 67.549L122.641 72.8657L129.366 66.1153L126.333 64.3644L110.95 73.2444L113.124 74.5014L124.266 68.0681L116.135 76.2383L118.618 77.672L134.001 68.792L131.849 67.549ZM135.036 77.2793L131.917 75.4778L136.554 72.8012L140.533 75.0964L142.73 73.8282L136.336 70.1358L120.952 79.0158L123.371 80.4102L129.72 76.7431L132.84 78.5446L135.036 77.2793ZM143.782 74.4368L141.585 75.7051L144.113 77.1641L130.929 84.7758L133.348 86.1702L146.532 78.5585L149.06 80.0175L151.256 78.7492L143.782 74.4368Z" fill="#7F1FC9"/>
<path d="M131.849 67.521L122.641 72.8377L129.366 66.0873L126.333 64.3365L110.95 73.2165L113.124 74.4734L124.266 68.0401L116.135 76.2103L118.618 77.644L134.001 68.764L131.849 67.521ZM135.036 77.2513L131.917 75.4498L136.554 72.7732L140.533 75.0685L142.73 73.8002L136.336 70.1078L120.952 78.9878L123.371 80.3822L129.72 76.7151L132.84 78.5166L135.036 77.2513ZM143.782 74.4089L141.585 75.6772L144.113 77.1361L130.929 84.7478L133.348 86.1423L146.532 78.5305L149.06 79.9895L151.256 78.7212L143.782 74.4089Z" fill="#7F1FC9"/>
<path d="M131.849 67.493L122.641 72.8098L129.366 66.0593L126.333 64.3085L110.95 73.1885L113.124 74.4455L124.266 68.0122L116.135 76.1823L118.618 77.616L134.001 68.736L131.849 67.493ZM135.036 77.2233L131.917 75.4219L136.554 72.7452L140.533 75.0405L142.73 73.7722L136.336 70.0799L120.952 78.9599L123.371 80.3543L129.72 76.6872L132.84 78.4886L135.036 77.2233ZM143.782 74.3809L141.585 75.6492L144.113 77.1082L130.929 84.7199L133.348 86.1143L146.532 78.5026L149.06 79.9616L151.256 78.6933L143.782 74.3809Z" fill="#7F1FC9"/>
<path d="M131.849 67.4648L122.641 72.7815L129.366 66.0308L126.333 64.2802L110.95 73.1602L113.124 74.4172L124.266 67.9836L116.135 76.1537L118.618 77.5874L134.001 68.7074L131.849 67.4648ZM135.036 77.1947L131.917 75.3936L136.554 72.717L140.533 75.0119L142.73 73.7436L136.336 70.0516L120.952 78.9316L123.371 80.326L129.72 76.6589L132.84 78.46L135.036 77.1947ZM143.782 74.3526L141.585 75.6206L144.113 77.0796L130.929 84.6916L133.348 86.086L146.532 78.474L149.06 79.933L151.256 78.665L143.782 74.3526Z" fill="#7F1FC9"/>
<path d="M131.849 67.4368L122.641 72.7536L129.366 66.0028L126.333 64.2523L110.95 73.1323L113.124 74.3893L124.266 67.9556L116.135 76.1258L118.618 77.5595L134.001 68.6795L131.849 67.4368ZM135.036 77.1668L131.917 75.3657L136.554 72.689L140.533 74.984L142.73 73.7157L136.336 70.0236L120.952 78.9036L123.371 80.2981L129.72 76.631L132.84 78.4321L135.036 77.1668ZM143.782 74.3247L141.585 75.5927L144.113 77.0516L130.929 84.6637L133.348 86.0581L146.532 78.446L149.06 79.905L151.256 78.6371L143.782 74.3247Z" fill="#7F1FC9"/>
<path d="M131.849 67.4088L122.641 72.7256L129.366 65.9748L126.333 64.2243L110.95 73.1043L113.124 74.3613L124.266 67.9277L116.135 76.0978L118.618 77.5315L134.001 68.6515L131.849 67.4088ZM135.036 77.1388L131.917 75.3377L136.554 72.661L140.533 74.956L142.73 73.6877L136.336 69.9957L120.952 78.8757L123.371 80.2701L129.72 76.603L132.84 78.4041L135.036 77.1388ZM143.782 74.2967L141.585 75.5647L144.113 77.0236L130.929 84.6357L133.348 86.0301L146.532 78.4181L149.06 79.877L151.256 78.6091L143.782 74.2967Z" fill="#7F1FC9"/>
<path d="M131.849 67.3809L122.641 72.6977L129.366 65.9473L126.333 64.1964L110.95 73.0764L113.124 74.3334L124.266 67.8998L116.135 76.0699L118.618 77.5036L134.001 68.6236L131.849 67.3809ZM135.036 77.1109L131.917 75.3098L136.554 72.6331L140.533 74.9281L142.73 73.6598L136.336 69.9678L120.952 78.8478L123.371 80.2422L129.72 76.5751L132.84 78.3762L135.036 77.1109ZM143.782 74.2688L141.585 75.5371L144.113 76.9958L130.929 84.6078L133.348 86.0022L146.532 78.3902L149.06 79.8491L151.256 78.5812L143.782 74.2688Z" fill="#7F1FC9"/>
<path d="M131.849 67.353L122.641 72.6697L129.366 65.9193L126.333 64.1685L110.95 73.0485L113.124 74.3054L124.266 67.8718L116.135 76.042L118.618 77.4756L134.001 68.5956L131.849 67.353ZM135.036 77.0829L131.917 75.2819L136.554 72.6052L140.533 74.9001L142.73 73.6319L136.336 69.9398L120.952 78.8198L123.371 80.2142L129.72 76.5471L132.84 78.3482L135.036 77.0829ZM143.782 74.2409L141.585 75.5092L144.113 76.9678L130.929 84.5798L133.348 85.9743L146.532 78.3625L149.06 79.8212L151.256 78.5532L143.782 74.2409Z" fill="#7F1FC9"/>
<path d="M131.849 67.3243L122.641 72.641L129.366 65.8906L126.333 64.1398L110.95 73.0198L113.124 74.2767L124.266 67.8435L116.135 76.0136L118.618 77.4473L134.001 68.5673L131.849 67.3243ZM135.036 77.0546L131.917 75.2532L136.554 72.5765L140.533 74.8714L142.73 73.6035L136.336 69.9111L120.952 78.7911L123.371 80.1855L129.72 76.5185L132.84 78.3199L135.036 77.0546ZM143.782 74.2122L141.585 75.4805L144.113 76.9394L130.929 84.5512L133.348 85.9456L146.532 78.3339L149.06 79.7928L151.256 78.5245L143.782 74.2122Z" fill="#7F1FC9"/>
<path d="M131.849 67.2964L122.641 72.6131L129.366 65.8627L126.333 64.1118L110.95 72.9918L113.124 74.2488L124.266 67.8155L116.135 75.9857L118.618 77.4194L134.001 68.5394L131.849 67.2964ZM135.036 77.0267L131.917 75.2252L136.554 72.5486L140.533 74.8435L142.73 73.5756L136.336 69.8832L120.952 78.7632L123.371 80.1576L129.72 76.4905L132.84 78.292L135.036 77.0267ZM143.782 74.1843L141.585 75.4525L144.113 76.9115L130.929 84.5232L133.348 85.9176L146.532 78.3059L149.06 79.7649L151.256 78.4966L143.782 74.1843Z" fill="#7F1FC9"/>
<path d="M131.849 67.2684L122.641 72.5852L129.366 65.8348L126.333 64.0839L110.95 72.9639L113.124 74.2209L124.266 67.7876L116.135 75.9577L118.618 77.3914L134.001 68.5114L131.849 67.2684ZM135.036 76.9987L131.917 75.1973L136.554 72.5206L140.533 74.8156L142.73 73.5476L136.336 69.8553L120.952 78.7353L123.371 80.1297L129.72 76.4626L132.84 78.264L135.036 76.9987ZM143.782 74.1563L141.585 75.4246L144.113 76.8836L130.929 84.4953L133.348 85.8897L146.532 78.278L149.06 79.737L151.256 78.4687L143.782 74.1563Z" fill="#7F1FC9"/>
<path d="M131.849 67.2404L122.641 72.5572L129.366 65.8068L126.333 64.0559L110.95 72.9359L113.124 74.1929L124.266 67.7596L116.135 75.9297L118.618 77.3634L134.001 68.4834L131.849 67.2404ZM135.036 76.9707L131.917 75.1693L136.554 72.4926L140.533 74.7879L142.73 73.5196L136.336 69.8273L120.952 78.7073L123.371 80.1017L129.72 76.4346L132.84 78.236L135.036 76.9707ZM143.782 74.1283L141.585 75.3966L144.113 76.8556L130.929 84.4673L133.348 85.8617L146.532 78.25L149.06 79.709L151.256 78.4407L143.782 74.1283Z" fill="#7F1FC9"/>
<path d="M131.849 67.2125L122.641 72.5292L129.366 65.7788L126.333 64.028L110.95 72.908L113.124 74.1649L124.266 67.7316L116.135 75.9018L118.618 77.3355L134.001 68.4555L131.849 67.2125ZM135.036 76.9428L131.917 75.1414L136.554 72.4647L140.533 74.76L142.73 73.4917L136.336 69.7993L120.952 78.6793L123.371 80.0737L129.72 76.4066L132.84 78.2081L135.036 76.9428ZM143.782 74.1004L141.585 75.3686L144.113 76.8276L130.929 84.4393L133.348 85.8338L146.532 78.222L149.06 79.681L151.256 78.4127L143.782 74.1004Z" fill="#7F1FC9"/>
<path d="M131.849 67.1839L122.641 72.5009L129.366 65.7502L126.333 63.9997L110.95 72.8797L113.124 74.1366L124.266 67.703L116.135 75.8732L118.618 77.3068L134.001 68.4269L131.849 67.1839ZM135.036 76.9141L131.917 75.1127L136.554 72.4364L140.533 74.7313L142.73 73.4631L136.336 69.7707L120.952 78.651L123.371 80.0454L129.72 76.3783L132.84 78.1794L135.036 76.9141ZM143.782 74.0721L141.585 75.34L144.113 76.799L130.929 84.411L133.348 85.8055L146.532 78.1934L149.06 79.6524L151.256 78.3844L143.782 74.0721Z" fill="#7F1FC9"/>
<path d="M131.849 67.156L122.641 72.473L129.366 65.7223L126.333 63.9718L110.95 72.8518L113.124 74.1087L124.266 67.6751L116.135 75.8453L118.618 77.279L134.001 68.399L131.849 67.156ZM135.036 76.8863L131.917 75.0852L136.554 72.4085L140.533 74.7034L142.73 73.4352L136.336 69.7431L120.952 78.6231L123.371 80.0175L129.72 76.3505L132.84 78.1516L135.036 76.8863ZM143.782 74.0442L141.585 75.3121L144.113 76.7711L130.929 84.3832L133.348 85.7776L146.532 78.1655L149.06 79.6245L151.256 78.3566L143.782 74.0442Z" fill="#7F1FC9"/>
<path d="M131.85 67.128L122.641 72.4451L129.367 65.6943L126.333 63.9438L110.95 72.8238L113.124 74.0808L124.266 67.6472L116.135 75.8173L118.618 77.251L134.001 68.371L131.85 67.128ZM135.037 76.8583L131.917 75.0572L136.555 72.3805L140.533 74.6755L142.73 73.4072L136.336 69.7152L120.952 78.5952L123.371 79.9896L129.72 76.3225L132.84 78.1236L135.037 76.8583ZM143.782 74.0162L141.585 75.2842L144.113 76.7432L130.929 84.3552L133.348 85.7496L146.532 78.1376L149.06 79.5966L151.257 78.3286L143.782 74.0162Z" fill="#7F1FC9"/>
<path d="M131.85 67.128L122.642 72.4451L129.367 65.6944L126.334 63.9438L110.951 72.8238L113.125 74.0808L124.267 67.6472L116.136 75.8173L118.619 77.251L134.002 68.371L131.85 67.128ZM135.038 76.8583L131.918 75.0572L136.556 72.3806L140.534 74.6755L142.731 73.4072L136.337 69.7152L120.953 78.5952L123.372 79.9896L129.721 76.3225L132.841 78.1236L135.038 76.8583ZM143.783 74.0163L141.586 75.2842L144.114 76.7432L130.93 84.3552L133.349 85.7497L146.533 78.1376L149.061 79.5966L151.257 78.3286L143.783 74.0163Z" fill="#DF1EFF"/>
<path d="M98.8639 25.8237C98.2142 24.3091 98.9843 19.0786 100.464 19.0786L124.53 22.2528C125.561 22.2528 126.71 22.6289 127.726 23.2984C128.742 23.9684 130.702 25.5961 131.108 26.5429L138.66 41.1213C139.066 42.0685 137.591 45.7053 137.149 46.3748C136.708 47.0444 135.247 47.2491 134.216 47.2491H111.936C110.906 47.2491 109.757 46.8727 108.741 46.2031C107.725 45.5335 106.926 44.6253 106.52 43.6782L98.8639 25.8237ZM108.277 40.7429C109.634 42.0408 110.181 43.3541 113.246 43.3541L132.095 43.0476C132.61 43.0476 134.676 42.8572 134.896 42.5224C134.043 40.3772 133.802 39.8737 132.708 37.5095L124.152 33.9529C123.934 33.869 123.715 33.8398 123.527 33.8697C123.339 33.8993 123.19 33.9865 123.103 34.119L118.736 40.7429L112.212 37.5791C111.976 37.4649 111.73 37.4137 111.516 37.4336C111.301 37.4539 111.131 37.5444 111.035 37.6899L108.277 40.7429ZM112.434 30.2872C112.129 29.577 111.53 28.8957 110.768 28.3935C110.007 27.8914 109.144 27.6091 108.372 27.6091C107.599 27.6091 106.978 27.8914 106.647 28.3935C106.316 28.8957 106.301 29.577 106.606 30.2872C106.911 30.9977 107.51 31.6786 108.271 32.1811C109.033 32.6833 109.895 32.9655 110.668 32.9655C111.442 32.9655 112.061 32.6833 112.392 32.1811C112.723 31.6786 112.738 30.9977 112.434 30.2872Z" fill="#58128E"/>
<path d="M99.7446 22.0751C99.3386 21.1279 99.3586 20.2197 99.7998 19.5502C100.241 18.8802 101.068 18.5042 102.099 18.5042H125.411C126.442 18.5042 127.591 18.8802 128.607 19.5502C129.623 20.2197 130.422 21.1279 130.828 22.0751L138.484 39.9296C138.89 40.8767 138.87 41.7849 138.428 42.4545C137.987 43.1244 137.16 43.5005 136.13 43.5005H112.817C111.787 43.5005 110.637 43.1244 109.622 42.4545C108.606 41.7849 107.807 40.8767 107.401 39.9296L99.7446 22.0751ZM108.578 38.1441L109.343 39.9296C109.547 40.4032 109.946 40.8574 110.454 41.1922C110.962 41.527 111.537 41.715 112.052 41.715H135.364C135.879 41.715 136.293 41.527 136.514 41.1922C136.734 40.8574 136.744 40.4032 136.541 39.9296L133.862 33.6804L125.033 30.2043C124.815 30.1204 124.596 30.0911 124.408 30.1211C124.22 30.1507 124.071 30.2379 123.983 30.3704L119.617 36.9943L113.092 33.8304C112.857 33.7163 112.611 33.665 112.397 33.685C112.182 33.7053 112.012 33.7958 111.916 33.9413L108.578 38.1441ZM113.315 26.5385C113.01 25.8284 112.411 25.1471 111.649 24.6449C110.888 24.1427 110.025 23.8605 109.253 23.8605C108.48 23.8605 107.859 24.1427 107.528 24.6449C107.197 25.1471 107.182 25.8284 107.487 26.5385C107.791 27.2491 108.391 27.9303 109.152 28.4325C109.914 28.9347 110.776 29.2169 111.549 29.2169C112.322 29.2169 112.942 28.9347 113.273 28.4325C113.605 27.9303 113.62 27.2491 113.315 26.5385Z" fill="url(#paint3_linear_2497_12580)" fill-opacity="0.9"/>
<path d="M148.09 21.337L134.171 18.8357C132.99 18.6223 131.932 16.3404 132.301 14.7173L136.626 -4.27935C136.909 -5.52434 139.18 -7.57703 140.588 -7.63361C140.223 -7.34075 140.013 -6.9344 139.954 -6.76368C139.222 -3.39545 136.963 6.18742 135.725 12.1834C135.467 14.1562 136.142 15.2385 136.928 16.139C137.422 16.2488 141.013 16.8595 144.555 17.5541C148.268 18.2819 151.935 19.0786 152.254 18.436C152.201 19.0247 149.038 21.5183 148.09 21.337Z" fill="#58128E"/>
<path d="M151.314 18.9568L137.394 16.4551C136.213 16.2421 135.155 13.9602 135.524 12.3368L139.849 -6.65956C140.218 -8.28028 141.719 -7.95314 142.535 -6.12509L152.13 15.3729C152.315 15.7849 152.445 16.2385 152.504 16.6871C152.564 17.1357 152.552 17.5637 152.469 17.9274C152.386 18.2912 152.236 18.578 152.033 18.7591C151.83 18.9398 151.582 19.008 151.314 18.9568Z" fill="url(#paint4_linear_2497_12580)" fill-opacity="0.9"/>
<path d="M148.753 41.6814C150.007 40.8251 152.896 39.638 155.092 38.8014L156.137 35.3859C155.283 35.8318 152.552 36.8934 150.135 37.8709C146.196 39.4639 143.665 43.0149 143.7 43.1853C144.12 45.2243 144.503 45.823 144.503 45.823C144.503 45.823 147.185 42.752 148.753 41.6814Z" fill="#85047A"/>
<path d="M152.154 63.1298L161.904 31.4992C161.413 30.9511 161.311 30.8236 160.203 29.6259L157.571 37.5907L151.25 58.2104C150.033 63.3717 148.274 64.9265 146.771 65.9462C145.267 66.9656 143.47 67.6372 141.405 67.1313C140.589 66.9313 139.902 65.8314 139.902 65.8314C142.552 70.6869 144.764 69.8286 147.477 68.5204C150.332 67.144 151.785 64.3531 152.154 63.1298Z" fill="#58128E"/>
<path d="M150.471 61.2435L160.22 29.6129C159.294 30.0292 157.271 30.951 156.588 31.3078C155.734 31.7537 151.694 33.1941 149.464 34.5449C147.234 35.8957 146.036 37.2722 144.902 39.2856C143.768 41.299 143.398 43.6821 143.806 43.147C144.214 42.6119 146.164 40.3562 147.731 39.2856C148.985 38.4293 153.691 36.5413 155.887 35.7044L149.566 56.3244C147.731 56.9531 143.76 58.4144 142.557 59.23C141.053 60.2494 140.022 61.8551 139.741 63.0402C138.717 67.3699 142.449 68.2468 145.794 66.6341C148.649 65.258 150.102 62.4668 150.471 61.2435Z" fill="url(#paint5_linear_2497_12580)" fill-opacity="0.9"/>
</g>
</g>
<defs>
<linearGradient id="paint0_linear_2497_12580" x1="176.305" y1="-147.312" x2="9.48579" y2="163.098" gradientUnits="userSpaceOnUse">
<stop stop-color="#FF006E"/>
<stop offset="1" stop-color="#8637EB"/>
</linearGradient>
<linearGradient id="paint1_linear_2497_12580" x1="131.828" y1="53.0404" x2="132.5" y2="71.5" gradientUnits="userSpaceOnUse">
<stop stop-color="#F4BCF5"/>
<stop offset="1" stop-color="white"/>
</linearGradient>
<radialGradient id="paint2_radial_2497_12580" cx="0" cy="0" r="1" gradientUnits="userSpaceOnUse" gradientTransform="translate(130.732 75.4951) rotate(90) scale(7.99389 14.5034)">
<stop stop-color="#4B1060"/>
<stop offset="1" stop-color="#9332DF" stop-opacity="0"/>
</radialGradient>
<linearGradient id="paint3_linear_2497_12580" x1="129.375" y1="17.4911" x2="114.581" y2="36.972" gradientUnits="userSpaceOnUse">
<stop stop-color="#FFE1FC"/>
<stop offset="1" stop-color="#FF96F4"/>
</linearGradient>
<linearGradient id="paint4_linear_2497_12580" x1="148.456" y1="-8.78691" x2="134.801" y2="-1.46448" gradientUnits="userSpaceOnUse">
<stop stop-color="#FFE1FC"/>
<stop offset="1" stop-color="#FF96F4"/>
</linearGradient>
<linearGradient id="paint5_linear_2497_12580" x1="155.284" y1="28.0819" x2="137.719" y2="36.1197" gradientUnits="userSpaceOnUse">
<stop stop-color="#FFE1FC"/>
<stop offset="1" stop-color="#FF96F4"/>
</linearGradient>
<clipPath id="clip0_2497_12580">
<rect width="108" height="128.19" fill="white" transform="translate(78 -25.0921)"/>
</clipPath>
</defs>
</svg>
