<svg width="24" height="24" viewBox="0 0 24 24" fill="none" xmlns="http://www.w3.org/2000/svg">
<path d="M9.75 7.05V9.75H7.05V7.05H9.75ZM11.1 5.7H5.7V11.1H11.1V5.7ZM9.75 14.25V16.95H7.05V14.25H9.75ZM11.1 12.9H5.7V18.3H11.1V12.9ZM16.95 7.05V9.75H14.25V7.05H16.95ZM18.3 5.7H12.9V11.1H18.3V5.7ZM12.9 12.9H14.25V14.25H12.9V12.9ZM14.25 14.25H15.6V15.6H14.25V14.25ZM15.6 12.9H16.95V14.25H15.6V12.9ZM12.9 15.6H14.25V16.95H12.9V15.6ZM14.25 16.95H15.6V18.3H14.25V16.95ZM15.6 15.6H16.95V16.95H15.6V15.6ZM16.95 14.25H18.3V15.6H16.95V14.25ZM16.95 16.95H18.3V18.3H16.95V16.95ZM21 7.5H19.2V4.8H16.5V3H21V7.5ZM21 21V16.5H19.2V19.2H16.5V21H21ZM3 21H7.5V19.2H4.8V16.5H3V21ZM3 3V7.5H4.8V4.8H7.5V3H3Z" fill="#FAECFF"/>
</svg>
