<svg width="18" height="18" viewBox="0 0 18 18" fill="none" xmlns="http://www.w3.org/2000/svg">
<path fill-rule="evenodd" clip-rule="evenodd" d="M6.70711 17.7071C6.31658 18.0976 5.68342 18.0976 5.29289 17.7071L0.292893 12.7071C-0.097631 12.3166 -0.0976309 11.6834 0.292893 11.2929L5.29289 6.29289C5.68342 5.90237 6.31658 5.90237 6.70711 6.29289C7.09763 6.68342 7.09763 7.31658 6.70711 7.70711L2.41421 12L6.70711 16.2929C7.09763 16.6834 7.09763 17.3166 6.70711 17.7071Z" fill="white"/>
<path fill-rule="evenodd" clip-rule="evenodd" d="M13 11C13.7957 11 14.5587 10.6839 15.1213 10.1213C15.6839 9.55871 16 8.79565 16 8L16 1C16 0.447716 16.4477 -1.35705e-07 17 -8.74228e-08C17.5523 -3.91405e-08 18 0.447716 18 1L18 8C18 9.32608 17.4732 10.5979 16.5355 11.5355C15.5979 12.4732 14.3261 13 13 13L1 13C0.447716 13 4.76254e-07 12.5523 5.24537e-07 12C5.72819e-07 11.4477 0.447716 11 1 11L13 11Z" fill="white"/>
</svg>
