<svg width="97" height="100" viewBox="0 0 97 100" fill="none" xmlns="http://www.w3.org/2000/svg">
<g clip-path="url(#clip0_55_52704)">
<path d="M82.4769 67.0289C70.341 91.215 43.3374 102.213 22.177 91.5947C20.4925 90.7524 18.8997 89.7923 17.3942 88.7362C13.3794 85.9169 10.0149 82.382 7.33985 78.3364C6.59363 77.2061 5.89978 76.0365 5.26266 74.832C4.06696 72.5627 3.06327 70.1667 2.26904 67.6792C3.03708 69.9791 3.97531 72.1961 5.09246 74.304C5.72959 75.5085 6.42344 76.6824 7.16966 77.8127C9.84471 81.8583 13.2093 85.3889 17.224 88.2081C18.7295 89.2642 20.3267 90.22 22.0068 91.0666C43.1672 101.685 70.1708 90.687 82.3067 66.5009C83.2668 64.5894 84.1046 62.643 84.8377 60.6704C85.2043 59.6753 85.5403 58.6803 85.8502 57.6766C86.8102 54.5169 87.4561 51.2831 87.827 48.0754C87.9492 46.9975 88.0365 45.9196 88.0888 44.8503C88.163 43.384 88.1717 41.9307 88.1237 40.4862C88.0321 37.763 87.7179 35.0878 87.1942 32.4955C86.928 31.1513 86.6007 29.829 86.2211 28.5328C86.1164 28.1749 86.0073 27.8171 85.8938 27.4592C86.0727 27.9829 86.2385 28.5197 86.3956 29.0565C86.7753 30.357 87.1026 31.6794 87.3688 33.0192C87.8925 35.6158 88.2066 38.291 88.2983 41.0099C88.3463 42.4544 88.3376 43.9121 88.2634 45.3784C88.211 46.452 88.1237 47.5256 88.0015 48.6035C87.6306 51.8112 86.9848 55.045 86.0291 58.2003C85.7192 59.1997 85.3832 60.199 85.0123 61.1984C84.2835 63.1667 83.4413 65.1131 82.4813 67.0289H82.4769Z" fill="#EDB013"/>
<path d="M27.3569 93.7331C25.6113 93.1571 23.8876 92.4501 22.2075 91.6034L30.8872 95.9588C32.5717 96.8055 34.2911 97.5081 36.0366 98.0885C40.6972 99.6203 45.5455 100.21 50.385 99.9346C51.7378 99.856 53.0906 99.712 54.439 99.5069C56.9744 99.1097 59.4924 98.4813 61.9667 97.6303C63.2366 97.1982 64.4977 96.7007 65.7458 96.1465C66.6578 95.7406 67.5655 95.2998 68.4558 94.8329C73.2036 92.3584 77.6635 89.0329 81.5954 84.9525C82.7125 83.7916 83.786 82.574 84.8115 81.2953C85.9199 79.9119 86.9804 78.4542 87.9753 76.9312C88.9659 75.4168 89.8954 73.8326 90.7464 72.1873C90.886 71.9211 91.0257 71.6549 91.1609 71.3843C92.1166 69.4816 92.9501 67.5483 93.6702 65.5931C94.0455 64.585 94.3858 63.5725 94.7 62.5557C95.6688 59.4048 96.3147 56.1709 96.6725 52.9589C96.9736 50.275 97.0653 47.6085 96.9562 44.9856C96.5678 35.8515 93.7225 27.241 88.7128 20.302C87.9753 19.2852 87.1986 18.2989 86.3738 17.3562C85.5272 16.3874 84.6282 15.4666 83.6856 14.585C81.0804 12.1542 78.1174 10.0681 74.8183 8.40974L66.1385 4.05432C67.8186 4.8966 69.4114 5.85235 70.917 6.90847C72.3614 7.92095 73.7229 9.03381 75.0016 10.2252C75.9485 11.1068 76.8431 12.0276 77.6897 12.9965C78.5188 13.9391 79.3 14.9254 80.0375 15.9466C85.0472 22.89 87.8924 31.4961 88.2721 40.6258C88.3855 43.2487 88.2939 45.9152 87.9928 48.5991C87.6349 51.8111 86.9847 55.045 86.0203 58.1959C85.7061 59.2127 85.3614 60.2209 84.9904 61.2333C84.2704 63.1885 83.4369 65.1262 82.4812 67.0246C82.3459 67.2951 82.2063 67.5613 82.0667 67.8276C81.2113 69.4728 80.2862 71.057 79.2956 72.5714C78.3006 74.0945 77.2402 75.5521 76.1318 76.9355C75.1063 78.2142 74.0328 79.4318 72.9113 80.5927C68.9838 84.6775 64.5239 87.9986 59.776 90.4775C58.8858 90.9444 57.9781 91.3852 57.0661 91.7911C55.818 92.3453 54.5569 92.8428 53.287 93.2749C50.8127 94.1259 48.2991 94.7543 45.7593 95.1515C44.4109 95.3566 43.0581 95.5006 41.7053 95.5791C36.8614 95.8541 32.0175 95.2649 27.3569 93.7331Z" fill="#2962D3"/>
<path d="M22.2075 91.6078L30.8872 95.9632C32.5717 96.8098 34.2911 97.5124 36.0366 98.0929C40.6972 99.6247 45.5455 100.214 50.385 99.9389C51.7378 99.8604 53.0906 99.7163 54.439 99.5112C56.9744 99.1141 59.4924 98.4857 61.9667 97.6346C63.2366 97.2026 64.4977 96.7051 65.7458 96.1508C66.6579 95.745 67.5655 95.3042 68.4558 94.8372L59.776 90.4818C58.8858 90.9488 57.9781 91.3896 57.0661 91.7954C55.818 92.3497 54.5569 92.8472 53.287 93.2792C50.8127 94.1302 48.2991 94.7587 45.7593 95.1558C44.4109 95.3609 43.0581 95.5049 41.7053 95.5835C36.8614 95.8584 32.0175 95.2693 27.3569 93.7375C25.6113 93.1614 23.8876 92.4544 22.2075 91.6078Z" fill="#2962D3"/>
<path d="M77.6899 13.0009C78.5191 13.9435 79.3002 14.9298 80.0377 15.951C85.0474 22.8944 87.8927 31.5005 88.2723 40.6303C88.3858 43.2531 88.2941 45.9196 87.993 48.6035C87.6352 51.8156 86.985 55.0494 86.0206 58.2003C85.7064 59.2171 85.3616 60.2253 84.9907 61.2377C84.2706 63.1929 83.4371 65.1306 82.4815 67.029C82.3462 67.2995 82.2065 67.5657 82.0669 67.832L90.7466 72.1874C90.8863 71.9212 91.0259 71.655 91.1612 71.3844C92.1169 69.4816 92.9504 67.5483 93.6704 65.5932C94.0457 64.585 94.3861 63.5726 94.7003 62.5557C95.6691 59.4048 96.3149 56.171 96.6728 52.959C96.9739 50.275 97.0655 47.6085 96.9564 44.9857C96.568 35.8515 93.7228 27.2411 88.7131 20.3021C87.9756 19.2852 87.1988 18.2989 86.374 17.3563L77.6899 13.0009Z" fill="#507FF3"/>
<path d="M90.8643 23.6231C94.5343 29.9032 96.629 37.2524 96.9563 44.9856L88.2722 40.6302C87.9492 32.9057 85.8546 25.5565 82.1846 19.2721L90.8643 23.6275V23.6231Z" fill="#7FA6F4" fill-opacity="0.8"/>
<path d="M82.4771 67.0291C70.3412 91.2152 43.3376 102.213 22.1772 91.5949C20.4928 90.7526 18.8999 89.7925 17.3944 88.7364C13.3797 85.9172 10.0151 82.3822 7.34007 78.3366C6.59384 77.2063 5.89999 76.0367 5.26287 74.8322C4.06717 72.5629 3.06348 70.167 2.26925 67.6794C1.85905 66.4051 1.50121 65.0958 1.20011 63.7648C-0.187601 57.6157 -0.392703 51.0127 0.706991 44.3705C0.964459 42.7819 1.30048 41.189 1.71068 39.6048C2.16016 37.8854 2.69255 36.1659 3.31658 34.4595C4.04535 32.4826 4.88757 30.5231 5.86072 28.5897C7.30516 25.7094 8.98088 23.008 10.8224 20.4768C12.7687 17.819 14.9725 15.3664 17.3377 13.1581C29.6045 1.65425 46.2265 -2.93683 60.9632 1.92046C62.7088 2.49653 64.4281 3.20352 66.1082 4.0458C67.7883 4.88808 69.4073 5.85692 70.9172 6.91741C72.2264 7.83388 73.4657 8.8289 74.6352 9.89375C75.7131 10.8713 76.7342 11.91 77.6943 13.0054C81.7003 17.5703 84.6328 23.0604 86.3871 29.0567C86.7668 30.3572 87.0941 31.6796 87.3603 33.0194C87.8839 35.616 88.1981 38.2912 88.2898 41.0101C88.3378 42.4546 88.329 43.9123 88.2549 45.3786C88.2025 46.4522 88.1152 47.5258 87.993 48.6037C87.6221 51.8114 86.9762 55.0452 86.0205 58.2005C85.7107 59.1999 85.3747 60.1992 85.0038 61.1986C84.275 63.1669 83.4328 65.1133 82.4727 67.0291H82.4771Z" fill="#FFC414"/>
<path d="M83.5463 67.5613C71.4104 91.7473 44.4068 102.745 23.2464 92.127C21.5619 91.2804 19.9691 90.3246 18.4636 89.2685C14.4488 86.4493 11.0843 82.9143 8.40924 78.8688C7.66301 77.7384 6.96916 76.5645 6.33204 75.3644C5.13197 73.095 4.13265 70.6991 3.33406 68.2072C2.92386 66.9328 2.57038 65.6236 2.26928 64.2925C0.881567 58.1434 0.676466 51.5405 1.7718 44.8983C2.02926 43.3097 2.36528 41.7168 2.77549 40.1283C3.22496 38.4088 3.75735 36.6893 4.38575 34.9829C5.11015 33.006 5.95674 31.0465 6.92988 29.1132C8.37432 26.2328 10.05 23.5314 11.8916 21.0002C13.8379 18.3424 16.0416 15.8898 18.4069 13.6815C30.6737 2.19075 47.2956 -2.40033 62.0324 2.45696C63.778 3.03303 65.4973 3.74002 67.1774 4.5823C68.8575 5.42458 70.4721 6.39342 71.982 7.45391C73.2912 8.37038 74.5305 9.3654 75.7 10.4303C76.7779 11.4078 77.799 12.4465 78.7591 13.5419C82.7651 18.1068 85.6976 23.5969 87.4519 29.5932C87.8316 30.8937 88.1589 32.2161 88.4251 33.5559C88.9487 36.1525 89.2629 38.8277 89.3546 41.5466C89.4026 42.9911 89.3938 44.4488 89.3197 45.9151C89.2673 46.9887 89.18 48.0623 89.0578 49.1402C88.6869 52.3479 88.041 55.5817 87.0854 58.737C86.7755 59.7364 86.4395 60.7357 86.0686 61.7351C85.3398 63.7034 84.4976 65.6498 83.5375 67.5656L83.5463 67.5613Z" fill="#C8DBFC"/>
<path d="M82.4859 67.5656C70.35 91.7517 43.3464 102.749 22.186 92.1314C20.5015 91.2891 18.9087 90.329 17.4032 89.2729C13.3884 86.4536 10.0239 82.9187 7.34886 78.8731C6.60263 77.7428 5.90878 76.5732 5.27166 75.3687C4.07596 73.0994 3.07227 70.7034 2.27804 68.2159C1.86784 66.9416 1.51 65.6323 1.2089 64.3012C-0.178812 58.1522 -0.383914 51.5492 0.71578 44.907C0.973248 43.3184 1.30927 41.7255 1.71947 40.1413C2.16895 38.4219 2.70134 36.7024 3.32537 34.996C4.05414 33.0191 4.89636 31.0596 5.8695 29.1262C7.31394 26.2459 8.98967 23.5445 10.8312 21.0133C12.7775 18.3555 14.9813 15.9029 17.3465 13.6946C29.6133 2.19075 46.2353 -2.40033 60.972 2.45696C62.7176 3.03303 64.4369 3.74002 66.117 4.5823C67.7971 5.42458 69.4161 6.39342 70.926 7.45391C72.2352 8.37038 73.4745 9.3654 74.644 10.4303C75.7219 11.4078 76.743 12.4465 77.7031 13.5419C81.7091 18.1068 84.6416 23.5969 86.3959 29.5932C86.7756 30.8937 87.1029 32.2161 87.369 33.5559C87.8927 36.1525 88.2069 38.8277 88.2985 41.5466C88.3465 42.9911 88.3378 44.4488 88.2636 45.9151C88.2113 46.9887 88.124 48.0623 88.0018 49.1402C87.6309 52.3479 86.985 55.5817 86.0293 58.737C85.7195 59.7364 85.3835 60.7357 85.0126 61.7351C84.2838 63.7034 83.4416 65.6498 82.4815 67.5656H82.4859Z" fill="#507FF3"/>
<path d="M86.3913 29.0565L1.19994 63.7601C-0.187768 57.611 -0.39287 51.0081 0.70246 44.3615L77.6941 13.0051C81.7002 17.57 84.6327 23.0601 86.3913 29.0608V29.0565Z" fill="#7FA6F4" fill-opacity="0.8"/>
<path d="M85.0079 61.1983L17.3942 88.7361C13.3794 85.9168 10.0105 82.3819 7.33984 78.3363L88.259 45.3783C88.2066 46.4519 88.1194 47.5255 87.9972 48.6034C87.6262 51.811 86.9804 55.0449 86.0203 58.2001C85.7105 59.2039 85.3701 60.1989 85.0036 61.194L85.0079 61.1983Z" fill="#7FA6F4" fill-opacity="0.8"/>
<path d="M88.2939 41.0098L5.26262 74.8275C4.06256 72.5582 3.06324 70.1623 2.26465 67.6747L87.3644 33.019C87.888 35.6157 88.2022 38.2909 88.2939 41.0098Z" fill="#7FA6F4" fill-opacity="0.8"/>
<path d="M74.635 9.89346L1.71045 39.5958C2.15556 37.8764 2.69232 36.1569 3.32072 34.4505L70.917 6.91711C72.2262 7.83358 73.4655 8.82861 74.635 9.89346Z" fill="#7FA6F4" fill-opacity="0.8"/>
<path d="M87.0374 31.5133C83.9303 20.5419 76.9263 11.2462 66.6407 6.08344C50.7562 -1.88549 31.5857 2.33464 17.8657 15.187C15.5049 17.3953 13.3011 19.848 11.3505 22.5057C9.50457 25.0369 7.82885 27.7383 6.38877 30.6143C0.510646 42.332 -0.802877 54.9968 1.80671 66.1428C-1.47491 54.5211 -0.379583 41.0141 5.86075 28.5762C7.30518 25.7003 8.97655 22.9945 10.8225 20.4633C12.7731 17.8055 14.9769 15.3529 17.3377 13.1446C31.0577 0.292222 50.2282 -3.92791 66.1083 4.04102C77.0267 9.52239 84.2532 19.6559 87.0374 31.5133Z" fill="#7FA6F4" fill-opacity="0.8"/>
<path d="M12.8213 32.0678C2.90219 51.833 8.90251 74.976 26.1965 83.6519C26.6154 83.8614 27.0431 84.0665 27.4708 84.2542C31.7343 86.157 36.2552 87.0211 40.7936 86.9425C42.033 86.9207 43.2767 86.8334 44.516 86.6719C46.8332 86.3752 49.1373 85.8427 51.3978 85.0834C52.5586 84.6906 53.7107 84.2411 54.8409 83.7305C60.1256 81.3651 65.0436 77.7385 69.1413 73.0471C70.1406 71.8993 71.0963 70.6861 71.9953 69.4161C72.9859 68.0152 73.911 66.5358 74.7576 64.9865C75.0194 64.5064 75.2769 64.022 75.5256 63.5245C76.669 61.2421 77.6465 58.8025 78.432 56.2713C79.1913 53.7925 79.7324 51.1609 80.0379 48.4595C81.814 32.6569 74.7969 18.3469 62.1548 12.0014C61.7271 11.7876 61.2951 11.5868 60.8587 11.3904C59.4492 10.762 58.0135 10.247 56.5428 9.8368C55.2206 9.47021 53.8809 9.19091 52.5324 8.99889C47.0601 8.22207 41.3828 8.87233 35.9454 10.8667C34.7933 11.2901 33.65 11.7745 32.5241 12.3156C30.3553 13.363 28.2432 14.6243 26.2183 16.1081C25.1492 16.8936 24.1019 17.7359 23.0807 18.6436C22.784 18.9011 22.4959 19.1673 22.2079 19.4379C20.218 21.3145 18.4201 23.3307 16.8884 25.4124C15.6709 27.0795 14.5537 28.8383 13.5675 30.6494C13.31 31.1164 13.0613 31.5877 12.8256 32.059L12.8213 32.0678Z" fill="#2962D3"/>
<path d="M78.6759 32.2816L8.97629 60.6703C7.72822 55.0319 7.70204 48.9439 9.00247 42.8734C9.06356 42.5897 9.12902 42.3104 9.19448 42.0267L69.7257 17.3737C69.9133 17.5526 70.0966 17.7315 70.2799 17.9148C74.1593 21.8251 77.0264 26.7478 78.6803 32.2816H78.6759Z" fill="#7FA6F4" fill-opacity="0.8"/>
<path d="M75.5601 63.4458L26.0826 83.5951C25.6899 83.3987 25.3059 83.1936 24.9218 82.9797C21.0118 80.7889 17.7215 77.8344 15.1206 74.3387L80.0898 47.8789C80.068 48.0753 80.0506 48.2717 80.0287 48.4681C79.7145 51.1869 79.1734 53.8316 78.4185 56.3017C77.8075 58.2787 77.0657 60.2251 76.2016 62.0929C75.9965 62.5512 75.7783 63.0007 75.5558 63.4458H75.5601Z" fill="#7FA6F4" fill-opacity="0.8"/>
<path d="M80.3037 43.6676L12.9867 71.0875C12.9257 70.9784 12.8602 70.8693 12.7991 70.7602C11.6645 68.7527 10.7263 66.6142 9.98877 64.3841L79.5924 36.0347C80.0419 38.3695 80.2819 40.7872 80.3037 43.2661C80.3037 43.4013 80.3037 43.5366 80.3037 43.6719V43.6676Z" fill="#7FA6F4" fill-opacity="0.8"/>
<path d="M66.4045 14.6024L10.5732 37.3439C11.0227 36.074 11.5333 34.8084 12.1093 33.5558C12.3144 33.102 12.5283 32.6525 12.7508 32.203L62.2283 12.0537C62.6167 12.2501 63.0051 12.4596 63.3847 12.6691C64.4364 13.2582 65.4445 13.9041 66.4045 14.6024Z" fill="#7FA6F4" fill-opacity="0.8"/>
<g style="mix-blend-mode:lighten">
<path d="M43.1205 66.8558C40.3661 66.0995 38.5414 64.878 37.6463 63.1913C36.7874 61.7358 36.5382 59.9929 36.953 58.3436C37.0768 57.8419 37.3279 57.3804 37.6815 57.0043C38.0029 56.6838 38.4025 56.4543 38.8394 56.3392C39.85 56.1365 40.893 56.4229 41.656 57.1126C41.9713 57.4333 42.1945 57.8341 42.3021 58.2731C42.4191 58.7761 42.4007 59.3024 42.2489 59.7978C42.1082 60.4006 41.7757 60.9419 41.3023 61.339C40.91 61.6614 40.4254 61.848 39.9211 61.8706C40.2124 62.5763 40.7409 63.1548 41.4147 63.5056C42.1512 63.9607 42.948 64.3095 43.7819 64.5419C44.8844 64.8551 46.0574 64.8257 47.148 64.4576C48.2892 64.04 49.2692 63.2641 49.9425 62.245C50.772 61.0399 51.3856 59.6987 51.7555 58.2829C52.2003 56.823 52.3604 55.2922 52.2269 53.7752C52.1446 52.5686 51.6702 51.4257 50.8768 50.5227C50.1349 49.6995 49.1721 49.1101 48.1031 48.8247C47.1514 48.6489 46.1698 48.7098 45.2433 49.0022L43.0351 49.4502L43.3068 48.4704L55.2776 39.0792L43.2152 35.767L39.8242 47.9923C39.5454 48.8651 39.5348 49.8006 39.7939 50.6757C40.069 51.4639 40.7346 52.0466 41.5485 52.2119C42.2784 52.3963 43.0495 52.3395 43.7482 52.0497C44.5332 51.7469 45.2631 51.3141 45.9078 50.7695C45.9817 50.6632 46.0861 50.5822 46.2069 50.5374C46.3072 50.4891 46.4212 50.4786 46.528 50.5077C46.7322 50.5846 46.9069 50.7241 47.0275 50.9067C47.1661 51.1893 47.1939 51.5148 47.1055 51.8188C47.0253 52.0173 46.9327 52.2107 46.8281 52.3975C46.1093 53.3264 45.1415 54.029 44.0404 54.4212C43.0218 54.7708 41.9243 54.8031 40.8918 54.5139C38.2802 53.7968 36.615 52.7806 35.8962 51.4655C35.1724 50.0187 35.0592 48.3353 35.5821 46.7945L38.9646 34.5999L32.8293 32.9152L33.4593 30.6438L39.6232 32.3363L41.0598 27.1572L40.0438 25.3447L40.3659 24.1833L44.461 25.3078L45.7763 26.5336L43.8452 33.4956L59.793 37.822L60.9338 39.8643L48.4152 47.0885C49.0719 47.011 49.7356 47.03 50.3855 47.1448C51.624 47.5445 52.7497 48.2328 53.6714 49.154C54.7696 50.1094 55.5705 51.3639 55.9792 52.7687C56.3618 53.968 56.518 55.2303 56.4396 56.4908C56.3862 57.4873 56.2315 58.4764 55.9779 59.4426C55.4748 61.2812 54.559 62.9816 53.3014 64.412C52.0996 65.8015 50.4654 66.7392 48.6696 67.0699C46.8252 67.4308 44.9259 67.3575 43.1205 66.8558Z" fill="white"/>
</g>
<path d="M12.8213 32.0721C2.90219 51.8373 8.90251 74.976 26.1965 83.6563C26.502 83.809 26.8118 83.9574 27.1216 84.1014C10.5084 75.0895 4.88339 52.4046 14.6323 32.9798C14.8679 32.5085 15.1167 32.0328 15.3741 31.5658C16.356 29.7547 17.4731 28.0003 18.6907 26.3332C20.2224 24.2472 22.0159 22.2353 24.0058 20.3544C24.2939 20.0881 24.5862 19.8219 24.8786 19.5601C25.8954 18.6567 26.9427 17.8101 28.0162 17.0245C30.0411 15.5451 32.1532 14.2751 34.322 13.2321C35.4523 12.6909 36.5912 12.2065 37.7433 11.7832C43.1807 9.78877 48.8581 9.13851 54.3303 9.91533C55.6831 10.1073 57.0229 10.3823 58.3407 10.7532C59.807 11.1635 61.2514 11.6784 62.6566 12.3069C62.7788 12.3592 62.901 12.4203 63.0232 12.4771C62.7308 12.32 62.4384 12.1629 62.1417 12.0145C61.714 11.8006 61.2864 11.5955 60.85 11.4035C59.4404 10.7751 58.0004 10.2601 56.5341 9.84986C55.2162 9.47891 53.8765 9.20397 52.5237 9.01195C47.0514 8.23513 41.374 8.88539 35.9367 10.8798C34.7846 11.3031 33.6413 11.7832 32.5154 12.3287C30.3465 13.3717 28.2344 14.6373 26.2052 16.1211C25.1361 16.9067 24.0888 17.749 23.072 18.6567C22.7752 18.9142 22.4829 19.1804 22.1992 19.451C20.2093 21.3276 18.4114 23.3438 16.884 25.4299C15.6665 27.097 14.5494 28.8557 13.5675 30.6625C13.3056 31.1294 13.0613 31.6051 12.8213 32.0765V32.0721Z" fill="#2962D3"/>
<path d="M54.3999 81.95C53.0428 77.852 55.4603 72.5365 55.4603 72.5365C55.4603 72.5365 52.6413 77.6513 48.548 79.0129C44.4023 80.3876 38.978 78.0048 38.978 78.0048C38.978 78.0048 44.1274 80.9287 45.5064 85.0747C46.8635 89.1726 44.4503 94.4881 44.4503 94.4881C44.4503 94.4881 47.2694 89.3734 51.3627 88.0117C55.5083 86.6327 60.9283 89.0155 60.9283 89.0155C60.9283 89.0155 55.7789 86.0915 54.4043 81.9456L54.3999 81.95Z" fill="white"/>
</g>
<defs>
<clipPath id="clip0_55_52704">
<rect width="97" height="100" fill="white"/>
</clipPath>
</defs>
</svg>
