<svg width="21" height="30" viewBox="0 0 21 30" fill="none" xmlns="http://www.w3.org/2000/svg">
<path d="M13.5647 29.5C11.5242 29.5 10.0349 29.0015 9.09668 28.0046C8.22756 27.1607 7.72321 26.0023 7.69386 24.7824C7.6833 24.4118 7.76799 24.0448 7.9396 23.7174C8.09968 23.4346 8.33091 23.1999 8.60969 23.0373C9.26662 22.705 10.0393 22.705 10.6962 23.0373C10.9745 23.1992 11.2047 23.4342 11.3625 23.7174C11.5391 24.0432 11.627 24.4108 11.6171 24.7824C11.6353 25.2262 11.5098 25.6638 11.2597 26.0285C11.0512 26.3261 10.7533 26.5472 10.4105 26.6587C10.7457 27.0916 11.22 27.3915 11.7508 27.5061C12.3447 27.6811 12.9597 27.771 13.5782 27.7734C14.3969 27.7806 15.1988 27.5375 15.8792 27.0756C16.5851 26.5699 17.1115 25.8469 17.3804 25.0139C17.7213 24.0225 17.8876 22.9781 17.8719 21.9283C17.8994 20.8338 17.7173 19.7442 17.3357 18.7201C17.0487 17.9009 16.5039 17.2003 15.7853 16.7263C15.1174 16.2977 14.3421 16.0728 13.5518 16.0784C12.8631 16.1376 12.199 16.3662 11.6171 16.7445L10.1825 17.474V16.7445L16.6297 7.97299H7.69386V17.0753C7.66861 17.7321 7.83995 18.3814 8.18534 18.9376C8.52523 19.4306 9.0947 19.7073 9.68653 19.6671C10.2242 19.656 10.7441 19.4702 11.1698 19.137C11.6523 18.7783 12.0721 18.3403 12.4119 17.841C12.4425 17.7534 12.4989 17.6775 12.5735 17.6236C12.6333 17.5711 12.7098 17.5422 12.7889 17.542C12.9441 17.5564 13.091 17.6198 13.2089 17.7232C13.3582 17.8924 13.4395 18.1123 13.4367 18.3394C13.4195 18.492 13.3926 18.6434 13.3563 18.7925C13.0389 19.5717 12.5068 20.2417 11.8237 20.7222C11.1893 21.1576 10.44 21.3884 9.67396 21.3845C7.73928 21.3845 6.39899 20.9978 5.65309 20.2245C4.87861 19.361 4.47926 18.2179 4.54502 17.0525V7.97299H0V6.28178H4.5662V2.42568L3.52077 1.36472V0.5H6.55438L7.69386 1.0982V6.28178L19.498 6.24537L20.6732 7.44159L13.4351 14.8179C13.8724 14.6396 14.3329 14.5266 14.8022 14.4826C15.7311 14.5238 16.6373 14.7862 17.4477 15.2485C18.3861 15.7008 19.177 16.4166 19.7265 17.3109C20.2189 18.0679 20.5674 18.9116 20.7542 19.7985C20.9077 20.4981 20.99 21.2118 20.9999 21.9284C21.0047 23.2961 20.6989 24.6465 20.1063 25.875C19.5443 27.0647 18.5985 28.0239 17.4254 28.5939C16.2247 29.1939 14.9033 29.504 13.5647 29.5Z" fill="white"/>
</svg>
