<svg width="40" height="40" viewBox="0 0 40 40" fill="none" xmlns="http://www.w3.org/2000/svg">
    <path fill-rule="evenodd" clip-rule="evenodd" d="M19.9999 36.6666C29.2047 36.6666 36.6666 29.2047 36.6666 20C36.6666 10.7952 29.2047 3.33331 19.9999 3.33331C10.7952 3.33331 3.33325 10.7952 3.33325 20C3.33325 29.2047 10.7952 36.6666 19.9999 36.6666ZM21.6666 18.3333H26.6666C27.1086 18.3333 27.5325 18.5089 27.8451 18.8215C28.1577 19.134 28.3333 19.558 28.3333 20C28.3333 20.442 28.1577 20.8659 27.8451 21.1785C27.5325 21.4911 27.1086 21.6666 26.6666 21.6666H21.6666V26.6666C21.6666 27.1087 21.491 27.5326 21.1784 27.8452C20.8659 28.1577 20.4419 28.3333 19.9999 28.3333C19.5579 28.3333 19.134 28.1577 18.8214 27.8452C18.5088 27.5326 18.3333 27.1087 18.3333 26.6666V21.6666H13.3333C12.8912 21.6666 12.4673 21.4911 12.1547 21.1785C11.8422 20.8659 11.6666 20.442 11.6666 20C11.6666 19.558 11.8422 19.134 12.1547 18.8215C12.4673 18.5089 12.8912 18.3333 13.3333 18.3333H18.3333V13.3333C18.3333 12.8913 18.5088 12.4674 18.8214 12.1548C19.134 11.8422 19.5579 11.6666 19.9999 11.6666C20.4419 11.6666 20.8659 11.8422 21.1784 12.1548C21.491 12.4674 21.6666 12.8913 21.6666 13.3333V18.3333Z" fill="#958E99" />
</svg>