<svg width="18" height="23" viewBox="0 0 18 23" fill="none" xmlns="http://www.w3.org/2000/svg">
<path d="M5.4678 7.8947L5.46555 7.89653L5.46341 7.89861L5.4678 7.8947ZM15.4219 7.70817C15.3523 7.64111 15.2751 7.58244 15.1919 7.53336C15.0741 7.46402 14.9433 7.41958 14.8076 7.4028C14.672 7.38601 14.5343 7.39723 14.4031 7.43577C14.272 7.4743 14.1501 7.53933 14.0451 7.62683C13.9401 7.71433 13.8541 7.82245 13.7925 7.9445C13.448 8.62319 12.9729 9.22718 12.3945 9.72184C12.483 9.22344 12.5276 8.71825 12.5278 8.21207C12.5297 6.67217 12.1234 5.15928 11.3505 3.82743C10.5775 2.49558 9.4654 1.39235 8.12741 0.630066C7.98002 0.546514 7.81382 0.501776 7.6444 0.500052C7.47498 0.498327 7.3079 0.539673 7.15884 0.620208C7.00977 0.700744 6.88362 0.817829 6.7922 0.960477C6.70078 1.10313 6.6471 1.26666 6.6362 1.43574C6.58024 2.38391 6.33236 3.31085 5.90759 4.1604C5.48282 5.00995 4.88999 5.76442 4.16503 6.3781L3.93456 6.5656C3.17648 7.07569 2.50546 7.7045 1.94726 8.4279C1.07958 9.521 0.478506 10.8012 0.191718 12.1671C-0.0950709 13.5329 -0.0596893 14.9468 0.295056 16.2966C0.649802 17.6464 1.31415 18.8949 2.23543 19.9433C3.1567 20.9916 4.30956 21.8109 5.60257 22.3361C5.75439 22.3981 5.91914 22.4219 6.08229 22.4052C6.24545 22.3885 6.40198 22.3319 6.5381 22.2404C6.67422 22.1489 6.78573 22.0254 6.8628 21.8806C6.93987 21.7358 6.98013 21.5743 6.98003 21.4103C6.97932 21.3042 6.96252 21.1989 6.93023 21.0978C6.7065 20.2568 6.64208 19.3814 6.74028 18.5168C7.68652 20.3015 9.20542 21.7162 11.0528 22.5334C11.2783 22.6342 11.5332 22.6478 11.7681 22.5715C13.2277 22.1004 14.5425 21.2639 15.5878 20.1415C16.633 19.0191 17.3739 17.6481 17.74 16.1588C18.1061 14.6694 18.0853 13.1112 17.6796 11.6321C17.2739 10.153 16.4967 8.80227 15.4219 7.70817ZM11.5171 20.5392C10.6454 20.0975 9.87649 19.4772 9.26028 18.7187C8.64406 17.9602 8.19438 17.0806 7.94046 16.1369C7.86291 15.8191 7.80293 15.4974 7.76077 15.173C7.73221 14.9665 7.63981 14.774 7.4965 14.6226C7.35318 14.4711 7.16612 14.3682 6.96146 14.3283C6.89841 14.3159 6.8343 14.3096 6.77003 14.3097C6.59427 14.3097 6.42161 14.356 6.26944 14.4439C6.11728 14.5319 5.991 14.6584 5.90333 14.8107C5.0736 16.2419 4.65633 17.8748 4.69776 19.5285C3.968 18.9611 3.35811 18.2545 2.90344 17.4497C2.44876 16.6449 2.15835 15.7578 2.04903 14.8399C1.93971 13.922 2.01366 12.9915 2.26658 12.1024C2.51951 11.2133 2.94639 10.3833 3.52247 9.66035C3.95989 9.09218 4.48756 8.59964 5.08447 8.20235C5.11032 8.18567 5.1351 8.1674 5.15869 8.14766C5.15869 8.14766 5.45538 7.90218 5.46552 7.89656C6.89022 6.69152 7.90353 5.07207 8.36426 3.26387C9.45383 4.2711 10.1804 5.6099 10.431 7.07238C10.6817 8.53485 10.4425 10.0392 9.75049 11.3518C9.65907 11.5269 9.62157 11.7252 9.64271 11.9216C9.66386 12.1181 9.74271 12.3039 9.86932 12.4555C9.99592 12.6072 10.1646 12.718 10.3541 12.7739C10.5436 12.8298 10.7454 12.8284 10.9341 12.7698C12.4659 12.2896 13.8138 11.3517 14.7964 10.0823C15.3869 10.9545 15.773 11.9489 15.9259 12.9911C16.0787 14.0334 15.9944 15.0967 15.6792 16.1018C15.364 17.1069 14.826 18.028 14.1054 18.7963C13.3847 19.5646 12.5 20.1604 11.5171 20.5393L11.5171 20.5392Z" fill="white"/>
</svg>
