<svg width="26" height="26" viewBox="0 0 26 26" fill="none" xmlns="http://www.w3.org/2000/svg">
<path fill-rule="evenodd" clip-rule="evenodd" d="M0 1C0 0.447715 0.447715 0 1 0H10.3333C10.8856 0 11.3333 0.447715 11.3333 1V10.3333C11.3333 10.8856 10.8856 11.3333 10.3333 11.3333H1C0.447715 11.3333 0 10.8856 0 10.3333V1ZM2 2V9.33333H9.33333V2H2ZM14.6667 1C14.6667 0.447715 15.1144 0 15.6667 0H25C25.5523 0 26 0.447715 26 1V10.3333C26 10.8856 25.5523 11.3333 25 11.3333H15.6667C15.1144 11.3333 14.6667 10.8856 14.6667 10.3333V1ZM16.6667 2V9.33333H24V2H16.6667ZM0 15.6667C0 15.1144 0.447715 14.6667 1 14.6667H10.3333C10.8856 14.6667 11.3333 15.1144 11.3333 15.6667V25C11.3333 25.5523 10.8856 26 10.3333 26H1C0.447715 26 0 25.5523 0 25V15.6667ZM2 16.6667V24H9.33333V16.6667H2ZM14.6667 15.6667C14.6667 15.1144 15.1144 14.6667 15.6667 14.6667H25C25.5523 14.6667 26 15.1144 26 15.6667V25C26 25.5523 25.5523 26 25 26H15.6667C15.1144 26 14.6667 25.5523 14.6667 25V15.6667ZM16.6667 16.6667V24H24V16.6667H16.6667Z" fill="white"/>
</svg>
