<svg width="24" height="25" viewBox="0 0 24 25" fill="none" xmlns="http://www.w3.org/2000/svg">
<path d="M7.50002 6.50002C7.20334 6.50002 6.91333 6.58799 6.66666 6.75281C6.41999 6.91763 6.22773 7.1519 6.1142 7.42599C6.00067 7.70008 5.97096 8.00168 6.02884 8.29265C6.08672 8.58362 6.22958 8.8509 6.43936 9.06068C6.64914 9.27046 6.91641 9.41332 7.20738 9.47119C7.49835 9.52907 7.79995 9.49937 8.07404 9.38584C8.34813 9.2723 8.5824 9.08005 8.74722 8.83337C8.91204 8.5867 9.00002 8.29669 9.00002 8.00002C9.00002 7.60219 8.84198 7.22066 8.56068 6.93936C8.27937 6.65805 7.89784 6.50002 7.50002 6.50002ZM21.12 11.21L12.71 2.79002C12.6166 2.69734 12.5058 2.62401 12.3839 2.57425C12.2621 2.52448 12.1316 2.49926 12 2.50002H3.00002C2.7348 2.50002 2.48045 2.60537 2.29291 2.79291C2.10537 2.98045 2.00002 3.2348 2.00002 3.50002V12.5C1.99926 12.6316 2.02448 12.7621 2.07425 12.8839C2.12401 13.0058 2.19734 13.1166 2.29002 13.21L10.71 21.62C11.2725 22.1818 12.035 22.4974 12.83 22.4974C13.625 22.4974 14.3875 22.1818 14.95 21.62L21.12 15.5C21.6818 14.9375 21.9974 14.175 21.9974 13.38C21.9974 12.585 21.6818 11.8225 21.12 11.26V11.21ZM19.71 14.03L13.53 20.2C13.3427 20.3863 13.0892 20.4908 12.825 20.4908C12.5608 20.4908 12.3074 20.3863 12.12 20.2L4.00002 12.09V4.50002H11.59L19.71 12.62C19.8027 12.7135 19.876 12.8243 19.9258 12.9461C19.9756 13.0679 20.0008 13.1984 20 13.33C19.9989 13.5924 19.8948 13.8438 19.71 14.03Z" fill="white"/>
</svg>
