<svg width="8" height="6" viewBox="0 0 8 6" fill="none" xmlns="http://www.w3.org/2000/svg">
    <path d="M7.43812 0.160224C7.38777 0.109455 7.32786 0.0691575 7.26185 0.0416578C7.19585 0.0141581 7.12505 0 7.05354 0C6.98203 0 6.91124 0.0141581 6.84523 0.0416578C6.77922 0.0691575 6.71931 0.109455 6.66896 0.160224L2.63354 4.20106L0.938125 2.50022C0.885842 2.44972 0.824124 2.41001 0.756494 2.38336C0.688864 2.3567 0.616647 2.34363 0.543966 2.34489C0.471285 2.34615 0.399563 2.36171 0.332895 2.39068C0.266228 2.41966 0.20592 2.46148 0.155416 2.51377C0.104912 2.56605 0.0652003 2.62777 0.0385482 2.6954C0.011896 2.76303 -0.00117463 2.83524 8.28308e-05 2.90792C0.00134029 2.98061 0.0169012 3.05233 0.0458768 3.11899C0.0748524 3.18566 0.116675 3.24597 0.168958 3.29647L2.24896 5.37647C2.29931 5.42724 2.35922 5.46754 2.42523 5.49504C2.49124 5.52254 2.56203 5.5367 2.63354 5.5367C2.70505 5.5367 2.77585 5.52254 2.84185 5.49504C2.90786 5.46754 2.96777 5.42724 3.01812 5.37647L7.43812 0.956474C7.49311 0.905751 7.53698 0.84419 7.567 0.775669C7.59701 0.707149 7.6125 0.633154 7.6125 0.558349C7.6125 0.483544 7.59701 0.40955 7.567 0.341029C7.53698 0.272508 7.49311 0.210947 7.43812 0.160224V0.160224Z" fill="white" />
</svg>