<svg width="15" height="15" viewBox="0 0 15 15" fill="none" xmlns="http://www.w3.org/2000/svg">
    <path fill-rule="evenodd" clip-rule="evenodd" d="M13.3333 6.66667C13.7538 6.66653 14.1588 6.82534 14.4671 7.11125C14.7754 7.39716 14.9643 7.78904 14.9958 8.20833L15 8.33333V13.3333C15.0001 13.7538 14.8413 14.1588 14.5554 14.4671C14.2695 14.7754 13.8776 14.9643 13.4583 14.9958L13.3333 15H10C9.57952 15.0001 9.17453 14.8413 8.86621 14.5554C8.55789 14.2695 8.36904 13.8776 8.3375 13.4583L8.33333 13.3333V8.33333C8.3332 7.91285 8.49201 7.50786 8.77791 7.19954C9.06382 6.89123 9.4557 6.70237 9.875 6.67083L10 6.66667H13.3333ZM5 10C5.44203 10 5.86595 10.1756 6.17851 10.4882C6.49107 10.8007 6.66667 11.2246 6.66667 11.6667V13.3333C6.66667 13.7754 6.49107 14.1993 6.17851 14.5118C5.86595 14.8244 5.44203 15 5 15H1.66667C1.22464 15 0.800716 14.8244 0.488155 14.5118C0.175595 14.1993 0 13.7754 0 13.3333V11.6667C0 11.2246 0.175595 10.8007 0.488155 10.4882C0.800716 10.1756 1.22464 10 1.66667 10H5ZM5 0C5.44203 0 5.86595 0.175595 6.17851 0.488155C6.49107 0.800716 6.66667 1.22464 6.66667 1.66667V6.66667C6.66667 7.10869 6.49107 7.53262 6.17851 7.84518C5.86595 8.15774 5.44203 8.33333 5 8.33333H1.66667C1.22464 8.33333 0.800716 8.15774 0.488155 7.84518C0.175595 7.53262 0 7.10869 0 6.66667V1.66667C0 1.22464 0.175595 0.800716 0.488155 0.488155C0.800716 0.175595 1.22464 0 1.66667 0H5ZM13.3333 0C13.7754 0 14.1993 0.175595 14.5118 0.488155C14.8244 0.800716 15 1.22464 15 1.66667V3.33333C15 3.77536 14.8244 4.19928 14.5118 4.51184C14.1993 4.8244 13.7754 5 13.3333 5H10C9.55797 5 9.13405 4.8244 8.82149 4.51184C8.50893 4.19928 8.33333 3.77536 8.33333 3.33333V1.66667C8.33333 1.22464 8.50893 0.800716 8.82149 0.488155C9.13405 0.175595 9.55797 0 10 0H13.3333Z" fill="white" />
</svg>