<svg width="26" height="26" viewBox="0 0 26 26" fill="none" xmlns="http://www.w3.org/2000/svg">
<path fill-rule="evenodd" clip-rule="evenodd" d="M0 1C0 0.447715 0.447715 0 1 0H10.3333C10.8856 0 11.3333 0.447715 11.3333 1V13C11.3333 13.5523 10.8856 14 10.3333 14H1C0.447715 14 0 13.5523 0 13V1ZM2 2V12H9.33333V2H2ZM14.6667 1C14.6667 0.447715 15.1144 0 15.6667 0H25C25.5523 0 26 0.447715 26 1V7.66667C26 8.21895 25.5523 8.66667 25 8.66667H15.6667C15.1144 8.66667 14.6667 8.21895 14.6667 7.66667V1ZM16.6667 2V6.66667H24V2H16.6667ZM14.6667 13C14.6667 12.4477 15.1144 12 15.6667 12H25C25.5523 12 26 12.4477 26 13V25C26 25.5523 25.5523 26 25 26H15.6667C15.1144 26 14.6667 25.5523 14.6667 25V13ZM16.6667 14V24H24V14H16.6667ZM0 18.3333C0 17.781 0.447715 17.3333 1 17.3333H10.3333C10.8856 17.3333 11.3333 17.781 11.3333 18.3333V25C11.3333 25.5523 10.8856 26 10.3333 26H1C0.447715 26 0 25.5523 0 25V18.3333ZM2 19.3333V24H9.33333V19.3333H2Z" fill="#958E99"/>
</svg>
