<svg width="22" height="28" viewBox="0 0 22 28" fill="none" xmlns="http://www.w3.org/2000/svg">
<path d="M12.5999 17.9999C12.3333 18.1332 12.0666 18.1332 11.7999 18.2665C11.6666 17.9999 11.5333 17.7332 11.3999 17.5999C10.3333 16.6665 8.73325 16.5332 7.39992 17.3332C6.33325 17.9999 5.66659 19.3332 5.66659 20.6665C5.66659 21.3332 6.33325 21.9999 6.99992 21.8665C7.66659 21.8665 8.33325 21.1999 8.33325 20.5332C8.33325 20.1332 8.46659 19.8665 8.73325 19.5999C8.86659 19.5999 8.99992 19.4665 9.13325 19.4665C8.73325 20.2665 8.99992 21.1999 9.79992 21.7332C10.0666 21.8665 10.1999 21.8665 10.4666 21.8665C10.9999 21.8665 11.5333 21.5999 11.9333 21.1999C12.0666 21.0665 12.3333 20.9332 12.5999 20.7999C12.7333 21.3332 13.2666 21.8665 13.9333 21.8665H14.9999C15.7999 21.8665 16.3333 21.3332 16.3333 20.5332C16.3333 19.8665 15.7999 19.3332 15.1333 19.1999C14.9999 18.9332 14.9999 18.7999 14.7333 18.5332C14.3333 18.1332 13.3999 17.8665 12.5999 17.9999ZM21.6666 9.86654C21.6666 9.7332 21.6666 9.59987 21.5333 9.46654V9.3332C21.5333 9.19987 21.3999 9.06654 21.2666 8.9332L13.2666 0.933203C13.1333 0.79987 12.9999 0.79987 12.8666 0.666536H12.7333C12.5999 0.666536 12.4666 0.666536 12.3333 0.533203C12.3333 0.533203 12.3333 0.533203 12.1999 0.533203H4.33325C2.06659 0.666536 0.333252 2.39987 0.333252 4.66654V23.3332C0.333252 25.5999 2.06659 27.3332 4.33325 27.3332H17.6666C19.9333 27.3332 21.6666 25.5999 21.6666 23.3332V9.86654C21.6666 9.99987 21.6666 9.99987 21.6666 9.86654ZM13.6666 5.19987L17.1333 8.66654H14.9999C14.1999 8.66654 13.6666 8.1332 13.6666 7.3332V5.19987ZM18.9999 23.3332C18.9999 24.1332 18.4666 24.6665 17.6666 24.6665H4.33325C3.53325 24.6665 2.99992 24.1332 2.99992 23.3332V4.66654C2.99992 3.86654 3.53325 3.3332 4.33325 3.3332H10.9999V7.3332C10.9999 9.59987 12.7333 11.3332 14.9999 11.3332H18.9999V23.3332ZM6.99992 11.3332H8.33325C9.13325 11.3332 9.66659 10.7999 9.66659 9.99987C9.66659 9.19987 9.13325 8.66654 8.33325 8.66654H6.99992C6.19992 8.66654 5.66659 9.19987 5.66659 9.99987C5.66659 10.7999 6.19992 11.3332 6.99992 11.3332Z" fill="white"/>
</svg>
