<svg width="639" height="522" viewBox="0 0 639 522" fill="none" xmlns="http://www.w3.org/2000/svg">
<g id="No Results">
<g id="circle">
<path id="Stroke 1" d="M20.3392 239.519V244.935" stroke="#393739" stroke-width="1.75794" stroke-linecap="round"/>
<g id="Group 8">
<path id="Stroke 2" d="M8.17346 242.453L12.5995 247.009" stroke="#393739" stroke-width="1.75794" stroke-linecap="round"/>
<path id="Stroke 4" d="M3 254.582H9.25834" stroke="#393739" stroke-width="1.75794" stroke-linecap="round"/>
<path id="Stroke 6" d="M7.66882 266.926L12.0948 262.37" stroke="#393739" stroke-width="1.75794" stroke-linecap="round"/>
</g>
<path id="Stroke 9" d="M20.3392 268.406V262.99" stroke="#393739" stroke-width="1.75794" stroke-linecap="round"/>
<path id="Stroke 10" d="M29.3664 264.796L25.7554 261.185" stroke="#393739" stroke-width="1.75794" stroke-linecap="round"/>
<path id="Stroke 11" d="M36.5882 255.768H31.1717" stroke="#393739" stroke-width="1.75794" stroke-linecap="round"/>
<path id="Stroke 12" d="M32.9772 243.13L29.3663 246.741" stroke="#393739" stroke-width="1.75794" stroke-linecap="round"/>
<path id="Stroke 13" d="M311.023 3V6.61098" stroke="#393739" stroke-width="1.75794" stroke-linecap="round"/>
<path id="Stroke 15" d="M300.191 13.8325H303.802" stroke="#393739" stroke-width="1.75794" stroke-linecap="round"/>
<path id="Stroke 16" d="M311.023 24.6659V21.0549" stroke="#393739" stroke-width="1.75794" stroke-linecap="round"/>
<path id="Stroke 17" d="M320.051 13.8325H316.44" stroke="#393739" stroke-width="1.75794" stroke-linecap="round"/>
<path id="Stroke 18" d="M101.59 154.661V160.078" stroke="#393739" stroke-width="1.75794" stroke-linecap="round"/>
<path id="Stroke 19" d="M85.338 170.911H90.7544" stroke="#393739" stroke-width="1.75794" stroke-linecap="round"/>
<path id="Stroke 20" d="M101.59 185.354V179.938" stroke="#393739" stroke-width="1.75794" stroke-linecap="round"/>
<path id="Stroke 21" d="M116.034 170.911H110.617" stroke="#393739" stroke-width="1.75794" stroke-linecap="round"/>
<g id="Group 42">
<path id="Stroke 22" d="M490.226 351.53C494.541 351.53 498.04 355.03 498.04 359.346C498.04 363.663 494.541 367.162 490.226 367.162C485.911 367.162 482.412 363.663 482.412 359.346" stroke="#393739" stroke-width="1.75794" stroke-linecap="round"/>
<path id="Fill 26" fill-rule="evenodd" clip-rule="evenodd" d="M525.991 280.618C530.631 279.171 537.743 273.496 539.389 267.391C540.882 272.788 547.141 279.171 552.787 279.654C546.431 281.904 540.353 288.59 539.389 293.843C538.733 288.489 530.327 281.398 525.991 280.618Z" fill="#393739"/>
<path id="Fill 28" fill-rule="evenodd" clip-rule="evenodd" d="M49.723 349.122C52.0437 348.398 55.5982 345.562 56.4213 342.509C57.1678 345.206 60.2962 348.398 63.1196 348.64C59.9421 349.764 56.9041 353.108 56.4213 355.734C56.0933 353.057 51.8904 349.511 49.723 349.122Z" fill="#393739"/>
<path id="Fill 30" fill-rule="evenodd" clip-rule="evenodd" d="M92.7892 97.9635C92.7892 101.312 90.0761 104.024 86.7301 104.024C83.3825 104.024 80.671 101.312 80.671 97.9635C80.671 94.6166 83.3825 91.9028 86.7301 91.9028C90.0761 91.9028 92.7892 94.6166 92.7892 97.9635Z" fill="#393739"/>
<path id="Fill 32" fill-rule="evenodd" clip-rule="evenodd" d="M497.387 114.237C497.387 119.832 492.852 124.367 487.26 124.367C481.665 124.367 477.131 119.832 477.131 114.237C477.131 108.642 481.665 104.107 487.26 104.107C492.852 104.107 497.387 108.642 497.387 114.237Z" fill="#393739"/>
<path id="Fill 34" fill-rule="evenodd" clip-rule="evenodd" d="M637.666 86.792C637.666 91.2306 634.071 94.8274 629.635 94.8274C625.197 94.8274 621.601 91.2306 621.601 86.792C621.601 82.3534 625.197 78.7566 629.635 78.7566C634.071 78.7566 637.666 82.3534 637.666 86.792Z" fill="#393739"/>
<path id="Stroke 36" fill-rule="evenodd" clip-rule="evenodd" d="M206.025 462.077C206.025 464.875 203.758 467.143 200.961 467.143C198.165 467.143 195.898 464.875 195.898 462.077C195.898 459.279 198.165 457.011 200.961 457.011C203.758 457.011 206.025 459.279 206.025 462.077Z" stroke="#393739" stroke-width="1.75794" stroke-linecap="round"/>
<path id="Stroke 38" fill-rule="evenodd" clip-rule="evenodd" d="M203.014 59.0272C203.014 62.3757 200.301 65.0879 196.955 65.0879C193.609 65.0879 190.896 62.3757 190.896 59.0272C190.896 55.6803 193.609 52.9666 196.955 52.9666C200.301 52.9666 203.014 55.6803 203.014 59.0272Z" stroke="#393739" stroke-width="1.75794" stroke-linecap="round"/>
<path id="Stroke 40" fill-rule="evenodd" clip-rule="evenodd" d="M357.569 518.171C353.698 519.644 349.364 517.699 347.891 513.827C346.418 509.954 348.362 505.619 352.235 504.147C356.106 502.673 360.439 504.617 361.912 508.49C363.386 512.363 361.441 516.697 357.569 518.171Z" stroke="#393739" stroke-width="1.75794" stroke-linecap="round"/>
</g>
</g>
<g id="search">
<g id="documents">
<path id="Fill 1" fill-rule="evenodd" clip-rule="evenodd" d="M355.259 374.93H207.2C196.779 374.93 188.249 366.375 188.249 355.919V144.78C188.249 134.324 196.779 125.773 207.2 125.773H355.259C365.684 125.773 374.214 134.324 374.214 144.78V355.919C374.214 366.375 365.684 374.93 355.259 374.93Z" fill="#1F1D20"/>
<path id="Fill 3" fill-rule="evenodd" clip-rule="evenodd" d="M342.621 383.957H194.562C184.141 383.957 175.611 375.402 175.611 364.946V153.807C175.611 143.351 184.141 134.8 194.562 134.8H342.621C353.046 134.8 361.576 143.351 361.576 153.807V364.946C361.576 375.402 353.046 383.957 342.621 383.957Z" fill="#333335"/>
<path id="Fill 5" fill-rule="evenodd" clip-rule="evenodd" d="M330.328 391.084H181.963C171.521 391.084 162.973 382.564 162.973 372.151V161.887C162.973 151.474 171.521 142.958 181.963 142.958H330.328C340.775 142.958 349.323 151.474 349.323 161.887V372.151C349.323 382.564 340.775 391.084 330.328 391.084Z" fill="#D8DBEA"/>
<path id="Fill 8" fill-rule="evenodd" clip-rule="evenodd" d="M330.328 391.084H181.963C171.521 391.084 162.973 382.564 162.973 372.151V161.887C162.973 151.474 171.521 142.958 181.963 142.958H330.328C340.775 142.958 349.323 151.474 349.323 161.887V372.151C349.323 382.564 340.775 391.084 330.328 391.084Z" fill="#393739"/>
<path id="Fill 11" fill-rule="evenodd" clip-rule="evenodd" d="M308.945 207.02H199.36C196.23 207.02 193.668 204.583 193.668 201.606C193.668 198.624 196.23 196.187 199.36 196.187H308.945C312.074 196.187 314.636 198.624 314.636 201.606C314.636 204.583 312.074 207.02 308.945 207.02Z" fill="#5A585A"/>
<path id="Fill 13" fill-rule="evenodd" clip-rule="evenodd" d="M308.945 239.518H199.36C196.23 239.518 193.668 237.081 193.668 234.104C193.668 231.123 196.23 228.686 199.36 228.686H308.945C312.074 228.686 314.636 231.123 314.636 234.104C314.636 237.081 312.074 239.518 308.945 239.518Z" fill="#5A585A"/>
<path id="Fill 15" fill-rule="evenodd" clip-rule="evenodd" d="M308.945 272.017H199.36C196.23 272.017 193.668 269.58 193.668 266.603C193.668 263.626 196.23 261.185 199.36 261.185H308.945C312.074 261.185 314.636 263.626 314.636 266.603C314.636 269.58 312.074 272.017 308.945 272.017Z" fill="#5A585A"/>
<path id="Fill 17" fill-rule="evenodd" clip-rule="evenodd" d="M308.945 304.517H199.36C196.23 304.517 193.668 302.079 193.668 299.102C193.668 296.121 196.23 293.684 199.36 293.684H308.945C312.074 293.684 314.636 296.121 314.636 299.102C314.636 302.079 312.074 304.517 308.945 304.517Z" fill="#5A585A"/>
<path id="Fill 19" fill-rule="evenodd" clip-rule="evenodd" d="M256.561 337.015H199.384C196.241 337.015 193.668 334.578 193.668 331.6C193.668 328.619 196.241 326.182 199.384 326.182H256.561C259.704 326.182 262.277 328.619 262.277 331.6C262.277 334.578 259.704 337.015 256.561 337.015Z" fill="#5A585A"/>
</g>
<g id="search_2">
<path id="Fill 21" fill-rule="evenodd" clip-rule="evenodd" d="M371.968 295.014C350.055 316.923 316.132 319.395 291.504 302.479C288.356 300.279 285.361 297.807 282.567 295.014C281.129 293.581 279.773 292.102 278.496 290.544C275.941 287.434 273.703 284.117 271.87 280.69C268.64 274.902 266.444 268.759 265.244 262.41C261.376 242.5 267.16 221.069 282.567 205.669C298.01 190.224 319.445 184.477 339.359 188.309C345.704 189.544 351.852 191.74 357.642 194.933C361.074 196.808 364.345 199.045 367.461 201.599C369.014 202.872 370.493 204.232 371.927 205.669C374.725 208.463 377.234 211.453 379.393 214.605C396.316 239.224 393.839 273.147 371.968 295.014Z" fill="white" fill-opacity="0.1"/>
<path id="Fill 23" fill-rule="evenodd" clip-rule="evenodd" d="M365.838 290.699C343.041 313.5 306.096 313.496 283.295 290.699C260.523 267.927 260.523 230.978 283.325 208.181C306.096 185.409 343.041 185.409 365.813 208.181C388.61 230.978 388.61 267.927 365.838 290.699ZM377.54 196.468C348.278 167.206 300.859 167.206 271.597 196.468C242.339 225.726 242.314 273.174 271.572 302.436C298.204 329.06 339.946 331.461 369.306 309.601C372.173 307.463 374.935 305.066 377.569 302.436C380.2 299.802 382.596 297.04 384.73 294.173C406.59 264.809 404.168 223.096 377.54 196.468Z" fill="#5A585A"/>
<path id="Fill 25" fill-rule="evenodd" clip-rule="evenodd" d="M492.699 412.741L491.47 413.969C483.342 422.101 470.033 422.101 461.902 413.969L386.857 338.924L417.654 308.128L492.699 383.172C500.83 391.304 500.83 404.609 492.699 412.741Z" fill="#FF006E"/>
<path id="Fill 27" fill-rule="evenodd" clip-rule="evenodd" d="M386.347 291.878L408.523 314.054L392.78 329.793L370.608 307.617C373.534 305.436 376.348 302.99 379.041 300.306C381.724 297.622 384.17 294.804 386.347 291.878Z" fill="#5A585A"/>
<path id="Fill 29" fill-rule="evenodd" clip-rule="evenodd" d="M491.573 382.249L460.973 412.846L455.464 407.332L486.06 376.736L491.573 382.249Z" fill="#FF86A0"/>
<path id="Fill 31" fill-rule="evenodd" clip-rule="evenodd" d="M419.356 309.187L387.917 340.627L383.246 335.956L414.685 304.517L419.356 309.187Z" fill="#FF86A0"/>
<path id="Fill 33" fill-rule="evenodd" clip-rule="evenodd" d="M350.745 200.337L273.644 277.434C270.74 272.23 268.766 266.708 267.692 261.001L334.31 194.382C340.014 195.497 345.54 197.467 350.745 200.337Z" fill="white" fill-opacity="0.2"/>
<path id="Fill 35" fill-rule="evenodd" clip-rule="evenodd" d="M376.021 218.663L292.667 297.295C289.682 295.33 286.841 293.118 284.191 290.619C282.827 289.332 281.537 288.012 280.33 286.619L364.7 207.021C366.177 208.163 367.58 209.38 368.94 210.667C371.589 213.167 373.973 215.843 376.021 218.663Z" fill="white" fill-opacity="0.2"/>
</g>
</g>
</g>
</svg>
