<svg width="24" height="25" viewBox="0 0 24 25" fill="none" xmlns="http://www.w3.org/2000/svg">
<path d="M11 9.5H15C15.2652 9.5 15.5196 9.39464 15.7071 9.20711C15.8946 9.01957 16 8.76522 16 8.5C16 8.23478 15.8946 7.98043 15.7071 7.79289C15.5196 7.60536 15.2652 7.5 15 7.5H13V6.5C13 6.23478 12.8946 5.98043 12.7071 5.79289C12.5196 5.60536 12.2652 5.5 12 5.5C11.7348 5.5 11.4804 5.60536 11.2929 5.79289C11.1054 5.98043 11 6.23478 11 6.5V7.5C10.2044 7.5 9.44129 7.81607 8.87868 8.37868C8.31607 8.94129 8 9.70435 8 10.5C8 11.2956 8.31607 12.0587 8.87868 12.6213C9.44129 13.1839 10.2044 13.5 11 13.5H13C13.2652 13.5 13.5196 13.6054 13.7071 13.7929C13.8946 13.9804 14 14.2348 14 14.5C14 14.7652 13.8946 15.0196 13.7071 15.2071C13.5196 15.3946 13.2652 15.5 13 15.5H9C8.73479 15.5 8.48043 15.6054 8.2929 15.7929C8.10536 15.9804 8 16.2348 8 16.5C8 16.7652 8.10536 17.0196 8.2929 17.2071C8.48043 17.3946 8.73479 17.5 9 17.5H11V18.5C11 18.7652 11.1054 19.0196 11.2929 19.2071C11.4804 19.3946 11.7348 19.5 12 19.5C12.2652 19.5 12.5196 19.3946 12.7071 19.2071C12.8946 19.0196 13 18.7652 13 18.5V17.5C13.7957 17.5 14.5587 17.1839 15.1213 16.6213C15.6839 16.0587 16 15.2956 16 14.5C16 13.7044 15.6839 12.9413 15.1213 12.3787C14.5587 11.8161 13.7957 11.5 13 11.5H11C10.7348 11.5 10.4804 11.3946 10.2929 11.2071C10.1054 11.0196 10 10.7652 10 10.5C10 10.2348 10.1054 9.98043 10.2929 9.79289C10.4804 9.60536 10.7348 9.5 11 9.5ZM12 1.5C9.82441 1.5 7.69767 2.14514 5.88873 3.35383C4.07979 4.56253 2.66989 6.28049 1.83733 8.29048C1.00477 10.3005 0.786929 12.5122 1.21137 14.646C1.6358 16.7798 2.68345 18.7398 4.22183 20.2782C5.76021 21.8166 7.72022 22.8642 9.85401 23.2886C11.9878 23.7131 14.1995 23.4952 16.2095 22.6627C18.2195 21.8301 19.9375 20.4202 21.1462 18.6113C22.3549 16.8023 23 14.6756 23 12.5C23 9.58262 21.8411 6.78473 19.7782 4.72183C17.7153 2.65893 14.9174 1.5 12 1.5ZM12 21.5C10.22 21.5 8.47992 20.9722 6.99987 19.9832C5.51983 18.9943 4.36628 17.5887 3.68509 15.9442C3.0039 14.2996 2.82567 12.49 3.17294 10.7442C3.5202 8.99836 4.37737 7.39471 5.63604 6.13604C6.89472 4.87737 8.49836 4.0202 10.2442 3.67293C11.99 3.32567 13.7996 3.5039 15.4442 4.18508C17.0887 4.86627 18.4943 6.01983 19.4832 7.49987C20.4722 8.97991 21 10.72 21 12.5C21 14.8869 20.0518 17.1761 18.364 18.864C16.6761 20.5518 14.387 21.5 12 21.5Z" fill="white"/>
</svg>
