<svg width="40" height="41" viewBox="0 0 40 41" fill="none" xmlns="http://www.w3.org/2000/svg">
<circle cx="20" cy="20.5" r="20" fill="#2C7DF7"/>
<path d="M22.4316 31.5277C20.8122 31.5277 19.6302 31.1376 18.8856 30.3574C18.1958 29.6971 17.7955 28.7905 17.7723 27.8359C17.7639 27.5458 17.8311 27.2586 17.9673 27.0024C18.0943 26.7811 18.2779 26.5974 18.4991 26.4702C19.0205 26.2102 19.6337 26.2102 20.1551 26.4702C20.3759 26.5969 20.5586 26.7808 20.6839 27.0024C20.824 27.2574 20.8938 27.545 20.8859 27.8359C20.9004 28.1832 20.8008 28.5257 20.6023 28.811C20.4368 29.0439 20.2004 29.217 19.9283 29.3042C20.1943 29.6429 20.5708 29.8776 20.9921 29.9674C21.4634 30.1043 21.9515 30.1747 22.4423 30.1765C23.0921 30.1822 23.7285 29.9919 24.2686 29.6305C24.8288 29.2347 25.2466 28.6689 25.46 28.0171C25.7305 27.2412 25.8626 26.4239 25.85 25.6023C25.8719 24.7458 25.7273 23.8932 25.4245 23.0917C25.1967 22.4507 24.7643 21.9024 24.1941 21.5314C23.664 21.196 23.0487 21.02 22.4214 21.0244C21.8748 21.0707 21.3477 21.2497 20.8859 21.5457L19.7474 22.1165V21.5457L24.8642 14.6814H17.7723V21.8046C17.7522 22.3186 17.8882 22.8266 18.1623 23.2619C18.4321 23.6478 18.884 23.8643 19.3537 23.8328C19.7804 23.8242 20.1931 23.6787 20.5309 23.4179C20.9139 23.1373 21.2471 22.7945 21.5167 22.4037C21.541 22.3352 21.5858 22.2758 21.645 22.2336C21.6925 22.1926 21.7531 22.1699 21.8159 22.1698C21.9391 22.1811 22.0557 22.2306 22.1493 22.3116C22.2678 22.444 22.3323 22.6161 22.3301 22.7938C22.3164 22.9132 22.2951 23.0317 22.2662 23.1484C22.0143 23.7582 21.592 24.2825 21.0499 24.6585C20.5464 24.9992 19.9517 25.1799 19.3438 25.1768C17.8083 25.1768 16.7446 24.8742 16.1526 24.269C15.5379 23.5933 15.221 22.6987 15.2732 21.7867V14.6814H11.666V13.3579H15.29V10.3403L14.4603 9.51001V8.83331H16.8679L17.7723 9.30145V13.3579L27.1406 13.3294L28.0733 14.2656L22.3288 20.038C22.6758 19.8984 23.0413 19.81 23.4138 19.7756C24.151 19.8079 24.8702 20.0132 25.5134 20.3749C26.2582 20.7289 26.8858 21.2891 27.322 21.9889C27.7128 22.5813 27.9894 23.2416 28.1376 23.9357C28.2594 24.4831 28.3248 25.0417 28.3326 25.6025C28.3364 26.6727 28.0937 27.7295 27.6234 28.6909C27.1774 29.6219 26.4267 30.3726 25.4957 30.8186C24.5428 31.2882 23.494 31.5309 22.4316 31.5277Z" fill="white"/>
</svg>
