<svg width="40" height="41" viewBox="0 0 40 41" fill="none" xmlns="http://www.w3.org/2000/svg">
<rect y="0.5" width="40" height="40" rx="20" fill="#5C0FAE"/>
<path d="M27.9286 17.1287C27.9286 18.1592 27.6705 19.1252 27.1544 20.0269C26.6574 20.9286 25.8641 21.6554 24.7745 22.2075C23.7041 22.7595 22.3469 23.0355 20.703 23.0355H17.3482V30.4329H13.334V11.1666H20.703C22.2513 11.1666 23.5703 11.4242 24.6598 11.9395C25.7494 12.4547 26.5618 13.1632 27.0971 14.0648C27.6514 14.9665 27.9286 15.9878 27.9286 17.1287ZM20.5309 19.9165C21.6396 19.9165 22.4616 19.6773 22.9968 19.1988C23.532 18.702 23.7997 18.0119 23.7997 17.1287C23.7997 15.2517 22.7101 14.3133 20.5309 14.3133H17.3482V19.9165H20.5309Z" fill="white"/>
<path d="M21.573 30.6261C20.8466 30.6261 20.2444 30.4145 19.7666 29.9912C19.3078 29.5496 19.0784 29.0068 19.0784 28.3627C19.0784 27.7187 19.3078 27.185 19.7666 26.7618C20.2444 26.3202 20.8466 26.0993 21.573 26.0993C22.2802 26.0993 22.8632 26.3202 23.322 26.7618C23.7808 27.185 24.0102 27.7187 24.0102 28.3627C24.0102 29.0068 23.7808 29.5496 23.322 29.9912C22.8632 30.4145 22.2802 30.6261 21.573 30.6261Z" fill="white"/>
</svg>
