<svg width="40" height="41" viewBox="0 0 40 41" fill="none" xmlns="http://www.w3.org/2000/svg">
<circle cx="20" cy="20.5" r="19" fill="white"/>
<path d="M32.6159 8.89465L31.5176 9.99294C34.1383 12.8589 35.5916 16.6018 35.5916 20.4853C35.5916 24.3689 34.1383 28.1118 31.5176 30.9777L32.6159 32.076C35.5304 28.9147 37.1485 24.7724 37.1485 20.4725C37.1485 16.1727 35.5304 12.0304 32.6159 8.86902V8.89465Z" fill="#5A5564"/>
<path d="M9.51846 8.98981C12.3844 6.36909 16.1273 4.91577 20.0109 4.91577C23.8944 4.91577 27.6373 6.36909 30.5033 8.98981L31.6016 7.89151C28.4402 4.977 24.2979 3.35889 19.998 3.35889C15.6982 3.35889 11.5559 4.977 8.39453 7.89151L9.51846 8.98981Z" fill="#5A5564"/>
<path d="M8.4903 30.9887C5.87268 28.1234 4.42128 24.3828 4.42128 20.5018C4.42128 16.6209 5.87268 12.8802 8.4903 10.0149L7.392 8.91663C4.47749 12.078 2.85938 16.2203 2.85938 20.5201C2.85938 24.82 4.47749 28.9623 7.392 32.1236L8.4903 30.9887Z" fill="#5A5564"/>
<path d="M30.4893 32.0028C27.6234 34.6235 23.8805 36.0769 19.9969 36.0769C16.1134 36.0769 12.3705 34.6235 9.50455 32.0028L8.40625 33.1011C11.5676 36.0156 15.7099 37.6337 20.0098 37.6337C24.3096 37.6337 28.4519 36.0156 31.6133 33.1011L30.4893 32.0028Z" fill="#5A5564"/>
<path d="M26.9342 16.8353C26.7145 14.5435 24.7376 13.7747 22.2371 13.5404V10.3846H20.3041V13.4818C19.7953 13.4818 19.2754 13.4818 18.7592 13.4818V10.3846H16.8408V13.5624H12.9199V15.6308C12.9199 15.6308 14.3477 15.6052 14.3257 15.6308C14.5832 15.6025 14.8416 15.6752 15.0464 15.8337C15.2513 15.9921 15.3867 16.2239 15.424 16.4802V25.1787C15.4185 25.2691 15.395 25.3575 15.3547 25.4386C15.3145 25.5197 15.2584 25.5919 15.1897 25.651C15.1224 25.7112 15.0436 25.7571 14.958 25.786C14.8724 25.815 14.7819 25.8263 14.6918 25.8194C14.7175 25.8414 13.286 25.8194 13.286 25.8194L12.9199 28.1295H16.8042V31.3585H18.7372V28.1771H20.2822V31.3438H22.2188V28.1514C25.4844 27.9537 27.7616 27.1483 28.0471 24.0914C28.2778 21.6312 27.1209 20.5329 25.2721 20.0899C26.396 19.5371 27.0916 18.512 26.9342 16.8353ZM24.2251 23.7107C24.2251 26.1123 20.1101 25.8377 18.7995 25.8377V21.5763C20.1101 21.58 24.2251 21.2029 24.2251 23.7107ZM23.3281 17.7066C23.3281 19.9032 19.8941 19.636 18.8031 19.636V15.7626C19.8941 15.7626 23.3281 15.4185 23.3281 17.7066Z" fill="#F09242"/>
<path d="M19.9963 40.5C16.041 40.4993 12.1747 39.3258 8.88632 37.1279C5.5979 34.93 3.03502 31.8064 1.52172 28.152C0.00841897 24.4976 -0.387339 20.4766 0.384482 16.5973C1.1563 12.718 3.06104 9.1547 5.85787 6.35787C8.6547 3.56104 12.218 1.6563 16.0973 0.884482C19.9766 0.112661 23.9976 0.508419 27.652 2.02172C31.3064 3.53502 34.43 6.0979 36.6279 9.38632C38.8258 12.6747 39.9993 16.541 40 20.4963C40.0005 23.1234 39.4834 25.7248 38.4783 28.152C37.4732 30.5792 35.9997 32.7845 34.1421 34.6421C32.2845 36.4997 30.0792 37.9732 27.652 38.9783C25.2248 39.9834 22.6234 40.5005 19.9963 40.5ZM19.9963 2.05959C16.3523 2.06249 12.7909 3.14563 9.76225 5.17212C6.73364 7.19861 4.37376 10.0775 2.98091 13.4448C1.58807 16.8122 1.22476 20.5169 1.93693 24.0907C2.64909 27.6645 4.40475 30.9469 6.982 33.5232C9.55925 36.0994 12.8424 37.8538 16.4165 38.5645C19.9906 39.2752 23.6951 38.9105 27.0619 37.5163C30.4287 36.1221 33.3067 33.7611 35.332 30.7317C37.3572 27.7022 38.439 24.1404 38.4404 20.4963C38.4414 18.0743 37.9649 15.6758 37.0383 13.4381C36.1116 11.2003 34.753 9.16715 33.04 7.45485C31.327 5.74255 29.2933 4.3847 27.0552 3.45894C24.817 2.53318 22.4184 2.05767 19.9963 2.05959Z" fill="#282138"/>
</svg>
