<svg width="20" height="20" viewBox="0 0 20 20" fill="none" xmlns="http://www.w3.org/2000/svg">
<path d="M10 18.3334C13.4312 18.3334 16.25 15.6142 16.25 12.1242C16.25 11.2676 16.2063 10.3492 15.7313 8.92175C15.2563 7.49425 15.1608 7.31008 14.6587 6.42841C14.4442 8.22716 13.2962 8.97716 13.0046 9.20133C13.0046 8.968 12.3104 6.39008 11.2575 4.84716C10.2237 3.33341 8.81792 2.3405 7.99375 1.66675C7.99375 2.94591 7.63417 4.84758 7.11875 5.81675C6.60375 6.7855 6.50708 6.82091 5.86333 7.54175C5.22 8.26258 4.92458 8.4855 4.38625 9.3605C3.84833 10.2355 3.75 11.4009 3.75 12.2576C3.75 15.7476 6.56875 18.3334 10 18.3334Z" stroke="white" stroke-width="1.5" stroke-linejoin="round"/>
</svg>
