<svg width="20" height="20" viewBox="0 0 20 20" fill="none" xmlns="http://www.w3.org/2000/svg">
<g clip-path="url(#clip0_2177_39179)">
<path d="M14.2988 5.70308C13.9739 5.378 13.7836 4.94224 13.7661 4.48293C13.7486 4.02362 13.9051 3.57462 14.2043 3.22573C14.2291 3.19671 14.2419 3.15942 14.2403 3.12131C14.2387 3.08321 14.2228 3.04711 14.1957 3.02026L12.4719 1.29448C12.4434 1.266 12.4048 1.25 12.3645 1.25C12.3242 1.25 12.2855 1.266 12.257 1.29448L9.50939 4.04214C9.40801 4.14349 9.33164 4.26707 9.28634 4.40307C9.24121 4.53939 9.16493 4.66332 9.06357 4.76503C8.9622 4.86674 8.83852 4.94343 8.70236 4.98901C8.56626 5.03436 8.44256 5.11072 8.34103 5.21206L1.29454 12.257C1.26606 12.2855 1.25006 12.3241 1.25006 12.3644C1.25006 12.4047 1.26606 12.4433 1.29454 12.4718L3.01837 14.1957C3.04522 14.2227 3.08131 14.2387 3.11942 14.2403C3.15752 14.2419 3.19482 14.229 3.22384 14.2042C3.57266 13.9047 4.02175 13.7479 4.48122 13.7653C4.94069 13.7828 5.37662 13.9731 5.70175 14.2982C6.02688 14.6233 6.2172 15.0593 6.23463 15.5187C6.25205 15.9782 6.09528 16.4273 5.79571 16.7761C5.77096 16.8051 5.7581 16.8424 5.75969 16.8805C5.76128 16.9186 5.77722 16.9547 5.80431 16.9816L7.52814 18.7054C7.55663 18.7339 7.59527 18.7499 7.63556 18.7499C7.67585 18.7499 7.71449 18.7339 7.74298 18.7054L14.7899 11.6589C14.8912 11.5574 14.9676 11.4337 15.0129 11.2976C15.058 11.1613 15.1343 11.0374 15.2357 10.9357C15.337 10.8339 15.4607 10.7573 15.5969 10.7117C15.7329 10.6664 15.8565 10.59 15.9578 10.4886L18.7055 7.74097C18.734 7.71247 18.75 7.67383 18.75 7.63354C18.75 7.59326 18.734 7.55462 18.7055 7.52612L16.9817 5.80229C16.9548 5.77521 16.9187 5.75927 16.8806 5.75768C16.8425 5.75608 16.8052 5.76895 16.7762 5.7937C16.4278 6.09345 15.9791 6.25065 15.5198 6.23384C15.0605 6.21704 14.6244 6.02748 14.2988 5.70308Z" stroke="white" stroke-width="1.5" stroke-miterlimit="10"/>
<path d="M9.78515 5.48599L9.14023 4.84106M11.5047 7.20552L11.0746 6.77583M13.2242 8.92544L12.7945 8.49536M15.159 10.8598L14.5141 10.2149" stroke="white" stroke-width="1.5" stroke-miterlimit="10" stroke-linecap="round"/>
</g>
<defs>
<clipPath id="clip0_2177_39179">
<rect width="20" height="20" fill="white"/>
</clipPath>
</defs>
</svg>
