<svg width="24" height="24" viewBox="0 0 24 24" fill="none" xmlns="http://www.w3.org/2000/svg">
<path d="M12 0C9.62663 0 7.30655 0.703788 5.33316 2.02236C3.35977 3.34094 1.8217 5.21508 0.913451 7.4078C0.00519941 9.60051 -0.232441 12.0133 0.230582 14.3411C0.693605 16.6689 1.83649 18.807 3.51472 20.4853C5.19295 22.1635 7.33115 23.3064 9.65892 23.7694C11.9867 24.2324 14.3995 23.9948 16.5922 23.0865C18.7849 22.1783 20.6591 20.6402 21.9776 18.6668C23.2962 16.6934 24 14.3734 24 12C23.9939 8.81927 22.7277 5.77057 20.4785 3.52146C18.2294 1.27234 15.1807 0.0060992 12 0ZM13.3846 17.5385H12.9231V18.4615C12.9231 18.7064 12.8258 18.9411 12.6527 19.1142C12.4796 19.2874 12.2448 19.3846 12 19.3846C11.7552 19.3846 11.5204 19.2874 11.3473 19.1142C11.1742 18.9411 11.0769 18.7064 11.0769 18.4615V17.5385H9.23077C8.98596 17.5385 8.75117 17.4412 8.57806 17.2681C8.40495 17.095 8.3077 16.8602 8.3077 16.6154C8.3077 16.3706 8.40495 16.1358 8.57806 15.9627C8.75117 15.7896 8.98596 15.6923 9.23077 15.6923H13.3846C13.7518 15.6923 14.104 15.5464 14.3637 15.2868C14.6234 15.0271 14.7692 14.6749 14.7692 14.3077C14.7692 13.9405 14.6234 13.5883 14.3637 13.3286C14.104 13.069 13.7518 12.9231 13.3846 12.9231H10.6154C9.75853 12.9231 8.93678 12.5827 8.33089 11.9768C7.725 11.3709 7.38462 10.5492 7.38462 9.69231C7.38462 8.83545 7.725 8.01369 8.33089 7.40781C8.93678 6.80192 9.75853 6.46154 10.6154 6.46154H11.0769V5.53846C11.0769 5.29365 11.1742 5.05886 11.3473 4.88575C11.5204 4.71264 11.7552 4.61538 12 4.61538C12.2448 4.61538 12.4796 4.71264 12.6527 4.88575C12.8258 5.05886 12.9231 5.29365 12.9231 5.53846V6.46154H14.7692C15.014 6.46154 15.2488 6.55879 15.4219 6.7319C15.5951 6.90501 15.6923 7.1398 15.6923 7.38461C15.6923 7.62943 15.5951 7.86422 15.4219 8.03733C15.2488 8.21044 15.014 8.30769 14.7692 8.30769H10.6154C10.2482 8.30769 9.89598 8.45357 9.63632 8.71323C9.37665 8.9729 9.23077 9.32508 9.23077 9.69231C9.23077 10.0595 9.37665 10.4117 9.63632 10.6714C9.89598 10.931 10.2482 11.0769 10.6154 11.0769H13.3846C14.2415 11.0769 15.0632 11.4173 15.6691 12.0232C16.275 12.6291 16.6154 13.4508 16.6154 14.3077C16.6154 15.1645 16.275 15.9863 15.6691 16.5922C15.0632 17.1981 14.2415 17.5385 13.3846 17.5385Z" fill="white"/>
</svg>
