<svg width="22" height="17" viewBox="0 0 22 17" fill="none" xmlns="http://www.w3.org/2000/svg">
<path d="M18.952 2.172C17.048 0.640995 14.036 0.381995 13.908 0.370995C13.707 0.353995 13.516 0.467995 13.434 0.651995C13.428 0.663995 13.362 0.814995 13.289 1.05C14.548 1.262 16.095 1.69 17.495 2.559C17.719 2.698 17.788 2.993 17.649 3.218C17.559 3.364 17.402 3.44399 17.242 3.44399C17.156 3.44399 17.069 3.421 16.99 3.372C14.584 1.88 11.578 1.805 11 1.805C10.422 1.805 7.415 1.88 5.011 3.372C4.786 3.512 4.492 3.442 4.352 3.218C4.212 2.993 4.282 2.699 4.506 2.559C5.906 1.691 7.452 1.262 8.712 1.05C8.638 0.813995 8.572 0.663995 8.567 0.651995C8.484 0.467995 8.294 0.351995 8.092 0.371995C7.965 0.381995 4.953 0.640995 3.023 2.194C2.015 3.125 0 8.573 0 13.283C0 13.366 0.022 13.448 0.063 13.52C1.454 15.963 5.248 16.603 6.113 16.631C6.118 16.631 6.123 16.631 6.128 16.631C6.281 16.631 6.425 16.558 6.515 16.434L7.39 15.232C5.031 14.622 3.826 13.587 3.756 13.526C3.558 13.351 3.539 13.049 3.714 12.851C3.889 12.653 4.19 12.634 4.388 12.808C4.417 12.834 6.636 14.717 11 14.717C15.372 14.717 17.591 12.826 17.613 12.807C17.811 12.635 18.113 12.653 18.287 12.852C18.461 13.05 18.442 13.351 18.245 13.525C18.175 13.587 16.97 14.621 14.611 15.231L15.486 16.433C15.576 16.557 15.72 16.63 15.873 16.63C15.878 16.63 15.883 16.63 15.888 16.63C16.753 16.603 20.547 15.963 21.938 13.519C21.978 13.447 22 13.366 22 13.283C22 8.573 19.985 3.125 18.952 2.172ZM7.891 11.37C6.967 11.37 6.217 10.513 6.217 9.457C6.217 8.401 6.966 7.54399 7.891 7.54399C8.816 7.54399 9.565 8.401 9.565 9.457C9.565 10.513 8.816 11.37 7.891 11.37ZM14.109 11.37C13.185 11.37 12.435 10.513 12.435 9.457C12.435 8.401 13.184 7.54399 14.109 7.54399C15.033 7.54399 15.783 8.401 15.783 9.457C15.783 10.513 15.033 11.37 14.109 11.37Z" fill="white"/>
</svg>
