<svg width="20" height="21" viewBox="0 0 20 21" fill="none" xmlns="http://www.w3.org/2000/svg">
<path d="M10 0.5C4.48 0.5 0 4.98 0 10.5C0 16.02 4.48 20.5 10 20.5C15.52 20.5 20 16.02 20 10.5C20 4.98 15.52 0.5 10 0.5ZM11 17.5H9V15.5H11V17.5ZM13.07 9.75L12.17 10.67C11.45 11.4 11 12 11 13.5H9V13C9 11.9 9.45 10.9 10.17 10.17L11.41 8.91C11.78 8.55 12 8.05 12 7.5C12 6.4 11.1 5.5 10 5.5C8.9 5.5 8 6.4 8 7.5H6C6 5.29 7.79 3.5 10 3.5C12.21 3.5 14 5.29 14 7.5C14 8.38 13.64 9.18 13.07 9.75Z" fill="white"/>
</svg>
