<svg width="19" height="21" viewBox="0 0 19 21" fill="none" xmlns="http://www.w3.org/2000/svg">
<path d="M15.8102 2.97C15.7302 2.97 15.6502 2.95 15.5802 2.91C13.6602 1.92 12.0002 1.5 10.0102 1.5C8.03023 1.5 6.15023 1.97 4.44023 2.91C4.20023 3.04 3.90023 2.95 3.76023 2.71C3.63023 2.47 3.72023 2.16 3.96023 2.03C5.82023 1.02 7.86023 0.5 10.0102 0.5C12.1402 0.5 14.0002 0.97 16.0402 2.02C16.2902 2.15 16.3802 2.45 16.2502 2.69C16.1602 2.87 15.9902 2.97 15.8102 2.97ZM1.50023 8.22C1.40023 8.22 1.30023 8.19 1.21023 8.13C0.980229 7.97 0.930229 7.66 1.09023 7.43C2.08023 6.03 3.34023 4.93 4.84023 4.16C7.98023 2.54 12.0002 2.53 15.1502 4.15C16.6502 4.92 17.9102 6.01 18.9002 7.4C19.0602 7.62 19.0102 7.94 18.7802 8.1C18.5502 8.26 18.2402 8.21 18.0802 7.98C17.1802 6.72 16.0402 5.73 14.6902 5.04C11.8202 3.57 8.15023 3.57 5.29023 5.05C3.93023 5.75 2.79023 6.75 1.89023 8.01C1.81023 8.15 1.66023 8.22 1.50023 8.22ZM7.75023 20.29C7.62023 20.29 7.49023 20.24 7.40023 20.14C6.53023 19.27 6.06023 18.71 5.39023 17.5C4.70023 16.27 4.34023 14.77 4.34023 13.16C4.34023 10.19 6.88023 7.77 10.0002 7.77C13.1202 7.77 15.6602 10.19 15.6602 13.16C15.6602 13.44 15.4402 13.66 15.1602 13.66C14.8802 13.66 14.6602 13.44 14.6602 13.16C14.6602 10.74 12.5702 8.77 10.0002 8.77C7.43023 8.77 5.34023 10.74 5.34023 13.16C5.34023 14.6 5.66023 15.93 6.27023 17.01C6.91023 18.16 7.35023 18.65 8.12023 19.43C8.31023 19.63 8.31023 19.94 8.12023 20.14C8.01023 20.24 7.88023 20.29 7.75023 20.29ZM14.9202 18.44C13.7302 18.44 12.6802 18.14 11.8202 17.55C10.3302 16.54 9.44023 14.9 9.44023 13.16C9.44023 12.88 9.66023 12.66 9.94023 12.66C10.2202 12.66 10.4402 12.88 10.4402 13.16C10.4402 14.57 11.1602 15.9 12.3802 16.72C13.0902 17.2 13.9202 17.43 14.9202 17.43C15.1602 17.43 15.5602 17.4 15.9602 17.33C16.2302 17.28 16.4902 17.46 16.5402 17.74C16.5902 18.01 16.4102 18.27 16.1302 18.32C15.5602 18.43 15.0602 18.44 14.9202 18.44ZM12.9102 20.5C12.8702 20.5 12.8202 20.49 12.7802 20.48C11.1902 20.04 10.1502 19.45 9.06023 18.38C7.66023 16.99 6.89023 15.14 6.89023 13.16C6.89023 11.54 8.27023 10.22 9.97023 10.22C11.6702 10.22 13.0502 11.54 13.0502 13.16C13.0502 14.23 13.9802 15.1 15.1302 15.1C16.2802 15.1 17.2102 14.23 17.2102 13.16C17.2102 9.39 13.9602 6.33 9.96023 6.33C7.12023 6.33 4.52023 7.91 3.35023 10.36C2.96023 11.17 2.76023 12.12 2.76023 13.16C2.76023 13.94 2.83023 15.17 3.43023 16.77C3.53023 17.03 3.40023 17.32 3.14023 17.41C2.88023 17.51 2.59023 17.37 2.50023 17.12C2.01023 15.81 1.77023 14.51 1.77023 13.16C1.77023 11.96 2.00023 10.87 2.45023 9.92C3.78023 7.13 6.73023 5.32 9.96023 5.32C14.5102 5.32 18.2102 8.83 18.2102 13.15C18.2102 14.77 16.8302 16.09 15.1302 16.09C13.4302 16.09 12.0502 14.77 12.0502 13.15C12.0502 12.08 11.1202 11.21 9.97023 11.21C8.82023 11.21 7.89023 12.08 7.89023 13.15C7.89023 14.86 8.55023 16.46 9.76023 17.66C10.7102 18.6 11.6202 19.12 13.0302 19.51C13.3002 19.58 13.4502 19.86 13.3802 20.12C13.3302 20.35 13.1202 20.5 12.9102 20.5Z" fill="white"/>
</svg>
