<svg width="25" height="24" viewBox="0 0 25 24" fill="none" xmlns="http://www.w3.org/2000/svg">
<path d="M21.4 2L19.4 4M11.79 11.61L15.9 7.5M15.9 7.5L18.9 10.5L22.4 7L19.4 4M15.9 7.5L19.4 4M11.79 11.61C12.3063 12.1195 12.7168 12.726 12.9977 13.3948C13.2787 14.0635 13.4246 14.7813 13.427 15.5066C13.4294 16.232 13.2883 16.9507 13.0119 17.6213C12.7354 18.2919 12.329 18.9012 11.8161 19.4141C11.3032 19.9271 10.6939 20.3334 10.0233 20.6099C9.35265 20.8864 8.63396 21.0275 7.9086 21.025C7.18323 21.0226 6.46551 20.8767 5.79675 20.5958C5.128 20.3148 4.52143 19.9043 4.01196 19.388C3.01009 18.3507 2.45572 16.9614 2.46826 15.5193C2.48079 14.0772 3.05922 12.6977 4.07896 11.678C5.09871 10.6583 6.47817 10.0798 7.92026 10.0673C9.36234 10.0548 10.7517 10.6091 11.789 11.611L11.79 11.61Z" stroke="white" stroke-width="2" stroke-linecap="round" stroke-linejoin="round"/>
</svg>
