<svg width="20" height="20" viewBox="0 0 20 20" fill="none" xmlns="http://www.w3.org/2000/svg">
<path d="M0.833374 3.3335V8.3335H5.83337" stroke="#FF5449" stroke-width="1.66667" stroke-linecap="round" stroke-linejoin="round"/>
<path d="M19.1666 16.6665V11.6665H14.1666" stroke="#FF5449" stroke-width="1.66667" stroke-linecap="round" stroke-linejoin="round"/>
<path d="M17.075 7.49998C16.6524 6.30564 15.9341 5.23782 14.9872 4.39616C14.0402 3.55451 12.8955 2.96645 11.6598 2.68686C10.4241 2.40727 9.13775 2.44527 7.92072 2.79729C6.70369 3.14932 5.59566 3.80391 4.70004 4.69998L0.833374 8.33331M19.1667 11.6666L15.3 15.3C14.4044 16.1961 13.2964 16.8506 12.0794 17.2027C10.8623 17.5547 9.57596 17.5927 8.34028 17.3131C7.1046 17.0335 5.95987 16.4455 5.01293 15.6038C4.06599 14.7621 3.34768 13.6943 2.92504 12.5" stroke="#FF5449" stroke-width="1.66667" stroke-linecap="round" stroke-linejoin="round"/>
</svg>
