<svg width="24" height="25" viewBox="0 0 24 25" fill="none" xmlns="http://www.w3.org/2000/svg">
<path d="M18.6668 18.7227L16.7653 16.8213C16.4232 16.4792 16.6659 15.8957 17.1487 15.8957H18.6861C20.4276 15.8957 21.8398 14.4835 21.8398 12.7422H2.22852C2.22852 14.4835 3.64076 15.8957 5.38217 15.8957H6.91963C7.40242 15.8957 7.64511 16.4792 7.30303 16.8213L5.40154 18.7227C5.18983 18.9344 5.18983 19.2777 5.40154 19.4894L6.86412 20.952C7.07583 21.1637 7.41921 21.1637 7.63091 20.952L9.5324 19.0506C9.87449 18.7085 10.458 18.9512 10.458 19.4339V21.7755C10.458 22.075 10.7007 22.3177 11.0001 22.3177H13.0695C13.3689 22.3177 13.6116 22.075 13.6116 21.7755V19.4339C13.6116 18.9512 14.1951 18.7085 14.5372 19.0506L16.4387 20.952C16.6504 21.1637 16.9938 21.1637 17.2055 20.952L18.6681 19.4894C18.8798 19.2777 18.8798 18.9344 18.6681 18.7227H18.6668Z" fill="white"/>
<path d="M12.0311 6.0727C14.3353 6.0727 16.3607 7.28996 17.4967 9.11522H6.56541C7.70269 7.28996 9.7281 6.0727 12.0324 6.0727H12.0311ZM12.0324 2.68164C6.61317 2.68164 2.20605 7.08859 2.20605 12.5063H21.8561C21.8561 7.08859 17.4489 2.68164 12.0311 2.68164L12.0324 2.68164Z" fill="#BBA6ED"/>
<path d="M12.0303 6.06543C8.47255 6.06543 5.5874 8.94918 5.5874 12.508H18.4731C18.4731 8.95047 15.588 6.06543 12.0303 6.06543Z" fill="#7850DC"/>
<path d="M15.0872 12.5066H8.98389C8.98389 10.8234 10.3522 9.45508 12.0356 9.45508C13.7189 9.45508 15.0872 10.8234 15.0872 12.5066Z" fill="white"/>
</svg>
