<svg width="24" height="25" viewBox="0 0 24 25" fill="none" xmlns="http://www.w3.org/2000/svg">
<g clip-path="url(#clip0_325_379)">
<path d="M20.1 8.04995H15.6V6.56855C15.6 5.40035 14.6496 4.44995 13.4814 4.44995H10.4412C9.3171 4.44995 8.3991 5.36435 8.3946 6.488C8.3919 7.19945 8.3901 7.694 8.3964 8.04995H3.9C3.4032 8.04995 3 8.45315 3 8.94995C3 9.44675 3.4032 9.84995 3.9 9.84995H4.8783L5.70045 18.895C5.7243 20.3629 6.92625 21.55 8.4 21.55H15.6C17.0737 21.55 18.2752 20.3629 18.2996 18.895L19.1222 9.84995H20.1C20.5968 9.84995 21 9.44675 21 8.94995C21 8.45315 20.5968 8.04995 20.1 8.04995ZM10.1946 6.4952C10.195 6.35975 10.3057 6.24995 10.4412 6.24995H13.4814C13.6573 6.24995 13.8 6.39305 13.8 6.56855V8.04995H10.1924C10.191 7.7723 10.1914 7.3007 10.1946 6.4952ZM16.5036 18.7685C16.5013 18.7955 16.5 18.8225 16.5 18.85C16.5 19.3463 16.0963 19.75 15.6 19.75H8.4C7.90365 19.75 7.5 19.3463 7.5 18.85C7.5 18.8225 7.49865 18.7955 7.4964 18.7685L6.6855 9.84995H17.3145L16.5036 18.7685Z" fill="white"/>
<path d="M10.1998 17.9499C10.6966 17.9499 11.0998 17.5467 11.0998 17.0499V12.5499C11.0998 12.0531 10.6966 11.6499 10.1998 11.6499C9.703 11.6499 9.2998 12.0531 9.2998 12.5499V17.0499C9.2998 17.5467 9.703 17.9499 10.1998 17.9499Z" fill="white"/>
<path d="M13.7999 17.9499C14.2967 17.9499 14.6999 17.5467 14.6999 17.0499V12.5499C14.6999 12.0531 14.2967 11.6499 13.7999 11.6499C13.3031 11.6499 12.8999 12.0531 12.8999 12.5499V17.0499C12.8999 17.5467 13.3031 17.9499 13.7999 17.9499Z" fill="white"/>
</g>
<defs>
<clipPath id="clip0_325_379">
<rect width="24" height="24" fill="white" transform="translate(0 0.5)"/>
</clipPath>
</defs>
</svg>
