<svg width="25" height="24" viewBox="0 0 25 24" fill="none" xmlns="http://www.w3.org/2000/svg">
<path d="M11 20H6C5.73478 20 5.48043 19.8946 5.29289 19.7071C5.10536 19.5196 5 19.2652 5 19V5C5 4.73478 5.10536 4.48043 5.29289 4.29289C5.48043 4.10536 5.73478 4 6 4H11V7C11 7.79565 11.3161 8.55871 11.8787 9.12132C12.4413 9.68393 13.2044 10 14 10H17C17 10.2652 17.1054 10.5196 17.2929 10.7071C17.4804 10.8946 17.7348 11 18 11C18.2652 11 18.5196 10.8946 18.7071 10.7071C18.8946 10.5196 19 10.2652 19 10V9C19 9 19 9 19 8.94C18.9896 8.84813 18.9695 8.75763 18.94 8.67V8.58C18.8919 8.47718 18.8278 8.38267 18.75 8.3L12.75 2.3C12.6673 2.22222 12.5728 2.15808 12.47 2.11C12.4402 2.10576 12.4099 2.10576 12.38 2.11L12.06 2H6C5.20435 2 4.44129 2.31607 3.87868 2.87868C3.31607 3.44129 3 4.20435 3 5V19C3 19.7956 3.31607 20.5587 3.87868 21.1213C4.44129 21.6839 5.20435 22 6 22H11C11.2652 22 11.5196 21.8946 11.7071 21.7071C11.8946 21.5196 12 21.2652 12 21C12 20.7348 11.8946 20.4804 11.7071 20.2929C11.5196 20.1054 11.2652 20 11 20ZM13 5.41L15.59 8H14C13.7348 8 13.4804 7.89464 13.2929 7.70711C13.1054 7.51957 13 7.26522 13 7V5.41ZM8 8C7.73478 8 7.48043 8.10536 7.29289 8.29289C7.10536 8.48043 7 8.73478 7 9C7 9.26522 7.10536 9.51957 7.29289 9.70711C7.48043 9.89464 7.73478 10 8 10H9C9.26522 10 9.51957 9.89464 9.70711 9.70711C9.89464 9.51957 10 9.26522 10 9C10 8.73478 9.89464 8.48043 9.70711 8.29289C9.51957 8.10536 9.26522 8 9 8H8ZM21.63 13.86C21.5138 13.766 21.3781 13.6993 21.2327 13.6647C21.0873 13.6301 20.9361 13.6285 20.79 13.66C20.4108 13.7399 20.0191 13.7394 19.6401 13.6584C19.2612 13.5774 18.9034 13.4179 18.59 13.19C18.4187 13.0649 18.2121 12.9974 18 12.9974C17.7879 12.9974 17.5813 13.0649 17.41 13.19C17.0963 13.4173 16.7385 13.5765 16.3597 13.6575C15.9808 13.7384 15.5892 13.7393 15.21 13.66C15.0623 13.6282 14.9094 13.6304 14.7626 13.6662C14.6159 13.702 14.4791 13.7706 14.3627 13.8668C14.2463 13.9631 14.1531 14.0844 14.0903 14.2218C14.0275 14.3592 13.9966 14.509 14 14.66V17C13.9984 17.7158 14.164 18.4221 14.4834 19.0627C14.8028 19.7033 15.2673 20.2605 15.84 20.69L17.4 21.8C17.5731 21.9298 17.7836 22 18 22C18.2164 22 18.4269 21.9298 18.6 21.8L20.16 20.64C20.7259 20.2156 21.1864 19.6664 21.5055 19.0351C21.8246 18.4038 21.9938 17.7074 22 17V14.63C21.999 14.4823 21.9653 14.3366 21.9014 14.2035C21.8374 14.0704 21.7447 13.9531 21.63 13.86ZM20 17C20.0047 17.4017 19.917 17.7991 19.7436 18.1615C19.5702 18.5239 19.3158 18.8416 19 19.09L18 19.81L17 19.09C16.6842 18.8416 16.4298 18.5239 16.2564 18.1615C16.083 17.7991 15.9953 17.4017 16 17V15.72C16.6994 15.6886 17.3829 15.5006 18 15.17C18.6171 15.5006 19.3006 15.6886 20 15.72V17ZM11 16.05H8C7.73478 16.05 7.48043 16.1554 7.29289 16.3429C7.10536 16.5304 7 16.7848 7 17.05C7 17.3152 7.10536 17.5696 7.29289 17.7571C7.48043 17.9446 7.73478 18.05 8 18.05H11C11.2652 18.05 11.5196 17.9446 11.7071 17.7571C11.8946 17.5696 12 17.3152 12 17.05C12 16.7848 11.8946 16.5304 11.7071 16.3429C11.5196 16.1554 11.2652 16.05 11 16.05ZM12 12.05H8C7.73478 12.05 7.48043 12.1554 7.29289 12.3429C7.10536 12.5304 7 12.7848 7 13.05C7 13.3152 7.10536 13.5696 7.29289 13.7571C7.48043 13.9446 7.73478 14.05 8 14.05H12C12.2652 14.05 12.5196 13.9446 12.7071 13.7571C12.8946 13.5696 13 13.3152 13 13.05C13 12.7848 12.8946 12.5304 12.7071 12.3429C12.5196 12.1554 12.2652 12.05 12 12.05Z" fill="white"/>
</svg>
