<svg width="24" height="24" viewBox="0 0 24 24" fill="none" xmlns="http://www.w3.org/2000/svg">
<path d="M11.9998 18.0018L7.15252 20.9218C6.93838 21.0581 6.71451 21.1165 6.48091 21.097C6.24731 21.0776 6.04291 20.9997 5.8677 20.8634C5.6925 20.7272 5.55623 20.557 5.4589 20.353C5.36156 20.1482 5.3421 19.9193 5.4005 19.6662L6.68531 14.1473L2.39286 10.4389C2.19819 10.2637 2.07672 10.064 2.02844 9.83971C1.97938 9.61623 1.99379 9.39742 2.07166 9.18329C2.14952 8.96915 2.26633 8.79395 2.42206 8.65768C2.5778 8.52141 2.79193 8.43381 3.06447 8.39488L8.72934 7.89847L10.9194 2.70081C11.0167 2.46721 11.1678 2.292 11.3726 2.1752C11.5766 2.0584 11.7856 2 11.9998 2C12.2139 2 12.4234 2.0584 12.6282 2.1752C12.8322 2.292 12.9829 2.46721 13.0802 2.70081L15.2702 7.89847L20.9351 8.39488C21.2076 8.43381 21.4218 8.52141 21.5775 8.65768C21.7332 8.79395 21.85 8.96915 21.9279 9.18329C22.0058 9.39742 22.0206 9.61623 21.9723 9.83971C21.9232 10.064 21.8014 10.2637 21.6067 10.4389L17.3142 14.1473L18.5991 19.6662C18.6575 19.9193 18.638 20.1482 18.5407 20.353C18.4433 20.557 18.3071 20.7272 18.1319 20.8634C17.9567 20.9997 17.7522 21.0776 17.5186 21.097C17.285 21.1165 17.0612 21.0581 16.847 20.9218L11.9998 18.0018Z" fill="white"/>
</svg>
