<svg width="20" height="17" viewBox="0 0 20 17" fill="none" xmlns="http://www.w3.org/2000/svg">
<path d="M20 0.499023C19.22 0.962023 17.655 1.59302 16.735 1.77502C16.708 1.78202 16.686 1.79102 16.66 1.79802C15.847 0.996023 14.733 0.499023 13.5 0.499023C11.015 0.499023 9 2.51402 9 4.99902C9 5.13002 8.989 5.37102 9 5.49902C5.647 5.49902 3.095 3.74302 1.265 1.49902C1.066 1.99902 0.979 2.78902 0.979 3.53102C0.979 4.93202 2.074 6.30802 3.779 7.16102C3.465 7.24202 3.119 7.30002 2.759 7.30002C2.178 7.30002 1.563 7.14702 1 6.68302C1 6.70002 1 6.71602 1 6.73402C1 8.69202 3.078 10.025 4.926 10.396C4.551 10.617 3.795 10.639 3.426 10.639C3.166 10.639 2.246 10.52 2 10.474C2.514 12.079 4.368 12.981 6.135 13.013C4.753 14.097 3.794 14.499 0.964 14.499H0C1.788 15.645 4.065 16.5 6.347 16.5C13.777 16.5 18 10.837 18 5.49902C18 5.41302 17.998 5.23302 17.995 5.05202C17.995 5.03402 18 5.01702 18 4.99902C18 4.97202 17.992 4.94602 17.992 4.91902C17.989 4.78302 17.986 4.65602 17.983 4.59002C18.773 4.02002 19.458 3.30902 20 2.49902C19.275 2.82102 18.497 3.03702 17.68 3.13502C18.514 2.63502 19.699 1.44302 20 0.499023Z" fill="white"/>
</svg>
