<svg width="32" height="32" viewBox="0 0 32 32" fill="none" xmlns="http://www.w3.org/2000/svg">
<path d="M16.3386 28.6771C9.52416 28.6771 4 23.153 4 16.3386C4 9.52416 9.52416 4 16.3386 4C23.153 4 28.6771 9.52416 28.6771 16.3386C28.6696 23.1499 23.1499 28.6696 16.3386 28.6771ZM16.3386 20.0401C15.6571 20.0401 15.1047 20.5926 15.1047 21.274V21.274C15.1047 21.9554 15.6571 22.5078 16.3386 22.5078V22.5078C17.02 22.5078 17.5724 21.9554 17.5724 21.274V21.274C17.5724 20.5926 17.02 20.0401 16.3386 20.0401V20.0401ZM16.3386 10.1693C15.6571 10.1693 15.1047 10.7217 15.1047 11.4031V16.3386C15.1047 17.02 15.6571 17.5724 16.3386 17.5724V17.5724C17.02 17.5724 17.5724 17.02 17.5724 16.3386V11.4031C17.5724 10.7217 17.02 10.1693 16.3386 10.1693V10.1693Z" fill="#F97316"/>
</svg>
