<svg width="40" height="40" viewBox="0 0 40 40" fill="none" xmlns="http://www.w3.org/2000/svg">
<g clip-path="url(#clip0_4705_20997)">
<path d="M19.9997 40.0002C31.0454 40.0002 39.9997 31.0459 39.9997 20.0002C39.9997 8.95455 31.0454 0.000244141 19.9997 0.000244141C8.954 0.000244141 -0.000305176 8.95455 -0.000305176 20.0002C-0.000305176 31.0459 8.954 40.0002 19.9997 40.0002Z" fill="#F0F0F0"/>
<path d="M39.9999 20.0002C39.9999 11.4009 34.5724 4.07 26.9564 1.24414V38.7562C34.5724 35.9303 39.9999 28.5995 39.9999 20.0002Z" fill="#D80027"/>
<path d="M-6.10352e-05 20.0002C-6.10352e-05 28.5995 5.42752 35.9303 13.0435 38.7562V1.24414C5.42752 4.07 -6.10352e-05 11.4009 -6.10352e-05 20.0002Z" fill="#0052B4"/>
<path d="M39.5 20C39.5 30.7696 30.7696 39.5 20 39.5C9.23045 39.5 0.5 30.7696 0.5 20C0.5 9.23045 9.23045 0.5 20 0.5C30.7696 0.5 39.5 9.23045 39.5 20Z" stroke="white"/>
</g>
<defs>
<clipPath id="clip0_4705_20997">
<rect width="40" height="40" fill="white"/>
</clipPath>
</defs>
</svg>
