<svg width="40" height="40" viewBox="0 0 40 40" fill="none" xmlns="http://www.w3.org/2000/svg">
<g clip-path="url(#clip0_4705_20990)">
<path d="M19.9998 40C31.0455 40 39.9998 31.0457 39.9998 20C39.9998 8.9543 31.0455 0 19.9998 0C8.95412 0 -0.000183105 8.9543 -0.000183105 20C-0.000183105 31.0457 8.95412 40 19.9998 40Z" fill="#F0F0F0"/>
<path d="M19.9999 0C11.4006 0 4.06975 5.4275 1.2439 13.0435H38.756C35.9301 5.4275 28.5992 0 19.9999 0Z" fill="#A2001D"/>
<path d="M19.9999 40C28.5992 40 35.9301 34.5726 38.7559 26.9565H1.2439C4.06976 34.5726 11.4006 40 19.9999 40Z" fill="#0052B4"/>
<path d="M39.5 20C39.5 30.7696 30.7696 39.5 20 39.5C9.23045 39.5 0.5 30.7696 0.5 20C0.5 9.23045 9.23045 0.5 20 0.5C30.7696 0.5 39.5 9.23045 39.5 20Z" stroke="white"/>
</g>
<defs>
<clipPath id="clip0_4705_20990">
<rect width="40" height="40" fill="white"/>
</clipPath>
</defs>
</svg>
