<svg width="68" height="68" viewBox="0 0 68 68" fill="none" xmlns="http://www.w3.org/2000/svg">
<g clip-path="url(#clip0_601_12876)">
<path d="M67.9988 68H40.7988V54.4H67.9988V68Z" fill="white"/>
<path d="M64.5589 58.4589C63.9255 59.001 63.0055 59.001 62.3721 58.4589L61.4865 57.7009C60.0063 56.4334 57.8569 56.4334 56.3766 57.7009L55.4917 58.4583C54.8582 59.001 53.9382 59.001 53.3048 58.4583L52.4199 57.7009C50.9396 56.4334 48.7902 56.4334 47.3093 57.7009L46.425 58.4583C45.7915 59.001 44.8716 59.001 44.2381 58.4583L43.3538 57.7009C42.6134 57.0668 41.7061 56.7501 40.7988 56.7501V59.001C41.1869 59.001 41.5755 59.1364 41.8923 59.4078L42.7766 60.1652C44.2569 61.4327 46.4063 61.4333 47.8871 60.1652L48.7715 59.4078C49.4049 58.865 50.3249 58.865 50.9583 59.4078L51.8432 60.1652C53.3241 61.4327 55.4729 61.4327 56.9532 60.1652L57.8381 59.4078C58.4716 58.865 59.3915 58.865 60.025 59.4078L60.9105 60.1658C62.3908 61.4333 64.5402 61.4333 66.0205 60.1658L66.906 59.4078C67.2227 59.1364 67.6114 59.001 67.9994 59.001V56.7501C67.0922 56.7501 66.1849 57.0668 65.4444 57.7009L64.5589 58.4589Z" fill="#FF006E"/>
<path d="M64.5589 53.9255C63.9255 54.4677 63.0055 54.4677 62.3721 53.9255L61.4865 53.1675C60.0063 51.9 57.8569 51.9 56.3766 53.1675L55.4917 53.9249C54.8582 54.4677 53.9382 54.4677 53.3048 53.9249L52.4199 53.1675C50.9396 51.9 48.7902 51.9 47.3093 53.1675L46.425 53.9249C45.7915 54.4677 44.8716 54.4677 44.2381 53.9249L43.3538 53.1675C42.6134 52.5335 41.7061 52.2168 40.7988 52.2168V54.4677C41.1869 54.4677 41.5755 54.6031 41.8923 54.8745L42.7766 55.6319C44.2569 56.9 46.4063 56.9 47.8871 55.6319L48.7715 54.8745C49.4049 54.3317 50.3249 54.3317 50.9583 54.8745L51.8432 55.6319C53.3241 56.8994 55.4729 56.8994 56.9532 55.6319L57.8381 54.8745C58.4716 54.3317 59.3915 54.3317 60.025 54.8745L60.9105 55.6325C62.3908 56.9 64.5402 56.9 66.0205 55.6325L66.906 54.8745C67.2227 54.6031 67.6114 54.4677 67.9994 54.4677V52.2168C67.0922 52.2168 66.1849 52.5335 65.4444 53.1675L64.5589 53.9255Z" fill="#FF006E"/>
<path d="M64.5597 67.5255C63.9262 68.0677 63.0063 68.0677 62.3728 67.5255L61.4873 66.7675C60.007 65.5 57.8576 65.5 56.3773 66.7675L55.493 67.5249C54.8596 68.0677 53.9396 68.0671 53.3061 67.5249L52.4218 66.7675C50.9415 65.5 48.7921 65.5 47.3112 66.7675L46.427 67.5249C45.7935 68.0677 44.8735 68.0677 44.2401 67.5249L43.3558 66.7675C42.6153 66.1335 41.7081 65.8167 40.8008 65.8167V68H68.0008V65.8167C67.0935 65.8167 66.1862 66.1335 65.4458 66.7675L64.5603 67.5255H64.5597Z" fill="#FF006E"/>
<path d="M64.5583 62.9922C63.9249 63.5344 63.0049 63.5344 62.3715 62.9922L61.4859 62.2342C60.0057 60.9667 57.8563 60.9667 56.376 62.2342L55.4911 62.9916C54.8576 63.5344 53.9376 63.5344 53.3042 62.9916L52.4199 62.2342C50.9396 60.9667 48.7902 60.9661 47.3093 62.2342L46.425 62.9916C45.7915 63.5344 44.8716 63.5344 44.2381 62.9916L43.3538 62.2342C42.6134 61.6001 41.7061 61.2834 40.7988 61.2834V63.5344C41.1869 63.5344 41.5755 63.6697 41.8923 63.9411L42.7766 64.6985C44.2569 65.966 46.4063 65.966 47.8871 64.6985L48.7715 63.9411C49.4049 63.3984 50.3249 63.3984 50.9583 63.9411L51.8432 64.6985C53.3241 65.966 55.4729 65.966 56.9532 64.6985L57.8381 63.9411C58.4716 63.3984 59.3915 63.3984 60.025 63.9411L60.9105 64.6991C62.3908 65.9666 64.5402 65.9666 66.0205 64.6991L66.906 63.9411C67.2227 63.6697 67.6114 63.5344 67.9994 63.5344V61.2834C67.0922 61.2834 66.1849 61.6001 65.4444 62.2342L64.5589 62.9922H64.5583Z" fill="#FF006E"/>
<path d="M13.6 54.4H0V68H13.6V54.4Z" fill="#FF006E"/>
<path d="M0 61.2H6.8V68L0 61.2Z" fill="#FFBE0C"/>
<path d="M6.80078 61.2H13.6008V68L6.80078 61.2Z" fill="#FFBE0C"/>
<path d="M0 54.4H6.8V61.2L0 54.4Z" fill="#FFBE0C"/>
<path d="M6.80078 54.4H13.6008V61.2L6.80078 54.4Z" fill="#FFBE0C"/>
<path d="M27.1996 54.4H13.5996V68H27.1996V54.4Z" fill="#FF006E"/>
<path d="M13.5996 61.2H20.3996V68L13.5996 61.2Z" fill="#FFBE0C"/>
<path d="M20.4004 61.2H27.2004V68L20.4004 61.2Z" fill="#FFBE0C"/>
<path d="M13.5996 54.4H20.3996V61.2L13.5996 54.4Z" fill="#FFBE0C"/>
<path d="M20.4004 54.4H27.2004V61.2L20.4004 54.4Z" fill="#FFBE0C"/>
<path d="M27.2 27.2H0V54.4H27.2V27.2Z" fill="white"/>
<path d="M13.6001 27.1998L0 40.7999L13.6001 54.4L27.2002 40.7999L13.6001 27.1998Z" fill="#8637EB"/>
<path d="M27.1996 0H13.5996V13.6H27.1996V0Z" fill="#F49C96"/>
<path d="M16.9996 0H13.5996V6.8H16.9996V0Z" fill="#8637EB"/>
<path d="M23.8004 0H20.4004V6.8H23.8004V0Z" fill="#8637EB"/>
<path d="M20.4 6.8H17V13.6H20.4V6.8Z" fill="#8637EB"/>
<path d="M27.2008 6.8H23.8008V13.6H27.2008V6.8Z" fill="#8637EB"/>
<path d="M54.4008 40.8H40.8008V54.4H54.4008V40.8Z" fill="#FFBE0C"/>
<path d="M44.2008 47.6H40.8008V54.4H44.2008V47.6Z" fill="#F49C96"/>
<path d="M51.0016 47.6H47.6016V54.4H51.0016V47.6Z" fill="#F49C96"/>
<path d="M47.6012 40.8H44.2012V47.6H47.6012V40.8Z" fill="#F49C96"/>
<path d="M54.402 40.8H51.002V47.6H54.402V40.8Z" fill="#F49C96"/>
<path d="M40.7992 40.8H27.1992V54.4H40.7992V40.8Z" fill="#FF006E"/>
<path d="M31.7326 47.6H33.9992V40.8H31.7326V47.6ZM27.1992 47.6H29.4659V40.8H27.1992V47.6ZM36.2659 40.8V47.6H38.5326V40.8H36.2659Z" fill="#FFBE0C"/>
<path d="M34.0001 54.4H36.2668V47.6H34.0001V54.4ZM29.4668 54.4H31.7335V47.6H29.4668V54.4ZM38.5335 47.6V54.4H40.8001V47.6H38.5335Z" fill="#FFBE0C"/>
<path d="M40.7992 27.2H27.1992V40.8H40.7992V27.2Z" fill="#FFBE0C"/>
<path d="M36.2668 27.2H34.0001V36.2667H36.2668V27.2ZM40.8001 27.2H38.5335V36.2667H40.8001V27.2ZM29.4668 27.2V36.2667H31.7335V27.2H29.4668Z" fill="#FF3334"/>
<path d="M33.9992 36.2667H31.7326V40.8H33.9992V36.2667ZM38.5326 36.2667H36.2659V40.8H38.5326V36.2667ZM27.1992 36.2667V40.8H29.4659V36.2667H27.1992Z" fill="#FF3334"/>
<path d="M13.6 13.6H0V27.2H13.6V13.6Z" fill="#F49C96"/>
<path d="M0 20.4V27.2H6.8C3.04459 27.2 0 24.1554 0 20.4Z" fill="#FF3334"/>
<path d="M6.8 13.6H0V20.4C0 16.6446 3.04459 13.6 6.8 13.6Z" fill="#FF3334"/>
<path d="M6.80078 27.2H13.6008V20.4C13.6008 24.1554 10.5562 27.2 6.80078 27.2Z" fill="#FF3334"/>
<path d="M6.80078 13.6C10.5562 13.6 13.6008 16.6446 13.6008 20.4V13.6H6.80078Z" fill="#FF3334"/>
<path d="M68.0004 0H54.4004V13.6H68.0004V0Z" fill="#FFBE0C"/>
<path d="M61.2004 0C57.445 0 54.4004 3.04459 54.4004 6.8C54.4004 10.5554 57.445 13.6 61.2004 13.6C64.9558 13.6 68.0004 10.5554 68.0004 6.8C68.0004 3.04459 64.9558 0 61.2004 0ZM61.2004 10.2C59.3224 10.2 57.8004 8.67801 57.8004 6.8C57.8004 4.92199 59.3224 3.4 61.2004 3.4C63.0784 3.4 64.6004 4.92199 64.6004 6.8C64.6004 8.67801 63.0784 10.2 61.2004 10.2Z" fill="#8637EB"/>
<path d="M68.0004 13.6H54.4004V27.2H68.0004V13.6Z" fill="#FF006E"/>
<path d="M54.4004 13.6V27.2H68.0004V13.6H54.4004ZM64.4898 23.6894H57.911V17.1106H64.4898V23.6894Z" fill="#8637EB"/>
<path d="M13.6 0H0V13.6H13.6V0Z" fill="#FF006E"/>
<path d="M13.6 5.1003H8.5003V0H5.1003V5.1003H0V8.5003H5.1003V13.6H8.5003V8.5003H13.6V5.1003Z" fill="white"/>
<path d="M68.0004 40.8H54.4004V54.4H68.0004V40.8Z" fill="#FF3334"/>
<path d="M68.0004 40.8H65.5965L61.2004 45.1955L56.8049 40.8H54.4004V43.2039L58.7965 47.6L54.4004 51.9955V54.4H56.8049L61.2004 50.0039L65.5965 54.4H68.0004V51.9955L63.6049 47.6L68.0004 43.2039V40.8Z" fill="#8637EB"/>
<path d="M27.1996 13.6H13.5996V27.2H27.1996V13.6Z" fill="#8637EB"/>
<path d="M13.5996 16.0039V24.7955L17.9957 20.4L13.5996 16.0039Z" fill="#FF3334"/>
<path d="M24.7962 13.6H16.0039L20.4 17.9961L24.7962 13.6Z" fill="#FF3334"/>
<path d="M27.1989 24.7955V16.0039L22.8027 20.4L27.1989 24.7955Z" fill="#FF3334"/>
<path d="M16.0039 27.2H24.7962L20.4 22.8039L16.0039 27.2Z" fill="#FF3334"/>
<path d="M54.4008 27.2H40.8008V40.8H54.4008V27.2Z" fill="#FF006E"/>
<path d="M54.4008 31.7333H49.8674V27.2H45.3341V31.7333H40.8008V36.2667H45.3341V40.8H49.8674V36.2667H54.4008V31.7333Z" fill="#8637EB"/>
<path d="M40.7992 54.4H27.1992V68H40.7992V54.4Z" fill="#FF3334"/>
<path d="M31.7326 63.4667H27.1992V68H31.7326V63.4667Z" fill="#8637EB"/>
<path d="M31.7326 54.4H27.1992V58.9333H31.7326V54.4Z" fill="#8637EB"/>
<path d="M40.799 63.4667H36.2656V68H40.799V63.4667Z" fill="#8637EB"/>
<path d="M40.799 54.4H36.2656V58.9333H40.799V54.4Z" fill="#8637EB"/>
<path d="M54.3992 0H27.1992V27.2H54.3992V0Z" fill="#FF006E"/>
<path d="M54.3992 14.876H27.1992V17.764H54.3992V14.876Z" fill="#FFBE0C"/>
<path d="M54.3992 20.316H27.1992V23.204H54.3992V20.316Z" fill="#FFBE0C"/>
<path d="M54.3992 25.756H27.1992V27.2H54.3992V25.756Z" fill="#FFBE0C"/>
<path d="M54.3992 9.43597H27.1992V12.324H54.3992V9.43597Z" fill="#FFBE0C"/>
<path d="M54.3992 0H27.1992V1.44402H54.3992V0Z" fill="#FFBE0C"/>
<path d="M54.3992 3.99599H27.1992V6.88402H54.3992V3.99599Z" fill="#FFBE0C"/>
<path d="M68.0004 27.2001H54.4004V40.8001H68.0004V27.2001Z" fill="#FFBE0C"/>
<path d="M54.4004 33.9909L61.2095 40.8H63.2519L54.401 31.9491V33.9915L54.4004 33.9909ZM54.4004 40.8H55.5585L54.4004 39.6419V40.8ZM54.4004 30.1443L65.0561 40.8H67.0986L54.401 28.1024V30.1449L54.4004 30.1443ZM54.4004 37.8376L57.3628 40.8H59.4052L54.4004 35.7958V37.8382V37.8376ZM66.8423 27.2L68.0004 28.3581V27.2H66.8423ZM62.9956 27.2L68.0004 32.2048V30.1624L65.038 27.2H62.9956ZM55.3022 27.2L67.9998 39.8976V37.8552L57.344 27.1994H55.3016L55.3022 27.2ZM59.1489 27.2L67.9998 36.0509V34.0085L61.1907 27.1994H59.1483L59.1489 27.2Z" fill="#FF006E"/>
<rect x="4.5" y="4.5" width="59" height="60" rx="29.5" fill="#FFF5F7" stroke="#FFBE0C" stroke-width="3"/>
<path d="M37.6076 33.3566C37.6076 33.7267 37.8051 34.0685 38.1254 34.2536C38.446 34.4385 38.8406 34.4385 39.1612 34.2536C39.4817 34.0685 39.6789 33.7267 39.6789 33.3566C39.6789 31.5065 38.6919 29.797 37.0899 28.872C35.4876 27.947 33.5136 27.947 31.9113 28.872C30.3093 29.797 29.3223 31.5065 29.3223 33.3566C29.3223 33.7267 29.5195 34.0685 29.84 34.2536C30.1606 34.4385 30.5553 34.4385 30.8758 34.2536C31.1961 34.0685 31.3936 33.7267 31.3936 33.3566C31.3936 32.2467 31.9857 31.2209 32.9471 30.6659C33.9085 30.1108 35.0927 30.1108 36.0541 30.6659C37.0155 31.2209 37.6076 32.2467 37.6076 33.3566Z" fill="#FFBE0C"/>
<path d="M29.6255 46.0885C29.4313 46.2829 29.3223 46.5463 29.3223 46.8209C29.3223 47.0954 29.4313 47.3588 29.6255 47.5532L33.7683 51.696L33.7681 51.6958C33.9625 51.8906 34.2262 52.0001 34.5015 52.0001C34.7765 52.0001 35.0405 51.8906 35.2347 51.6958L39.3775 47.553V47.5532C39.6315 47.2901 39.7279 46.9125 39.6313 46.5597C39.5346 46.2071 39.2589 45.9314 38.9063 45.8348C38.5537 45.7381 38.176 45.8345 37.9131 46.0886L35.5362 48.4635V34.3925C35.5362 34.0225 35.3388 33.6805 35.0182 33.4956C34.6979 33.3106 34.303 33.3106 33.9827 33.4956C33.6621 33.6805 33.4647 34.0225 33.4647 34.3925V48.4635L31.09 46.0888V46.0886C30.8958 45.8946 30.6322 45.7854 30.3576 45.7854C30.0831 45.7854 29.8197 45.8946 29.6256 46.0886L29.6255 46.0885Z" fill="#FFBE0C"/>
<path d="M47.9636 23H21.0355C20.7609 23 20.4974 23.109 20.3032 23.3032C20.109 23.4974 20 23.7609 20 24.0355V42.6778C20 42.9526 20.109 43.2159 20.3032 43.4101C20.4974 43.6045 20.7609 43.7135 21.0355 43.7135H30.3567C30.7268 43.7135 31.0686 43.5161 31.2537 43.1958C31.4386 42.8752 31.4386 42.4805 31.2537 42.16C31.0686 41.8395 30.7268 41.6422 30.3567 41.6422H27.1564C26.9395 40.3724 26.3337 39.2014 25.423 38.2905C24.5121 37.3796 23.3411 36.7741 22.0713 36.5569V30.1564C23.3411 29.9394 24.5121 29.3337 25.423 28.423C26.3337 27.5121 26.9395 26.3411 27.1564 25.0713H41.8427C42.0597 26.3411 42.6654 27.5121 43.5761 28.423C44.4871 29.3337 45.658 29.9395 46.9279 30.1564V36.5569C45.658 36.7741 44.4871 37.3796 43.5761 38.2905C42.6654 39.2014 42.0597 40.3724 41.8427 41.6422H38.6425C38.2723 41.6422 37.9305 41.8395 37.7454 42.16C37.5606 42.4806 37.5606 42.8752 37.7454 43.1958C37.9305 43.5161 38.2723 43.7135 38.6425 43.7135H47.9636C48.2382 43.7135 48.5018 43.6045 48.6959 43.4101C48.8901 43.2159 48.9991 42.9526 48.9991 42.6778V24.0355C48.9991 23.7609 48.8901 23.4974 48.6959 23.3032C48.5017 23.109 48.2382 23 47.9636 23ZM25.0314 41.6423H22.0715V38.6821C22.7837 38.8674 23.4337 39.2394 23.9538 39.7597C24.4742 40.2801 24.8463 40.9301 25.0314 41.6423ZM22.0715 28.0312V25.0713H25.0314C24.8454 25.783 24.4731 26.4323 23.9529 26.9527C23.4326 27.4729 22.7832 27.8452 22.0715 28.0312ZM43.9678 25.0713H46.9278V28.0312C46.216 27.8452 45.5667 27.4729 45.0463 26.9527C44.5262 26.4323 44.1538 25.783 43.9678 25.0713ZM43.9678 41.6424C44.1529 40.9302 44.5251 40.2802 45.0454 39.7598C45.5656 39.2395 46.2156 38.8676 46.9278 38.6823V41.6424H43.9678Z" fill="#FFBE0C"/>
</g>
<defs>
<clipPath id="clip0_601_12876">
<rect width="68" height="68" rx="8" fill="white"/>
</clipPath>
</defs>
</svg>
