<svg width="68" height="68" viewBox="0 0 68 68" fill="none" xmlns="http://www.w3.org/2000/svg">
<g clip-path="url(#clip0_601_12977)">
<path d="M54.4 13.6H68V27.2H54.4V13.6Z" fill="#FF3334"/>
<path d="M61.2 27.2C57.4445 27.2 54.4 24.1555 54.4 20.4C54.4 16.6445 57.4445 13.6 61.2 13.6C64.9555 13.6 68 16.6445 68 20.4C68 24.1555 64.9555 27.2 61.2 27.2Z" fill="#8637EB"/>
<path d="M-0.000391006 0H13.5996V13.6H-0.000391006V0Z" fill="#8637EB"/>
<path d="M13.5996 0C13.5996 3.75541 10.555 6.8 6.79961 6.8C3.0442 6.8 -0.000391006 3.75541 -0.000391006 0H13.5996Z" fill="#FF3334"/>
<path d="M40.8004 54.4H54.4004V68H40.8004V54.4Z" fill="#FFBE0C"/>
<path d="M54.4004 54.4C54.4004 61.9108 48.3112 68 40.8004 68V54.4H54.4004Z" fill="#FF3334"/>
<path d="M27.2008 54.4H40.8008V68H27.2008V54.4Z" fill="#FFBE0C"/>
<path d="M40.8008 54.4C40.8008 61.9108 34.7116 68 27.2008 68V54.4H40.8008Z" fill="#FF3334"/>
<path d="M54.4 54.4H68V68H54.4V54.4Z" fill="#FFBE0C"/>
<path d="M68 54.4C68 61.9108 61.9108 68 54.4 68V54.4H68Z" fill="#8637EB"/>
<path d="M54.4 40.8H68V54.4H54.4V40.8Z" fill="#8637EB"/>
<path d="M68 40.8C68 48.3108 61.9108 54.4 54.4 54.4V40.8H68Z" fill="#FF3334"/>
<path d="M54.4 27.2H68V40.8H54.4V27.2Z" fill="#8637EB"/>
<path d="M68 27.2C68 34.7108 61.9108 40.8 54.4 40.8V27.2H68Z" fill="#FF3334"/>
<path d="M54.4 0H68V13.6H54.4V0Z" fill="#8637EB"/>
<path d="M68 13.6H54.4C54.4 9.84459 57.4446 6.8 61.2 6.8C64.9554 6.8 68 9.84459 68 13.6Z" fill="#FF3334"/>
<path d="M61.2 6.8C57.4446 6.8 54.4 3.75541 54.4 0H68C68 3.75541 64.9554 6.8 61.2 6.8Z" fill="#FF3334"/>
<path d="M40.8004 13.6H54.4004V27.2H40.8004V13.6Z" fill="#8637EB"/>
<path d="M40.8004 20.4C40.8004 16.6446 43.845 13.6 47.6004 13.6H54.4004V20.4C54.4004 24.1554 51.3558 27.2 47.6004 27.2H40.8004V20.4Z" fill="#FF3334"/>
<path d="M40.8004 0H54.4004V13.6H40.8004V0Z" fill="#FF3334"/>
<path d="M44.1996 13.6C42.3218 13.6 40.7996 12.0778 40.7996 10.2C40.7996 8.32223 42.3218 6.8 44.1996 6.8C46.0774 6.8 47.5996 8.32223 47.5996 10.2C47.5996 12.0778 46.0774 13.6 44.1996 13.6Z" fill="#8637EB"/>
<path d="M51.0004 13.6C49.1226 13.6 47.6004 12.0778 47.6004 10.2C47.6004 8.32223 49.1226 6.8 51.0004 6.8C52.8782 6.8 54.4004 8.32223 54.4004 10.2C54.4004 12.0778 52.8782 13.6 51.0004 13.6Z" fill="#8637EB"/>
<path d="M44.1996 6.8C42.3218 6.8 40.7996 5.27777 40.7996 3.4C40.7996 1.52223 42.3218 0 44.1996 0C46.0774 0 47.5996 1.52223 47.5996 3.4C47.5996 5.27777 46.0774 6.8 44.1996 6.8Z" fill="#8637EB"/>
<path d="M51.0004 6.8C49.1226 6.8 47.6004 5.27777 47.6004 3.4C47.6004 1.52223 49.1226 0 51.0004 0C52.8782 0 54.4004 1.52223 54.4004 3.4C54.4004 5.27777 52.8782 6.8 51.0004 6.8Z" fill="#8637EB"/>
<path d="M27.2004 27.2H54.4004V54.4H27.2004V27.2Z" fill="#FFBE0C"/>
<path d="M13.5992 40.8H27.1992V54.4H13.5992V40.8Z" fill="#8637EB"/>
<path d="M20.3984 54.4H13.5984V47.6C13.5984 51.3554 16.643 54.4 20.3984 54.4Z" fill="#FF3334"/>
<path d="M13.5984 47.6V40.8H20.3984C16.643 40.8 13.5984 43.8446 13.5984 47.6Z" fill="#FF3334"/>
<path d="M23.7992 47.6C23.7992 45.722 25.3212 44.2 27.1992 44.2V51C25.3212 51 23.7992 49.478 23.7992 47.6Z" fill="#FF3334"/>
<path d="M20.3992 47.6C20.3992 51.3554 23.4438 54.4 27.1992 54.4H20.3992V51C18.5212 51 16.9992 49.478 16.9992 47.6C16.9992 45.722 18.5212 44.2 20.3992 44.2V40.8H27.1992C23.4438 40.8 20.3992 43.8446 20.3992 47.6Z" fill="#FF3334"/>
<path d="M40.8008 13.6V14.6215H14.6223V40.8H13.6008V13.6H40.8008ZM40.8008 16.2179V17.2394H17.2401V40.8H16.2186V16.2179H40.8008ZM40.8008 18.8357V19.8572H19.858V40.8H18.8365V18.8357H40.8008ZM40.8008 21.4536V22.4751H22.4758V40.8H21.4543V21.4536H40.8008ZM40.8008 24.0714V25.0929H25.0937V40.8H24.0722V24.0714H40.8008ZM40.8008 26.6892V27.7108H27.7115V40.8H26.69V26.6892H40.8008ZM40.8008 29.3071V30.3286H30.3294V40.8H29.3079V29.3071H40.8008Z" fill="#FF006E"/>
<path d="M13.5992 54.4H27.1992V68H13.5992V54.4Z" fill="#8637EB"/>
<path d="M27.1992 68H13.5992L20.3992 61.2L13.5992 54.4H27.1992L20.3992 61.2L27.1992 68Z" fill="#FF3334"/>
<path d="M-0.000391006 13.6H13.5996V27.2H-0.000391006V13.6Z" fill="#FF3334"/>
<path d="M9.06641 18.1333V20.4H-0.000260353V18.1333H9.06641ZM9.06641 13.6V15.8667H-0.000260353V13.6H9.06641ZM-0.000260353 22.6667H9.06641V24.9333H-0.000260353V22.6667Z" fill="#8637EB"/>
<path d="M13.5996 20.4V22.6667H9.06628V20.4H13.5996ZM13.5996 15.8667V18.1333H9.06628V15.8667H13.5996ZM9.06628 24.9333H13.5996V27.2H9.06628V24.9333Z" fill="#8637EB"/>
<path d="M-0.000391006 27.2H13.5996V40.8H-0.000391006V27.2Z" fill="#8637EB"/>
<path d="M-0.000391006 34.6377H13.5996V36.0817H-0.000391006V34.6377Z" fill="#FFBE0C"/>
<path d="M-0.000391006 37.3577H13.5996V38.8017H-0.000391006V37.3577Z" fill="#FFBE0C"/>
<path d="M-0.000391006 40.0777H13.5996V40.8H-0.000391006V40.0777Z" fill="#FFBE0C"/>
<path d="M-0.000391006 31.9177H13.5996V33.3617H-0.000391006V31.9177Z" fill="#FFBE0C"/>
<path d="M-0.000391006 27.2H13.5996V27.9223H-0.000391006V27.2Z" fill="#FFBE0C"/>
<path d="M-0.000391006 29.1977H13.5996V30.6417H-0.000391006V29.1977Z" fill="#FFBE0C"/>
<path d="M-0.000391006 54.4H13.5996V68H-0.000391006V54.4Z" fill="#FF3334"/>
<path d="M13.5996 61.8377V63.2823H4.7173V54.4H6.16192V61.8377H13.5996Z" fill="#8637EB"/>
<path d="M13.5996 67.2777V68H-0.000391006V54.4H0.721917V67.2777H13.5996Z" fill="#8637EB"/>
<path d="M13.5996 64.5577V66.0023H1.9973V54.4H3.44192V64.5577H13.5996Z" fill="#8637EB"/>
<path d="M12.8773 54.4H13.5996V55.1223H12.8773V54.4Z" fill="#8637EB"/>
<path d="M13.5996 59.1177V60.5623H7.4373V54.4H8.88192V59.1177H13.5996Z" fill="#8637EB"/>
<path d="M13.5996 56.3977V57.8423H10.1573V54.4H11.6019V56.3977H13.5996Z" fill="#8637EB"/>
<path d="M-0.000391006 40.8H13.5996V54.4H-0.000391006V40.8Z" fill="#8637EB"/>
<path d="M7.43819 40.8H8.88281V49.6823H0.000500679V48.2377H7.43819V40.8Z" fill="#FF3334"/>
<path d="M12.8773 40.8H13.5996V54.4H-0.000391006V53.6777H12.8773V40.8Z" fill="#FF3334"/>
<path d="M10.1569 40.8H11.6016V52.4023H-0.000749588V50.9577H10.1569V40.8Z" fill="#FF3334"/>
<path d="M0.000348091 40.8H0.722656V41.5223H0.000348091V40.8Z" fill="#FF3334"/>
<path d="M4.71749 40.8H6.16211V46.9623H-0.000202656V45.5177H4.71749V40.8Z" fill="#FF3334"/>
<path d="M1.99679 40.8H3.44141V44.2423H-0.000901699V42.7977H1.99679V40.8Z" fill="#FF3334"/>
<path d="M54.4004 40.8C54.4004 48.3108 48.3112 54.4 40.8004 54.4C33.2896 54.4 27.2004 48.3108 27.2004 40.8C27.2004 33.2892 33.2896 27.2 40.8004 27.2C48.3112 27.2 54.4004 33.2892 54.4004 40.8ZM34.0004 40.8C34.0004 44.5554 37.045 47.6 40.8004 47.6C44.5558 47.6 47.6004 44.5554 47.6004 40.8C47.6004 37.0446 44.5558 34 40.8004 34C37.045 34 34.0004 37.0446 34.0004 40.8Z" fill="#8637EB"/>
<path d="M27.2008 0H40.8008V13.6H27.2008V0Z" fill="#8637EB"/>
<path d="M34.0008 0L40.8008 6.8L34.0008 13.6V6.8L27.2008 13.6V0L34.0008 6.8V0Z" fill="#FF3334"/>
<path d="M13.5992 0H27.1992V13.6H13.5992V0Z" fill="#FF3334"/>
<path d="M20.3992 0L27.1992 6.8L20.3992 13.6V6.8L13.5992 13.6V0L20.3992 6.8V0Z" fill="#FFBE0C"/>
<rect x="4.5" y="4.5" width="59" height="60" rx="29.5" fill="#FFF5F7" stroke="#FF3334" stroke-width="3"/>
<path fill-rule="evenodd" clip-rule="evenodd" d="M25.066 20C23.3847 20 22 21.3692 22 23.0316V42.6766C22 44.1221 23.0476 45.3445 24.426 45.6391V48.0652C24.4239 48.5794 24.844 48.9979 25.364 49H30.238C30.758 48.9979 31.1782 48.5794 31.176 48.0652V45.7082H38.824V48.0652C38.8229 48.3133 38.9222 48.5518 39.0999 48.7272C39.2772 48.9028 39.5184 49.001 39.7693 49H44.6342C44.8851 49.001 45.1263 48.9028 45.3037 48.7272C45.4813 48.5518 45.5806 48.3133 45.5796 48.0652V45.6373C46.9553 45.3406 48 44.1201 48 42.6766V23.0316C48 21.3692 46.6153 20 44.934 20H25.066ZM25.066 21.8623H44.9339C45.6045 21.8623 46.1148 22.3686 46.1148 23.0316V42.6766C46.1148 43.3396 45.6045 43.8442 44.9339 43.8442H25.066C24.3955 43.8442 23.8834 43.3396 23.8834 42.6766V23.0316C23.8834 22.3686 24.3955 21.8623 25.066 21.8623ZM26.3591 23.3754C26.1081 23.3743 25.8669 23.4725 25.6896 23.6482C25.512 23.8235 25.4126 24.062 25.4137 24.3101V41.3978C25.4126 41.6459 25.512 41.8844 25.6896 42.0598C25.8669 42.2354 26.1081 42.3336 26.3591 42.3326H43.648C44.168 42.3305 44.5882 41.9119 44.586 41.3978V24.3101C44.5881 23.796 44.168 23.3775 43.648 23.3753L26.3591 23.3754ZM27.2971 25.2376H42.7026V40.4703H27.2971V25.2376ZM35.0002 28.2002C32.411 28.2002 30.2935 30.2939 30.2935 32.8541C30.2935 35.4141 32.411 37.5079 35.0002 37.5079C37.5894 37.5079 39.7069 35.4142 39.7069 32.8541C39.7069 30.294 37.5894 28.2002 35.0002 28.2002ZM34.9266 30.057C34.9511 30.0565 34.9755 30.057 35.0002 30.057C36.2396 30.057 37.283 30.8302 37.669 31.9193H35.6605C35.4107 31.9203 35.1715 32.0193 34.9958 32.1946C34.8197 32.3698 34.7215 32.607 34.7225 32.854C34.7246 33.3653 35.1434 33.7794 35.6605 33.7815H37.6708C37.2864 34.8719 36.2417 35.6438 35.0002 35.6438C33.4287 35.6438 32.1769 34.4079 32.1769 32.854C32.1769 31.3246 33.3898 30.0949 34.9266 30.057L34.9266 30.057ZM26.3094 45.708H29.2927V47.1375H26.3094V45.708ZM40.7073 45.708H43.6961V47.1375H40.7073V45.708Z" fill="#FF3334"/>
</g>
<defs>
<clipPath id="clip0_601_12977">
<rect width="68" height="68" rx="8" transform="matrix(-1 0 0 1 68 0)" fill="white"/>
</clipPath>
</defs>
</svg>
