<svg width="68" height="68" viewBox="0 0 68 68" fill="none" xmlns="http://www.w3.org/2000/svg">
<g clip-path="url(#clip0_601_12779)">
<path d="M68.0004 13.6H54.4004V27.2H68.0004V13.6Z" fill="#FF006E"/>
<path d="M54.4004 13.6V27.2H68.0004V13.6H54.4004ZM58.8044 21.4687L57.7357 22.5373L56.6671 21.4687L55.5984 22.5373L54.5297 21.4687L55.5984 20.4L54.5297 19.3313L55.5984 18.2627L56.6671 19.3313L57.7357 18.2627L58.8044 19.3313L57.7357 20.4L58.8044 21.4687ZM63.3377 26.002L62.2691 27.0707L61.2004 26.002L60.1317 27.0707L59.0631 26.002L60.1317 24.9333L59.0631 23.8647L60.1317 22.796L61.2004 23.8647L62.2691 22.796L63.3377 23.8647L62.2691 24.9333L63.3377 26.002ZM63.3377 16.9353L62.2691 18.004L61.2004 16.9353L60.1317 18.004L59.0631 16.9353L60.1317 15.8667L59.0631 14.798L60.1317 13.7294L61.2004 14.798L62.2691 13.7294L63.3377 14.798L62.2691 15.8667L63.3377 16.9353ZM67.871 21.4687L66.8024 22.5373L65.7337 21.4687L64.6651 22.5373L63.5964 21.4687L64.6651 20.4L63.5964 19.3313L64.6651 18.2627L65.7337 19.3313L66.8024 18.2627L67.871 19.3313L66.8024 20.4L67.871 21.4687Z" fill="white"/>
<path d="M40.8 0H0V40.8H40.8V0Z" fill="#FF006E"/>
<path d="M20.4004 0V40.8C31.6672 40.8 40.8004 31.6668 40.8004 20.4C40.8004 9.13316 31.6672 0 20.4004 0Z" fill="#FFBE0C"/>
<path d="M20.4 20.4C20.4 9.13316 11.2668 0 0 0V40.8C11.2668 40.8 20.4 31.6668 20.4 20.4Z" fill="#8637EB"/>
<path d="M54.4008 0H40.8008V13.6H54.4008V0Z" fill="#8637EB"/>
<path d="M44.2008 10.2H40.8008V13.6H44.2008V10.2Z" fill="#FFBE0C"/>
<path d="M44.2008 0H40.8008V3.4H44.2008V0Z" fill="#FFBE0C"/>
<path d="M54.4 10.2H51V13.6H54.4V10.2Z" fill="#FFBE0C"/>
<path d="M54.4 0H51V3.4H54.4V0Z" fill="#FFBE0C"/>
<path d="M49.3004 5.1003H45.9004V8.5003H49.3004V5.1003Z" fill="#FFBE0C"/>
<path d="M54.4008 13.6H40.8008V27.2H54.4008V13.6Z" fill="#FFBE0C"/>
<path d="M44.2008 20.4H40.8008V27.2H44.2008V20.4Z" fill="#FF006E"/>
<path d="M51.0016 20.4H47.6016V27.2H51.0016V20.4Z" fill="#FF006E"/>
<path d="M47.6012 13.6H44.2012V20.4H47.6012V13.6Z" fill="#FF006E"/>
<path d="M54.402 13.6H51.002V20.4H54.402V13.6Z" fill="#FF006E"/>
<path d="M68.0004 27.2001H54.4004V40.8001H68.0004V27.2001Z" fill="#8637EB"/>
<path d="M63.192 27.2L54.4004 35.9917V39.197L66.3974 27.2H63.192ZM56.7807 27.2L54.4004 29.5803V32.7857L59.9867 27.1994H56.7813L56.7807 27.2ZM56.0028 40.8H59.2081L67.9998 32.0084V28.803L56.0028 40.8ZM65.6195 40.8L67.9998 38.4197V35.2143L62.4135 40.8006H65.6189L65.6195 40.8Z" fill="#FF006E"/>
<path d="M68.0004 0H54.4004V13.6H68.0004V0Z" fill="white"/>
<path d="M61.2004 6.8C61.2004 3.04459 64.245 0 68.0004 0H54.4004C58.1558 0 61.2004 3.04459 61.2004 6.8C61.2004 10.5554 58.1558 13.6 54.4004 13.6H68.0004C64.245 13.6 61.2004 10.5554 61.2004 6.8Z" fill="#FF006E"/>
<path d="M68.0004 54.4H54.4004V68H68.0004V54.4Z" fill="#FF006E"/>
<path d="M68.0004 59.1492L59.1495 68.0001H61.1919L68.001 61.191V59.1486L68.0004 59.1492ZM68.0004 66.8425L66.8423 68.0007H68.0004V66.8425ZM68.0004 55.3025L55.3028 68.0001H57.3452L68.001 57.3443V55.3019L68.0004 55.3025ZM68.0004 62.9959L62.9956 68.0001H65.038L68.0004 65.0377V62.9953V62.9959ZM54.4004 54.4007V55.5588L55.5585 54.4007H54.4004ZM57.3628 54.4007L54.4004 57.363V59.4055L59.4052 54.4007H57.3628ZM65.0561 54.4007L54.4004 65.0564V67.0988L67.098 54.4013H65.0555L65.0561 54.4007ZM61.2095 54.4007L54.4004 61.2097V63.2521L63.2519 54.4013H61.2095V54.4007Z" fill="#9961EC"/>
<path d="M66.8418 54.4L67.9999 55.5581V54.4H66.8418Z" fill="white"/>
<path d="M68.0004 40.8H54.4004V54.4H68.0004V40.8Z" fill="white"/>
<path d="M61.2004 40.8H54.4004V47.6C54.4004 43.8446 57.445 40.8 61.2004 40.8Z" fill="#9961EC"/>
<path d="M54.4004 47.6V54.4H61.2004C57.445 54.4 54.4004 51.3554 54.4004 47.6Z" fill="#9961EC"/>
<path d="M64.5996 47.6C64.5996 49.478 66.1216 51 67.9996 51V44.2C66.1216 44.2 64.5996 45.722 64.5996 47.6Z" fill="#9961EC"/>
<path d="M61.2008 47.6C61.2008 43.8446 64.2454 40.8 68.0008 40.8H61.2008V44.2C59.3228 44.2 57.8008 45.722 57.8008 47.6C57.8008 49.478 59.3228 51 61.2008 51V54.4H68.0008C64.2454 54.4 61.2008 51.3554 61.2008 47.6Z" fill="#9961EC"/>
<path d="M38.8078 52.4083C41.4634 49.7527 41.4634 45.4472 38.8078 42.7916C36.1522 40.1361 31.8467 40.1361 29.1911 42.7916C26.5356 45.4472 26.5356 49.7527 29.1911 52.4083C31.8467 55.0638 36.1522 55.0638 38.8078 52.4083Z" fill="#FFBE0C"/>
<path d="M52.4074 52.4083C55.063 49.7528 55.063 45.4472 52.4074 42.7917C49.7518 40.1361 45.4463 40.1361 42.7907 42.7917C40.1352 45.4472 40.1352 49.7528 42.7907 52.4083C45.4463 55.0639 49.7518 55.0639 52.4074 52.4083Z" fill="#8637EB"/>
<path d="M54.4008 54.4001H40.8008V68.0001H54.4008V54.4001Z" fill="#FF006E"/>
<path d="M40.8008 61.1909L47.6098 68H49.6523L40.8014 59.1491V61.1915L40.8008 61.1909ZM40.8008 68H41.9589L40.8008 66.8419V68ZM40.8008 57.3443L51.4565 68H53.499L40.8014 55.3024V57.3449L40.8008 57.3443ZM40.8008 65.0376L43.7632 68H45.8056L40.8008 62.9958V65.0382V65.0376ZM53.2427 54.4L54.4008 55.5581V54.4H53.2427ZM49.396 54.4L54.4008 59.4048V57.3624L51.4384 54.4H49.396ZM41.7026 54.4L54.4002 67.0976V65.0552L43.7444 54.3994H41.702L41.7026 54.4ZM45.5493 54.4L54.4008 63.2509V61.2085L47.5917 54.3994H45.5493V54.4Z" fill="#FFBE0C"/>
<path d="M40.7992 54.4H27.1992V68H40.7992V54.4Z" fill="#FFBE0C"/>
<path d="M36.2668 54.4H34.0001V61.2H36.2668V54.4ZM40.8001 54.4H38.5335V61.2H40.8001V54.4ZM29.4668 54.4V61.2H31.7335V54.4H29.4668Z" fill="#8637EB"/>
<path d="M33.9992 61.2H31.7326V68H33.9992V61.2ZM38.5326 61.2H36.2659V68H38.5326V61.2ZM27.1992 61.2V68H29.4659V61.2H27.1992Z" fill="#8637EB"/>
<path d="M27.1996 54.4H13.5996V68H27.1996V54.4Z" fill="white"/>
<path d="M13.5996 61.2V68H20.3996C16.6442 68 13.5996 64.9554 13.5996 61.2Z" fill="#8637EB"/>
<path d="M20.3996 54.4H13.5996V61.2C13.5996 57.4446 16.6442 54.4 20.3996 54.4Z" fill="#8637EB"/>
<path d="M20.4004 68H27.2004V61.2C27.2004 64.9554 24.1558 68 20.4004 68Z" fill="#8637EB"/>
<path d="M20.4004 54.4C24.1558 54.4 27.2004 57.4446 27.2004 61.2V54.4H20.4004Z" fill="#8637EB"/>
<path d="M13.6 40.8H0V54.4H13.6V40.8Z" fill="#FF006E"/>
<path d="M0 40.8V54.4C3.75541 54.4 6.8 51.3554 6.8 47.6C6.8 43.8446 3.75541 40.8 0 40.8Z" fill="white"/>
<path d="M6.80078 47.6C6.80078 51.3554 9.84537 54.4 13.6008 54.4V40.8C9.84537 40.8 6.80078 43.8446 6.80078 47.6Z" fill="white"/>
<path d="M13.6 54.4H0V68H13.6V54.4Z" fill="#FFBE0C"/>
<path d="M0 61.2C0 64.9554 3.04459 68 6.8 68C10.5554 68 13.6 64.9554 13.6 61.2V68H0V61.2Z" fill="#FF006E"/>
<path d="M27.1996 40.8H13.5996V54.4H27.1996V40.8Z" fill="white"/>
<path d="M27.2 44.2423V42.7977L15.5977 54.4H17.0423L27.2 44.2423Z" fill="#FFBE0C"/>
<path d="M27.1987 46.9623V45.5177L18.3164 54.4H19.761L27.1987 46.9623Z" fill="#FFBE0C"/>
<path d="M23.7573 40.8L13.5996 50.9577V52.4023L25.2019 40.8H23.7573Z" fill="#FFBE0C"/>
<path d="M21.0373 40.8L13.5996 48.2377V49.6823L22.4819 40.8H21.0373Z" fill="#FFBE0C"/>
<path d="M13.5996 40.8V41.5223L14.3219 40.8H13.5996Z" fill="#FFBE0C"/>
<path d="M27.1994 49.6823V48.2377L21.0371 54.4H22.4817L27.1994 49.6823Z" fill="#FFBE0C"/>
<path d="M15.5973 40.8L13.5996 42.7977V44.2423L17.0419 40.8H15.5973Z" fill="#FFBE0C"/>
<path d="M18.3173 40.8L13.5996 45.5177V46.9623L19.7619 40.8H18.3173Z" fill="#FFBE0C"/>
<path d="M27.2001 52.4023V50.9577L23.7578 54.4H25.2024L27.2001 52.4023Z" fill="#FFBE0C"/>
<path d="M27.1989 53.6777L26.4766 54.4H27.1989V53.6777Z" fill="#FFBE0C"/>
<path d="M27.1996 40.8H26.4773L13.5996 53.6777V54.4H14.3219L27.1996 41.5223V40.8Z" fill="#FFBE0C"/>
<path d="M54.4008 40.8H40.8008V27.2H54.4008V40.8Z" fill="white"/>
<path d="M53.4113 27.8165C52.6709 28.4506 51.5968 28.4506 50.8563 27.8165L50.4139 27.4375C50.0971 27.1661 49.6372 27.1661 49.3204 27.4375L48.878 27.8165C48.1375 28.4506 47.0628 28.4506 46.323 27.8165L45.8805 27.4375C45.5638 27.1661 45.1038 27.1661 44.7871 27.4375L44.3446 27.8159C43.6042 28.45 42.5295 28.45 41.7897 27.8159L41.3472 27.4375C41.1888 27.3021 40.9948 27.2338 40.8008 27.2338V27.2V40.8V39.7084C41.2547 39.7084 41.7081 39.8667 42.0786 40.1835L42.521 40.5624C42.8378 40.8338 43.2977 40.8338 43.6145 40.5624L44.0569 40.1841C44.7974 39.55 45.8721 39.55 46.6119 40.1841L47.0544 40.5631C47.3711 40.8345 47.8311 40.8345 48.1478 40.5631L48.5903 40.1841C49.3307 39.55 50.4048 39.55 51.1452 40.1841L51.5877 40.5631C51.9044 40.8345 52.3644 40.8345 52.6811 40.5631L53.1236 40.1841C53.4935 39.8673 53.9474 39.709 54.4014 39.709V38.1145C54.2074 38.1145 54.0127 38.1821 53.8544 38.3175L53.4119 38.6965C52.6715 39.33 51.5974 39.33 50.8569 38.6965L50.4145 38.3175C50.0977 38.0461 49.6378 38.0461 49.321 38.3175L48.8786 38.6965C48.1381 39.3306 47.064 39.3306 46.3236 38.6965L45.8811 38.3175C45.5644 38.0461 45.1044 38.0461 44.7877 38.3175L44.3452 38.6959C43.6048 39.33 42.5301 39.33 41.7903 38.6959L41.3478 38.3169C41.1894 38.1815 40.9954 38.1132 40.8014 38.1132V36.9878C41.2553 36.9878 41.7087 37.1461 42.0792 37.4635L42.5216 37.8425C42.8384 38.1138 43.2983 38.1138 43.6151 37.8425L44.0575 37.4641C44.798 36.83 45.8727 36.83 46.6125 37.4641L47.055 37.8431C47.3717 38.1145 47.8317 38.1145 48.1484 37.8431L48.5909 37.4641C49.3313 36.83 50.4054 36.83 51.1458 37.4641L51.5883 37.8431C51.905 38.1145 52.365 38.1145 52.6817 37.8431L53.1242 37.4641C53.4941 37.1473 53.9481 36.989 54.402 36.989V35.3945C54.208 35.3945 54.0133 35.4621 53.855 35.5981L53.4125 35.9771C52.6721 36.6112 51.598 36.6106 50.8575 35.9771L50.4151 35.5981C50.0983 35.3268 49.6384 35.3268 49.3216 35.5981L48.8792 35.9771C48.1387 36.6112 47.0646 36.6112 46.3242 35.9771L45.8817 35.5981C45.565 35.3268 45.105 35.3268 44.7883 35.5981L44.3458 35.9765C43.6054 36.6106 42.5307 36.6106 41.7909 35.9765L41.3484 35.5975C41.19 35.4621 40.996 35.3938 40.802 35.3938V34.2684C41.2559 34.2684 41.7093 34.4267 42.0798 34.7441L42.5222 35.1231C42.839 35.3945 43.299 35.3945 43.6157 35.1231L44.0581 34.7447C44.7986 34.1106 45.8733 34.1106 46.6131 34.7447L47.0556 35.1237C47.3723 35.3951 47.8323 35.3951 48.149 35.1237L48.5915 34.7447C49.3319 34.1106 50.406 34.1106 51.1465 34.7447L51.5889 35.1237C51.9056 35.3951 52.3656 35.3951 52.6823 35.1237L53.1248 34.7447C53.4947 34.4279 53.9487 34.2696 54.4026 34.2696V32.6751C54.2086 32.6751 54.0139 32.7428 53.8556 32.8788L53.4131 33.2577C52.6727 33.8918 51.5986 33.8918 50.8581 33.2577L50.4157 32.8788C50.099 32.6074 49.639 32.6074 49.3222 32.8788L48.8798 33.2577C48.1393 33.8918 47.0652 33.8918 46.3248 33.2577L45.8823 32.8788C45.5656 32.6074 45.1056 32.6074 44.7889 32.8788L44.3465 33.2571C43.606 33.8912 42.5313 33.8912 41.7915 33.2571L41.349 32.8788C41.1906 32.7434 40.9966 32.6751 40.8026 32.6751V31.5496C41.2565 31.5496 41.7099 31.7079 42.0804 32.0253L42.5228 32.4037C42.8396 32.6751 43.2996 32.6751 43.6163 32.4037L44.0587 32.0253C44.7992 31.3912 45.8739 31.3912 46.6137 32.0253L47.0562 32.4043C47.3729 32.6757 47.8329 32.6757 48.1496 32.4043L48.5921 32.0253C49.3325 31.3912 50.4066 31.3912 51.1471 32.0253L51.5895 32.4043C51.9062 32.6757 52.3662 32.6757 52.683 32.4043L53.1254 32.0253C53.4953 31.7085 53.9493 31.5502 54.4032 31.5502V29.9557C54.2092 29.9557 54.0145 30.0234 53.8562 30.1594L53.4137 30.5383C52.6733 31.1724 51.5992 31.1724 50.8587 30.5383L50.4163 30.1594C50.0996 29.888 49.6396 29.888 49.3228 30.1594L48.8804 30.5383C48.1399 31.1724 47.0658 31.1724 46.3254 30.5383L45.883 30.1594C45.5662 29.888 45.1062 29.888 44.7895 30.1594L44.3471 30.5377C43.6066 31.1718 42.5319 31.1718 41.7921 30.5377L41.3496 30.1594C41.1913 30.024 40.9972 29.9557 40.8032 29.9557V28.8302C41.2571 28.8302 41.7105 28.9885 42.081 29.3059L42.5234 29.6843C42.8402 29.9557 43.3002 29.9557 43.6169 29.6843L44.0593 29.3059C44.7998 28.6718 45.8745 28.6718 46.6143 29.3059L47.0568 29.6849C47.3735 29.9563 47.8335 29.9563 48.1502 29.6849L48.5927 29.3059C49.3331 28.6718 50.4072 28.6718 51.1477 29.3059L51.5901 29.6849C51.9068 29.9563 52.3668 29.9563 52.6836 29.6849L53.126 29.3059C53.4959 28.9892 53.9499 28.8308 54.4038 28.8308V27.2363C54.2098 27.2363 54.0151 27.304 53.8568 27.44L53.4143 27.8189L53.4113 27.8165Z" fill="#FFBE0C"/>
<rect x="3.5" y="4.5" width="59" height="60" rx="29.5" fill="#FFF5F7" stroke="#FF006E" stroke-width="3"/>
<path d="M41.5648 34.141C43.3326 33.3885 46.4007 31.7199 46.4007 31.7199V32.5329C46.4007 32.9513 46.7017 33.3329 47.1183 33.3746C47.5971 33.4225 48.0008 33.0476 48.0008 32.5786V21.9781H37.4969C36.683 21.9781 35.8809 22.175 35.1595 22.5519L28.4819 26.0397C27.6688 26.2144 26.9774 26.6672 26.5247 27.324C26.071 27.9823 25.9061 28.7874 26.0601 29.591C26.1711 30.1686 26.5154 30.824 27.0609 31.242C26.7686 32.2321 26.6736 33.3064 26.8354 34.4219C27.278 37.4741 29.6167 39.9727 32.6351 40.6046C37.05 41.5293 41.1082 38.3739 41.5645 34.1412L41.5648 34.141ZM27.6317 29.2897C27.5578 28.9046 27.6308 28.539 27.8424 28.232C28.0224 27.9706 33.2617 25.2951 35.5728 24.1232C36.2804 23.7643 37.0613 23.5781 37.8545 23.5781H46.401V29.9159C46.401 29.9159 39.5995 33.3926 38.8819 33.3502C38.2781 33.2627 37.7652 32.8814 37.5428 32.3556C37.4998 32.2542 37.4776 32.1436 37.4776 32.1436C37.3593 31.4045 37.7661 30.7003 38.4043 30.54L42.4647 27.8725C43.3652 27.3074 42.6561 26.2081 41.863 26.4225L38.2605 27.1356C37.0592 26.3436 35.6507 25.9157 34.184 25.9157C31.4411 25.9157 29.0429 27.4108 27.7564 29.6275C27.6954 29.511 27.6514 29.39 27.6319 29.2897L27.6317 29.2897ZM28.3573 33.341C28.3573 30.1289 30.9713 27.5158 34.1843 27.5158C35.4113 27.5158 36.587 27.8966 37.5676 28.5996C37.5794 28.6093 37.869 29.0291 37.869 29.0291C36.5166 29.4512 35.6574 30.8988 35.8972 32.3937C35.8972 32.3937 35.9873 32.7843 36.069 32.9786C36.508 34.0171 37.4979 34.7664 38.6521 34.9338C38.71 34.942 39.4463 34.8825 39.8287 34.7751C39.183 37.3023 36.8691 39.1662 34.1836 39.1662C30.971 39.1665 28.3572 36.5534 28.3572 33.341L28.3573 33.341Z" fill="#FF006E"/>
<path d="M24.442 39.7793C20.5771 39.7793 20 41.8828 20 43.1368V46.3876C20 47.6536 20.5731 49.7777 24.4127 49.7795H24.4178H24.422C28.2317 49.7764 28.8008 47.6534 28.8008 46.3876L28.8005 43.1368C28.8003 41.6053 28.0445 39.7793 24.442 39.7793H24.442ZM24.4436 41.3791C26.0799 41.3791 26.7448 41.7975 27.0152 42.2567C26.9959 42.3257 26.9821 42.3974 26.9821 42.4724C26.9821 43.0649 25.8342 43.7536 24.3535 43.7536C22.8728 43.7536 21.7248 43.0651 21.7248 42.4724C21.7248 42.4527 21.7204 42.4345 21.719 42.4152C21.9426 41.9045 22.5865 41.3791 24.4435 41.3791L24.4436 41.3791ZM27.2005 46.3876C27.2005 46.9234 27.2005 48.1787 24.4156 48.1794C21.6003 48.1788 21.6003 46.9236 21.6003 46.3876V44.6734C22.3355 45.0984 23.292 45.3535 24.3537 45.3535C25.4617 45.3535 26.4541 45.0747 27.2005 44.6155V46.3876Z" fill="#FF006E"/>
<path d="M34.5729 37.0046V36.4919C35.3793 36.2379 35.9657 35.4835 35.9657 34.5943C35.9657 33.4979 35.0735 32.6056 33.977 32.6056H33.5688C33.3544 32.6056 33.1799 32.4311 33.1799 32.2167C33.1799 32.0023 33.3544 31.8279 33.5688 31.8279H34.9278C35.3698 31.8279 35.7278 31.4696 35.7278 31.0279C35.7278 30.5862 35.3695 30.228 34.9278 30.228H34.5727V29.6765C34.5727 29.2345 34.2145 28.8765 33.7728 28.8765C33.3311 28.8765 32.9729 29.2348 32.9729 29.6765V30.3199C32.1665 30.5738 31.5801 31.3282 31.5801 32.2174C31.5801 33.3139 32.4723 34.2062 33.5688 34.2062H33.977C34.1914 34.2062 34.3659 34.3806 34.3659 34.595C34.3659 34.8094 34.1914 34.9839 33.977 34.9839H32.6179C32.176 34.9839 31.818 35.3421 31.818 35.7838C31.818 36.2255 32.1763 36.5837 32.6179 36.5837H32.9731V37.005C32.9731 37.4469 33.3313 37.8049 33.773 37.8049C34.2147 37.8047 34.5729 37.4463 34.5729 37.0046V37.0046Z" fill="#FF006E"/>
</g>
<defs>
<clipPath id="clip0_601_12779">
<rect width="68" height="68" rx="8" fill="white"/>
</clipPath>
</defs>
</svg>
