<svg width="69" height="69" viewBox="0 0 69 69" fill="none" xmlns="http://www.w3.org/2000/svg">
<g clip-path="url(#clip0_601_12675)">
<path d="M27.6 0H0V27.6H27.6V0Z" fill="#8637EB"/>
<path d="M6.34025 8.85815C8.69193 7.89701 9.81919 5.21144 8.85805 2.85976C7.89691 0.508079 5.21134 -0.619177 2.85966 0.341963C0.507976 1.3031 -0.61928 3.98867 0.34186 6.34035C1.303 8.69203 3.98857 9.81929 6.34025 8.85815Z" fill="#FF3334"/>
<path d="M13.9533 9.19679C16.4924 9.11255 18.4825 6.98591 18.3982 4.4468C18.314 1.90769 16.1874 -0.0823869 13.6483 0.0018441C11.1091 0.0860751 9.11906 2.21272 9.2033 4.75183C9.28753 7.29094 11.4142 9.28102 13.9533 9.19679Z" fill="#C197FF"/>
<path d="M24.0478 9.08128C26.5215 8.50245 28.0576 6.02789 27.4787 3.5542C26.8999 1.08051 24.4254 -0.455576 21.9517 0.123257C19.478 0.702089 17.9419 3.17665 18.5207 5.65034C19.0996 8.12403 21.5741 9.66011 24.0478 9.08128Z" fill="#FFBE0C"/>
<path d="M4.93001 18.3881C7.46405 18.2069 9.3714 16.0058 9.1902 13.4718C9.00901 10.9377 6.80787 9.03037 4.27383 9.21157C1.73979 9.39277 -0.167563 11.5939 0.0136343 14.1279C0.194832 16.662 2.39597 18.5693 4.93001 18.3881Z" fill="#FF3334"/>
<path d="M14.6804 18.3156C17.1738 17.8286 18.8004 15.4126 18.3134 12.9192C17.8265 10.4258 15.4105 8.7992 12.9171 9.28612C10.4237 9.77305 8.79708 12.1891 9.28401 14.6825C9.77093 17.1759 12.187 18.8025 14.6804 18.3156Z" fill="#C197FF"/>
<path d="M27.5408 14.5469C27.9527 12.04 26.2544 9.67383 23.7475 9.26196C21.2406 8.85009 18.8744 10.5484 18.4626 13.0554C18.0507 15.5623 19.749 17.9284 22.2559 18.3403C24.7628 18.7521 27.129 17.0538 27.5408 14.5469Z" fill="#FFBE0C"/>
<path d="M4.6 27.6C7.14051 27.6 9.2 25.5405 9.2 23C9.2 20.4595 7.14051 18.4 4.6 18.4C2.05949 18.4 0 20.4595 0 23C0 25.5405 2.05949 27.6 4.6 27.6Z" fill="#FF3334"/>
<path d="M13.9533 27.5971C16.4924 27.5129 18.4825 25.3862 18.3982 22.8471C18.314 20.308 16.1874 18.3179 13.6483 18.4022C11.1091 18.4864 9.11906 20.613 9.2033 23.1521C9.28753 25.6913 11.4142 27.6813 13.9533 27.5971Z" fill="#C197FF"/>
<path d="M26.2522 26.2527C28.0486 24.4563 28.0486 21.5437 26.2522 19.7473C24.4558 17.9509 21.5432 17.9509 19.7468 19.7473C17.9504 21.5437 17.9504 24.4563 19.7468 26.2527C21.5432 28.0491 24.4558 28.0491 26.2522 26.2527Z" fill="#FFBE0C"/>
<path d="M68.9996 27.6H27.5996V41.4H68.9996V27.6Z" fill="#8637EB"/>
<path d="M55.2004 34.5C55.2004 30.6894 52.111 27.6 48.3004 27.6C44.4898 27.6 41.4004 30.6894 41.4004 34.5C41.4004 38.3106 44.4898 41.4 48.3004 41.4C52.111 41.4 55.2004 38.3106 55.2004 34.5ZM44.8504 34.5C44.8504 32.5944 46.3948 31.05 48.3004 31.05C50.206 31.05 51.7504 32.5944 51.7504 34.5C51.7504 36.4056 50.206 37.95 48.3004 37.95C46.3948 37.95 44.8504 36.4056 44.8504 34.5Z" fill="#FF006E"/>
<path d="M41.3996 34.5C41.3996 30.6894 38.3103 27.6 34.4996 27.6C30.689 27.6 27.5996 30.6894 27.5996 34.5C27.5996 38.3106 30.689 41.4 34.4996 41.4C38.3103 41.4 41.3996 38.3106 41.3996 34.5ZM31.0496 34.5C31.0496 32.5944 32.594 31.05 34.4996 31.05C36.4052 31.05 37.9496 32.5944 37.9496 34.5C37.9496 36.4056 36.4052 37.95 34.4996 37.95C32.594 37.95 31.0496 36.4056 31.0496 34.5Z" fill="#FFBE0C"/>
<path d="M68.9992 34.5C68.9992 30.6894 65.9099 27.6 62.0992 27.6C58.2886 27.6 55.1992 30.6894 55.1992 34.5C55.1992 38.3106 58.2886 41.4 62.0992 41.4C65.9099 41.4 68.9992 38.3106 68.9992 34.5ZM58.6492 34.5C58.6492 32.5944 60.1936 31.05 62.0992 31.05C64.0048 31.05 65.5492 32.5944 65.5492 34.5C65.5492 36.4056 64.0048 37.95 62.0992 37.95C60.1936 37.95 58.6492 36.4056 58.6492 34.5Z" fill="#FF3334"/>
<path d="M55.2004 0H41.4004V13.8H55.2004V0Z" fill="#8637EB"/>
<path d="M51.7504 13.8H55.2004C55.2004 9.98935 52.111 6.89999 48.3004 6.89999C44.4898 6.89999 41.4004 9.98935 41.4004 13.8H44.8504C44.8504 11.8944 46.3948 10.35 48.3004 10.35C50.206 10.35 51.7504 11.8944 51.7504 13.8Z" fill="#FF006E"/>
<path d="M44.8504 0H41.4004C41.4004 3.81064 44.4898 6.9 48.3004 6.9C52.111 6.9 55.2004 3.81064 55.2004 0H51.7504C51.7504 1.90563 50.206 3.45 48.3004 3.45C46.3948 3.45 44.8504 1.90563 44.8504 0Z" fill="#FF3334"/>
<path d="M41.4008 41.4H13.8008V69H41.4008V41.4Z" fill="#FFBE0C"/>
<path d="M27.6012 55.2L34.5012 48.3H20.7012L27.6012 55.2Z" fill="#8637EB"/>
<path d="M20.7012 62.1L27.6012 69L34.5012 62.1H20.7012Z" fill="#8637EB"/>
<path d="M20.7008 55.2H13.8008L20.7008 48.3H13.8008L20.7008 41.4H13.8008V69L20.7008 62.1H13.8008L20.7008 55.2Z" fill="#8637EB"/>
<path d="M34.5012 41.4H20.7012L27.6012 48.3L34.5012 41.4Z" fill="#8637EB"/>
<path d="M41.4 69V62.1H34.5L41.4 69Z" fill="#8637EB"/>
<path d="M27.6012 62.1L34.5012 55.2H20.7012L27.6012 62.1Z" fill="#8637EB"/>
<path d="M34.5 41.4L41.4 48.3V41.4H34.5Z" fill="#8637EB"/>
<path d="M41.4 62.1V55.2H34.5L41.4 62.1Z" fill="#8637EB"/>
<path d="M41.4 55.2V48.3H34.5L41.4 55.2Z" fill="#8637EB"/>
<path d="M13.8 41.4H0V55.2H13.8V41.4Z" fill="#FF3334"/>
<path d="M0 55.2V41.4H13.8L0 55.2Z" fill="#7C29E1"/>
<path d="M6.90039 55.2V48.3H13.8004L6.90039 55.2Z" fill="#8637EB"/>
<path d="M10.3496 55.2V51.75H13.7996L10.3496 55.2Z" fill="#8637EB"/>
<path d="M68.9992 13.8H55.1992V27.6H68.9992V13.8Z" fill="#FF3334"/>
<path d="M55.1992 20.7H62.0992V27.6L55.1992 20.7Z" fill="#8637EB"/>
<path d="M62.0996 20.7H68.9996V27.6L62.0996 20.7Z" fill="#8637EB"/>
<path d="M55.1992 13.8H62.0992V20.7L55.1992 13.8Z" fill="#8637EB"/>
<path d="M62.0996 13.8H68.9996V20.7L62.0996 13.8Z" fill="#8637EB"/>
<path d="M55.2004 13.8H41.4004V27.6H55.2004V13.8Z" fill="#FFBE0C"/>
<path d="M41.4004 17.25H44.8504V13.8L41.4004 17.25ZM41.4004 20.7H44.8504V17.25L41.4004 20.7ZM41.4004 24.15H44.8504V20.7L41.4004 24.15ZM41.4004 27.6H44.8504V24.15L41.4004 27.6ZM44.8504 17.25H48.3004V13.8L44.8504 17.25ZM48.3004 20.7V17.25L44.8504 20.7H48.3004ZM48.3004 20.7L44.8504 24.15H48.3004V20.7ZM44.8504 27.6H48.3004V24.15L44.8504 27.6ZM51.7504 13.8L48.3004 17.25H51.7504V13.8ZM51.7504 20.7V17.25L48.3004 20.7H51.7504ZM51.7504 24.15V20.7L48.3004 24.15H51.7504ZM48.3004 27.6H51.7504V24.15L48.3004 27.6ZM55.2004 13.8L51.7504 17.25H55.2004V13.8ZM55.2004 20.7V17.25L51.7504 20.7H55.2004ZM55.2004 24.15V20.7L51.7504 24.15H55.2004ZM55.2004 27.6V24.15L51.7504 27.6H55.2004Z" fill="#FF3334"/>
<path d="M41.4 20.7001H34.5V27.6001H41.4V20.7001Z" fill="#8637EB"/>
<path d="M34.5 22.4253H36.2253V20.7006L34.5 22.4253ZM34.5 24.15H36.2253V22.4253L34.5 24.15ZM34.5 25.8747H36.2253V24.15L34.5 25.8747ZM34.5 27.5994H36.2253V25.8747L34.5 27.5994ZM36.2253 22.4247H37.95V20.7L36.2253 22.4247ZM37.95 24.1494V22.4247L36.2253 24.1494H37.95ZM37.95 24.1494L36.2253 25.8741H37.95V24.1494ZM36.2253 27.5994H37.95V25.8747L36.2253 27.5994ZM39.6753 20.6994L37.9506 22.4241H39.6753V20.6994ZM39.6753 24.1494V22.4247L37.9506 24.1494H39.6753ZM39.6753 25.8741V24.1494L37.9506 25.8741H39.6753ZM37.9506 27.5988H39.6753V25.8741L37.9506 27.5988ZM41.4006 20.6988L39.6759 22.4235H41.4006V20.6988ZM41.4006 24.1488V22.4241L39.6759 24.1488H41.4006ZM41.4006 25.8735V24.1488L39.6759 25.8735H41.4006ZM41.4006 27.5982V25.8735L39.6759 27.5982H41.4006Z" fill="#FFBE0C"/>
<path d="M34.4996 20.7001H27.5996V27.6001H34.4996V20.7001Z" fill="#8637EB"/>
<path d="M27.5996 22.4253H29.3243V20.7006L27.5996 22.4253ZM27.5996 24.15H29.3243V22.4253L27.5996 24.15ZM27.5996 25.8747H29.3243V24.15L27.5996 25.8747ZM27.5996 27.5994H29.3243V25.8747L27.5996 27.5994ZM29.3243 22.4247H31.049V20.7L29.3243 22.4247ZM31.049 24.1494V22.4247L29.3243 24.1494H31.049ZM31.049 24.1494L29.3243 25.8741H31.049V24.1494ZM29.3243 27.5994H31.049V25.8747L29.3243 27.5994ZM32.7743 20.6994L31.0496 22.4241H32.7743V20.6994ZM32.7743 24.1494V22.4247L31.0496 24.1494H32.7743ZM32.7743 25.8741V24.1494L31.0496 25.8741H32.7743ZM31.0496 27.5988H32.7743V25.8741L31.0496 27.5988ZM34.4996 20.6988L32.7749 22.4235H34.4996V20.6988ZM34.4996 24.1488V22.4241L32.7749 24.1488H34.4996ZM34.4996 25.8735V24.1488L32.7749 25.8735H34.4996ZM34.4996 27.5982V25.8735L32.7749 27.5982H34.4996Z" fill="#FFBE0C"/>
<path d="M41.4 13.8001H34.5V20.7001H41.4V13.8001Z" fill="#8637EB"/>
<path d="M34.5 15.5253H36.2247V13.8006L34.5 15.5253ZM34.5 17.25H36.2247V15.5253L34.5 17.25ZM34.5 18.9747H36.2247V17.25L34.5 18.9747ZM34.5 20.6994H36.2247V18.9747L34.5 20.6994ZM36.2247 15.5247H37.9494V13.8L36.2247 15.5247ZM37.9494 17.2494V15.5247L36.2247 17.2494H37.9494ZM37.9494 17.2494L36.2247 18.9741H37.9494V17.2494ZM36.2247 20.6994H37.9494V18.9747L36.2247 20.6994ZM39.6747 13.7994L37.95 15.5241H39.6747V13.7994ZM39.6747 17.2494V15.5247L37.95 17.2494H39.6747ZM39.6747 18.9741V17.2494L37.95 18.9741H39.6747ZM37.95 20.6988H39.6747V18.9741L37.95 20.6988ZM41.4 13.7988L39.6753 15.5235H41.4V13.7988ZM41.4 17.2488V15.5241L39.6753 17.2488H41.4ZM41.4 18.9735V17.2488L39.6753 18.9735H41.4ZM41.4 20.6982V18.9735L39.6753 20.6982H41.4Z" fill="#FFBE0C"/>
<path d="M34.4996 13.8001H27.5996V20.7001H34.4996V13.8001Z" fill="#8637EB"/>
<path d="M27.5996 15.5253H29.3243V13.8006L27.5996 15.5253ZM27.5996 17.25H29.3243V15.5253L27.5996 17.25ZM27.5996 18.9747H29.3243V17.25L27.5996 18.9747ZM27.5996 20.6994H29.3243V18.9747L27.5996 20.6994ZM29.3243 15.5247H31.049V13.8L29.3243 15.5247ZM31.049 17.2494V15.5247L29.3243 17.2494H31.049ZM31.049 17.2494L29.3243 18.9741H31.049V17.2494ZM29.3243 20.6994H31.049V18.9747L29.3243 20.6994ZM32.7743 13.7994L31.0496 15.5241H32.7743V13.7994ZM32.7743 17.2494V15.5247L31.0496 17.2494H32.7743ZM32.7743 18.9741V17.2494L31.0496 18.9741H32.7743ZM31.0496 20.6988H32.7743V18.9741L31.0496 20.6988ZM34.4996 13.7988L32.7749 15.5235H34.4996V13.7988ZM34.4996 17.2488V15.5241L32.7749 17.2488H34.4996ZM34.4996 18.9735V17.2488L32.7749 18.9735H34.4996ZM34.4996 20.6982V18.9735L32.7749 20.6982H34.4996Z" fill="#FFBE0C"/>
<path d="M13.8 55.2H0V69H13.8V55.2Z" fill="#8637EB"/>
<path d="M13.7996 69L10.3496 65.55L13.7996 62.1V69Z" fill="#FF3334"/>
<path d="M0 55.2L3.45 58.65L0 62.1V55.2Z" fill="#FF3334"/>
<path d="M3.45 69L0 65.55L3.45 62.1V55.2L6.9 58.65L3.45 62.1V69Z" fill="#FF3334"/>
<path d="M3.44922 65.55L6.89922 62.1V55.2L10.3492 58.65L6.89922 62.1V69L3.44922 65.55Z" fill="#FF3334"/>
<path d="M10.3504 55.2L13.8004 58.65L10.3504 62.1V69L6.90039 65.55L10.3504 62.1V55.2Z" fill="#FF3334"/>
<path d="M68.9992 0H55.1992V13.8H68.9992V0Z" fill="#FFBE0C"/>
<path d="M59.7992 9.2H62.0992V0H59.7992V9.2ZM55.1992 9.2H57.4992V0H55.1992V9.2ZM64.3992 0V9.2H66.6992V0H64.3992Z" fill="#FF3334"/>
<path d="M62.1 13.8H64.4V9.2H62.1V13.8ZM57.5 13.8H59.8V9.2H57.5V13.8ZM66.7 9.2V13.8H69V9.2H66.7Z" fill="#FF3334"/>
<path d="M27.6008 27.6H13.8008V41.4H27.6008V27.6Z" fill="#8637EB"/>
<path d="M27.6012 41.4V27.6C23.7905 27.6 20.7012 30.6894 20.7012 34.5C20.7012 38.3106 23.7905 41.4 27.6012 41.4Z" fill="#FFBE0C"/>
<path d="M20.7008 34.5C20.7008 30.6894 17.6114 27.6 13.8008 27.6V41.4C17.6114 41.4 20.7008 38.3106 20.7008 34.5Z" fill="#FFBE0C"/>
<path d="M69.0004 41.4H41.4004V69H69.0004V41.4Z" fill="#8637EB"/>
<path d="M69.0004 41.4H41.4004C41.4004 49.0213 47.5791 55.2 55.2004 55.2C62.8217 55.2 69.0004 49.0213 69.0004 41.4Z" fill="#FFBE0C"/>
<path d="M68.9996 62.1C68.9996 58.2894 65.9102 55.2 62.0996 55.2V69C65.9102 69 68.9996 65.9106 68.9996 62.1Z" fill="#FF3334"/>
<path d="M62.0992 62.1C62.0992 58.2894 59.0099 55.2 55.1992 55.2V69C59.0099 69 62.0992 65.9106 62.0992 62.1Z" fill="#FF3334"/>
<path d="M55.2008 62.1C55.2008 58.2894 52.1114 55.2 48.3008 55.2V69C52.1114 69 55.2008 65.9106 55.2008 62.1Z" fill="#FF3334"/>
<path d="M13.8 27.6H0V41.4H13.8V27.6Z" fill="#FFBE0C"/>
<path d="M6.9 41.4C10.7106 41.4 13.8 38.3106 13.8 34.5C13.8 30.6894 10.7106 27.6 6.9 27.6H0V41.4H6.9Z" fill="#FF006E"/>
<path d="M41.4016 0H27.6016V13.8H41.4016V0Z" fill="#FFBE0C"/>
<path d="M41.3578 10.9035C41.6631 9.02275 40.3859 7.2506 38.5051 6.94531C36.6244 6.64002 34.8522 7.91719 34.5469 9.79796C34.2416 11.6787 35.5188 13.4509 37.3996 13.7562C39.2803 14.0615 41.0525 12.7843 41.3578 10.9035Z" fill="#FF3334"/>
<path d="M41.3578 4.00319C41.6631 2.12242 40.3859 0.35027 38.5051 0.0449788C36.6244 -0.260312 34.8522 1.01686 34.5469 2.89763C34.2416 4.77839 35.5188 6.55054 37.3996 6.85583C39.2803 7.16112 41.0525 5.88395 41.3578 4.00319Z" fill="#FF006E"/>
<path d="M34.444 10.9823C34.7925 9.10906 33.5565 7.30796 31.6832 6.95942C29.81 6.61089 28.0089 7.8469 27.6604 9.72013C27.3118 11.5934 28.5479 13.3945 30.4211 13.743C32.2943 14.0915 34.0954 12.8555 34.444 10.9823Z" fill="#FF006E"/>
<path d="M34.4228 4.1837C34.8278 2.32185 33.6467 0.484252 31.7848 0.0793227C29.923 -0.325607 28.0854 0.855467 27.6805 2.71732C27.2755 4.57918 28.4566 6.41678 30.3185 6.82171C32.1803 7.22664 34.0179 6.04556 34.4228 4.1837Z" fill="#FF3334"/>
<path d="M44.8504 55.2C42.9448 55.2 41.4004 56.7444 41.4004 58.65H48.3004C48.3004 56.7444 46.756 55.2 44.8504 55.2Z" fill="#FFBE0C"/>
<path d="M44.8504 58.65C42.9448 58.65 41.4004 60.1944 41.4004 62.1H48.3004C48.3004 60.1944 46.756 58.65 44.8504 58.65Z" fill="#FFBE0C"/>
<path d="M46.5749 67.2747C47.5274 67.2747 48.2996 66.5025 48.2996 65.55H44.8496C44.8496 66.5025 45.6218 67.2747 46.5743 67.2747H46.5749Z" fill="#FF3334"/>
<path d="M46.5763 67.2747C45.6237 67.2747 44.8516 68.0469 44.8516 68.9994H48.3016C48.3016 68.0469 47.5294 67.2747 46.5769 67.2747H46.5763Z" fill="#FFBE0C"/>
<path d="M43.1251 65.5494C44.0776 65.5494 44.8498 64.7772 44.8498 63.8247C44.8498 62.8722 44.0776 62.1 43.1251 62.1C42.1726 62.1 41.4004 62.8722 41.4004 63.8247C41.4004 64.7772 42.1726 65.5494 43.1251 65.5494Z" fill="#FFBE0C"/>
<path d="M44.8498 67.2747C44.8498 66.3222 44.0776 65.55 43.1251 65.55C42.1726 65.55 41.4004 66.3222 41.4004 67.2747C41.4004 68.2272 42.1726 68.9994 43.1251 68.9994C44.0776 68.9994 44.8498 68.2272 44.8498 67.2747ZM42.2621 67.2747C42.2621 66.7981 42.6485 66.4123 43.1245 66.4123C43.6004 66.4123 43.9868 66.7987 43.9868 67.2747C43.9868 67.7506 43.6004 68.137 43.1245 68.137C42.6485 68.137 42.2621 67.7506 42.2621 67.2747Z" fill="#FF3334"/>
<path d="M48.3009 63.8253C48.3009 62.8728 47.5288 62.1006 46.5763 62.1006C45.6237 62.1006 44.8516 62.8728 44.8516 63.8253C44.8516 64.7778 45.6237 65.55 46.5763 65.55C47.5288 65.55 48.3009 64.7778 48.3009 63.8253ZM45.7133 63.8253C45.7133 63.3487 46.0997 62.963 46.5756 62.963C47.0516 62.963 47.438 63.3494 47.438 63.8253C47.438 64.3013 47.0516 64.6877 46.5756 64.6877C46.0997 64.6877 45.7133 64.3013 45.7133 63.8253Z" fill="#FF3334"/>
<rect x="5.5" y="4.5" width="59" height="60" rx="29.5" fill="#FFF5F7" stroke="#9961EC" stroke-width="3"/>
<path d="M25.068 22.4284C24.702 22.4629 24.4228 22.7711 24.4245 23.1387V26.691H22.2943C22.272 26.6901 22.25 26.6901 22.2277 26.691C21.8617 26.7257 21.5825 27.0339 21.5842 27.4016V33.0853H20.8742C20.8519 33.0841 20.8298 33.0841 20.8075 33.0853C20.4416 33.1198 20.1624 33.428 20.1641 33.7956V39.4794C20.1641 39.8718 20.4819 40.1897 20.8741 40.1897H21.5842V45.6514C21.4823 45.9703 21.6161 46.3169 21.9057 46.4841C21.9132 46.4915 21.9204 46.499 21.928 46.5059C21.9389 46.5099 21.9501 46.5136 21.9612 46.5171C21.9828 46.5292 22.0051 46.5404 22.0279 46.5505C22.0353 46.5542 22.0425 46.5579 22.0502 46.5614C22.0648 46.5656 22.0797 46.5693 22.0945 46.5726C22.1054 46.5728 22.1166 46.5728 22.1277 46.5726C22.1386 46.5763 22.1498 46.58 22.1609 46.5835C22.1721 46.5837 22.1832 46.5837 22.1944 46.5835C22.2786 46.5988 22.3651 46.5988 22.4496 46.5835H38.2704C38.4602 46.5854 38.6428 46.5116 38.7775 46.3781C38.9126 46.2448 38.9884 46.0627 38.9884 45.8729C38.9884 45.6831 38.9126 45.5013 38.7775 45.3677C38.6428 45.2344 38.4602 45.1604 38.2704 45.1626H23.0039V40.1894H33.6549L33.6547 40.1892C34.0469 40.1892 34.3647 39.8713 34.3647 39.4789V33.7951C34.3647 33.4029 34.0468 33.0848 33.6547 33.0848H23.0037V28.1117H45.3706C45.7526 28.1117 46.1111 28.024 46.4357 27.8674V36.9924H46.4359C46.4332 37.1824 46.5068 37.3657 46.6403 37.5013C46.7736 37.6365 46.9557 37.7128 47.146 37.7128C47.336 37.7128 47.5181 37.6365 47.6517 37.5013C47.785 37.3657 47.8586 37.1824 47.8561 36.9924V25.2695C47.8571 25.2474 47.8571 25.2251 47.8561 25.2028V24.9142C47.8561 23.5488 46.7355 22.4275 45.3708 22.4275H25.1344V22.4277C25.1121 22.4267 25.0898 22.4267 25.0677 22.4277L25.068 22.4284ZM25.8447 23.8493H45.3714C45.9737 23.8493 46.4365 24.3123 46.4365 24.9149V25.2147C46.4358 25.2332 46.4358 25.2516 46.4365 25.2702V25.6254C46.4365 26.2282 45.9737 26.6911 45.3714 26.6911H25.8447V23.8493ZM21.5843 34.506H32.945V38.7686H21.5843V34.506ZM30.8152 34.8613C29.8433 34.8613 29.04 35.665 29.04 36.6374C29.04 37.6099 29.8433 38.4136 30.8152 38.4136C31.7871 38.4136 32.5903 37.6099 32.5903 36.6374C32.5903 35.665 31.7871 34.8613 30.8152 34.8613ZM30.8152 36.2821C31.0196 36.2821 31.1702 36.4328 31.1702 36.6374C31.1702 36.8421 31.0196 36.9927 30.8152 36.9927C30.6108 36.9927 30.4601 36.8421 30.4601 36.6374C30.4601 36.4328 30.6108 36.2821 30.8152 36.2821ZM44.2512 38.7577L44.251 38.7574C44.0934 38.7718 43.945 38.8382 43.8293 38.9462L39.5689 42.8538C39.42 42.9886 39.3347 43.1801 39.3347 43.3813C39.3347 43.5822 39.42 43.7737 39.5689 43.9085L43.8293 47.8161V47.8158C43.969 47.9427 44.1533 48.0083 44.3416 47.9991C44.5302 47.9897 44.7071 47.906 44.8334 47.766C44.96 47.626 45.0259 47.4417 45.0165 47.2532C45.0071 47.0649 44.9234 46.888 44.7834 46.7614L41.8765 44.0972H49.2769L49.2772 44.097C49.4677 44.1005 49.6515 44.0271 49.7873 43.8936C49.9233 43.7601 49.9999 43.5772 49.9999 43.3867C49.9999 43.1959 49.9233 43.0133 49.7873 42.8798C49.6515 42.7462 49.4677 42.6729 49.2772 42.6761H41.8767L44.7836 40.0008H44.7834C45.016 39.7982 45.0913 39.4687 44.9699 39.185C44.8485 38.9013 44.5579 38.7286 44.2509 38.7574L44.2512 38.7577Z" fill="#8637EB"/>
</g>
<defs>
<clipPath id="clip0_601_12675">
<rect width="69" height="69" rx="8" fill="white"/>
</clipPath>
</defs>
</svg>
